<?xml version="1.0" encoding="UTF-8" standalone="no"?>
<!DOCTYPE svg PUBLIC "-//W3C//DTD SVG 1.1//EN"
 "http://www.w3.org/Graphics/SVG/1.1/DTD/svg11.dtd">
<!-- Generated by graphviz version 12.2.1 (20241206.2353)
 -->
<!-- Title: WPR.Repository.DatabaseCheckRepository.DatabaseCheckRepository.DeleteBusiness Pages: 1 -->
<!--zoomable 164 -->

<svg id="main" version="1.1" xmlns="http://www.w3.org/2000/svg" xmlns:xlink="http://www.w3.org/1999/xlink" xml:space="preserve" onload="init(evt)">

<style type="text/css"><![CDATA[
.node, .edge {opacity: 0.7;}
.node.selected, .edge.selected {opacity: 1;}
.edge:hover path { stroke: red; }
.edge:hover polygon { stroke: red; fill: red; }
]]></style>

<defs>
  <circle id="rim" cx="0" cy="0" r="7"/>
  <circle id="rim2" cx="0" cy="0" r="3.5"/>
  <g id="zoomPlus">
    <use xlink:href="#rim" fill="#404040"><set attributeName="fill" to="#808080" begin="zoomplus.mouseover" end="zoomplus.mouseout"/></use>
    <path d="M-4,0h8M0,-4v8" fill="none" stroke="white" stroke-width="1.5" pointer-events="none"/>
  </g>
  <g id="zoomMin">
    <use xlink:href="#rim" fill="#404040"><set attributeName="fill" to="#808080" begin="zoomminus.mouseover" end="zoomminus.mouseout"/></use>
    <path d="M-4,0h8" fill="none" stroke="white" stroke-width="1.5" pointer-events="none"/>
  </g>
  <g id="arrowUp" transform="translate(30 24)">
    <use xlink:href="#rim"/>
    <path pointer-events="none" fill="none" stroke="white" stroke-width="1.5" d="M0,-3.0v7 M-2.5,-0.5L0,-3.0L2.5,-0.5"/>
  </g>
  <g id="arrowRight" transform="rotate(90) translate(36 -43)">
    <use xlink:href="#rim"/>
    <path pointer-events="none" fill="none" stroke="white" stroke-width="1.5" d="M0,-3.0v7 M-2.5,-0.5L0,-3.0L2.5,-0.5"/>
  </g>
  <g id="arrowDown" transform="rotate(180) translate(-30 -48)">
    <use xlink:href="#rim"/>
    <path pointer-events="none" fill="none" stroke="white" stroke-width="1.5" d="M0,-3.0v7 M-2.5,-0.5L0,-3.0L2.5,-0.5"/>
  </g>
  <g id="arrowLeft" transform="rotate(270) translate(-36 17)">
    <use xlink:href="#rim"/>
    <path pointer-events="none" fill="none" stroke="white" stroke-width="1.5" d="M0,-3.0v7 M-2.5,-0.5L0,-3.0L2.5,-0.5"/>
  </g>
  <g id="resetDef">
    <use xlink:href="#rim2" fill="#404040"><set attributeName="fill" to="#808080" begin="reset.mouseover" end="reset.mouseout"/></use>
  </g>
</defs>
<script type="application/ecmascript">
var viewWidth = 1080;
var viewHeight = 164;
var sectionId = 'dynsection-2';
</script>
<script type="application/ecmascript" xlink:href="svg.min.js"/>
<svg id="graph" class="graph">
<g id="viewport">
<title>WPR.Repository.DatabaseCheckRepository.DatabaseCheckRepository.DeleteBusiness</title>
<!-- Node1 -->
<g id="Node000001" class="node">
<title>Node1</title>
<g id="a_Node000001"><a xlink:title=" ">
<polygon fill="#999999" stroke="#666666" points="185.5,-94 0,-94 0,-50 185.5,-50 185.5,-94"/>
<text text-anchor="start" x="8" y="-80.5" font-family="Helvetica,sans-Serif" font-size="10.00">WPR.Repository.DatabaseCheck</text>
<text text-anchor="start" x="8" y="-68.5" font-family="Helvetica,sans-Serif" font-size="10.00">Repository.DatabaseCheckRepository.</text>
<text text-anchor="middle" x="92.75" y="-56.5" font-family="Helvetica,sans-Serif" font-size="10.00">DeleteBusiness</text>
</a>
</g>
</g>
<!-- Node2 -->
<g id="Node000002" class="node">
<title>Node2</title>
<g id="a_Node000002"><a xlink:href="class_w_p_r_1_1_repository_1_1_database_check_repository_1_1_database_check_repository.html#a5fd15b3ae862921144363bb1407c18b0" target="_top" xlink:title=" ">
<polygon fill="white" stroke="#666666" points="407,-156 221.5,-156 221.5,-112 407,-112 407,-156"/>
<text text-anchor="start" x="229.5" y="-142.5" font-family="Helvetica,sans-Serif" font-size="10.00">WPR.Repository.DatabaseCheck</text>
<text text-anchor="start" x="229.5" y="-130.5" font-family="Helvetica,sans-Serif" font-size="10.00">Repository.DatabaseCheckRepository.</text>
<text text-anchor="middle" x="314.25" y="-118.5" font-family="Helvetica,sans-Serif" font-size="10.00">DeleteBusinessAllowed</text>
</a>
</g>
</g>
<!-- Node1&#45;&gt;Node2 -->
<g id="edge1_Node000001_Node000002" class="edge">
<title>Node1&#45;&gt;Node2</title>
<g id="a_edge1_Node000001_Node000002"><a xlink:title=" ">
<path fill="none" stroke="#63b8ff" d="M173.3,-94.47C189.41,-99.02 206.45,-103.83 222.89,-108.48"/>
<polygon fill="#63b8ff" stroke="#63b8ff" points="221.57,-111.74 232.14,-111.09 223.47,-105 221.57,-111.74"/>
</a>
</g>
</g>
<!-- Node3 -->
<g id="Node000003" class="node">
<title>Node3</title>
<g id="a_Node000003"><a xlink:href="class_w_p_r_1_1_repository_1_1_database_check_repository_1_1_database_check_repository.html#ae2e26046eef328d9b24ced25cad3b2a5" target="_top" xlink:title=" ">
<polygon fill="white" stroke="#666666" points="407,-94 221.5,-94 221.5,-50 407,-50 407,-94"/>
<text text-anchor="start" x="229.5" y="-80.5" font-family="Helvetica,sans-Serif" font-size="10.00">WPR.Repository.DatabaseCheck</text>
<text text-anchor="start" x="229.5" y="-68.5" font-family="Helvetica,sans-Serif" font-size="10.00">Repository.DatabaseCheckRepository.</text>
<text text-anchor="middle" x="314.25" y="-56.5" font-family="Helvetica,sans-Serif" font-size="10.00">DeleteEmployees</text>
</a>
</g>
</g>
<!-- Node1&#45;&gt;Node3 -->
<g id="edge2_Node000001_Node000003" class="edge">
<title>Node1&#45;&gt;Node3</title>
<g id="a_edge2_Node000001_Node000003"><a xlink:title=" ">
<path fill="none" stroke="#63b8ff" d="M185.88,-72C193.69,-72 201.61,-72 209.5,-72"/>
<polygon fill="#63b8ff" stroke="#63b8ff" points="209.49,-75.5 219.49,-72 209.49,-68.5 209.49,-75.5"/>
</a>
</g>
</g>
<!-- Node5 -->
<g id="Node000005" class="node">
<title>Node5</title>
<g id="a_Node000005"><a xlink:href="class_w_p_r_1_1_repository_1_1_database_check_repository_1_1_database_check_repository.html#a5ef386a9041a706a2db64267c1689bc7" target="_top" xlink:title=" ">
<polygon fill="white" stroke="#666666" points="850,-44 664.5,-44 664.5,0 850,0 850,-44"/>
<text text-anchor="start" x="672.5" y="-30.5" font-family="Helvetica,sans-Serif" font-size="10.00">WPR.Repository.DatabaseCheck</text>
<text text-anchor="start" x="672.5" y="-18.5" font-family="Helvetica,sans-Serif" font-size="10.00">Repository.DatabaseCheckRepository.</text>
<text text-anchor="middle" x="757.25" y="-6.5" font-family="Helvetica,sans-Serif" font-size="10.00">HandleDelete</text>
</a>
</g>
</g>
<!-- Node1&#45;&gt;Node5 -->
<g id="edge7_Node000001_Node000005" class="edge">
<title>Node1&#45;&gt;Node5</title>
<g id="a_edge7_Node000001_Node000005"><a xlink:title=" ">
<path fill="none" stroke="#63b8ff" d="M175.75,-49.51C190.86,-46.11 206.58,-43.05 221.5,-41 370.6,-20.48 545.16,-18.32 653.24,-19.5"/>
<polygon fill="#63b8ff" stroke="#63b8ff" points="652.9,-23 662.94,-19.62 652.99,-16 652.9,-23"/>
</a>
</g>
</g>
<!-- Node4 -->
<g id="Node000004" class="node">
<title>Node4</title>
<g id="a_Node000004"><a xlink:href="class_w_p_r_1_1_repository_1_1_database_check_repository_1_1_database_check_repository.html#aeeb328ca72466c0added5450b0af72cd" target="_top" xlink:title=" ">
<polygon fill="white" stroke="#666666" points="628.5,-94 443,-94 443,-50 628.5,-50 628.5,-94"/>
<text text-anchor="start" x="451" y="-80.5" font-family="Helvetica,sans-Serif" font-size="10.00">WPR.Repository.DatabaseCheck</text>
<text text-anchor="start" x="451" y="-68.5" font-family="Helvetica,sans-Serif" font-size="10.00">Repository.DatabaseCheckRepository.</text>
<text text-anchor="middle" x="535.75" y="-56.5" font-family="Helvetica,sans-Serif" font-size="10.00">DeleteUser</text>
</a>
</g>
</g>
<!-- Node3&#45;&gt;Node4 -->
<g id="edge3_Node000003_Node000004" class="edge">
<title>Node3&#45;&gt;Node4</title>
<g id="a_edge3_Node000003_Node000004"><a xlink:title=" ">
<path fill="none" stroke="#63b8ff" d="M407.38,-72C415.19,-72 423.11,-72 431,-72"/>
<polygon fill="#63b8ff" stroke="#63b8ff" points="430.99,-75.5 440.99,-72 430.99,-68.5 430.99,-75.5"/>
</a>
</g>
</g>
<!-- Node4&#45;&gt;Node5 -->
<g id="edge4_Node000004_Node000005" class="edge">
<title>Node4&#45;&gt;Node5</title>
<g id="a_edge4_Node000004_Node000005"><a xlink:title=" ">
<path fill="none" stroke="#63b8ff" d="M628.88,-51.01C636.87,-49.19 644.98,-47.35 653.05,-45.51"/>
<polygon fill="#63b8ff" stroke="#63b8ff" points="653.55,-48.98 662.52,-43.35 652,-42.16 653.55,-48.98"/>
</a>
</g>
</g>
<!-- Node6 -->
<g id="Node000006" class="node">
<title>Node6</title>
<g id="a_Node000006"><a xlink:href="class_w_p_r_1_1_repository_1_1_database_check_repository_1_1_database_check_repository.html#a13ae0d3f4211da655fc83812019febf6" target="_top" xlink:title=" ">
<polygon fill="white" stroke="#666666" points="850,-106 664.5,-106 664.5,-62 850,-62 850,-106"/>
<text text-anchor="start" x="672.5" y="-92.5" font-family="Helvetica,sans-Serif" font-size="10.00">WPR.Repository.DatabaseCheck</text>
<text text-anchor="start" x="672.5" y="-80.5" font-family="Helvetica,sans-Serif" font-size="10.00">Repository.DatabaseCheckRepository.</text>
<text text-anchor="middle" x="757.25" y="-68.5" font-family="Helvetica,sans-Serif" font-size="10.00">UserHasActiveContract</text>
</a>
</g>
</g>
<!-- Node4&#45;&gt;Node6 -->
<g id="edge5_Node000004_Node000006" class="edge">
<title>Node4&#45;&gt;Node6</title>
<g id="a_edge5_Node000004_Node000006"><a xlink:title=" ">
<path fill="none" stroke="#63b8ff" d="M628.88,-77.04C636.78,-77.47 644.8,-77.91 652.77,-78.34"/>
<polygon fill="#63b8ff" stroke="#63b8ff" points="652.31,-81.82 662.49,-78.87 652.69,-74.83 652.31,-81.82"/>
</a>
</g>
</g>
<!-- Node7 -->
<g id="Node000007" class="node">
<title>Node7</title>
<g id="a_Node000007"><a xlink:href="class_w_p_r_1_1_repository_1_1_database_check_repository_1_1_database_check_repository.html#a02f0d55f292e91e17da9fb5fef08f4a8" target="_top" xlink:title=" ">
<polygon fill="white" stroke="#666666" points="1071.5,-106 886,-106 886,-62 1071.5,-62 1071.5,-106"/>
<text text-anchor="start" x="894" y="-92.5" font-family="Helvetica,sans-Serif" font-size="10.00">WPR.Repository.DatabaseCheck</text>
<text text-anchor="start" x="894" y="-80.5" font-family="Helvetica,sans-Serif" font-size="10.00">Repository.DatabaseCheckRepository.</text>
<text text-anchor="middle" x="978.75" y="-68.5" font-family="Helvetica,sans-Serif" font-size="10.00">DeleteFutereContracts</text>
</a>
</g>
</g>
<!-- Node6&#45;&gt;Node7 -->
<g id="edge6_Node000006_Node000007" class="edge">
<title>Node6&#45;&gt;Node7</title>
<g id="a_edge6_Node000006_Node000007"><a xlink:title=" ">
<path fill="none" stroke="#63b8ff" d="M850.38,-84C858.19,-84 866.11,-84 874,-84"/>
<polygon fill="#63b8ff" stroke="#63b8ff" points="873.99,-87.5 883.99,-84 873.99,-80.5 873.99,-87.5"/>
</a>
</g>
</g>
</g>
</svg>

<g id="navigator" transform="translate(0 0)" fill="#404254">
  <rect fill="#f2f5e9" fill-opacity="0.5" stroke="#606060" stroke-width=".5" x="0" y="0" width="60" height="60"/>
  <use id="zoomplus" xlink:href="#zoomPlus" x="17" y="9" onmousedown="handleZoom(evt,'in')"/>
  <use id="zoomminus" xlink:href="#zoomMin" x="42" y="9" onmousedown="handleZoom(evt,'out')"/>
  <use id="reset" xlink:href="#resetDef" x="30" y="36" onmousedown="handleReset()"/>
   <use id="arrowup" xlink:href="#arrowUp" x="0" y="0" onmousedown="handlePan(0,-1)"/>
  <use id="arrowright" xlink:href="#arrowRight" x="0" y="0" onmousedown="handlePan(1,0)"/>
  <use id="arrowdown" xlink:href="#arrowDown" x="0" y="0" onmousedown="handlePan(0,1)"/>
  <use id="arrowleft" xlink:href="#arrowLeft" x="0" y="0" onmousedown="handlePan(-1,0)"/>
</g>
<svg viewBox="0 0 15 15" width="100%" height="30px" preserveAspectRatio="xMaxYMin meet">
 <g id="arrow_out" transform="scale(0.3 0.3)">
  <a xlink:href="class_w_p_r_1_1_repository_1_1_database_check_repository_1_1_database_check_repository_acf45131187cc98ce1de5554795fa3c28_cgraph_org.svg" target="_base">
   <rect id="button" ry="5" rx="5" y="6" x="6" height="38" width="38"
        fill="#f2f5e9" fill-opacity="0.5" stroke="#606060" stroke-width="1.0"/>
   <path id="arrow"
     d="M 11.500037,31.436501 C 11.940474,20.09759 22.043105,11.32322 32.158766,21.979434 L 37.068811,17.246167 C 37.068811,17.246167 37.088388,32 37.088388,32 L 22.160133,31.978069 C 22.160133,31.978069 26.997745,27.140456 26.997745,27.140456 C 18.528582,18.264221 13.291696,25.230495 11.500037,31.436501 z"
     style="fill:#404040;"/>
  </a>
 </g>
</svg>

<style type='text/css'>
<![CDATA[
[data-mouse-over-selected='false'] { opacity: 0.7; }
[data-mouse-over-selected='true']  { opacity: 1.0; }
]]>
</style>
<script type="application/ecmascript"><![CDATA[
document.addEventListener('DOMContentLoaded', (event) => {
  highlightEdges();
  highlightAdjacentNodes();
});
]]></script>
</svg>
