<?xml version="1.0" encoding="UTF-8" standalone="no"?>
<!DOCTYPE svg PUBLIC "-//W3C//DTD SVG 1.1//EN"
 "http://www.w3.org/Graphics/SVG/1.1/DTD/svg11.dtd">
<!-- Generated by graphviz version 12.2.1 (20241206.2353)
 -->
<!-- Title: WPR.Repository.UserRepository.AddCustomerChecks Pages: 1 -->
<svg width="396pt" height="438pt"
 viewBox="0.00 0.00 396.25 438.00" xmlns="http://www.w3.org/2000/svg" xmlns:xlink="http://www.w3.org/1999/xlink">
<g id="graph0" class="graph" transform="scale(1 1) rotate(0) translate(4 434)">
<title>WPR.Repository.UserRepository.AddCustomerChecks</title>
<!-- Node1 -->
<g id="Node000001" class="node">
<title>Node1</title>
<g id="a_Node000001"><a xlink:title="AddCustomerChecks kijkt of alle ingevoerde velden geldig zijn. Als een check faalt falen alle checks.">
<polygon fill="#999999" stroke="#666666" points="163,-255 0,-255 0,-223 163,-223 163,-255"/>
<text text-anchor="start" x="8" y="-241.5" font-family="Helvetica,sans-Serif" font-size="10.00">WPR.Repository.UserRepository.</text>
<text text-anchor="middle" x="81.5" y="-229.5" font-family="Helvetica,sans-Serif" font-size="10.00">AddCustomerChecks</text>
</a>
</g>
</g>
<!-- Node2 -->
<g id="Node000002" class="node">
<title>Node2</title>
<g id="a_Node000002"><a xlink:href="class_w_p_r_1_1_repository_1_1_user_repository.html#a7903e03bfe7076a6ee7b352636cb854d" target="_top" xlink:title="Er wordt gekeken of het emailadres al bestaat in de databse.">
<polygon fill="white" stroke="#666666" points="388.25,-430 199,-430 199,-398 388.25,-398 388.25,-430"/>
<text text-anchor="start" x="207" y="-416.5" font-family="Helvetica,sans-Serif" font-size="10.00">WPR.Repository.UserRepository.check</text>
<text text-anchor="middle" x="293.62" y="-404.5" font-family="Helvetica,sans-Serif" font-size="10.00">UsageEmailAsync</text>
</a>
</g>
</g>
<!-- Node1&#45;&gt;Node2 -->
<g id="edge1_Node000001_Node000002" class="edge">
<title>Node1&#45;&gt;Node2</title>
<g id="a_edge1_Node000001_Node000002"><a xlink:title=" ">
<path fill="none" stroke="#63b8ff" d="M90.56,-255.39C106.68,-286.43 145.97,-353.82 199,-389 200.84,-390.22 202.74,-391.38 204.68,-392.49"/>
<polygon fill="#63b8ff" stroke="#63b8ff" points="202.88,-395.5 213.39,-396.87 206.03,-389.25 202.88,-395.5"/>
</a>
</g>
</g>
<!-- Node3 -->
<g id="Node000003" class="node">
<title>Node3</title>
<g id="a_Node000003"><a xlink:href="class_w_p_r_1_1_utils_1_1_domain_email_checker.html#af6430abcc6b17909ff568158e9e05172" target="_top" xlink:title=" ">
<polygon fill="white" stroke="#666666" points="375.88,-380 211.38,-380 211.38,-348 375.88,-348 375.88,-380"/>
<text text-anchor="start" x="219.38" y="-366.5" font-family="Helvetica,sans-Serif" font-size="10.00">WPR.Utils.DomainEmailChecker.</text>
<text text-anchor="middle" x="293.62" y="-354.5" font-family="Helvetica,sans-Serif" font-size="10.00">DomainExists</text>
</a>
</g>
</g>
<!-- Node1&#45;&gt;Node3 -->
<g id="edge2_Node000001_Node000003" class="edge">
<title>Node1&#45;&gt;Node3</title>
<g id="a_edge2_Node000001_Node000003"><a xlink:title=" ">
<path fill="none" stroke="#63b8ff" d="M97.01,-255.41C117.55,-277.62 157.26,-317 199,-339 201.86,-340.51 204.82,-341.93 207.84,-343.27"/>
<polygon fill="#63b8ff" stroke="#63b8ff" points="206.36,-346.45 216.94,-346.96 208.99,-339.96 206.36,-346.45"/>
</a>
</g>
</g>
<!-- Node4 -->
<g id="Node000004" class="node">
<title>Node4</title>
<g id="a_Node000004"><a xlink:href="class_w_p_r_1_1_utils_1_1_birthday_checker.html#a4c7d3943364075179b3f1ca2e0f05c46" target="_top" xlink:title="Check om te kijken of het een correcte verjaardag is Leeftijd mag niet onder de 18 zijn en niet boven...">
<polygon fill="white" stroke="#666666" points="364.62,-330 222.62,-330 222.62,-298 364.62,-298 364.62,-330"/>
<text text-anchor="start" x="230.62" y="-316.5" font-family="Helvetica,sans-Serif" font-size="10.00">WPR.Utils.BirthdayChecker.</text>
<text text-anchor="middle" x="293.62" y="-304.5" font-family="Helvetica,sans-Serif" font-size="10.00">IsValidBirthday</text>
</a>
</g>
</g>
<!-- Node1&#45;&gt;Node4 -->
<g id="edge3_Node000001_Node000004" class="edge">
<title>Node1&#45;&gt;Node4</title>
<g id="a_edge3_Node000001_Node000004"><a xlink:title=" ">
<path fill="none" stroke="#63b8ff" d="M117.16,-255.44C140.06,-265.91 170.92,-279.28 199,-289 204.33,-290.84 209.87,-292.63 215.47,-294.35"/>
<polygon fill="#63b8ff" stroke="#63b8ff" points="214.25,-297.64 224.83,-297.13 216.24,-290.93 214.25,-297.64"/>
</a>
</g>
</g>
<!-- Node5 -->
<g id="Node000005" class="node">
<title>Node5</title>
<g id="a_Node000005"><a xlink:href="class_w_p_r_1_1_utils_1_1_email_checker.html#ab97bf7cde61a138766de208bad9d5c7c" target="_top" xlink:title=" ">
<polygon fill="white" stroke="#666666" points="363.12,-280 224.12,-280 224.12,-248 363.12,-248 363.12,-280"/>
<text text-anchor="start" x="232.12" y="-266.5" font-family="Helvetica,sans-Serif" font-size="10.00">WPR.Utils.EmailChecker.Is</text>
<text text-anchor="middle" x="293.62" y="-254.5" font-family="Helvetica,sans-Serif" font-size="10.00">ValidEmail</text>
</a>
</g>
</g>
<!-- Node1&#45;&gt;Node5 -->
<g id="edge4_Node000001_Node000005" class="edge">
<title>Node1&#45;&gt;Node5</title>
<g id="a_edge4_Node000001_Node000005"><a xlink:title=" ">
<path fill="none" stroke="#63b8ff" d="M163.44,-248.63C179.6,-250.55 196.56,-252.57 212.68,-254.49"/>
<polygon fill="#63b8ff" stroke="#63b8ff" points="211.84,-257.91 222.19,-255.62 212.67,-250.96 211.84,-257.91"/>
</a>
</g>
</g>
<!-- Node6 -->
<g id="Node000006" class="node">
<title>Node6</title>
<g id="a_Node000006"><a xlink:href="class_w_p_r_1_1_utils_1_1_password_checker.html#a3874adc7b516a8fb893ed18cd0a29a94" target="_top" xlink:title=" ">
<polygon fill="white" stroke="#666666" points="368.38,-230 218.88,-230 218.88,-198 368.38,-198 368.38,-230"/>
<text text-anchor="start" x="226.88" y="-216.5" font-family="Helvetica,sans-Serif" font-size="10.00">WPR.Utils.PasswordChecker.</text>
<text text-anchor="middle" x="293.62" y="-204.5" font-family="Helvetica,sans-Serif" font-size="10.00">IsValidPassword</text>
</a>
</g>
</g>
<!-- Node1&#45;&gt;Node6 -->
<g id="edge5_Node000001_Node000006" class="edge">
<title>Node1&#45;&gt;Node6</title>
<g id="a_edge5_Node000001_Node000006"><a xlink:title=" ">
<path fill="none" stroke="#63b8ff" d="M163.44,-229.37C177.9,-227.65 193.01,-225.85 207.59,-224.12"/>
<polygon fill="#63b8ff" stroke="#63b8ff" points="207.59,-227.64 217.11,-222.98 206.76,-220.69 207.59,-227.64"/>
</a>
</g>
</g>
<!-- Node7 -->
<g id="Node000007" class="node">
<title>Node7</title>
<g id="a_Node000007"><a xlink:href="class_w_p_r_1_1_utils_1_1_tel_checker.html#aa8036be39d90b4bd0482cc25b9bbfc5a" target="_top" xlink:title=" ">
<polygon fill="white" stroke="#666666" points="367.62,-180 219.62,-180 219.62,-148 367.62,-148 367.62,-180"/>
<text text-anchor="start" x="227.62" y="-166.5" font-family="Helvetica,sans-Serif" font-size="10.00">WPR.Utils.TelChecker.IsValid</text>
<text text-anchor="middle" x="293.62" y="-154.5" font-family="Helvetica,sans-Serif" font-size="10.00">PhoneNumber</text>
</a>
</g>
</g>
<!-- Node1&#45;&gt;Node7 -->
<g id="edge6_Node000001_Node000007" class="edge">
<title>Node1&#45;&gt;Node7</title>
<g id="a_edge6_Node000001_Node000007"><a xlink:title=" ">
<path fill="none" stroke="#63b8ff" d="M117.16,-222.56C140.06,-212.09 170.92,-198.72 199,-189 204.33,-187.16 209.87,-185.37 215.47,-183.65"/>
<polygon fill="#63b8ff" stroke="#63b8ff" points="216.24,-187.07 224.83,-180.87 214.25,-180.36 216.24,-187.07"/>
</a>
</g>
</g>
<!-- Node8 -->
<g id="Node000008" class="node">
<title>Node8</title>
<g id="a_Node000008"><a xlink:href="namespace_w_p_r_1_1_controllers_1_1_general_1_1_sign_up.html#abf09877e4843c0b4ff2791cc32242102" target="_top" xlink:title=" ">
<polygon fill="white" stroke="#666666" points="375.12,-112 212.12,-112 212.12,-80 375.12,-80 375.12,-112"/>
<text text-anchor="start" x="220.12" y="-98.5" font-family="Helvetica,sans-Serif" font-size="10.00">WPR.Controllers.General.</text>
<text text-anchor="middle" x="293.62" y="-86.5" font-family="Helvetica,sans-Serif" font-size="10.00">SignUp.SignUpRequestCustomer</text>
</a>
</g>
</g>
<!-- Node1&#45;&gt;Node8 -->
<g id="edge7_Node000001_Node000008" class="edge">
<title>Node1&#45;&gt;Node8</title>
<g id="a_edge7_Node000001_Node000008"><a xlink:title=" ">
<path fill="none" stroke="#63b8ff" d="M98.31,-222.86C119.71,-201.66 159.73,-164.17 199,-139 211.72,-130.85 226.24,-123.39 239.99,-117.06"/>
<polygon fill="#63b8ff" stroke="#63b8ff" points="241.22,-120.35 248.92,-113.07 238.36,-113.96 241.22,-120.35"/>
</a>
</g>
</g>
<!-- Node9 -->
<g id="Node000009" class="node">
<title>Node9</title>
<g id="a_Node000009"><a xlink:href="namespace_w_p_r_1_1_controllers_1_1_general_1_1_sign_up.html#ab012081435b4392bd8e6e4525e336d68" target="_top" xlink:title=" ">
<polygon fill="white" stroke="#666666" points="375.12,-44 212.12,-44 212.12,0 375.12,0 375.12,-44"/>
<text text-anchor="start" x="220.12" y="-30.5" font-family="Helvetica,sans-Serif" font-size="10.00">WPR.Controllers.General.</text>
<text text-anchor="start" x="220.12" y="-18.5" font-family="Helvetica,sans-Serif" font-size="10.00">SignUp.SignUpRequestCustomer</text>
<text text-anchor="middle" x="293.62" y="-6.5" font-family="Helvetica,sans-Serif" font-size="10.00">Private</text>
</a>
</g>
</g>
<!-- Node1&#45;&gt;Node9 -->
<g id="edge9_Node000001_Node000009" class="edge">
<title>Node1&#45;&gt;Node9</title>
<g id="a_edge9_Node000001_Node000009"><a xlink:title=" ">
<path fill="none" stroke="#63b8ff" d="M90.35,-222.73C106.68,-190.31 147.12,-116.81 199,-71 208.06,-63 218.65,-55.88 229.38,-49.71"/>
<polygon fill="#63b8ff" stroke="#63b8ff" points="230.83,-52.91 237.92,-45.04 227.47,-46.77 230.83,-52.91"/>
</a>
</g>
</g>
<!-- Node8&#45;&gt;Node8 -->
<g id="edge8_Node000008_Node000008" class="edge">
<title>Node8&#45;&gt;Node8</title>
<g id="a_edge8_Node000008_Node000008"><a xlink:title=" ">
<path fill="none" stroke="#63b8ff" d="M255.75,-112.44C248.69,-121.58 261.31,-130 293.62,-130 311.55,-130 323.42,-127.41 329.22,-123.54"/>
<polygon fill="#63b8ff" stroke="#63b8ff" points="332.62,-124.42 331.19,-113.93 325.76,-123.02 332.62,-124.42"/>
</a>
</g>
</g>
<!-- Node9&#45;&gt;Node9 -->
<g id="edge10_Node000009_Node000009" class="edge">
<title>Node9&#45;&gt;Node9</title>
<g id="a_edge10_Node000009_Node000009"><a xlink:title=" ">
<path fill="none" stroke="#63b8ff" d="M254.33,-44.21C251.11,-53.8 264.21,-62 293.62,-62 311.09,-62 322.8,-59.11 328.77,-54.75"/>
<polygon fill="#63b8ff" stroke="#63b8ff" points="331.95,-56.21 332.37,-45.62 325.44,-53.64 331.95,-56.21"/>
</a>
</g>
</g>
</g>
</svg>
