<?xml version="1.0" encoding="UTF-8" standalone="no"?>
<!DOCTYPE svg PUBLIC "-//W3C//DTD SVG 1.1//EN"
 "http://www.w3.org/Graphics/SVG/1.1/DTD/svg11.dtd">
<!-- Generated by graphviz version 12.2.1 (20241206.2353)
 -->
<!-- Title: WPR.Controllers.Employee.Shared.acceptHireRequest.AcceptHireRequestController Pages: 1 -->
<svg width="168pt" height="268pt"
 viewBox="0.00 0.00 167.50 268.00" xmlns="http://www.w3.org/2000/svg" xmlns:xlink="http://www.w3.org/1999/xlink">
<g id="graph0" class="graph" transform="scale(1 1) rotate(0) translate(4 264)">
<title>WPR.Controllers.Employee.Shared.acceptHireRequest.AcceptHireRequestController</title>
<!-- Node1 -->
<g id="Node000001" class="node">
<title>Node1</title>
<g id="a_Node000001"><a xlink:title="AcceptHireRequestController zorgt ervoor dat alle huuraanvragen verzameld worden en bestempelt kunnen...">
<polygon fill="#999999" stroke="none" points="159.5,-172 0,-172 0,0 159.5,0 159.5,-172"/>
<text text-anchor="start" x="4" y="-158.5" font-family="Helvetica,sans-Serif" font-size="10.00">WPR.Controllers.Employee.</text>
<text text-anchor="start" x="4" y="-146.5" font-family="Helvetica,sans-Serif" font-size="10.00">Shared.acceptHireRequest.Accept</text>
<text text-anchor="start" x="31.38" y="-134.5" font-family="Helvetica,sans-Serif" font-size="10.00">HireRequestController</text>
<text text-anchor="start" x="7.5" y="-118.5" font-family="Helvetica,sans-Serif" font-size="10.00">&#45;</text>
<text text-anchor="start" x="18" y="-118.5" font-family="Helvetica,sans-Serif" font-size="10.00">_connector</text>
<text text-anchor="start" x="7.5" y="-102.5" font-family="Helvetica,sans-Serif" font-size="10.00">&#45;</text>
<text text-anchor="start" x="18" y="-102.5" font-family="Helvetica,sans-Serif" font-size="10.00">_userRepository</text>
<text text-anchor="start" x="7.5" y="-86.5" font-family="Helvetica,sans-Serif" font-size="10.00">&#45;</text>
<text text-anchor="start" x="18" y="-86.5" font-family="Helvetica,sans-Serif" font-size="10.00">_crypt</text>
<text text-anchor="start" x="6" y="-70.5" font-family="Helvetica,sans-Serif" font-size="10.00">+</text>
<text text-anchor="start" x="18" y="-70.5" font-family="Helvetica,sans-Serif" font-size="10.00">AcceptHireRequestController()</text>
<text text-anchor="start" x="6" y="-54.5" font-family="Helvetica,sans-Serif" font-size="10.00">+</text>
<text text-anchor="start" x="18" y="-54.5" font-family="Helvetica,sans-Serif" font-size="10.00">GetReviewsIdsAsync()</text>
<text text-anchor="start" x="6" y="-38.5" font-family="Helvetica,sans-Serif" font-size="10.00">+</text>
<text text-anchor="start" x="18" y="-38.5" font-family="Helvetica,sans-Serif" font-size="10.00">GetReviewAsync()</text>
<text text-anchor="start" x="6" y="-22.5" font-family="Helvetica,sans-Serif" font-size="10.00">+</text>
<text text-anchor="start" x="18" y="-22.5" font-family="Helvetica,sans-Serif" font-size="10.00">AnswerHireRequestAsync()</text>
<text text-anchor="start" x="7.5" y="-6.5" font-family="Helvetica,sans-Serif" font-size="10.00">&#45;</text>
<text text-anchor="start" x="18" y="-6.5" font-family="Helvetica,sans-Serif" font-size="10.00">GetCurrentUserId()</text>
<polygon fill="#666666" stroke="#666666" points="0,-130 0,-130 159.5,-130 159.5,-130 0,-130"/>
<polygon fill="#666666" stroke="#666666" points="0,-82 0,-82 16,-82 16,-82 0,-82"/>
<polygon fill="#666666" stroke="#666666" points="16,-82 16,-82 159.5,-82 159.5,-82 16,-82"/>
<polygon fill="none" stroke="#666666" points="0,0 0,-172 159.5,-172 159.5,0 0,0"/>
</a>
</g>
</g>
<!-- Node2 -->
<g id="Node000002" class="node">
<title>Node2</title>
<g id="a_Node000002"><a xlink:title=" ">
<polygon fill="white" stroke="none" points="116,-260 43.5,-260 43.5,-208 116,-208 116,-260"/>
<text text-anchor="start" x="47.5" y="-246.5" font-family="Helvetica,sans-Serif" font-size="10.00">ControllerBase</text>
<text text-anchor="start" x="78.25" y="-230.5" font-family="Helvetica,sans-Serif" font-size="10.00"> </text>
<text text-anchor="start" x="78.25" y="-214.5" font-family="Helvetica,sans-Serif" font-size="10.00"> </text>
<polygon fill="#666666" stroke="#666666" points="43.5,-242 43.5,-242 116,-242 116,-242 43.5,-242"/>
<polygon fill="#666666" stroke="#666666" points="43.5,-226 43.5,-226 116,-226 116,-226 43.5,-226"/>
<polygon fill="none" stroke="#666666" points="43.5,-208 43.5,-260 116,-260 116,-208 43.5,-208"/>
</a>
</g>
</g>
<!-- Node2&#45;&gt;Node1 -->
<g id="edge1_Node000001_Node000002" class="edge">
<title>Node2&#45;&gt;Node1</title>
<g id="a_edge1_Node000001_Node000002"><a xlink:title=" ">
<path fill="none" stroke="#63b8ff" d="M79.75,-196.73C79.75,-188.97 79.75,-180.46 79.75,-171.72"/>
<polygon fill="none" stroke="#63b8ff" points="76.25,-196.72 79.75,-206.72 83.25,-196.72 76.25,-196.72"/>
</a>
</g>
</g>
</g>
</svg>
