<?xml version="1.0" encoding="UTF-8" standalone="no"?>
<!DOCTYPE svg PUBLIC "-//W3C//DTD SVG 1.1//EN"
 "http://www.w3.org/Graphics/SVG/1.1/DTD/svg11.dtd">
<!-- Generated by graphviz version 12.2.1 (20241206.2353)
 -->
<!-- Title: WPR.Controllers.customer.Subscription.SubscriptionErrorResponse Pages: 1 -->
<svg width="148pt" height="100pt"
 viewBox="0.00 0.00 148.00 100.00" xmlns="http://www.w3.org/2000/svg" xmlns:xlink="http://www.w3.org/1999/xlink">
<g id="graph0" class="graph" transform="scale(1 1) rotate(0) translate(4 96)">
<title>WPR.Controllers.customer.Subscription.SubscriptionErrorResponse</title>
<!-- Node1 -->
<g id="Node000001" class="node">
<title>Node1</title>
<g id="a_Node000001"><a xlink:title=" ">
<polygon fill="#999999" stroke="none" points="140,-92 0,-92 0,0 140,0 140,-92"/>
<text text-anchor="start" x="4" y="-78.5" font-family="Helvetica,sans-Serif" font-size="10.00">WPR.Controllers.customer.</text>
<text text-anchor="start" x="4" y="-66.5" font-family="Helvetica,sans-Serif" font-size="10.00">Subscription.SubscriptionError</text>
<text text-anchor="start" x="47.88" y="-54.5" font-family="Helvetica,sans-Serif" font-size="10.00">Response</text>
<text text-anchor="start" x="24.56" y="-38.5" font-family="Helvetica,sans-Serif" font-size="10.00">+</text>
<text text-anchor="start" x="55.12" y="-38.5" font-family="Helvetica,sans-Serif" font-size="10.00">Status</text>
<text text-anchor="start" x="24.56" y="-22.5" font-family="Helvetica,sans-Serif" font-size="10.00">+</text>
<text text-anchor="start" x="55.12" y="-22.5" font-family="Helvetica,sans-Serif" font-size="10.00">Message</text>
<text text-anchor="start" x="68.5" y="-6.5" font-family="Helvetica,sans-Serif" font-size="10.00"> </text>
<polygon fill="#666666" stroke="#666666" points="0,-50 0,-50 140,-50 140,-50 0,-50"/>
<polygon fill="#666666" stroke="#666666" points="0,-18 0,-18 53.12,-18 53.12,-18 0,-18"/>
<polygon fill="#666666" stroke="#666666" points="53.12,-18 53.12,-18 140,-18 140,-18 53.12,-18"/>
<polygon fill="none" stroke="#666666" points="0,0 0,-92 140,-92 140,0 0,0"/>
</a>
</g>
</g>
</g>
</svg>
