<?xml version="1.0" encoding="UTF-8" standalone="no"?>
<!DOCTYPE svg PUBLIC "-//W3C//DTD SVG 1.1//EN"
 "http://www.w3.org/Graphics/SVG/1.1/DTD/svg11.dtd">
<!-- Generated by graphviz version 12.2.1 (20241206.2353)
 -->
<!-- Title: WPR.Repository.EmployeeRepository Pages: 1 -->
<!--zoomable 848 -->

<svg id="main" version="1.1" xmlns="http://www.w3.org/2000/svg" xmlns:xlink="http://www.w3.org/1999/xlink" xml:space="preserve" onload="init(evt)">

<style type="text/css"><![CDATA[
.node, .edge {opacity: 0.7;}
.node.selected, .edge.selected {opacity: 1;}
.edge:hover path { stroke: red; }
.edge:hover polygon { stroke: red; fill: red; }
]]></style>

<defs>
  <circle id="rim" cx="0" cy="0" r="7"/>
  <circle id="rim2" cx="0" cy="0" r="3.5"/>
  <g id="zoomPlus">
    <use xlink:href="#rim" fill="#404040"><set attributeName="fill" to="#808080" begin="zoomplus.mouseover" end="zoomplus.mouseout"/></use>
    <path d="M-4,0h8M0,-4v8" fill="none" stroke="white" stroke-width="1.5" pointer-events="none"/>
  </g>
  <g id="zoomMin">
    <use xlink:href="#rim" fill="#404040"><set attributeName="fill" to="#808080" begin="zoomminus.mouseover" end="zoomminus.mouseout"/></use>
    <path d="M-4,0h8" fill="none" stroke="white" stroke-width="1.5" pointer-events="none"/>
  </g>
  <g id="arrowUp" transform="translate(30 24)">
    <use xlink:href="#rim"/>
    <path pointer-events="none" fill="none" stroke="white" stroke-width="1.5" d="M0,-3.0v7 M-2.5,-0.5L0,-3.0L2.5,-0.5"/>
  </g>
  <g id="arrowRight" transform="rotate(90) translate(36 -43)">
    <use xlink:href="#rim"/>
    <path pointer-events="none" fill="none" stroke="white" stroke-width="1.5" d="M0,-3.0v7 M-2.5,-0.5L0,-3.0L2.5,-0.5"/>
  </g>
  <g id="arrowDown" transform="rotate(180) translate(-30 -48)">
    <use xlink:href="#rim"/>
    <path pointer-events="none" fill="none" stroke="white" stroke-width="1.5" d="M0,-3.0v7 M-2.5,-0.5L0,-3.0L2.5,-0.5"/>
  </g>
  <g id="arrowLeft" transform="rotate(270) translate(-36 17)">
    <use xlink:href="#rim"/>
    <path pointer-events="none" fill="none" stroke="white" stroke-width="1.5" d="M0,-3.0v7 M-2.5,-0.5L0,-3.0L2.5,-0.5"/>
  </g>
  <g id="resetDef">
    <use xlink:href="#rim2" fill="#404040"><set attributeName="fill" to="#808080" begin="reset.mouseover" end="reset.mouseout"/></use>
  </g>
</defs>
<script type="application/ecmascript">
var viewWidth = 660;
var viewHeight = 848;
var sectionId = 'dynsection-1';
</script>
<script type="application/ecmascript" xlink:href="svg.min.js"/>
<svg id="graph" class="graph">
<g id="viewport">
<title>WPR.Repository.EmployeeRepository</title>
<!-- Node1 -->
<g id="Node000001" class="node">
<title>Node1</title>
<g id="a_Node000001"><a xlink:title="De UserRepository class geeft de methodes voor de interactie met de database voor gebruiker gerelatee...">
<polygon fill="#999999" stroke="none" points="394.12,-336 218.88,-336 218.88,0 394.12,0 394.12,-336"/>
<text text-anchor="start" x="222.88" y="-322.5" font-family="Helvetica,sans-Serif" font-size="10.00">WPR.Repository.EmployeeRepository</text>
<text text-anchor="start" x="225.06" y="-306.5" font-family="Helvetica,sans-Serif" font-size="10.00">+</text>
<text text-anchor="start" x="237.25" y="-306.5" font-family="Helvetica,sans-Serif" font-size="10.00">StatusCode</text>
<text text-anchor="start" x="225.06" y="-290.5" font-family="Helvetica,sans-Serif" font-size="10.00">+</text>
<text text-anchor="start" x="237.25" y="-290.5" font-family="Helvetica,sans-Serif" font-size="10.00">Message</text>
<text text-anchor="start" x="225.06" y="-274.5" font-family="Helvetica,sans-Serif" font-size="10.00">+</text>
<text text-anchor="start" x="237.25" y="-274.5" font-family="Helvetica,sans-Serif" font-size="10.00">Status</text>
<text text-anchor="start" x="225.06" y="-258.5" font-family="Helvetica,sans-Serif" font-size="10.00">+</text>
<text text-anchor="start" x="237.25" y="-258.5" font-family="Helvetica,sans-Serif" font-size="10.00">Message</text>
<text text-anchor="start" x="225.06" y="-242.5" font-family="Helvetica,sans-Serif" font-size="10.00">+</text>
<text text-anchor="start" x="237.25" y="-242.5" font-family="Helvetica,sans-Serif" font-size="10.00">EmployeeRepository()</text>
<text text-anchor="start" x="225.06" y="-226.5" font-family="Helvetica,sans-Serif" font-size="10.00">+</text>
<text text-anchor="start" x="237.25" y="-226.5" font-family="Helvetica,sans-Serif" font-size="10.00">AddVehicleAsync()</text>
<text text-anchor="start" x="225.06" y="-210.5" font-family="Helvetica,sans-Serif" font-size="10.00">+</text>
<text text-anchor="start" x="237.25" y="-210.5" font-family="Helvetica,sans-Serif" font-size="10.00">AddStaff()</text>
<text text-anchor="start" x="225.06" y="-194.5" font-family="Helvetica,sans-Serif" font-size="10.00">+</text>
<text text-anchor="start" x="237.25" y="-194.5" font-family="Helvetica,sans-Serif" font-size="10.00">checkUsageEmailAsync()</text>
<text text-anchor="start" x="225.06" y="-178.5" font-family="Helvetica,sans-Serif" font-size="10.00">+</text>
<text text-anchor="start" x="237.25" y="-178.5" font-family="Helvetica,sans-Serif" font-size="10.00">checkUsageEmaiVehicleManagerl</text>
<text text-anchor="start" x="237.25" y="-166.5" font-family="Helvetica,sans-Serif" font-size="10.00">Async()</text>
<text text-anchor="start" x="225.06" y="-150.5" font-family="Helvetica,sans-Serif" font-size="10.00">+</text>
<text text-anchor="start" x="237.25" y="-150.5" font-family="Helvetica,sans-Serif" font-size="10.00">GetReviewIdsAsync()</text>
<text text-anchor="start" x="225.06" y="-134.5" font-family="Helvetica,sans-Serif" font-size="10.00">+</text>
<text text-anchor="start" x="237.25" y="-134.5" font-family="Helvetica,sans-Serif" font-size="10.00">GetReviewAsync()</text>
<text text-anchor="start" x="225.06" y="-118.5" font-family="Helvetica,sans-Serif" font-size="10.00">+</text>
<text text-anchor="start" x="237.25" y="-118.5" font-family="Helvetica,sans-Serif" font-size="10.00">SetStatusAsync()</text>
<text text-anchor="start" x="225.06" y="-102.5" font-family="Helvetica,sans-Serif" font-size="10.00">+</text>
<text text-anchor="start" x="237.25" y="-102.5" font-family="Helvetica,sans-Serif" font-size="10.00">AddBusiness()</text>
<text text-anchor="start" x="225.06" y="-86.5" font-family="Helvetica,sans-Serif" font-size="10.00">+</text>
<text text-anchor="start" x="237.25" y="-86.5" font-family="Helvetica,sans-Serif" font-size="10.00">ViewBusinessRequests()</text>
<text text-anchor="start" x="237.25" y="-70.5" font-family="Helvetica,sans-Serif" font-size="10.00">en 8 anderen...</text>
<text text-anchor="start" x="226.56" y="-54.5" font-family="Helvetica,sans-Serif" font-size="10.00">&#45;</text>
<text text-anchor="start" x="237.25" y="-54.5" font-family="Helvetica,sans-Serif" font-size="10.00">GetUserDataAsync()</text>
<text text-anchor="start" x="226.56" y="-38.5" font-family="Helvetica,sans-Serif" font-size="10.00">&#45;</text>
<text text-anchor="start" x="237.25" y="-38.5" font-family="Helvetica,sans-Serif" font-size="10.00">GetVehicleData()</text>
<text text-anchor="start" x="226.56" y="-22.5" font-family="Helvetica,sans-Serif" font-size="10.00">&#45;</text>
<text text-anchor="start" x="237.25" y="-22.5" font-family="Helvetica,sans-Serif" font-size="10.00">GetKvK()</text>
<text text-anchor="start" x="226.56" y="-6.5" font-family="Helvetica,sans-Serif" font-size="10.00">&#45;</text>
<text text-anchor="start" x="237.25" y="-6.5" font-family="Helvetica,sans-Serif" font-size="10.00">CheckDomain()</text>
<polygon fill="#666666" stroke="#666666" points="218.88,-318 218.88,-318 394.12,-318 394.12,-318 218.88,-318"/>
<polygon fill="#666666" stroke="#666666" points="218.88,-254 218.88,-254 235.25,-254 235.25,-254 218.88,-254"/>
<polygon fill="#666666" stroke="#666666" points="235.25,-254 235.25,-254 394.12,-254 394.12,-254 235.25,-254"/>
<polygon fill="none" stroke="#666666" points="218.88,0 218.88,-336 394.12,-336 394.12,0 218.88,0"/>
</a>
</g>
</g>
<!-- Node2 -->
<g id="Node000002" class="node">
<title>Node2</title>
<g id="a_Node000002"><a xlink:href="interface_w_p_r_1_1_repository_1_1_i_employee_repository.html" target="_top" xlink:title="Interface defining methods voor user gerelateerde database operaties, validatie, user management,...">
<polygon fill="white" stroke="none" points="159,-644 0,-644 0,-384 159,-384 159,-644"/>
<text text-anchor="start" x="32.62" y="-630.5" font-family="Helvetica,sans-Serif" font-size="10.00">IEmployeeRepository</text>
<text text-anchor="start" x="4" y="-614.5" font-family="Helvetica,sans-Serif" font-size="10.00">+</text>
<text text-anchor="start" x="14" y="-614.5" font-family="Helvetica,sans-Serif" font-size="10.00">StatusCode</text>
<text text-anchor="start" x="4" y="-598.5" font-family="Helvetica,sans-Serif" font-size="10.00">+</text>
<text text-anchor="start" x="14" y="-598.5" font-family="Helvetica,sans-Serif" font-size="10.00">Message</text>
<text text-anchor="start" x="4" y="-582.5" font-family="Helvetica,sans-Serif" font-size="10.00">+</text>
<text text-anchor="start" x="14" y="-582.5" font-family="Helvetica,sans-Serif" font-size="10.00">Status</text>
<text text-anchor="start" x="4" y="-566.5" font-family="Helvetica,sans-Serif" font-size="10.00">+</text>
<text text-anchor="start" x="14" y="-566.5" font-family="Helvetica,sans-Serif" font-size="10.00">Message</text>
<text text-anchor="start" x="4" y="-550.5" font-family="Helvetica,sans-Serif" font-size="10.00">+</text>
<text text-anchor="start" x="14" y="-550.5" font-family="Helvetica,sans-Serif" font-size="10.00">AddVehicleAsync()</text>
<text text-anchor="start" x="4" y="-534.5" font-family="Helvetica,sans-Serif" font-size="10.00">+</text>
<text text-anchor="start" x="14" y="-534.5" font-family="Helvetica,sans-Serif" font-size="10.00">AddStaff()</text>
<text text-anchor="start" x="4" y="-518.5" font-family="Helvetica,sans-Serif" font-size="10.00">+</text>
<text text-anchor="start" x="14" y="-518.5" font-family="Helvetica,sans-Serif" font-size="10.00">checkUsageEmailAsync()</text>
<text text-anchor="start" x="4" y="-502.5" font-family="Helvetica,sans-Serif" font-size="10.00">+</text>
<text text-anchor="start" x="14" y="-502.5" font-family="Helvetica,sans-Serif" font-size="10.00">GetReviewIdsAsync()</text>
<text text-anchor="start" x="4" y="-486.5" font-family="Helvetica,sans-Serif" font-size="10.00">+</text>
<text text-anchor="start" x="14" y="-486.5" font-family="Helvetica,sans-Serif" font-size="10.00">GetReviewAsync()</text>
<text text-anchor="start" x="4" y="-470.5" font-family="Helvetica,sans-Serif" font-size="10.00">+</text>
<text text-anchor="start" x="14" y="-470.5" font-family="Helvetica,sans-Serif" font-size="10.00">SetStatusAsync()</text>
<text text-anchor="start" x="4" y="-454.5" font-family="Helvetica,sans-Serif" font-size="10.00">+</text>
<text text-anchor="start" x="14" y="-454.5" font-family="Helvetica,sans-Serif" font-size="10.00">AddBusiness()</text>
<text text-anchor="start" x="4" y="-438.5" font-family="Helvetica,sans-Serif" font-size="10.00">+</text>
<text text-anchor="start" x="14" y="-438.5" font-family="Helvetica,sans-Serif" font-size="10.00">ViewBusinessRequests()</text>
<text text-anchor="start" x="4" y="-422.5" font-family="Helvetica,sans-Serif" font-size="10.00">+</text>
<text text-anchor="start" x="14" y="-422.5" font-family="Helvetica,sans-Serif" font-size="10.00">ViewBusinessRequestDetailed()</text>
<text text-anchor="start" x="4" y="-406.5" font-family="Helvetica,sans-Serif" font-size="10.00">+</text>
<text text-anchor="start" x="14" y="-406.5" font-family="Helvetica,sans-Serif" font-size="10.00">BusinessAccepted()</text>
<text text-anchor="start" x="14" y="-390.5" font-family="Helvetica,sans-Serif" font-size="10.00">en 7 anderen...</text>
<polygon fill="#666666" stroke="#666666" points="0,-626 0,-626 159,-626 159,-626 0,-626"/>
<polygon fill="#666666" stroke="#666666" points="0,-562 0,-562 12,-562 12,-562 0,-562"/>
<polygon fill="#666666" stroke="#666666" points="12,-562 12,-562 159,-562 159,-562 12,-562"/>
<polygon fill="none" stroke="#666666" points="0,-384 0,-644 159,-644 159,-384 0,-384"/>
</a>
</g>
</g>
<!-- Node2&#45;&gt;Node1 -->
<g id="edge1_Node000001_Node000002" class="edge">
<title>Node2&#45;&gt;Node1</title>
<g id="a_edge1_Node000001_Node000002"><a xlink:title=" ">
<path fill="none" stroke="#63b8ff" d="M165.09,-383.3C182.72,-356.57 201.32,-328.39 219.02,-301.57"/>
<polygon fill="none" stroke="#63b8ff" points="162.31,-381.15 159.73,-391.42 168.16,-385 162.31,-381.15"/>
</a>
</g>
</g>
<!-- Node3 -->
<g id="Node000003" class="node">
<title>Node3</title>
<g id="a_Node000003"><a xlink:href="interface_w_p_r_1_1_database_1_1_i_connector.html" target="_top" xlink:title="Connector class om verbinding te maken met de database, maakt gebruik van de connectie strings die zi...">
<polygon fill="white" stroke="none" points="305.5,-540 177.5,-540 177.5,-488 305.5,-488 305.5,-540"/>
<text text-anchor="start" x="181.5" y="-526.5" font-family="Helvetica,sans-Serif" font-size="10.00">WPR.Database.IConnector</text>
<text text-anchor="start" x="240" y="-510.5" font-family="Helvetica,sans-Serif" font-size="10.00"> </text>
<text text-anchor="start" x="184.62" y="-494.5" font-family="Helvetica,sans-Serif" font-size="10.00">+</text>
<text text-anchor="start" x="197.75" y="-494.5" font-family="Helvetica,sans-Serif" font-size="10.00">CreateDbConnection()</text>
<polygon fill="#666666" stroke="#666666" points="177.5,-522 177.5,-522 305.5,-522 305.5,-522 177.5,-522"/>
<polygon fill="#666666" stroke="#666666" points="177.5,-506 177.5,-506 305.5,-506 305.5,-506 177.5,-506"/>
<polygon fill="none" stroke="#666666" points="177.5,-488 177.5,-540 305.5,-540 305.5,-488 177.5,-488"/>
</a>
</g>
</g>
<!-- Node3&#45;&gt;Node1 -->
<g id="edge2_Node000001_Node000003" class="edge">
<title>Node3&#45;&gt;Node1</title>
<g id="a_edge2_Node000001_Node000003"><a xlink:title=" ">
<path fill="none" stroke="#63b8ff" d="M246.17,-488.26C251.91,-457.9 262.17,-403.6 272.62,-348.3"/>
<polygon fill="none" stroke="#63b8ff" points="272.6,-348.42 269.78,-341.78 274.83,-336.63 277.64,-343.27 272.6,-348.42"/>
</a>
</g>
<text text-anchor="middle" x="297.11" y="-356.5" font-family="Helvetica,sans-Serif" font-size="10.00" fill="grey"> &#45;_connector</text>
</g>
<!-- Node4 -->
<g id="Node000004" class="node">
<title>Node4</title>
<g id="a_Node000004"><a xlink:href="class_w_p_r_1_1_hashing_1_1_hash.html" target="_top" xlink:title="Class Hash zorgt ervoor dat wachtwoorden op een veilige manier worden gehashed doormiddel van het HMA...">
<polygon fill="white" stroke="none" points="421.12,-556 323.88,-556 323.88,-472 421.12,-472 421.12,-556"/>
<text text-anchor="start" x="327.88" y="-542.5" font-family="Helvetica,sans-Serif" font-size="10.00">WPR.Hashing.Hash</text>
<text text-anchor="start" x="333.62" y="-526.5" font-family="Helvetica,sans-Serif" font-size="10.00">+</text>
<text text-anchor="start" x="349.38" y="-526.5" font-family="Helvetica,sans-Serif" font-size="10.00">_salt</text>
<text text-anchor="start" x="333.62" y="-510.5" font-family="Helvetica,sans-Serif" font-size="10.00">+</text>
<text text-anchor="start" x="349.38" y="-510.5" font-family="Helvetica,sans-Serif" font-size="10.00">Hash()</text>
<text text-anchor="start" x="333.62" y="-494.5" font-family="Helvetica,sans-Serif" font-size="10.00">+</text>
<text text-anchor="start" x="349.38" y="-494.5" font-family="Helvetica,sans-Serif" font-size="10.00">CreateSalt()</text>
<text text-anchor="start" x="333.62" y="-478.5" font-family="Helvetica,sans-Serif" font-size="10.00">+</text>
<text text-anchor="start" x="349.38" y="-478.5" font-family="Helvetica,sans-Serif" font-size="10.00">createHash()</text>
<polygon fill="#666666" stroke="#666666" points="323.88,-538 323.88,-538 421.12,-538 421.12,-538 323.88,-538"/>
<polygon fill="#666666" stroke="#666666" points="323.88,-522 323.88,-522 347.38,-522 347.38,-522 323.88,-522"/>
<polygon fill="#666666" stroke="#666666" points="347.38,-522 347.38,-522 421.12,-522 421.12,-522 347.38,-522"/>
<polygon fill="none" stroke="#666666" points="323.88,-472 323.88,-556 421.12,-556 421.12,-472 323.88,-472"/>
</a>
</g>
</g>
<!-- Node4&#45;&gt;Node1 -->
<g id="edge3_Node000001_Node000004" class="edge">
<title>Node4&#45;&gt;Node1</title>
<g id="a_edge3_Node000001_Node000004"><a xlink:title=" ">
<path fill="none" stroke="#63b8ff" d="M364.67,-472.19C358.65,-440.81 349.88,-395.08 340.96,-348.61"/>
<polygon fill="none" stroke="#63b8ff" points="340.94,-348.49 335.88,-343.35 338.68,-336.7 343.73,-341.84 340.94,-348.49"/>
</a>
</g>
<text text-anchor="middle" x="359.58" y="-356.5" font-family="Helvetica,sans-Serif" font-size="10.00" fill="grey"> &#45;_hash</text>
</g>
<!-- Node5 -->
<g id="Node000005" class="node">
<title>Node5</title>
<g id="a_Node000005"><a xlink:href="class_w_p_r_1_1_services_1_1_email_service.html" target="_top" xlink:title=" ">
<polygon fill="white" stroke="none" points="606.12,-624 438.88,-624 438.88,-404 606.12,-404 606.12,-624"/>
<text text-anchor="start" x="459.5" y="-610.5" font-family="Helvetica,sans-Serif" font-size="10.00">WPR.Services.EmailService</text>
<text text-anchor="start" x="521" y="-594.5" font-family="Helvetica,sans-Serif" font-size="10.00"> </text>
<text text-anchor="start" x="442.88" y="-578.5" font-family="Helvetica,sans-Serif" font-size="10.00">+</text>
<text text-anchor="start" x="452.88" y="-578.5" font-family="Helvetica,sans-Serif" font-size="10.00">EmailService()</text>
<text text-anchor="start" x="442.88" y="-562.5" font-family="Helvetica,sans-Serif" font-size="10.00">+</text>
<text text-anchor="start" x="452.88" y="-562.5" font-family="Helvetica,sans-Serif" font-size="10.00">Send()</text>
<text text-anchor="start" x="442.88" y="-546.5" font-family="Helvetica,sans-Serif" font-size="10.00">+</text>
<text text-anchor="start" x="452.88" y="-546.5" font-family="Helvetica,sans-Serif" font-size="10.00">SendWelcomeEmail()</text>
<text text-anchor="start" x="442.88" y="-530.5" font-family="Helvetica,sans-Serif" font-size="10.00">+</text>
<text text-anchor="start" x="452.88" y="-530.5" font-family="Helvetica,sans-Serif" font-size="10.00">SendRentalConfirmMail()</text>
<text text-anchor="start" x="442.88" y="-514.5" font-family="Helvetica,sans-Serif" font-size="10.00">+</text>
<text text-anchor="start" x="452.88" y="-514.5" font-family="Helvetica,sans-Serif" font-size="10.00">SendConfirmationEmailBusiness()</text>
<text text-anchor="start" x="442.88" y="-498.5" font-family="Helvetica,sans-Serif" font-size="10.00">+</text>
<text text-anchor="start" x="452.88" y="-498.5" font-family="Helvetica,sans-Serif" font-size="10.00">SendBusinessReviewEmail()</text>
<text text-anchor="start" x="444.38" y="-482.5" font-family="Helvetica,sans-Serif" font-size="10.00">&#45;</text>
<text text-anchor="start" x="452.88" y="-482.5" font-family="Helvetica,sans-Serif" font-size="10.00">CreateSmtpClient()</text>
<text text-anchor="start" x="444.38" y="-466.5" font-family="Helvetica,sans-Serif" font-size="10.00">&#45;</text>
<text text-anchor="start" x="452.88" y="-466.5" font-family="Helvetica,sans-Serif" font-size="10.00">BuildRentalConfirmationBody()</text>
<text text-anchor="start" x="444.38" y="-450.5" font-family="Helvetica,sans-Serif" font-size="10.00">&#45;</text>
<text text-anchor="start" x="452.88" y="-450.5" font-family="Helvetica,sans-Serif" font-size="10.00">BuildConfirmationEmailBusiness</text>
<text text-anchor="start" x="452.88" y="-438.5" font-family="Helvetica,sans-Serif" font-size="10.00">Body()</text>
<text text-anchor="start" x="444.38" y="-422.5" font-family="Helvetica,sans-Serif" font-size="10.00">&#45;</text>
<text text-anchor="start" x="452.88" y="-422.5" font-family="Helvetica,sans-Serif" font-size="10.00">BuildBusinessReviewEmail</text>
<text text-anchor="start" x="452.88" y="-410.5" font-family="Helvetica,sans-Serif" font-size="10.00">Body()</text>
<polygon fill="#666666" stroke="#666666" points="438.88,-606 438.88,-606 606.12,-606 606.12,-606 438.88,-606"/>
<polygon fill="#666666" stroke="#666666" points="438.88,-590 438.88,-590 606.12,-590 606.12,-590 438.88,-590"/>
<polygon fill="none" stroke="#666666" points="438.88,-404 438.88,-624 606.12,-624 606.12,-404 438.88,-404"/>
</a>
</g>
</g>
<!-- Node5&#45;&gt;Node1 -->
<g id="edge4_Node000001_Node000005" class="edge">
<title>Node5&#45;&gt;Node1</title>
<g id="a_edge4_Node000001_Node000005"><a xlink:title=" ">
<path fill="none" stroke="#63b8ff" d="M454.16,-404.16C437.22,-377.19 418.78,-347.82 400.85,-319.26"/>
<polygon fill="none" stroke="#63b8ff" points="400.87,-319.29 394.29,-316.33 394.48,-309.12 401.06,-312.08 400.87,-319.29"/>
</a>
</g>
<text text-anchor="middle" x="461.18" y="-356.5" font-family="Helvetica,sans-Serif" font-size="10.00" fill="grey"> &#45;_emailService</text>
</g>
<!-- Node6 -->
<g id="Node000006" class="node">
<title>Node6</title>
<g id="a_Node000006"><a xlink:href="interface_w_p_r_1_1_services_1_1_i_email_service.html" target="_top" xlink:title=" ">
<polygon fill="white" stroke="none" points="528.12,-824 360.88,-824 360.88,-708 528.12,-708 528.12,-824"/>
<text text-anchor="start" x="414.12" y="-810.5" font-family="Helvetica,sans-Serif" font-size="10.00">IEmailService</text>
<text text-anchor="start" x="443" y="-794.5" font-family="Helvetica,sans-Serif" font-size="10.00"> </text>
<text text-anchor="start" x="364.88" y="-778.5" font-family="Helvetica,sans-Serif" font-size="10.00">+</text>
<text text-anchor="start" x="374.88" y="-778.5" font-family="Helvetica,sans-Serif" font-size="10.00">SendBusinessReviewEmail()</text>
<text text-anchor="start" x="364.88" y="-762.5" font-family="Helvetica,sans-Serif" font-size="10.00">+</text>
<text text-anchor="start" x="374.88" y="-762.5" font-family="Helvetica,sans-Serif" font-size="10.00">SendConfirmationEmailBusiness()</text>
<text text-anchor="start" x="364.88" y="-746.5" font-family="Helvetica,sans-Serif" font-size="10.00">+</text>
<text text-anchor="start" x="374.88" y="-746.5" font-family="Helvetica,sans-Serif" font-size="10.00">SendRentalConfirmMail()</text>
<text text-anchor="start" x="364.88" y="-730.5" font-family="Helvetica,sans-Serif" font-size="10.00">+</text>
<text text-anchor="start" x="374.88" y="-730.5" font-family="Helvetica,sans-Serif" font-size="10.00">SendWelcomeEmail()</text>
<text text-anchor="start" x="364.88" y="-714.5" font-family="Helvetica,sans-Serif" font-size="10.00">+</text>
<text text-anchor="start" x="374.88" y="-714.5" font-family="Helvetica,sans-Serif" font-size="10.00">Send()</text>
<polygon fill="#666666" stroke="#666666" points="360.88,-806 360.88,-806 528.12,-806 528.12,-806 360.88,-806"/>
<polygon fill="#666666" stroke="#666666" points="360.88,-790 360.88,-790 528.12,-790 528.12,-790 360.88,-790"/>
<polygon fill="none" stroke="#666666" points="360.88,-708 360.88,-824 528.12,-824 528.12,-708 360.88,-708"/>
</a>
</g>
</g>
<!-- Node6&#45;&gt;Node5 -->
<g id="edge5_Node000005_Node000006" class="edge">
<title>Node6&#45;&gt;Node5</title>
<g id="a_edge5_Node000005_Node000006"><a xlink:title=" ">
<path fill="none" stroke="#63b8ff" d="M465.58,-697.43C472.64,-674.79 480.71,-648.94 488.51,-623.96"/>
<polygon fill="none" stroke="#63b8ff" points="462.29,-696.24 462.65,-706.83 468.97,-698.32 462.29,-696.24"/>
</a>
</g>
</g>
<!-- Node7 -->
<g id="Node000007" class="node">
<title>Node7</title>
<g id="a_Node000007"><a xlink:href="class_w_p_r_1_1_data_1_1_env_config.html" target="_top" xlink:title="Leez het .env bestand uit waarin de connectie strings staan naar de database. Deze staan in een apart...">
<polygon fill="white" stroke="none" points="652.38,-840 546.62,-840 546.62,-692 652.38,-692 652.38,-840"/>
<text text-anchor="start" x="551.12" y="-826.5" font-family="Helvetica,sans-Serif" font-size="10.00">WPR.Data.EnvConfig</text>
<text text-anchor="start" x="552.12" y="-810.5" font-family="Helvetica,sans-Serif" font-size="10.00">&#45;</text>
<text text-anchor="start" x="560.62" y="-810.5" font-family="Helvetica,sans-Serif" font-size="10.00">_configuration</text>
<text text-anchor="start" x="550.62" y="-794.5" font-family="Helvetica,sans-Serif" font-size="10.00">+</text>
<text text-anchor="start" x="560.62" y="-794.5" font-family="Helvetica,sans-Serif" font-size="10.00">EnvConfig()</text>
<text text-anchor="start" x="550.62" y="-778.5" font-family="Helvetica,sans-Serif" font-size="10.00">+</text>
<text text-anchor="start" x="560.62" y="-778.5" font-family="Helvetica,sans-Serif" font-size="10.00">Get()</text>
<text text-anchor="start" x="550.62" y="-762.5" font-family="Helvetica,sans-Serif" font-size="10.00">+</text>
<text text-anchor="start" x="560.62" y="-762.5" font-family="Helvetica,sans-Serif" font-size="10.00">IsConfigured()</text>
<text text-anchor="start" x="550.62" y="-746.5" font-family="Helvetica,sans-Serif" font-size="10.00">+</text>
<text text-anchor="start" x="560.62" y="-746.5" font-family="Helvetica,sans-Serif" font-size="10.00">GetSmtpHost()</text>
<text text-anchor="start" x="550.62" y="-730.5" font-family="Helvetica,sans-Serif" font-size="10.00">+</text>
<text text-anchor="start" x="560.62" y="-730.5" font-family="Helvetica,sans-Serif" font-size="10.00">GetSmtpPort()</text>
<text text-anchor="start" x="550.62" y="-714.5" font-family="Helvetica,sans-Serif" font-size="10.00">+</text>
<text text-anchor="start" x="560.62" y="-714.5" font-family="Helvetica,sans-Serif" font-size="10.00">GetFromEmail()</text>
<text text-anchor="start" x="550.62" y="-698.5" font-family="Helvetica,sans-Serif" font-size="10.00">+</text>
<text text-anchor="start" x="560.62" y="-698.5" font-family="Helvetica,sans-Serif" font-size="10.00">GetFromPassword()</text>
<polygon fill="#666666" stroke="#666666" points="546.62,-822 546.62,-822 652.38,-822 652.38,-822 546.62,-822"/>
<polygon fill="#666666" stroke="#666666" points="546.62,-806 546.62,-806 558.62,-806 558.62,-806 546.62,-806"/>
<polygon fill="#666666" stroke="#666666" points="558.62,-806 558.62,-806 652.38,-806 652.38,-806 558.62,-806"/>
<polygon fill="none" stroke="#666666" points="546.62,-692 546.62,-840 652.38,-840 652.38,-692 546.62,-692"/>
</a>
</g>
</g>
<!-- Node7&#45;&gt;Node5 -->
<g id="edge6_Node000005_Node000007" class="edge">
<title>Node7&#45;&gt;Node5</title>
<g id="a_edge6_Node000005_Node000007"><a xlink:title=" ">
<path fill="none" stroke="#63b8ff" d="M577.02,-692.02C571.61,-674.44 565.68,-655.19 559.79,-636.06"/>
<polygon fill="none" stroke="#63b8ff" points="559.82,-636.18 554.24,-631.63 556.29,-624.71 561.88,-629.27 559.82,-636.18"/>
</a>
</g>
<text text-anchor="middle" x="597.91" y="-664.5" font-family="Helvetica,sans-Serif" font-size="10.00" fill="grey"> &#45;_envConfig</text>
</g>
</g>
</svg>

<g id="navigator" transform="translate(0 0)" fill="#404254">
  <rect fill="#f2f5e9" fill-opacity="0.5" stroke="#606060" stroke-width=".5" x="0" y="0" width="60" height="60"/>
  <use id="zoomplus" xlink:href="#zoomPlus" x="17" y="9" onmousedown="handleZoom(evt,'in')"/>
  <use id="zoomminus" xlink:href="#zoomMin" x="42" y="9" onmousedown="handleZoom(evt,'out')"/>
  <use id="reset" xlink:href="#resetDef" x="30" y="36" onmousedown="handleReset()"/>
   <use id="arrowup" xlink:href="#arrowUp" x="0" y="0" onmousedown="handlePan(0,-1)"/>
  <use id="arrowright" xlink:href="#arrowRight" x="0" y="0" onmousedown="handlePan(1,0)"/>
  <use id="arrowdown" xlink:href="#arrowDown" x="0" y="0" onmousedown="handlePan(0,1)"/>
  <use id="arrowleft" xlink:href="#arrowLeft" x="0" y="0" onmousedown="handlePan(-1,0)"/>
</g>
<svg viewBox="0 0 15 15" width="100%" height="30px" preserveAspectRatio="xMaxYMin meet">
 <g id="arrow_out" transform="scale(0.3 0.3)">
  <a xlink:href="class_w_p_r_1_1_repository_1_1_employee_repository__coll__graph_org.svg" target="_base">
   <rect id="button" ry="5" rx="5" y="6" x="6" height="38" width="38"
        fill="#f2f5e9" fill-opacity="0.5" stroke="#606060" stroke-width="1.0"/>
   <path id="arrow"
     d="M 11.500037,31.436501 C 11.940474,20.09759 22.043105,11.32322 32.158766,21.979434 L 37.068811,17.246167 C 37.068811,17.246167 37.088388,32 37.088388,32 L 22.160133,31.978069 C 22.160133,31.978069 26.997745,27.140456 26.997745,27.140456 C 18.528582,18.264221 13.291696,25.230495 11.500037,31.436501 z"
     style="fill:#404040;"/>
  </a>
 </g>
</svg>

<style type='text/css'>
<![CDATA[
[data-mouse-over-selected='false'] { opacity: 0.7; }
[data-mouse-over-selected='true']  { opacity: 1.0; }
]]>
</style>
<script type="application/ecmascript"><![CDATA[
document.addEventListener('DOMContentLoaded', (event) => {
  highlightEdges();
  highlightAdjacentNodes();
});
]]></script>
</svg>
