<?xml version="1.0" encoding="UTF-8" standalone="no"?>
<!DOCTYPE svg PUBLIC "-//W3C//DTD SVG 1.1//EN"
 "http://www.w3.org/Graphics/SVG/1.1/DTD/svg11.dtd">
<!-- Generated by graphviz version 12.2.1 (20241206.2353)
 -->
<!-- Title: WPR.Repository.VehicleRepository.DecryptCookie Pages: 1 -->
<svg width="391pt" height="140pt"
 viewBox="0.00 0.00 391.00 140.00" xmlns="http://www.w3.org/2000/svg" xmlns:xlink="http://www.w3.org/1999/xlink">
<g id="graph0" class="graph" transform="scale(1 1) rotate(0) translate(4 136)">
<title>WPR.Repository.VehicleRepository.DecryptCookie</title>
<!-- Node1 -->
<g id="Node000001" class="node">
<title>Node1</title>
<g id="a_Node000001"><a xlink:title=" ">
<polygon fill="#999999" stroke="#666666" points="383,-82 209.5,-82 209.5,-50 383,-50 383,-82"/>
<text text-anchor="start" x="217.5" y="-68.5" font-family="Helvetica,sans-Serif" font-size="10.00">WPR.Repository.VehicleRepository.</text>
<text text-anchor="middle" x="296.25" y="-56.5" font-family="Helvetica,sans-Serif" font-size="10.00">DecryptCookie</text>
</a>
</g>
</g>
<!-- Node2 -->
<g id="Node000002" class="node">
<title>Node2</title>
<g id="a_Node000002"><a xlink:href="class_w_p_r_1_1_repository_1_1_vehicle_repository.html#a774953f45d278043f0b8ff79cdefa4df" target="_top" xlink:title=" ">
<polygon fill="white" stroke="#666666" points="173.5,-132 0,-132 0,-100 173.5,-100 173.5,-132"/>
<text text-anchor="start" x="8" y="-118.5" font-family="Helvetica,sans-Serif" font-size="10.00">WPR.Repository.VehicleRepository.</text>
<text text-anchor="middle" x="86.75" y="-106.5" font-family="Helvetica,sans-Serif" font-size="10.00">CancelRental</text>
</a>
</g>
</g>
<!-- Node1&#45;&gt;Node2 -->
<g id="edge1_Node000001_Node000002" class="edge">
<title>Node1&#45;&gt;Node2</title>
<g id="a_edge1_Node000001_Node000002"><a xlink:title=" ">
<path fill="none" stroke="#63b8ff" d="M215.89,-85.12C196.15,-89.88 175.17,-94.93 156.02,-99.55"/>
<polygon fill="#63b8ff" stroke="#63b8ff" points="216.65,-88.54 225.55,-82.8 215.01,-81.74 216.65,-88.54"/>
</a>
</g>
</g>
<!-- Node3 -->
<g id="Node000003" class="node">
<title>Node3</title>
<g id="a_Node000003"><a xlink:href="class_w_p_r_1_1_repository_1_1_vehicle_repository.html#a67db6526a03c26958ee2c78af449dc5d" target="_top" xlink:title=" ">
<polygon fill="white" stroke="#666666" points="173.5,-82 0,-82 0,-50 173.5,-50 173.5,-82"/>
<text text-anchor="start" x="8" y="-68.5" font-family="Helvetica,sans-Serif" font-size="10.00">WPR.Repository.VehicleRepository.</text>
<text text-anchor="middle" x="86.75" y="-56.5" font-family="Helvetica,sans-Serif" font-size="10.00">GetAllUserRentals</text>
</a>
</g>
</g>
<!-- Node1&#45;&gt;Node3 -->
<g id="edge2_Node000001_Node000003" class="edge">
<title>Node1&#45;&gt;Node3</title>
<g id="a_edge2_Node000001_Node000003"><a xlink:title=" ">
<path fill="none" stroke="#63b8ff" d="M197.75,-66C189.71,-66 181.62,-66 173.68,-66"/>
<polygon fill="#63b8ff" stroke="#63b8ff" points="197.54,-69.5 207.54,-66 197.54,-62.5 197.54,-69.5"/>
</a>
</g>
</g>
<!-- Node4 -->
<g id="Node000004" class="node">
<title>Node4</title>
<g id="a_Node000004"><a xlink:href="class_w_p_r_1_1_repository_1_1_vehicle_repository.html#a35a796e7cf96268b3fe824913616c411" target="_top" xlink:title=" ">
<polygon fill="white" stroke="#666666" points="173.5,-32 0,-32 0,0 173.5,0 173.5,-32"/>
<text text-anchor="start" x="8" y="-18.5" font-family="Helvetica,sans-Serif" font-size="10.00">WPR.Repository.VehicleRepository.</text>
<text text-anchor="middle" x="86.75" y="-6.5" font-family="Helvetica,sans-Serif" font-size="10.00">HireVehicle</text>
</a>
</g>
</g>
<!-- Node1&#45;&gt;Node4 -->
<g id="edge3_Node000001_Node000004" class="edge">
<title>Node1&#45;&gt;Node4</title>
<g id="a_edge3_Node000001_Node000004"><a xlink:title=" ">
<path fill="none" stroke="#63b8ff" d="M215.89,-46.88C196.15,-42.12 175.17,-37.07 156.02,-32.45"/>
<polygon fill="#63b8ff" stroke="#63b8ff" points="215.01,-50.26 225.55,-49.2 216.65,-43.46 215.01,-50.26"/>
</a>
</g>
</g>
</g>
</svg>
