<?xml version="1.0" encoding="UTF-8" standalone="no"?>
<!DOCTYPE svg PUBLIC "-//W3C//DTD SVG 1.1//EN"
 "http://www.w3.org/Graphics/SVG/1.1/DTD/svg11.dtd">
<!-- Generated by graphviz version 12.2.1 (20241206.2353)
 -->
<!-- Title: WPR.Controllers.General.SignUp.SignUpController Pages: 1 -->
<svg width="254pt" height="364pt"
 viewBox="0.00 0.00 254.12 364.00" xmlns="http://www.w3.org/2000/svg" xmlns:xlink="http://www.w3.org/1999/xlink">
<g id="graph0" class="graph" transform="scale(1 1) rotate(0) translate(4 360)">
<title>WPR.Controllers.General.SignUp.SignUpController</title>
<!-- Node1 -->
<g id="Node000001" class="node">
<title>Node1</title>
<g id="a_Node000001"><a xlink:title="SignUpController zorgt ervoor dat persoonlijke en zakelijke accounts aangemaakt kunnen worden.">
<polygon fill="#999999" stroke="none" points="163.25,-96 41.25,-96 41.25,0 163.25,0 163.25,-96"/>
<text text-anchor="start" x="45.25" y="-82.5" font-family="Helvetica,sans-Serif" font-size="10.00">WPR.Controllers.General.</text>
<text text-anchor="start" x="47.5" y="-70.5" font-family="Helvetica,sans-Serif" font-size="10.00">SignUp.SignUpController</text>
<text text-anchor="start" x="100.75" y="-54.5" font-family="Helvetica,sans-Serif" font-size="10.00"> </text>
<text text-anchor="start" x="45.56" y="-38.5" font-family="Helvetica,sans-Serif" font-size="10.00">+</text>
<text text-anchor="start" x="55.88" y="-38.5" font-family="Helvetica,sans-Serif" font-size="10.00">SignUpController()</text>
<text text-anchor="start" x="45.56" y="-22.5" font-family="Helvetica,sans-Serif" font-size="10.00">+</text>
<text text-anchor="start" x="55.88" y="-22.5" font-family="Helvetica,sans-Serif" font-size="10.00">SignUp()</text>
<text text-anchor="start" x="45.56" y="-6.5" font-family="Helvetica,sans-Serif" font-size="10.00">+</text>
<text text-anchor="start" x="55.88" y="-6.5" font-family="Helvetica,sans-Serif" font-size="10.00">signUpPersonalAsync()</text>
<polygon fill="#666666" stroke="#666666" points="41.25,-66 41.25,-66 163.25,-66 163.25,-66 41.25,-66"/>
<polygon fill="#666666" stroke="#666666" points="41.25,-50 41.25,-50 163.25,-50 163.25,-50 41.25,-50"/>
<polygon fill="none" stroke="#666666" points="41.25,0 41.25,-96 163.25,-96 163.25,0 41.25,0"/>
</a>
</g>
</g>
<!-- Node2 -->
<g id="Node000002" class="node">
<title>Node2</title>
<g id="a_Node000002"><a xlink:title=" ">
<polygon fill="white" stroke="none" points="72.5,-276 0,-276 0,-224 72.5,-224 72.5,-276"/>
<text text-anchor="start" x="4" y="-262.5" font-family="Helvetica,sans-Serif" font-size="10.00">ControllerBase</text>
<text text-anchor="start" x="34.75" y="-246.5" font-family="Helvetica,sans-Serif" font-size="10.00"> </text>
<text text-anchor="start" x="34.75" y="-230.5" font-family="Helvetica,sans-Serif" font-size="10.00"> </text>
<polygon fill="#666666" stroke="#666666" points="0,-258 0,-258 72.5,-258 72.5,-258 0,-258"/>
<polygon fill="#666666" stroke="#666666" points="0,-242 0,-242 72.5,-242 72.5,-242 0,-242"/>
<polygon fill="none" stroke="#666666" points="0,-224 0,-276 72.5,-276 72.5,-224 0,-224"/>
</a>
</g>
</g>
<!-- Node2&#45;&gt;Node1 -->
<g id="edge1_Node000001_Node000002" class="edge">
<title>Node2&#45;&gt;Node1</title>
<g id="a_edge1_Node000001_Node000002"><a xlink:title=" ">
<path fill="none" stroke="#63b8ff" d="M48.07,-213.17C58.91,-180.34 75.02,-131.53 86.85,-95.66"/>
<polygon fill="none" stroke="#63b8ff" points="44.76,-212.04 44.95,-222.64 51.41,-214.24 44.76,-212.04"/>
</a>
</g>
</g>
<!-- Node3 -->
<g id="Node000003" class="node">
<title>Node3</title>
<g id="a_Node000003"><a xlink:href="interface_w_p_r_1_1_repository_1_1_i_user_repository.html" target="_top" xlink:title="Interface defining methods voor user gerelateerde database operaties, validatie, user management,...">
<polygon fill="white" stroke="none" points="246.12,-356 90.38,-356 90.38,-144 246.12,-144 246.12,-356"/>
<text text-anchor="start" x="94.38" y="-342.5" font-family="Helvetica,sans-Serif" font-size="10.00">WPR.Repository.IUserRepository</text>
<text text-anchor="start" x="166.75" y="-326.5" font-family="Helvetica,sans-Serif" font-size="10.00"> </text>
<text text-anchor="start" x="94.88" y="-310.5" font-family="Helvetica,sans-Serif" font-size="10.00">+</text>
<text text-anchor="start" x="105.38" y="-310.5" font-family="Helvetica,sans-Serif" font-size="10.00">ValidateUserAsync()</text>
<text text-anchor="start" x="94.88" y="-294.5" font-family="Helvetica,sans-Serif" font-size="10.00">+</text>
<text text-anchor="start" x="105.38" y="-294.5" font-family="Helvetica,sans-Serif" font-size="10.00">checkUsageEmailAsync()</text>
<text text-anchor="start" x="94.88" y="-278.5" font-family="Helvetica,sans-Serif" font-size="10.00">+</text>
<text text-anchor="start" x="105.38" y="-278.5" font-family="Helvetica,sans-Serif" font-size="10.00">addCustomerAsync()</text>
<text text-anchor="start" x="94.88" y="-262.5" font-family="Helvetica,sans-Serif" font-size="10.00">+</text>
<text text-anchor="start" x="105.38" y="-262.5" font-family="Helvetica,sans-Serif" font-size="10.00">addPersonalCustomerAsync()</text>
<text text-anchor="start" x="94.88" y="-246.5" font-family="Helvetica,sans-Serif" font-size="10.00">+</text>
<text text-anchor="start" x="105.38" y="-246.5" font-family="Helvetica,sans-Serif" font-size="10.00">addEmployeeCustomerAsync()</text>
<text text-anchor="start" x="94.88" y="-230.5" font-family="Helvetica,sans-Serif" font-size="10.00">+</text>
<text text-anchor="start" x="105.38" y="-230.5" font-family="Helvetica,sans-Serif" font-size="10.00">GetUserIdAsync()</text>
<text text-anchor="start" x="94.88" y="-214.5" font-family="Helvetica,sans-Serif" font-size="10.00">+</text>
<text text-anchor="start" x="105.38" y="-214.5" font-family="Helvetica,sans-Serif" font-size="10.00">GetUserNameAsync()</text>
<text text-anchor="start" x="94.88" y="-198.5" font-family="Helvetica,sans-Serif" font-size="10.00">+</text>
<text text-anchor="start" x="105.38" y="-198.5" font-family="Helvetica,sans-Serif" font-size="10.00">EditUserInfoAsync()</text>
<text text-anchor="start" x="94.88" y="-182.5" font-family="Helvetica,sans-Serif" font-size="10.00">+</text>
<text text-anchor="start" x="105.38" y="-182.5" font-family="Helvetica,sans-Serif" font-size="10.00">IsKvkNumberAsync()</text>
<text text-anchor="start" x="94.88" y="-166.5" font-family="Helvetica,sans-Serif" font-size="10.00">+</text>
<text text-anchor="start" x="105.38" y="-166.5" font-family="Helvetica,sans-Serif" font-size="10.00">IsUserEmployee()</text>
<text text-anchor="start" x="105.38" y="-150.5" font-family="Helvetica,sans-Serif" font-size="10.00">en 14 anderen...</text>
<polygon fill="#666666" stroke="#666666" points="90.38,-338 90.38,-338 246.12,-338 246.12,-338 90.38,-338"/>
<polygon fill="#666666" stroke="#666666" points="90.38,-322 90.38,-322 246.12,-322 246.12,-322 90.38,-322"/>
<polygon fill="none" stroke="#666666" points="90.38,-144 90.38,-356 246.12,-356 246.12,-144 90.38,-144"/>
</a>
</g>
</g>
<!-- Node3&#45;&gt;Node1 -->
<g id="edge2_Node000001_Node000003" class="edge">
<title>Node3&#45;&gt;Node1</title>
<g id="a_edge2_Node000001_Node000003"><a xlink:title=" ">
<path fill="none" stroke="#63b8ff" d="M133.61,-144.02C129.49,-131.55 125.41,-119.19 121.62,-107.71"/>
<polygon fill="none" stroke="#63b8ff" points="121.68,-107.88 116,-103.44 117.92,-96.49 123.6,-100.93 121.68,-107.88"/>
</a>
</g>
<text text-anchor="middle" x="166.02" y="-116.5" font-family="Helvetica,sans-Serif" font-size="10.00" fill="grey"> &#45;_userRepository</text>
</g>
</g>
</svg>
