<?xml version="1.0" encoding="UTF-8" standalone="no"?>
<!DOCTYPE svg PUBLIC "-//W3C//DTD SVG 1.1//EN"
 "http://www.w3.org/Graphics/SVG/1.1/DTD/svg11.dtd">
<!-- Generated by graphviz version 12.2.1 (20241206.2353)
 -->
<!-- Title: WPR.Controllers.Employee.VehicleManager.ChangeBusinessSettings.ChangeBusinessSettingsController Pages: 1 -->
<svg width="627pt" height="512pt"
 viewBox="0.00 0.00 627.38 512.00" xmlns="http://www.w3.org/2000/svg" xmlns:xlink="http://www.w3.org/1999/xlink">
<g id="graph0" class="graph" transform="scale(1 1) rotate(0) translate(4 508)">
<title>WPR.Controllers.Employee.VehicleManager.ChangeBusinessSettings.ChangeBusinessSettingsController</title>
<!-- Node1 -->
<g id="Node000001" class="node">
<title>Node1</title>
<g id="a_Node000001"><a xlink:title=" ">
<polygon fill="#999999" stroke="none" points="351.88,-184 158.62,-184 158.62,0 351.88,0 351.88,-184"/>
<text text-anchor="start" x="162.62" y="-170.5" font-family="Helvetica,sans-Serif" font-size="10.00">WPR.Controllers.Employee.</text>
<text text-anchor="start" x="162.62" y="-158.5" font-family="Helvetica,sans-Serif" font-size="10.00">VehicleManager.ChangeBusinessSettings.</text>
<text text-anchor="start" x="179.12" y="-146.5" font-family="Helvetica,sans-Serif" font-size="10.00">ChangeBusinessSettingsController</text>
<text text-anchor="start" x="253.75" y="-130.5" font-family="Helvetica,sans-Serif" font-size="10.00"> </text>
<text text-anchor="start" x="166.88" y="-114.5" font-family="Helvetica,sans-Serif" font-size="10.00">+</text>
<text text-anchor="start" x="181.12" y="-114.5" font-family="Helvetica,sans-Serif" font-size="10.00">ChangeBusinessSettingsController()</text>
<text text-anchor="start" x="166.88" y="-98.5" font-family="Helvetica,sans-Serif" font-size="10.00">+</text>
<text text-anchor="start" x="181.12" y="-98.5" font-family="Helvetica,sans-Serif" font-size="10.00">GetBusinessInfoAsync()</text>
<text text-anchor="start" x="166.88" y="-82.5" font-family="Helvetica,sans-Serif" font-size="10.00">+</text>
<text text-anchor="start" x="181.12" y="-82.5" font-family="Helvetica,sans-Serif" font-size="10.00">ChangeBusinessInfoAsync()</text>
<text text-anchor="start" x="166.88" y="-66.5" font-family="Helvetica,sans-Serif" font-size="10.00">+</text>
<text text-anchor="start" x="181.12" y="-66.5" font-family="Helvetica,sans-Serif" font-size="10.00">DeleteUserAsync()</text>
<text text-anchor="start" x="166.88" y="-50.5" font-family="Helvetica,sans-Serif" font-size="10.00">+</text>
<text text-anchor="start" x="181.12" y="-50.5" font-family="Helvetica,sans-Serif" font-size="10.00">DeleteVehicleAsync()</text>
<text text-anchor="start" x="166.88" y="-34.5" font-family="Helvetica,sans-Serif" font-size="10.00">+</text>
<text text-anchor="start" x="181.12" y="-34.5" font-family="Helvetica,sans-Serif" font-size="10.00">CheckNewEmailAsync()</text>
<text text-anchor="start" x="166.88" y="-18.5" font-family="Helvetica,sans-Serif" font-size="10.00">+</text>
<text text-anchor="start" x="181.12" y="-18.5" font-family="Helvetica,sans-Serif" font-size="10.00">ChangeVehicleManagerInfo</text>
<text text-anchor="start" x="181.12" y="-6.5" font-family="Helvetica,sans-Serif" font-size="10.00">Async()</text>
<polygon fill="#666666" stroke="#666666" points="158.62,-142 158.62,-142 351.88,-142 351.88,-142 158.62,-142"/>
<polygon fill="#666666" stroke="#666666" points="158.62,-126 158.62,-126 351.88,-126 351.88,-126 158.62,-126"/>
<polygon fill="none" stroke="#666666" points="158.62,0 158.62,-184 351.88,-184 351.88,0 158.62,0"/>
</a>
</g>
</g>
<!-- Node2 -->
<g id="Node000002" class="node">
<title>Node2</title>
<g id="a_Node000002"><a xlink:title=" ">
<polygon fill="white" stroke="none" points="72.5,-394 0,-394 0,-342 72.5,-342 72.5,-394"/>
<text text-anchor="start" x="4" y="-380.5" font-family="Helvetica,sans-Serif" font-size="10.00">ControllerBase</text>
<text text-anchor="start" x="34.75" y="-364.5" font-family="Helvetica,sans-Serif" font-size="10.00"> </text>
<text text-anchor="start" x="34.75" y="-348.5" font-family="Helvetica,sans-Serif" font-size="10.00"> </text>
<polygon fill="#666666" stroke="#666666" points="0,-376 0,-376 72.5,-376 72.5,-376 0,-376"/>
<polygon fill="#666666" stroke="#666666" points="0,-360 0,-360 72.5,-360 72.5,-360 0,-360"/>
<polygon fill="none" stroke="#666666" points="0,-342 0,-394 72.5,-394 72.5,-342 0,-342"/>
</a>
</g>
</g>
<!-- Node2&#45;&gt;Node1 -->
<g id="edge1_Node000001_Node000002" class="edge">
<title>Node2&#45;&gt;Node1</title>
<g id="a_edge1_Node000001_Node000002"><a xlink:title=" ">
<path fill="none" stroke="#63b8ff" d="M42.39,-331C48.61,-302.23 60.37,-261.92 81.25,-232 101.94,-202.35 130.72,-175.82 158.93,-154.08"/>
<polygon fill="none" stroke="#63b8ff" points="38.98,-330.2 40.43,-340.69 45.84,-331.59 38.98,-330.2"/>
</a>
</g>
</g>
<!-- Node3 -->
<g id="Node000003" class="node">
<title>Node3</title>
<g id="a_Node000003"><a xlink:href="interface_w_p_r_1_1_repository_1_1_i_user_repository.html" target="_top" xlink:title="Interface defining methods voor user gerelateerde database operaties, validatie, user management,...">
<polygon fill="white" stroke="none" points="246.12,-474 90.38,-474 90.38,-262 246.12,-262 246.12,-474"/>
<text text-anchor="start" x="94.38" y="-460.5" font-family="Helvetica,sans-Serif" font-size="10.00">WPR.Repository.IUserRepository</text>
<text text-anchor="start" x="166.75" y="-444.5" font-family="Helvetica,sans-Serif" font-size="10.00"> </text>
<text text-anchor="start" x="94.88" y="-428.5" font-family="Helvetica,sans-Serif" font-size="10.00">+</text>
<text text-anchor="start" x="105.38" y="-428.5" font-family="Helvetica,sans-Serif" font-size="10.00">ValidateUserAsync()</text>
<text text-anchor="start" x="94.88" y="-412.5" font-family="Helvetica,sans-Serif" font-size="10.00">+</text>
<text text-anchor="start" x="105.38" y="-412.5" font-family="Helvetica,sans-Serif" font-size="10.00">checkUsageEmailAsync()</text>
<text text-anchor="start" x="94.88" y="-396.5" font-family="Helvetica,sans-Serif" font-size="10.00">+</text>
<text text-anchor="start" x="105.38" y="-396.5" font-family="Helvetica,sans-Serif" font-size="10.00">addCustomerAsync()</text>
<text text-anchor="start" x="94.88" y="-380.5" font-family="Helvetica,sans-Serif" font-size="10.00">+</text>
<text text-anchor="start" x="105.38" y="-380.5" font-family="Helvetica,sans-Serif" font-size="10.00">addPersonalCustomerAsync()</text>
<text text-anchor="start" x="94.88" y="-364.5" font-family="Helvetica,sans-Serif" font-size="10.00">+</text>
<text text-anchor="start" x="105.38" y="-364.5" font-family="Helvetica,sans-Serif" font-size="10.00">addEmployeeCustomerAsync()</text>
<text text-anchor="start" x="94.88" y="-348.5" font-family="Helvetica,sans-Serif" font-size="10.00">+</text>
<text text-anchor="start" x="105.38" y="-348.5" font-family="Helvetica,sans-Serif" font-size="10.00">GetUserIdAsync()</text>
<text text-anchor="start" x="94.88" y="-332.5" font-family="Helvetica,sans-Serif" font-size="10.00">+</text>
<text text-anchor="start" x="105.38" y="-332.5" font-family="Helvetica,sans-Serif" font-size="10.00">GetUserNameAsync()</text>
<text text-anchor="start" x="94.88" y="-316.5" font-family="Helvetica,sans-Serif" font-size="10.00">+</text>
<text text-anchor="start" x="105.38" y="-316.5" font-family="Helvetica,sans-Serif" font-size="10.00">EditUserInfoAsync()</text>
<text text-anchor="start" x="94.88" y="-300.5" font-family="Helvetica,sans-Serif" font-size="10.00">+</text>
<text text-anchor="start" x="105.38" y="-300.5" font-family="Helvetica,sans-Serif" font-size="10.00">IsKvkNumberAsync()</text>
<text text-anchor="start" x="94.88" y="-284.5" font-family="Helvetica,sans-Serif" font-size="10.00">+</text>
<text text-anchor="start" x="105.38" y="-284.5" font-family="Helvetica,sans-Serif" font-size="10.00">IsUserEmployee()</text>
<text text-anchor="start" x="105.38" y="-268.5" font-family="Helvetica,sans-Serif" font-size="10.00">en 14 anderen...</text>
<polygon fill="#666666" stroke="#666666" points="90.38,-456 90.38,-456 246.12,-456 246.12,-456 90.38,-456"/>
<polygon fill="#666666" stroke="#666666" points="90.38,-440 90.38,-440 246.12,-440 246.12,-440 90.38,-440"/>
<polygon fill="none" stroke="#666666" points="90.38,-262 90.38,-474 246.12,-474 246.12,-262 90.38,-262"/>
</a>
</g>
</g>
<!-- Node3&#45;&gt;Node1 -->
<g id="edge2_Node000001_Node000003" class="edge">
<title>Node3&#45;&gt;Node1</title>
<g id="a_edge2_Node000001_Node000003"><a xlink:title=" ">
<path fill="none" stroke="#63b8ff" d="M201.51,-262.24C208.4,-240.54 215.65,-217.7 222.52,-196.07"/>
<polygon fill="none" stroke="#63b8ff" points="222.5,-196.13 220.51,-189.2 226.13,-184.7 228.13,-191.63 222.5,-196.13"/>
</a>
</g>
<text text-anchor="middle" x="258.17" y="-204.5" font-family="Helvetica,sans-Serif" font-size="10.00" fill="grey"> &#45;_userRepository</text>
</g>
<!-- Node4 -->
<g id="Node000004" class="node">
<title>Node4</title>
<g id="a_Node000004"><a xlink:href="interface_w_p_r_1_1_repository_1_1_i_employee_repository.html" target="_top" xlink:title="Interface defining methods voor user gerelateerde database operaties, validatie, user management,...">
<polygon fill="white" stroke="none" points="422.75,-504 263.75,-504 263.75,-232 422.75,-232 422.75,-504"/>
<text text-anchor="start" x="281.75" y="-490.5" font-family="Helvetica,sans-Serif" font-size="10.00">WPR.Repository.IEmployee</text>
<text text-anchor="start" x="319.62" y="-478.5" font-family="Helvetica,sans-Serif" font-size="10.00">Repository</text>
<text text-anchor="start" x="267.75" y="-462.5" font-family="Helvetica,sans-Serif" font-size="10.00">+</text>
<text text-anchor="start" x="277.75" y="-462.5" font-family="Helvetica,sans-Serif" font-size="10.00">StatusCode</text>
<text text-anchor="start" x="267.75" y="-446.5" font-family="Helvetica,sans-Serif" font-size="10.00">+</text>
<text text-anchor="start" x="277.75" y="-446.5" font-family="Helvetica,sans-Serif" font-size="10.00">Message</text>
<text text-anchor="start" x="267.75" y="-430.5" font-family="Helvetica,sans-Serif" font-size="10.00">+</text>
<text text-anchor="start" x="277.75" y="-430.5" font-family="Helvetica,sans-Serif" font-size="10.00">Status</text>
<text text-anchor="start" x="267.75" y="-414.5" font-family="Helvetica,sans-Serif" font-size="10.00">+</text>
<text text-anchor="start" x="277.75" y="-414.5" font-family="Helvetica,sans-Serif" font-size="10.00">Message</text>
<text text-anchor="start" x="267.75" y="-398.5" font-family="Helvetica,sans-Serif" font-size="10.00">+</text>
<text text-anchor="start" x="277.75" y="-398.5" font-family="Helvetica,sans-Serif" font-size="10.00">AddVehicleAsync()</text>
<text text-anchor="start" x="267.75" y="-382.5" font-family="Helvetica,sans-Serif" font-size="10.00">+</text>
<text text-anchor="start" x="277.75" y="-382.5" font-family="Helvetica,sans-Serif" font-size="10.00">AddStaff()</text>
<text text-anchor="start" x="267.75" y="-366.5" font-family="Helvetica,sans-Serif" font-size="10.00">+</text>
<text text-anchor="start" x="277.75" y="-366.5" font-family="Helvetica,sans-Serif" font-size="10.00">checkUsageEmailAsync()</text>
<text text-anchor="start" x="267.75" y="-350.5" font-family="Helvetica,sans-Serif" font-size="10.00">+</text>
<text text-anchor="start" x="277.75" y="-350.5" font-family="Helvetica,sans-Serif" font-size="10.00">GetReviewIdsAsync()</text>
<text text-anchor="start" x="267.75" y="-334.5" font-family="Helvetica,sans-Serif" font-size="10.00">+</text>
<text text-anchor="start" x="277.75" y="-334.5" font-family="Helvetica,sans-Serif" font-size="10.00">GetReviewAsync()</text>
<text text-anchor="start" x="267.75" y="-318.5" font-family="Helvetica,sans-Serif" font-size="10.00">+</text>
<text text-anchor="start" x="277.75" y="-318.5" font-family="Helvetica,sans-Serif" font-size="10.00">SetStatusAsync()</text>
<text text-anchor="start" x="267.75" y="-302.5" font-family="Helvetica,sans-Serif" font-size="10.00">+</text>
<text text-anchor="start" x="277.75" y="-302.5" font-family="Helvetica,sans-Serif" font-size="10.00">AddBusiness()</text>
<text text-anchor="start" x="267.75" y="-286.5" font-family="Helvetica,sans-Serif" font-size="10.00">+</text>
<text text-anchor="start" x="277.75" y="-286.5" font-family="Helvetica,sans-Serif" font-size="10.00">ViewBusinessRequests()</text>
<text text-anchor="start" x="267.75" y="-270.5" font-family="Helvetica,sans-Serif" font-size="10.00">+</text>
<text text-anchor="start" x="277.75" y="-270.5" font-family="Helvetica,sans-Serif" font-size="10.00">ViewBusinessRequestDetailed()</text>
<text text-anchor="start" x="267.75" y="-254.5" font-family="Helvetica,sans-Serif" font-size="10.00">+</text>
<text text-anchor="start" x="277.75" y="-254.5" font-family="Helvetica,sans-Serif" font-size="10.00">BusinessAccepted()</text>
<text text-anchor="start" x="277.75" y="-238.5" font-family="Helvetica,sans-Serif" font-size="10.00">en 7 anderen...</text>
<polygon fill="#666666" stroke="#666666" points="263.75,-474 263.75,-474 422.75,-474 422.75,-474 263.75,-474"/>
<polygon fill="#666666" stroke="#666666" points="263.75,-410 263.75,-410 275.75,-410 275.75,-410 263.75,-410"/>
<polygon fill="#666666" stroke="#666666" points="275.75,-410 275.75,-410 422.75,-410 422.75,-410 275.75,-410"/>
<polygon fill="none" stroke="#666666" points="263.75,-232 263.75,-504 422.75,-504 422.75,-232 263.75,-232"/>
</a>
</g>
</g>
<!-- Node4&#45;&gt;Node1 -->
<g id="edge3_Node000001_Node000004" class="edge">
<title>Node4&#45;&gt;Node1</title>
<g id="a_edge3_Node000001_Node000004"><a xlink:title=" ">
<path fill="none" stroke="#63b8ff" d="M310.76,-232.33C307.73,-222.02 304.55,-211.81 301.25,-202 300.6,-200.05 299.92,-198.09 299.23,-196.12"/>
<polygon fill="none" stroke="#63b8ff" points="299.2,-196.03 293.39,-191.76 295.11,-184.75 300.91,-189.03 299.2,-196.03"/>
</a>
</g>
<text text-anchor="middle" x="354.36" y="-204.5" font-family="Helvetica,sans-Serif" font-size="10.00" fill="grey"> &#45;_employeeRepository</text>
</g>
<!-- Node5 -->
<g id="Node000005" class="node">
<title>Node5</title>
<g id="a_Node000005"><a xlink:href="interface_w_p_r_1_1_repository_1_1_database_check_repository_1_1_i_database_check_repository.html" target="_top" xlink:title=" ">
<polygon fill="white" stroke="none" points="619.38,-416 441.12,-416 441.12,-320 619.38,-320 619.38,-416"/>
<text text-anchor="start" x="445.12" y="-402.5" font-family="Helvetica,sans-Serif" font-size="10.00">WPR.Repository.DatabaseCheck</text>
<text text-anchor="start" x="445.12" y="-390.5" font-family="Helvetica,sans-Serif" font-size="10.00">Repository.IDatabaseCheckRepository</text>
<text text-anchor="start" x="459.31" y="-374.5" font-family="Helvetica,sans-Serif" font-size="10.00">+</text>
<text text-anchor="start" x="483.5" y="-374.5" font-family="Helvetica,sans-Serif" font-size="10.00">StatusCode</text>
<text text-anchor="start" x="459.31" y="-358.5" font-family="Helvetica,sans-Serif" font-size="10.00">+</text>
<text text-anchor="start" x="483.5" y="-358.5" font-family="Helvetica,sans-Serif" font-size="10.00">DeleteUser()</text>
<text text-anchor="start" x="459.31" y="-342.5" font-family="Helvetica,sans-Serif" font-size="10.00">+</text>
<text text-anchor="start" x="483.5" y="-342.5" font-family="Helvetica,sans-Serif" font-size="10.00">DeleteBusiness()</text>
<text text-anchor="start" x="459.31" y="-326.5" font-family="Helvetica,sans-Serif" font-size="10.00">+</text>
<text text-anchor="start" x="483.5" y="-326.5" font-family="Helvetica,sans-Serif" font-size="10.00">DeleteVehicleManager()</text>
<polygon fill="#666666" stroke="#666666" points="441.12,-386 441.12,-386 619.38,-386 619.38,-386 441.12,-386"/>
<polygon fill="#666666" stroke="#666666" points="441.12,-370 441.12,-370 481.5,-370 481.5,-370 441.12,-370"/>
<polygon fill="#666666" stroke="#666666" points="481.5,-370 481.5,-370 619.38,-370 619.38,-370 481.5,-370"/>
<polygon fill="none" stroke="#666666" points="441.12,-320 441.12,-416 619.38,-416 619.38,-320 441.12,-320"/>
</a>
</g>
</g>
<!-- Node5&#45;&gt;Node1 -->
<g id="edge4_Node000001_Node000005" class="edge">
<title>Node5&#45;&gt;Node1</title>
<g id="a_edge4_Node000001_Node000005"><a xlink:title=" ">
<path fill="none" stroke="#63b8ff" d="M502.03,-320.13C479.46,-285.05 445.52,-237.25 408.25,-202 393.93,-188.45 377.83,-175.22 361.61,-162.92"/>
<polygon fill="none" stroke="#63b8ff" points="361.85,-163.1 354.65,-162.72 352.23,-155.93 359.43,-156.31 361.85,-163.1"/>
</a>
</g>
<text text-anchor="middle" x="483.43" y="-204.5" font-family="Helvetica,sans-Serif" font-size="10.00" fill="grey"> &#45;_databaseCheckRepository</text>
</g>
</g>
</svg>
