<?xml version="1.0" encoding="UTF-8" standalone="no"?>
<!DOCTYPE svg PUBLIC "-//W3C//DTD SVG 1.1//EN"
 "http://www.w3.org/Graphics/SVG/1.1/DTD/svg11.dtd">
<!-- Generated by graphviz version 12.2.1 (20241206.2353)
 -->
<!-- Title: WPR.Controllers.Employee.VehicleManager.GetInfoVehicleManager.GetInfoVehicleManagerController Pages: 1 -->
<svg width="377pt" height="604pt"
 viewBox="0.00 0.00 376.75 604.00" xmlns="http://www.w3.org/2000/svg" xmlns:xlink="http://www.w3.org/1999/xlink">
<g id="graph0" class="graph" transform="scale(1 1) rotate(0) translate(4 600)">
<title>WPR.Controllers.Employee.VehicleManager.GetInfoVehicleManager.GetInfoVehicleManagerController</title>
<!-- Node1 -->
<g id="Node000001" class="node">
<title>Node1</title>
<g id="a_Node000001"><a xlink:title=" ">
<polygon fill="#999999" stroke="none" points="260.38,-140 76.12,-140 76.12,0 260.38,0 260.38,-140"/>
<text text-anchor="start" x="80.12" y="-126.5" font-family="Helvetica,sans-Serif" font-size="10.00">WPR.Controllers.Employee.</text>
<text text-anchor="start" x="80.12" y="-114.5" font-family="Helvetica,sans-Serif" font-size="10.00">VehicleManager.GetInfoVehicleManager.</text>
<text text-anchor="start" x="96.62" y="-102.5" font-family="Helvetica,sans-Serif" font-size="10.00">GetInfoVehicleManagerController</text>
<text text-anchor="start" x="166.75" y="-86.5" font-family="Helvetica,sans-Serif" font-size="10.00"> </text>
<text text-anchor="start" x="82.5" y="-70.5" font-family="Helvetica,sans-Serif" font-size="10.00">+</text>
<text text-anchor="start" x="94.88" y="-70.5" font-family="Helvetica,sans-Serif" font-size="10.00">GetInfoVehicleManagerController()</text>
<text text-anchor="start" x="82.5" y="-54.5" font-family="Helvetica,sans-Serif" font-size="10.00">+</text>
<text text-anchor="start" x="94.88" y="-54.5" font-family="Helvetica,sans-Serif" font-size="10.00">GetAllInfo()</text>
<text text-anchor="start" x="82.5" y="-38.5" font-family="Helvetica,sans-Serif" font-size="10.00">+</text>
<text text-anchor="start" x="94.88" y="-38.5" font-family="Helvetica,sans-Serif" font-size="10.00">UpdateCustomer()</text>
<text text-anchor="start" x="82.5" y="-22.5" font-family="Helvetica,sans-Serif" font-size="10.00">+</text>
<text text-anchor="start" x="94.88" y="-22.5" font-family="Helvetica,sans-Serif" font-size="10.00">GetCustomersByBusinessNumber()</text>
<text text-anchor="start" x="82.5" y="-6.5" font-family="Helvetica,sans-Serif" font-size="10.00">+</text>
<text text-anchor="start" x="94.88" y="-6.5" font-family="Helvetica,sans-Serif" font-size="10.00">GetBusinessDomainByKvK()</text>
<polygon fill="#666666" stroke="#666666" points="76.12,-98 76.12,-98 260.38,-98 260.38,-98 76.12,-98"/>
<polygon fill="#666666" stroke="#666666" points="76.12,-82 76.12,-82 260.38,-82 260.38,-82 76.12,-82"/>
<polygon fill="none" stroke="#666666" points="76.12,0 76.12,-140 260.38,-140 260.38,0 76.12,0"/>
</a>
</g>
</g>
<!-- Node2 -->
<g id="Node000002" class="node">
<title>Node2</title>
<g id="a_Node000002"><a xlink:title=" ">
<polygon fill="white" stroke="none" points="72.5,-320 0,-320 0,-268 72.5,-268 72.5,-320"/>
<text text-anchor="start" x="4" y="-306.5" font-family="Helvetica,sans-Serif" font-size="10.00">ControllerBase</text>
<text text-anchor="start" x="34.75" y="-290.5" font-family="Helvetica,sans-Serif" font-size="10.00"> </text>
<text text-anchor="start" x="34.75" y="-274.5" font-family="Helvetica,sans-Serif" font-size="10.00"> </text>
<polygon fill="#666666" stroke="#666666" points="0,-302 0,-302 72.5,-302 72.5,-302 0,-302"/>
<polygon fill="#666666" stroke="#666666" points="0,-286 0,-286 72.5,-286 72.5,-286 0,-286"/>
<polygon fill="none" stroke="#666666" points="0,-268 0,-320 72.5,-320 72.5,-268 0,-268"/>
</a>
</g>
</g>
<!-- Node2&#45;&gt;Node1 -->
<g id="edge1_Node000001_Node000002" class="edge">
<title>Node2&#45;&gt;Node1</title>
<g id="a_edge1_Node000001_Node000002"><a xlink:title=" ">
<path fill="none" stroke="#63b8ff" d="M49.09,-257.41C57.19,-236.6 68.51,-210.15 81.25,-188 90.59,-171.76 101.8,-155.14 113.02,-139.71"/>
<polygon fill="none" stroke="#63b8ff" points="45.88,-256.02 45.59,-266.62 52.42,-258.52 45.88,-256.02"/>
</a>
</g>
</g>
<!-- Node3 -->
<g id="Node000003" class="node">
<title>Node3</title>
<g id="a_Node000003"><a xlink:href="interface_w_p_r_1_1_repository_1_1_i_user_repository.html" target="_top" xlink:title="Interface defining methods voor user gerelateerde database operaties, validatie, user management,...">
<polygon fill="white" stroke="none" points="246.12,-400 90.38,-400 90.38,-188 246.12,-188 246.12,-400"/>
<text text-anchor="start" x="94.38" y="-386.5" font-family="Helvetica,sans-Serif" font-size="10.00">WPR.Repository.IUserRepository</text>
<text text-anchor="start" x="166.75" y="-370.5" font-family="Helvetica,sans-Serif" font-size="10.00"> </text>
<text text-anchor="start" x="94.88" y="-354.5" font-family="Helvetica,sans-Serif" font-size="10.00">+</text>
<text text-anchor="start" x="105.38" y="-354.5" font-family="Helvetica,sans-Serif" font-size="10.00">ValidateUserAsync()</text>
<text text-anchor="start" x="94.88" y="-338.5" font-family="Helvetica,sans-Serif" font-size="10.00">+</text>
<text text-anchor="start" x="105.38" y="-338.5" font-family="Helvetica,sans-Serif" font-size="10.00">checkUsageEmailAsync()</text>
<text text-anchor="start" x="94.88" y="-322.5" font-family="Helvetica,sans-Serif" font-size="10.00">+</text>
<text text-anchor="start" x="105.38" y="-322.5" font-family="Helvetica,sans-Serif" font-size="10.00">addCustomerAsync()</text>
<text text-anchor="start" x="94.88" y="-306.5" font-family="Helvetica,sans-Serif" font-size="10.00">+</text>
<text text-anchor="start" x="105.38" y="-306.5" font-family="Helvetica,sans-Serif" font-size="10.00">addPersonalCustomerAsync()</text>
<text text-anchor="start" x="94.88" y="-290.5" font-family="Helvetica,sans-Serif" font-size="10.00">+</text>
<text text-anchor="start" x="105.38" y="-290.5" font-family="Helvetica,sans-Serif" font-size="10.00">addEmployeeCustomerAsync()</text>
<text text-anchor="start" x="94.88" y="-274.5" font-family="Helvetica,sans-Serif" font-size="10.00">+</text>
<text text-anchor="start" x="105.38" y="-274.5" font-family="Helvetica,sans-Serif" font-size="10.00">GetUserIdAsync()</text>
<text text-anchor="start" x="94.88" y="-258.5" font-family="Helvetica,sans-Serif" font-size="10.00">+</text>
<text text-anchor="start" x="105.38" y="-258.5" font-family="Helvetica,sans-Serif" font-size="10.00">GetUserNameAsync()</text>
<text text-anchor="start" x="94.88" y="-242.5" font-family="Helvetica,sans-Serif" font-size="10.00">+</text>
<text text-anchor="start" x="105.38" y="-242.5" font-family="Helvetica,sans-Serif" font-size="10.00">EditUserInfoAsync()</text>
<text text-anchor="start" x="94.88" y="-226.5" font-family="Helvetica,sans-Serif" font-size="10.00">+</text>
<text text-anchor="start" x="105.38" y="-226.5" font-family="Helvetica,sans-Serif" font-size="10.00">IsKvkNumberAsync()</text>
<text text-anchor="start" x="94.88" y="-210.5" font-family="Helvetica,sans-Serif" font-size="10.00">+</text>
<text text-anchor="start" x="105.38" y="-210.5" font-family="Helvetica,sans-Serif" font-size="10.00">IsUserEmployee()</text>
<text text-anchor="start" x="105.38" y="-194.5" font-family="Helvetica,sans-Serif" font-size="10.00">en 14 anderen...</text>
<polygon fill="#666666" stroke="#666666" points="90.38,-382 90.38,-382 246.12,-382 246.12,-382 90.38,-382"/>
<polygon fill="#666666" stroke="#666666" points="90.38,-366 90.38,-366 246.12,-366 246.12,-366 90.38,-366"/>
<polygon fill="none" stroke="#666666" points="90.38,-188 90.38,-400 246.12,-400 246.12,-188 90.38,-188"/>
</a>
</g>
</g>
<!-- Node3&#45;&gt;Node1 -->
<g id="edge2_Node000001_Node000003" class="edge">
<title>Node3&#45;&gt;Node1</title>
<g id="a_edge2_Node000001_Node000003"><a xlink:title=" ">
<path fill="none" stroke="#63b8ff" d="M168.25,-188.18C168.25,-176.27 168.25,-164.26 168.25,-152.71"/>
<polygon fill="none" stroke="#63b8ff" points="168.25,-152.8 164.25,-146.8 168.25,-140.8 172.25,-146.8 168.25,-152.8"/>
</a>
</g>
<text text-anchor="middle" x="206.88" y="-160.5" font-family="Helvetica,sans-Serif" font-size="10.00" fill="grey"> &#45;_userRepository</text>
</g>
<!-- Node4 -->
<g id="Node000004" class="node">
<title>Node4</title>
<g id="a_Node000004"><a xlink:href="class_w_p_r_1_1_cryption_1_1_crypt.html" target="_top" xlink:title="Class Crypt zorgt voor een veilig encryptie en decryptie van strings. De Crptie wordt gedaan door het...">
<polygon fill="white" stroke="none" points="362.62,-344 263.88,-344 263.88,-244 362.62,-244 362.62,-344"/>
<text text-anchor="start" x="267.88" y="-330.5" font-family="Helvetica,sans-Serif" font-size="10.00">WPR.Cryption.Crypt</text>
<text text-anchor="start" x="279.44" y="-314.5" font-family="Helvetica,sans-Serif" font-size="10.00">&#45;</text>
<text text-anchor="start" x="298" y="-314.5" font-family="Helvetica,sans-Serif" font-size="10.00">_key</text>
<text text-anchor="start" x="279.44" y="-298.5" font-family="Helvetica,sans-Serif" font-size="10.00">&#45;</text>
<text text-anchor="start" x="298" y="-298.5" font-family="Helvetica,sans-Serif" font-size="10.00">_IV</text>
<text text-anchor="start" x="277.94" y="-282.5" font-family="Helvetica,sans-Serif" font-size="10.00">+</text>
<text text-anchor="start" x="298" y="-282.5" font-family="Helvetica,sans-Serif" font-size="10.00">Crypt()</text>
<text text-anchor="start" x="277.94" y="-266.5" font-family="Helvetica,sans-Serif" font-size="10.00">+</text>
<text text-anchor="start" x="298" y="-266.5" font-family="Helvetica,sans-Serif" font-size="10.00">Encrypt()</text>
<text text-anchor="start" x="277.94" y="-250.5" font-family="Helvetica,sans-Serif" font-size="10.00">+</text>
<text text-anchor="start" x="298" y="-250.5" font-family="Helvetica,sans-Serif" font-size="10.00">Decrypt()</text>
<polygon fill="#666666" stroke="#666666" points="263.88,-326 263.88,-326 362.62,-326 362.62,-326 263.88,-326"/>
<polygon fill="#666666" stroke="#666666" points="263.88,-294 263.88,-294 296,-294 296,-294 263.88,-294"/>
<polygon fill="#666666" stroke="#666666" points="296,-294 296,-294 362.62,-294 362.62,-294 296,-294"/>
<polygon fill="none" stroke="#666666" points="263.88,-244 263.88,-344 362.62,-344 362.62,-244 263.88,-244"/>
</a>
</g>
</g>
<!-- Node4&#45;&gt;Node1 -->
<g id="edge3_Node000001_Node000004" class="edge">
<title>Node4&#45;&gt;Node1</title>
<g id="a_edge3_Node000001_Node000004"><a xlink:title=" ">
<path fill="none" stroke="#63b8ff" d="M294.43,-244.2C283.14,-217.64 267.46,-184.83 249.25,-158 247.45,-155.35 245.57,-152.7 243.63,-150.06"/>
<polygon fill="none" stroke="#63b8ff" points="243.72,-150.18 236.89,-147.86 236.4,-140.67 243.23,-142.98 243.72,-150.18"/>
</a>
</g>
<text text-anchor="middle" x="272.34" y="-160.5" font-family="Helvetica,sans-Serif" font-size="10.00" fill="grey"> &#45;_crypt</text>
</g>
<!-- Node5 -->
<g id="Node000005" class="node">
<title>Node5</title>
<g id="a_Node000005"><a xlink:href="class_w_p_r_1_1_data_1_1_env_config.html" target="_top" xlink:title="Leez het .env bestand uit waarin de connectie strings staan naar de database. Deze staan in een apart...">
<polygon fill="white" stroke="none" points="366.12,-596 260.38,-596 260.38,-448 366.12,-448 366.12,-596"/>
<text text-anchor="start" x="264.88" y="-582.5" font-family="Helvetica,sans-Serif" font-size="10.00">WPR.Data.EnvConfig</text>
<text text-anchor="start" x="265.88" y="-566.5" font-family="Helvetica,sans-Serif" font-size="10.00">&#45;</text>
<text text-anchor="start" x="274.38" y="-566.5" font-family="Helvetica,sans-Serif" font-size="10.00">_configuration</text>
<text text-anchor="start" x="264.38" y="-550.5" font-family="Helvetica,sans-Serif" font-size="10.00">+</text>
<text text-anchor="start" x="274.38" y="-550.5" font-family="Helvetica,sans-Serif" font-size="10.00">EnvConfig()</text>
<text text-anchor="start" x="264.38" y="-534.5" font-family="Helvetica,sans-Serif" font-size="10.00">+</text>
<text text-anchor="start" x="274.38" y="-534.5" font-family="Helvetica,sans-Serif" font-size="10.00">Get()</text>
<text text-anchor="start" x="264.38" y="-518.5" font-family="Helvetica,sans-Serif" font-size="10.00">+</text>
<text text-anchor="start" x="274.38" y="-518.5" font-family="Helvetica,sans-Serif" font-size="10.00">IsConfigured()</text>
<text text-anchor="start" x="264.38" y="-502.5" font-family="Helvetica,sans-Serif" font-size="10.00">+</text>
<text text-anchor="start" x="274.38" y="-502.5" font-family="Helvetica,sans-Serif" font-size="10.00">GetSmtpHost()</text>
<text text-anchor="start" x="264.38" y="-486.5" font-family="Helvetica,sans-Serif" font-size="10.00">+</text>
<text text-anchor="start" x="274.38" y="-486.5" font-family="Helvetica,sans-Serif" font-size="10.00">GetSmtpPort()</text>
<text text-anchor="start" x="264.38" y="-470.5" font-family="Helvetica,sans-Serif" font-size="10.00">+</text>
<text text-anchor="start" x="274.38" y="-470.5" font-family="Helvetica,sans-Serif" font-size="10.00">GetFromEmail()</text>
<text text-anchor="start" x="264.38" y="-454.5" font-family="Helvetica,sans-Serif" font-size="10.00">+</text>
<text text-anchor="start" x="274.38" y="-454.5" font-family="Helvetica,sans-Serif" font-size="10.00">GetFromPassword()</text>
<polygon fill="#666666" stroke="#666666" points="260.38,-578 260.38,-578 366.12,-578 366.12,-578 260.38,-578"/>
<polygon fill="#666666" stroke="#666666" points="260.38,-562 260.38,-562 272.38,-562 272.38,-562 260.38,-562"/>
<polygon fill="#666666" stroke="#666666" points="272.38,-562 272.38,-562 366.12,-562 366.12,-562 272.38,-562"/>
<polygon fill="none" stroke="#666666" points="260.38,-448 260.38,-596 366.12,-596 366.12,-448 260.38,-448"/>
</a>
</g>
</g>
<!-- Node5&#45;&gt;Node4 -->
<g id="edge4_Node000004_Node000005" class="edge">
<title>Node5&#45;&gt;Node4</title>
<g id="a_edge4_Node000004_Node000005"><a xlink:title=" ">
<path fill="none" stroke="#63b8ff" d="M313.25,-448.25C313.25,-418.73 313.25,-384.99 313.25,-356.7"/>
<polygon fill="none" stroke="#63b8ff" points="313.25,-356.61 309.25,-350.61 313.25,-344.61 317.25,-350.61 313.25,-356.61"/>
</a>
</g>
<text text-anchor="middle" x="341" y="-420.5" font-family="Helvetica,sans-Serif" font-size="10.00" fill="grey"> &#45;_envConfig</text>
</g>
</g>
</svg>
