<?xml version="1.0" encoding="UTF-8" standalone="no"?>
<!DOCTYPE svg PUBLIC "-//W3C//DTD SVG 1.1//EN"
 "http://www.w3.org/Graphics/SVG/1.1/DTD/svg11.dtd">
<!-- Generated by graphviz version 12.2.1 (20241206.2353)
 -->
<!-- Title: WPR.Controllers.Employee.Shared.viewRentalData.viewRentalDataController Pages: 1 -->
<svg width="171pt" height="220pt"
 viewBox="0.00 0.00 171.25 220.00" xmlns="http://www.w3.org/2000/svg" xmlns:xlink="http://www.w3.org/1999/xlink">
<g id="graph0" class="graph" transform="scale(1 1) rotate(0) translate(4 216)">
<title>WPR.Controllers.Employee.Shared.viewRentalData.viewRentalDataController</title>
<!-- Node1 -->
<g id="Node000001" class="node">
<title>Node1</title>
<g id="a_Node000001"><a xlink:title=" ">
<polygon fill="#999999" stroke="none" points="163.25,-124 0,-124 0,0 163.25,0 163.25,-124"/>
<text text-anchor="start" x="4" y="-110.5" font-family="Helvetica,sans-Serif" font-size="10.00">WPR.Controllers.Employee.</text>
<text text-anchor="start" x="4" y="-98.5" font-family="Helvetica,sans-Serif" font-size="10.00">Shared.viewRentalData.viewRental</text>
<text text-anchor="start" x="50.12" y="-86.5" font-family="Helvetica,sans-Serif" font-size="10.00">DataController</text>
<text text-anchor="start" x="12.38" y="-70.5" font-family="Helvetica,sans-Serif" font-size="10.00">&#45;</text>
<text text-anchor="start" x="27.75" y="-70.5" font-family="Helvetica,sans-Serif" font-size="10.00">_backOfficeRepository</text>
<text text-anchor="start" x="10.88" y="-54.5" font-family="Helvetica,sans-Serif" font-size="10.00">+</text>
<text text-anchor="start" x="27.75" y="-54.5" font-family="Helvetica,sans-Serif" font-size="10.00">viewRentalDataController()</text>
<text text-anchor="start" x="10.88" y="-38.5" font-family="Helvetica,sans-Serif" font-size="10.00">+</text>
<text text-anchor="start" x="27.75" y="-38.5" font-family="Helvetica,sans-Serif" font-size="10.00">GetReview()</text>
<text text-anchor="start" x="10.88" y="-22.5" font-family="Helvetica,sans-Serif" font-size="10.00">+</text>
<text text-anchor="start" x="27.75" y="-22.5" font-family="Helvetica,sans-Serif" font-size="10.00">GetDataReviewIds()</text>
<text text-anchor="start" x="10.88" y="-6.5" font-family="Helvetica,sans-Serif" font-size="10.00">+</text>
<text text-anchor="start" x="27.75" y="-6.5" font-family="Helvetica,sans-Serif" font-size="10.00">GetFullReview()</text>
<polygon fill="#666666" stroke="#666666" points="0,-82 0,-82 163.25,-82 163.25,-82 0,-82"/>
<polygon fill="#666666" stroke="#666666" points="0,-66 0,-66 25.75,-66 25.75,-66 0,-66"/>
<polygon fill="#666666" stroke="#666666" points="25.75,-66 25.75,-66 163.25,-66 163.25,-66 25.75,-66"/>
<polygon fill="none" stroke="#666666" points="0,0 0,-124 163.25,-124 163.25,0 0,0"/>
</a>
</g>
</g>
<!-- Node2 -->
<g id="Node000002" class="node">
<title>Node2</title>
<g id="a_Node000002"><a xlink:title=" ">
<polygon fill="white" stroke="none" points="117.88,-212 45.38,-212 45.38,-160 117.88,-160 117.88,-212"/>
<text text-anchor="start" x="49.38" y="-198.5" font-family="Helvetica,sans-Serif" font-size="10.00">ControllerBase</text>
<text text-anchor="start" x="80.12" y="-182.5" font-family="Helvetica,sans-Serif" font-size="10.00"> </text>
<text text-anchor="start" x="80.12" y="-166.5" font-family="Helvetica,sans-Serif" font-size="10.00"> </text>
<polygon fill="#666666" stroke="#666666" points="45.38,-194 45.38,-194 117.88,-194 117.88,-194 45.38,-194"/>
<polygon fill="#666666" stroke="#666666" points="45.38,-178 45.38,-178 117.88,-178 117.88,-178 45.38,-178"/>
<polygon fill="none" stroke="#666666" points="45.38,-160 45.38,-212 117.88,-212 117.88,-160 45.38,-160"/>
</a>
</g>
</g>
<!-- Node2&#45;&gt;Node1 -->
<g id="edge1_Node000001_Node000002" class="edge">
<title>Node2&#45;&gt;Node1</title>
<g id="a_edge1_Node000001_Node000002"><a xlink:title=" ">
<path fill="none" stroke="#63b8ff" d="M81.62,-148.74C81.62,-140.92 81.62,-132.45 81.62,-123.98"/>
<polygon fill="none" stroke="#63b8ff" points="78.13,-148.5 81.63,-158.5 85.13,-148.5 78.13,-148.5"/>
</a>
</g>
</g>
</g>
</svg>
