<?xml version="1.0" encoding="UTF-8" standalone="no"?>
<!DOCTYPE svg PUBLIC "-//W3C//DTD SVG 1.1//EN"
 "http://www.w3.org/Graphics/SVG/1.1/DTD/svg11.dtd">
<!-- Generated by graphviz version 12.2.1 (20241206.2353)
 -->
<!-- Title: WPR.Controllers.General.Cookie.SessionHandler Pages: 1 -->
<svg width="130pt" height="208pt"
 viewBox="0.00 0.00 130.00 208.00" xmlns="http://www.w3.org/2000/svg" xmlns:xlink="http://www.w3.org/1999/xlink">

<svg id="main" version="1.1" xmlns="http://www.w3.org/2000/svg" xmlns:xlink="http://www.w3.org/1999/xlink" xml:space="preserve">

<style type="text/css"><![CDATA[
.node, .edge {opacity: 0.7;}
.node.selected, .edge.selected {opacity: 1;}
.edge:hover path { stroke: red; }
.edge:hover polygon { stroke: red; fill: red; }
]]></style>
<script type="application/ecmascript" xlink:href="svg.min.js"/>
<svg id="graph" class="graph">
<g id="graph0" class="graph" transform="scale(1 1) rotate(0) translate(4 204)">
<title>WPR.Controllers.General.Cookie.SessionHandler</title>
<!-- Node1 -->
<g id="Node000001" class="node">
<title>Node1</title>
<g id="a_Node000001"><a xlink:title="SessionHandler zorgt ervoor dat er cookies aangemaakt kunnen worden op een simpele manier.">
<polygon fill="#999999" stroke="none" points="122,-112 0,-112 0,0 122,0 122,-112"/>
<text text-anchor="start" x="4" y="-98.5" font-family="Helvetica,sans-Serif" font-size="10.00">WPR.Controllers.General.</text>
<text text-anchor="start" x="9.62" y="-86.5" font-family="Helvetica,sans-Serif" font-size="10.00">Cookie.SessionHandler</text>
<text text-anchor="start" x="7.88" y="-70.5" font-family="Helvetica,sans-Serif" font-size="10.00">&#45;</text>
<text text-anchor="start" x="18.75" y="-70.5" font-family="Helvetica,sans-Serif" font-size="10.00">disposedValue</text>
<text text-anchor="start" x="6.38" y="-54.5" font-family="Helvetica,sans-Serif" font-size="10.00">+</text>
<text text-anchor="start" x="18.75" y="-54.5" font-family="Helvetica,sans-Serif" font-size="10.00">CreateCookie()</text>
<text text-anchor="start" x="6.38" y="-38.5" font-family="Helvetica,sans-Serif" font-size="10.00">+</text>
<text text-anchor="start" x="18.75" y="-38.5" font-family="Helvetica,sans-Serif" font-size="10.00">CreateInvalidCookie()</text>
<text text-anchor="start" x="6.38" y="-22.5" font-family="Helvetica,sans-Serif" font-size="10.00">+</text>
<text text-anchor="start" x="18.75" y="-22.5" font-family="Helvetica,sans-Serif" font-size="10.00">Dispose()</text>
<text text-anchor="start" x="6.75" y="-6.5" font-family="Helvetica,sans-Serif" font-size="10.00">#</text>
<text text-anchor="start" x="18.75" y="-6.5" font-family="Helvetica,sans-Serif" font-size="10.00">Dispose()</text>
<polygon fill="#666666" stroke="#666666" points="0,-82 0,-82 122,-82 122,-82 0,-82"/>
<polygon fill="#666666" stroke="#666666" points="0,-66 0,-66 16.75,-66 16.75,-66 0,-66"/>
<polygon fill="#666666" stroke="#666666" points="16.75,-66 16.75,-66 122,-66 122,-66 16.75,-66"/>
<polygon fill="none" stroke="#666666" points="0,0 0,-112 122,-112 122,0 0,0"/>
</a>
</g>
</g>
<!-- Node2 -->
<g id="Node000002" class="node">
<title>Node2</title>
<g id="a_Node000002"><a xlink:title=" ">
<polygon fill="white" stroke="none" points="90.88,-200 31.13,-200 31.13,-148 90.88,-148 90.88,-200"/>
<text text-anchor="start" x="35.12" y="-186.5" font-family="Helvetica,sans-Serif" font-size="10.00">IDisposable</text>
<text text-anchor="start" x="59.5" y="-170.5" font-family="Helvetica,sans-Serif" font-size="10.00"> </text>
<text text-anchor="start" x="59.5" y="-154.5" font-family="Helvetica,sans-Serif" font-size="10.00"> </text>
<polygon fill="#666666" stroke="#666666" points="31.12,-182 31.12,-182 90.88,-182 90.88,-182 31.12,-182"/>
<polygon fill="#666666" stroke="#666666" points="31.12,-166 31.12,-166 90.88,-166 90.88,-166 31.12,-166"/>
<polygon fill="none" stroke="#666666" points="31.12,-148 31.12,-200 90.88,-200 90.88,-148 31.12,-148"/>
</a>
</g>
</g>
<!-- Node2&#45;&gt;Node1 -->
<g id="edge1_Node000001_Node000002" class="edge">
<title>Node2&#45;&gt;Node1</title>
<g id="a_edge1_Node000001_Node000002"><a xlink:title=" ">
<path fill="none" stroke="#63b8ff" d="M61,-136.71C61,-128.82 61,-120.31 61,-111.88"/>
<polygon fill="none" stroke="#63b8ff" points="57.5,-136.6 61,-146.6 64.5,-136.6 57.5,-136.6"/>
</a>
</g>
</g>
</g>
</svg>
</svg>

<style type='text/css'>
<![CDATA[
[data-mouse-over-selected='false'] { opacity: 0.7; }
[data-mouse-over-selected='true']  { opacity: 1.0; }
]]>
</style>
<script type="application/ecmascript"><![CDATA[
document.addEventListener('DOMContentLoaded', (event) => {
  highlightEdges();
  highlightAdjacentNodes();
});
]]></script>
</svg>
