<?xml version="1.0" encoding="UTF-8" standalone="no"?>
<!DOCTYPE svg PUBLIC "-//W3C//DTD SVG 1.1//EN"
 "http://www.w3.org/Graphics/SVG/1.1/DTD/svg11.dtd">
<!-- Generated by graphviz version 12.2.1 (20241206.2353)
 -->
<!-- Title: WPR.Email.Customer Pages: 1 -->
<svg width="273pt" height="457pt"
 viewBox="0.00 0.00 273.00 457.00" xmlns="http://www.w3.org/2000/svg" xmlns:xlink="http://www.w3.org/1999/xlink">
<g id="graph0" class="graph" transform="scale(1 1) rotate(0) translate(4 453)">
<title>WPR.Email.Customer</title>
<!-- Node1 -->
<g id="Node000001" class="node">
<title>Node1</title>
<g id="a_Node000001"><a xlink:title="In de Customer klasse worden alle gegevens van een specifieke klant verzameld voor het aanmaken van e...">
<polygon fill="#999999" stroke="none" points="204.88,-84 99.38,-84 99.38,0 204.88,0 204.88,-84"/>
<text text-anchor="start" x="103.38" y="-70.5" font-family="Helvetica,sans-Serif" font-size="10.00">WPR.Email.Customer</text>
<text text-anchor="start" x="105.19" y="-54.5" font-family="Helvetica,sans-Serif" font-size="10.00">+</text>
<text text-anchor="start" x="117" y="-54.5" font-family="Helvetica,sans-Serif" font-size="10.00">_details</text>
<text text-anchor="start" x="105.19" y="-38.5" font-family="Helvetica,sans-Serif" font-size="10.00">+</text>
<text text-anchor="start" x="117" y="-38.5" font-family="Helvetica,sans-Serif" font-size="10.00">Customer()</text>
<text text-anchor="start" x="105.19" y="-22.5" font-family="Helvetica,sans-Serif" font-size="10.00">+</text>
<text text-anchor="start" x="117" y="-22.5" font-family="Helvetica,sans-Serif" font-size="10.00">SetDetailsAsync()</text>
<text text-anchor="start" x="105.19" y="-6.5" font-family="Helvetica,sans-Serif" font-size="10.00">+</text>
<text text-anchor="start" x="117" y="-6.5" font-family="Helvetica,sans-Serif" font-size="10.00">GetDetailsAsync()</text>
<polygon fill="#666666" stroke="#666666" points="99.38,-66 99.38,-66 204.88,-66 204.88,-66 99.38,-66"/>
<polygon fill="#666666" stroke="#666666" points="99.38,-50 99.38,-50 115,-50 115,-50 99.38,-50"/>
<polygon fill="#666666" stroke="#666666" points="115,-50 115,-50 204.88,-50 204.88,-50 115,-50"/>
<polygon fill="none" stroke="#666666" points="99.38,0 99.38,-84 204.88,-84 204.88,0 99.38,0"/>
</a>
</g>
</g>
<!-- Node2 -->
<g id="Node000002" class="node">
<title>Node2</title>
<g id="a_Node000002"><a xlink:href="interface_w_p_r_1_1_email_1_1_i_customer_details.html" target="_top" xlink:title=" ">
<polygon fill="white" stroke="none" points="91.38,-264 6.88,-264 6.88,-212 91.38,-212 91.38,-264"/>
<text text-anchor="start" x="10.88" y="-250.5" font-family="Helvetica,sans-Serif" font-size="10.00">ICustomerDetails</text>
<text text-anchor="start" x="47.62" y="-234.5" font-family="Helvetica,sans-Serif" font-size="10.00"> </text>
<text text-anchor="start" x="47.62" y="-218.5" font-family="Helvetica,sans-Serif" font-size="10.00"> </text>
<polygon fill="#666666" stroke="#666666" points="6.88,-246 6.88,-246 91.38,-246 91.38,-246 6.88,-246"/>
<polygon fill="#666666" stroke="#666666" points="6.88,-230 6.88,-230 91.38,-230 91.38,-230 6.88,-230"/>
<polygon fill="none" stroke="#666666" points="6.88,-212 6.88,-264 91.38,-264 91.38,-212 6.88,-212"/>
</a>
</g>
</g>
<!-- Node2&#45;&gt;Node1 -->
<g id="edge1_Node000001_Node000002" class="edge">
<title>Node2&#45;&gt;Node1</title>
<g id="a_edge1_Node000001_Node000002"><a xlink:title=" ">
<path fill="none" stroke="#63b8ff" d="M65.33,-201.94C75.04,-181.37 87.85,-154.99 100.12,-132 108.64,-116.06 118.53,-98.84 127.38,-83.84"/>
<polygon fill="none" stroke="#63b8ff" points="62.27,-200.21 61.19,-210.75 68.61,-203.19 62.27,-200.21"/>
</a>
</g>
</g>
<!-- Node3 -->
<g id="Node000003" class="node">
<title>Node3</title>
<g id="a_Node000003"><a xlink:href="interface_w_p_r_1_1_email_1_1_i_details.html" target="_top" xlink:title=" ">
<polygon fill="white" stroke="none" points="98.25,-449 0,-449 0,-381 98.25,-381 98.25,-449"/>
<text text-anchor="start" x="32.25" y="-435.5" font-family="Helvetica,sans-Serif" font-size="10.00">IDetails</text>
<text text-anchor="start" x="47.62" y="-419.5" font-family="Helvetica,sans-Serif" font-size="10.00"> </text>
<text text-anchor="start" x="4" y="-403.5" font-family="Helvetica,sans-Serif" font-size="10.00">+</text>
<text text-anchor="start" x="14" y="-403.5" font-family="Helvetica,sans-Serif" font-size="10.00">SetDetailsAsync()</text>
<text text-anchor="start" x="4" y="-387.5" font-family="Helvetica,sans-Serif" font-size="10.00">+</text>
<text text-anchor="start" x="14" y="-387.5" font-family="Helvetica,sans-Serif" font-size="10.00">GetDetailsAsync()</text>
<polygon fill="#666666" stroke="#666666" points="0,-431 0,-431 98.25,-431 98.25,-431 0,-431"/>
<polygon fill="#666666" stroke="#666666" points="0,-415 0,-415 98.25,-415 98.25,-415 0,-415"/>
<polygon fill="none" stroke="#666666" points="0,-381 0,-449 98.25,-449 98.25,-381 0,-381"/>
</a>
</g>
</g>
<!-- Node3&#45;&gt;Node2 -->
<g id="edge2_Node000002_Node000003" class="edge">
<title>Node3&#45;&gt;Node2</title>
<g id="a_edge2_Node000002_Node000003"><a xlink:title=" ">
<path fill="none" stroke="#63b8ff" d="M49.12,-369.74C49.12,-336.21 49.12,-291.35 49.12,-263.85"/>
<polygon fill="none" stroke="#63b8ff" points="45.63,-369.57 49.13,-379.57 52.63,-369.57 45.63,-369.57"/>
</a>
</g>
</g>
<!-- Node4 -->
<g id="Node000004" class="node">
<title>Node4</title>
<g id="a_Node000004"><a xlink:href="interface_w_p_r_1_1_repository_1_1_i_user_repository.html" target="_top" xlink:title="Interface defining methods voor user gerelateerde database operaties, validatie, user management,...">
<polygon fill="white" stroke="none" points="265,-344 109.25,-344 109.25,-132 265,-132 265,-344"/>
<text text-anchor="start" x="113.25" y="-330.5" font-family="Helvetica,sans-Serif" font-size="10.00">WPR.Repository.IUserRepository</text>
<text text-anchor="start" x="185.62" y="-314.5" font-family="Helvetica,sans-Serif" font-size="10.00"> </text>
<text text-anchor="start" x="113.75" y="-298.5" font-family="Helvetica,sans-Serif" font-size="10.00">+</text>
<text text-anchor="start" x="124.25" y="-298.5" font-family="Helvetica,sans-Serif" font-size="10.00">ValidateUserAsync()</text>
<text text-anchor="start" x="113.75" y="-282.5" font-family="Helvetica,sans-Serif" font-size="10.00">+</text>
<text text-anchor="start" x="124.25" y="-282.5" font-family="Helvetica,sans-Serif" font-size="10.00">checkUsageEmailAsync()</text>
<text text-anchor="start" x="113.75" y="-266.5" font-family="Helvetica,sans-Serif" font-size="10.00">+</text>
<text text-anchor="start" x="124.25" y="-266.5" font-family="Helvetica,sans-Serif" font-size="10.00">addCustomerAsync()</text>
<text text-anchor="start" x="113.75" y="-250.5" font-family="Helvetica,sans-Serif" font-size="10.00">+</text>
<text text-anchor="start" x="124.25" y="-250.5" font-family="Helvetica,sans-Serif" font-size="10.00">addPersonalCustomerAsync()</text>
<text text-anchor="start" x="113.75" y="-234.5" font-family="Helvetica,sans-Serif" font-size="10.00">+</text>
<text text-anchor="start" x="124.25" y="-234.5" font-family="Helvetica,sans-Serif" font-size="10.00">addEmployeeCustomerAsync()</text>
<text text-anchor="start" x="113.75" y="-218.5" font-family="Helvetica,sans-Serif" font-size="10.00">+</text>
<text text-anchor="start" x="124.25" y="-218.5" font-family="Helvetica,sans-Serif" font-size="10.00">GetUserIdAsync()</text>
<text text-anchor="start" x="113.75" y="-202.5" font-family="Helvetica,sans-Serif" font-size="10.00">+</text>
<text text-anchor="start" x="124.25" y="-202.5" font-family="Helvetica,sans-Serif" font-size="10.00">GetUserNameAsync()</text>
<text text-anchor="start" x="113.75" y="-186.5" font-family="Helvetica,sans-Serif" font-size="10.00">+</text>
<text text-anchor="start" x="124.25" y="-186.5" font-family="Helvetica,sans-Serif" font-size="10.00">EditUserInfoAsync()</text>
<text text-anchor="start" x="113.75" y="-170.5" font-family="Helvetica,sans-Serif" font-size="10.00">+</text>
<text text-anchor="start" x="124.25" y="-170.5" font-family="Helvetica,sans-Serif" font-size="10.00">IsKvkNumberAsync()</text>
<text text-anchor="start" x="113.75" y="-154.5" font-family="Helvetica,sans-Serif" font-size="10.00">+</text>
<text text-anchor="start" x="124.25" y="-154.5" font-family="Helvetica,sans-Serif" font-size="10.00">IsUserEmployee()</text>
<text text-anchor="start" x="124.25" y="-138.5" font-family="Helvetica,sans-Serif" font-size="10.00">en 14 anderen...</text>
<polygon fill="#666666" stroke="#666666" points="109.25,-326 109.25,-326 265,-326 265,-326 109.25,-326"/>
<polygon fill="#666666" stroke="#666666" points="109.25,-310 109.25,-310 265,-310 265,-310 109.25,-310"/>
<polygon fill="none" stroke="#666666" points="109.25,-132 109.25,-344 265,-344 265,-132 109.25,-132"/>
</a>
</g>
</g>
<!-- Node4&#45;&gt;Node1 -->
<g id="edge3_Node000001_Node000004" class="edge">
<title>Node4&#45;&gt;Node1</title>
<g id="a_edge3_Node000001_Node000004"><a xlink:title=" ">
<path fill="none" stroke="#63b8ff" d="M168.19,-132.05C165.97,-119.73 163.78,-107.58 161.76,-96.41"/>
<polygon fill="none" stroke="#63b8ff" points="161.77,-96.48 156.77,-91.29 159.64,-84.67 164.65,-89.87 161.77,-96.48"/>
</a>
</g>
<text text-anchor="middle" x="203.07" y="-104.5" font-family="Helvetica,sans-Serif" font-size="10.00" fill="grey"> &#45;_userRepository</text>
</g>
</g>
</svg>
