<?xml version="1.0" encoding="UTF-8" standalone="no"?>
<!DOCTYPE svg PUBLIC "-//W3C//DTD SVG 1.1//EN"
 "http://www.w3.org/Graphics/SVG/1.1/DTD/svg11.dtd">
<!-- Generated by graphviz version 12.2.1 (20241206.2353)
 -->
<!-- Title: WPR.Repository.DatabaseCheckRepository.DatabaseCheckRepository Pages: 1 -->
<svg width="282pt" height="364pt"
 viewBox="0.00 0.00 282.38 364.00" xmlns="http://www.w3.org/2000/svg" xmlns:xlink="http://www.w3.org/1999/xlink">

<svg id="main" version="1.1" xmlns="http://www.w3.org/2000/svg" xmlns:xlink="http://www.w3.org/1999/xlink" xml:space="preserve">

<style type="text/css"><![CDATA[
.node, .edge {opacity: 0.7;}
.node.selected, .edge.selected {opacity: 1;}
.edge:hover path { stroke: red; }
.edge:hover polygon { stroke: red; fill: red; }
]]></style>
<script type="application/ecmascript" xlink:href="svg.min.js"/>
<svg id="graph" class="graph">
<g id="graph0" class="graph" transform="scale(1 1) rotate(0) translate(4 360)">
<title>WPR.Repository.DatabaseCheckRepository.DatabaseCheckRepository</title>
<!-- Node1 -->
<g id="Node000001" class="node">
<title>Node1</title>
<g id="a_Node000001"><a xlink:title=" ">
<polygon fill="#999999" stroke="none" points="225,-224 49.75,-224 49.75,0 225,0 225,-224"/>
<text text-anchor="start" x="53.75" y="-210.5" font-family="Helvetica,sans-Serif" font-size="10.00">WPR.Repository.DatabaseCheck</text>
<text text-anchor="start" x="53.75" y="-198.5" font-family="Helvetica,sans-Serif" font-size="10.00">Repository.DatabaseCheckRepository</text>
<text text-anchor="start" x="63.62" y="-182.5" font-family="Helvetica,sans-Serif" font-size="10.00">&#45;</text>
<text text-anchor="start" x="80.5" y="-182.5" font-family="Helvetica,sans-Serif" font-size="10.00">StatusCode</text>
<text text-anchor="start" x="63.62" y="-166.5" font-family="Helvetica,sans-Serif" font-size="10.00">&#45;</text>
<text text-anchor="start" x="80.5" y="-166.5" font-family="Helvetica,sans-Serif" font-size="10.00">Message</text>
<text text-anchor="start" x="62.12" y="-150.5" font-family="Helvetica,sans-Serif" font-size="10.00">+</text>
<text text-anchor="start" x="80.5" y="-150.5" font-family="Helvetica,sans-Serif" font-size="10.00">DatabaseCheckRepository()</text>
<text text-anchor="start" x="62.12" y="-134.5" font-family="Helvetica,sans-Serif" font-size="10.00">+</text>
<text text-anchor="start" x="80.5" y="-134.5" font-family="Helvetica,sans-Serif" font-size="10.00">DeleteUser()</text>
<text text-anchor="start" x="62.12" y="-118.5" font-family="Helvetica,sans-Serif" font-size="10.00">+</text>
<text text-anchor="start" x="80.5" y="-118.5" font-family="Helvetica,sans-Serif" font-size="10.00">DeleteBusiness()</text>
<text text-anchor="start" x="62.12" y="-102.5" font-family="Helvetica,sans-Serif" font-size="10.00">+</text>
<text text-anchor="start" x="80.5" y="-102.5" font-family="Helvetica,sans-Serif" font-size="10.00">DeleteVehicleManager()</text>
<text text-anchor="start" x="63.62" y="-86.5" font-family="Helvetica,sans-Serif" font-size="10.00">&#45;</text>
<text text-anchor="start" x="80.5" y="-86.5" font-family="Helvetica,sans-Serif" font-size="10.00">HandleDelete()</text>
<text text-anchor="start" x="63.62" y="-70.5" font-family="Helvetica,sans-Serif" font-size="10.00">&#45;</text>
<text text-anchor="start" x="80.5" y="-70.5" font-family="Helvetica,sans-Serif" font-size="10.00">DeleteFutereContracts()</text>
<text text-anchor="start" x="63.62" y="-54.5" font-family="Helvetica,sans-Serif" font-size="10.00">&#45;</text>
<text text-anchor="start" x="80.5" y="-54.5" font-family="Helvetica,sans-Serif" font-size="10.00">UserHasActiveContract()</text>
<text text-anchor="start" x="63.62" y="-38.5" font-family="Helvetica,sans-Serif" font-size="10.00">&#45;</text>
<text text-anchor="start" x="80.5" y="-38.5" font-family="Helvetica,sans-Serif" font-size="10.00">DeleteEmployees()</text>
<text text-anchor="start" x="63.62" y="-22.5" font-family="Helvetica,sans-Serif" font-size="10.00">&#45;</text>
<text text-anchor="start" x="80.5" y="-22.5" font-family="Helvetica,sans-Serif" font-size="10.00">DeleteBusinessAllowed()</text>
<text text-anchor="start" x="63.62" y="-6.5" font-family="Helvetica,sans-Serif" font-size="10.00">&#45;</text>
<text text-anchor="start" x="80.5" y="-6.5" font-family="Helvetica,sans-Serif" font-size="10.00">MinimumVehicleManagers()</text>
<polygon fill="#666666" stroke="#666666" points="49.75,-194 49.75,-194 225,-194 225,-194 49.75,-194"/>
<polygon fill="#666666" stroke="#666666" points="49.75,-162 49.75,-162 78.5,-162 78.5,-162 49.75,-162"/>
<polygon fill="#666666" stroke="#666666" points="78.5,-162 78.5,-162 225,-162 225,-162 78.5,-162"/>
<polygon fill="none" stroke="#666666" points="49.75,0 49.75,-224 225,-224 225,0 49.75,0"/>
</a>
</g>
</g>
<!-- Node2 -->
<g id="Node000002" class="node">
<title>Node2</title>
<g id="a_Node000002"><a xlink:href="interface_w_p_r_1_1_repository_1_1_database_check_repository_1_1_i_database_check_repository.html" target="_top" xlink:title=" ">
<polygon fill="white" stroke="none" points="128.75,-356 0,-356 0,-272 128.75,-272 128.75,-356"/>
<text text-anchor="start" x="4" y="-342.5" font-family="Helvetica,sans-Serif" font-size="10.00">IDatabaseCheckRepository</text>
<text text-anchor="start" x="5.81" y="-326.5" font-family="Helvetica,sans-Serif" font-size="10.00">+</text>
<text text-anchor="start" x="17.62" y="-326.5" font-family="Helvetica,sans-Serif" font-size="10.00">StatusCode</text>
<text text-anchor="start" x="5.81" y="-310.5" font-family="Helvetica,sans-Serif" font-size="10.00">+</text>
<text text-anchor="start" x="17.62" y="-310.5" font-family="Helvetica,sans-Serif" font-size="10.00">DeleteUser()</text>
<text text-anchor="start" x="5.81" y="-294.5" font-family="Helvetica,sans-Serif" font-size="10.00">+</text>
<text text-anchor="start" x="17.62" y="-294.5" font-family="Helvetica,sans-Serif" font-size="10.00">DeleteBusiness()</text>
<text text-anchor="start" x="5.81" y="-278.5" font-family="Helvetica,sans-Serif" font-size="10.00">+</text>
<text text-anchor="start" x="17.62" y="-278.5" font-family="Helvetica,sans-Serif" font-size="10.00">DeleteVehicleManager()</text>
<polygon fill="#666666" stroke="#666666" points="0,-338 0,-338 128.75,-338 128.75,-338 0,-338"/>
<polygon fill="#666666" stroke="#666666" points="0,-322 0,-322 15.62,-322 15.62,-322 0,-322"/>
<polygon fill="#666666" stroke="#666666" points="15.62,-322 15.62,-322 128.75,-322 128.75,-322 15.62,-322"/>
<polygon fill="none" stroke="#666666" points="0,-272 0,-356 128.75,-356 128.75,-272 0,-272"/>
</a>
</g>
</g>
<!-- Node2&#45;&gt;Node1 -->
<g id="edge1_Node000001_Node000002" class="edge">
<title>Node2&#45;&gt;Node1</title>
<g id="a_edge1_Node000001_Node000002"><a xlink:title=" ">
<path fill="none" stroke="#63b8ff" d="M83.26,-261.25C87.52,-249.6 92.19,-236.8 96.95,-223.75"/>
<polygon fill="none" stroke="#63b8ff" points="79.98,-260.03 79.84,-270.62 86.56,-262.43 79.98,-260.03"/>
</a>
</g>
</g>
<!-- Node3 -->
<g id="Node000003" class="node">
<title>Node3</title>
<g id="a_Node000003"><a xlink:href="interface_w_p_r_1_1_database_1_1_i_connector.html" target="_top" xlink:title="Connector class om verbinding te maken met de database, maakt gebruik van de connectie strings die zi...">
<polygon fill="white" stroke="none" points="274.38,-340 146.38,-340 146.38,-288 274.38,-288 274.38,-340"/>
<text text-anchor="start" x="150.38" y="-326.5" font-family="Helvetica,sans-Serif" font-size="10.00">WPR.Database.IConnector</text>
<text text-anchor="start" x="208.88" y="-310.5" font-family="Helvetica,sans-Serif" font-size="10.00"> </text>
<text text-anchor="start" x="153.5" y="-294.5" font-family="Helvetica,sans-Serif" font-size="10.00">+</text>
<text text-anchor="start" x="166.62" y="-294.5" font-family="Helvetica,sans-Serif" font-size="10.00">CreateDbConnection()</text>
<polygon fill="#666666" stroke="#666666" points="146.38,-322 146.38,-322 274.38,-322 274.38,-322 146.38,-322"/>
<polygon fill="#666666" stroke="#666666" points="146.38,-306 146.38,-306 274.38,-306 274.38,-306 146.38,-306"/>
<polygon fill="none" stroke="#666666" points="146.38,-288 146.38,-340 274.38,-340 274.38,-288 146.38,-288"/>
</a>
</g>
</g>
<!-- Node3&#45;&gt;Node1 -->
<g id="edge2_Node000001_Node000003" class="edge">
<title>Node3&#45;&gt;Node1</title>
<g id="a_edge2_Node000001_Node000003"><a xlink:title=" ">
<path fill="none" stroke="#63b8ff" d="M201.28,-288.07C196.19,-274.13 189.43,-255.61 182.2,-235.82"/>
<polygon fill="none" stroke="#63b8ff" points="182.21,-235.83 176.39,-231.57 178.09,-224.56 183.91,-228.82 182.21,-235.83"/>
</a>
</g>
<text text-anchor="middle" x="215.8" y="-244.5" font-family="Helvetica,sans-Serif" font-size="10.00" fill="grey"> &#45;_connector</text>
</g>
</g>
</svg>
</svg>

<style type='text/css'>
<![CDATA[
[data-mouse-over-selected='false'] { opacity: 0.7; }
[data-mouse-over-selected='true']  { opacity: 1.0; }
]]>
</style>
<script type="application/ecmascript"><![CDATA[
document.addEventListener('DOMContentLoaded', (event) => {
  highlightEdges();
  highlightAdjacentNodes();
});
]]></script>
</svg>
