<?xml version="1.0" encoding="UTF-8" standalone="no"?>
<!DOCTYPE svg PUBLIC "-//W3C//DTD SVG 1.1//EN"
 "http://www.w3.org/Graphics/SVG/1.1/DTD/svg11.dtd">
<!-- Generated by graphviz version 12.2.1 (20241206.2353)
 -->
<!-- Title: WPR.Repository.ContractRepository Pages: 1 -->
<svg width="177pt" height="196pt"
 viewBox="0.00 0.00 177.25 196.00" xmlns="http://www.w3.org/2000/svg" xmlns:xlink="http://www.w3.org/1999/xlink">
<g id="graph0" class="graph" transform="scale(1 1) rotate(0) translate(4 192)">
<title>WPR.Repository.ContractRepository</title>
<!-- Node1 -->
<g id="Node000001" class="node">
<title>Node1</title>
<g id="a_Node000001"><a xlink:title=" ">
<polygon fill="#999999" stroke="none" points="169.25,-84 0,-84 0,0 169.25,0 169.25,-84"/>
<text text-anchor="start" x="4" y="-70.5" font-family="Helvetica,sans-Serif" font-size="10.00">WPR.Repository.ContractRepository</text>
<text text-anchor="start" x="8.44" y="-54.5" font-family="Helvetica,sans-Serif" font-size="10.00">&#45;</text>
<text text-anchor="start" x="19.88" y="-54.5" font-family="Helvetica,sans-Serif" font-size="10.00">_connector</text>
<text text-anchor="start" x="6.94" y="-38.5" font-family="Helvetica,sans-Serif" font-size="10.00">+</text>
<text text-anchor="start" x="19.88" y="-38.5" font-family="Helvetica,sans-Serif" font-size="10.00">ContractRepository()</text>
<text text-anchor="start" x="6.94" y="-22.5" font-family="Helvetica,sans-Serif" font-size="10.00">+</text>
<text text-anchor="start" x="19.88" y="-22.5" font-family="Helvetica,sans-Serif" font-size="10.00">GetContractsSendEmailAsync()</text>
<text text-anchor="start" x="6.94" y="-6.5" font-family="Helvetica,sans-Serif" font-size="10.00">+</text>
<text text-anchor="start" x="19.88" y="-6.5" font-family="Helvetica,sans-Serif" font-size="10.00">GetContractInfoAsync()</text>
<polygon fill="#666666" stroke="#666666" points="0,-66 0,-66 169.25,-66 169.25,-66 0,-66"/>
<polygon fill="#666666" stroke="#666666" points="0,-50 0,-50 17.88,-50 17.88,-50 0,-50"/>
<polygon fill="#666666" stroke="#666666" points="17.88,-50 17.88,-50 169.25,-50 169.25,-50 17.88,-50"/>
<polygon fill="none" stroke="#666666" points="0,0 0,-84 169.25,-84 169.25,0 0,0"/>
</a>
</g>
</g>
<!-- Node2 -->
<g id="Node000002" class="node">
<title>Node2</title>
<g id="a_Node000002"><a xlink:href="interface_w_p_r_1_1_repository_1_1_i_contract_repository.html" target="_top" xlink:title=" ">
<polygon fill="white" stroke="none" points="163.38,-188 5.88,-188 5.88,-120 163.38,-120 163.38,-188"/>
<text text-anchor="start" x="40.75" y="-174.5" font-family="Helvetica,sans-Serif" font-size="10.00">IContractRepository</text>
<text text-anchor="start" x="83.12" y="-158.5" font-family="Helvetica,sans-Serif" font-size="10.00"> </text>
<text text-anchor="start" x="9.88" y="-142.5" font-family="Helvetica,sans-Serif" font-size="10.00">+</text>
<text text-anchor="start" x="19.88" y="-142.5" font-family="Helvetica,sans-Serif" font-size="10.00">GetContractsSendEmailAsync()</text>
<text text-anchor="start" x="9.88" y="-126.5" font-family="Helvetica,sans-Serif" font-size="10.00">+</text>
<text text-anchor="start" x="19.88" y="-126.5" font-family="Helvetica,sans-Serif" font-size="10.00">GetContractInfoAsync()</text>
<polygon fill="#666666" stroke="#666666" points="5.88,-170 5.88,-170 163.38,-170 163.38,-170 5.88,-170"/>
<polygon fill="#666666" stroke="#666666" points="5.88,-154 5.88,-154 163.38,-154 163.38,-154 5.88,-154"/>
<polygon fill="none" stroke="#666666" points="5.88,-120 5.88,-188 163.38,-188 163.38,-120 5.88,-120"/>
</a>
</g>
</g>
<!-- Node2&#45;&gt;Node1 -->
<g id="edge1_Node000001_Node000002" class="edge">
<title>Node2&#45;&gt;Node1</title>
<g id="a_edge1_Node000001_Node000002"><a xlink:title=" ">
<path fill="none" stroke="#63b8ff" d="M84.62,-108.95C84.62,-100.7 84.62,-92.12 84.62,-83.97"/>
<polygon fill="none" stroke="#63b8ff" points="81.13,-108.78 84.63,-118.78 88.13,-108.78 81.13,-108.78"/>
</a>
</g>
</g>
</g>
</svg>
