<?xml version="1.0" encoding="UTF-8" standalone="no"?>
<!DOCTYPE svg PUBLIC "-//W3C//DTD SVG 1.1//EN"
 "http://www.w3.org/Graphics/SVG/1.1/DTD/svg11.dtd">
<!-- Generated by graphviz version 12.2.1 (20241206.2353)
 -->
<!-- Title: WPR.Services.EmailService.SendConfirmationEmailBusiness Pages: 1 -->
<svg width="384pt" height="90pt"
 viewBox="0.00 0.00 384.25 90.00" xmlns="http://www.w3.org/2000/svg" xmlns:xlink="http://www.w3.org/1999/xlink">
<g id="graph0" class="graph" transform="scale(1 1) rotate(0) translate(4 86)">
<title>WPR.Services.EmailService.SendConfirmationEmailBusiness</title>
<!-- Node1 -->
<g id="Node000001" class="node">
<title>Node1</title>
<g id="a_Node000001"><a xlink:title=" ">
<polygon fill="#999999" stroke="#666666" points="159.25,-57 0,-57 0,-25 159.25,-25 159.25,-57"/>
<text text-anchor="start" x="8" y="-43.5" font-family="Helvetica,sans-Serif" font-size="10.00">WPR.Services.EmailService.</text>
<text text-anchor="middle" x="79.62" y="-31.5" font-family="Helvetica,sans-Serif" font-size="10.00">SendConfirmationEmailBusiness</text>
</a>
</g>
</g>
<!-- Node2 -->
<g id="Node000002" class="node">
<title>Node2</title>
<g id="a_Node000002"><a xlink:href="class_w_p_r_1_1_services_1_1_email_service.html#a41a2fd3203eb64a3e3965d7e1634ee4b" target="_top" xlink:title=" ">
<polygon fill="white" stroke="#666666" points="376.25,-82 195.25,-82 195.25,-50 376.25,-50 376.25,-82"/>
<text text-anchor="start" x="203.25" y="-68.5" font-family="Helvetica,sans-Serif" font-size="10.00">WPR.Services.EmailService.</text>
<text text-anchor="middle" x="285.75" y="-56.5" font-family="Helvetica,sans-Serif" font-size="10.00">BuildConfirmationEmailBusinessBody</text>
</a>
</g>
</g>
<!-- Node1&#45;&gt;Node2 -->
<g id="edge1_Node000001_Node000002" class="edge">
<title>Node1&#45;&gt;Node2</title>
<g id="a_edge1_Node000001_Node000002"><a xlink:title=" ">
<path fill="none" stroke="#63b8ff" d="M159.55,-50.67C167.4,-51.63 175.45,-52.61 183.49,-53.6"/>
<polygon fill="#63b8ff" stroke="#63b8ff" points="182.98,-57.06 193.33,-54.8 183.83,-50.11 182.98,-57.06"/>
</a>
</g>
</g>
<!-- Node3 -->
<g id="Node000003" class="node">
<title>Node3</title>
<g id="a_Node000003"><a xlink:href="class_w_p_r_1_1_services_1_1_email_service.html#ab31b08101a79b7e7634ccb24fb771d33" target="_top" xlink:title="Maak SMTP Client voor versturen emails.">
<polygon fill="white" stroke="#666666" points="358.25,-32 213.25,-32 213.25,0 358.25,0 358.25,-32"/>
<text text-anchor="start" x="221.25" y="-18.5" font-family="Helvetica,sans-Serif" font-size="10.00">WPR.Services.EmailService.</text>
<text text-anchor="middle" x="285.75" y="-6.5" font-family="Helvetica,sans-Serif" font-size="10.00">CreateSmtpClient</text>
</a>
</g>
</g>
<!-- Node1&#45;&gt;Node3 -->
<g id="edge2_Node000001_Node000003" class="edge">
<title>Node1&#45;&gt;Node3</title>
<g id="a_edge2_Node000001_Node000003"><a xlink:title=" ">
<path fill="none" stroke="#63b8ff" d="M159.55,-31.33C173.44,-29.63 187.95,-27.86 201.95,-26.14"/>
<polygon fill="#63b8ff" stroke="#63b8ff" points="202.04,-29.66 211.54,-24.97 201.19,-22.71 202.04,-29.66"/>
</a>
</g>
</g>
</g>
</svg>
