<?xml version="1.0" encoding="UTF-8" standalone="no"?>
<!DOCTYPE svg PUBLIC "-//W3C//DTD SVG 1.1//EN"
 "http://www.w3.org/Graphics/SVG/1.1/DTD/svg11.dtd">
<!-- Generated by graphviz version 12.2.1 (20241206.2353)
 -->
<!-- Title: WPR.Controllers.Employee.VehicleManager.ChangeBusinessSettings.ChangeBusinessSettingsController Pages: 1 -->
<svg width="201pt" height="312pt"
 viewBox="0.00 0.00 201.25 312.00" xmlns="http://www.w3.org/2000/svg" xmlns:xlink="http://www.w3.org/1999/xlink">

<svg id="main" version="1.1" xmlns="http://www.w3.org/2000/svg" xmlns:xlink="http://www.w3.org/1999/xlink" xml:space="preserve">

<style type="text/css"><![CDATA[
.node, .edge {opacity: 0.7;}
.node.selected, .edge.selected {opacity: 1;}
.edge:hover path { stroke: red; }
.edge:hover polygon { stroke: red; fill: red; }
]]></style>
<script type="application/ecmascript" xlink:href="svg.min.js"/>
<svg id="graph" class="graph">
<g id="graph0" class="graph" transform="scale(1 1) rotate(0) translate(4 308)">
<title>WPR.Controllers.Employee.VehicleManager.ChangeBusinessSettings.ChangeBusinessSettingsController</title>
<!-- Node1 -->
<g id="Node000001" class="node">
<title>Node1</title>
<g id="a_Node000001"><a xlink:title=" ">
<polygon fill="#999999" stroke="none" points="193.25,-216 0,-216 0,0 193.25,0 193.25,-216"/>
<text text-anchor="start" x="4" y="-202.5" font-family="Helvetica,sans-Serif" font-size="10.00">WPR.Controllers.Employee.</text>
<text text-anchor="start" x="4" y="-190.5" font-family="Helvetica,sans-Serif" font-size="10.00">VehicleManager.ChangeBusinessSettings.</text>
<text text-anchor="start" x="20.5" y="-178.5" font-family="Helvetica,sans-Serif" font-size="10.00">ChangeBusinessSettingsController</text>
<text text-anchor="start" x="9.75" y="-162.5" font-family="Helvetica,sans-Serif" font-size="10.00">&#45;</text>
<text text-anchor="start" x="22.5" y="-162.5" font-family="Helvetica,sans-Serif" font-size="10.00">_userRepository</text>
<text text-anchor="start" x="9.75" y="-146.5" font-family="Helvetica,sans-Serif" font-size="10.00">&#45;</text>
<text text-anchor="start" x="22.5" y="-146.5" font-family="Helvetica,sans-Serif" font-size="10.00">_employeeRepository</text>
<text text-anchor="start" x="9.75" y="-130.5" font-family="Helvetica,sans-Serif" font-size="10.00">&#45;</text>
<text text-anchor="start" x="22.5" y="-130.5" font-family="Helvetica,sans-Serif" font-size="10.00">_databaseCheckRepository</text>
<text text-anchor="start" x="8.25" y="-114.5" font-family="Helvetica,sans-Serif" font-size="10.00">+</text>
<text text-anchor="start" x="22.5" y="-114.5" font-family="Helvetica,sans-Serif" font-size="10.00">ChangeBusinessSettingsController()</text>
<text text-anchor="start" x="8.25" y="-98.5" font-family="Helvetica,sans-Serif" font-size="10.00">+</text>
<text text-anchor="start" x="22.5" y="-98.5" font-family="Helvetica,sans-Serif" font-size="10.00">GetBusinessInfoAsync()</text>
<text text-anchor="start" x="8.25" y="-82.5" font-family="Helvetica,sans-Serif" font-size="10.00">+</text>
<text text-anchor="start" x="22.5" y="-82.5" font-family="Helvetica,sans-Serif" font-size="10.00">ChangeBusinessInfoAsync()</text>
<text text-anchor="start" x="8.25" y="-66.5" font-family="Helvetica,sans-Serif" font-size="10.00">+</text>
<text text-anchor="start" x="22.5" y="-66.5" font-family="Helvetica,sans-Serif" font-size="10.00">DeleteUserAsync()</text>
<text text-anchor="start" x="8.25" y="-50.5" font-family="Helvetica,sans-Serif" font-size="10.00">+</text>
<text text-anchor="start" x="22.5" y="-50.5" font-family="Helvetica,sans-Serif" font-size="10.00">DeleteVehicleAsync()</text>
<text text-anchor="start" x="8.25" y="-34.5" font-family="Helvetica,sans-Serif" font-size="10.00">+</text>
<text text-anchor="start" x="22.5" y="-34.5" font-family="Helvetica,sans-Serif" font-size="10.00">CheckNewEmailAsync()</text>
<text text-anchor="start" x="8.25" y="-18.5" font-family="Helvetica,sans-Serif" font-size="10.00">+</text>
<text text-anchor="start" x="22.5" y="-18.5" font-family="Helvetica,sans-Serif" font-size="10.00">ChangeVehicleManagerInfo</text>
<text text-anchor="start" x="22.5" y="-6.5" font-family="Helvetica,sans-Serif" font-size="10.00">Async()</text>
<polygon fill="#666666" stroke="#666666" points="0,-174 0,-174 193.25,-174 193.25,-174 0,-174"/>
<polygon fill="#666666" stroke="#666666" points="0,-126 0,-126 20.5,-126 20.5,-126 0,-126"/>
<polygon fill="#666666" stroke="#666666" points="20.5,-126 20.5,-126 193.25,-126 193.25,-126 20.5,-126"/>
<polygon fill="none" stroke="#666666" points="0,0 0,-216 193.25,-216 193.25,0 0,0"/>
</a>
</g>
</g>
<!-- Node2 -->
<g id="Node000002" class="node">
<title>Node2</title>
<g id="a_Node000002"><a xlink:title=" ">
<polygon fill="white" stroke="none" points="132.88,-304 60.38,-304 60.38,-252 132.88,-252 132.88,-304"/>
<text text-anchor="start" x="64.38" y="-290.5" font-family="Helvetica,sans-Serif" font-size="10.00">ControllerBase</text>
<text text-anchor="start" x="95.12" y="-274.5" font-family="Helvetica,sans-Serif" font-size="10.00"> </text>
<text text-anchor="start" x="95.12" y="-258.5" font-family="Helvetica,sans-Serif" font-size="10.00"> </text>
<polygon fill="#666666" stroke="#666666" points="60.38,-286 60.38,-286 132.88,-286 132.88,-286 60.38,-286"/>
<polygon fill="#666666" stroke="#666666" points="60.38,-270 60.38,-270 132.88,-270 132.88,-270 60.38,-270"/>
<polygon fill="none" stroke="#666666" points="60.38,-252 60.38,-304 132.88,-304 132.88,-252 60.38,-252"/>
</a>
</g>
</g>
<!-- Node2&#45;&gt;Node1 -->
<g id="edge1_Node000001_Node000002" class="edge">
<title>Node2&#45;&gt;Node1</title>
<g id="a_edge1_Node000001_Node000002"><a xlink:title=" ">
<path fill="none" stroke="#63b8ff" d="M96.62,-240.89C96.62,-233.22 96.62,-224.76 96.62,-215.93"/>
<polygon fill="none" stroke="#63b8ff" points="93.13,-240.7 96.63,-250.7 100.13,-240.7 93.13,-240.7"/>
</a>
</g>
</g>
</g>
</svg>
</svg>

<style type='text/css'>
<![CDATA[
[data-mouse-over-selected='false'] { opacity: 0.7; }
[data-mouse-over-selected='true']  { opacity: 1.0; }
]]>
</style>
<script type="application/ecmascript"><![CDATA[
document.addEventListener('DOMContentLoaded', (event) => {
  highlightEdges();
  highlightAdjacentNodes();
});
]]></script>
</svg>
