<?xml version="1.0" encoding="UTF-8" standalone="no"?>
<!DOCTYPE svg PUBLIC "-//W3C//DTD SVG 1.1//EN"
 "http://www.w3.org/Graphics/SVG/1.1/DTD/svg11.dtd">
<!-- Generated by graphviz version 12.2.1 (20241206.2353)
 -->
<!-- Title: WPR.Controllers.Employee.FrontOffice.AddIntake.AddIntakeErrorResponse Pages: 1 -->
<svg width="159pt" height="100pt"
 viewBox="0.00 0.00 158.50 100.00" xmlns="http://www.w3.org/2000/svg" xmlns:xlink="http://www.w3.org/1999/xlink">
<g id="graph0" class="graph" transform="scale(1 1) rotate(0) translate(4 96)">
<title>WPR.Controllers.Employee.FrontOffice.AddIntake.AddIntakeErrorResponse</title>
<!-- Node1 -->
<g id="Node000001" class="node">
<title>Node1</title>
<g id="a_Node000001"><a xlink:title=" ">
<polygon fill="#999999" stroke="none" points="150.5,-92 0,-92 0,0 150.5,0 150.5,-92"/>
<text text-anchor="start" x="4" y="-78.5" font-family="Helvetica,sans-Serif" font-size="10.00">WPR.Controllers.Employee.</text>
<text text-anchor="start" x="4" y="-66.5" font-family="Helvetica,sans-Serif" font-size="10.00">FrontOffice.AddIntake.AddIntake</text>
<text text-anchor="start" x="42.62" y="-54.5" font-family="Helvetica,sans-Serif" font-size="10.00">ErrorResponse</text>
<text text-anchor="start" x="27.19" y="-38.5" font-family="Helvetica,sans-Serif" font-size="10.00">+</text>
<text text-anchor="start" x="60.38" y="-38.5" font-family="Helvetica,sans-Serif" font-size="10.00">Status</text>
<text text-anchor="start" x="27.19" y="-22.5" font-family="Helvetica,sans-Serif" font-size="10.00">+</text>
<text text-anchor="start" x="60.38" y="-22.5" font-family="Helvetica,sans-Serif" font-size="10.00">Message</text>
<text text-anchor="start" x="73.75" y="-6.5" font-family="Helvetica,sans-Serif" font-size="10.00"> </text>
<polygon fill="#666666" stroke="#666666" points="0,-50 0,-50 150.5,-50 150.5,-50 0,-50"/>
<polygon fill="#666666" stroke="#666666" points="0,-18 0,-18 58.38,-18 58.38,-18 0,-18"/>
<polygon fill="#666666" stroke="#666666" points="58.38,-18 58.38,-18 150.5,-18 150.5,-18 58.38,-18"/>
<polygon fill="none" stroke="#666666" points="0,0 0,-92 150.5,-92 150.5,0 0,0"/>
</a>
</g>
</g>
</g>
</svg>
