<?xml version="1.0" encoding="UTF-8" standalone="no"?>
<!DOCTYPE svg PUBLIC "-//W3C//DTD SVG 1.1//EN"
 "http://www.w3.org/Graphics/SVG/1.1/DTD/svg11.dtd">
<!-- Generated by graphviz version 12.2.1 (20241206.2353)
 -->
<!-- Title: WPR.Repository.UserRepository Pages: 1 -->
<svg width="546pt" height="756pt"
 viewBox="0.00 0.00 546.38 756.00" xmlns="http://www.w3.org/2000/svg" xmlns:xlink="http://www.w3.org/1999/xlink">
<g id="graph0" class="graph" transform="scale(1 1) rotate(0) translate(4 752)">
<title>WPR.Repository.UserRepository</title>
<!-- Node1 -->
<g id="Node000001" class="node">
<title>Node1</title>
<g id="a_Node000001"><a xlink:title="De UserRepository class geeft de methodes voor de interactie met de database voor gebruiker gerelatee...">
<polygon fill="#999999" stroke="none" points="377.75,-292 224,-292 224,0 377.75,0 377.75,-292"/>
<text text-anchor="start" x="228.5" y="-278.5" font-family="Helvetica,sans-Serif" font-size="10.00">WPR.Repository.UserRepository</text>
<text text-anchor="start" x="299.38" y="-262.5" font-family="Helvetica,sans-Serif" font-size="10.00"> </text>
<text text-anchor="start" x="228" y="-246.5" font-family="Helvetica,sans-Serif" font-size="10.00">+</text>
<text text-anchor="start" x="238" y="-246.5" font-family="Helvetica,sans-Serif" font-size="10.00">UserRepository()</text>
<text text-anchor="start" x="228" y="-230.5" font-family="Helvetica,sans-Serif" font-size="10.00">+</text>
<text text-anchor="start" x="238" y="-230.5" font-family="Helvetica,sans-Serif" font-size="10.00">ValidateUserAsync()</text>
<text text-anchor="start" x="228" y="-214.5" font-family="Helvetica,sans-Serif" font-size="10.00">+</text>
<text text-anchor="start" x="238" y="-214.5" font-family="Helvetica,sans-Serif" font-size="10.00">checkUsageEmailAsync()</text>
<text text-anchor="start" x="228" y="-198.5" font-family="Helvetica,sans-Serif" font-size="10.00">+</text>
<text text-anchor="start" x="238" y="-198.5" font-family="Helvetica,sans-Serif" font-size="10.00">addCustomerAsync()</text>
<text text-anchor="start" x="228" y="-182.5" font-family="Helvetica,sans-Serif" font-size="10.00">+</text>
<text text-anchor="start" x="238" y="-182.5" font-family="Helvetica,sans-Serif" font-size="10.00">addPersonalCustomerAsync()</text>
<text text-anchor="start" x="228" y="-166.5" font-family="Helvetica,sans-Serif" font-size="10.00">+</text>
<text text-anchor="start" x="238" y="-166.5" font-family="Helvetica,sans-Serif" font-size="10.00">addEmployeeCustomerAsync()</text>
<text text-anchor="start" x="228" y="-150.5" font-family="Helvetica,sans-Serif" font-size="10.00">+</text>
<text text-anchor="start" x="238" y="-150.5" font-family="Helvetica,sans-Serif" font-size="10.00">GetUserIdAsync()</text>
<text text-anchor="start" x="228" y="-134.5" font-family="Helvetica,sans-Serif" font-size="10.00">+</text>
<text text-anchor="start" x="238" y="-134.5" font-family="Helvetica,sans-Serif" font-size="10.00">GetUserNameAsync()</text>
<text text-anchor="start" x="228" y="-118.5" font-family="Helvetica,sans-Serif" font-size="10.00">+</text>
<text text-anchor="start" x="238" y="-118.5" font-family="Helvetica,sans-Serif" font-size="10.00">EditUserInfoAsync()</text>
<text text-anchor="start" x="228" y="-102.5" font-family="Helvetica,sans-Serif" font-size="10.00">+</text>
<text text-anchor="start" x="238" y="-102.5" font-family="Helvetica,sans-Serif" font-size="10.00">IsKvkNumberAsync()</text>
<text text-anchor="start" x="238" y="-86.5" font-family="Helvetica,sans-Serif" font-size="10.00">en 16 anderen...</text>
<text text-anchor="start" x="229.5" y="-70.5" font-family="Helvetica,sans-Serif" font-size="10.00">&#45;</text>
<text text-anchor="start" x="238" y="-70.5" font-family="Helvetica,sans-Serif" font-size="10.00">CreateUserInfoQuery()</text>
<text text-anchor="start" x="229.5" y="-54.5" font-family="Helvetica,sans-Serif" font-size="10.00">&#45;</text>
<text text-anchor="start" x="238" y="-54.5" font-family="Helvetica,sans-Serif" font-size="10.00">AddCustomerChecks()</text>
<text text-anchor="start" x="229.5" y="-38.5" font-family="Helvetica,sans-Serif" font-size="10.00">&#45;</text>
<text text-anchor="start" x="238" y="-38.5" font-family="Helvetica,sans-Serif" font-size="10.00">AddPrivateCustomerDetails()</text>
<text text-anchor="start" x="229.5" y="-22.5" font-family="Helvetica,sans-Serif" font-size="10.00">&#45;</text>
<text text-anchor="start" x="238" y="-22.5" font-family="Helvetica,sans-Serif" font-size="10.00">CreateUpdateQuery()</text>
<text text-anchor="start" x="229.5" y="-6.5" font-family="Helvetica,sans-Serif" font-size="10.00">&#45;</text>
<text text-anchor="start" x="238" y="-6.5" font-family="Helvetica,sans-Serif" font-size="10.00">ChangeBusinessData()</text>
<polygon fill="#666666" stroke="#666666" points="224,-274 224,-274 377.75,-274 377.75,-274 224,-274"/>
<polygon fill="#666666" stroke="#666666" points="224,-258 224,-258 377.75,-258 377.75,-258 224,-258"/>
<polygon fill="none" stroke="#666666" points="224,0 224,-292 377.75,-292 377.75,0 224,0"/>
</a>
</g>
</g>
<!-- Node2 -->
<g id="Node000002" class="node">
<title>Node2</title>
<g id="a_Node000002"><a xlink:href="interface_w_p_r_1_1_repository_1_1_i_user_repository.html" target="_top" xlink:title="Interface defining methods voor user gerelateerde database operaties, validatie, user management,...">
<polygon fill="white" stroke="none" points="153.75,-552 0,-552 0,-340 153.75,-340 153.75,-552"/>
<text text-anchor="start" x="41.25" y="-538.5" font-family="Helvetica,sans-Serif" font-size="10.00">IUserRepository</text>
<text text-anchor="start" x="75.38" y="-522.5" font-family="Helvetica,sans-Serif" font-size="10.00"> </text>
<text text-anchor="start" x="4" y="-506.5" font-family="Helvetica,sans-Serif" font-size="10.00">+</text>
<text text-anchor="start" x="14" y="-506.5" font-family="Helvetica,sans-Serif" font-size="10.00">ValidateUserAsync()</text>
<text text-anchor="start" x="4" y="-490.5" font-family="Helvetica,sans-Serif" font-size="10.00">+</text>
<text text-anchor="start" x="14" y="-490.5" font-family="Helvetica,sans-Serif" font-size="10.00">checkUsageEmailAsync()</text>
<text text-anchor="start" x="4" y="-474.5" font-family="Helvetica,sans-Serif" font-size="10.00">+</text>
<text text-anchor="start" x="14" y="-474.5" font-family="Helvetica,sans-Serif" font-size="10.00">addCustomerAsync()</text>
<text text-anchor="start" x="4" y="-458.5" font-family="Helvetica,sans-Serif" font-size="10.00">+</text>
<text text-anchor="start" x="14" y="-458.5" font-family="Helvetica,sans-Serif" font-size="10.00">addPersonalCustomerAsync()</text>
<text text-anchor="start" x="4" y="-442.5" font-family="Helvetica,sans-Serif" font-size="10.00">+</text>
<text text-anchor="start" x="14" y="-442.5" font-family="Helvetica,sans-Serif" font-size="10.00">addEmployeeCustomerAsync()</text>
<text text-anchor="start" x="4" y="-426.5" font-family="Helvetica,sans-Serif" font-size="10.00">+</text>
<text text-anchor="start" x="14" y="-426.5" font-family="Helvetica,sans-Serif" font-size="10.00">GetUserIdAsync()</text>
<text text-anchor="start" x="4" y="-410.5" font-family="Helvetica,sans-Serif" font-size="10.00">+</text>
<text text-anchor="start" x="14" y="-410.5" font-family="Helvetica,sans-Serif" font-size="10.00">GetUserNameAsync()</text>
<text text-anchor="start" x="4" y="-394.5" font-family="Helvetica,sans-Serif" font-size="10.00">+</text>
<text text-anchor="start" x="14" y="-394.5" font-family="Helvetica,sans-Serif" font-size="10.00">EditUserInfoAsync()</text>
<text text-anchor="start" x="4" y="-378.5" font-family="Helvetica,sans-Serif" font-size="10.00">+</text>
<text text-anchor="start" x="14" y="-378.5" font-family="Helvetica,sans-Serif" font-size="10.00">IsKvkNumberAsync()</text>
<text text-anchor="start" x="4" y="-362.5" font-family="Helvetica,sans-Serif" font-size="10.00">+</text>
<text text-anchor="start" x="14" y="-362.5" font-family="Helvetica,sans-Serif" font-size="10.00">IsUserEmployee()</text>
<text text-anchor="start" x="14" y="-346.5" font-family="Helvetica,sans-Serif" font-size="10.00">en 14 anderen...</text>
<polygon fill="#666666" stroke="#666666" points="0,-534 0,-534 153.75,-534 153.75,-534 0,-534"/>
<polygon fill="#666666" stroke="#666666" points="0,-518 0,-518 153.75,-518 153.75,-518 0,-518"/>
<polygon fill="none" stroke="#666666" points="0,-340 0,-552 153.75,-552 153.75,-340 0,-340"/>
</a>
</g>
</g>
<!-- Node2&#45;&gt;Node1 -->
<g id="edge1_Node000001_Node000002" class="edge">
<title>Node2&#45;&gt;Node1</title>
<g id="a_edge1_Node000001_Node000002"><a xlink:title=" ">
<path fill="none" stroke="#63b8ff" d="M160.37,-333.93C181.22,-306.18 203.49,-276.55 224.01,-249.26"/>
<polygon fill="none" stroke="#63b8ff" points="157.77,-331.56 154.56,-341.65 163.37,-335.76 157.77,-331.56"/>
</a>
</g>
</g>
<!-- Node3 -->
<g id="Node000003" class="node">
<title>Node3</title>
<g id="a_Node000003"><a xlink:href="interface_w_p_r_1_1_database_1_1_i_connector.html" target="_top" xlink:title="Connector class om verbinding te maken met de database, maakt gebruik van de connectie strings die zi...">
<polygon fill="white" stroke="none" points="299.88,-472 171.88,-472 171.88,-420 299.88,-420 299.88,-472"/>
<text text-anchor="start" x="175.88" y="-458.5" font-family="Helvetica,sans-Serif" font-size="10.00">WPR.Database.IConnector</text>
<text text-anchor="start" x="234.38" y="-442.5" font-family="Helvetica,sans-Serif" font-size="10.00"> </text>
<text text-anchor="start" x="179" y="-426.5" font-family="Helvetica,sans-Serif" font-size="10.00">+</text>
<text text-anchor="start" x="192.12" y="-426.5" font-family="Helvetica,sans-Serif" font-size="10.00">CreateDbConnection()</text>
<polygon fill="#666666" stroke="#666666" points="171.88,-454 171.88,-454 299.88,-454 299.88,-454 171.88,-454"/>
<polygon fill="#666666" stroke="#666666" points="171.88,-438 171.88,-438 299.88,-438 299.88,-438 171.88,-438"/>
<polygon fill="none" stroke="#666666" points="171.88,-420 171.88,-472 299.88,-472 299.88,-420 171.88,-420"/>
</a>
</g>
</g>
<!-- Node3&#45;&gt;Node1 -->
<g id="edge2_Node000001_Node000003" class="edge">
<title>Node3&#45;&gt;Node1</title>
<g id="a_edge2_Node000001_Node000003"><a xlink:title=" ">
<path fill="none" stroke="#63b8ff" d="M241.31,-420.11C247.06,-393.7 256.67,-349.65 266.51,-304.55"/>
<polygon fill="none" stroke="#63b8ff" points="266.54,-304.42 263.91,-297.7 269.1,-292.69 271.73,-299.41 266.54,-304.42"/>
</a>
</g>
<text text-anchor="middle" x="291.48" y="-312.5" font-family="Helvetica,sans-Serif" font-size="10.00" fill="grey"> &#45;_connector</text>
</g>
<!-- Node4 -->
<g id="Node000004" class="node">
<title>Node4</title>
<g id="a_Node000004"><a xlink:href="class_w_p_r_1_1_hashing_1_1_hash.html" target="_top" xlink:title="Class Hash zorgt ervoor dat wachtwoorden op een veilige manier worden gehashed doormiddel van het HMA...">
<polygon fill="white" stroke="none" points="415.5,-488 318.25,-488 318.25,-404 415.5,-404 415.5,-488"/>
<text text-anchor="start" x="322.25" y="-474.5" font-family="Helvetica,sans-Serif" font-size="10.00">WPR.Hashing.Hash</text>
<text text-anchor="start" x="328" y="-458.5" font-family="Helvetica,sans-Serif" font-size="10.00">+</text>
<text text-anchor="start" x="343.75" y="-458.5" font-family="Helvetica,sans-Serif" font-size="10.00">_salt</text>
<text text-anchor="start" x="328" y="-442.5" font-family="Helvetica,sans-Serif" font-size="10.00">+</text>
<text text-anchor="start" x="343.75" y="-442.5" font-family="Helvetica,sans-Serif" font-size="10.00">Hash()</text>
<text text-anchor="start" x="328" y="-426.5" font-family="Helvetica,sans-Serif" font-size="10.00">+</text>
<text text-anchor="start" x="343.75" y="-426.5" font-family="Helvetica,sans-Serif" font-size="10.00">CreateSalt()</text>
<text text-anchor="start" x="328" y="-410.5" font-family="Helvetica,sans-Serif" font-size="10.00">+</text>
<text text-anchor="start" x="343.75" y="-410.5" font-family="Helvetica,sans-Serif" font-size="10.00">createHash()</text>
<polygon fill="#666666" stroke="#666666" points="318.25,-470 318.25,-470 415.5,-470 415.5,-470 318.25,-470"/>
<polygon fill="#666666" stroke="#666666" points="318.25,-454 318.25,-454 341.75,-454 341.75,-454 318.25,-454"/>
<polygon fill="#666666" stroke="#666666" points="341.75,-454 341.75,-454 415.5,-454 415.5,-454 341.75,-454"/>
<polygon fill="none" stroke="#666666" points="318.25,-404 318.25,-488 415.5,-488 415.5,-404 318.25,-404"/>
</a>
</g>
</g>
<!-- Node4&#45;&gt;Node1 -->
<g id="edge3_Node000001_Node000004" class="edge">
<title>Node4&#45;&gt;Node1</title>
<g id="a_edge3_Node000001_Node000004"><a xlink:title=" ">
<path fill="none" stroke="#63b8ff" d="M357.84,-404.19C351.98,-377.77 343.95,-341.49 335.76,-304.52"/>
<polygon fill="none" stroke="#63b8ff" points="335.77,-304.56 330.57,-299.57 333.18,-292.85 338.38,-297.84 335.77,-304.56"/>
</a>
</g>
<text text-anchor="middle" x="353.95" y="-312.5" font-family="Helvetica,sans-Serif" font-size="10.00" fill="grey"> &#45;_hash</text>
</g>
<!-- Node5 -->
<g id="Node000005" class="node">
<title>Node5</title>
<g id="a_Node000005"><a xlink:href="class_w_p_r_1_1_cryption_1_1_crypt.html" target="_top" xlink:title="Class Crypt zorgt voor een veilig encryptie en decryptie van strings. De Crptie wordt gedaan door het...">
<polygon fill="white" stroke="none" points="532.25,-496 433.5,-496 433.5,-396 532.25,-396 532.25,-496"/>
<text text-anchor="start" x="437.5" y="-482.5" font-family="Helvetica,sans-Serif" font-size="10.00">WPR.Cryption.Crypt</text>
<text text-anchor="start" x="449.06" y="-466.5" font-family="Helvetica,sans-Serif" font-size="10.00">&#45;</text>
<text text-anchor="start" x="467.62" y="-466.5" font-family="Helvetica,sans-Serif" font-size="10.00">_key</text>
<text text-anchor="start" x="449.06" y="-450.5" font-family="Helvetica,sans-Serif" font-size="10.00">&#45;</text>
<text text-anchor="start" x="467.62" y="-450.5" font-family="Helvetica,sans-Serif" font-size="10.00">_IV</text>
<text text-anchor="start" x="447.56" y="-434.5" font-family="Helvetica,sans-Serif" font-size="10.00">+</text>
<text text-anchor="start" x="467.62" y="-434.5" font-family="Helvetica,sans-Serif" font-size="10.00">Crypt()</text>
<text text-anchor="start" x="447.56" y="-418.5" font-family="Helvetica,sans-Serif" font-size="10.00">+</text>
<text text-anchor="start" x="467.62" y="-418.5" font-family="Helvetica,sans-Serif" font-size="10.00">Encrypt()</text>
<text text-anchor="start" x="447.56" y="-402.5" font-family="Helvetica,sans-Serif" font-size="10.00">+</text>
<text text-anchor="start" x="467.62" y="-402.5" font-family="Helvetica,sans-Serif" font-size="10.00">Decrypt()</text>
<polygon fill="#666666" stroke="#666666" points="433.5,-478 433.5,-478 532.25,-478 532.25,-478 433.5,-478"/>
<polygon fill="#666666" stroke="#666666" points="433.5,-446 433.5,-446 465.62,-446 465.62,-446 433.5,-446"/>
<polygon fill="#666666" stroke="#666666" points="465.62,-446 465.62,-446 532.25,-446 532.25,-446 465.62,-446"/>
<polygon fill="none" stroke="#666666" points="433.5,-396 433.5,-496 532.25,-496 532.25,-396 433.5,-396"/>
</a>
</g>
</g>
<!-- Node5&#45;&gt;Node1 -->
<g id="edge4_Node000001_Node000005" class="edge">
<title>Node5&#45;&gt;Node1</title>
<g id="a_edge4_Node000001_Node000005"><a xlink:title=" ">
<path fill="none" stroke="#63b8ff" d="M456.69,-396C446.95,-378.22 435.65,-358.06 424.88,-340 412.18,-318.71 398.32,-296.37 384.63,-274.74"/>
<polygon fill="none" stroke="#63b8ff" points="384.63,-274.74 378.03,-271.82 378.19,-264.61 384.78,-267.53 384.63,-274.74"/>
</a>
</g>
<text text-anchor="middle" x="428.51" y="-312.5" font-family="Helvetica,sans-Serif" font-size="10.00" fill="grey"> &#45;_crypt</text>
</g>
<!-- Node6 -->
<g id="Node000006" class="node">
<title>Node6</title>
<g id="a_Node000006"><a xlink:href="class_w_p_r_1_1_data_1_1_env_config.html" target="_top" xlink:title="Leez het .env bestand uit waarin de connectie strings staan naar de database. Deze staan in een apart...">
<polygon fill="white" stroke="none" points="535.75,-748 430,-748 430,-600 535.75,-600 535.75,-748"/>
<text text-anchor="start" x="434.5" y="-734.5" font-family="Helvetica,sans-Serif" font-size="10.00">WPR.Data.EnvConfig</text>
<text text-anchor="start" x="435.5" y="-718.5" font-family="Helvetica,sans-Serif" font-size="10.00">&#45;</text>
<text text-anchor="start" x="444" y="-718.5" font-family="Helvetica,sans-Serif" font-size="10.00">_configuration</text>
<text text-anchor="start" x="434" y="-702.5" font-family="Helvetica,sans-Serif" font-size="10.00">+</text>
<text text-anchor="start" x="444" y="-702.5" font-family="Helvetica,sans-Serif" font-size="10.00">EnvConfig()</text>
<text text-anchor="start" x="434" y="-686.5" font-family="Helvetica,sans-Serif" font-size="10.00">+</text>
<text text-anchor="start" x="444" y="-686.5" font-family="Helvetica,sans-Serif" font-size="10.00">Get()</text>
<text text-anchor="start" x="434" y="-670.5" font-family="Helvetica,sans-Serif" font-size="10.00">+</text>
<text text-anchor="start" x="444" y="-670.5" font-family="Helvetica,sans-Serif" font-size="10.00">IsConfigured()</text>
<text text-anchor="start" x="434" y="-654.5" font-family="Helvetica,sans-Serif" font-size="10.00">+</text>
<text text-anchor="start" x="444" y="-654.5" font-family="Helvetica,sans-Serif" font-size="10.00">GetSmtpHost()</text>
<text text-anchor="start" x="434" y="-638.5" font-family="Helvetica,sans-Serif" font-size="10.00">+</text>
<text text-anchor="start" x="444" y="-638.5" font-family="Helvetica,sans-Serif" font-size="10.00">GetSmtpPort()</text>
<text text-anchor="start" x="434" y="-622.5" font-family="Helvetica,sans-Serif" font-size="10.00">+</text>
<text text-anchor="start" x="444" y="-622.5" font-family="Helvetica,sans-Serif" font-size="10.00">GetFromEmail()</text>
<text text-anchor="start" x="434" y="-606.5" font-family="Helvetica,sans-Serif" font-size="10.00">+</text>
<text text-anchor="start" x="444" y="-606.5" font-family="Helvetica,sans-Serif" font-size="10.00">GetFromPassword()</text>
<polygon fill="#666666" stroke="#666666" points="430,-730 430,-730 535.75,-730 535.75,-730 430,-730"/>
<polygon fill="#666666" stroke="#666666" points="430,-714 430,-714 442,-714 442,-714 430,-714"/>
<polygon fill="#666666" stroke="#666666" points="442,-714 442,-714 535.75,-714 535.75,-714 442,-714"/>
<polygon fill="none" stroke="#666666" points="430,-600 430,-748 535.75,-748 535.75,-600 430,-600"/>
</a>
</g>
</g>
<!-- Node6&#45;&gt;Node5 -->
<g id="edge5_Node000005_Node000006" class="edge">
<title>Node6&#45;&gt;Node5</title>
<g id="a_edge5_Node000005_Node000006"><a xlink:title=" ">
<path fill="none" stroke="#63b8ff" d="M482.88,-600.25C482.88,-570.73 482.88,-536.99 482.88,-508.7"/>
<polygon fill="none" stroke="#63b8ff" points="482.88,-508.61 478.88,-502.61 482.88,-496.61 486.88,-502.61 482.88,-508.61"/>
</a>
</g>
<text text-anchor="middle" x="510.62" y="-572.5" font-family="Helvetica,sans-Serif" font-size="10.00" fill="grey"> &#45;_envConfig</text>
</g>
</g>
</svg>
