<?xml version="1.0" encoding="UTF-8" standalone="no"?>
<!DOCTYPE svg PUBLIC "-//W3C//DTD SVG 1.1//EN"
 "http://www.w3.org/Graphics/SVG/1.1/DTD/svg11.dtd">
<!-- Generated by graphviz version 12.2.1 (20241206.2353)
 -->
<!-- Title: DatabaseCheckRepository.DeleteUser Pages: 1 -->
<svg width="488pt" height="90pt"
 viewBox="0.00 0.00 488.00 90.00" xmlns="http://www.w3.org/2000/svg" xmlns:xlink="http://www.w3.org/1999/xlink">
<g id="graph0" class="graph" transform="scale(1 1) rotate(0) translate(4 86)">
<title>DatabaseCheckRepository.DeleteUser</title>
<!-- Node1 -->
<g id="Node000001" class="node">
<title>Node1</title>
<g id="a_Node000001"><a xlink:title=" ">
<polygon fill="#999999" stroke="#666666" points="136,-57 0,-57 0,-25 136,-25 136,-57"/>
<text text-anchor="start" x="8" y="-43.5" font-family="Helvetica,sans-Serif" font-size="10.00">DatabaseCheckRepository.</text>
<text text-anchor="middle" x="68" y="-31.5" font-family="Helvetica,sans-Serif" font-size="10.00">DeleteUser</text>
</a>
</g>
</g>
<!-- Node2 -->
<g id="Node000002" class="node">
<title>Node2</title>
<g id="a_Node000002"><a xlink:href="class_database_check_repository.html#addc06aeee3647cec54202bc103212e2e" target="_top" xlink:title=" ">
<polygon fill="white" stroke="#666666" points="308,-82 172,-82 172,-50 308,-50 308,-82"/>
<text text-anchor="start" x="180" y="-68.5" font-family="Helvetica,sans-Serif" font-size="10.00">DatabaseCheckRepository.</text>
<text text-anchor="middle" x="240" y="-56.5" font-family="Helvetica,sans-Serif" font-size="10.00">HandleDelete</text>
</a>
</g>
</g>
<!-- Node1&#45;&gt;Node2 -->
<g id="edge1_Node000001_Node000002" class="edge">
<title>Node1&#45;&gt;Node2</title>
<g id="a_edge1_Node000001_Node000002"><a xlink:title=" ">
<path fill="none" stroke="#63b8ff" d="M136.19,-50.88C144.14,-52.05 152.3,-53.25 160.39,-54.44"/>
<polygon fill="#63b8ff" stroke="#63b8ff" points="159.84,-57.9 170.25,-55.89 160.86,-50.97 159.84,-57.9"/>
</a>
</g>
</g>
<!-- Node3 -->
<g id="Node000003" class="node">
<title>Node3</title>
<g id="a_Node000003"><a xlink:href="class_database_check_repository.html#ad56412a3b3449cdcb20706b41c648f3e" target="_top" xlink:title=" ">
<polygon fill="white" stroke="#666666" points="308,-32 172,-32 172,0 308,0 308,-32"/>
<text text-anchor="start" x="180" y="-18.5" font-family="Helvetica,sans-Serif" font-size="10.00">DatabaseCheckRepository.</text>
<text text-anchor="middle" x="240" y="-6.5" font-family="Helvetica,sans-Serif" font-size="10.00">UserHasActiveContract</text>
</a>
</g>
</g>
<!-- Node1&#45;&gt;Node3 -->
<g id="edge2_Node000001_Node000003" class="edge">
<title>Node1&#45;&gt;Node3</title>
<g id="a_edge2_Node000001_Node000003"><a xlink:title=" ">
<path fill="none" stroke="#63b8ff" d="M136.19,-31.12C144.14,-29.95 152.3,-28.75 160.39,-27.56"/>
<polygon fill="#63b8ff" stroke="#63b8ff" points="160.86,-31.03 170.25,-26.11 159.84,-24.1 160.86,-31.03"/>
</a>
</g>
</g>
<!-- Node4 -->
<g id="Node000004" class="node">
<title>Node4</title>
<g id="a_Node000004"><a xlink:href="class_database_check_repository.html#a181b1a163bd4151f68bc551091c3ee22" target="_top" xlink:title=" ">
<polygon fill="white" stroke="#666666" points="480,-32 344,-32 344,0 480,0 480,-32"/>
<text text-anchor="start" x="352" y="-18.5" font-family="Helvetica,sans-Serif" font-size="10.00">DatabaseCheckRepository.</text>
<text text-anchor="middle" x="412" y="-6.5" font-family="Helvetica,sans-Serif" font-size="10.00">DeleteFutereContracts</text>
</a>
</g>
</g>
<!-- Node3&#45;&gt;Node4 -->
<g id="edge3_Node000003_Node000004" class="edge">
<title>Node3&#45;&gt;Node4</title>
<g id="a_edge3_Node000003_Node000004"><a xlink:title=" ">
<path fill="none" stroke="#63b8ff" d="M308.19,-16C316.14,-16 324.3,-16 332.39,-16"/>
<polygon fill="#63b8ff" stroke="#63b8ff" points="332.23,-19.5 342.23,-16 332.23,-12.5 332.23,-19.5"/>
</a>
</g>
</g>
</g>
</svg>
