<?xml version="1.0" encoding="UTF-8" standalone="no"?>
<!DOCTYPE svg PUBLIC "-//W3C//DTD SVG 1.1//EN"
 "http://www.w3.org/Graphics/SVG/1.1/DTD/svg11.dtd">
<!-- Generated by graphviz version 12.2.1 (20241206.2353)
 -->
<!-- Title: WPR.Controllers.General.SignUp.SignUpController.SignUp Pages: 1 -->
<svg width="568pt" height="146pt"
 viewBox="0.00 0.00 568.25 146.00" xmlns="http://www.w3.org/2000/svg" xmlns:xlink="http://www.w3.org/1999/xlink">
<g id="graph0" class="graph" transform="scale(1 1) rotate(0) translate(4 142)">
<title>WPR.Controllers.General.SignUp.SignUpController.SignUp</title>
<!-- Node1 -->
<g id="Node000001" class="node">
<title>Node1</title>
<g id="a_Node000001"><a xlink:title="Registreert een nieuwe gebruiker met zowel persoonlijke als zakelijke gegevens.">
<polygon fill="#999999" stroke="#666666" points="160.75,-66 0,-66 0,-34 160.75,-34 160.75,-66"/>
<text text-anchor="start" x="8" y="-52.5" font-family="Helvetica,sans-Serif" font-size="10.00">WPR.Controllers.General.</text>
<text text-anchor="middle" x="80.38" y="-40.5" font-family="Helvetica,sans-Serif" font-size="10.00">SignUp.SignUpController.SignUp</text>
</a>
</g>
</g>
<!-- Node2 -->
<g id="Node000002" class="node">
<title>Node2</title>
<g id="a_Node000002"><a xlink:href="namespace_w_p_r_1_1_controllers_1_1_general_1_1_sign_up.html#aa900677400c93afffd84ac3aba306774" target="_top" xlink:title=" ">
<polygon fill="white" stroke="#666666" points="361.25,-66 196.75,-66 196.75,-34 361.25,-34 361.25,-66"/>
<text text-anchor="start" x="204.75" y="-52.5" font-family="Helvetica,sans-Serif" font-size="10.00">WPR.Controllers.General.</text>
<text text-anchor="middle" x="279" y="-40.5" font-family="Helvetica,sans-Serif" font-size="10.00">SignUp.CombinedSignUpRequest</text>
</a>
</g>
</g>
<!-- Node1&#45;&gt;Node2 -->
<g id="edge1_Node000001_Node000002" class="edge">
<title>Node1&#45;&gt;Node2</title>
<g id="a_edge1_Node000001_Node000002"><a xlink:title=" ">
<path fill="none" stroke="#63b8ff" d="M161.07,-50C168.95,-50 177.01,-50 185.01,-50"/>
<polygon fill="#63b8ff" stroke="#63b8ff" points="184.76,-53.5 194.76,-50 184.76,-46.5 184.76,-53.5"/>
</a>
</g>
</g>
<!-- Node3 -->
<g id="Node000003" class="node">
<title>Node3</title>
<g id="a_Node000003"><a xlink:href="namespace_w_p_r_1_1_controllers_1_1_general_1_1_sign_up.html#abf09877e4843c0b4ff2791cc32242102" target="_top" xlink:title=" ">
<polygon fill="white" stroke="#666666" points="560.25,-120 397.25,-120 397.25,-88 560.25,-88 560.25,-120"/>
<text text-anchor="start" x="405.25" y="-106.5" font-family="Helvetica,sans-Serif" font-size="10.00">WPR.Controllers.General.</text>
<text text-anchor="middle" x="478.75" y="-94.5" font-family="Helvetica,sans-Serif" font-size="10.00">SignUp.SignUpRequestCustomer</text>
</a>
</g>
</g>
<!-- Node1&#45;&gt;Node3 -->
<g id="edge7_Node000001_Node000003" class="edge">
<title>Node1&#45;&gt;Node3</title>
<g id="a_edge7_Node000001_Node000003"><a xlink:title=" ">
<path fill="none" stroke="#63b8ff" d="M116.63,-66.48C139.05,-76.11 168.98,-87.43 196.75,-93 259,-105.48 330.51,-108.12 385.82,-107.7"/>
<polygon fill="#63b8ff" stroke="#63b8ff" points="385.54,-111.2 395.5,-107.59 385.46,-104.2 385.54,-111.2"/>
</a>
</g>
</g>
<!-- Node4 -->
<g id="Node000004" class="node">
<title>Node4</title>
<g id="a_Node000004"><a xlink:href="namespace_w_p_r_1_1_controllers_1_1_general_1_1_sign_up.html#ab012081435b4392bd8e6e4525e336d68" target="_top" xlink:title=" ">
<polygon fill="white" stroke="#666666" points="560.25,-44 397.25,-44 397.25,0 560.25,0 560.25,-44"/>
<text text-anchor="start" x="405.25" y="-30.5" font-family="Helvetica,sans-Serif" font-size="10.00">WPR.Controllers.General.</text>
<text text-anchor="start" x="405.25" y="-18.5" font-family="Helvetica,sans-Serif" font-size="10.00">SignUp.SignUpRequestCustomer</text>
<text text-anchor="middle" x="478.75" y="-6.5" font-family="Helvetica,sans-Serif" font-size="10.00">Private</text>
</a>
</g>
</g>
<!-- Node1&#45;&gt;Node4 -->
<g id="edge8_Node000001_Node000004" class="edge">
<title>Node1&#45;&gt;Node4</title>
<g id="a_edge8_Node000001_Node000004"><a xlink:title=" ">
<path fill="none" stroke="#63b8ff" d="M146.28,-33.53C162.64,-30.04 180.25,-26.86 196.75,-25 259.44,-17.95 330.49,-17.25 385.46,-18.29"/>
<polygon fill="#63b8ff" stroke="#63b8ff" points="385.35,-21.79 395.42,-18.51 385.5,-14.79 385.35,-21.79"/>
</a>
</g>
</g>
<!-- Node2&#45;&gt;Node2 -->
<g id="edge2_Node000002_Node000002" class="edge">
<title>Node2&#45;&gt;Node2</title>
<g id="a_edge2_Node000002_Node000002"><a xlink:title=" ">
<path fill="none" stroke="#63b8ff" d="M243.54,-66.44C236.92,-75.58 248.74,-84 279,-84 295.55,-84 306.58,-81.48 312.1,-77.71"/>
<polygon fill="#63b8ff" stroke="#63b8ff" points="315.52,-78.43 314.15,-67.92 308.67,-76.99 315.52,-78.43"/>
</a>
</g>
</g>
<!-- Node2&#45;&gt;Node3 -->
<g id="edge3_Node000002_Node000003" class="edge">
<title>Node2&#45;&gt;Node3</title>
<g id="a_edge3_Node000002_Node000003"><a xlink:title=" ">
<path fill="none" stroke="#63b8ff" d="M340.41,-66.5C361.2,-72.17 384.69,-78.59 406.28,-84.48"/>
<polygon fill="#63b8ff" stroke="#63b8ff" points="405.34,-87.86 415.91,-87.11 407.19,-81.1 405.34,-87.86"/>
</a>
</g>
</g>
<!-- Node2&#45;&gt;Node4 -->
<g id="edge5_Node000002_Node000004" class="edge">
<title>Node2&#45;&gt;Node4</title>
<g id="a_edge5_Node000002_Node000004"><a xlink:title=" ">
<path fill="none" stroke="#63b8ff" d="M361.57,-38.45C369.53,-37.32 377.64,-36.18 385.69,-35.04"/>
<polygon fill="#63b8ff" stroke="#63b8ff" points="386.09,-38.51 395.5,-33.65 385.11,-31.58 386.09,-38.51"/>
</a>
</g>
</g>
<!-- Node3&#45;&gt;Node3 -->
<g id="edge4_Node000003_Node000003" class="edge">
<title>Node3&#45;&gt;Node3</title>
<g id="a_edge4_Node000003_Node000003"><a xlink:title=" ">
<path fill="none" stroke="#63b8ff" d="M443.09,-120.44C436.43,-129.58 448.32,-138 478.75,-138 495.39,-138 506.49,-135.48 512.04,-131.71"/>
<polygon fill="#63b8ff" stroke="#63b8ff" points="515.46,-132.43 514.1,-121.92 508.61,-130.99 515.46,-132.43"/>
</a>
</g>
</g>
<!-- Node4&#45;&gt;Node4 -->
<g id="edge6_Node000004_Node000004" class="edge">
<title>Node4&#45;&gt;Node4</title>
<g id="a_edge6_Node000004_Node000004"><a xlink:title=" ">
<path fill="none" stroke="#63b8ff" d="M441.74,-44.21C438.72,-53.8 451.05,-62 478.75,-62 495.2,-62 506.23,-59.11 511.84,-54.75"/>
<polygon fill="#63b8ff" stroke="#63b8ff" points="515.03,-56.22 515.23,-45.63 508.46,-53.79 515.03,-56.22"/>
</a>
</g>
</g>
</g>
</svg>
