<?xml version="1.0" encoding="UTF-8" standalone="no"?>
<!DOCTYPE svg PUBLIC "-//W3C//DTD SVG 1.1//EN"
 "http://www.w3.org/Graphics/SVG/1.1/DTD/svg11.dtd">
<!-- Generated by graphviz version 12.2.1 (20241206.2353)
 -->
<!-- Title: WPR.Repository.ContractRepository Pages: 1 -->
<svg width="312pt" height="208pt"
 viewBox="0.00 0.00 311.75 208.00" xmlns="http://www.w3.org/2000/svg" xmlns:xlink="http://www.w3.org/1999/xlink">
<g id="graph0" class="graph" transform="scale(1 1) rotate(0) translate(4 204)">
<title>WPR.Repository.ContractRepository</title>
<!-- Node1 -->
<g id="Node000001" class="node">
<title>Node1</title>
<g id="a_Node000001"><a xlink:title=" ">
<polygon fill="#999999" stroke="none" points="243.38,-84 74.12,-84 74.12,0 243.38,0 243.38,-84"/>
<text text-anchor="start" x="78.12" y="-70.5" font-family="Helvetica,sans-Serif" font-size="10.00">WPR.Repository.ContractRepository</text>
<text text-anchor="start" x="157.25" y="-54.5" font-family="Helvetica,sans-Serif" font-size="10.00"> </text>
<text text-anchor="start" x="81.06" y="-38.5" font-family="Helvetica,sans-Serif" font-size="10.00">+</text>
<text text-anchor="start" x="94" y="-38.5" font-family="Helvetica,sans-Serif" font-size="10.00">ContractRepository()</text>
<text text-anchor="start" x="81.06" y="-22.5" font-family="Helvetica,sans-Serif" font-size="10.00">+</text>
<text text-anchor="start" x="94" y="-22.5" font-family="Helvetica,sans-Serif" font-size="10.00">GetContractsSendEmailAsync()</text>
<text text-anchor="start" x="81.06" y="-6.5" font-family="Helvetica,sans-Serif" font-size="10.00">+</text>
<text text-anchor="start" x="94" y="-6.5" font-family="Helvetica,sans-Serif" font-size="10.00">GetContractInfoAsync()</text>
<polygon fill="#666666" stroke="#666666" points="74.12,-66 74.12,-66 243.38,-66 243.38,-66 74.12,-66"/>
<polygon fill="#666666" stroke="#666666" points="74.12,-50 74.12,-50 243.38,-50 243.38,-50 74.12,-50"/>
<polygon fill="none" stroke="#666666" points="74.12,0 74.12,-84 243.38,-84 243.38,0 74.12,0"/>
</a>
</g>
</g>
<!-- Node2 -->
<g id="Node000002" class="node">
<title>Node2</title>
<g id="a_Node000002"><a xlink:href="interface_w_p_r_1_1_repository_1_1_i_contract_repository.html" target="_top" xlink:title=" ">
<polygon fill="white" stroke="none" points="157.5,-200 0,-200 0,-132 157.5,-132 157.5,-200"/>
<text text-anchor="start" x="34.88" y="-186.5" font-family="Helvetica,sans-Serif" font-size="10.00">IContractRepository</text>
<text text-anchor="start" x="77.25" y="-170.5" font-family="Helvetica,sans-Serif" font-size="10.00"> </text>
<text text-anchor="start" x="4" y="-154.5" font-family="Helvetica,sans-Serif" font-size="10.00">+</text>
<text text-anchor="start" x="14" y="-154.5" font-family="Helvetica,sans-Serif" font-size="10.00">GetContractsSendEmailAsync()</text>
<text text-anchor="start" x="4" y="-138.5" font-family="Helvetica,sans-Serif" font-size="10.00">+</text>
<text text-anchor="start" x="14" y="-138.5" font-family="Helvetica,sans-Serif" font-size="10.00">GetContractInfoAsync()</text>
<polygon fill="#666666" stroke="#666666" points="0,-182 0,-182 157.5,-182 157.5,-182 0,-182"/>
<polygon fill="#666666" stroke="#666666" points="0,-166 0,-166 157.5,-166 157.5,-166 0,-166"/>
<polygon fill="none" stroke="#666666" points="0,-132 0,-200 157.5,-200 157.5,-132 0,-132"/>
</a>
</g>
</g>
<!-- Node2&#45;&gt;Node1 -->
<g id="edge1_Node000001_Node000002" class="edge">
<title>Node2&#45;&gt;Node1</title>
<g id="a_edge1_Node000001_Node000002"><a xlink:title=" ">
<path fill="none" stroke="#63b8ff" d="M106.38,-122.87C114.71,-110.16 123.83,-96.25 132.1,-83.64"/>
<polygon fill="none" stroke="#63b8ff" points="103.58,-120.76 101.02,-131.04 109.43,-124.6 103.58,-120.76"/>
</a>
</g>
</g>
<!-- Node3 -->
<g id="Node000003" class="node">
<title>Node3</title>
<g id="a_Node000003"><a xlink:href="interface_w_p_r_1_1_database_1_1_i_connector.html" target="_top" xlink:title="Connector class om verbinding te maken met de database, maakt gebruik van de connectie strings die zi...">
<polygon fill="white" stroke="none" points="303.75,-192 175.75,-192 175.75,-140 303.75,-140 303.75,-192"/>
<text text-anchor="start" x="179.75" y="-178.5" font-family="Helvetica,sans-Serif" font-size="10.00">WPR.Database.IConnector</text>
<text text-anchor="start" x="238.25" y="-162.5" font-family="Helvetica,sans-Serif" font-size="10.00"> </text>
<text text-anchor="start" x="182.88" y="-146.5" font-family="Helvetica,sans-Serif" font-size="10.00">+</text>
<text text-anchor="start" x="196" y="-146.5" font-family="Helvetica,sans-Serif" font-size="10.00">CreateDbConnection()</text>
<polygon fill="#666666" stroke="#666666" points="175.75,-174 175.75,-174 303.75,-174 303.75,-174 175.75,-174"/>
<polygon fill="#666666" stroke="#666666" points="175.75,-158 175.75,-158 303.75,-158 303.75,-158 175.75,-158"/>
<polygon fill="none" stroke="#666666" points="175.75,-140 175.75,-192 303.75,-192 303.75,-140 175.75,-140"/>
</a>
</g>
</g>
<!-- Node3&#45;&gt;Node1 -->
<g id="edge2_Node000001_Node000003" class="edge">
<title>Node3&#45;&gt;Node1</title>
<g id="a_edge2_Node000001_Node000003"><a xlink:title=" ">
<path fill="none" stroke="#63b8ff" d="M223.16,-140.02C214.44,-126.88 203.41,-110.26 192.95,-94.51"/>
<polygon fill="none" stroke="#63b8ff" points="192.97,-94.55 186.32,-91.76 186.34,-84.55 192.99,-87.34 192.97,-94.55"/>
</a>
</g>
<text text-anchor="middle" x="231.1" y="-104.5" font-family="Helvetica,sans-Serif" font-size="10.00" fill="grey"> &#45;_connector</text>
</g>
</g>
</svg>
