<?xml version="1.0" encoding="UTF-8" standalone="no"?>
<!DOCTYPE svg PUBLIC "-//W3C//DTD SVG 1.1//EN"
 "http://www.w3.org/Graphics/SVG/1.1/DTD/svg11.dtd">
<!-- Generated by graphviz version 12.2.1 (20241206.2353)
 -->
<!-- Title: WPR.Controllers.General.Login.LoginRequest Pages: 1 -->
<svg width="130pt" height="104pt"
 viewBox="0.00 0.00 130.00 104.00" xmlns="http://www.w3.org/2000/svg" xmlns:xlink="http://www.w3.org/1999/xlink">
<g id="graph0" class="graph" transform="scale(1 1) rotate(0) translate(4 100)">
<title>WPR.Controllers.General.Login.LoginRequest</title>
<!-- Node1 -->
<g id="Node000001" class="node">
<title>Node1</title>
<g id="a_Node000001"><a xlink:title="Body voor LoginRequest.">
<polygon fill="#999999" stroke="none" points="122,-96 0,-96 0,0 122,0 122,-96"/>
<text text-anchor="start" x="4" y="-82.5" font-family="Helvetica,sans-Serif" font-size="10.00">WPR.Controllers.General.</text>
<text text-anchor="start" x="17.88" y="-70.5" font-family="Helvetica,sans-Serif" font-size="10.00">Login.LoginRequest</text>
<text text-anchor="start" x="19.12" y="-54.5" font-family="Helvetica,sans-Serif" font-size="10.00">+</text>
<text text-anchor="start" x="44.25" y="-54.5" font-family="Helvetica,sans-Serif" font-size="10.00">Email</text>
<text text-anchor="start" x="19.12" y="-38.5" font-family="Helvetica,sans-Serif" font-size="10.00">+</text>
<text text-anchor="start" x="44.25" y="-38.5" font-family="Helvetica,sans-Serif" font-size="10.00">Password</text>
<text text-anchor="start" x="19.12" y="-22.5" font-family="Helvetica,sans-Serif" font-size="10.00">+</text>
<text text-anchor="start" x="44.25" y="-22.5" font-family="Helvetica,sans-Serif" font-size="10.00">UserType</text>
<text text-anchor="start" x="59.5" y="-6.5" font-family="Helvetica,sans-Serif" font-size="10.00"> </text>
<polygon fill="#666666" stroke="#666666" points="0,-66 0,-66 122,-66 122,-66 0,-66"/>
<polygon fill="#666666" stroke="#666666" points="0,-18 0,-18 42.25,-18 42.25,-18 0,-18"/>
<polygon fill="#666666" stroke="#666666" points="42.25,-18 42.25,-18 122,-18 122,-18 42.25,-18"/>
<polygon fill="none" stroke="#666666" points="0,0 0,-96 122,-96 122,0 0,0"/>
</a>
</g>
</g>
</g>
</svg>
