<?xml version="1.0" encoding="UTF-8" standalone="no"?>
<!DOCTYPE svg PUBLIC "-//W3C//DTD SVG 1.1//EN"
 "http://www.w3.org/Graphics/SVG/1.1/DTD/svg11.dtd">
<!-- Generated by graphviz version 12.2.1 (20241206.2353)
 -->
<!-- Title: WPR.Controllers.General.Login.LoginController Pages: 1 -->
<svg width="663pt" height="624pt"
 viewBox="0.00 0.00 662.75 624.00" xmlns="http://www.w3.org/2000/svg" xmlns:xlink="http://www.w3.org/1999/xlink">
<g id="graph0" class="graph" transform="scale(1 1) rotate(0) translate(4 620)">
<title>WPR.Controllers.General.Login.LoginController</title>
<!-- Node1 -->
<g id="Node000001" class="node">
<title>Node1</title>
<g id="a_Node000001"><a xlink:title="LoginController zorgt ervoor dat een gebruiker kan inloggen, daarnaast wordt er ook gekeken of de geb...">
<polygon fill="#999999" stroke="none" points="406.62,-160 249.88,-160 249.88,0 406.62,0 406.62,-160"/>
<text text-anchor="start" x="271.25" y="-146.5" font-family="Helvetica,sans-Serif" font-size="10.00">WPR.Controllers.General.</text>
<text text-anchor="start" x="282.5" y="-134.5" font-family="Helvetica,sans-Serif" font-size="10.00">Login.LoginController</text>
<text text-anchor="start" x="326.75" y="-118.5" font-family="Helvetica,sans-Serif" font-size="10.00"> </text>
<text text-anchor="start" x="253.88" y="-102.5" font-family="Helvetica,sans-Serif" font-size="10.00">+</text>
<text text-anchor="start" x="263.88" y="-102.5" font-family="Helvetica,sans-Serif" font-size="10.00">LoginController()</text>
<text text-anchor="start" x="253.88" y="-86.5" font-family="Helvetica,sans-Serif" font-size="10.00">+</text>
<text text-anchor="start" x="263.88" y="-86.5" font-family="Helvetica,sans-Serif" font-size="10.00">CheckSession()</text>
<text text-anchor="start" x="253.88" y="-70.5" font-family="Helvetica,sans-Serif" font-size="10.00">+</text>
<text text-anchor="start" x="263.88" y="-70.5" font-family="Helvetica,sans-Serif" font-size="10.00">CheckSessionStaff()</text>
<text text-anchor="start" x="253.88" y="-54.5" font-family="Helvetica,sans-Serif" font-size="10.00">+</text>
<text text-anchor="start" x="263.88" y="-54.5" font-family="Helvetica,sans-Serif" font-size="10.00">CheckSessionVehicleManager()</text>
<text text-anchor="start" x="253.88" y="-38.5" font-family="Helvetica,sans-Serif" font-size="10.00">+</text>
<text text-anchor="start" x="263.88" y="-38.5" font-family="Helvetica,sans-Serif" font-size="10.00">LoginAsync()</text>
<text text-anchor="start" x="255.38" y="-22.5" font-family="Helvetica,sans-Serif" font-size="10.00">&#45;</text>
<text text-anchor="start" x="263.88" y="-22.5" font-family="Helvetica,sans-Serif" font-size="10.00">RemoveOldCookieAsync()</text>
<text text-anchor="start" x="255.38" y="-6.5" font-family="Helvetica,sans-Serif" font-size="10.00">&#45;</text>
<text text-anchor="start" x="263.88" y="-6.5" font-family="Helvetica,sans-Serif" font-size="10.00">SetCookieAsync()</text>
<polygon fill="#666666" stroke="#666666" points="249.88,-130 249.88,-130 406.62,-130 406.62,-130 249.88,-130"/>
<polygon fill="#666666" stroke="#666666" points="249.88,-114 249.88,-114 406.62,-114 406.62,-114 249.88,-114"/>
<polygon fill="none" stroke="#666666" points="249.88,0 249.88,-160 406.62,-160 406.62,0 249.88,0"/>
</a>
</g>
</g>
<!-- Node2 -->
<g id="Node000002" class="node">
<title>Node2</title>
<g id="a_Node000002"><a xlink:title=" ">
<polygon fill="white" stroke="none" points="72.5,-340 0,-340 0,-288 72.5,-288 72.5,-340"/>
<text text-anchor="start" x="4" y="-326.5" font-family="Helvetica,sans-Serif" font-size="10.00">ControllerBase</text>
<text text-anchor="start" x="34.75" y="-310.5" font-family="Helvetica,sans-Serif" font-size="10.00"> </text>
<text text-anchor="start" x="34.75" y="-294.5" font-family="Helvetica,sans-Serif" font-size="10.00"> </text>
<polygon fill="#666666" stroke="#666666" points="0,-322 0,-322 72.5,-322 72.5,-322 0,-322"/>
<polygon fill="#666666" stroke="#666666" points="0,-306 0,-306 72.5,-306 72.5,-306 0,-306"/>
<polygon fill="none" stroke="#666666" points="0,-288 0,-340 72.5,-340 72.5,-288 0,-288"/>
</a>
</g>
</g>
<!-- Node2&#45;&gt;Node1 -->
<g id="edge1_Node000001_Node000002" class="edge">
<title>Node2&#45;&gt;Node1</title>
<g id="a_edge1_Node000001_Node000002"><a xlink:title=" ">
<path fill="none" stroke="#63b8ff" d="M44.87,-277.28C51.7,-255.17 63.17,-227.39 81.25,-208 127.2,-158.71 196.59,-125.39 250.13,-105.29"/>
<polygon fill="none" stroke="#63b8ff" points="41.53,-276.22 42.13,-286.8 48.26,-278.16 41.53,-276.22"/>
</a>
</g>
</g>
<!-- Node3 -->
<g id="Node000003" class="node">
<title>Node3</title>
<g id="a_Node000003"><a xlink:href="interface_w_p_r_1_1_repository_1_1_i_user_repository.html" target="_top" xlink:title="Interface defining methods voor user gerelateerde database operaties, validatie, user management,...">
<polygon fill="white" stroke="none" points="246.12,-420 90.38,-420 90.38,-208 246.12,-208 246.12,-420"/>
<text text-anchor="start" x="94.38" y="-406.5" font-family="Helvetica,sans-Serif" font-size="10.00">WPR.Repository.IUserRepository</text>
<text text-anchor="start" x="166.75" y="-390.5" font-family="Helvetica,sans-Serif" font-size="10.00"> </text>
<text text-anchor="start" x="94.88" y="-374.5" font-family="Helvetica,sans-Serif" font-size="10.00">+</text>
<text text-anchor="start" x="105.38" y="-374.5" font-family="Helvetica,sans-Serif" font-size="10.00">ValidateUserAsync()</text>
<text text-anchor="start" x="94.88" y="-358.5" font-family="Helvetica,sans-Serif" font-size="10.00">+</text>
<text text-anchor="start" x="105.38" y="-358.5" font-family="Helvetica,sans-Serif" font-size="10.00">checkUsageEmailAsync()</text>
<text text-anchor="start" x="94.88" y="-342.5" font-family="Helvetica,sans-Serif" font-size="10.00">+</text>
<text text-anchor="start" x="105.38" y="-342.5" font-family="Helvetica,sans-Serif" font-size="10.00">addCustomerAsync()</text>
<text text-anchor="start" x="94.88" y="-326.5" font-family="Helvetica,sans-Serif" font-size="10.00">+</text>
<text text-anchor="start" x="105.38" y="-326.5" font-family="Helvetica,sans-Serif" font-size="10.00">addPersonalCustomerAsync()</text>
<text text-anchor="start" x="94.88" y="-310.5" font-family="Helvetica,sans-Serif" font-size="10.00">+</text>
<text text-anchor="start" x="105.38" y="-310.5" font-family="Helvetica,sans-Serif" font-size="10.00">addEmployeeCustomerAsync()</text>
<text text-anchor="start" x="94.88" y="-294.5" font-family="Helvetica,sans-Serif" font-size="10.00">+</text>
<text text-anchor="start" x="105.38" y="-294.5" font-family="Helvetica,sans-Serif" font-size="10.00">GetUserIdAsync()</text>
<text text-anchor="start" x="94.88" y="-278.5" font-family="Helvetica,sans-Serif" font-size="10.00">+</text>
<text text-anchor="start" x="105.38" y="-278.5" font-family="Helvetica,sans-Serif" font-size="10.00">GetUserNameAsync()</text>
<text text-anchor="start" x="94.88" y="-262.5" font-family="Helvetica,sans-Serif" font-size="10.00">+</text>
<text text-anchor="start" x="105.38" y="-262.5" font-family="Helvetica,sans-Serif" font-size="10.00">EditUserInfoAsync()</text>
<text text-anchor="start" x="94.88" y="-246.5" font-family="Helvetica,sans-Serif" font-size="10.00">+</text>
<text text-anchor="start" x="105.38" y="-246.5" font-family="Helvetica,sans-Serif" font-size="10.00">IsKvkNumberAsync()</text>
<text text-anchor="start" x="94.88" y="-230.5" font-family="Helvetica,sans-Serif" font-size="10.00">+</text>
<text text-anchor="start" x="105.38" y="-230.5" font-family="Helvetica,sans-Serif" font-size="10.00">IsUserEmployee()</text>
<text text-anchor="start" x="105.38" y="-214.5" font-family="Helvetica,sans-Serif" font-size="10.00">en 14 anderen...</text>
<polygon fill="#666666" stroke="#666666" points="90.38,-402 90.38,-402 246.12,-402 246.12,-402 90.38,-402"/>
<polygon fill="#666666" stroke="#666666" points="90.38,-386 90.38,-386 246.12,-386 246.12,-386 90.38,-386"/>
<polygon fill="none" stroke="#666666" points="90.38,-208 90.38,-420 246.12,-420 246.12,-208 90.38,-208"/>
</a>
</g>
</g>
<!-- Node3&#45;&gt;Node1 -->
<g id="edge2_Node000001_Node000003" class="edge">
<title>Node3&#45;&gt;Node1</title>
<g id="a_edge2_Node000001_Node000003"><a xlink:title=" ">
<path fill="none" stroke="#63b8ff" d="M226.92,-208.33C233.46,-197.93 240.21,-187.66 247,-178 248.85,-175.37 250.76,-172.72 252.71,-170.06"/>
<polygon fill="none" stroke="#63b8ff" points="252.66,-170.13 253.06,-162.93 259.86,-160.53 259.46,-167.73 252.66,-170.13"/>
</a>
</g>
<text text-anchor="middle" x="285.62" y="-180.5" font-family="Helvetica,sans-Serif" font-size="10.00" fill="grey"> &#45;_userRepository</text>
</g>
<!-- Node4 -->
<g id="Node000004" class="node">
<title>Node4</title>
<g id="a_Node000004"><a xlink:href="interface_w_p_r_1_1_database_1_1_i_connector.html" target="_top" xlink:title="Connector class om verbinding te maken met de database, maakt gebruik van de connectie strings die zi...">
<polygon fill="white" stroke="none" points="392.25,-340 264.25,-340 264.25,-288 392.25,-288 392.25,-340"/>
<text text-anchor="start" x="268.25" y="-326.5" font-family="Helvetica,sans-Serif" font-size="10.00">WPR.Database.IConnector</text>
<text text-anchor="start" x="326.75" y="-310.5" font-family="Helvetica,sans-Serif" font-size="10.00"> </text>
<text text-anchor="start" x="271.38" y="-294.5" font-family="Helvetica,sans-Serif" font-size="10.00">+</text>
<text text-anchor="start" x="284.5" y="-294.5" font-family="Helvetica,sans-Serif" font-size="10.00">CreateDbConnection()</text>
<polygon fill="#666666" stroke="#666666" points="264.25,-322 264.25,-322 392.25,-322 392.25,-322 264.25,-322"/>
<polygon fill="#666666" stroke="#666666" points="264.25,-306 264.25,-306 392.25,-306 392.25,-306 264.25,-306"/>
<polygon fill="none" stroke="#666666" points="264.25,-288 264.25,-340 392.25,-340 392.25,-288 264.25,-288"/>
</a>
</g>
</g>
<!-- Node4&#45;&gt;Node1 -->
<g id="edge3_Node000001_Node000004" class="edge">
<title>Node4&#45;&gt;Node1</title>
<g id="a_edge3_Node000001_Node000004"><a xlink:title=" ">
<path fill="none" stroke="#63b8ff" d="M328.25,-288.17C328.25,-260.58 328.25,-214.38 328.25,-172.61"/>
<polygon fill="none" stroke="#63b8ff" points="328.25,-172.71 324.25,-166.71 328.25,-160.71 332.25,-166.71 328.25,-172.71"/>
</a>
</g>
<text text-anchor="middle" x="355.25" y="-180.5" font-family="Helvetica,sans-Serif" font-size="10.00" fill="grey"> &#45;_connector</text>
</g>
<!-- Node5 -->
<g id="Node000005" class="node">
<title>Node5</title>
<g id="a_Node000005"><a xlink:href="class_w_p_r_1_1_controllers_1_1_general_1_1_cookie_1_1_session_handler.html" target="_top" xlink:title="SessionHandler zorgt ervoor dat er cookies aangemaakt kunnen worden op een simpele manier.">
<polygon fill="white" stroke="none" points="532.25,-370 410.25,-370 410.25,-258 532.25,-258 532.25,-370"/>
<text text-anchor="start" x="414.25" y="-356.5" font-family="Helvetica,sans-Serif" font-size="10.00">WPR.Controllers.General.</text>
<text text-anchor="start" x="419.88" y="-344.5" font-family="Helvetica,sans-Serif" font-size="10.00">Cookie.SessionHandler</text>
<text text-anchor="start" x="418.12" y="-328.5" font-family="Helvetica,sans-Serif" font-size="10.00">&#45;</text>
<text text-anchor="start" x="429" y="-328.5" font-family="Helvetica,sans-Serif" font-size="10.00">disposedValue</text>
<text text-anchor="start" x="416.62" y="-312.5" font-family="Helvetica,sans-Serif" font-size="10.00">+</text>
<text text-anchor="start" x="429" y="-312.5" font-family="Helvetica,sans-Serif" font-size="10.00">CreateCookie()</text>
<text text-anchor="start" x="416.62" y="-296.5" font-family="Helvetica,sans-Serif" font-size="10.00">+</text>
<text text-anchor="start" x="429" y="-296.5" font-family="Helvetica,sans-Serif" font-size="10.00">CreateInvalidCookie()</text>
<text text-anchor="start" x="416.62" y="-280.5" font-family="Helvetica,sans-Serif" font-size="10.00">+</text>
<text text-anchor="start" x="429" y="-280.5" font-family="Helvetica,sans-Serif" font-size="10.00">Dispose()</text>
<text text-anchor="start" x="417" y="-264.5" font-family="Helvetica,sans-Serif" font-size="10.00">#</text>
<text text-anchor="start" x="429" y="-264.5" font-family="Helvetica,sans-Serif" font-size="10.00">Dispose()</text>
<polygon fill="#666666" stroke="#666666" points="410.25,-340 410.25,-340 532.25,-340 532.25,-340 410.25,-340"/>
<polygon fill="#666666" stroke="#666666" points="410.25,-324 410.25,-324 427,-324 427,-324 410.25,-324"/>
<polygon fill="#666666" stroke="#666666" points="427,-324 427,-324 532.25,-324 532.25,-324 427,-324"/>
<polygon fill="none" stroke="#666666" points="410.25,-258 410.25,-370 532.25,-370 532.25,-258 410.25,-258"/>
</a>
</g>
</g>
<!-- Node5&#45;&gt;Node1 -->
<g id="edge4_Node000001_Node000005" class="edge">
<title>Node5&#45;&gt;Node1</title>
<g id="a_edge4_Node000001_Node000005"><a xlink:title=" ">
<path fill="none" stroke="#63b8ff" d="M437.36,-258.02C421.25,-231.88 401.58,-199.97 383.4,-170.48"/>
<polygon fill="none" stroke="#63b8ff" points="383.55,-170.72 377,-167.71 377.25,-160.5 383.81,-163.51 383.55,-170.72"/>
</a>
</g>
<text text-anchor="middle" x="430.56" y="-180.5" font-family="Helvetica,sans-Serif" font-size="10.00" fill="grey"> &#45;_sessionHandler</text>
</g>
<!-- Node6 -->
<g id="Node000006" class="node">
<title>Node6</title>
<g id="a_Node000006"><a xlink:title=" ">
<polygon fill="white" stroke="none" points="501.12,-568 441.38,-568 441.38,-516 501.12,-516 501.12,-568"/>
<text text-anchor="start" x="445.38" y="-554.5" font-family="Helvetica,sans-Serif" font-size="10.00">IDisposable</text>
<text text-anchor="start" x="469.75" y="-538.5" font-family="Helvetica,sans-Serif" font-size="10.00"> </text>
<text text-anchor="start" x="469.75" y="-522.5" font-family="Helvetica,sans-Serif" font-size="10.00"> </text>
<polygon fill="#666666" stroke="#666666" points="441.38,-550 441.38,-550 501.12,-550 501.12,-550 441.38,-550"/>
<polygon fill="#666666" stroke="#666666" points="441.38,-534 441.38,-534 501.12,-534 501.12,-534 441.38,-534"/>
<polygon fill="none" stroke="#666666" points="441.38,-516 441.38,-568 501.12,-568 501.12,-516 441.38,-516"/>
</a>
</g>
</g>
<!-- Node6&#45;&gt;Node5 -->
<g id="edge5_Node000005_Node000006" class="edge">
<title>Node6&#45;&gt;Node5</title>
<g id="a_edge5_Node000005_Node000006"><a xlink:title=" ">
<path fill="none" stroke="#63b8ff" d="M471.25,-505.31C471.25,-468.84 471.25,-411.72 471.25,-369.57"/>
<polygon fill="none" stroke="#63b8ff" points="467.75,-504.87 471.25,-514.87 474.75,-504.87 467.75,-504.87"/>
</a>
</g>
</g>
<!-- Node7 -->
<g id="Node000007" class="node">
<title>Node7</title>
<g id="a_Node000007"><a xlink:href="class_w_p_r_1_1_cryption_1_1_crypt.html" target="_top" xlink:title="Class Crypt zorgt voor een veilig encryptie en decryptie van strings. De Crptie wordt gedaan door het...">
<polygon fill="white" stroke="none" points="648.62,-364 549.88,-364 549.88,-264 648.62,-264 648.62,-364"/>
<text text-anchor="start" x="553.88" y="-350.5" font-family="Helvetica,sans-Serif" font-size="10.00">WPR.Cryption.Crypt</text>
<text text-anchor="start" x="565.44" y="-334.5" font-family="Helvetica,sans-Serif" font-size="10.00">&#45;</text>
<text text-anchor="start" x="584" y="-334.5" font-family="Helvetica,sans-Serif" font-size="10.00">_key</text>
<text text-anchor="start" x="565.44" y="-318.5" font-family="Helvetica,sans-Serif" font-size="10.00">&#45;</text>
<text text-anchor="start" x="584" y="-318.5" font-family="Helvetica,sans-Serif" font-size="10.00">_IV</text>
<text text-anchor="start" x="563.94" y="-302.5" font-family="Helvetica,sans-Serif" font-size="10.00">+</text>
<text text-anchor="start" x="584" y="-302.5" font-family="Helvetica,sans-Serif" font-size="10.00">Crypt()</text>
<text text-anchor="start" x="563.94" y="-286.5" font-family="Helvetica,sans-Serif" font-size="10.00">+</text>
<text text-anchor="start" x="584" y="-286.5" font-family="Helvetica,sans-Serif" font-size="10.00">Encrypt()</text>
<text text-anchor="start" x="563.94" y="-270.5" font-family="Helvetica,sans-Serif" font-size="10.00">+</text>
<text text-anchor="start" x="584" y="-270.5" font-family="Helvetica,sans-Serif" font-size="10.00">Decrypt()</text>
<polygon fill="#666666" stroke="#666666" points="549.88,-346 549.88,-346 648.62,-346 648.62,-346 549.88,-346"/>
<polygon fill="#666666" stroke="#666666" points="549.88,-314 549.88,-314 582,-314 582,-314 549.88,-314"/>
<polygon fill="#666666" stroke="#666666" points="582,-314 582,-314 648.62,-314 648.62,-314 582,-314"/>
<polygon fill="none" stroke="#666666" points="549.88,-264 549.88,-364 648.62,-364 648.62,-264 549.88,-264"/>
</a>
</g>
</g>
<!-- Node7&#45;&gt;Node1 -->
<g id="edge6_Node000001_Node000007" class="edge">
<title>Node7&#45;&gt;Node1</title>
<g id="a_edge6_Node000001_Node000007"><a xlink:title=" ">
<path fill="none" stroke="#63b8ff" d="M579.06,-264.24C569.54,-245.18 556.82,-224.09 541.25,-208 506.36,-171.94 459.09,-142.39 417.95,-120.9"/>
<polygon fill="none" stroke="#63b8ff" points="418.01,-120.93 410.84,-121.76 407.32,-115.46 414.49,-114.64 418.01,-120.93"/>
</a>
</g>
<text text-anchor="middle" x="538.31" y="-180.5" font-family="Helvetica,sans-Serif" font-size="10.00" fill="grey"> &#45;_crypt</text>
</g>
<!-- Node8 -->
<g id="Node000008" class="node">
<title>Node8</title>
<g id="a_Node000008"><a xlink:href="class_w_p_r_1_1_data_1_1_env_config.html" target="_top" xlink:title="Leez het .env bestand uit waarin de connectie strings staan naar de database. Deze staan in een apart...">
<polygon fill="white" stroke="none" points="652.12,-616 546.38,-616 546.38,-468 652.12,-468 652.12,-616"/>
<text text-anchor="start" x="550.88" y="-602.5" font-family="Helvetica,sans-Serif" font-size="10.00">WPR.Data.EnvConfig</text>
<text text-anchor="start" x="551.88" y="-586.5" font-family="Helvetica,sans-Serif" font-size="10.00">&#45;</text>
<text text-anchor="start" x="560.38" y="-586.5" font-family="Helvetica,sans-Serif" font-size="10.00">_configuration</text>
<text text-anchor="start" x="550.38" y="-570.5" font-family="Helvetica,sans-Serif" font-size="10.00">+</text>
<text text-anchor="start" x="560.38" y="-570.5" font-family="Helvetica,sans-Serif" font-size="10.00">EnvConfig()</text>
<text text-anchor="start" x="550.38" y="-554.5" font-family="Helvetica,sans-Serif" font-size="10.00">+</text>
<text text-anchor="start" x="560.38" y="-554.5" font-family="Helvetica,sans-Serif" font-size="10.00">Get()</text>
<text text-anchor="start" x="550.38" y="-538.5" font-family="Helvetica,sans-Serif" font-size="10.00">+</text>
<text text-anchor="start" x="560.38" y="-538.5" font-family="Helvetica,sans-Serif" font-size="10.00">IsConfigured()</text>
<text text-anchor="start" x="550.38" y="-522.5" font-family="Helvetica,sans-Serif" font-size="10.00">+</text>
<text text-anchor="start" x="560.38" y="-522.5" font-family="Helvetica,sans-Serif" font-size="10.00">GetSmtpHost()</text>
<text text-anchor="start" x="550.38" y="-506.5" font-family="Helvetica,sans-Serif" font-size="10.00">+</text>
<text text-anchor="start" x="560.38" y="-506.5" font-family="Helvetica,sans-Serif" font-size="10.00">GetSmtpPort()</text>
<text text-anchor="start" x="550.38" y="-490.5" font-family="Helvetica,sans-Serif" font-size="10.00">+</text>
<text text-anchor="start" x="560.38" y="-490.5" font-family="Helvetica,sans-Serif" font-size="10.00">GetFromEmail()</text>
<text text-anchor="start" x="550.38" y="-474.5" font-family="Helvetica,sans-Serif" font-size="10.00">+</text>
<text text-anchor="start" x="560.38" y="-474.5" font-family="Helvetica,sans-Serif" font-size="10.00">GetFromPassword()</text>
<polygon fill="#666666" stroke="#666666" points="546.38,-598 546.38,-598 652.12,-598 652.12,-598 546.38,-598"/>
<polygon fill="#666666" stroke="#666666" points="546.38,-582 546.38,-582 558.38,-582 558.38,-582 546.38,-582"/>
<polygon fill="#666666" stroke="#666666" points="558.38,-582 558.38,-582 652.12,-582 652.12,-582 558.38,-582"/>
<polygon fill="none" stroke="#666666" points="546.38,-468 546.38,-616 652.12,-616 652.12,-468 546.38,-468"/>
</a>
</g>
</g>
<!-- Node8&#45;&gt;Node7 -->
<g id="edge7_Node000007_Node000008" class="edge">
<title>Node8&#45;&gt;Node7</title>
<g id="a_edge7_Node000007_Node000008"><a xlink:title=" ">
<path fill="none" stroke="#63b8ff" d="M599.25,-468.25C599.25,-438.73 599.25,-404.99 599.25,-376.7"/>
<polygon fill="none" stroke="#63b8ff" points="599.25,-376.61 595.25,-370.61 599.25,-364.61 603.25,-370.61 599.25,-376.61"/>
</a>
</g>
<text text-anchor="middle" x="627" y="-440.5" font-family="Helvetica,sans-Serif" font-size="10.00" fill="grey"> &#45;_envConfig</text>
</g>
</g>
</svg>
