<?xml version="1.0" encoding="UTF-8" standalone="no"?>
<!DOCTYPE svg PUBLIC "-//W3C//DTD SVG 1.1//EN"
 "http://www.w3.org/Graphics/SVG/1.1/DTD/svg11.dtd">
<!-- Generated by graphviz version 12.2.1 (20241206.2353)
 -->
<!-- Title: WPR.Controllers.Customer.ChangeUserSettings.ChangeUserSettingsController Pages: 1 -->
<svg width="201pt" height="252pt"
 viewBox="0.00 0.00 200.50 252.00" xmlns="http://www.w3.org/2000/svg" xmlns:xlink="http://www.w3.org/1999/xlink">

<svg id="main" version="1.1" xmlns="http://www.w3.org/2000/svg" xmlns:xlink="http://www.w3.org/1999/xlink" xml:space="preserve">

<style type="text/css"><![CDATA[
.node, .edge {opacity: 0.7;}
.node.selected, .edge.selected {opacity: 1;}
.edge:hover path { stroke: red; }
.edge:hover polygon { stroke: red; fill: red; }
]]></style>
<script type="application/ecmascript" xlink:href="svg.min.js"/>
<svg id="graph" class="graph">
<g id="graph0" class="graph" transform="scale(1 1) rotate(0) translate(4 248)">
<title>WPR.Controllers.Customer.ChangeUserSettings.ChangeUserSettingsController</title>
<!-- Node1 -->
<g id="Node000001" class="node">
<title>Node1</title>
<g id="a_Node000001"><a xlink:title="ChangeUserSettingsController is de controller die aanvragen van buitenaf ontvangt en vervolgens gegev...">
<polygon fill="#999999" stroke="none" points="192.5,-156 0,-156 0,0 192.5,0 192.5,-156"/>
<text text-anchor="start" x="4" y="-142.5" font-family="Helvetica,sans-Serif" font-size="10.00">WPR.Controllers.Customer.</text>
<text text-anchor="start" x="4" y="-130.5" font-family="Helvetica,sans-Serif" font-size="10.00">ChangeUserSettings.ChangeUserSettings</text>
<text text-anchor="start" x="75.25" y="-118.5" font-family="Helvetica,sans-Serif" font-size="10.00">Controller</text>
<text text-anchor="start" x="14.44" y="-102.5" font-family="Helvetica,sans-Serif" font-size="10.00">&#45;</text>
<text text-anchor="start" x="31.88" y="-102.5" font-family="Helvetica,sans-Serif" font-size="10.00">_connector</text>
<text text-anchor="start" x="14.44" y="-86.5" font-family="Helvetica,sans-Serif" font-size="10.00">&#45;</text>
<text text-anchor="start" x="31.88" y="-86.5" font-family="Helvetica,sans-Serif" font-size="10.00">_userRepository</text>
<text text-anchor="start" x="14.44" y="-70.5" font-family="Helvetica,sans-Serif" font-size="10.00">&#45;</text>
<text text-anchor="start" x="31.88" y="-70.5" font-family="Helvetica,sans-Serif" font-size="10.00">_crypt</text>
<text text-anchor="start" x="14.44" y="-54.5" font-family="Helvetica,sans-Serif" font-size="10.00">&#45;</text>
<text text-anchor="start" x="31.88" y="-54.5" font-family="Helvetica,sans-Serif" font-size="10.00">_databaseCheckRepository</text>
<text text-anchor="start" x="12.94" y="-38.5" font-family="Helvetica,sans-Serif" font-size="10.00">+</text>
<text text-anchor="start" x="31.88" y="-38.5" font-family="Helvetica,sans-Serif" font-size="10.00">ChangeUserSettingsController()</text>
<text text-anchor="start" x="12.94" y="-22.5" font-family="Helvetica,sans-Serif" font-size="10.00">+</text>
<text text-anchor="start" x="31.88" y="-22.5" font-family="Helvetica,sans-Serif" font-size="10.00">ChangeUserInfoAsync()</text>
<text text-anchor="start" x="12.94" y="-6.5" font-family="Helvetica,sans-Serif" font-size="10.00">+</text>
<text text-anchor="start" x="31.88" y="-6.5" font-family="Helvetica,sans-Serif" font-size="10.00">DeleteUserAsync()</text>
<polygon fill="#666666" stroke="#666666" points="0,-114 0,-114 192.5,-114 192.5,-114 0,-114"/>
<polygon fill="#666666" stroke="#666666" points="0,-50 0,-50 29.88,-50 29.88,-50 0,-50"/>
<polygon fill="#666666" stroke="#666666" points="29.88,-50 29.88,-50 192.5,-50 192.5,-50 29.88,-50"/>
<polygon fill="none" stroke="#666666" points="0,0 0,-156 192.5,-156 192.5,0 0,0"/>
</a>
</g>
</g>
<!-- Node2 -->
<g id="Node000002" class="node">
<title>Node2</title>
<g id="a_Node000002"><a xlink:title=" ">
<polygon fill="white" stroke="none" points="132.5,-244 60,-244 60,-192 132.5,-192 132.5,-244"/>
<text text-anchor="start" x="64" y="-230.5" font-family="Helvetica,sans-Serif" font-size="10.00">ControllerBase</text>
<text text-anchor="start" x="94.75" y="-214.5" font-family="Helvetica,sans-Serif" font-size="10.00"> </text>
<text text-anchor="start" x="94.75" y="-198.5" font-family="Helvetica,sans-Serif" font-size="10.00"> </text>
<polygon fill="#666666" stroke="#666666" points="60,-226 60,-226 132.5,-226 132.5,-226 60,-226"/>
<polygon fill="#666666" stroke="#666666" points="60,-210 60,-210 132.5,-210 132.5,-210 60,-210"/>
<polygon fill="none" stroke="#666666" points="60,-192 60,-244 132.5,-244 132.5,-192 60,-192"/>
</a>
</g>
</g>
<!-- Node2&#45;&gt;Node1 -->
<g id="edge1_Node000001_Node000002" class="edge">
<title>Node2&#45;&gt;Node1</title>
<g id="a_edge1_Node000001_Node000002"><a xlink:title=" ">
<path fill="none" stroke="#63b8ff" d="M96.25,-180.54C96.25,-172.82 96.25,-164.4 96.25,-155.82"/>
<polygon fill="none" stroke="#63b8ff" points="92.75,-180.5 96.25,-190.5 99.75,-180.5 92.75,-180.5"/>
</a>
</g>
</g>
</g>
</svg>
</svg>

<style type='text/css'>
<![CDATA[
[data-mouse-over-selected='false'] { opacity: 0.7; }
[data-mouse-over-selected='true']  { opacity: 1.0; }
]]>
</style>
<script type="application/ecmascript"><![CDATA[
document.addEventListener('DOMContentLoaded', (event) => {
  highlightEdges();
  highlightAdjacentNodes();
});
]]></script>
</svg>
