<?xml version="1.0" encoding="UTF-8" standalone="no"?>
<!DOCTYPE svg PUBLIC "-//W3C//DTD SVG 1.1//EN"
 "http://www.w3.org/Graphics/SVG/1.1/DTD/svg11.dtd">
<!-- Generated by graphviz version 12.2.1 (20241206.2353)
 -->
<!-- Title: WPR.Controllers.customer.Subscription.SubscriptionController Pages: 1 -->
<svg width="408pt" height="412pt"
 viewBox="0.00 0.00 408.00 412.00" xmlns="http://www.w3.org/2000/svg" xmlns:xlink="http://www.w3.org/1999/xlink">

<svg id="main" version="1.1" xmlns="http://www.w3.org/2000/svg" xmlns:xlink="http://www.w3.org/1999/xlink" xml:space="preserve">

<style type="text/css"><![CDATA[
.node, .edge {opacity: 0.7;}
.node.selected, .edge.selected {opacity: 1;}
.edge:hover path { stroke: red; }
.edge:hover polygon { stroke: red; fill: red; }
]]></style>
<script type="application/ecmascript" xlink:href="svg.min.js"/>
<svg id="graph" class="graph">
<g id="graph0" class="graph" transform="scale(1 1) rotate(0) translate(4 408)">
<title>WPR.Controllers.customer.Subscription.SubscriptionController</title>
<!-- Node1 -->
<g id="Node000001" class="node">
<title>Node1</title>
<g id="a_Node000001"><a xlink:title=" ">
<polygon fill="#999999" stroke="none" points="248.75,-144 87.75,-144 87.75,0 248.75,0 248.75,-144"/>
<text text-anchor="start" x="91.75" y="-130.5" font-family="Helvetica,sans-Serif" font-size="10.00">WPR.Controllers.customer.</text>
<text text-anchor="start" x="91.75" y="-118.5" font-family="Helvetica,sans-Serif" font-size="10.00">Subscription.SubscriptionController</text>
<text text-anchor="start" x="166.75" y="-102.5" font-family="Helvetica,sans-Serif" font-size="10.00"> </text>
<text text-anchor="start" x="98.25" y="-86.5" font-family="Helvetica,sans-Serif" font-size="10.00">+</text>
<text text-anchor="start" x="114.75" y="-86.5" font-family="Helvetica,sans-Serif" font-size="10.00">SubscriptionController()</text>
<text text-anchor="start" x="98.25" y="-70.5" font-family="Helvetica,sans-Serif" font-size="10.00">+</text>
<text text-anchor="start" x="114.75" y="-70.5" font-family="Helvetica,sans-Serif" font-size="10.00">GetSubscriptions()</text>
<text text-anchor="start" x="98.25" y="-54.5" font-family="Helvetica,sans-Serif" font-size="10.00">+</text>
<text text-anchor="start" x="114.75" y="-54.5" font-family="Helvetica,sans-Serif" font-size="10.00">GetSubscriptionData()</text>
<text text-anchor="start" x="98.25" y="-38.5" font-family="Helvetica,sans-Serif" font-size="10.00">+</text>
<text text-anchor="start" x="114.75" y="-38.5" font-family="Helvetica,sans-Serif" font-size="10.00">GetSubscriptionIdsAsync()</text>
<text text-anchor="start" x="98.25" y="-22.5" font-family="Helvetica,sans-Serif" font-size="10.00">+</text>
<text text-anchor="start" x="114.75" y="-22.5" font-family="Helvetica,sans-Serif" font-size="10.00">AddSubscription()</text>
<text text-anchor="start" x="98.25" y="-6.5" font-family="Helvetica,sans-Serif" font-size="10.00">+</text>
<text text-anchor="start" x="114.75" y="-6.5" font-family="Helvetica,sans-Serif" font-size="10.00">DeleteSubscriptionAsync()</text>
<polygon fill="#666666" stroke="#666666" points="87.75,-114 87.75,-114 248.75,-114 248.75,-114 87.75,-114"/>
<polygon fill="#666666" stroke="#666666" points="87.75,-98 87.75,-98 248.75,-98 248.75,-98 87.75,-98"/>
<polygon fill="none" stroke="#666666" points="87.75,0 87.75,-144 248.75,-144 248.75,0 87.75,0"/>
</a>
</g>
</g>
<!-- Node2 -->
<g id="Node000002" class="node">
<title>Node2</title>
<g id="a_Node000002"><a xlink:title=" ">
<polygon fill="white" stroke="none" points="72.5,-324 0,-324 0,-272 72.5,-272 72.5,-324"/>
<text text-anchor="start" x="4" y="-310.5" font-family="Helvetica,sans-Serif" font-size="10.00">ControllerBase</text>
<text text-anchor="start" x="34.75" y="-294.5" font-family="Helvetica,sans-Serif" font-size="10.00"> </text>
<text text-anchor="start" x="34.75" y="-278.5" font-family="Helvetica,sans-Serif" font-size="10.00"> </text>
<polygon fill="#666666" stroke="#666666" points="0,-306 0,-306 72.5,-306 72.5,-306 0,-306"/>
<polygon fill="#666666" stroke="#666666" points="0,-290 0,-290 72.5,-290 72.5,-290 0,-290"/>
<polygon fill="none" stroke="#666666" points="0,-272 0,-324 72.5,-324 72.5,-272 0,-272"/>
</a>
</g>
</g>
<!-- Node2&#45;&gt;Node1 -->
<g id="edge1_Node000001_Node000002" class="edge">
<title>Node2&#45;&gt;Node1</title>
<g id="a_edge1_Node000001_Node000002"><a xlink:title=" ">
<path fill="none" stroke="#63b8ff" d="M49.16,-261.45C57.28,-240.65 68.6,-214.2 81.25,-192 90.44,-175.88 101.4,-159.35 112.39,-143.93"/>
<polygon fill="none" stroke="#63b8ff" points="45.95,-260.06 45.65,-270.65 52.49,-262.56 45.95,-260.06"/>
</a>
</g>
</g>
<!-- Node3 -->
<g id="Node000003" class="node">
<title>Node3</title>
<g id="a_Node000003"><a xlink:href="interface_w_p_r_1_1_repository_1_1_i_user_repository.html" target="_top" xlink:title="Interface defining methods voor user gerelateerde database operaties, validatie, user management,...">
<polygon fill="white" stroke="none" points="246.12,-404 90.38,-404 90.38,-192 246.12,-192 246.12,-404"/>
<text text-anchor="start" x="94.38" y="-390.5" font-family="Helvetica,sans-Serif" font-size="10.00">WPR.Repository.IUserRepository</text>
<text text-anchor="start" x="166.75" y="-374.5" font-family="Helvetica,sans-Serif" font-size="10.00"> </text>
<text text-anchor="start" x="94.88" y="-358.5" font-family="Helvetica,sans-Serif" font-size="10.00">+</text>
<text text-anchor="start" x="105.38" y="-358.5" font-family="Helvetica,sans-Serif" font-size="10.00">ValidateUserAsync()</text>
<text text-anchor="start" x="94.88" y="-342.5" font-family="Helvetica,sans-Serif" font-size="10.00">+</text>
<text text-anchor="start" x="105.38" y="-342.5" font-family="Helvetica,sans-Serif" font-size="10.00">checkUsageEmailAsync()</text>
<text text-anchor="start" x="94.88" y="-326.5" font-family="Helvetica,sans-Serif" font-size="10.00">+</text>
<text text-anchor="start" x="105.38" y="-326.5" font-family="Helvetica,sans-Serif" font-size="10.00">addCustomerAsync()</text>
<text text-anchor="start" x="94.88" y="-310.5" font-family="Helvetica,sans-Serif" font-size="10.00">+</text>
<text text-anchor="start" x="105.38" y="-310.5" font-family="Helvetica,sans-Serif" font-size="10.00">addPersonalCustomerAsync()</text>
<text text-anchor="start" x="94.88" y="-294.5" font-family="Helvetica,sans-Serif" font-size="10.00">+</text>
<text text-anchor="start" x="105.38" y="-294.5" font-family="Helvetica,sans-Serif" font-size="10.00">addEmployeeCustomerAsync()</text>
<text text-anchor="start" x="94.88" y="-278.5" font-family="Helvetica,sans-Serif" font-size="10.00">+</text>
<text text-anchor="start" x="105.38" y="-278.5" font-family="Helvetica,sans-Serif" font-size="10.00">GetUserIdAsync()</text>
<text text-anchor="start" x="94.88" y="-262.5" font-family="Helvetica,sans-Serif" font-size="10.00">+</text>
<text text-anchor="start" x="105.38" y="-262.5" font-family="Helvetica,sans-Serif" font-size="10.00">GetUserNameAsync()</text>
<text text-anchor="start" x="94.88" y="-246.5" font-family="Helvetica,sans-Serif" font-size="10.00">+</text>
<text text-anchor="start" x="105.38" y="-246.5" font-family="Helvetica,sans-Serif" font-size="10.00">EditUserInfoAsync()</text>
<text text-anchor="start" x="94.88" y="-230.5" font-family="Helvetica,sans-Serif" font-size="10.00">+</text>
<text text-anchor="start" x="105.38" y="-230.5" font-family="Helvetica,sans-Serif" font-size="10.00">IsKvkNumberAsync()</text>
<text text-anchor="start" x="94.88" y="-214.5" font-family="Helvetica,sans-Serif" font-size="10.00">+</text>
<text text-anchor="start" x="105.38" y="-214.5" font-family="Helvetica,sans-Serif" font-size="10.00">IsUserEmployee()</text>
<text text-anchor="start" x="105.38" y="-198.5" font-family="Helvetica,sans-Serif" font-size="10.00">en 14 anderen...</text>
<polygon fill="#666666" stroke="#666666" points="90.38,-386 90.38,-386 246.12,-386 246.12,-386 90.38,-386"/>
<polygon fill="#666666" stroke="#666666" points="90.38,-370 90.38,-370 246.12,-370 246.12,-370 90.38,-370"/>
<polygon fill="none" stroke="#666666" points="90.38,-192 90.38,-404 246.12,-404 246.12,-192 90.38,-192"/>
</a>
</g>
</g>
<!-- Node3&#45;&gt;Node1 -->
<g id="edge2_Node000001_Node000003" class="edge">
<title>Node3&#45;&gt;Node1</title>
<g id="a_edge2_Node000001_Node000003"><a xlink:title=" ">
<path fill="none" stroke="#63b8ff" d="M168.25,-192.21C168.25,-180.3 168.25,-168.28 168.25,-156.69"/>
<polygon fill="none" stroke="#63b8ff" points="168.25,-156.72 164.25,-150.72 168.25,-144.72 172.25,-150.72 168.25,-156.72"/>
</a>
</g>
<text text-anchor="middle" x="206.88" y="-164.5" font-family="Helvetica,sans-Serif" font-size="10.00" fill="grey"> &#45;_userRepository</text>
</g>
<!-- Node4 -->
<g id="Node000004" class="node">
<title>Node4</title>
<g id="a_Node000004"><a xlink:href="interface_w_p_r_1_1_repository_1_1_i_back_office_repository.html" target="_top" xlink:title=" ">
<polygon fill="white" stroke="none" points="400,-370 264.5,-370 264.5,-226 400,-226 400,-370"/>
<text text-anchor="start" x="268.5" y="-356.5" font-family="Helvetica,sans-Serif" font-size="10.00">WPR.Repository.IBackOffice</text>
<text text-anchor="start" x="308.62" y="-344.5" font-family="Helvetica,sans-Serif" font-size="10.00">Repository</text>
<text text-anchor="start" x="268.81" y="-328.5" font-family="Helvetica,sans-Serif" font-size="10.00">+</text>
<text text-anchor="start" x="279.12" y="-328.5" font-family="Helvetica,sans-Serif" font-size="10.00">Status</text>
<text text-anchor="start" x="268.81" y="-312.5" font-family="Helvetica,sans-Serif" font-size="10.00">+</text>
<text text-anchor="start" x="279.12" y="-312.5" font-family="Helvetica,sans-Serif" font-size="10.00">Message</text>
<text text-anchor="start" x="268.81" y="-296.5" font-family="Helvetica,sans-Serif" font-size="10.00">+</text>
<text text-anchor="start" x="279.12" y="-296.5" font-family="Helvetica,sans-Serif" font-size="10.00">GetDataReview()</text>
<text text-anchor="start" x="268.81" y="-280.5" font-family="Helvetica,sans-Serif" font-size="10.00">+</text>
<text text-anchor="start" x="279.12" y="-280.5" font-family="Helvetica,sans-Serif" font-size="10.00">GetDataReviewIds()</text>
<text text-anchor="start" x="268.81" y="-264.5" font-family="Helvetica,sans-Serif" font-size="10.00">+</text>
<text text-anchor="start" x="279.12" y="-264.5" font-family="Helvetica,sans-Serif" font-size="10.00">GetFullDataReview()</text>
<text text-anchor="start" x="268.81" y="-248.5" font-family="Helvetica,sans-Serif" font-size="10.00">+</text>
<text text-anchor="start" x="279.12" y="-248.5" font-family="Helvetica,sans-Serif" font-size="10.00">AddSubscriptionAsync()</text>
<text text-anchor="start" x="268.81" y="-232.5" font-family="Helvetica,sans-Serif" font-size="10.00">+</text>
<text text-anchor="start" x="279.12" y="-232.5" font-family="Helvetica,sans-Serif" font-size="10.00">DeleteSubscriptionAsync()</text>
<polygon fill="#666666" stroke="#666666" points="264.5,-340 264.5,-340 400,-340 400,-340 264.5,-340"/>
<polygon fill="#666666" stroke="#666666" points="264.5,-308 264.5,-308 277.12,-308 277.12,-308 264.5,-308"/>
<polygon fill="#666666" stroke="#666666" points="277.12,-308 277.12,-308 400,-308 400,-308 277.12,-308"/>
<polygon fill="none" stroke="#666666" points="264.5,-226 264.5,-370 400,-370 400,-226 264.5,-226"/>
</a>
</g>
</g>
<!-- Node4&#45;&gt;Node1 -->
<g id="edge3_Node000001_Node000004" class="edge">
<title>Node4&#45;&gt;Node1</title>
<g id="a_edge3_Node000001_Node000004"><a xlink:title=" ">
<path fill="none" stroke="#63b8ff" d="M292.22,-226.33C279.3,-205.1 264.38,-182.12 249.25,-162 247.2,-159.28 245.09,-156.54 242.92,-153.8"/>
<polygon fill="none" stroke="#63b8ff" points="243.01,-153.91 236.12,-151.78 235.45,-144.6 242.33,-146.73 243.01,-153.91"/>
</a>
</g>
<text text-anchor="middle" x="309.34" y="-164.5" font-family="Helvetica,sans-Serif" font-size="10.00" fill="grey"> &#45;_backOfficeRepository</text>
</g>
</g>
</svg>
</svg>

<style type='text/css'>
<![CDATA[
[data-mouse-over-selected='false'] { opacity: 0.7; }
[data-mouse-over-selected='true']  { opacity: 1.0; }
]]>
</style>
<script type="application/ecmascript"><![CDATA[
document.addEventListener('DOMContentLoaded', (event) => {
  highlightEdges();
  highlightAdjacentNodes();
});
]]></script>
</svg>
