<?xml version="1.0" encoding="UTF-8" standalone="no"?>
<!DOCTYPE svg PUBLIC "-//W3C//DTD SVG 1.1//EN"
 "http://www.w3.org/Graphics/SVG/1.1/DTD/svg11.dtd">
<!-- Generated by graphviz version 12.2.1 (20241206.2353)
 -->
<!-- Title: WPR.Utils.PasswordChecker.IsValidPassword Pages: 1 -->
<svg width="837pt" height="344pt"
 viewBox="0.00 0.00 837.00 344.00" xmlns="http://www.w3.org/2000/svg" xmlns:xlink="http://www.w3.org/1999/xlink">
<g id="graph0" class="graph" transform="scale(1 1) rotate(0) translate(4 340)">
<title>WPR.Utils.PasswordChecker.IsValidPassword</title>
<!-- Node1 -->
<g id="Node000001" class="node">
<title>Node1</title>
<g id="a_Node000001"><a xlink:title=" ">
<polygon fill="#999999" stroke="#666666" points="829,-184 679.5,-184 679.5,-152 829,-152 829,-184"/>
<text text-anchor="start" x="687.5" y="-170.5" font-family="Helvetica,sans-Serif" font-size="10.00">WPR.Utils.PasswordChecker.</text>
<text text-anchor="middle" x="754.25" y="-158.5" font-family="Helvetica,sans-Serif" font-size="10.00">IsValidPassword</text>
</a>
</g>
</g>
<!-- Node2 -->
<g id="Node000002" class="node">
<title>Node2</title>
<g id="a_Node000002"><a xlink:href="class_w_p_r_1_1_repository_1_1_user_repository.html#ae8b7a3c517ffe6cb1b85eee60e5b2292" target="_top" xlink:title="AddCustomerChecks kijkt of alle ingevoerde velden geldig zijn. Als een check faalt falen alle checks.">
<polygon fill="white" stroke="#666666" points="602.25,-336 439.25,-336 439.25,-304 602.25,-304 602.25,-336"/>
<text text-anchor="start" x="447.25" y="-322.5" font-family="Helvetica,sans-Serif" font-size="10.00">WPR.Repository.UserRepository.</text>
<text text-anchor="middle" x="520.75" y="-310.5" font-family="Helvetica,sans-Serif" font-size="10.00">AddCustomerChecks</text>
</a>
</g>
</g>
<!-- Node1&#45;&gt;Node2 -->
<g id="edge1_Node000001_Node000002" class="edge">
<title>Node1&#45;&gt;Node2</title>
<g id="a_edge1_Node000001_Node000002"><a xlink:title=" ">
<path fill="none" stroke="#63b8ff" d="M738.29,-193.83C719.87,-223.18 685.78,-270.21 643.5,-295 631.03,-302.31 616.75,-307.51 602.45,-311.2"/>
<polygon fill="#63b8ff" stroke="#63b8ff" points="741.12,-195.91 743.35,-185.55 735.15,-192.26 741.12,-195.91"/>
</a>
</g>
</g>
<!-- Node5 -->
<g id="Node000005" class="node">
<title>Node5</title>
<g id="a_Node000005"><a xlink:href="class_w_p_r_1_1_repository_1_1_user_repository.html#a188ce6aab8b95ea246623cc80b520714" target="_top" xlink:title=" ">
<polygon fill="white" stroke="#666666" points="602.25,-286 439.25,-286 439.25,-254 602.25,-254 602.25,-286"/>
<text text-anchor="start" x="447.25" y="-272.5" font-family="Helvetica,sans-Serif" font-size="10.00">WPR.Repository.UserRepository.</text>
<text text-anchor="middle" x="520.75" y="-260.5" font-family="Helvetica,sans-Serif" font-size="10.00">AddPersonalCustomer</text>
</a>
</g>
</g>
<!-- Node1&#45;&gt;Node5 -->
<g id="edge5_Node000001_Node000005" class="edge">
<title>Node1&#45;&gt;Node5</title>
<g id="a_edge5_Node000001_Node000005"><a xlink:title=" ">
<path fill="none" stroke="#63b8ff" d="M726.55,-191.48C705.41,-208.83 674.41,-231.67 643.5,-245 630.62,-250.55 616.43,-254.9 602.43,-258.29"/>
<polygon fill="#63b8ff" stroke="#63b8ff" points="728.67,-194.26 734.09,-185.16 724.18,-188.9 728.67,-194.26"/>
</a>
</g>
</g>
<!-- Node6 -->
<g id="Node000006" class="node">
<title>Node6</title>
<g id="a_Node000006"><a xlink:href="class_w_p_r_1_1_controllers_1_1_employee_1_1_vehicle_manager_1_1_change_business_settings_1_1_ch7c94b582bf64dbc7511ca4ef6a96e8e5.html#ad1f53b919617eec6d3786fc2e06c2ff2" target="_top" xlink:title=" ">
<polygon fill="white" stroke="#666666" points="643.5,-236 398,-236 398,-180 643.5,-180 643.5,-236"/>
<text text-anchor="start" x="406" y="-222.5" font-family="Helvetica,sans-Serif" font-size="10.00">WPR.Controllers.Employee.</text>
<text text-anchor="start" x="406" y="-210.5" font-family="Helvetica,sans-Serif" font-size="10.00">VehicleManager.ChangeBusinessSettings.</text>
<text text-anchor="start" x="406" y="-198.5" font-family="Helvetica,sans-Serif" font-size="10.00">ChangeBusinessSettingsController.ChangeBusiness</text>
<text text-anchor="middle" x="520.75" y="-186.5" font-family="Helvetica,sans-Serif" font-size="10.00">InfoAsync</text>
</a>
</g>
</g>
<!-- Node1&#45;&gt;Node6 -->
<g id="edge6_Node000001_Node000006" class="edge">
<title>Node1&#45;&gt;Node6</title>
<g id="a_edge6_Node000001_Node000006"><a xlink:title=" ">
<path fill="none" stroke="#63b8ff" d="M667.94,-182.74C659.98,-184.12 651.81,-185.53 643.6,-186.95"/>
<polygon fill="#63b8ff" stroke="#63b8ff" points="668.3,-186.23 677.56,-181.08 667.11,-179.33 668.3,-186.23"/>
</a>
</g>
</g>
<!-- Node7 -->
<g id="Node000007" class="node">
<title>Node7</title>
<g id="a_Node000007"><a xlink:href="class_w_p_r_1_1_repository_1_1_user_repository.html#a9423f68f7d22b18441e746ba0d9ef6d6" target="_top" xlink:title=" ">
<polygon fill="white" stroke="#666666" points="602.25,-144 439.25,-144 439.25,-112 602.25,-112 602.25,-144"/>
<text text-anchor="start" x="447.25" y="-130.5" font-family="Helvetica,sans-Serif" font-size="10.00">WPR.Repository.UserRepository.</text>
<text text-anchor="middle" x="520.75" y="-118.5" font-family="Helvetica,sans-Serif" font-size="10.00">ChangeVehicleManagerInfo</text>
</a>
</g>
</g>
<!-- Node1&#45;&gt;Node7 -->
<g id="edge7_Node000001_Node000007" class="edge">
<title>Node1&#45;&gt;Node7</title>
<g id="a_edge7_Node000001_Node000007"><a xlink:title=" ">
<path fill="none" stroke="#63b8ff" d="M667.75,-153.23C646.49,-149.55 623.77,-145.63 602.74,-141.99"/>
<polygon fill="#63b8ff" stroke="#63b8ff" points="667.11,-156.67 677.56,-154.92 668.3,-149.77 667.11,-156.67"/>
</a>
</g>
</g>
<!-- Node8 -->
<g id="Node000008" class="node">
<title>Node8</title>
<g id="a_Node000008"><a xlink:href="class_w_p_r_1_1_controllers_1_1_employee_1_1_back_office_1_1sign_up_staff_1_1_sign_up_staff_controller.html#a91b241351193754ce64072141596fdc0" target="_top" xlink:title="Car and All medewerkers / Vehicle Managers kunnen hier aangemaakt worden. Mocht het emailadres al bes...">
<polygon fill="white" stroke="#666666" points="607.5,-94 434,-94 434,-50 607.5,-50 607.5,-94"/>
<text text-anchor="start" x="442" y="-80.5" font-family="Helvetica,sans-Serif" font-size="10.00">WPR.Controllers.Employee.</text>
<text text-anchor="start" x="442" y="-68.5" font-family="Helvetica,sans-Serif" font-size="10.00">BackOffice.signUpStaff.SignUpStaff</text>
<text text-anchor="middle" x="520.75" y="-56.5" font-family="Helvetica,sans-Serif" font-size="10.00">Controller.SignUpStaff</text>
</a>
</g>
</g>
<!-- Node1&#45;&gt;Node8 -->
<g id="edge9_Node000001_Node000008" class="edge">
<title>Node1&#45;&gt;Node8</title>
<g id="a_edge9_Node000001_Node000008"><a xlink:title=" ">
<path fill="none" stroke="#63b8ff" d="M720.82,-145.45C699.63,-131.57 670.88,-114.32 643.5,-103 632.21,-98.33 620.04,-94.23 607.9,-90.65"/>
<polygon fill="#63b8ff" stroke="#63b8ff" points="718.77,-148.29 729.03,-150.92 722.65,-142.46 718.77,-148.29"/>
</a>
</g>
</g>
<!-- Node9 -->
<g id="Node000009" class="node">
<title>Node9</title>
<g id="a_Node000009"><a xlink:href="class_w_p_r_1_1_repository_1_1_user_repository.html#af7b36404dd3d6de335c9986321ead166" target="_top" xlink:title=" ">
<polygon fill="white" stroke="#666666" points="602.25,-32 439.25,-32 439.25,0 602.25,0 602.25,-32"/>
<text text-anchor="start" x="447.25" y="-18.5" font-family="Helvetica,sans-Serif" font-size="10.00">WPR.Repository.UserRepository.</text>
<text text-anchor="middle" x="520.75" y="-6.5" font-family="Helvetica,sans-Serif" font-size="10.00">UpdateCustomerAsync</text>
</a>
</g>
</g>
<!-- Node1&#45;&gt;Node9 -->
<g id="edge10_Node000001_Node000009" class="edge">
<title>Node1&#45;&gt;Node9</title>
<g id="a_edge10_Node000001_Node000009"><a xlink:title=" ">
<path fill="none" stroke="#63b8ff" d="M738.29,-142.17C719.87,-112.82 685.78,-65.79 643.5,-41 631.03,-33.69 616.75,-28.49 602.45,-24.8"/>
<polygon fill="#63b8ff" stroke="#63b8ff" points="735.15,-143.74 743.35,-150.45 741.12,-140.09 735.15,-143.74"/>
</a>
</g>
</g>
<!-- Node3 -->
<g id="Node000003" class="node">
<title>Node3</title>
<g id="a_Node000003"><a xlink:href="class_w_p_r_1_1_repository_1_1_user_repository.html#a688723c1fb3385274f13ba0e3ba78da8" target="_top" xlink:title="AddCustomer krijgt SignUpRequestCustomer binnen en SignUpRequestCustomerPrivate. Elk account heeft al...">
<polygon fill="white" stroke="#666666" points="163,-336 0,-336 0,-304 163,-304 163,-336"/>
<text text-anchor="start" x="8" y="-322.5" font-family="Helvetica,sans-Serif" font-size="10.00">WPR.Repository.UserRepository.</text>
<text text-anchor="middle" x="81.5" y="-310.5" font-family="Helvetica,sans-Serif" font-size="10.00">AddCustomer</text>
</a>
</g>
</g>
<!-- Node2&#45;&gt;Node3 -->
<g id="edge2_Node000002_Node000003" class="edge">
<title>Node2&#45;&gt;Node3</title>
<g id="a_edge2_Node000002_Node000003"><a xlink:title=" ">
<path fill="none" stroke="#63b8ff" d="M427.63,-322.05C406.1,-322.44 383.24,-322.8 362,-323 289.56,-323.69 271.44,-323.93 199,-323 187.47,-322.85 175.3,-322.62 163.34,-322.35"/>
<polygon fill="#63b8ff" stroke="#63b8ff" points="427.65,-325.55 437.58,-321.86 427.52,-318.55 427.65,-325.55"/>
</a>
</g>
</g>
<!-- Node4 -->
<g id="Node000004" class="node">
<title>Node4</title>
<g id="a_Node000004"><a xlink:href="class_w_p_r_1_1_repository_1_1_user_repository.html#a4fe2a09bb575fb8d9510828ef5ad9813" target="_top" xlink:title="AddPrivateCustomerDetails zorgt ervoor dat alle extra details van particuliere huurders toegevoegd wo...">
<polygon fill="white" stroke="#666666" points="362,-314 199,-314 199,-282 362,-282 362,-314"/>
<text text-anchor="start" x="207" y="-300.5" font-family="Helvetica,sans-Serif" font-size="10.00">WPR.Repository.UserRepository.</text>
<text text-anchor="middle" x="280.5" y="-288.5" font-family="Helvetica,sans-Serif" font-size="10.00">AddPrivateCustomerDetails</text>
</a>
</g>
</g>
<!-- Node2&#45;&gt;Node4 -->
<g id="edge3_Node000002_Node000004" class="edge">
<title>Node2&#45;&gt;Node4</title>
<g id="a_edge3_Node000002_Node000004"><a xlink:title=" ">
<path fill="none" stroke="#63b8ff" d="M427.32,-311.47C405.86,-309.48 383.18,-307.39 362.27,-305.46"/>
<polygon fill="#63b8ff" stroke="#63b8ff" points="426.97,-314.95 437.25,-312.38 427.61,-307.98 426.97,-314.95"/>
</a>
</g>
</g>
<!-- Node4&#45;&gt;Node3 -->
<g id="edge4_Node000004_Node000003" class="edge">
<title>Node4&#45;&gt;Node3</title>
<g id="a_edge4_Node000004_Node000003"><a xlink:title=" ">
<path fill="none" stroke="#63b8ff" d="M187.32,-308.29C179.36,-309.18 171.35,-310.08 163.48,-310.96"/>
<polygon fill="#63b8ff" stroke="#63b8ff" points="187.47,-311.8 197.02,-307.21 186.69,-304.84 187.47,-311.8"/>
</a>
</g>
</g>
<!-- Node7&#45;&gt;Node7 -->
<g id="edge8_Node000007_Node000007" class="edge">
<title>Node7&#45;&gt;Node7</title>
<g id="a_edge8_Node000007_Node000007"><a xlink:title=" ">
<path fill="none" stroke="#63b8ff" d="M559.94,-155.54C553.54,-159.41 540.48,-162 520.75,-162 485.18,-162 471.28,-153.58 479.06,-144.44"/>
<polygon fill="#63b8ff" stroke="#63b8ff" points="563.32,-156.44 562.1,-145.92 556.49,-154.91 563.32,-156.44"/>
</a>
</g>
</g>
</g>
</svg>
