<?xml version="1.0" encoding="UTF-8" standalone="no"?>
<!DOCTYPE svg PUBLIC "-//W3C//DTD SVG 1.1//EN"
 "http://www.w3.org/Graphics/SVG/1.1/DTD/svg11.dtd">
<!-- Generated by graphviz version 12.2.1 (20241206.2353)
 -->
<!-- Title: WPR.Controllers.Employee.FrontOffice.AddIntake.AddIntakeController Pages: 1 -->
<svg width="588pt" height="436pt"
 viewBox="0.00 0.00 588.38 436.00" xmlns="http://www.w3.org/2000/svg" xmlns:xlink="http://www.w3.org/1999/xlink">
<g id="graph0" class="graph" transform="scale(1 1) rotate(0) translate(4 432)">
<title>WPR.Controllers.Employee.FrontOffice.AddIntake.AddIntakeController</title>
<!-- Node1 -->
<g id="Node000001" class="node">
<title>Node1</title>
<g id="a_Node000001"><a xlink:title="AddIntakeController zorgt ervoor dat informatie over de inname van een voertuig toegevoegd kan worden...">
<polygon fill="#999999" stroke="none" points="310.5,-92 160,-92 160,0 310.5,0 310.5,-92"/>
<text text-anchor="start" x="164" y="-78.5" font-family="Helvetica,sans-Serif" font-size="10.00">WPR.Controllers.Employee.</text>
<text text-anchor="start" x="164" y="-66.5" font-family="Helvetica,sans-Serif" font-size="10.00">FrontOffice.AddIntake.AddIntake</text>
<text text-anchor="start" x="214.25" y="-54.5" font-family="Helvetica,sans-Serif" font-size="10.00">Controller</text>
<text text-anchor="start" x="233.75" y="-38.5" font-family="Helvetica,sans-Serif" font-size="10.00"> </text>
<text text-anchor="start" x="174.06" y="-22.5" font-family="Helvetica,sans-Serif" font-size="10.00">+</text>
<text text-anchor="start" x="194.12" y="-22.5" font-family="Helvetica,sans-Serif" font-size="10.00">AddIntakeController()</text>
<text text-anchor="start" x="174.06" y="-6.5" font-family="Helvetica,sans-Serif" font-size="10.00">+</text>
<text text-anchor="start" x="194.12" y="-6.5" font-family="Helvetica,sans-Serif" font-size="10.00">AddIntakeAsync()</text>
<polygon fill="#666666" stroke="#666666" points="160,-50 160,-50 310.5,-50 310.5,-50 160,-50"/>
<polygon fill="#666666" stroke="#666666" points="160,-34 160,-34 310.5,-34 310.5,-34 160,-34"/>
<polygon fill="none" stroke="#666666" points="160,0 160,-92 310.5,-92 310.5,0 160,0"/>
</a>
</g>
</g>
<!-- Node2 -->
<g id="Node000002" class="node">
<title>Node2</title>
<g id="a_Node000002"><a xlink:title=" ">
<polygon fill="white" stroke="none" points="72.5,-310 0,-310 0,-258 72.5,-258 72.5,-310"/>
<text text-anchor="start" x="4" y="-296.5" font-family="Helvetica,sans-Serif" font-size="10.00">ControllerBase</text>
<text text-anchor="start" x="34.75" y="-280.5" font-family="Helvetica,sans-Serif" font-size="10.00"> </text>
<text text-anchor="start" x="34.75" y="-264.5" font-family="Helvetica,sans-Serif" font-size="10.00"> </text>
<polygon fill="#666666" stroke="#666666" points="0,-292 0,-292 72.5,-292 72.5,-292 0,-292"/>
<polygon fill="#666666" stroke="#666666" points="0,-276 0,-276 72.5,-276 72.5,-276 0,-276"/>
<polygon fill="none" stroke="#666666" points="0,-258 0,-310 72.5,-310 72.5,-258 0,-258"/>
</a>
</g>
</g>
<!-- Node2&#45;&gt;Node1 -->
<g id="edge1_Node000001_Node000002" class="edge">
<title>Node2&#45;&gt;Node1</title>
<g id="a_edge1_Node000001_Node000002"><a xlink:title=" ">
<path fill="none" stroke="#63b8ff" d="M40.38,-246.82C45.51,-215.73 56.79,-171.12 81.25,-140 101.81,-113.85 131.91,-93.36 160.06,-78.35"/>
<polygon fill="none" stroke="#63b8ff" points="36.95,-246.11 38.93,-256.52 43.87,-247.15 36.95,-246.11"/>
</a>
</g>
</g>
<!-- Node3 -->
<g id="Node000003" class="node">
<title>Node3</title>
<g id="a_Node000003"><a xlink:href="interface_w_p_r_1_1_database_1_1_i_connector.html" target="_top" xlink:title="Connector class om verbinding te maken met de database, maakt gebruik van de connectie strings die zi...">
<polygon fill="white" stroke="none" points="218.25,-310 90.25,-310 90.25,-258 218.25,-258 218.25,-310"/>
<text text-anchor="start" x="94.25" y="-296.5" font-family="Helvetica,sans-Serif" font-size="10.00">WPR.Database.IConnector</text>
<text text-anchor="start" x="152.75" y="-280.5" font-family="Helvetica,sans-Serif" font-size="10.00"> </text>
<text text-anchor="start" x="97.38" y="-264.5" font-family="Helvetica,sans-Serif" font-size="10.00">+</text>
<text text-anchor="start" x="110.5" y="-264.5" font-family="Helvetica,sans-Serif" font-size="10.00">CreateDbConnection()</text>
<polygon fill="#666666" stroke="#666666" points="90.25,-292 90.25,-292 218.25,-292 218.25,-292 90.25,-292"/>
<polygon fill="#666666" stroke="#666666" points="90.25,-276 90.25,-276 218.25,-276 218.25,-276 90.25,-276"/>
<polygon fill="none" stroke="#666666" points="90.25,-258 90.25,-310 218.25,-310 218.25,-258 90.25,-258"/>
</a>
</g>
</g>
<!-- Node3&#45;&gt;Node1 -->
<g id="edge2_Node000001_Node000003" class="edge">
<title>Node3&#45;&gt;Node1</title>
<g id="a_edge2_Node000001_Node000003"><a xlink:title=" ">
<path fill="none" stroke="#63b8ff" d="M162.77,-258.19C175.23,-221.86 198.81,-153.17 215.69,-103.99"/>
<polygon fill="none" stroke="#63b8ff" points="215.64,-104.14 213.8,-97.17 219.53,-92.79 221.37,-99.77 215.64,-104.14"/>
</a>
</g>
<text text-anchor="middle" x="240.53" y="-112.5" font-family="Helvetica,sans-Serif" font-size="10.00" fill="grey"> &#45;_connector</text>
</g>
<!-- Node4 -->
<g id="Node000004" class="node">
<title>Node4</title>
<g id="a_Node000004"><a xlink:href="interface_w_p_r_1_1_repository_1_1_i_employee_repository.html" target="_top" xlink:title="Interface defining methods voor user gerelateerde database operaties, validatie, user management,...">
<polygon fill="white" stroke="none" points="395.75,-420 236.75,-420 236.75,-148 395.75,-148 395.75,-420"/>
<text text-anchor="start" x="254.75" y="-406.5" font-family="Helvetica,sans-Serif" font-size="10.00">WPR.Repository.IEmployee</text>
<text text-anchor="start" x="292.62" y="-394.5" font-family="Helvetica,sans-Serif" font-size="10.00">Repository</text>
<text text-anchor="start" x="240.75" y="-378.5" font-family="Helvetica,sans-Serif" font-size="10.00">+</text>
<text text-anchor="start" x="250.75" y="-378.5" font-family="Helvetica,sans-Serif" font-size="10.00">StatusCode</text>
<text text-anchor="start" x="240.75" y="-362.5" font-family="Helvetica,sans-Serif" font-size="10.00">+</text>
<text text-anchor="start" x="250.75" y="-362.5" font-family="Helvetica,sans-Serif" font-size="10.00">Message</text>
<text text-anchor="start" x="240.75" y="-346.5" font-family="Helvetica,sans-Serif" font-size="10.00">+</text>
<text text-anchor="start" x="250.75" y="-346.5" font-family="Helvetica,sans-Serif" font-size="10.00">Status</text>
<text text-anchor="start" x="240.75" y="-330.5" font-family="Helvetica,sans-Serif" font-size="10.00">+</text>
<text text-anchor="start" x="250.75" y="-330.5" font-family="Helvetica,sans-Serif" font-size="10.00">Message</text>
<text text-anchor="start" x="240.75" y="-314.5" font-family="Helvetica,sans-Serif" font-size="10.00">+</text>
<text text-anchor="start" x="250.75" y="-314.5" font-family="Helvetica,sans-Serif" font-size="10.00">AddVehicleAsync()</text>
<text text-anchor="start" x="240.75" y="-298.5" font-family="Helvetica,sans-Serif" font-size="10.00">+</text>
<text text-anchor="start" x="250.75" y="-298.5" font-family="Helvetica,sans-Serif" font-size="10.00">AddStaff()</text>
<text text-anchor="start" x="240.75" y="-282.5" font-family="Helvetica,sans-Serif" font-size="10.00">+</text>
<text text-anchor="start" x="250.75" y="-282.5" font-family="Helvetica,sans-Serif" font-size="10.00">checkUsageEmailAsync()</text>
<text text-anchor="start" x="240.75" y="-266.5" font-family="Helvetica,sans-Serif" font-size="10.00">+</text>
<text text-anchor="start" x="250.75" y="-266.5" font-family="Helvetica,sans-Serif" font-size="10.00">GetReviewIdsAsync()</text>
<text text-anchor="start" x="240.75" y="-250.5" font-family="Helvetica,sans-Serif" font-size="10.00">+</text>
<text text-anchor="start" x="250.75" y="-250.5" font-family="Helvetica,sans-Serif" font-size="10.00">GetReviewAsync()</text>
<text text-anchor="start" x="240.75" y="-234.5" font-family="Helvetica,sans-Serif" font-size="10.00">+</text>
<text text-anchor="start" x="250.75" y="-234.5" font-family="Helvetica,sans-Serif" font-size="10.00">SetStatusAsync()</text>
<text text-anchor="start" x="240.75" y="-218.5" font-family="Helvetica,sans-Serif" font-size="10.00">+</text>
<text text-anchor="start" x="250.75" y="-218.5" font-family="Helvetica,sans-Serif" font-size="10.00">AddBusiness()</text>
<text text-anchor="start" x="240.75" y="-202.5" font-family="Helvetica,sans-Serif" font-size="10.00">+</text>
<text text-anchor="start" x="250.75" y="-202.5" font-family="Helvetica,sans-Serif" font-size="10.00">ViewBusinessRequests()</text>
<text text-anchor="start" x="240.75" y="-186.5" font-family="Helvetica,sans-Serif" font-size="10.00">+</text>
<text text-anchor="start" x="250.75" y="-186.5" font-family="Helvetica,sans-Serif" font-size="10.00">ViewBusinessRequestDetailed()</text>
<text text-anchor="start" x="240.75" y="-170.5" font-family="Helvetica,sans-Serif" font-size="10.00">+</text>
<text text-anchor="start" x="250.75" y="-170.5" font-family="Helvetica,sans-Serif" font-size="10.00">BusinessAccepted()</text>
<text text-anchor="start" x="250.75" y="-154.5" font-family="Helvetica,sans-Serif" font-size="10.00">en 7 anderen...</text>
<polygon fill="#666666" stroke="#666666" points="236.75,-390 236.75,-390 395.75,-390 395.75,-390 236.75,-390"/>
<polygon fill="#666666" stroke="#666666" points="236.75,-326 236.75,-326 248.75,-326 248.75,-326 236.75,-326"/>
<polygon fill="#666666" stroke="#666666" points="248.75,-326 248.75,-326 395.75,-326 395.75,-326 248.75,-326"/>
<polygon fill="none" stroke="#666666" points="236.75,-148 236.75,-420 395.75,-420 395.75,-148 236.75,-148"/>
</a>
</g>
</g>
<!-- Node4&#45;&gt;Node1 -->
<g id="edge3_Node000001_Node000004" class="edge">
<title>Node4&#45;&gt;Node1</title>
<g id="a_edge3_Node000001_Node000004"><a xlink:title=" ">
<path fill="none" stroke="#63b8ff" d="M284.94,-148.21C280.79,-135.14 276.23,-122.22 271.25,-110 270.36,-107.82 269.41,-105.62 268.41,-103.42"/>
<polygon fill="none" stroke="#63b8ff" points="268.35,-103.29 262.12,-99.66 263.09,-92.51 269.31,-96.15 268.35,-103.29"/>
</a>
</g>
<text text-anchor="middle" x="325.02" y="-112.5" font-family="Helvetica,sans-Serif" font-size="10.00" fill="grey"> &#45;_employeeRepository</text>
</g>
<!-- Node5 -->
<g id="Node000005" class="node">
<title>Node5</title>
<g id="a_Node000005"><a xlink:href="interface_w_p_r_1_1_repository_1_1_i_vehicle_repository.html" target="_top" xlink:title=" ">
<polygon fill="white" stroke="none" points="580.38,-428 414.12,-428 414.12,-140 580.38,-140 580.38,-428"/>
<text text-anchor="start" x="418.12" y="-414.5" font-family="Helvetica,sans-Serif" font-size="10.00">WPR.Repository.IVehicleRepository</text>
<text text-anchor="start" x="420.31" y="-398.5" font-family="Helvetica,sans-Serif" font-size="10.00">+</text>
<text text-anchor="start" x="432.5" y="-398.5" font-family="Helvetica,sans-Serif" font-size="10.00">Status</text>
<text text-anchor="start" x="420.31" y="-382.5" font-family="Helvetica,sans-Serif" font-size="10.00">+</text>
<text text-anchor="start" x="432.5" y="-382.5" font-family="Helvetica,sans-Serif" font-size="10.00">StatusCode</text>
<text text-anchor="start" x="420.31" y="-366.5" font-family="Helvetica,sans-Serif" font-size="10.00">+</text>
<text text-anchor="start" x="432.5" y="-366.5" font-family="Helvetica,sans-Serif" font-size="10.00">Message</text>
<text text-anchor="start" x="420.31" y="-350.5" font-family="Helvetica,sans-Serif" font-size="10.00">+</text>
<text text-anchor="start" x="432.5" y="-350.5" font-family="Helvetica,sans-Serif" font-size="10.00">GetVehiclePlateAsync()</text>
<text text-anchor="start" x="420.31" y="-334.5" font-family="Helvetica,sans-Serif" font-size="10.00">+</text>
<text text-anchor="start" x="432.5" y="-334.5" font-family="Helvetica,sans-Serif" font-size="10.00">GetVehicleNameAsync()</text>
<text text-anchor="start" x="420.31" y="-318.5" font-family="Helvetica,sans-Serif" font-size="10.00">+</text>
<text text-anchor="start" x="432.5" y="-318.5" font-family="Helvetica,sans-Serif" font-size="10.00">GetVehicleColorAsync()</text>
<text text-anchor="start" x="420.31" y="-302.5" font-family="Helvetica,sans-Serif" font-size="10.00">+</text>
<text text-anchor="start" x="432.5" y="-302.5" font-family="Helvetica,sans-Serif" font-size="10.00">GetFrameNumbersAsync()</text>
<text text-anchor="start" x="420.31" y="-286.5" font-family="Helvetica,sans-Serif" font-size="10.00">+</text>
<text text-anchor="start" x="432.5" y="-286.5" font-family="Helvetica,sans-Serif" font-size="10.00">GetVehicleDataAsync()</text>
<text text-anchor="start" x="420.31" y="-270.5" font-family="Helvetica,sans-Serif" font-size="10.00">+</text>
<text text-anchor="start" x="432.5" y="-270.5" font-family="Helvetica,sans-Serif" font-size="10.00">GetFrameNumberSpecifiekType</text>
<text text-anchor="start" x="432.5" y="-258.5" font-family="Helvetica,sans-Serif" font-size="10.00">Async()</text>
<text text-anchor="start" x="420.31" y="-242.5" font-family="Helvetica,sans-Serif" font-size="10.00">+</text>
<text text-anchor="start" x="432.5" y="-242.5" font-family="Helvetica,sans-Serif" font-size="10.00">HireVehicle()</text>
<text text-anchor="start" x="420.31" y="-226.5" font-family="Helvetica,sans-Serif" font-size="10.00">+</text>
<text text-anchor="start" x="432.5" y="-226.5" font-family="Helvetica,sans-Serif" font-size="10.00">CancelRental()</text>
<text text-anchor="start" x="420.31" y="-210.5" font-family="Helvetica,sans-Serif" font-size="10.00">+</text>
<text text-anchor="start" x="432.5" y="-210.5" font-family="Helvetica,sans-Serif" font-size="10.00">GetAllUserRentals()</text>
<text text-anchor="start" x="420.31" y="-194.5" font-family="Helvetica,sans-Serif" font-size="10.00">+</text>
<text text-anchor="start" x="432.5" y="-194.5" font-family="Helvetica,sans-Serif" font-size="10.00">GetAllUserRentalsDetailed()</text>
<text text-anchor="start" x="420.31" y="-178.5" font-family="Helvetica,sans-Serif" font-size="10.00">+</text>
<text text-anchor="start" x="432.5" y="-178.5" font-family="Helvetica,sans-Serif" font-size="10.00">ChangeRental()</text>
<text text-anchor="start" x="420.31" y="-162.5" font-family="Helvetica,sans-Serif" font-size="10.00">+</text>
<text text-anchor="start" x="432.5" y="-162.5" font-family="Helvetica,sans-Serif" font-size="10.00">DeleteVehicleAsync()</text>
<text text-anchor="start" x="420.31" y="-146.5" font-family="Helvetica,sans-Serif" font-size="10.00">+</text>
<text text-anchor="start" x="432.5" y="-146.5" font-family="Helvetica,sans-Serif" font-size="10.00">ChangeRepairStatus()</text>
<polygon fill="#666666" stroke="#666666" points="414.12,-410 414.12,-410 580.38,-410 580.38,-410 414.12,-410"/>
<polygon fill="#666666" stroke="#666666" points="414.12,-362 414.12,-362 430.5,-362 430.5,-362 414.12,-362"/>
<polygon fill="#666666" stroke="#666666" points="430.5,-362 430.5,-362 580.38,-362 580.38,-362 430.5,-362"/>
<polygon fill="none" stroke="#666666" points="414.12,-140 414.12,-428 580.38,-428 580.38,-140 414.12,-140"/>
</a>
</g>
</g>
<!-- Node5&#45;&gt;Node1 -->
<g id="edge4_Node000001_Node000005" class="edge">
<title>Node5&#45;&gt;Node1</title>
<g id="a_edge4_Node000001_Node000005"><a xlink:title=" ">
<path fill="none" stroke="#63b8ff" d="M414.27,-142.25C403.53,-130.3 391.84,-119.27 379.25,-110 362.06,-97.35 341.94,-86.55 322.27,-77.65"/>
<polygon fill="none" stroke="#63b8ff" points="322.27,-77.65 315.17,-78.91 311.27,-72.85 318.37,-71.58 322.27,-77.65"/>
</a>
</g>
<text text-anchor="middle" x="437.02" y="-112.5" font-family="Helvetica,sans-Serif" font-size="10.00" fill="grey"> &#45;_vehicleRepository</text>
</g>
</g>
</svg>
