<?xml version="1.0" encoding="UTF-8" standalone="no"?>
<!DOCTYPE svg PUBLIC "-//W3C//DTD SVG 1.1//EN"
 "http://www.w3.org/Graphics/SVG/1.1/DTD/svg11.dtd">
<!-- Generated by graphviz version 12.2.1 (20241206.2353)
 -->
<!-- Title: WPR.Email.Vehicle Pages: 1 -->
<svg width="109pt" height="300pt"
 viewBox="0.00 0.00 109.25 300.00" xmlns="http://www.w3.org/2000/svg" xmlns:xlink="http://www.w3.org/1999/xlink">
<g id="graph0" class="graph" transform="scale(1 1) rotate(0) translate(4 296)">
<title>WPR.Email.Vehicle</title>
<!-- Node1 -->
<g id="Node000001" class="node">
<title>Node1</title>
<g id="a_Node000001"><a xlink:title=" ">
<polygon fill="#999999" stroke="none" points="101.25,-100 0,-100 0,0 101.25,0 101.25,-100"/>
<text text-anchor="start" x="7.5" y="-86.5" font-family="Helvetica,sans-Serif" font-size="10.00">WPR.Email.Vehicle</text>
<text text-anchor="start" x="4" y="-70.5" font-family="Helvetica,sans-Serif" font-size="10.00">+</text>
<text text-anchor="start" x="14" y="-70.5" font-family="Helvetica,sans-Serif" font-size="10.00">_details</text>
<text text-anchor="start" x="5.5" y="-54.5" font-family="Helvetica,sans-Serif" font-size="10.00">&#45;</text>
<text text-anchor="start" x="14" y="-54.5" font-family="Helvetica,sans-Serif" font-size="10.00">_vehicleRepository</text>
<text text-anchor="start" x="4" y="-38.5" font-family="Helvetica,sans-Serif" font-size="10.00">+</text>
<text text-anchor="start" x="14" y="-38.5" font-family="Helvetica,sans-Serif" font-size="10.00">Vehicle()</text>
<text text-anchor="start" x="4" y="-22.5" font-family="Helvetica,sans-Serif" font-size="10.00">+</text>
<text text-anchor="start" x="14" y="-22.5" font-family="Helvetica,sans-Serif" font-size="10.00">SetDetailsAsync()</text>
<text text-anchor="start" x="4" y="-6.5" font-family="Helvetica,sans-Serif" font-size="10.00">+</text>
<text text-anchor="start" x="14" y="-6.5" font-family="Helvetica,sans-Serif" font-size="10.00">GetDetailsAsync()</text>
<polygon fill="#666666" stroke="#666666" points="0,-82 0,-82 101.25,-82 101.25,-82 0,-82"/>
<polygon fill="#666666" stroke="#666666" points="0,-50 0,-50 12,-50 12,-50 0,-50"/>
<polygon fill="#666666" stroke="#666666" points="12,-50 12,-50 101.25,-50 101.25,-50 12,-50"/>
<polygon fill="none" stroke="#666666" points="0,0 0,-100 101.25,-100 101.25,0 0,0"/>
</a>
</g>
</g>
<!-- Node2 -->
<g id="Node000002" class="node">
<title>Node2</title>
<g id="a_Node000002"><a xlink:href="interface_w_p_r_1_1_email_1_1_i_vehicle_details.html" target="_top" xlink:title=" ">
<polygon fill="white" stroke="none" points="87.25,-188 14,-188 14,-136 87.25,-136 87.25,-188"/>
<text text-anchor="start" x="18" y="-174.5" font-family="Helvetica,sans-Serif" font-size="10.00">IVehicleDetails</text>
<text text-anchor="start" x="49.12" y="-158.5" font-family="Helvetica,sans-Serif" font-size="10.00"> </text>
<text text-anchor="start" x="49.12" y="-142.5" font-family="Helvetica,sans-Serif" font-size="10.00"> </text>
<polygon fill="#666666" stroke="#666666" points="14,-170 14,-170 87.25,-170 87.25,-170 14,-170"/>
<polygon fill="#666666" stroke="#666666" points="14,-154 14,-154 87.25,-154 87.25,-154 14,-154"/>
<polygon fill="none" stroke="#666666" points="14,-136 14,-188 87.25,-188 87.25,-136 14,-136"/>
</a>
</g>
</g>
<!-- Node2&#45;&gt;Node1 -->
<g id="edge1_Node000001_Node000002" class="edge">
<title>Node2&#45;&gt;Node1</title>
<g id="a_edge1_Node000001_Node000002"><a xlink:title=" ">
<path fill="none" stroke="#63b8ff" d="M50.62,-124.53C50.62,-116.58 50.62,-108.05 50.62,-99.72"/>
<polygon fill="none" stroke="#63b8ff" points="47.13,-124.53 50.63,-134.53 54.13,-124.53 47.13,-124.53"/>
</a>
</g>
</g>
<!-- Node3 -->
<g id="Node000003" class="node">
<title>Node3</title>
<g id="a_Node000003"><a xlink:href="interface_w_p_r_1_1_email_1_1_i_details.html" target="_top" xlink:title=" ">
<polygon fill="white" stroke="none" points="99.75,-292 1.5,-292 1.5,-224 99.75,-224 99.75,-292"/>
<text text-anchor="start" x="33.75" y="-278.5" font-family="Helvetica,sans-Serif" font-size="10.00">IDetails</text>
<text text-anchor="start" x="49.12" y="-262.5" font-family="Helvetica,sans-Serif" font-size="10.00"> </text>
<text text-anchor="start" x="5.5" y="-246.5" font-family="Helvetica,sans-Serif" font-size="10.00">+</text>
<text text-anchor="start" x="15.5" y="-246.5" font-family="Helvetica,sans-Serif" font-size="10.00">SetDetailsAsync()</text>
<text text-anchor="start" x="5.5" y="-230.5" font-family="Helvetica,sans-Serif" font-size="10.00">+</text>
<text text-anchor="start" x="15.5" y="-230.5" font-family="Helvetica,sans-Serif" font-size="10.00">GetDetailsAsync()</text>
<polygon fill="#666666" stroke="#666666" points="1.5,-274 1.5,-274 99.75,-274 99.75,-274 1.5,-274"/>
<polygon fill="#666666" stroke="#666666" points="1.5,-258 1.5,-258 99.75,-258 99.75,-258 1.5,-258"/>
<polygon fill="none" stroke="#666666" points="1.5,-224 1.5,-292 99.75,-292 99.75,-224 1.5,-224"/>
</a>
</g>
</g>
<!-- Node3&#45;&gt;Node2 -->
<g id="edge2_Node000002_Node000003" class="edge">
<title>Node3&#45;&gt;Node2</title>
<g id="a_edge2_Node000002_Node000003"><a xlink:title=" ">
<path fill="none" stroke="#63b8ff" d="M50.62,-212.62C50.62,-204.05 50.62,-195.37 50.62,-187.71"/>
<polygon fill="none" stroke="#63b8ff" points="47.13,-212.61 50.63,-222.61 54.13,-212.61 47.13,-212.61"/>
</a>
</g>
</g>
</g>
</svg>
