<?xml version="1.0" encoding="UTF-8" standalone="no"?>
<!DOCTYPE svg PUBLIC "-//W3C//DTD SVG 1.1//EN"
 "http://www.w3.org/Graphics/SVG/1.1/DTD/svg11.dtd">
<!-- Generated by graphviz version 12.2.1 (20241206.2353)
 -->
<!-- Title: WPR.Services.EmailService Pages: 1 -->
<svg width="300pt" height="424pt"
 viewBox="0.00 0.00 299.50 424.00" xmlns="http://www.w3.org/2000/svg" xmlns:xlink="http://www.w3.org/1999/xlink">

<svg id="main" version="1.1" xmlns="http://www.w3.org/2000/svg" xmlns:xlink="http://www.w3.org/1999/xlink" xml:space="preserve">

<style type="text/css"><![CDATA[
.node, .edge {opacity: 0.7;}
.node.selected, .edge.selected {opacity: 1;}
.edge:hover path { stroke: red; }
.edge:hover polygon { stroke: red; fill: red; }
]]></style>
<script type="application/ecmascript" xlink:href="svg.min.js"/>
<svg id="graph" class="graph">
<g id="graph0" class="graph" transform="scale(1 1) rotate(0) translate(4 420)">
<title>WPR.Services.EmailService</title>
<!-- Node1 -->
<g id="Node000001" class="node">
<title>Node1</title>
<g id="a_Node000001"><a xlink:title=" ">
<polygon fill="#999999" stroke="none" points="244.25,-220 77,-220 77,0 244.25,0 244.25,-220"/>
<text text-anchor="start" x="97.62" y="-206.5" font-family="Helvetica,sans-Serif" font-size="10.00">WPR.Services.EmailService</text>
<text text-anchor="start" x="159.12" y="-190.5" font-family="Helvetica,sans-Serif" font-size="10.00"> </text>
<text text-anchor="start" x="81" y="-174.5" font-family="Helvetica,sans-Serif" font-size="10.00">+</text>
<text text-anchor="start" x="91" y="-174.5" font-family="Helvetica,sans-Serif" font-size="10.00">EmailService()</text>
<text text-anchor="start" x="81" y="-158.5" font-family="Helvetica,sans-Serif" font-size="10.00">+</text>
<text text-anchor="start" x="91" y="-158.5" font-family="Helvetica,sans-Serif" font-size="10.00">Send()</text>
<text text-anchor="start" x="81" y="-142.5" font-family="Helvetica,sans-Serif" font-size="10.00">+</text>
<text text-anchor="start" x="91" y="-142.5" font-family="Helvetica,sans-Serif" font-size="10.00">SendWelcomeEmail()</text>
<text text-anchor="start" x="81" y="-126.5" font-family="Helvetica,sans-Serif" font-size="10.00">+</text>
<text text-anchor="start" x="91" y="-126.5" font-family="Helvetica,sans-Serif" font-size="10.00">SendRentalConfirmMail()</text>
<text text-anchor="start" x="81" y="-110.5" font-family="Helvetica,sans-Serif" font-size="10.00">+</text>
<text text-anchor="start" x="91" y="-110.5" font-family="Helvetica,sans-Serif" font-size="10.00">SendConfirmationEmailBusiness()</text>
<text text-anchor="start" x="81" y="-94.5" font-family="Helvetica,sans-Serif" font-size="10.00">+</text>
<text text-anchor="start" x="91" y="-94.5" font-family="Helvetica,sans-Serif" font-size="10.00">SendBusinessReviewEmail()</text>
<text text-anchor="start" x="82.5" y="-78.5" font-family="Helvetica,sans-Serif" font-size="10.00">&#45;</text>
<text text-anchor="start" x="91" y="-78.5" font-family="Helvetica,sans-Serif" font-size="10.00">CreateSmtpClient()</text>
<text text-anchor="start" x="82.5" y="-62.5" font-family="Helvetica,sans-Serif" font-size="10.00">&#45;</text>
<text text-anchor="start" x="91" y="-62.5" font-family="Helvetica,sans-Serif" font-size="10.00">BuildRentalConfirmationBody()</text>
<text text-anchor="start" x="82.5" y="-46.5" font-family="Helvetica,sans-Serif" font-size="10.00">&#45;</text>
<text text-anchor="start" x="91" y="-46.5" font-family="Helvetica,sans-Serif" font-size="10.00">BuildConfirmationEmailBusiness</text>
<text text-anchor="start" x="91" y="-34.5" font-family="Helvetica,sans-Serif" font-size="10.00">Body()</text>
<text text-anchor="start" x="82.5" y="-18.5" font-family="Helvetica,sans-Serif" font-size="10.00">&#45;</text>
<text text-anchor="start" x="91" y="-18.5" font-family="Helvetica,sans-Serif" font-size="10.00">BuildBusinessReviewEmail</text>
<text text-anchor="start" x="91" y="-6.5" font-family="Helvetica,sans-Serif" font-size="10.00">Body()</text>
<polygon fill="#666666" stroke="#666666" points="77,-202 77,-202 244.25,-202 244.25,-202 77,-202"/>
<polygon fill="#666666" stroke="#666666" points="77,-186 77,-186 244.25,-186 244.25,-186 77,-186"/>
<polygon fill="none" stroke="#666666" points="77,0 77,-220 244.25,-220 244.25,0 77,0"/>
</a>
</g>
</g>
<!-- Node2 -->
<g id="Node000002" class="node">
<title>Node2</title>
<g id="a_Node000002"><a xlink:href="interface_w_p_r_1_1_services_1_1_i_email_service.html" target="_top" xlink:title=" ">
<polygon fill="white" stroke="none" points="167.25,-400 0,-400 0,-284 167.25,-284 167.25,-400"/>
<text text-anchor="start" x="53.25" y="-386.5" font-family="Helvetica,sans-Serif" font-size="10.00">IEmailService</text>
<text text-anchor="start" x="82.12" y="-370.5" font-family="Helvetica,sans-Serif" font-size="10.00"> </text>
<text text-anchor="start" x="4" y="-354.5" font-family="Helvetica,sans-Serif" font-size="10.00">+</text>
<text text-anchor="start" x="14" y="-354.5" font-family="Helvetica,sans-Serif" font-size="10.00">SendBusinessReviewEmail()</text>
<text text-anchor="start" x="4" y="-338.5" font-family="Helvetica,sans-Serif" font-size="10.00">+</text>
<text text-anchor="start" x="14" y="-338.5" font-family="Helvetica,sans-Serif" font-size="10.00">SendConfirmationEmailBusiness()</text>
<text text-anchor="start" x="4" y="-322.5" font-family="Helvetica,sans-Serif" font-size="10.00">+</text>
<text text-anchor="start" x="14" y="-322.5" font-family="Helvetica,sans-Serif" font-size="10.00">SendRentalConfirmMail()</text>
<text text-anchor="start" x="4" y="-306.5" font-family="Helvetica,sans-Serif" font-size="10.00">+</text>
<text text-anchor="start" x="14" y="-306.5" font-family="Helvetica,sans-Serif" font-size="10.00">SendWelcomeEmail()</text>
<text text-anchor="start" x="4" y="-290.5" font-family="Helvetica,sans-Serif" font-size="10.00">+</text>
<text text-anchor="start" x="14" y="-290.5" font-family="Helvetica,sans-Serif" font-size="10.00">Send()</text>
<polygon fill="#666666" stroke="#666666" points="0,-382 0,-382 167.25,-382 167.25,-382 0,-382"/>
<polygon fill="#666666" stroke="#666666" points="0,-366 0,-366 167.25,-366 167.25,-366 0,-366"/>
<polygon fill="none" stroke="#666666" points="0,-284 0,-400 167.25,-400 167.25,-284 0,-284"/>
</a>
</g>
</g>
<!-- Node2&#45;&gt;Node1 -->
<g id="edge1_Node000001_Node000002" class="edge">
<title>Node2&#45;&gt;Node1</title>
<g id="a_edge1_Node000001_Node000002"><a xlink:title=" ">
<path fill="none" stroke="#63b8ff" d="M106.28,-273.33C111.92,-256.48 118.11,-237.99 124.23,-219.71"/>
<polygon fill="none" stroke="#63b8ff" points="102.99,-272.12 103.14,-282.71 109.63,-274.34 102.99,-272.12"/>
</a>
</g>
</g>
<!-- Node3 -->
<g id="Node000003" class="node">
<title>Node3</title>
<g id="a_Node000003"><a xlink:href="class_w_p_r_1_1_data_1_1_env_config.html" target="_top" xlink:title="Leez het .env bestand uit waarin de connectie strings staan naar de database. Deze staan in een apart...">
<polygon fill="white" stroke="none" points="291.5,-416 185.75,-416 185.75,-268 291.5,-268 291.5,-416"/>
<text text-anchor="start" x="190.25" y="-402.5" font-family="Helvetica,sans-Serif" font-size="10.00">WPR.Data.EnvConfig</text>
<text text-anchor="start" x="191.25" y="-386.5" font-family="Helvetica,sans-Serif" font-size="10.00">&#45;</text>
<text text-anchor="start" x="199.75" y="-386.5" font-family="Helvetica,sans-Serif" font-size="10.00">_configuration</text>
<text text-anchor="start" x="189.75" y="-370.5" font-family="Helvetica,sans-Serif" font-size="10.00">+</text>
<text text-anchor="start" x="199.75" y="-370.5" font-family="Helvetica,sans-Serif" font-size="10.00">EnvConfig()</text>
<text text-anchor="start" x="189.75" y="-354.5" font-family="Helvetica,sans-Serif" font-size="10.00">+</text>
<text text-anchor="start" x="199.75" y="-354.5" font-family="Helvetica,sans-Serif" font-size="10.00">Get()</text>
<text text-anchor="start" x="189.75" y="-338.5" font-family="Helvetica,sans-Serif" font-size="10.00">+</text>
<text text-anchor="start" x="199.75" y="-338.5" font-family="Helvetica,sans-Serif" font-size="10.00">IsConfigured()</text>
<text text-anchor="start" x="189.75" y="-322.5" font-family="Helvetica,sans-Serif" font-size="10.00">+</text>
<text text-anchor="start" x="199.75" y="-322.5" font-family="Helvetica,sans-Serif" font-size="10.00">GetSmtpHost()</text>
<text text-anchor="start" x="189.75" y="-306.5" font-family="Helvetica,sans-Serif" font-size="10.00">+</text>
<text text-anchor="start" x="199.75" y="-306.5" font-family="Helvetica,sans-Serif" font-size="10.00">GetSmtpPort()</text>
<text text-anchor="start" x="189.75" y="-290.5" font-family="Helvetica,sans-Serif" font-size="10.00">+</text>
<text text-anchor="start" x="199.75" y="-290.5" font-family="Helvetica,sans-Serif" font-size="10.00">GetFromEmail()</text>
<text text-anchor="start" x="189.75" y="-274.5" font-family="Helvetica,sans-Serif" font-size="10.00">+</text>
<text text-anchor="start" x="199.75" y="-274.5" font-family="Helvetica,sans-Serif" font-size="10.00">GetFromPassword()</text>
<polygon fill="#666666" stroke="#666666" points="185.75,-398 185.75,-398 291.5,-398 291.5,-398 185.75,-398"/>
<polygon fill="#666666" stroke="#666666" points="185.75,-382 185.75,-382 197.75,-382 197.75,-382 185.75,-382"/>
<polygon fill="#666666" stroke="#666666" points="197.75,-382 197.75,-382 291.5,-382 291.5,-382 197.75,-382"/>
<polygon fill="none" stroke="#666666" points="185.75,-268 185.75,-416 291.5,-416 291.5,-268 185.75,-268"/>
</a>
</g>
</g>
<!-- Node3&#45;&gt;Node1 -->
<g id="edge2_Node000001_Node000003" class="edge">
<title>Node3&#45;&gt;Node1</title>
<g id="a_edge2_Node000001_Node000003"><a xlink:title=" ">
<path fill="none" stroke="#63b8ff" d="M213.95,-268.23C210.03,-256.68 205.89,-244.47 201.72,-232.17"/>
<polygon fill="none" stroke="#63b8ff" points="201.68,-232.07 195.97,-227.67 197.83,-220.71 203.55,-225.11 201.68,-232.07"/>
</a>
</g>
<text text-anchor="middle" x="234.36" y="-240.5" font-family="Helvetica,sans-Serif" font-size="10.00" fill="grey"> &#45;_envConfig</text>
</g>
</g>
</svg>
</svg>

<style type='text/css'>
<![CDATA[
[data-mouse-over-selected='false'] { opacity: 0.7; }
[data-mouse-over-selected='true']  { opacity: 1.0; }
]]>
</style>
<script type="application/ecmascript"><![CDATA[
document.addEventListener('DOMContentLoaded', (event) => {
  highlightEdges();
  highlightAdjacentNodes();
});
]]></script>
</svg>
