<?xml version="1.0" encoding="UTF-8" standalone="no"?>
<!DOCTYPE svg PUBLIC "-//W3C//DTD SVG 1.1//EN"
 "http://www.w3.org/Graphics/SVG/1.1/DTD/svg11.dtd">
<!-- Generated by graphviz version 12.2.1 (20241206.2353)
 -->
<!-- Title: WPR.Controllers.Employee.Shared.viewRentalData.viewRentalDataController Pages: 1 -->
<svg width="241pt" height="324pt"
 viewBox="0.00 0.00 240.75 324.00" xmlns="http://www.w3.org/2000/svg" xmlns:xlink="http://www.w3.org/1999/xlink">

<svg id="main" version="1.1" xmlns="http://www.w3.org/2000/svg" xmlns:xlink="http://www.w3.org/1999/xlink" xml:space="preserve">

<style type="text/css"><![CDATA[
.node, .edge {opacity: 0.7;}
.node.selected, .edge.selected {opacity: 1;}
.edge:hover path { stroke: red; }
.edge:hover polygon { stroke: red; fill: red; }
]]></style>
<script type="application/ecmascript" xlink:href="svg.min.js"/>
<svg id="graph" class="graph">
<g id="graph0" class="graph" transform="scale(1 1) rotate(0) translate(4 320)">
<title>WPR.Controllers.Employee.Shared.viewRentalData.viewRentalDataController</title>
<!-- Node1 -->
<g id="Node000001" class="node">
<title>Node1</title>
<g id="a_Node000001"><a xlink:title=" ">
<polygon fill="#999999" stroke="none" points="178.88,-124 15.62,-124 15.62,0 178.88,0 178.88,-124"/>
<text text-anchor="start" x="19.62" y="-110.5" font-family="Helvetica,sans-Serif" font-size="10.00">WPR.Controllers.Employee.</text>
<text text-anchor="start" x="19.62" y="-98.5" font-family="Helvetica,sans-Serif" font-size="10.00">Shared.viewRentalData.viewRental</text>
<text text-anchor="start" x="65.75" y="-86.5" font-family="Helvetica,sans-Serif" font-size="10.00">DataController</text>
<text text-anchor="start" x="95.75" y="-70.5" font-family="Helvetica,sans-Serif" font-size="10.00"> </text>
<text text-anchor="start" x="26.5" y="-54.5" font-family="Helvetica,sans-Serif" font-size="10.00">+</text>
<text text-anchor="start" x="43.38" y="-54.5" font-family="Helvetica,sans-Serif" font-size="10.00">viewRentalDataController()</text>
<text text-anchor="start" x="26.5" y="-38.5" font-family="Helvetica,sans-Serif" font-size="10.00">+</text>
<text text-anchor="start" x="43.38" y="-38.5" font-family="Helvetica,sans-Serif" font-size="10.00">GetReview()</text>
<text text-anchor="start" x="26.5" y="-22.5" font-family="Helvetica,sans-Serif" font-size="10.00">+</text>
<text text-anchor="start" x="43.38" y="-22.5" font-family="Helvetica,sans-Serif" font-size="10.00">GetDataReviewIds()</text>
<text text-anchor="start" x="26.5" y="-6.5" font-family="Helvetica,sans-Serif" font-size="10.00">+</text>
<text text-anchor="start" x="43.38" y="-6.5" font-family="Helvetica,sans-Serif" font-size="10.00">GetFullReview()</text>
<polygon fill="#666666" stroke="#666666" points="15.62,-82 15.62,-82 178.88,-82 178.88,-82 15.62,-82"/>
<polygon fill="#666666" stroke="#666666" points="15.62,-66 15.62,-66 178.88,-66 178.88,-66 15.62,-66"/>
<polygon fill="none" stroke="#666666" points="15.62,0 15.62,-124 178.88,-124 178.88,0 15.62,0"/>
</a>
</g>
</g>
<!-- Node2 -->
<g id="Node000002" class="node">
<title>Node2</title>
<g id="a_Node000002"><a xlink:title=" ">
<polygon fill="white" stroke="none" points="72.5,-270 0,-270 0,-218 72.5,-218 72.5,-270"/>
<text text-anchor="start" x="4" y="-256.5" font-family="Helvetica,sans-Serif" font-size="10.00">ControllerBase</text>
<text text-anchor="start" x="34.75" y="-240.5" font-family="Helvetica,sans-Serif" font-size="10.00"> </text>
<text text-anchor="start" x="34.75" y="-224.5" font-family="Helvetica,sans-Serif" font-size="10.00"> </text>
<polygon fill="#666666" stroke="#666666" points="0,-252 0,-252 72.5,-252 72.5,-252 0,-252"/>
<polygon fill="#666666" stroke="#666666" points="0,-236 0,-236 72.5,-236 72.5,-236 0,-236"/>
<polygon fill="none" stroke="#666666" points="0,-218 0,-270 72.5,-270 72.5,-218 0,-218"/>
</a>
</g>
</g>
<!-- Node2&#45;&gt;Node1 -->
<g id="edge1_Node000001_Node000002" class="edge">
<title>Node2&#45;&gt;Node1</title>
<g id="a_edge1_Node000001_Node000002"><a xlink:title=" ">
<path fill="none" stroke="#63b8ff" d="M48.22,-207.68C56.31,-183.8 67.21,-151.65 76.67,-123.72"/>
<polygon fill="none" stroke="#63b8ff" points="44.98,-206.32 45.09,-216.92 51.61,-208.57 44.98,-206.32"/>
</a>
</g>
</g>
<!-- Node3 -->
<g id="Node000003" class="node">
<title>Node3</title>
<g id="a_Node000003"><a xlink:href="interface_w_p_r_1_1_repository_1_1_i_back_office_repository.html" target="_top" xlink:title=" ">
<polygon fill="white" stroke="none" points="226,-316 90.5,-316 90.5,-172 226,-172 226,-316"/>
<text text-anchor="start" x="94.5" y="-302.5" font-family="Helvetica,sans-Serif" font-size="10.00">WPR.Repository.IBackOffice</text>
<text text-anchor="start" x="134.62" y="-290.5" font-family="Helvetica,sans-Serif" font-size="10.00">Repository</text>
<text text-anchor="start" x="94.81" y="-274.5" font-family="Helvetica,sans-Serif" font-size="10.00">+</text>
<text text-anchor="start" x="105.12" y="-274.5" font-family="Helvetica,sans-Serif" font-size="10.00">Status</text>
<text text-anchor="start" x="94.81" y="-258.5" font-family="Helvetica,sans-Serif" font-size="10.00">+</text>
<text text-anchor="start" x="105.12" y="-258.5" font-family="Helvetica,sans-Serif" font-size="10.00">Message</text>
<text text-anchor="start" x="94.81" y="-242.5" font-family="Helvetica,sans-Serif" font-size="10.00">+</text>
<text text-anchor="start" x="105.12" y="-242.5" font-family="Helvetica,sans-Serif" font-size="10.00">GetDataReview()</text>
<text text-anchor="start" x="94.81" y="-226.5" font-family="Helvetica,sans-Serif" font-size="10.00">+</text>
<text text-anchor="start" x="105.12" y="-226.5" font-family="Helvetica,sans-Serif" font-size="10.00">GetDataReviewIds()</text>
<text text-anchor="start" x="94.81" y="-210.5" font-family="Helvetica,sans-Serif" font-size="10.00">+</text>
<text text-anchor="start" x="105.12" y="-210.5" font-family="Helvetica,sans-Serif" font-size="10.00">GetFullDataReview()</text>
<text text-anchor="start" x="94.81" y="-194.5" font-family="Helvetica,sans-Serif" font-size="10.00">+</text>
<text text-anchor="start" x="105.12" y="-194.5" font-family="Helvetica,sans-Serif" font-size="10.00">AddSubscriptionAsync()</text>
<text text-anchor="start" x="94.81" y="-178.5" font-family="Helvetica,sans-Serif" font-size="10.00">+</text>
<text text-anchor="start" x="105.12" y="-178.5" font-family="Helvetica,sans-Serif" font-size="10.00">DeleteSubscriptionAsync()</text>
<polygon fill="#666666" stroke="#666666" points="90.5,-286 90.5,-286 226,-286 226,-286 90.5,-286"/>
<polygon fill="#666666" stroke="#666666" points="90.5,-254 90.5,-254 103.12,-254 103.12,-254 90.5,-254"/>
<polygon fill="#666666" stroke="#666666" points="103.12,-254 103.12,-254 226,-254 226,-254 103.12,-254"/>
<polygon fill="none" stroke="#666666" points="90.5,-172 90.5,-316 226,-316 226,-172 90.5,-172"/>
</a>
</g>
</g>
<!-- Node3&#45;&gt;Node1 -->
<g id="edge2_Node000001_Node000003" class="edge">
<title>Node3&#45;&gt;Node1</title>
<g id="a_edge2_Node000001_Node000003"><a xlink:title=" ">
<path fill="none" stroke="#63b8ff" d="M134.23,-172.12C130.22,-160.29 126.05,-148 122.03,-136.12"/>
<polygon fill="none" stroke="#63b8ff" points="122.03,-136.13 116.32,-131.74 118.18,-124.77 123.9,-129.17 122.03,-136.13"/>
</a>
</g>
<text text-anchor="middle" x="180.25" y="-144.5" font-family="Helvetica,sans-Serif" font-size="10.00" fill="grey"> &#45;_backOfficeRepository</text>
</g>
</g>
</svg>
</svg>

<style type='text/css'>
<![CDATA[
[data-mouse-over-selected='false'] { opacity: 0.7; }
[data-mouse-over-selected='true']  { opacity: 1.0; }
]]>
</style>
<script type="application/ecmascript"><![CDATA[
document.addEventListener('DOMContentLoaded', (event) => {
  highlightEdges();
  highlightAdjacentNodes();
});
]]></script>
</svg>
