<?xml version="1.0" encoding="UTF-8" standalone="no"?>
<!DOCTYPE svg PUBLIC "-//W3C//DTD SVG 1.1//EN"
 "http://www.w3.org/Graphics/SVG/1.1/DTD/svg11.dtd">
<!-- Generated by graphviz version 12.2.1 (20241206.2353)
 -->
<!-- Title: WPR.Controllers.Employee.FrontOffice.AddIntake.AddIntakeController Pages: 1 -->
<svg width="159pt" height="220pt"
 viewBox="0.00 0.00 158.50 220.00" xmlns="http://www.w3.org/2000/svg" xmlns:xlink="http://www.w3.org/1999/xlink">
<g id="graph0" class="graph" transform="scale(1 1) rotate(0) translate(4 216)">
<title>WPR.Controllers.Employee.FrontOffice.AddIntake.AddIntakeController</title>
<!-- Node1 -->
<g id="Node000001" class="node">
<title>Node1</title>
<g id="a_Node000001"><a xlink:title="AddIntakeController zorgt ervoor dat informatie over de inname van een voertuig toegevoegd kan worden...">
<polygon fill="#999999" stroke="none" points="150.5,-124 0,-124 0,0 150.5,0 150.5,-124"/>
<text text-anchor="start" x="4" y="-110.5" font-family="Helvetica,sans-Serif" font-size="10.00">WPR.Controllers.Employee.</text>
<text text-anchor="start" x="4" y="-98.5" font-family="Helvetica,sans-Serif" font-size="10.00">FrontOffice.AddIntake.AddIntake</text>
<text text-anchor="start" x="54.25" y="-86.5" font-family="Helvetica,sans-Serif" font-size="10.00">Controller</text>
<text text-anchor="start" x="15" y="-70.5" font-family="Helvetica,sans-Serif" font-size="10.00">&#45;</text>
<text text-anchor="start" x="33" y="-70.5" font-family="Helvetica,sans-Serif" font-size="10.00">_connector</text>
<text text-anchor="start" x="15" y="-54.5" font-family="Helvetica,sans-Serif" font-size="10.00">&#45;</text>
<text text-anchor="start" x="33" y="-54.5" font-family="Helvetica,sans-Serif" font-size="10.00">_employeeRepository</text>
<text text-anchor="start" x="15" y="-38.5" font-family="Helvetica,sans-Serif" font-size="10.00">&#45;</text>
<text text-anchor="start" x="33" y="-38.5" font-family="Helvetica,sans-Serif" font-size="10.00">_vehicleRepository</text>
<text text-anchor="start" x="13.5" y="-22.5" font-family="Helvetica,sans-Serif" font-size="10.00">+</text>
<text text-anchor="start" x="33" y="-22.5" font-family="Helvetica,sans-Serif" font-size="10.00">AddIntakeController()</text>
<text text-anchor="start" x="13.5" y="-6.5" font-family="Helvetica,sans-Serif" font-size="10.00">+</text>
<text text-anchor="start" x="33" y="-6.5" font-family="Helvetica,sans-Serif" font-size="10.00">AddIntakeAsync()</text>
<polygon fill="#666666" stroke="#666666" points="0,-82 0,-82 150.5,-82 150.5,-82 0,-82"/>
<polygon fill="#666666" stroke="#666666" points="0,-34 0,-34 31,-34 31,-34 0,-34"/>
<polygon fill="#666666" stroke="#666666" points="31,-34 31,-34 150.5,-34 150.5,-34 31,-34"/>
<polygon fill="none" stroke="#666666" points="0,0 0,-124 150.5,-124 150.5,0 0,0"/>
</a>
</g>
</g>
<!-- Node2 -->
<g id="Node000002" class="node">
<title>Node2</title>
<g id="a_Node000002"><a xlink:title=" ">
<polygon fill="white" stroke="none" points="111.5,-212 39,-212 39,-160 111.5,-160 111.5,-212"/>
<text text-anchor="start" x="43" y="-198.5" font-family="Helvetica,sans-Serif" font-size="10.00">ControllerBase</text>
<text text-anchor="start" x="73.75" y="-182.5" font-family="Helvetica,sans-Serif" font-size="10.00"> </text>
<text text-anchor="start" x="73.75" y="-166.5" font-family="Helvetica,sans-Serif" font-size="10.00"> </text>
<polygon fill="#666666" stroke="#666666" points="39,-194 39,-194 111.5,-194 111.5,-194 39,-194"/>
<polygon fill="#666666" stroke="#666666" points="39,-178 39,-178 111.5,-178 111.5,-178 39,-178"/>
<polygon fill="none" stroke="#666666" points="39,-160 39,-212 111.5,-212 111.5,-160 39,-160"/>
</a>
</g>
</g>
<!-- Node2&#45;&gt;Node1 -->
<g id="edge1_Node000001_Node000002" class="edge">
<title>Node2&#45;&gt;Node1</title>
<g id="a_edge1_Node000001_Node000002"><a xlink:title=" ">
<path fill="none" stroke="#63b8ff" d="M75.25,-148.74C75.25,-140.92 75.25,-132.45 75.25,-123.98"/>
<polygon fill="none" stroke="#63b8ff" points="71.75,-148.5 75.25,-158.5 78.75,-148.5 71.75,-148.5"/>
</a>
</g>
</g>
</g>
</svg>
