<?xml version="1.0" encoding="UTF-8" standalone="no"?>
<!DOCTYPE svg PUBLIC "-//W3C//DTD SVG 1.1//EN"
 "http://www.w3.org/Graphics/SVG/1.1/DTD/svg11.dtd">
<!-- Generated by graphviz version 12.2.1 (20241206.2353)
 -->
<!-- Title: WPR.Repository.UserRepository.checkUsageEmailAsync Pages: 1 -->
<!--zoomable 140 -->

<svg id="main" version="1.1" xmlns="http://www.w3.org/2000/svg" xmlns:xlink="http://www.w3.org/1999/xlink" xml:space="preserve" onload="init(evt)">

<style type="text/css"><![CDATA[
.node, .edge {opacity: 0.7;}
.node.selected, .edge.selected {opacity: 1;}
.edge:hover path { stroke: red; }
.edge:hover polygon { stroke: red; fill: red; }
]]></style>

<defs>
  <circle id="rim" cx="0" cy="0" r="7"/>
  <circle id="rim2" cx="0" cy="0" r="3.5"/>
  <g id="zoomPlus">
    <use xlink:href="#rim" fill="#404040"><set attributeName="fill" to="#808080" begin="zoomplus.mouseover" end="zoomplus.mouseout"/></use>
    <path d="M-4,0h8M0,-4v8" fill="none" stroke="white" stroke-width="1.5" pointer-events="none"/>
  </g>
  <g id="zoomMin">
    <use xlink:href="#rim" fill="#404040"><set attributeName="fill" to="#808080" begin="zoomminus.mouseover" end="zoomminus.mouseout"/></use>
    <path d="M-4,0h8" fill="none" stroke="white" stroke-width="1.5" pointer-events="none"/>
  </g>
  <g id="arrowUp" transform="translate(30 24)">
    <use xlink:href="#rim"/>
    <path pointer-events="none" fill="none" stroke="white" stroke-width="1.5" d="M0,-3.0v7 M-2.5,-0.5L0,-3.0L2.5,-0.5"/>
  </g>
  <g id="arrowRight" transform="rotate(90) translate(36 -43)">
    <use xlink:href="#rim"/>
    <path pointer-events="none" fill="none" stroke="white" stroke-width="1.5" d="M0,-3.0v7 M-2.5,-0.5L0,-3.0L2.5,-0.5"/>
  </g>
  <g id="arrowDown" transform="rotate(180) translate(-30 -48)">
    <use xlink:href="#rim"/>
    <path pointer-events="none" fill="none" stroke="white" stroke-width="1.5" d="M0,-3.0v7 M-2.5,-0.5L0,-3.0L2.5,-0.5"/>
  </g>
  <g id="arrowLeft" transform="rotate(270) translate(-36 17)">
    <use xlink:href="#rim"/>
    <path pointer-events="none" fill="none" stroke="white" stroke-width="1.5" d="M0,-3.0v7 M-2.5,-0.5L0,-3.0L2.5,-0.5"/>
  </g>
  <g id="resetDef">
    <use xlink:href="#rim2" fill="#404040"><set attributeName="fill" to="#808080" begin="reset.mouseover" end="reset.mouseout"/></use>
  </g>
</defs>
<script type="application/ecmascript">
var viewWidth = 794;
var viewHeight = 140;
var sectionId = 'dynsection-16';
</script>
<script type="application/ecmascript" xlink:href="svg.min.js"/>
<svg id="graph" class="graph">
<g id="viewport">
<title>WPR.Repository.UserRepository.checkUsageEmailAsync</title>
<!-- Node1 -->
<g id="Node000001" class="node">
<title>Node1</title>
<g id="a_Node000001"><a xlink:title="Er wordt gekeken of het emailadres al bestaat in de databse.">
<polygon fill="#999999" stroke="#666666" points="786.25,-82 597,-82 597,-50 786.25,-50 786.25,-82"/>
<text text-anchor="start" x="605" y="-68.5" font-family="Helvetica,sans-Serif" font-size="10.00">WPR.Repository.UserRepository.check</text>
<text text-anchor="middle" x="691.62" y="-56.5" font-family="Helvetica,sans-Serif" font-size="10.00">UsageEmailAsync</text>
</a>
</g>
</g>
<!-- Node2 -->
<g id="Node000002" class="node">
<title>Node2</title>
<g id="a_Node000002"><a xlink:href="class_w_p_r_1_1_repository_1_1_user_repository.html#ae8b7a3c517ffe6cb1b85eee60e5b2292" target="_top" xlink:title="AddCustomerChecks kijkt of alle ingevoerde velden geldig zijn. Als een check faalt falen alle checks.">
<polygon fill="white" stroke="#666666" points="561,-132 398,-132 398,-100 561,-100 561,-132"/>
<text text-anchor="start" x="406" y="-118.5" font-family="Helvetica,sans-Serif" font-size="10.00">WPR.Repository.UserRepository.</text>
<text text-anchor="middle" x="479.5" y="-106.5" font-family="Helvetica,sans-Serif" font-size="10.00">AddCustomerChecks</text>
</a>
</g>
</g>
<!-- Node1&#45;&gt;Node2 -->
<g id="edge1_Node000001_Node000002" class="edge">
<title>Node1&#45;&gt;Node2</title>
<g id="a_edge1_Node000001_Node000002"><a xlink:title=" ">
<path fill="none" stroke="#63b8ff" d="M610.54,-85.06C590.47,-89.83 569.12,-94.91 549.64,-99.55"/>
<polygon fill="#63b8ff" stroke="#63b8ff" points="611.14,-88.51 620.06,-82.79 609.52,-81.7 611.14,-88.51"/>
</a>
</g>
</g>
<!-- Node5 -->
<g id="Node000005" class="node">
<title>Node5</title>
<g id="a_Node000005"><a xlink:href="class_w_p_r_1_1_repository_1_1_user_repository.html#a188ce6aab8b95ea246623cc80b520714" target="_top" xlink:title=" ">
<polygon fill="white" stroke="#666666" points="561,-82 398,-82 398,-50 561,-50 561,-82"/>
<text text-anchor="start" x="406" y="-68.5" font-family="Helvetica,sans-Serif" font-size="10.00">WPR.Repository.UserRepository.</text>
<text text-anchor="middle" x="479.5" y="-56.5" font-family="Helvetica,sans-Serif" font-size="10.00">AddPersonalCustomer</text>
</a>
</g>
</g>
<!-- Node1&#45;&gt;Node5 -->
<g id="edge5_Node000001_Node000005" class="edge">
<title>Node1&#45;&gt;Node5</title>
<g id="a_edge5_Node000001_Node000005"><a xlink:title=" ">
<path fill="none" stroke="#63b8ff" d="M585.25,-66C577.19,-66 569.13,-66 561.26,-66"/>
<polygon fill="#63b8ff" stroke="#63b8ff" points="585.11,-69.5 595.11,-66 585.11,-62.5 585.11,-69.5"/>
</a>
</g>
</g>
<!-- Node6 -->
<g id="Node000006" class="node">
<title>Node6</title>
<g id="a_Node000006"><a xlink:href="class_w_p_r_1_1_repository_1_1_user_repository.html#af1ae304fd24d3ae358db293b0033e484" target="_top" xlink:title="Er wordt een query aangemaakt, met daarin de meegeven gegevens die veranderd moeten worden in het acc...">
<polygon fill="white" stroke="#666666" points="561,-32 398,-32 398,0 561,0 561,-32"/>
<text text-anchor="start" x="406" y="-18.5" font-family="Helvetica,sans-Serif" font-size="10.00">WPR.Repository.UserRepository.</text>
<text text-anchor="middle" x="479.5" y="-6.5" font-family="Helvetica,sans-Serif" font-size="10.00">CreateUserInfoQuery</text>
</a>
</g>
</g>
<!-- Node1&#45;&gt;Node6 -->
<g id="edge6_Node000001_Node000006" class="edge">
<title>Node1&#45;&gt;Node6</title>
<g id="a_edge6_Node000001_Node000006"><a xlink:title=" ">
<path fill="none" stroke="#63b8ff" d="M610.54,-46.94C590.47,-42.17 569.12,-37.09 549.64,-32.45"/>
<polygon fill="#63b8ff" stroke="#63b8ff" points="609.52,-50.3 620.06,-49.21 611.14,-43.49 609.52,-50.3"/>
</a>
</g>
</g>
<!-- Node3 -->
<g id="Node000003" class="node">
<title>Node3</title>
<g id="a_Node000003"><a xlink:href="class_w_p_r_1_1_repository_1_1_user_repository.html#a688723c1fb3385274f13ba0e3ba78da8" target="_top" xlink:title="AddCustomer krijgt SignUpRequestCustomer binnen en SignUpRequestCustomerPrivate. Elk account heeft al...">
<polygon fill="white" stroke="#666666" points="163,-132 0,-132 0,-100 163,-100 163,-132"/>
<text text-anchor="start" x="8" y="-118.5" font-family="Helvetica,sans-Serif" font-size="10.00">WPR.Repository.UserRepository.</text>
<text text-anchor="middle" x="81.5" y="-106.5" font-family="Helvetica,sans-Serif" font-size="10.00">AddCustomer</text>
</a>
</g>
</g>
<!-- Node2&#45;&gt;Node3 -->
<g id="edge2_Node000002_Node000003" class="edge">
<title>Node2&#45;&gt;Node3</title>
<g id="a_edge2_Node000002_Node000003"><a xlink:title=" ">
<path fill="none" stroke="#63b8ff" d="M386.41,-118.59C378.16,-118.76 369.93,-118.9 362,-119 289.56,-119.93 271.44,-119.93 199,-119 187.47,-118.85 175.3,-118.62 163.34,-118.35"/>
<polygon fill="#63b8ff" stroke="#63b8ff" points="386.22,-122.1 396.15,-118.38 386.07,-115.1 386.22,-122.1"/>
</a>
</g>
</g>
<!-- Node4 -->
<g id="Node000004" class="node">
<title>Node4</title>
<g id="a_Node000004"><a xlink:href="class_w_p_r_1_1_repository_1_1_user_repository.html#a4fe2a09bb575fb8d9510828ef5ad9813" target="_top" xlink:title="AddPrivateCustomerDetails zorgt ervoor dat alle extra details van particuliere huurders toegevoegd wo...">
<polygon fill="white" stroke="#666666" points="362,-110 199,-110 199,-78 362,-78 362,-110"/>
<text text-anchor="start" x="207" y="-96.5" font-family="Helvetica,sans-Serif" font-size="10.00">WPR.Repository.UserRepository.</text>
<text text-anchor="middle" x="280.5" y="-84.5" font-family="Helvetica,sans-Serif" font-size="10.00">AddPrivateCustomerDetails</text>
</a>
</g>
</g>
<!-- Node2&#45;&gt;Node4 -->
<g id="edge3_Node000002_Node000004" class="edge">
<title>Node2&#45;&gt;Node4</title>
<g id="a_edge3_Node000002_Node000004"><a xlink:title=" ">
<path fill="none" stroke="#63b8ff" d="M386.32,-105.71C378.36,-104.82 370.35,-103.92 362.48,-103.04"/>
<polygon fill="#63b8ff" stroke="#63b8ff" points="385.69,-109.16 396.02,-106.79 386.47,-102.2 385.69,-109.16"/>
</a>
</g>
</g>
<!-- Node4&#45;&gt;Node3 -->
<g id="edge4_Node000004_Node000003" class="edge">
<title>Node4&#45;&gt;Node3</title>
<g id="a_edge4_Node000004_Node000003"><a xlink:title=" ">
<path fill="none" stroke="#63b8ff" d="M187.32,-104.29C179.36,-105.18 171.35,-106.08 163.48,-106.96"/>
<polygon fill="#63b8ff" stroke="#63b8ff" points="187.47,-107.8 197.02,-103.21 186.69,-100.84 187.47,-107.8"/>
</a>
</g>
</g>
<!-- Node7 -->
<g id="Node000007" class="node">
<title>Node7</title>
<g id="a_Node000007"><a xlink:href="class_w_p_r_1_1_repository_1_1_user_repository.html#af9a5424f00a5cfc023cc147a1e0a59cf" target="_top" xlink:title=" ">
<polygon fill="white" stroke="#666666" points="362,-32 199,-32 199,0 362,0 362,-32"/>
<text text-anchor="start" x="207" y="-18.5" font-family="Helvetica,sans-Serif" font-size="10.00">WPR.Repository.UserRepository.</text>
<text text-anchor="middle" x="280.5" y="-6.5" font-family="Helvetica,sans-Serif" font-size="10.00">EditUserInfoAsync</text>
</a>
</g>
</g>
<!-- Node6&#45;&gt;Node7 -->
<g id="edge7_Node000006_Node000007" class="edge">
<title>Node6&#45;&gt;Node7</title>
<g id="a_edge7_Node000006_Node000007"><a xlink:title=" ">
<path fill="none" stroke="#63b8ff" d="M386.05,-16C378.18,-16 370.26,-16 362.48,-16"/>
<polygon fill="#63b8ff" stroke="#63b8ff" points="386.01,-19.5 396.01,-16 386.01,-12.5 386.01,-19.5"/>
</a>
</g>
</g>
</g>
</svg>

<g id="navigator" transform="translate(0 0)" fill="#404254">
  <rect fill="#f2f5e9" fill-opacity="0.5" stroke="#606060" stroke-width=".5" x="0" y="0" width="60" height="60"/>
  <use id="zoomplus" xlink:href="#zoomPlus" x="17" y="9" onmousedown="handleZoom(evt,'in')"/>
  <use id="zoomminus" xlink:href="#zoomMin" x="42" y="9" onmousedown="handleZoom(evt,'out')"/>
  <use id="reset" xlink:href="#resetDef" x="30" y="36" onmousedown="handleReset()"/>
   <use id="arrowup" xlink:href="#arrowUp" x="0" y="0" onmousedown="handlePan(0,-1)"/>
  <use id="arrowright" xlink:href="#arrowRight" x="0" y="0" onmousedown="handlePan(1,0)"/>
  <use id="arrowdown" xlink:href="#arrowDown" x="0" y="0" onmousedown="handlePan(0,1)"/>
  <use id="arrowleft" xlink:href="#arrowLeft" x="0" y="0" onmousedown="handlePan(-1,0)"/>
</g>
<svg viewBox="0 0 15 15" width="100%" height="30px" preserveAspectRatio="xMaxYMin meet">
 <g id="arrow_out" transform="scale(0.3 0.3)">
  <a xlink:href="class_w_p_r_1_1_repository_1_1_user_repository_a7903e03bfe7076a6ee7b352636cb854d_icgraph_org.svg" target="_base">
   <rect id="button" ry="5" rx="5" y="6" x="6" height="38" width="38"
        fill="#f2f5e9" fill-opacity="0.5" stroke="#606060" stroke-width="1.0"/>
   <path id="arrow"
     d="M 11.500037,31.436501 C 11.940474,20.09759 22.043105,11.32322 32.158766,21.979434 L 37.068811,17.246167 C 37.068811,17.246167 37.088388,32 37.088388,32 L 22.160133,31.978069 C 22.160133,31.978069 26.997745,27.140456 26.997745,27.140456 C 18.528582,18.264221 13.291696,25.230495 11.500037,31.436501 z"
     style="fill:#404040;"/>
  </a>
 </g>
</svg>

<style type='text/css'>
<![CDATA[
[data-mouse-over-selected='false'] { opacity: 0.7; }
[data-mouse-over-selected='true']  { opacity: 1.0; }
]]>
</style>
<script type="application/ecmascript"><![CDATA[
document.addEventListener('DOMContentLoaded', (event) => {
  highlightEdges();
  highlightAdjacentNodes();
});
]]></script>
</svg>
