<?xml version="1.0" encoding="UTF-8" standalone="no"?>
<!DOCTYPE svg PUBLIC "-//W3C//DTD SVG 1.1//EN"
 "http://www.w3.org/Graphics/SVG/1.1/DTD/svg11.dtd">
<!-- Generated by graphviz version 12.2.1 (20241206.2353)
 -->
<!-- Title: DatabaseCheckRepository.DeleteBusiness Pages: 1 -->
<!--zoomable 134 -->

<svg id="main" version="1.1" xmlns="http://www.w3.org/2000/svg" xmlns:xlink="http://www.w3.org/1999/xlink" xml:space="preserve" onload="init(evt)">

<style type="text/css"><![CDATA[
.node, .edge {opacity: 0.7;}
.node.selected, .edge.selected {opacity: 1;}
.edge:hover path { stroke: red; }
.edge:hover polygon { stroke: red; fill: red; }
]]></style>

<defs>
  <circle id="rim" cx="0" cy="0" r="7"/>
  <circle id="rim2" cx="0" cy="0" r="3.5"/>
  <g id="zoomPlus">
    <use xlink:href="#rim" fill="#404040"><set attributeName="fill" to="#808080" begin="zoomplus.mouseover" end="zoomplus.mouseout"/></use>
    <path d="M-4,0h8M0,-4v8" fill="none" stroke="white" stroke-width="1.5" pointer-events="none"/>
  </g>
  <g id="zoomMin">
    <use xlink:href="#rim" fill="#404040"><set attributeName="fill" to="#808080" begin="zoomminus.mouseover" end="zoomminus.mouseout"/></use>
    <path d="M-4,0h8" fill="none" stroke="white" stroke-width="1.5" pointer-events="none"/>
  </g>
  <g id="arrowUp" transform="translate(30 24)">
    <use xlink:href="#rim"/>
    <path pointer-events="none" fill="none" stroke="white" stroke-width="1.5" d="M0,-3.0v7 M-2.5,-0.5L0,-3.0L2.5,-0.5"/>
  </g>
  <g id="arrowRight" transform="rotate(90) translate(36 -43)">
    <use xlink:href="#rim"/>
    <path pointer-events="none" fill="none" stroke="white" stroke-width="1.5" d="M0,-3.0v7 M-2.5,-0.5L0,-3.0L2.5,-0.5"/>
  </g>
  <g id="arrowDown" transform="rotate(180) translate(-30 -48)">
    <use xlink:href="#rim"/>
    <path pointer-events="none" fill="none" stroke="white" stroke-width="1.5" d="M0,-3.0v7 M-2.5,-0.5L0,-3.0L2.5,-0.5"/>
  </g>
  <g id="arrowLeft" transform="rotate(270) translate(-36 17)">
    <use xlink:href="#rim"/>
    <path pointer-events="none" fill="none" stroke="white" stroke-width="1.5" d="M0,-3.0v7 M-2.5,-0.5L0,-3.0L2.5,-0.5"/>
  </g>
  <g id="resetDef">
    <use xlink:href="#rim2" fill="#404040"><set attributeName="fill" to="#808080" begin="reset.mouseover" end="reset.mouseout"/></use>
  </g>
</defs>
<script type="application/ecmascript">
var viewWidth = 832;
var viewHeight = 134;
var sectionId = 'dynsection-2';
</script>
<script type="application/ecmascript" xlink:href="svg.min.js"/>
<svg id="graph" class="graph">
<g id="viewport">
<title>DatabaseCheckRepository.DeleteBusiness</title>
<!-- Node1 -->
<g id="Node000001" class="node">
<title>Node1</title>
<g id="a_Node000001"><a xlink:title=" ">
<polygon fill="#999999" stroke="#666666" points="136,-76 0,-76 0,-44 136,-44 136,-76"/>
<text text-anchor="start" x="8" y="-62.5" font-family="Helvetica,sans-Serif" font-size="10.00">DatabaseCheckRepository.</text>
<text text-anchor="middle" x="68" y="-50.5" font-family="Helvetica,sans-Serif" font-size="10.00">DeleteBusiness</text>
</a>
</g>
</g>
<!-- Node2 -->
<g id="Node000002" class="node">
<title>Node2</title>
<g id="a_Node000002"><a xlink:href="class_database_check_repository.html#a757a083a28f0a9d47611ea7b9cae4d85" target="_top" xlink:title="Controleert of alle werknemers van een bedrijf succesvol zijn verwijderd.">
<polygon fill="white" stroke="#666666" points="308,-126 172,-126 172,-94 308,-94 308,-126"/>
<text text-anchor="start" x="180" y="-112.5" font-family="Helvetica,sans-Serif" font-size="10.00">DatabaseCheckRepository.</text>
<text text-anchor="middle" x="240" y="-100.5" font-family="Helvetica,sans-Serif" font-size="10.00">DeleteBusinessAllowed</text>
</a>
</g>
</g>
<!-- Node1&#45;&gt;Node2 -->
<g id="edge1_Node000001_Node000002" class="edge">
<title>Node1&#45;&gt;Node2</title>
<g id="a_edge1_Node000001_Node000002"><a xlink:title=" ">
<path fill="none" stroke="#63b8ff" d="M124.66,-76.37C139.85,-80.84 156.46,-85.72 172.19,-90.35"/>
<polygon fill="#63b8ff" stroke="#63b8ff" points="170.89,-93.61 181.47,-93.08 172.86,-86.9 170.89,-93.61"/>
</a>
</g>
</g>
<!-- Node3 -->
<g id="Node000003" class="node">
<title>Node3</title>
<g id="a_Node000003"><a xlink:href="class_database_check_repository.html#a004ee325adfb7c4edc0c3e50098973ec" target="_top" xlink:title=" ">
<polygon fill="white" stroke="#666666" points="308,-76 172,-76 172,-44 308,-44 308,-76"/>
<text text-anchor="start" x="180" y="-62.5" font-family="Helvetica,sans-Serif" font-size="10.00">DatabaseCheckRepository.</text>
<text text-anchor="middle" x="240" y="-50.5" font-family="Helvetica,sans-Serif" font-size="10.00">DeleteEmployees</text>
</a>
</g>
</g>
<!-- Node1&#45;&gt;Node3 -->
<g id="edge2_Node000001_Node000003" class="edge">
<title>Node1&#45;&gt;Node3</title>
<g id="a_edge2_Node000001_Node000003"><a xlink:title=" ">
<path fill="none" stroke="#63b8ff" d="M136.19,-60C144.14,-60 152.3,-60 160.39,-60"/>
<polygon fill="#63b8ff" stroke="#63b8ff" points="160.23,-63.5 170.23,-60 160.23,-56.5 160.23,-63.5"/>
</a>
</g>
</g>
<!-- Node5 -->
<g id="Node000005" class="node">
<title>Node5</title>
<g id="a_Node000005"><a xlink:href="class_database_check_repository.html#addc06aeee3647cec54202bc103212e2e" target="_top" xlink:title=" ">
<polygon fill="white" stroke="#666666" points="652,-32 516,-32 516,0 652,0 652,-32"/>
<text text-anchor="start" x="524" y="-18.5" font-family="Helvetica,sans-Serif" font-size="10.00">DatabaseCheckRepository.</text>
<text text-anchor="middle" x="584" y="-6.5" font-family="Helvetica,sans-Serif" font-size="10.00">HandleDelete</text>
</a>
</g>
</g>
<!-- Node1&#45;&gt;Node5 -->
<g id="edge7_Node000001_Node000005" class="edge">
<title>Node1&#45;&gt;Node5</title>
<g id="a_edge7_Node000001_Node000005"><a xlink:title=" ">
<path fill="none" stroke="#63b8ff" d="M128.26,-43.56C142.49,-40.19 157.7,-37.05 172,-35 286.81,-18.57 421.31,-15.34 504.34,-15.17"/>
<polygon fill="#63b8ff" stroke="#63b8ff" points="504.2,-18.67 514.2,-15.17 504.2,-11.67 504.2,-18.67"/>
</a>
</g>
</g>
<!-- Node4 -->
<g id="Node000004" class="node">
<title>Node4</title>
<g id="a_Node000004"><a xlink:href="class_database_check_repository.html#a241ccbc35380a23dedb1f9a942a52a1b" target="_top" xlink:title=" ">
<polygon fill="white" stroke="#666666" points="480,-76 344,-76 344,-44 480,-44 480,-76"/>
<text text-anchor="start" x="352" y="-62.5" font-family="Helvetica,sans-Serif" font-size="10.00">DatabaseCheckRepository.</text>
<text text-anchor="middle" x="412" y="-50.5" font-family="Helvetica,sans-Serif" font-size="10.00">DeleteUser</text>
</a>
</g>
</g>
<!-- Node3&#45;&gt;Node4 -->
<g id="edge3_Node000003_Node000004" class="edge">
<title>Node3&#45;&gt;Node4</title>
<g id="a_edge3_Node000003_Node000004"><a xlink:title=" ">
<path fill="none" stroke="#63b8ff" d="M308.19,-60C316.14,-60 324.3,-60 332.39,-60"/>
<polygon fill="#63b8ff" stroke="#63b8ff" points="332.23,-63.5 342.23,-60 332.23,-56.5 332.23,-63.5"/>
</a>
</g>
</g>
<!-- Node4&#45;&gt;Node5 -->
<g id="edge4_Node000004_Node000005" class="edge">
<title>Node4&#45;&gt;Node5</title>
<g id="a_edge4_Node000004_Node000005"><a xlink:title=" ">
<path fill="none" stroke="#63b8ff" d="M476.3,-43.62C486.74,-40.91 497.65,-38.09 508.33,-35.33"/>
<polygon fill="#63b8ff" stroke="#63b8ff" points="509.09,-38.74 517.9,-32.85 507.34,-31.97 509.09,-38.74"/>
</a>
</g>
</g>
<!-- Node6 -->
<g id="Node000006" class="node">
<title>Node6</title>
<g id="a_Node000006"><a xlink:href="class_database_check_repository.html#ad56412a3b3449cdcb20706b41c648f3e" target="_top" xlink:title=" ">
<polygon fill="white" stroke="#666666" points="652,-82 516,-82 516,-50 652,-50 652,-82"/>
<text text-anchor="start" x="524" y="-68.5" font-family="Helvetica,sans-Serif" font-size="10.00">DatabaseCheckRepository.</text>
<text text-anchor="middle" x="584" y="-56.5" font-family="Helvetica,sans-Serif" font-size="10.00">UserHasActiveContract</text>
</a>
</g>
</g>
<!-- Node4&#45;&gt;Node6 -->
<g id="edge5_Node000004_Node000006" class="edge">
<title>Node4&#45;&gt;Node6</title>
<g id="a_edge5_Node000004_Node000006"><a xlink:title=" ">
<path fill="none" stroke="#63b8ff" d="M480.19,-62.37C488.14,-62.65 496.3,-62.94 504.39,-63.23"/>
<polygon fill="#63b8ff" stroke="#63b8ff" points="504.11,-66.72 514.23,-63.57 504.36,-59.72 504.11,-66.72"/>
</a>
</g>
</g>
<!-- Node7 -->
<g id="Node000007" class="node">
<title>Node7</title>
<g id="a_Node000007"><a xlink:href="class_database_check_repository.html#a181b1a163bd4151f68bc551091c3ee22" target="_top" xlink:title=" ">
<polygon fill="white" stroke="#666666" points="824,-82 688,-82 688,-50 824,-50 824,-82"/>
<text text-anchor="start" x="696" y="-68.5" font-family="Helvetica,sans-Serif" font-size="10.00">DatabaseCheckRepository.</text>
<text text-anchor="middle" x="756" y="-56.5" font-family="Helvetica,sans-Serif" font-size="10.00">DeleteFutereContracts</text>
</a>
</g>
</g>
<!-- Node6&#45;&gt;Node7 -->
<g id="edge6_Node000006_Node000007" class="edge">
<title>Node6&#45;&gt;Node7</title>
<g id="a_edge6_Node000006_Node000007"><a xlink:title=" ">
<path fill="none" stroke="#63b8ff" d="M652.19,-66C660.14,-66 668.3,-66 676.39,-66"/>
<polygon fill="#63b8ff" stroke="#63b8ff" points="676.23,-69.5 686.23,-66 676.23,-62.5 676.23,-69.5"/>
</a>
</g>
</g>
</g>
</svg>

<g id="navigator" transform="translate(0 0)" fill="#404254">
  <rect fill="#f2f5e9" fill-opacity="0.5" stroke="#606060" stroke-width=".5" x="0" y="0" width="60" height="60"/>
  <use id="zoomplus" xlink:href="#zoomPlus" x="17" y="9" onmousedown="handleZoom(evt,'in')"/>
  <use id="zoomminus" xlink:href="#zoomMin" x="42" y="9" onmousedown="handleZoom(evt,'out')"/>
  <use id="reset" xlink:href="#resetDef" x="30" y="36" onmousedown="handleReset()"/>
   <use id="arrowup" xlink:href="#arrowUp" x="0" y="0" onmousedown="handlePan(0,-1)"/>
  <use id="arrowright" xlink:href="#arrowRight" x="0" y="0" onmousedown="handlePan(1,0)"/>
  <use id="arrowdown" xlink:href="#arrowDown" x="0" y="0" onmousedown="handlePan(0,1)"/>
  <use id="arrowleft" xlink:href="#arrowLeft" x="0" y="0" onmousedown="handlePan(-1,0)"/>
</g>
<svg viewBox="0 0 15 15" width="100%" height="30px" preserveAspectRatio="xMaxYMin meet">
 <g id="arrow_out" transform="scale(0.3 0.3)">
  <a xlink:href="class_database_check_repository_ab5033c1e3a5b823fc7e7d6d187d12ccc_cgraph_org.svg" target="_base">
   <rect id="button" ry="5" rx="5" y="6" x="6" height="38" width="38"
        fill="#f2f5e9" fill-opacity="0.5" stroke="#606060" stroke-width="1.0"/>
   <path id="arrow"
     d="M 11.500037,31.436501 C 11.940474,20.09759 22.043105,11.32322 32.158766,21.979434 L 37.068811,17.246167 C 37.068811,17.246167 37.088388,32 37.088388,32 L 22.160133,31.978069 C 22.160133,31.978069 26.997745,27.140456 26.997745,27.140456 C 18.528582,18.264221 13.291696,25.230495 11.500037,31.436501 z"
     style="fill:#404040;"/>
  </a>
 </g>
</svg>

<style type='text/css'>
<![CDATA[
[data-mouse-over-selected='false'] { opacity: 0.7; }
[data-mouse-over-selected='true']  { opacity: 1.0; }
]]>
</style>
<script type="application/ecmascript"><![CDATA[
document.addEventListener('DOMContentLoaded', (event) => {
  highlightEdges();
  highlightAdjacentNodes();
});
]]></script>
</svg>
