<?xml version="1.0" encoding="UTF-8" standalone="no"?>
<!DOCTYPE svg PUBLIC "-//W3C//DTD SVG 1.1//EN"
 "http://www.w3.org/Graphics/SVG/1.1/DTD/svg11.dtd">
<!-- Generated by graphviz version 12.2.1 (20241206.2353)
 -->
<!-- Title: WPR.Repository.DatabaseCheckRepository.DatabaseCheckRepository.DeleteEmployees Pages: 1 -->
<svg width="858pt" height="114pt"
 viewBox="0.00 0.00 858.00 114.00" xmlns="http://www.w3.org/2000/svg" xmlns:xlink="http://www.w3.org/1999/xlink">
<g id="graph0" class="graph" transform="scale(1 1) rotate(0) translate(4 110)">
<title>WPR.Repository.DatabaseCheckRepository.DatabaseCheckRepository.DeleteEmployees</title>
<!-- Node1 -->
<g id="Node000001" class="node">
<title>Node1</title>
<g id="a_Node000001"><a xlink:title=" ">
<polygon fill="#999999" stroke="#666666" points="185.5,-75 0,-75 0,-31 185.5,-31 185.5,-75"/>
<text text-anchor="start" x="8" y="-61.5" font-family="Helvetica,sans-Serif" font-size="10.00">WPR.Repository.DatabaseCheck</text>
<text text-anchor="start" x="8" y="-49.5" font-family="Helvetica,sans-Serif" font-size="10.00">Repository.DatabaseCheckRepository.</text>
<text text-anchor="middle" x="92.75" y="-37.5" font-family="Helvetica,sans-Serif" font-size="10.00">DeleteEmployees</text>
</a>
</g>
</g>
<!-- Node2 -->
<g id="Node000002" class="node">
<title>Node2</title>
<g id="a_Node000002"><a xlink:href="class_w_p_r_1_1_repository_1_1_database_check_repository_1_1_database_check_repository.html#aeeb328ca72466c0added5450b0af72cd" target="_top" xlink:title=" ">
<polygon fill="white" stroke="#666666" points="407,-75 221.5,-75 221.5,-31 407,-31 407,-75"/>
<text text-anchor="start" x="229.5" y="-61.5" font-family="Helvetica,sans-Serif" font-size="10.00">WPR.Repository.DatabaseCheck</text>
<text text-anchor="start" x="229.5" y="-49.5" font-family="Helvetica,sans-Serif" font-size="10.00">Repository.DatabaseCheckRepository.</text>
<text text-anchor="middle" x="314.25" y="-37.5" font-family="Helvetica,sans-Serif" font-size="10.00">DeleteUser</text>
</a>
</g>
</g>
<!-- Node1&#45;&gt;Node2 -->
<g id="edge1_Node000001_Node000002" class="edge">
<title>Node1&#45;&gt;Node2</title>
<g id="a_edge1_Node000001_Node000002"><a xlink:title=" ">
<path fill="none" stroke="#63b8ff" d="M185.88,-53C193.69,-53 201.61,-53 209.5,-53"/>
<polygon fill="#63b8ff" stroke="#63b8ff" points="209.49,-56.5 219.49,-53 209.49,-49.5 209.49,-56.5"/>
</a>
</g>
</g>
<!-- Node3 -->
<g id="Node000003" class="node">
<title>Node3</title>
<g id="a_Node000003"><a xlink:href="class_w_p_r_1_1_repository_1_1_database_check_repository_1_1_database_check_repository.html#a5ef386a9041a706a2db64267c1689bc7" target="_top" xlink:title=" ">
<polygon fill="white" stroke="#666666" points="628.5,-106 443,-106 443,-62 628.5,-62 628.5,-106"/>
<text text-anchor="start" x="451" y="-92.5" font-family="Helvetica,sans-Serif" font-size="10.00">WPR.Repository.DatabaseCheck</text>
<text text-anchor="start" x="451" y="-80.5" font-family="Helvetica,sans-Serif" font-size="10.00">Repository.DatabaseCheckRepository.</text>
<text text-anchor="middle" x="535.75" y="-68.5" font-family="Helvetica,sans-Serif" font-size="10.00">HandleDelete</text>
</a>
</g>
</g>
<!-- Node2&#45;&gt;Node3 -->
<g id="edge2_Node000002_Node000003" class="edge">
<title>Node2&#45;&gt;Node3</title>
<g id="a_edge2_Node000002_Node000003"><a xlink:title=" ">
<path fill="none" stroke="#63b8ff" d="M407.38,-66.01C415.28,-67.13 423.3,-68.26 431.27,-69.39"/>
<polygon fill="#63b8ff" stroke="#63b8ff" points="430.61,-72.83 441,-70.76 431.59,-65.9 430.61,-72.83"/>
</a>
</g>
</g>
<!-- Node4 -->
<g id="Node000004" class="node">
<title>Node4</title>
<g id="a_Node000004"><a xlink:href="class_w_p_r_1_1_repository_1_1_database_check_repository_1_1_database_check_repository.html#a13ae0d3f4211da655fc83812019febf6" target="_top" xlink:title=" ">
<polygon fill="white" stroke="#666666" points="628.5,-44 443,-44 443,0 628.5,0 628.5,-44"/>
<text text-anchor="start" x="451" y="-30.5" font-family="Helvetica,sans-Serif" font-size="10.00">WPR.Repository.DatabaseCheck</text>
<text text-anchor="start" x="451" y="-18.5" font-family="Helvetica,sans-Serif" font-size="10.00">Repository.DatabaseCheckRepository.</text>
<text text-anchor="middle" x="535.75" y="-6.5" font-family="Helvetica,sans-Serif" font-size="10.00">UserHasActiveContract</text>
</a>
</g>
</g>
<!-- Node2&#45;&gt;Node4 -->
<g id="edge3_Node000002_Node000004" class="edge">
<title>Node2&#45;&gt;Node4</title>
<g id="a_edge3_Node000002_Node000004"><a xlink:title=" ">
<path fill="none" stroke="#63b8ff" d="M407.38,-39.99C415.28,-38.87 423.3,-37.74 431.27,-36.61"/>
<polygon fill="#63b8ff" stroke="#63b8ff" points="431.59,-40.1 441,-35.24 430.61,-33.17 431.59,-40.1"/>
</a>
</g>
</g>
<!-- Node5 -->
<g id="Node000005" class="node">
<title>Node5</title>
<g id="a_Node000005"><a xlink:href="class_w_p_r_1_1_repository_1_1_database_check_repository_1_1_database_check_repository.html#a02f0d55f292e91e17da9fb5fef08f4a8" target="_top" xlink:title=" ">
<polygon fill="white" stroke="#666666" points="850,-44 664.5,-44 664.5,0 850,0 850,-44"/>
<text text-anchor="start" x="672.5" y="-30.5" font-family="Helvetica,sans-Serif" font-size="10.00">WPR.Repository.DatabaseCheck</text>
<text text-anchor="start" x="672.5" y="-18.5" font-family="Helvetica,sans-Serif" font-size="10.00">Repository.DatabaseCheckRepository.</text>
<text text-anchor="middle" x="757.25" y="-6.5" font-family="Helvetica,sans-Serif" font-size="10.00">DeleteFutereContracts</text>
</a>
</g>
</g>
<!-- Node4&#45;&gt;Node5 -->
<g id="edge4_Node000004_Node000005" class="edge">
<title>Node4&#45;&gt;Node5</title>
<g id="a_edge4_Node000004_Node000005"><a xlink:title=" ">
<path fill="none" stroke="#63b8ff" d="M628.88,-22C636.69,-22 644.61,-22 652.5,-22"/>
<polygon fill="#63b8ff" stroke="#63b8ff" points="652.49,-25.5 662.49,-22 652.49,-18.5 652.49,-25.5"/>
</a>
</g>
</g>
</g>
</svg>
