<?xml version="1.0" encoding="UTF-8" standalone="no"?>
<!DOCTYPE svg PUBLIC "-//W3C//DTD SVG 1.1//EN"
 "http://www.w3.org/Graphics/SVG/1.1/DTD/svg11.dtd">
<!-- Generated by graphviz version 12.2.1 (20241206.2353)
 -->
<!-- Title: WPR.Repository.VehicleRepository.SendEmail Pages: 1 -->
<svg width="391pt" height="140pt"
 viewBox="0.00 0.00 391.00 140.00" xmlns="http://www.w3.org/2000/svg" xmlns:xlink="http://www.w3.org/1999/xlink">
<g id="graph0" class="graph" transform="scale(1 1) rotate(0) translate(4 136)">
<title>WPR.Repository.VehicleRepository.SendEmail</title>
<!-- Node1 -->
<g id="Node000001" class="node">
<title>Node1</title>
<g id="a_Node000001"><a xlink:title=" ">
<polygon fill="#999999" stroke="#666666" points="173.5,-82 0,-82 0,-50 173.5,-50 173.5,-82"/>
<text text-anchor="start" x="8" y="-68.5" font-family="Helvetica,sans-Serif" font-size="10.00">WPR.Repository.VehicleRepository.</text>
<text text-anchor="middle" x="86.75" y="-56.5" font-family="Helvetica,sans-Serif" font-size="10.00">SendEmail</text>
</a>
</g>
</g>
<!-- Node2 -->
<g id="Node000002" class="node">
<title>Node2</title>
<g id="a_Node000002"><a xlink:href="class_w_p_r_1_1_repository_1_1_vehicle_repository.html#a7d5690f15622f36a6c229b993a2a9ea9" target="_top" xlink:title=" ">
<polygon fill="white" stroke="#666666" points="383,-132 209.5,-132 209.5,-100 383,-100 383,-132"/>
<text text-anchor="start" x="217.5" y="-118.5" font-family="Helvetica,sans-Serif" font-size="10.00">WPR.Repository.VehicleRepository.</text>
<text text-anchor="middle" x="296.25" y="-106.5" font-family="Helvetica,sans-Serif" font-size="10.00">GetVehicleColorAsync</text>
</a>
</g>
</g>
<!-- Node1&#45;&gt;Node2 -->
<g id="edge1_Node000001_Node000002" class="edge">
<title>Node1&#45;&gt;Node2</title>
<g id="a_edge1_Node000001_Node000002"><a xlink:title=" ">
<path fill="none" stroke="#63b8ff" d="M155.98,-82.44C175.13,-87.05 196.11,-92.11 215.84,-96.87"/>
<polygon fill="#63b8ff" stroke="#63b8ff" points="214.97,-100.25 225.51,-99.19 216.61,-93.45 214.97,-100.25"/>
</a>
</g>
</g>
<!-- Node3 -->
<g id="Node000003" class="node">
<title>Node3</title>
<g id="a_Node000003"><a xlink:href="class_w_p_r_1_1_repository_1_1_vehicle_repository.html#ac966b529fb982058bba744e3f8a03501" target="_top" xlink:title=" ">
<polygon fill="white" stroke="#666666" points="383,-82 209.5,-82 209.5,-50 383,-50 383,-82"/>
<text text-anchor="start" x="217.5" y="-68.5" font-family="Helvetica,sans-Serif" font-size="10.00">WPR.Repository.VehicleRepository.</text>
<text text-anchor="middle" x="296.25" y="-56.5" font-family="Helvetica,sans-Serif" font-size="10.00">GetVehicleNameAsync</text>
</a>
</g>
</g>
<!-- Node1&#45;&gt;Node3 -->
<g id="edge2_Node000001_Node000003" class="edge">
<title>Node1&#45;&gt;Node3</title>
<g id="a_edge2_Node000001_Node000003"><a xlink:title=" ">
<path fill="none" stroke="#63b8ff" d="M173.95,-66C181.89,-66 189.98,-66 198.02,-66"/>
<polygon fill="#63b8ff" stroke="#63b8ff" points="197.81,-69.5 207.81,-66 197.81,-62.5 197.81,-69.5"/>
</a>
</g>
</g>
<!-- Node4 -->
<g id="Node000004" class="node">
<title>Node4</title>
<g id="a_Node000004"><a xlink:href="class_w_p_r_1_1_repository_1_1_vehicle_repository.html#a44c60ce7050a7813b4cfca5b8292ab4e" target="_top" xlink:title=" ">
<polygon fill="white" stroke="#666666" points="383,-32 209.5,-32 209.5,0 383,0 383,-32"/>
<text text-anchor="start" x="217.5" y="-18.5" font-family="Helvetica,sans-Serif" font-size="10.00">WPR.Repository.VehicleRepository.</text>
<text text-anchor="middle" x="296.25" y="-6.5" font-family="Helvetica,sans-Serif" font-size="10.00">GetVehiclePlateAsync</text>
</a>
</g>
</g>
<!-- Node1&#45;&gt;Node4 -->
<g id="edge3_Node000001_Node000004" class="edge">
<title>Node1&#45;&gt;Node4</title>
<g id="a_edge3_Node000001_Node000004"><a xlink:title=" ">
<path fill="none" stroke="#63b8ff" d="M155.98,-49.56C175.13,-44.95 196.11,-39.89 215.84,-35.13"/>
<polygon fill="#63b8ff" stroke="#63b8ff" points="216.61,-38.55 225.51,-32.81 214.97,-31.75 216.61,-38.55"/>
</a>
</g>
</g>
</g>
</svg>
