<?xml version="1.0" encoding="UTF-8" standalone="no"?>
<!DOCTYPE svg PUBLIC "-//W3C//DTD SVG 1.1//EN"
 "http://www.w3.org/Graphics/SVG/1.1/DTD/svg11.dtd">
<!-- Generated by graphviz version 12.2.1 (20241206.2353)
 -->
<!-- Title: WPR.Controllers.Employee.VehicleManager.GetInfoVehicleManager.GetInfoVehicleManagerController Pages: 1 -->
<svg width="192pt" height="252pt"
 viewBox="0.00 0.00 192.25 252.00" xmlns="http://www.w3.org/2000/svg" xmlns:xlink="http://www.w3.org/1999/xlink">

<svg id="main" version="1.1" xmlns="http://www.w3.org/2000/svg" xmlns:xlink="http://www.w3.org/1999/xlink" xml:space="preserve">

<style type="text/css"><![CDATA[
.node, .edge {opacity: 0.7;}
.node.selected, .edge.selected {opacity: 1;}
.edge:hover path { stroke: red; }
.edge:hover polygon { stroke: red; fill: red; }
]]></style>
<script type="application/ecmascript" xlink:href="svg.min.js"/>
<svg id="graph" class="graph">
<g id="graph0" class="graph" transform="scale(1 1) rotate(0) translate(4 248)">
<title>WPR.Controllers.Employee.VehicleManager.GetInfoVehicleManager.GetInfoVehicleManagerController</title>
<!-- Node1 -->
<g id="Node000001" class="node">
<title>Node1</title>
<g id="a_Node000001"><a xlink:title=" ">
<polygon fill="#999999" stroke="none" points="184.25,-156 0,-156 0,0 184.25,0 184.25,-156"/>
<text text-anchor="start" x="4" y="-142.5" font-family="Helvetica,sans-Serif" font-size="10.00">WPR.Controllers.Employee.</text>
<text text-anchor="start" x="4" y="-130.5" font-family="Helvetica,sans-Serif" font-size="10.00">VehicleManager.GetInfoVehicleManager.</text>
<text text-anchor="start" x="20.5" y="-118.5" font-family="Helvetica,sans-Serif" font-size="10.00">GetInfoVehicleManagerController</text>
<text text-anchor="start" x="7.88" y="-102.5" font-family="Helvetica,sans-Serif" font-size="10.00">&#45;</text>
<text text-anchor="start" x="18.75" y="-102.5" font-family="Helvetica,sans-Serif" font-size="10.00">_userRepository</text>
<text text-anchor="start" x="7.88" y="-86.5" font-family="Helvetica,sans-Serif" font-size="10.00">&#45;</text>
<text text-anchor="start" x="18.75" y="-86.5" font-family="Helvetica,sans-Serif" font-size="10.00">_crypt</text>
<text text-anchor="start" x="6.38" y="-70.5" font-family="Helvetica,sans-Serif" font-size="10.00">+</text>
<text text-anchor="start" x="18.75" y="-70.5" font-family="Helvetica,sans-Serif" font-size="10.00">GetInfoVehicleManagerController()</text>
<text text-anchor="start" x="6.38" y="-54.5" font-family="Helvetica,sans-Serif" font-size="10.00">+</text>
<text text-anchor="start" x="18.75" y="-54.5" font-family="Helvetica,sans-Serif" font-size="10.00">GetAllInfo()</text>
<text text-anchor="start" x="6.38" y="-38.5" font-family="Helvetica,sans-Serif" font-size="10.00">+</text>
<text text-anchor="start" x="18.75" y="-38.5" font-family="Helvetica,sans-Serif" font-size="10.00">UpdateCustomer()</text>
<text text-anchor="start" x="6.38" y="-22.5" font-family="Helvetica,sans-Serif" font-size="10.00">+</text>
<text text-anchor="start" x="18.75" y="-22.5" font-family="Helvetica,sans-Serif" font-size="10.00">GetCustomersByBusinessNumber()</text>
<text text-anchor="start" x="6.38" y="-6.5" font-family="Helvetica,sans-Serif" font-size="10.00">+</text>
<text text-anchor="start" x="18.75" y="-6.5" font-family="Helvetica,sans-Serif" font-size="10.00">GetBusinessDomainByKvK()</text>
<polygon fill="#666666" stroke="#666666" points="0,-114 0,-114 184.25,-114 184.25,-114 0,-114"/>
<polygon fill="#666666" stroke="#666666" points="0,-82 0,-82 16.75,-82 16.75,-82 0,-82"/>
<polygon fill="#666666" stroke="#666666" points="16.75,-82 16.75,-82 184.25,-82 184.25,-82 16.75,-82"/>
<polygon fill="none" stroke="#666666" points="0,0 0,-156 184.25,-156 184.25,0 0,0"/>
</a>
</g>
</g>
<!-- Node2 -->
<g id="Node000002" class="node">
<title>Node2</title>
<g id="a_Node000002"><a xlink:title=" ">
<polygon fill="white" stroke="none" points="128.38,-244 55.88,-244 55.88,-192 128.38,-192 128.38,-244"/>
<text text-anchor="start" x="59.88" y="-230.5" font-family="Helvetica,sans-Serif" font-size="10.00">ControllerBase</text>
<text text-anchor="start" x="90.62" y="-214.5" font-family="Helvetica,sans-Serif" font-size="10.00"> </text>
<text text-anchor="start" x="90.62" y="-198.5" font-family="Helvetica,sans-Serif" font-size="10.00"> </text>
<polygon fill="#666666" stroke="#666666" points="55.88,-226 55.88,-226 128.38,-226 128.38,-226 55.88,-226"/>
<polygon fill="#666666" stroke="#666666" points="55.88,-210 55.88,-210 128.38,-210 128.38,-210 55.88,-210"/>
<polygon fill="none" stroke="#666666" points="55.88,-192 55.88,-244 128.38,-244 128.38,-192 55.88,-192"/>
</a>
</g>
</g>
<!-- Node2&#45;&gt;Node1 -->
<g id="edge1_Node000001_Node000002" class="edge">
<title>Node2&#45;&gt;Node1</title>
<g id="a_edge1_Node000001_Node000002"><a xlink:title=" ">
<path fill="none" stroke="#63b8ff" d="M92.12,-180.54C92.12,-172.82 92.12,-164.4 92.12,-155.82"/>
<polygon fill="none" stroke="#63b8ff" points="88.63,-180.5 92.13,-190.5 95.63,-180.5 88.63,-180.5"/>
</a>
</g>
</g>
</g>
</svg>
</svg>

<style type='text/css'>
<![CDATA[
[data-mouse-over-selected='false'] { opacity: 0.7; }
[data-mouse-over-selected='true']  { opacity: 1.0; }
]]>
</style>
<script type="application/ecmascript"><![CDATA[
document.addEventListener('DOMContentLoaded', (event) => {
  highlightEdges();
  highlightAdjacentNodes();
});
]]></script>
</svg>
