<?xml version="1.0" encoding="UTF-8" standalone="no"?>
<!DOCTYPE svg PUBLIC "-//W3C//DTD SVG 1.1//EN"
 "http://www.w3.org/Graphics/SVG/1.1/DTD/svg11.dtd">
<!-- Generated by graphviz version 12.2.1 (20241206.2353)
 -->
<!-- Title: WPR.Controllers.Employee.BackOffice.AddVehicle.AddVehicleController Pages: 1 -->
<svg width="168pt" height="204pt"
 viewBox="0.00 0.00 167.50 204.00" xmlns="http://www.w3.org/2000/svg" xmlns:xlink="http://www.w3.org/1999/xlink">
<g id="graph0" class="graph" transform="scale(1 1) rotate(0) translate(4 200)">
<title>WPR.Controllers.Employee.BackOffice.AddVehicle.AddVehicleController</title>
<!-- Node1 -->
<g id="Node000001" class="node">
<title>Node1</title>
<g id="a_Node000001"><a xlink:title="AddVehicleController zorgt ervoor dat voertuigen toegevoegd kunnen worden aan de database.">
<polygon fill="#999999" stroke="none" points="159.5,-108 0,-108 0,0 159.5,0 159.5,-108"/>
<text text-anchor="start" x="4" y="-94.5" font-family="Helvetica,sans-Serif" font-size="10.00">WPR.Controllers.Employee.</text>
<text text-anchor="start" x="4" y="-82.5" font-family="Helvetica,sans-Serif" font-size="10.00">BackOffice.AddVehicle.AddVehicle</text>
<text text-anchor="start" x="58.75" y="-70.5" font-family="Helvetica,sans-Serif" font-size="10.00">Controller</text>
<text text-anchor="start" x="16.69" y="-54.5" font-family="Helvetica,sans-Serif" font-size="10.00">&#45;</text>
<text text-anchor="start" x="36.38" y="-54.5" font-family="Helvetica,sans-Serif" font-size="10.00">_connector</text>
<text text-anchor="start" x="16.69" y="-38.5" font-family="Helvetica,sans-Serif" font-size="10.00">&#45;</text>
<text text-anchor="start" x="36.38" y="-38.5" font-family="Helvetica,sans-Serif" font-size="10.00">_userRepository</text>
<text text-anchor="start" x="15.19" y="-22.5" font-family="Helvetica,sans-Serif" font-size="10.00">+</text>
<text text-anchor="start" x="36.38" y="-22.5" font-family="Helvetica,sans-Serif" font-size="10.00">AddVehicleController()</text>
<text text-anchor="start" x="15.19" y="-6.5" font-family="Helvetica,sans-Serif" font-size="10.00">+</text>
<text text-anchor="start" x="36.38" y="-6.5" font-family="Helvetica,sans-Serif" font-size="10.00">AddVehicleAsync()</text>
<polygon fill="#666666" stroke="#666666" points="0,-66 0,-66 159.5,-66 159.5,-66 0,-66"/>
<polygon fill="#666666" stroke="#666666" points="0,-34 0,-34 34.38,-34 34.38,-34 0,-34"/>
<polygon fill="#666666" stroke="#666666" points="34.38,-34 34.38,-34 159.5,-34 159.5,-34 34.38,-34"/>
<polygon fill="none" stroke="#666666" points="0,0 0,-108 159.5,-108 159.5,0 0,0"/>
</a>
</g>
</g>
<!-- Node2 -->
<g id="Node000002" class="node">
<title>Node2</title>
<g id="a_Node000002"><a xlink:title=" ">
<polygon fill="white" stroke="none" points="116,-196 43.5,-196 43.5,-144 116,-144 116,-196"/>
<text text-anchor="start" x="47.5" y="-182.5" font-family="Helvetica,sans-Serif" font-size="10.00">ControllerBase</text>
<text text-anchor="start" x="78.25" y="-166.5" font-family="Helvetica,sans-Serif" font-size="10.00"> </text>
<text text-anchor="start" x="78.25" y="-150.5" font-family="Helvetica,sans-Serif" font-size="10.00"> </text>
<polygon fill="#666666" stroke="#666666" points="43.5,-178 43.5,-178 116,-178 116,-178 43.5,-178"/>
<polygon fill="#666666" stroke="#666666" points="43.5,-162 43.5,-162 116,-162 116,-162 43.5,-162"/>
<polygon fill="none" stroke="#666666" points="43.5,-144 43.5,-196 116,-196 116,-144 43.5,-144"/>
</a>
</g>
</g>
<!-- Node2&#45;&gt;Node1 -->
<g id="edge1_Node000001_Node000002" class="edge">
<title>Node2&#45;&gt;Node1</title>
<g id="a_edge1_Node000001_Node000002"><a xlink:title=" ">
<path fill="none" stroke="#63b8ff" d="M79.75,-132.77C79.75,-124.81 79.75,-116.23 79.75,-107.77"/>
<polygon fill="none" stroke="#63b8ff" points="76.25,-132.75 79.75,-142.75 83.25,-132.75 76.25,-132.75"/>
</a>
</g>
</g>
</g>
</svg>
