<?xml version="1.0" encoding="UTF-8" standalone="no"?>
<!DOCTYPE svg PUBLIC "-//W3C//DTD SVG 1.1//EN"
 "http://www.w3.org/Graphics/SVG/1.1/DTD/svg11.dtd">
<!-- Generated by graphviz version 12.2.1 (20241206.2353)
 -->
<!-- Title: WPR.Repository.UserRepository.Customer Pages: 1 -->
<svg width="163pt" height="104pt"
 viewBox="0.00 0.00 163.00 104.00" xmlns="http://www.w3.org/2000/svg" xmlns:xlink="http://www.w3.org/1999/xlink">
<g id="graph0" class="graph" transform="scale(1 1) rotate(0) translate(4 100)">
<title>WPR.Repository.UserRepository.Customer</title>
<!-- Node1 -->
<g id="Node000001" class="node">
<title>Node1</title>
<g id="a_Node000001"><a xlink:title=" ">
<polygon fill="#999999" stroke="none" points="155,-96 0,-96 0,0 155,0 155,-96"/>
<text text-anchor="start" x="4" y="-82.5" font-family="Helvetica,sans-Serif" font-size="10.00">WPR.Repository.UserRepository.</text>
<text text-anchor="start" x="56.12" y="-70.5" font-family="Helvetica,sans-Serif" font-size="10.00">Customer</text>
<text text-anchor="start" x="32.06" y="-54.5" font-family="Helvetica,sans-Serif" font-size="10.00">+</text>
<text text-anchor="start" x="70.12" y="-54.5" font-family="Helvetica,sans-Serif" font-size="10.00">Id</text>
<text text-anchor="start" x="32.06" y="-38.5" font-family="Helvetica,sans-Serif" font-size="10.00">+</text>
<text text-anchor="start" x="70.12" y="-38.5" font-family="Helvetica,sans-Serif" font-size="10.00">Email</text>
<text text-anchor="start" x="32.06" y="-22.5" font-family="Helvetica,sans-Serif" font-size="10.00">+</text>
<text text-anchor="start" x="70.12" y="-22.5" font-family="Helvetica,sans-Serif" font-size="10.00">Kvk</text>
<text text-anchor="start" x="76" y="-6.5" font-family="Helvetica,sans-Serif" font-size="10.00"> </text>
<polygon fill="#666666" stroke="#666666" points="0,-66 0,-66 155,-66 155,-66 0,-66"/>
<polygon fill="#666666" stroke="#666666" points="0,-18 0,-18 68.12,-18 68.12,-18 0,-18"/>
<polygon fill="#666666" stroke="#666666" points="68.12,-18 68.12,-18 155,-18 155,-18 68.12,-18"/>
<polygon fill="none" stroke="#666666" points="0,0 0,-96 155,-96 155,0 0,0"/>
</a>
</g>
</g>
</g>
</svg>
