<?xml version="1.0" encoding="UTF-8" standalone="no"?>
<!DOCTYPE svg PUBLIC "-//W3C//DTD SVG 1.1//EN"
 "http://www.w3.org/Graphics/SVG/1.1/DTD/svg11.dtd">
<!-- Generated by graphviz version 12.2.1 (20241206.2353)
 -->
<!-- Title: WPR.Database.Connector Pages: 1 -->
<svg width="133pt" height="164pt"
 viewBox="0.00 0.00 133.00 164.00" xmlns="http://www.w3.org/2000/svg" xmlns:xlink="http://www.w3.org/1999/xlink">

<svg id="main" version="1.1" xmlns="http://www.w3.org/2000/svg" xmlns:xlink="http://www.w3.org/1999/xlink" xml:space="preserve">

<style type="text/css"><![CDATA[
.node, .edge {opacity: 0.7;}
.node.selected, .edge.selected {opacity: 1;}
.edge:hover path { stroke: red; }
.edge:hover polygon { stroke: red; fill: red; }
]]></style>
<script type="application/ecmascript" xlink:href="svg.min.js"/>
<svg id="graph" class="graph">
<g id="graph0" class="graph" transform="scale(1 1) rotate(0) translate(4 160)">
<title>WPR.Database.Connector</title>
<!-- Node1 -->
<g id="Node000001" class="node">
<title>Node1</title>
<g id="a_Node000001"><a xlink:title=" ">
<polygon fill="#999999" stroke="none" points="125,-68 0,-68 0,0 125,0 125,-68"/>
<text text-anchor="start" x="4" y="-54.5" font-family="Helvetica,sans-Serif" font-size="10.00">WPR.Database.Connector</text>
<text text-anchor="start" x="7.88" y="-38.5" font-family="Helvetica,sans-Serif" font-size="10.00">&#45;</text>
<text text-anchor="start" x="18.75" y="-38.5" font-family="Helvetica,sans-Serif" font-size="10.00">_envConfig</text>
<text text-anchor="start" x="6.38" y="-22.5" font-family="Helvetica,sans-Serif" font-size="10.00">+</text>
<text text-anchor="start" x="18.75" y="-22.5" font-family="Helvetica,sans-Serif" font-size="10.00">Connector()</text>
<text text-anchor="start" x="6.38" y="-6.5" font-family="Helvetica,sans-Serif" font-size="10.00">+</text>
<text text-anchor="start" x="18.75" y="-6.5" font-family="Helvetica,sans-Serif" font-size="10.00">CreateDbConnection()</text>
<polygon fill="#666666" stroke="#666666" points="0,-50 0,-50 125,-50 125,-50 0,-50"/>
<polygon fill="#666666" stroke="#666666" points="0,-34 0,-34 16.75,-34 16.75,-34 0,-34"/>
<polygon fill="#666666" stroke="#666666" points="16.75,-34 16.75,-34 125,-34 125,-34 16.75,-34"/>
<polygon fill="none" stroke="#666666" points="0,0 0,-68 125,-68 125,0 0,0"/>
</a>
</g>
</g>
<!-- Node2 -->
<g id="Node000002" class="node">
<title>Node2</title>
<g id="a_Node000002"><a xlink:href="interface_w_p_r_1_1_database_1_1_i_connector.html" target="_top" xlink:title="Connector class om verbinding te maken met de database, maakt gebruik van de connectie strings die zi...">
<polygon fill="white" stroke="none" points="120.25,-156 4.75,-156 4.75,-104 120.25,-104 120.25,-156"/>
<text text-anchor="start" x="38.5" y="-142.5" font-family="Helvetica,sans-Serif" font-size="10.00">IConnector</text>
<text text-anchor="start" x="61" y="-126.5" font-family="Helvetica,sans-Serif" font-size="10.00"> </text>
<text text-anchor="start" x="8.75" y="-110.5" font-family="Helvetica,sans-Serif" font-size="10.00">+</text>
<text text-anchor="start" x="18.75" y="-110.5" font-family="Helvetica,sans-Serif" font-size="10.00">CreateDbConnection()</text>
<polygon fill="#666666" stroke="#666666" points="4.75,-138 4.75,-138 120.25,-138 120.25,-138 4.75,-138"/>
<polygon fill="#666666" stroke="#666666" points="4.75,-122 4.75,-122 120.25,-122 120.25,-122 4.75,-122"/>
<polygon fill="none" stroke="#666666" points="4.75,-104 4.75,-156 120.25,-156 120.25,-104 4.75,-104"/>
</a>
</g>
</g>
<!-- Node2&#45;&gt;Node1 -->
<g id="edge1_Node000001_Node000002" class="edge">
<title>Node2&#45;&gt;Node1</title>
<g id="a_edge1_Node000001_Node000002"><a xlink:title=" ">
<path fill="none" stroke="#63b8ff" d="M62.5,-92.97C62.5,-84.65 62.5,-75.84 62.5,-67.67"/>
<polygon fill="none" stroke="#63b8ff" points="59,-92.79 62.5,-102.79 66,-92.79 59,-92.79"/>
</a>
</g>
</g>
</g>
</svg>
</svg>

<style type='text/css'>
<![CDATA[
[data-mouse-over-selected='false'] { opacity: 0.7; }
[data-mouse-over-selected='true']  { opacity: 1.0; }
]]>
</style>
<script type="application/ecmascript"><![CDATA[
document.addEventListener('DOMContentLoaded', (event) => {
  highlightEdges();
  highlightAdjacentNodes();
});
]]></script>
</svg>
