<?xml version="1.0" encoding="UTF-8" standalone="no"?>
<!DOCTYPE svg PUBLIC "-//W3C//DTD SVG 1.1//EN"
 "http://www.w3.org/Graphics/SVG/1.1/DTD/svg11.dtd">
<!-- Generated by graphviz version 12.2.1 (20241206.2353)
 -->
<!-- Title: WPR.Data.EnvConfig.Get Pages: 1 -->
<svg width="347pt" height="66pt"
 viewBox="0.00 0.00 346.75 66.00" xmlns="http://www.w3.org/2000/svg" xmlns:xlink="http://www.w3.org/1999/xlink">
<g id="graph0" class="graph" transform="scale(1 1) rotate(0) translate(4 62)">
<title>WPR.Data.EnvConfig.Get</title>
<!-- Node1 -->
<g id="Node000001" class="node">
<title>Node1</title>
<g id="a_Node000001"><a xlink:title="Haalt de value van de specifieke environement variabelen.">
<polygon fill="#999999" stroke="#666666" points="338.75,-39 207.25,-39 207.25,-19 338.75,-19 338.75,-39"/>
<text text-anchor="middle" x="273" y="-25.5" font-family="Helvetica,sans-Serif" font-size="10.00">WPR.Data.EnvConfig.Get</text>
</a>
</g>
</g>
<!-- Node2 -->
<g id="Node000002" class="node">
<title>Node2</title>
<g id="a_Node000002"><a xlink:href="class_w_p_r_1_1_hashing_1_1_hash.html#a5e083798081f2a97774dbbf4cdaa4101" target="_top" xlink:title=" ">
<polygon fill="white" stroke="#666666" points="151.38,-58 19.88,-58 19.88,-38 151.38,-38 151.38,-58"/>
<text text-anchor="middle" x="85.62" y="-44.5" font-family="Helvetica,sans-Serif" font-size="10.00">WPR.Hashing.Hash.Hash</text>
</a>
</g>
</g>
<!-- Node1&#45;&gt;Node2 -->
<g id="edge1_Node000001_Node000002" class="edge">
<title>Node1&#45;&gt;Node2</title>
<g id="a_edge1_Node000001_Node000002"><a xlink:title=" ">
<path fill="none" stroke="#63b8ff" d="M195.81,-36.81C181.12,-38.32 165.86,-39.88 151.56,-41.34"/>
<polygon fill="#63b8ff" stroke="#63b8ff" points="195.81,-40.33 205.4,-35.83 195.09,-33.36 195.81,-40.33"/>
</a>
</g>
</g>
<!-- Node3 -->
<g id="Node000003" class="node">
<title>Node3</title>
<g id="a_Node000003"><a xlink:href="class_w_p_r_1_1_data_1_1_env_config.html#ae47188947dca2b84bcfdbcb3a9ce472e" target="_top" xlink:title="Check om te kijken of alle environment variabelen geconfigureerd zijn.">
<polygon fill="white" stroke="#666666" points="171.25,-20 0,-20 0,0 171.25,0 171.25,-20"/>
<text text-anchor="middle" x="85.62" y="-6.5" font-family="Helvetica,sans-Serif" font-size="10.00">WPR.Data.EnvConfig.IsConfigured</text>
</a>
</g>
</g>
<!-- Node1&#45;&gt;Node3 -->
<g id="edge2_Node000001_Node000003" class="edge">
<title>Node1&#45;&gt;Node3</title>
<g id="a_edge2_Node000001_Node000003"><a xlink:title=" ">
<path fill="none" stroke="#63b8ff" d="M195.54,-21.16C187.69,-20.36 179.68,-19.54 171.74,-18.72"/>
<polygon fill="#63b8ff" stroke="#63b8ff" points="195.09,-24.64 205.4,-22.17 195.81,-17.67 195.09,-24.64"/>
</a>
</g>
</g>
</g>
</svg>
