<?xml version="1.0" encoding="UTF-8" standalone="no"?>
<!DOCTYPE svg PUBLIC "-//W3C//DTD SVG 1.1//EN"
 "http://www.w3.org/Graphics/SVG/1.1/DTD/svg11.dtd">
<!-- Generated by graphviz version 12.2.1 (20241206.2353)
 -->
<!-- Title: WPR.Hashing.Hash Pages: 1 -->
<svg width="105pt" height="92pt"
 viewBox="0.00 0.00 105.25 92.00" xmlns="http://www.w3.org/2000/svg" xmlns:xlink="http://www.w3.org/1999/xlink">
<g id="graph0" class="graph" transform="scale(1 1) rotate(0) translate(4 88)">
<title>WPR.Hashing.Hash</title>
<!-- Node1 -->
<g id="Node000001" class="node">
<title>Node1</title>
<g id="a_Node000001"><a xlink:title="Class Hash zorgt ervoor dat wachtwoorden op een veilige manier worden gehashed doormiddel van het HMA...">
<polygon fill="#999999" stroke="none" points="97.25,-84 0,-84 0,0 97.25,0 97.25,-84"/>
<text text-anchor="start" x="4" y="-70.5" font-family="Helvetica,sans-Serif" font-size="10.00">WPR.Hashing.Hash</text>
<text text-anchor="start" x="9.75" y="-54.5" font-family="Helvetica,sans-Serif" font-size="10.00">+</text>
<text text-anchor="start" x="25.5" y="-54.5" font-family="Helvetica,sans-Serif" font-size="10.00">_salt</text>
<text text-anchor="start" x="9.75" y="-38.5" font-family="Helvetica,sans-Serif" font-size="10.00">+</text>
<text text-anchor="start" x="25.5" y="-38.5" font-family="Helvetica,sans-Serif" font-size="10.00">Hash()</text>
<text text-anchor="start" x="9.75" y="-22.5" font-family="Helvetica,sans-Serif" font-size="10.00">+</text>
<text text-anchor="start" x="25.5" y="-22.5" font-family="Helvetica,sans-Serif" font-size="10.00">CreateSalt()</text>
<text text-anchor="start" x="9.75" y="-6.5" font-family="Helvetica,sans-Serif" font-size="10.00">+</text>
<text text-anchor="start" x="25.5" y="-6.5" font-family="Helvetica,sans-Serif" font-size="10.00">createHash()</text>
<polygon fill="#666666" stroke="#666666" points="0,-66 0,-66 97.25,-66 97.25,-66 0,-66"/>
<polygon fill="#666666" stroke="#666666" points="0,-50 0,-50 23.5,-50 23.5,-50 0,-50"/>
<polygon fill="#666666" stroke="#666666" points="23.5,-50 23.5,-50 97.25,-50 97.25,-50 23.5,-50"/>
<polygon fill="none" stroke="#666666" points="0,0 0,-84 97.25,-84 97.25,0 0,0"/>
</a>
</g>
</g>
</g>
</svg>
