<?xml version="1.0" encoding="UTF-8" standalone="no"?>
<!DOCTYPE svg PUBLIC "-//W3C//DTD SVG 1.1//EN"
 "http://www.w3.org/Graphics/SVG/1.1/DTD/svg11.dtd">
<!-- Generated by graphviz version 12.2.1 (20241206.2353)
 -->
<!-- Title: WPR.Controllers.Employee.BackOffice.AddVehicle.AddVehicleController Pages: 1 -->
<svg width="404pt" height="420pt"
 viewBox="0.00 0.00 403.75 420.00" xmlns="http://www.w3.org/2000/svg" xmlns:xlink="http://www.w3.org/1999/xlink">
<g id="graph0" class="graph" transform="scale(1 1) rotate(0) translate(4 416)">
<title>WPR.Controllers.Employee.BackOffice.AddVehicle.AddVehicleController</title>
<!-- Node1 -->
<g id="Node000001" class="node">
<title>Node1</title>
<g id="a_Node000001"><a xlink:title="AddVehicleController zorgt ervoor dat voertuigen toegevoegd kunnen worden aan de database.">
<polygon fill="#999999" stroke="none" points="234,-92 74.5,-92 74.5,0 234,0 234,-92"/>
<text text-anchor="start" x="78.5" y="-78.5" font-family="Helvetica,sans-Serif" font-size="10.00">WPR.Controllers.Employee.</text>
<text text-anchor="start" x="78.5" y="-66.5" font-family="Helvetica,sans-Serif" font-size="10.00">BackOffice.AddVehicle.AddVehicle</text>
<text text-anchor="start" x="133.25" y="-54.5" font-family="Helvetica,sans-Serif" font-size="10.00">Controller</text>
<text text-anchor="start" x="152.75" y="-38.5" font-family="Helvetica,sans-Serif" font-size="10.00"> </text>
<text text-anchor="start" x="89.69" y="-22.5" font-family="Helvetica,sans-Serif" font-size="10.00">+</text>
<text text-anchor="start" x="110.88" y="-22.5" font-family="Helvetica,sans-Serif" font-size="10.00">AddVehicleController()</text>
<text text-anchor="start" x="89.69" y="-6.5" font-family="Helvetica,sans-Serif" font-size="10.00">+</text>
<text text-anchor="start" x="110.88" y="-6.5" font-family="Helvetica,sans-Serif" font-size="10.00">AddVehicleAsync()</text>
<polygon fill="#666666" stroke="#666666" points="74.5,-50 74.5,-50 234,-50 234,-50 74.5,-50"/>
<polygon fill="#666666" stroke="#666666" points="74.5,-34 74.5,-34 234,-34 234,-34 74.5,-34"/>
<polygon fill="none" stroke="#666666" points="74.5,0 74.5,-92 234,-92 234,0 74.5,0"/>
</a>
</g>
</g>
<!-- Node2 -->
<g id="Node000002" class="node">
<title>Node2</title>
<g id="a_Node000002"><a xlink:title=" ">
<polygon fill="white" stroke="none" points="72.5,-302 0,-302 0,-250 72.5,-250 72.5,-302"/>
<text text-anchor="start" x="4" y="-288.5" font-family="Helvetica,sans-Serif" font-size="10.00">ControllerBase</text>
<text text-anchor="start" x="34.75" y="-272.5" font-family="Helvetica,sans-Serif" font-size="10.00"> </text>
<text text-anchor="start" x="34.75" y="-256.5" font-family="Helvetica,sans-Serif" font-size="10.00"> </text>
<polygon fill="#666666" stroke="#666666" points="0,-284 0,-284 72.5,-284 72.5,-284 0,-284"/>
<polygon fill="#666666" stroke="#666666" points="0,-268 0,-268 72.5,-268 72.5,-268 0,-268"/>
<polygon fill="none" stroke="#666666" points="0,-250 0,-302 72.5,-302 72.5,-250 0,-250"/>
</a>
</g>
</g>
<!-- Node2&#45;&gt;Node1 -->
<g id="edge1_Node000001_Node000002" class="edge">
<title>Node2&#45;&gt;Node1</title>
<g id="a_edge1_Node000001_Node000002"><a xlink:title=" ">
<path fill="none" stroke="#63b8ff" d="M44.58,-239.18C51.94,-211.15 64.17,-171.74 81.25,-140 90.29,-123.19 102.4,-106.32 114.15,-91.65"/>
<polygon fill="none" stroke="#63b8ff" points="41.26,-238.05 42.19,-248.6 48.05,-239.77 41.26,-238.05"/>
</a>
</g>
</g>
<!-- Node3 -->
<g id="Node000003" class="node">
<title>Node3</title>
<g id="a_Node000003"><a xlink:href="interface_w_p_r_1_1_database_1_1_i_connector.html" target="_top" xlink:title="Connector class om verbinding te maken met de database, maakt gebruik van de connectie strings die zi...">
<polygon fill="white" stroke="none" points="218.25,-302 90.25,-302 90.25,-250 218.25,-250 218.25,-302"/>
<text text-anchor="start" x="94.25" y="-288.5" font-family="Helvetica,sans-Serif" font-size="10.00">WPR.Database.IConnector</text>
<text text-anchor="start" x="152.75" y="-272.5" font-family="Helvetica,sans-Serif" font-size="10.00"> </text>
<text text-anchor="start" x="97.38" y="-256.5" font-family="Helvetica,sans-Serif" font-size="10.00">+</text>
<text text-anchor="start" x="110.5" y="-256.5" font-family="Helvetica,sans-Serif" font-size="10.00">CreateDbConnection()</text>
<polygon fill="#666666" stroke="#666666" points="90.25,-284 90.25,-284 218.25,-284 218.25,-284 90.25,-284"/>
<polygon fill="#666666" stroke="#666666" points="90.25,-268 90.25,-268 218.25,-268 218.25,-268 90.25,-268"/>
<polygon fill="none" stroke="#666666" points="90.25,-250 90.25,-302 218.25,-302 218.25,-250 90.25,-250"/>
</a>
</g>
</g>
<!-- Node3&#45;&gt;Node1 -->
<g id="edge2_Node000001_Node000003" class="edge">
<title>Node3&#45;&gt;Node1</title>
<g id="a_edge2_Node000001_Node000003"><a xlink:title=" ">
<path fill="none" stroke="#63b8ff" d="M154.25,-250.17C154.25,-215.53 154.25,-151.71 154.25,-104.8"/>
<polygon fill="none" stroke="#63b8ff" points="154.25,-104.66 150.25,-98.66 154.25,-92.66 158.25,-98.66 154.25,-104.66"/>
</a>
</g>
<text text-anchor="middle" x="181.25" y="-112.5" font-family="Helvetica,sans-Serif" font-size="10.00" fill="grey"> &#45;_connector</text>
</g>
<!-- Node4 -->
<g id="Node000004" class="node">
<title>Node4</title>
<g id="a_Node000004"><a xlink:href="interface_w_p_r_1_1_repository_1_1_i_employee_repository.html" target="_top" xlink:title="Interface defining methods voor user gerelateerde database operaties, validatie, user management,...">
<polygon fill="white" stroke="none" points="395.75,-412 236.75,-412 236.75,-140 395.75,-140 395.75,-412"/>
<text text-anchor="start" x="254.75" y="-398.5" font-family="Helvetica,sans-Serif" font-size="10.00">WPR.Repository.IEmployee</text>
<text text-anchor="start" x="292.62" y="-386.5" font-family="Helvetica,sans-Serif" font-size="10.00">Repository</text>
<text text-anchor="start" x="240.75" y="-370.5" font-family="Helvetica,sans-Serif" font-size="10.00">+</text>
<text text-anchor="start" x="250.75" y="-370.5" font-family="Helvetica,sans-Serif" font-size="10.00">StatusCode</text>
<text text-anchor="start" x="240.75" y="-354.5" font-family="Helvetica,sans-Serif" font-size="10.00">+</text>
<text text-anchor="start" x="250.75" y="-354.5" font-family="Helvetica,sans-Serif" font-size="10.00">Message</text>
<text text-anchor="start" x="240.75" y="-338.5" font-family="Helvetica,sans-Serif" font-size="10.00">+</text>
<text text-anchor="start" x="250.75" y="-338.5" font-family="Helvetica,sans-Serif" font-size="10.00">Status</text>
<text text-anchor="start" x="240.75" y="-322.5" font-family="Helvetica,sans-Serif" font-size="10.00">+</text>
<text text-anchor="start" x="250.75" y="-322.5" font-family="Helvetica,sans-Serif" font-size="10.00">Message</text>
<text text-anchor="start" x="240.75" y="-306.5" font-family="Helvetica,sans-Serif" font-size="10.00">+</text>
<text text-anchor="start" x="250.75" y="-306.5" font-family="Helvetica,sans-Serif" font-size="10.00">AddVehicleAsync()</text>
<text text-anchor="start" x="240.75" y="-290.5" font-family="Helvetica,sans-Serif" font-size="10.00">+</text>
<text text-anchor="start" x="250.75" y="-290.5" font-family="Helvetica,sans-Serif" font-size="10.00">AddStaff()</text>
<text text-anchor="start" x="240.75" y="-274.5" font-family="Helvetica,sans-Serif" font-size="10.00">+</text>
<text text-anchor="start" x="250.75" y="-274.5" font-family="Helvetica,sans-Serif" font-size="10.00">checkUsageEmailAsync()</text>
<text text-anchor="start" x="240.75" y="-258.5" font-family="Helvetica,sans-Serif" font-size="10.00">+</text>
<text text-anchor="start" x="250.75" y="-258.5" font-family="Helvetica,sans-Serif" font-size="10.00">GetReviewIdsAsync()</text>
<text text-anchor="start" x="240.75" y="-242.5" font-family="Helvetica,sans-Serif" font-size="10.00">+</text>
<text text-anchor="start" x="250.75" y="-242.5" font-family="Helvetica,sans-Serif" font-size="10.00">GetReviewAsync()</text>
<text text-anchor="start" x="240.75" y="-226.5" font-family="Helvetica,sans-Serif" font-size="10.00">+</text>
<text text-anchor="start" x="250.75" y="-226.5" font-family="Helvetica,sans-Serif" font-size="10.00">SetStatusAsync()</text>
<text text-anchor="start" x="240.75" y="-210.5" font-family="Helvetica,sans-Serif" font-size="10.00">+</text>
<text text-anchor="start" x="250.75" y="-210.5" font-family="Helvetica,sans-Serif" font-size="10.00">AddBusiness()</text>
<text text-anchor="start" x="240.75" y="-194.5" font-family="Helvetica,sans-Serif" font-size="10.00">+</text>
<text text-anchor="start" x="250.75" y="-194.5" font-family="Helvetica,sans-Serif" font-size="10.00">ViewBusinessRequests()</text>
<text text-anchor="start" x="240.75" y="-178.5" font-family="Helvetica,sans-Serif" font-size="10.00">+</text>
<text text-anchor="start" x="250.75" y="-178.5" font-family="Helvetica,sans-Serif" font-size="10.00">ViewBusinessRequestDetailed()</text>
<text text-anchor="start" x="240.75" y="-162.5" font-family="Helvetica,sans-Serif" font-size="10.00">+</text>
<text text-anchor="start" x="250.75" y="-162.5" font-family="Helvetica,sans-Serif" font-size="10.00">BusinessAccepted()</text>
<text text-anchor="start" x="250.75" y="-146.5" font-family="Helvetica,sans-Serif" font-size="10.00">en 7 anderen...</text>
<polygon fill="#666666" stroke="#666666" points="236.75,-382 236.75,-382 395.75,-382 395.75,-382 236.75,-382"/>
<polygon fill="#666666" stroke="#666666" points="236.75,-318 236.75,-318 248.75,-318 248.75,-318 236.75,-318"/>
<polygon fill="#666666" stroke="#666666" points="248.75,-318 248.75,-318 395.75,-318 395.75,-318 248.75,-318"/>
<polygon fill="none" stroke="#666666" points="236.75,-140 236.75,-412 395.75,-412 395.75,-140 236.75,-140"/>
</a>
</g>
</g>
<!-- Node4&#45;&gt;Node1 -->
<g id="edge3_Node000001_Node000004" class="edge">
<title>Node4&#45;&gt;Node1</title>
<g id="a_edge3_Node000001_Node000004"><a xlink:title=" ">
<path fill="none" stroke="#63b8ff" d="M236.95,-144.23C228.89,-132.46 220.58,-120.89 212.25,-110 210.16,-107.27 207.98,-104.52 205.73,-101.78"/>
<polygon fill="none" stroke="#63b8ff" points="205.72,-101.77 198.8,-99.77 197.98,-92.6 204.91,-94.6 205.72,-101.77"/>
</a>
</g>
<text text-anchor="middle" x="257.19" y="-112.5" font-family="Helvetica,sans-Serif" font-size="10.00" fill="grey"> &#45;_userRepository</text>
</g>
</g>
</svg>
