<?xml version="1.0" encoding="UTF-8" standalone="no"?>
<!DOCTYPE svg PUBLIC "-//W3C//DTD SVG 1.1//EN"
 "http://www.w3.org/Graphics/SVG/1.1/DTD/svg11.dtd">
<!-- Generated by graphviz version 12.2.1 (20241206.2353)
 -->
<!-- Title: DatabaseCheckRepository.HandleDelete Pages: 1 -->
<svg width="660pt" height="112pt"
 viewBox="0.00 0.00 660.00 112.00" xmlns="http://www.w3.org/2000/svg" xmlns:xlink="http://www.w3.org/1999/xlink">
<g id="graph0" class="graph" transform="scale(1 1) rotate(0) translate(4 108)">
<title>DatabaseCheckRepository.HandleDelete</title>
<!-- Node1 -->
<g id="Node000001" class="node">
<title>Node1</title>
<g id="a_Node000001"><a xlink:title=" ">
<polygon fill="#999999" stroke="#666666" points="652,-82 516,-82 516,-50 652,-50 652,-82"/>
<text text-anchor="start" x="524" y="-68.5" font-family="Helvetica,sans-Serif" font-size="10.00">DatabaseCheckRepository.</text>
<text text-anchor="middle" x="584" y="-56.5" font-family="Helvetica,sans-Serif" font-size="10.00">HandleDelete</text>
</a>
</g>
</g>
<!-- Node2 -->
<g id="Node000002" class="node">
<title>Node2</title>
<g id="a_Node000002"><a xlink:href="class_database_check_repository.html#ab5033c1e3a5b823fc7e7d6d187d12ccc" target="_top" xlink:title=" ">
<polygon fill="white" stroke="#666666" points="136,-104 0,-104 0,-72 136,-72 136,-104"/>
<text text-anchor="start" x="8" y="-90.5" font-family="Helvetica,sans-Serif" font-size="10.00">DatabaseCheckRepository.</text>
<text text-anchor="middle" x="68" y="-78.5" font-family="Helvetica,sans-Serif" font-size="10.00">DeleteBusiness</text>
</a>
</g>
</g>
<!-- Node1&#45;&gt;Node2 -->
<g id="edge1_Node000001_Node000002" class="edge">
<title>Node1&#45;&gt;Node2</title>
<g id="a_edge1_Node000001_Node000002"><a xlink:title=" ">
<path fill="none" stroke="#63b8ff" d="M514.79,-84.96C503.26,-87.47 491.35,-89.64 480,-91 359.55,-105.41 217.83,-99.36 136.21,-93.67"/>
<polygon fill="#63b8ff" stroke="#63b8ff" points="515.25,-88.44 524.22,-82.8 513.69,-81.62 515.25,-88.44"/>
</a>
</g>
</g>
<!-- Node3 -->
<g id="Node000003" class="node">
<title>Node3</title>
<g id="a_Node000003"><a xlink:href="class_database_check_repository.html#a241ccbc35380a23dedb1f9a942a52a1b" target="_top" xlink:title=" ">
<polygon fill="white" stroke="#666666" points="480,-82 344,-82 344,-50 480,-50 480,-82"/>
<text text-anchor="start" x="352" y="-68.5" font-family="Helvetica,sans-Serif" font-size="10.00">DatabaseCheckRepository.</text>
<text text-anchor="middle" x="412" y="-56.5" font-family="Helvetica,sans-Serif" font-size="10.00">DeleteUser</text>
</a>
</g>
</g>
<!-- Node1&#45;&gt;Node3 -->
<g id="edge2_Node000001_Node000003" class="edge">
<title>Node1&#45;&gt;Node3</title>
<g id="a_edge2_Node000001_Node000003"><a xlink:title=" ">
<path fill="none" stroke="#63b8ff" d="M504.46,-66C496.37,-66 488.21,-66 480.26,-66"/>
<polygon fill="#63b8ff" stroke="#63b8ff" points="504.3,-69.5 514.3,-66 504.3,-62.5 504.3,-69.5"/>
</a>
</g>
</g>
<!-- Node5 -->
<g id="Node000005" class="node">
<title>Node5</title>
<g id="a_Node000005"><a xlink:href="class_database_check_repository.html#ab17e5b0314f886eb84b9e497c8dfd1b4" target="_top" xlink:title=" ">
<polygon fill="white" stroke="#666666" points="480,-32 344,-32 344,0 480,0 480,-32"/>
<text text-anchor="start" x="352" y="-18.5" font-family="Helvetica,sans-Serif" font-size="10.00">DatabaseCheckRepository.</text>
<text text-anchor="middle" x="412" y="-6.5" font-family="Helvetica,sans-Serif" font-size="10.00">DeleteVehicleManager</text>
</a>
</g>
</g>
<!-- Node1&#45;&gt;Node5 -->
<g id="edge5_Node000001_Node000005" class="edge">
<title>Node1&#45;&gt;Node5</title>
<g id="a_edge5_Node000001_Node000005"><a xlink:title=" ">
<path fill="none" stroke="#63b8ff" d="M516.62,-46.48C500.9,-41.85 484.29,-36.97 469.08,-32.49"/>
<polygon fill="#63b8ff" stroke="#63b8ff" points="515.3,-49.74 525.88,-49.2 517.28,-43.02 515.3,-49.74"/>
</a>
</g>
</g>
<!-- Node4 -->
<g id="Node000004" class="node">
<title>Node4</title>
<g id="a_Node000004"><a xlink:href="class_database_check_repository.html#a004ee325adfb7c4edc0c3e50098973ec" target="_top" xlink:title=" ">
<polygon fill="white" stroke="#666666" points="308,-82 172,-82 172,-50 308,-50 308,-82"/>
<text text-anchor="start" x="180" y="-68.5" font-family="Helvetica,sans-Serif" font-size="10.00">DatabaseCheckRepository.</text>
<text text-anchor="middle" x="240" y="-56.5" font-family="Helvetica,sans-Serif" font-size="10.00">DeleteEmployees</text>
</a>
</g>
</g>
<!-- Node3&#45;&gt;Node4 -->
<g id="edge3_Node000003_Node000004" class="edge">
<title>Node3&#45;&gt;Node4</title>
<g id="a_edge3_Node000003_Node000004"><a xlink:title=" ">
<path fill="none" stroke="#63b8ff" d="M332.46,-66C324.37,-66 316.21,-66 308.26,-66"/>
<polygon fill="#63b8ff" stroke="#63b8ff" points="332.3,-69.5 342.3,-66 332.3,-62.5 332.3,-69.5"/>
</a>
</g>
</g>
<!-- Node4&#45;&gt;Node2 -->
<g id="edge4_Node000004_Node000002" class="edge">
<title>Node4&#45;&gt;Node2</title>
<g id="a_edge4_Node000004_Node000002"><a xlink:title=" ">
<path fill="none" stroke="#63b8ff" d="M160.46,-76.16C152.37,-77.21 144.21,-78.27 136.26,-79.3"/>
<polygon fill="#63b8ff" stroke="#63b8ff" points="160.84,-79.64 170.31,-74.89 159.94,-72.7 160.84,-79.64"/>
</a>
</g>
</g>
</g>
</svg>
