<?xml version="1.0" encoding="UTF-8" standalone="no"?>
<!DOCTYPE svg PUBLIC "-//W3C//DTD SVG 1.1//EN"
 "http://www.w3.org/Graphics/SVG/1.1/DTD/svg11.dtd">
<!-- Generated by graphviz version 12.2.1 (20241206.2353)
 -->
<!-- Title: WPR.Controllers.Employee.BackOffice.signUpStaff.SignUpStaffController Pages: 1 -->
<svg width="174pt" height="188pt"
 viewBox="0.00 0.00 173.50 188.00" xmlns="http://www.w3.org/2000/svg" xmlns:xlink="http://www.w3.org/1999/xlink">

<svg id="main" version="1.1" xmlns="http://www.w3.org/2000/svg" xmlns:xlink="http://www.w3.org/1999/xlink" xml:space="preserve">

<style type="text/css"><![CDATA[
.node, .edge {opacity: 0.7;}
.node.selected, .edge.selected {opacity: 1;}
.edge:hover path { stroke: red; }
.edge:hover polygon { stroke: red; fill: red; }
]]></style>
<script type="application/ecmascript" xlink:href="svg.min.js"/>
<svg id="graph" class="graph">
<g id="graph0" class="graph" transform="scale(1 1) rotate(0) translate(4 184)">
<title>WPR.Controllers.Employee.BackOffice.signUpStaff.SignUpStaffController</title>
<!-- Node1 -->
<g id="Node000001" class="node">
<title>Node1</title>
<g id="a_Node000001"><a xlink:title="SignUpStaffController zorgt ervoor dat er front&#45;, backoffice en wagenparkbeheerders toegevoegd kunnen...">
<polygon fill="#999999" stroke="none" points="165.5,-92 0,-92 0,0 165.5,0 165.5,-92"/>
<text text-anchor="start" x="4" y="-78.5" font-family="Helvetica,sans-Serif" font-size="10.00">WPR.Controllers.Employee.</text>
<text text-anchor="start" x="4" y="-66.5" font-family="Helvetica,sans-Serif" font-size="10.00">BackOffice.signUpStaff.SignUpStaff</text>
<text text-anchor="start" x="61.75" y="-54.5" font-family="Helvetica,sans-Serif" font-size="10.00">Controller</text>
<text text-anchor="start" x="17.25" y="-38.5" font-family="Helvetica,sans-Serif" font-size="10.00">&#45;</text>
<text text-anchor="start" x="37.5" y="-38.5" font-family="Helvetica,sans-Serif" font-size="10.00">_userRepository</text>
<text text-anchor="start" x="15.75" y="-22.5" font-family="Helvetica,sans-Serif" font-size="10.00">+</text>
<text text-anchor="start" x="37.5" y="-22.5" font-family="Helvetica,sans-Serif" font-size="10.00">SignUpStaffController()</text>
<text text-anchor="start" x="15.75" y="-6.5" font-family="Helvetica,sans-Serif" font-size="10.00">+</text>
<text text-anchor="start" x="37.5" y="-6.5" font-family="Helvetica,sans-Serif" font-size="10.00">SignUpStaff()</text>
<polygon fill="#666666" stroke="#666666" points="0,-50 0,-50 165.5,-50 165.5,-50 0,-50"/>
<polygon fill="#666666" stroke="#666666" points="0,-34 0,-34 35.5,-34 35.5,-34 0,-34"/>
<polygon fill="#666666" stroke="#666666" points="35.5,-34 35.5,-34 165.5,-34 165.5,-34 35.5,-34"/>
<polygon fill="none" stroke="#666666" points="0,0 0,-92 165.5,-92 165.5,0 0,0"/>
</a>
</g>
</g>
<!-- Node2 -->
<g id="Node000002" class="node">
<title>Node2</title>
<g id="a_Node000002"><a xlink:title=" ">
<polygon fill="white" stroke="none" points="119,-180 46.5,-180 46.5,-128 119,-128 119,-180"/>
<text text-anchor="start" x="50.5" y="-166.5" font-family="Helvetica,sans-Serif" font-size="10.00">ControllerBase</text>
<text text-anchor="start" x="81.25" y="-150.5" font-family="Helvetica,sans-Serif" font-size="10.00"> </text>
<text text-anchor="start" x="81.25" y="-134.5" font-family="Helvetica,sans-Serif" font-size="10.00"> </text>
<polygon fill="#666666" stroke="#666666" points="46.5,-162 46.5,-162 119,-162 119,-162 46.5,-162"/>
<polygon fill="#666666" stroke="#666666" points="46.5,-146 46.5,-146 119,-146 119,-146 46.5,-146"/>
<polygon fill="none" stroke="#666666" points="46.5,-128 46.5,-180 119,-180 119,-128 46.5,-128"/>
</a>
</g>
</g>
<!-- Node2&#45;&gt;Node1 -->
<g id="edge1_Node000001_Node000002" class="edge">
<title>Node2&#45;&gt;Node1</title>
<g id="a_edge1_Node000001_Node000002"><a xlink:title=" ">
<path fill="none" stroke="#63b8ff" d="M82.75,-116.81C82.75,-108.71 82.75,-100.03 82.75,-91.64"/>
<polygon fill="none" stroke="#63b8ff" points="79.25,-116.63 82.75,-126.63 86.25,-116.63 79.25,-116.63"/>
</a>
</g>
</g>
</g>
</svg>
</svg>

<style type='text/css'>
<![CDATA[
[data-mouse-over-selected='false'] { opacity: 0.7; }
[data-mouse-over-selected='true']  { opacity: 1.0; }
]]>
</style>
<script type="application/ecmascript"><![CDATA[
document.addEventListener('DOMContentLoaded', (event) => {
  highlightEdges();
  highlightAdjacentNodes();
});
]]></script>
</svg>
