<?xml version="1.0" encoding="UTF-8" standalone="no"?>
<!DOCTYPE svg PUBLIC "-//W3C//DTD SVG 1.1//EN"
 "http://www.w3.org/Graphics/SVG/1.1/DTD/svg11.dtd">
<!-- Generated by graphviz version 12.2.1 (20241206.2353)
 -->
<!-- Title: WPR.Controllers.Employee.EmployeeController Pages: 1 -->
<svg width="663pt" height="544pt"
 viewBox="0.00 0.00 662.75 544.00" xmlns="http://www.w3.org/2000/svg" xmlns:xlink="http://www.w3.org/1999/xlink">
<g id="graph0" class="graph" transform="scale(1 1) rotate(0) translate(4 540)">
<title>WPR.Controllers.Employee.EmployeeController</title>
<!-- Node1 -->
<g id="Node000001" class="node">
<title>Node1</title>
<g id="a_Node000001"><a xlink:title="EmployeeController is de controller die ervoor zorgt dat er gekeken wordt of de ingelogde gebruiker e...">
<polygon fill="#999999" stroke="none" points="394.12,-80 262.38,-80 262.38,0 394.12,0 394.12,-80"/>
<text text-anchor="start" x="266.38" y="-66.5" font-family="Helvetica,sans-Serif" font-size="10.00">WPR.Controllers.Employee.</text>
<text text-anchor="start" x="285.5" y="-54.5" font-family="Helvetica,sans-Serif" font-size="10.00">EmployeeController</text>
<text text-anchor="start" x="326.75" y="-38.5" font-family="Helvetica,sans-Serif" font-size="10.00"> </text>
<text text-anchor="start" x="271.94" y="-22.5" font-family="Helvetica,sans-Serif" font-size="10.00">+</text>
<text text-anchor="start" x="287.5" y="-22.5" font-family="Helvetica,sans-Serif" font-size="10.00">EmployeeController()</text>
<text text-anchor="start" x="271.94" y="-6.5" font-family="Helvetica,sans-Serif" font-size="10.00">+</text>
<text text-anchor="start" x="287.5" y="-6.5" font-family="Helvetica,sans-Serif" font-size="10.00">IsUserEmployee()</text>
<polygon fill="#666666" stroke="#666666" points="262.38,-50 262.38,-50 394.12,-50 394.12,-50 262.38,-50"/>
<polygon fill="#666666" stroke="#666666" points="262.38,-34 262.38,-34 394.12,-34 394.12,-34 262.38,-34"/>
<polygon fill="none" stroke="#666666" points="262.38,0 262.38,-80 394.12,-80 394.12,0 262.38,0"/>
</a>
</g>
</g>
<!-- Node2 -->
<g id="Node000002" class="node">
<title>Node2</title>
<g id="a_Node000002"><a xlink:title=" ">
<polygon fill="white" stroke="none" points="72.5,-260 0,-260 0,-208 72.5,-208 72.5,-260"/>
<text text-anchor="start" x="4" y="-246.5" font-family="Helvetica,sans-Serif" font-size="10.00">ControllerBase</text>
<text text-anchor="start" x="34.75" y="-230.5" font-family="Helvetica,sans-Serif" font-size="10.00"> </text>
<text text-anchor="start" x="34.75" y="-214.5" font-family="Helvetica,sans-Serif" font-size="10.00"> </text>
<polygon fill="#666666" stroke="#666666" points="0,-242 0,-242 72.5,-242 72.5,-242 0,-242"/>
<polygon fill="#666666" stroke="#666666" points="0,-226 0,-226 72.5,-226 72.5,-226 0,-226"/>
<polygon fill="none" stroke="#666666" points="0,-208 0,-260 72.5,-260 72.5,-208 0,-208"/>
</a>
</g>
</g>
<!-- Node2&#45;&gt;Node1 -->
<g id="edge1_Node000001_Node000002" class="edge">
<title>Node2&#45;&gt;Node1</title>
<g id="a_edge1_Node000001_Node000002"><a xlink:title=" ">
<path fill="none" stroke="#63b8ff" d="M43.78,-197.15C50.23,-174.56 61.68,-146.32 81.25,-128 131.21,-81.25 207.79,-59.4 262.43,-49.33"/>
<polygon fill="none" stroke="#63b8ff" points="40.46,-196.01 41.31,-206.57 47.23,-197.78 40.46,-196.01"/>
</a>
</g>
</g>
<!-- Node3 -->
<g id="Node000003" class="node">
<title>Node3</title>
<g id="a_Node000003"><a xlink:href="interface_w_p_r_1_1_repository_1_1_i_user_repository.html" target="_top" xlink:title="Interface defining methods voor user gerelateerde database operaties, validatie, user management,...">
<polygon fill="white" stroke="none" points="246.12,-340 90.38,-340 90.38,-128 246.12,-128 246.12,-340"/>
<text text-anchor="start" x="94.38" y="-326.5" font-family="Helvetica,sans-Serif" font-size="10.00">WPR.Repository.IUserRepository</text>
<text text-anchor="start" x="166.75" y="-310.5" font-family="Helvetica,sans-Serif" font-size="10.00"> </text>
<text text-anchor="start" x="94.88" y="-294.5" font-family="Helvetica,sans-Serif" font-size="10.00">+</text>
<text text-anchor="start" x="105.38" y="-294.5" font-family="Helvetica,sans-Serif" font-size="10.00">ValidateUserAsync()</text>
<text text-anchor="start" x="94.88" y="-278.5" font-family="Helvetica,sans-Serif" font-size="10.00">+</text>
<text text-anchor="start" x="105.38" y="-278.5" font-family="Helvetica,sans-Serif" font-size="10.00">checkUsageEmailAsync()</text>
<text text-anchor="start" x="94.88" y="-262.5" font-family="Helvetica,sans-Serif" font-size="10.00">+</text>
<text text-anchor="start" x="105.38" y="-262.5" font-family="Helvetica,sans-Serif" font-size="10.00">addCustomerAsync()</text>
<text text-anchor="start" x="94.88" y="-246.5" font-family="Helvetica,sans-Serif" font-size="10.00">+</text>
<text text-anchor="start" x="105.38" y="-246.5" font-family="Helvetica,sans-Serif" font-size="10.00">addPersonalCustomerAsync()</text>
<text text-anchor="start" x="94.88" y="-230.5" font-family="Helvetica,sans-Serif" font-size="10.00">+</text>
<text text-anchor="start" x="105.38" y="-230.5" font-family="Helvetica,sans-Serif" font-size="10.00">addEmployeeCustomerAsync()</text>
<text text-anchor="start" x="94.88" y="-214.5" font-family="Helvetica,sans-Serif" font-size="10.00">+</text>
<text text-anchor="start" x="105.38" y="-214.5" font-family="Helvetica,sans-Serif" font-size="10.00">GetUserIdAsync()</text>
<text text-anchor="start" x="94.88" y="-198.5" font-family="Helvetica,sans-Serif" font-size="10.00">+</text>
<text text-anchor="start" x="105.38" y="-198.5" font-family="Helvetica,sans-Serif" font-size="10.00">GetUserNameAsync()</text>
<text text-anchor="start" x="94.88" y="-182.5" font-family="Helvetica,sans-Serif" font-size="10.00">+</text>
<text text-anchor="start" x="105.38" y="-182.5" font-family="Helvetica,sans-Serif" font-size="10.00">EditUserInfoAsync()</text>
<text text-anchor="start" x="94.88" y="-166.5" font-family="Helvetica,sans-Serif" font-size="10.00">+</text>
<text text-anchor="start" x="105.38" y="-166.5" font-family="Helvetica,sans-Serif" font-size="10.00">IsKvkNumberAsync()</text>
<text text-anchor="start" x="94.88" y="-150.5" font-family="Helvetica,sans-Serif" font-size="10.00">+</text>
<text text-anchor="start" x="105.38" y="-150.5" font-family="Helvetica,sans-Serif" font-size="10.00">IsUserEmployee()</text>
<text text-anchor="start" x="105.38" y="-134.5" font-family="Helvetica,sans-Serif" font-size="10.00">en 14 anderen...</text>
<polygon fill="#666666" stroke="#666666" points="90.38,-322 90.38,-322 246.12,-322 246.12,-322 90.38,-322"/>
<polygon fill="#666666" stroke="#666666" points="90.38,-306 90.38,-306 246.12,-306 246.12,-306 90.38,-306"/>
<polygon fill="none" stroke="#666666" points="90.38,-128 90.38,-340 246.12,-340 246.12,-128 90.38,-128"/>
</a>
</g>
</g>
<!-- Node3&#45;&gt;Node1 -->
<g id="edge2_Node000001_Node000003" class="edge">
<title>Node3&#45;&gt;Node1</title>
<g id="a_edge2_Node000001_Node000003"><a xlink:title=" ">
<path fill="none" stroke="#63b8ff" d="M223.23,-128.06C230.6,-117.43 238.55,-107.19 247,-98 250.16,-94.56 253.56,-91.22 257.12,-87.98"/>
<polygon fill="none" stroke="#63b8ff" points="257.03,-88.06 258.99,-81.12 266.15,-80.26 264.19,-87.2 257.03,-88.06"/>
</a>
</g>
<text text-anchor="middle" x="285.62" y="-100.5" font-family="Helvetica,sans-Serif" font-size="10.00" fill="grey"> &#45;_userRepository</text>
</g>
<!-- Node4 -->
<g id="Node000004" class="node">
<title>Node4</title>
<g id="a_Node000004"><a xlink:href="interface_w_p_r_1_1_database_1_1_i_connector.html" target="_top" xlink:title="Connector class om verbinding te maken met de database, maakt gebruik van de connectie strings die zi...">
<polygon fill="white" stroke="none" points="392.25,-260 264.25,-260 264.25,-208 392.25,-208 392.25,-260"/>
<text text-anchor="start" x="268.25" y="-246.5" font-family="Helvetica,sans-Serif" font-size="10.00">WPR.Database.IConnector</text>
<text text-anchor="start" x="326.75" y="-230.5" font-family="Helvetica,sans-Serif" font-size="10.00"> </text>
<text text-anchor="start" x="271.38" y="-214.5" font-family="Helvetica,sans-Serif" font-size="10.00">+</text>
<text text-anchor="start" x="284.5" y="-214.5" font-family="Helvetica,sans-Serif" font-size="10.00">CreateDbConnection()</text>
<polygon fill="#666666" stroke="#666666" points="264.25,-242 264.25,-242 392.25,-242 392.25,-242 264.25,-242"/>
<polygon fill="#666666" stroke="#666666" points="264.25,-226 264.25,-226 392.25,-226 392.25,-226 264.25,-226"/>
<polygon fill="none" stroke="#666666" points="264.25,-208 264.25,-260 392.25,-260 392.25,-208 264.25,-208"/>
</a>
</g>
</g>
<!-- Node4&#45;&gt;Node1 -->
<g id="edge3_Node000001_Node000004" class="edge">
<title>Node4&#45;&gt;Node1</title>
<g id="a_edge3_Node000001_Node000004"><a xlink:title=" ">
<path fill="none" stroke="#63b8ff" d="M328.25,-208.29C328.25,-179.21 328.25,-130.13 328.25,-92.63"/>
<polygon fill="none" stroke="#63b8ff" points="328.25,-92.8 324.25,-86.8 328.25,-80.8 332.25,-86.8 328.25,-92.8"/>
</a>
</g>
<text text-anchor="middle" x="355.25" y="-100.5" font-family="Helvetica,sans-Serif" font-size="10.00" fill="grey"> &#45;_connector</text>
</g>
<!-- Node5 -->
<g id="Node000005" class="node">
<title>Node5</title>
<g id="a_Node000005"><a xlink:href="class_w_p_r_1_1_controllers_1_1_general_1_1_cookie_1_1_session_handler.html" target="_top" xlink:title="SessionHandler zorgt ervoor dat er cookies aangemaakt kunnen worden op een simpele manier.">
<polygon fill="white" stroke="none" points="532.25,-290 410.25,-290 410.25,-178 532.25,-178 532.25,-290"/>
<text text-anchor="start" x="414.25" y="-276.5" font-family="Helvetica,sans-Serif" font-size="10.00">WPR.Controllers.General.</text>
<text text-anchor="start" x="419.88" y="-264.5" font-family="Helvetica,sans-Serif" font-size="10.00">Cookie.SessionHandler</text>
<text text-anchor="start" x="418.12" y="-248.5" font-family="Helvetica,sans-Serif" font-size="10.00">&#45;</text>
<text text-anchor="start" x="429" y="-248.5" font-family="Helvetica,sans-Serif" font-size="10.00">disposedValue</text>
<text text-anchor="start" x="416.62" y="-232.5" font-family="Helvetica,sans-Serif" font-size="10.00">+</text>
<text text-anchor="start" x="429" y="-232.5" font-family="Helvetica,sans-Serif" font-size="10.00">CreateCookie()</text>
<text text-anchor="start" x="416.62" y="-216.5" font-family="Helvetica,sans-Serif" font-size="10.00">+</text>
<text text-anchor="start" x="429" y="-216.5" font-family="Helvetica,sans-Serif" font-size="10.00">CreateInvalidCookie()</text>
<text text-anchor="start" x="416.62" y="-200.5" font-family="Helvetica,sans-Serif" font-size="10.00">+</text>
<text text-anchor="start" x="429" y="-200.5" font-family="Helvetica,sans-Serif" font-size="10.00">Dispose()</text>
<text text-anchor="start" x="417" y="-184.5" font-family="Helvetica,sans-Serif" font-size="10.00">#</text>
<text text-anchor="start" x="429" y="-184.5" font-family="Helvetica,sans-Serif" font-size="10.00">Dispose()</text>
<polygon fill="#666666" stroke="#666666" points="410.25,-260 410.25,-260 532.25,-260 532.25,-260 410.25,-260"/>
<polygon fill="#666666" stroke="#666666" points="410.25,-244 410.25,-244 427,-244 427,-244 410.25,-244"/>
<polygon fill="#666666" stroke="#666666" points="427,-244 427,-244 532.25,-244 532.25,-244 427,-244"/>
<polygon fill="none" stroke="#666666" points="410.25,-178 410.25,-290 532.25,-290 532.25,-178 410.25,-178"/>
</a>
</g>
</g>
<!-- Node5&#45;&gt;Node1 -->
<g id="edge4_Node000001_Node000005" class="edge">
<title>Node5&#45;&gt;Node1</title>
<g id="a_edge4_Node000001_Node000005"><a xlink:title=" ">
<path fill="none" stroke="#63b8ff" d="M440.68,-178.16C425.58,-152.83 406.31,-122.91 386.25,-98 383.85,-95.02 381.3,-92.03 378.67,-89.06"/>
<polygon fill="none" stroke="#63b8ff" points="378.81,-89.21 371.8,-87.52 370.67,-80.4 377.68,-82.09 378.81,-89.21"/>
</a>
</g>
<text text-anchor="middle" x="433.58" y="-100.5" font-family="Helvetica,sans-Serif" font-size="10.00" fill="grey"> &#45;_sessionHandler</text>
</g>
<!-- Node6 -->
<g id="Node000006" class="node">
<title>Node6</title>
<g id="a_Node000006"><a xlink:title=" ">
<polygon fill="white" stroke="none" points="501.12,-488 441.38,-488 441.38,-436 501.12,-436 501.12,-488"/>
<text text-anchor="start" x="445.38" y="-474.5" font-family="Helvetica,sans-Serif" font-size="10.00">IDisposable</text>
<text text-anchor="start" x="469.75" y="-458.5" font-family="Helvetica,sans-Serif" font-size="10.00"> </text>
<text text-anchor="start" x="469.75" y="-442.5" font-family="Helvetica,sans-Serif" font-size="10.00"> </text>
<polygon fill="#666666" stroke="#666666" points="441.38,-470 441.38,-470 501.12,-470 501.12,-470 441.38,-470"/>
<polygon fill="#666666" stroke="#666666" points="441.38,-454 441.38,-454 501.12,-454 501.12,-454 441.38,-454"/>
<polygon fill="none" stroke="#666666" points="441.38,-436 441.38,-488 501.12,-488 501.12,-436 441.38,-436"/>
</a>
</g>
</g>
<!-- Node6&#45;&gt;Node5 -->
<g id="edge5_Node000005_Node000006" class="edge">
<title>Node6&#45;&gt;Node5</title>
<g id="a_edge5_Node000005_Node000006"><a xlink:title=" ">
<path fill="none" stroke="#63b8ff" d="M471.25,-425.31C471.25,-388.84 471.25,-331.72 471.25,-289.57"/>
<polygon fill="none" stroke="#63b8ff" points="467.75,-424.87 471.25,-434.87 474.75,-424.87 467.75,-424.87"/>
</a>
</g>
</g>
<!-- Node7 -->
<g id="Node000007" class="node">
<title>Node7</title>
<g id="a_Node000007"><a xlink:href="class_w_p_r_1_1_cryption_1_1_crypt.html" target="_top" xlink:title="Class Crypt zorgt voor een veilig encryptie en decryptie van strings. De Crptie wordt gedaan door het...">
<polygon fill="white" stroke="none" points="648.62,-284 549.88,-284 549.88,-184 648.62,-184 648.62,-284"/>
<text text-anchor="start" x="553.88" y="-270.5" font-family="Helvetica,sans-Serif" font-size="10.00">WPR.Cryption.Crypt</text>
<text text-anchor="start" x="565.44" y="-254.5" font-family="Helvetica,sans-Serif" font-size="10.00">&#45;</text>
<text text-anchor="start" x="584" y="-254.5" font-family="Helvetica,sans-Serif" font-size="10.00">_key</text>
<text text-anchor="start" x="565.44" y="-238.5" font-family="Helvetica,sans-Serif" font-size="10.00">&#45;</text>
<text text-anchor="start" x="584" y="-238.5" font-family="Helvetica,sans-Serif" font-size="10.00">_IV</text>
<text text-anchor="start" x="563.94" y="-222.5" font-family="Helvetica,sans-Serif" font-size="10.00">+</text>
<text text-anchor="start" x="584" y="-222.5" font-family="Helvetica,sans-Serif" font-size="10.00">Crypt()</text>
<text text-anchor="start" x="563.94" y="-206.5" font-family="Helvetica,sans-Serif" font-size="10.00">+</text>
<text text-anchor="start" x="584" y="-206.5" font-family="Helvetica,sans-Serif" font-size="10.00">Encrypt()</text>
<text text-anchor="start" x="563.94" y="-190.5" font-family="Helvetica,sans-Serif" font-size="10.00">+</text>
<text text-anchor="start" x="584" y="-190.5" font-family="Helvetica,sans-Serif" font-size="10.00">Decrypt()</text>
<polygon fill="#666666" stroke="#666666" points="549.88,-266 549.88,-266 648.62,-266 648.62,-266 549.88,-266"/>
<polygon fill="#666666" stroke="#666666" points="549.88,-234 549.88,-234 582,-234 582,-234 549.88,-234"/>
<polygon fill="#666666" stroke="#666666" points="582,-234 582,-234 648.62,-234 648.62,-234 582,-234"/>
<polygon fill="none" stroke="#666666" points="549.88,-184 549.88,-284 648.62,-284 648.62,-184 549.88,-184"/>
</a>
</g>
</g>
<!-- Node7&#45;&gt;Node1 -->
<g id="edge6_Node000001_Node000007" class="edge">
<title>Node7&#45;&gt;Node1</title>
<g id="a_edge6_Node000001_Node000007"><a xlink:title=" ">
<path fill="none" stroke="#63b8ff" d="M580.24,-184.24C570.8,-164.85 557.82,-143.51 541.25,-128 503.74,-92.9 450.16,-71.11 406.13,-58.11"/>
<polygon fill="none" stroke="#63b8ff" points="406.1,-58.11 399.24,-60.32 394.55,-54.84 401.41,-52.63 406.1,-58.11"/>
</a>
</g>
<text text-anchor="middle" x="533.64" y="-100.5" font-family="Helvetica,sans-Serif" font-size="10.00" fill="grey"> &#45;_crypt</text>
</g>
<!-- Node8 -->
<g id="Node000008" class="node">
<title>Node8</title>
<g id="a_Node000008"><a xlink:href="class_w_p_r_1_1_data_1_1_env_config.html" target="_top" xlink:title="Leez het .env bestand uit waarin de connectie strings staan naar de database. Deze staan in een apart...">
<polygon fill="white" stroke="none" points="652.12,-536 546.38,-536 546.38,-388 652.12,-388 652.12,-536"/>
<text text-anchor="start" x="550.88" y="-522.5" font-family="Helvetica,sans-Serif" font-size="10.00">WPR.Data.EnvConfig</text>
<text text-anchor="start" x="551.88" y="-506.5" font-family="Helvetica,sans-Serif" font-size="10.00">&#45;</text>
<text text-anchor="start" x="560.38" y="-506.5" font-family="Helvetica,sans-Serif" font-size="10.00">_configuration</text>
<text text-anchor="start" x="550.38" y="-490.5" font-family="Helvetica,sans-Serif" font-size="10.00">+</text>
<text text-anchor="start" x="560.38" y="-490.5" font-family="Helvetica,sans-Serif" font-size="10.00">EnvConfig()</text>
<text text-anchor="start" x="550.38" y="-474.5" font-family="Helvetica,sans-Serif" font-size="10.00">+</text>
<text text-anchor="start" x="560.38" y="-474.5" font-family="Helvetica,sans-Serif" font-size="10.00">Get()</text>
<text text-anchor="start" x="550.38" y="-458.5" font-family="Helvetica,sans-Serif" font-size="10.00">+</text>
<text text-anchor="start" x="560.38" y="-458.5" font-family="Helvetica,sans-Serif" font-size="10.00">IsConfigured()</text>
<text text-anchor="start" x="550.38" y="-442.5" font-family="Helvetica,sans-Serif" font-size="10.00">+</text>
<text text-anchor="start" x="560.38" y="-442.5" font-family="Helvetica,sans-Serif" font-size="10.00">GetSmtpHost()</text>
<text text-anchor="start" x="550.38" y="-426.5" font-family="Helvetica,sans-Serif" font-size="10.00">+</text>
<text text-anchor="start" x="560.38" y="-426.5" font-family="Helvetica,sans-Serif" font-size="10.00">GetSmtpPort()</text>
<text text-anchor="start" x="550.38" y="-410.5" font-family="Helvetica,sans-Serif" font-size="10.00">+</text>
<text text-anchor="start" x="560.38" y="-410.5" font-family="Helvetica,sans-Serif" font-size="10.00">GetFromEmail()</text>
<text text-anchor="start" x="550.38" y="-394.5" font-family="Helvetica,sans-Serif" font-size="10.00">+</text>
<text text-anchor="start" x="560.38" y="-394.5" font-family="Helvetica,sans-Serif" font-size="10.00">GetFromPassword()</text>
<polygon fill="#666666" stroke="#666666" points="546.38,-518 546.38,-518 652.12,-518 652.12,-518 546.38,-518"/>
<polygon fill="#666666" stroke="#666666" points="546.38,-502 546.38,-502 558.38,-502 558.38,-502 546.38,-502"/>
<polygon fill="#666666" stroke="#666666" points="558.38,-502 558.38,-502 652.12,-502 652.12,-502 558.38,-502"/>
<polygon fill="none" stroke="#666666" points="546.38,-388 546.38,-536 652.12,-536 652.12,-388 546.38,-388"/>
</a>
</g>
</g>
<!-- Node8&#45;&gt;Node7 -->
<g id="edge7_Node000007_Node000008" class="edge">
<title>Node8&#45;&gt;Node7</title>
<g id="a_edge7_Node000007_Node000008"><a xlink:title=" ">
<path fill="none" stroke="#63b8ff" d="M599.25,-388.25C599.25,-358.73 599.25,-324.99 599.25,-296.7"/>
<polygon fill="none" stroke="#63b8ff" points="599.25,-296.61 595.25,-290.61 599.25,-284.61 603.25,-290.61 599.25,-296.61"/>
</a>
</g>
<text text-anchor="middle" x="627" y="-360.5" font-family="Helvetica,sans-Serif" font-size="10.00" fill="grey"> &#45;_envConfig</text>
</g>
</g>
</svg>
