<?xml version="1.0" encoding="UTF-8" standalone="no"?>
<!DOCTYPE svg PUBLIC "-//W3C//DTD SVG 1.1//EN"
 "http://www.w3.org/Graphics/SVG/1.1/DTD/svg11.dtd">
<!-- Generated by graphviz version 12.2.1 (20241206.2353)
 -->
<!-- Title: WPR.Controllers.Employee.BackOffice.signUpStaff.SignUpStaffController.SignUpStaff Pages: 1 -->
<svg width="367pt" height="90pt"
 viewBox="0.00 0.00 367.00 90.00" xmlns="http://www.w3.org/2000/svg" xmlns:xlink="http://www.w3.org/1999/xlink">
<g id="graph0" class="graph" transform="scale(1 1) rotate(0) translate(4 86)">
<title>WPR.Controllers.Employee.BackOffice.signUpStaff.SignUpStaffController.SignUpStaff</title>
<!-- Node1 -->
<g id="Node000001" class="node">
<title>Node1</title>
<g id="a_Node000001"><a xlink:title="Car and All medewerkers / Vehicle Managers kunnen hier aangemaakt worden. Mocht het emailadres al bes...">
<polygon fill="#999999" stroke="#666666" points="173.5,-63 0,-63 0,-19 173.5,-19 173.5,-63"/>
<text text-anchor="start" x="8" y="-49.5" font-family="Helvetica,sans-Serif" font-size="10.00">WPR.Controllers.Employee.</text>
<text text-anchor="start" x="8" y="-37.5" font-family="Helvetica,sans-Serif" font-size="10.00">BackOffice.signUpStaff.SignUpStaff</text>
<text text-anchor="middle" x="86.75" y="-25.5" font-family="Helvetica,sans-Serif" font-size="10.00">Controller.SignUpStaff</text>
</a>
</g>
</g>
<!-- Node2 -->
<g id="Node000002" class="node">
<title>Node2</title>
<g id="a_Node000002"><a xlink:href="class_w_p_r_1_1_utils_1_1_email_checker.html#ab97bf7cde61a138766de208bad9d5c7c" target="_top" xlink:title=" ">
<polygon fill="white" stroke="#666666" points="353.75,-82 214.75,-82 214.75,-50 353.75,-50 353.75,-82"/>
<text text-anchor="start" x="222.75" y="-68.5" font-family="Helvetica,sans-Serif" font-size="10.00">WPR.Utils.EmailChecker.Is</text>
<text text-anchor="middle" x="284.25" y="-56.5" font-family="Helvetica,sans-Serif" font-size="10.00">ValidEmail</text>
</a>
</g>
</g>
<!-- Node1&#45;&gt;Node2 -->
<g id="edge1_Node000001_Node000002" class="edge">
<title>Node1&#45;&gt;Node2</title>
<g id="a_edge1_Node000001_Node000002"><a xlink:title=" ">
<path fill="none" stroke="#63b8ff" d="M173.78,-52C183.58,-53.25 193.53,-54.53 203.24,-55.77"/>
<polygon fill="#63b8ff" stroke="#63b8ff" points="202.64,-59.22 213,-57.02 203.53,-52.28 202.64,-59.22"/>
</a>
</g>
</g>
<!-- Node3 -->
<g id="Node000003" class="node">
<title>Node3</title>
<g id="a_Node000003"><a xlink:href="class_w_p_r_1_1_utils_1_1_password_checker.html#a3874adc7b516a8fb893ed18cd0a29a94" target="_top" xlink:title=" ">
<polygon fill="white" stroke="#666666" points="359,-32 209.5,-32 209.5,0 359,0 359,-32"/>
<text text-anchor="start" x="217.5" y="-18.5" font-family="Helvetica,sans-Serif" font-size="10.00">WPR.Utils.PasswordChecker.</text>
<text text-anchor="middle" x="284.25" y="-6.5" font-family="Helvetica,sans-Serif" font-size="10.00">IsValidPassword</text>
</a>
</g>
</g>
<!-- Node1&#45;&gt;Node3 -->
<g id="edge2_Node000001_Node000003" class="edge">
<title>Node1&#45;&gt;Node3</title>
<g id="a_edge2_Node000001_Node000003"><a xlink:title=" ">
<path fill="none" stroke="#63b8ff" d="M173.78,-30C181.79,-28.97 189.9,-27.94 197.91,-26.91"/>
<polygon fill="#63b8ff" stroke="#63b8ff" points="198.14,-30.41 207.62,-25.67 197.25,-23.47 198.14,-30.41"/>
</a>
</g>
</g>
</g>
</svg>
