<?xml version="1.0" encoding="UTF-8" standalone="no"?>
<!DOCTYPE svg PUBLIC "-//W3C//DTD SVG 1.1//EN"
 "http://www.w3.org/Graphics/SVG/1.1/DTD/svg11.dtd">
<!-- Generated by graphviz version 12.2.1 (20241206.2353)
 -->
<!-- Title: WPR.Database.Connector Pages: 1 -->
<svg width="248pt" height="272pt"
 viewBox="0.00 0.00 247.62 272.00" xmlns="http://www.w3.org/2000/svg" xmlns:xlink="http://www.w3.org/1999/xlink">
<g id="graph0" class="graph" transform="scale(1 1) rotate(0) translate(4 268)">
<title>WPR.Database.Connector</title>
<!-- Node1 -->
<g id="Node000001" class="node">
<title>Node1</title>
<g id="a_Node000001"><a xlink:title=" ">
<polygon fill="#999999" stroke="none" points="184.25,-68 59.25,-68 59.25,0 184.25,0 184.25,-68"/>
<text text-anchor="start" x="63.25" y="-54.5" font-family="Helvetica,sans-Serif" font-size="10.00">WPR.Database.Connector</text>
<text text-anchor="start" x="120.25" y="-38.5" font-family="Helvetica,sans-Serif" font-size="10.00"> </text>
<text text-anchor="start" x="65.62" y="-22.5" font-family="Helvetica,sans-Serif" font-size="10.00">+</text>
<text text-anchor="start" x="78" y="-22.5" font-family="Helvetica,sans-Serif" font-size="10.00">Connector()</text>
<text text-anchor="start" x="65.62" y="-6.5" font-family="Helvetica,sans-Serif" font-size="10.00">+</text>
<text text-anchor="start" x="78" y="-6.5" font-family="Helvetica,sans-Serif" font-size="10.00">CreateDbConnection()</text>
<polygon fill="#666666" stroke="#666666" points="59.25,-50 59.25,-50 184.25,-50 184.25,-50 59.25,-50"/>
<polygon fill="#666666" stroke="#666666" points="59.25,-34 59.25,-34 184.25,-34 184.25,-34 59.25,-34"/>
<polygon fill="none" stroke="#666666" points="59.25,0 59.25,-68 184.25,-68 184.25,0 59.25,0"/>
</a>
</g>
</g>
<!-- Node2 -->
<g id="Node000002" class="node">
<title>Node2</title>
<g id="a_Node000002"><a xlink:href="interface_w_p_r_1_1_database_1_1_i_connector.html" target="_top" xlink:title="Connector class om verbinding te maken met de database, maakt gebruik van de connectie strings die zi...">
<polygon fill="white" stroke="none" points="115.5,-216 0,-216 0,-164 115.5,-164 115.5,-216"/>
<text text-anchor="start" x="33.75" y="-202.5" font-family="Helvetica,sans-Serif" font-size="10.00">IConnector</text>
<text text-anchor="start" x="56.25" y="-186.5" font-family="Helvetica,sans-Serif" font-size="10.00"> </text>
<text text-anchor="start" x="4" y="-170.5" font-family="Helvetica,sans-Serif" font-size="10.00">+</text>
<text text-anchor="start" x="14" y="-170.5" font-family="Helvetica,sans-Serif" font-size="10.00">CreateDbConnection()</text>
<polygon fill="#666666" stroke="#666666" points="0,-198 0,-198 115.5,-198 115.5,-198 0,-198"/>
<polygon fill="#666666" stroke="#666666" points="0,-182 0,-182 115.5,-182 115.5,-182 0,-182"/>
<polygon fill="none" stroke="#666666" points="0,-164 0,-216 115.5,-216 115.5,-164 0,-164"/>
</a>
</g>
</g>
<!-- Node2&#45;&gt;Node1 -->
<g id="edge1_Node000001_Node000002" class="edge">
<title>Node2&#45;&gt;Node1</title>
<g id="a_edge1_Node000001_Node000002"><a xlink:title=" ">
<path fill="none" stroke="#63b8ff" d="M72.39,-153.78C83.14,-127.9 97.64,-93 108.15,-67.74"/>
<polygon fill="none" stroke="#63b8ff" points="69.22,-152.28 68.61,-162.86 75.68,-154.97 69.22,-152.28"/>
</a>
</g>
</g>
<!-- Node3 -->
<g id="Node000003" class="node">
<title>Node3</title>
<g id="a_Node000003"><a xlink:href="class_w_p_r_1_1_data_1_1_env_config.html" target="_top" xlink:title="Leez het .env bestand uit waarin de connectie strings staan naar de database. Deze staan in een apart...">
<polygon fill="white" stroke="none" points="239.62,-264 133.88,-264 133.88,-116 239.62,-116 239.62,-264"/>
<text text-anchor="start" x="138.38" y="-250.5" font-family="Helvetica,sans-Serif" font-size="10.00">WPR.Data.EnvConfig</text>
<text text-anchor="start" x="139.38" y="-234.5" font-family="Helvetica,sans-Serif" font-size="10.00">&#45;</text>
<text text-anchor="start" x="147.88" y="-234.5" font-family="Helvetica,sans-Serif" font-size="10.00">_configuration</text>
<text text-anchor="start" x="137.88" y="-218.5" font-family="Helvetica,sans-Serif" font-size="10.00">+</text>
<text text-anchor="start" x="147.88" y="-218.5" font-family="Helvetica,sans-Serif" font-size="10.00">EnvConfig()</text>
<text text-anchor="start" x="137.88" y="-202.5" font-family="Helvetica,sans-Serif" font-size="10.00">+</text>
<text text-anchor="start" x="147.88" y="-202.5" font-family="Helvetica,sans-Serif" font-size="10.00">Get()</text>
<text text-anchor="start" x="137.88" y="-186.5" font-family="Helvetica,sans-Serif" font-size="10.00">+</text>
<text text-anchor="start" x="147.88" y="-186.5" font-family="Helvetica,sans-Serif" font-size="10.00">IsConfigured()</text>
<text text-anchor="start" x="137.88" y="-170.5" font-family="Helvetica,sans-Serif" font-size="10.00">+</text>
<text text-anchor="start" x="147.88" y="-170.5" font-family="Helvetica,sans-Serif" font-size="10.00">GetSmtpHost()</text>
<text text-anchor="start" x="137.88" y="-154.5" font-family="Helvetica,sans-Serif" font-size="10.00">+</text>
<text text-anchor="start" x="147.88" y="-154.5" font-family="Helvetica,sans-Serif" font-size="10.00">GetSmtpPort()</text>
<text text-anchor="start" x="137.88" y="-138.5" font-family="Helvetica,sans-Serif" font-size="10.00">+</text>
<text text-anchor="start" x="147.88" y="-138.5" font-family="Helvetica,sans-Serif" font-size="10.00">GetFromEmail()</text>
<text text-anchor="start" x="137.88" y="-122.5" font-family="Helvetica,sans-Serif" font-size="10.00">+</text>
<text text-anchor="start" x="147.88" y="-122.5" font-family="Helvetica,sans-Serif" font-size="10.00">GetFromPassword()</text>
<polygon fill="#666666" stroke="#666666" points="133.88,-246 133.88,-246 239.62,-246 239.62,-246 133.88,-246"/>
<polygon fill="#666666" stroke="#666666" points="133.88,-230 133.88,-230 145.88,-230 145.88,-230 133.88,-230"/>
<polygon fill="#666666" stroke="#666666" points="145.88,-230 145.88,-230 239.62,-230 239.62,-230 145.88,-230"/>
<polygon fill="none" stroke="#666666" points="133.88,-116 133.88,-264 239.62,-264 239.62,-116 133.88,-116"/>
</a>
</g>
</g>
<!-- Node3&#45;&gt;Node1 -->
<g id="edge2_Node000001_Node000003" class="edge">
<title>Node3&#45;&gt;Node1</title>
<g id="a_edge2_Node000001_Node000003"><a xlink:title=" ">
<path fill="none" stroke="#63b8ff" d="M155.96,-116.06C150.71,-103.61 145.4,-91.02 140.57,-79.6"/>
<polygon fill="none" stroke="#63b8ff" points="140.58,-79.61 134.56,-75.64 135.91,-68.55 141.93,-72.53 140.58,-79.61"/>
</a>
</g>
<text text-anchor="middle" x="174.27" y="-88.5" font-family="Helvetica,sans-Serif" font-size="10.00" fill="grey"> &#45;_envConfig</text>
</g>
</g>
</svg>
