<?xml version="1.0" encoding="UTF-8" standalone="no"?>
<!DOCTYPE svg PUBLIC "-//W3C//DTD SVG 1.1//EN"
 "http://www.w3.org/Graphics/SVG/1.1/DTD/svg11.dtd">
<!-- Generated by graphviz version 12.2.1 (20241206.2353)
 -->
<!-- Title: WPR.Email.Contract Pages: 1 -->
<svg width="272pt" height="325pt"
 viewBox="0.00 0.00 271.88 325.00" xmlns="http://www.w3.org/2000/svg" xmlns:xlink="http://www.w3.org/1999/xlink">
<g id="graph0" class="graph" transform="scale(1 1) rotate(0) translate(4 321)">
<title>WPR.Email.Contract</title>
<!-- Node1 -->
<g id="Node000001" class="node">
<title>Node1</title>
<g id="a_Node000001"><a xlink:title="In de Contract klasse worden alle gegevens van een specifieke klant verzameld voor het aanmaken van e...">
<polygon fill="#999999" stroke="none" points="201.25,-84 101,-84 101,0 201.25,0 201.25,-84"/>
<text text-anchor="start" x="105" y="-70.5" font-family="Helvetica,sans-Serif" font-size="10.00">WPR.Email.Contract</text>
<text text-anchor="start" x="105.5" y="-54.5" font-family="Helvetica,sans-Serif" font-size="10.00">+</text>
<text text-anchor="start" x="116" y="-54.5" font-family="Helvetica,sans-Serif" font-size="10.00">_details</text>
<text text-anchor="start" x="105.5" y="-38.5" font-family="Helvetica,sans-Serif" font-size="10.00">+</text>
<text text-anchor="start" x="116" y="-38.5" font-family="Helvetica,sans-Serif" font-size="10.00">Contract()</text>
<text text-anchor="start" x="105.5" y="-22.5" font-family="Helvetica,sans-Serif" font-size="10.00">+</text>
<text text-anchor="start" x="116" y="-22.5" font-family="Helvetica,sans-Serif" font-size="10.00">SetDetailsAsync()</text>
<text text-anchor="start" x="105.5" y="-6.5" font-family="Helvetica,sans-Serif" font-size="10.00">+</text>
<text text-anchor="start" x="116" y="-6.5" font-family="Helvetica,sans-Serif" font-size="10.00">GetDetailsAsync()</text>
<polygon fill="#666666" stroke="#666666" points="101,-66 101,-66 201.25,-66 201.25,-66 101,-66"/>
<polygon fill="#666666" stroke="#666666" points="101,-50 101,-50 114,-50 114,-50 101,-50"/>
<polygon fill="#666666" stroke="#666666" points="114,-50 114,-50 201.25,-50 201.25,-50 114,-50"/>
<polygon fill="none" stroke="#666666" points="101,0 101,-84 201.25,-84 201.25,0 101,0"/>
</a>
</g>
</g>
<!-- Node2 -->
<g id="Node000002" class="node">
<title>Node2</title>
<g id="a_Node000002"><a xlink:href="interface_w_p_r_1_1_email_1_1_i_contract_details.html" target="_top" xlink:title=" ">
<polygon fill="white" stroke="none" points="88.75,-198 9.5,-198 9.5,-146 88.75,-146 88.75,-198"/>
<text text-anchor="start" x="13.5" y="-184.5" font-family="Helvetica,sans-Serif" font-size="10.00">IContractDetails</text>
<text text-anchor="start" x="47.62" y="-168.5" font-family="Helvetica,sans-Serif" font-size="10.00"> </text>
<text text-anchor="start" x="47.62" y="-152.5" font-family="Helvetica,sans-Serif" font-size="10.00"> </text>
<polygon fill="#666666" stroke="#666666" points="9.5,-180 9.5,-180 88.75,-180 88.75,-180 9.5,-180"/>
<polygon fill="#666666" stroke="#666666" points="9.5,-164 9.5,-164 88.75,-164 88.75,-164 9.5,-164"/>
<polygon fill="none" stroke="#666666" points="9.5,-146 9.5,-198 88.75,-198 88.75,-146 9.5,-146"/>
</a>
</g>
</g>
<!-- Node2&#45;&gt;Node1 -->
<g id="edge1_Node000001_Node000002" class="edge">
<title>Node2&#45;&gt;Node1</title>
<g id="a_edge1_Node000001_Node000002"><a xlink:title=" ">
<path fill="none" stroke="#63b8ff" d="M75.98,-137.3C89.05,-120.89 104.87,-101.04 118.62,-83.79"/>
<polygon fill="none" stroke="#63b8ff" points="73.47,-134.83 69.98,-144.83 78.95,-139.19 73.47,-134.83"/>
</a>
</g>
</g>
<!-- Node3 -->
<g id="Node000003" class="node">
<title>Node3</title>
<g id="a_Node000003"><a xlink:href="interface_w_p_r_1_1_email_1_1_i_details.html" target="_top" xlink:title=" ">
<polygon fill="white" stroke="none" points="98.25,-317 0,-317 0,-249 98.25,-249 98.25,-317"/>
<text text-anchor="start" x="32.25" y="-303.5" font-family="Helvetica,sans-Serif" font-size="10.00">IDetails</text>
<text text-anchor="start" x="47.62" y="-287.5" font-family="Helvetica,sans-Serif" font-size="10.00"> </text>
<text text-anchor="start" x="4" y="-271.5" font-family="Helvetica,sans-Serif" font-size="10.00">+</text>
<text text-anchor="start" x="14" y="-271.5" font-family="Helvetica,sans-Serif" font-size="10.00">SetDetailsAsync()</text>
<text text-anchor="start" x="4" y="-255.5" font-family="Helvetica,sans-Serif" font-size="10.00">+</text>
<text text-anchor="start" x="14" y="-255.5" font-family="Helvetica,sans-Serif" font-size="10.00">GetDetailsAsync()</text>
<polygon fill="#666666" stroke="#666666" points="0,-299 0,-299 98.25,-299 98.25,-299 0,-299"/>
<polygon fill="#666666" stroke="#666666" points="0,-283 0,-283 98.25,-283 98.25,-283 0,-283"/>
<polygon fill="none" stroke="#666666" points="0,-249 0,-317 98.25,-317 98.25,-249 0,-249"/>
</a>
</g>
</g>
<!-- Node3&#45;&gt;Node2 -->
<g id="edge2_Node000002_Node000003" class="edge">
<title>Node3&#45;&gt;Node2</title>
<g id="a_edge2_Node000002_Node000003"><a xlink:title=" ">
<path fill="none" stroke="#63b8ff" d="M49.12,-237.86C49.12,-224.25 49.12,-209.75 49.12,-197.92"/>
<polygon fill="none" stroke="#63b8ff" points="45.63,-237.49 49.13,-247.49 52.63,-237.49 45.63,-237.49"/>
</a>
</g>
</g>
<!-- Node4 -->
<g id="Node000004" class="node">
<title>Node4</title>
<g id="a_Node000004"><a xlink:href="interface_w_p_r_1_1_repository_1_1_i_contract_repository.html" target="_top" xlink:title=" ">
<polygon fill="white" stroke="none" points="263.88,-212 106.38,-212 106.38,-132 263.88,-132 263.88,-212"/>
<text text-anchor="start" x="126.62" y="-198.5" font-family="Helvetica,sans-Serif" font-size="10.00">WPR.Repository.IContract</text>
<text text-anchor="start" x="161.5" y="-186.5" font-family="Helvetica,sans-Serif" font-size="10.00">Repository</text>
<text text-anchor="start" x="183.62" y="-170.5" font-family="Helvetica,sans-Serif" font-size="10.00"> </text>
<text text-anchor="start" x="110.38" y="-154.5" font-family="Helvetica,sans-Serif" font-size="10.00">+</text>
<text text-anchor="start" x="120.38" y="-154.5" font-family="Helvetica,sans-Serif" font-size="10.00">GetContractsSendEmailAsync()</text>
<text text-anchor="start" x="110.38" y="-138.5" font-family="Helvetica,sans-Serif" font-size="10.00">+</text>
<text text-anchor="start" x="120.38" y="-138.5" font-family="Helvetica,sans-Serif" font-size="10.00">GetContractInfoAsync()</text>
<polygon fill="#666666" stroke="#666666" points="106.38,-182 106.38,-182 263.88,-182 263.88,-182 106.38,-182"/>
<polygon fill="#666666" stroke="#666666" points="106.38,-166 106.38,-166 263.88,-166 263.88,-166 106.38,-166"/>
<polygon fill="none" stroke="#666666" points="106.38,-132 106.38,-212 263.88,-212 263.88,-132 106.38,-132"/>
</a>
</g>
</g>
<!-- Node4&#45;&gt;Node1 -->
<g id="edge3_Node000001_Node000004" class="edge">
<title>Node4&#45;&gt;Node1</title>
<g id="a_edge3_Node000001_Node000004"><a xlink:title=" ">
<path fill="none" stroke="#63b8ff" d="M174.83,-132.25C171.81,-120.89 168.46,-108.27 165.25,-96.17"/>
<polygon fill="none" stroke="#63b8ff" points="165.29,-96.31 159.88,-91.54 162.2,-84.71 167.61,-89.48 165.29,-96.31"/>
</a>
</g>
<text text-anchor="middle" x="216.02" y="-104.5" font-family="Helvetica,sans-Serif" font-size="10.00" fill="grey"> &#45;_contractRepository</text>
</g>
</g>
</svg>
