<?xml version="1.0" encoding="UTF-8" standalone="no"?>
<!DOCTYPE svg PUBLIC "-//W3C//DTD SVG 1.1//EN"
 "http://www.w3.org/Graphics/SVG/1.1/DTD/svg11.dtd">
<!-- Generated by graphviz version 12.2.1 (20241206.2353)
 -->
<!-- Title: WPR.Utils.DomainEmailChecker Pages: 1 -->
<svg width="162pt" height="176pt"
 viewBox="0.00 0.00 161.50 176.00" xmlns="http://www.w3.org/2000/svg" xmlns:xlink="http://www.w3.org/1999/xlink">
<g id="graph0" class="graph" transform="scale(1 1) rotate(0) translate(4 172)">
<title>WPR.Utils.DomainEmailChecker</title>
<!-- Node1 -->
<g id="Node000001" class="node">
<title>Node1</title>
<g id="a_Node000001"><a xlink:title=" ">
<polygon fill="#999999" stroke="none" points="153.5,-68 0,-68 0,0 153.5,0 153.5,-68"/>
<text text-anchor="start" x="4" y="-54.5" font-family="Helvetica,sans-Serif" font-size="10.00">WPR.Utils.DomainEmailChecker</text>
<text text-anchor="start" x="75.25" y="-38.5" font-family="Helvetica,sans-Serif" font-size="10.00"> </text>
<text text-anchor="start" x="12.56" y="-22.5" font-family="Helvetica,sans-Serif" font-size="10.00">+</text>
<text text-anchor="start" x="31.12" y="-22.5" font-family="Helvetica,sans-Serif" font-size="10.00">DomainEmailChecker()</text>
<text text-anchor="start" x="12.56" y="-6.5" font-family="Helvetica,sans-Serif" font-size="10.00">+</text>
<text text-anchor="start" x="31.12" y="-6.5" font-family="Helvetica,sans-Serif" font-size="10.00">DomainExists()</text>
<polygon fill="#666666" stroke="#666666" points="0,-50 0,-50 153.5,-50 153.5,-50 0,-50"/>
<polygon fill="#666666" stroke="#666666" points="0,-34 0,-34 153.5,-34 153.5,-34 0,-34"/>
<polygon fill="none" stroke="#666666" points="0,0 0,-68 153.5,-68 153.5,0 0,0"/>
</a>
</g>
</g>
<!-- Node2 -->
<g id="Node000002" class="node">
<title>Node2</title>
<g id="a_Node000002"><a xlink:href="interface_w_p_r_1_1_database_1_1_i_connector.html" target="_top" xlink:title="Connector class om verbinding te maken met de database, maakt gebruik van de connectie strings die zi...">
<polygon fill="white" stroke="none" points="140.75,-168 12.75,-168 12.75,-116 140.75,-116 140.75,-168"/>
<text text-anchor="start" x="16.75" y="-154.5" font-family="Helvetica,sans-Serif" font-size="10.00">WPR.Database.IConnector</text>
<text text-anchor="start" x="75.25" y="-138.5" font-family="Helvetica,sans-Serif" font-size="10.00"> </text>
<text text-anchor="start" x="19.88" y="-122.5" font-family="Helvetica,sans-Serif" font-size="10.00">+</text>
<text text-anchor="start" x="33" y="-122.5" font-family="Helvetica,sans-Serif" font-size="10.00">CreateDbConnection()</text>
<polygon fill="#666666" stroke="#666666" points="12.75,-150 12.75,-150 140.75,-150 140.75,-150 12.75,-150"/>
<polygon fill="#666666" stroke="#666666" points="12.75,-134 12.75,-134 140.75,-134 140.75,-134 12.75,-134"/>
<polygon fill="none" stroke="#666666" points="12.75,-116 12.75,-168 140.75,-168 140.75,-116 12.75,-116"/>
</a>
</g>
</g>
<!-- Node2&#45;&gt;Node1 -->
<g id="edge1_Node000001_Node000002" class="edge">
<title>Node2&#45;&gt;Node1</title>
<g id="a_edge1_Node000001_Node000002"><a xlink:title=" ">
<path fill="none" stroke="#63b8ff" d="M76.75,-116.15C76.75,-105.54 76.75,-92.82 76.75,-80.63"/>
<polygon fill="none" stroke="#63b8ff" points="76.75,-80.63 72.75,-74.63 76.75,-68.63 80.75,-74.63 76.75,-80.63"/>
</a>
</g>
<text text-anchor="middle" x="103.75" y="-88.5" font-family="Helvetica,sans-Serif" font-size="10.00" fill="grey"> &#45;_connector</text>
</g>
</g>
</svg>
