<?xml version="1.0" encoding="UTF-8" standalone="no"?>
<!DOCTYPE svg PUBLIC "-//W3C//DTD SVG 1.1//EN"
 "http://www.w3.org/Graphics/SVG/1.1/DTD/svg11.dtd">
<!-- Generated by graphviz version 12.2.1 (20241206.2353)
 -->
<!-- Title: WPR.Repository.VehicleRepository.HireVehicle Pages: 1 -->
<svg width="601pt" height="227pt"
 viewBox="0.00 0.00 600.50 227.00" xmlns="http://www.w3.org/2000/svg" xmlns:xlink="http://www.w3.org/1999/xlink">
<g id="graph0" class="graph" transform="scale(1 1) rotate(0) translate(4 223)">
<title>WPR.Repository.VehicleRepository.HireVehicle</title>
<!-- Node1 -->
<g id="Node000001" class="node">
<title>Node1</title>
<g id="a_Node000001"><a xlink:title="Verwerkt het huurverzoek door de gebruiker te valideren, het verzoek toe te voegen aan de database en...">
<polygon fill="#999999" stroke="#666666" points="173.5,-169 0,-169 0,-137 173.5,-137 173.5,-169"/>
<text text-anchor="start" x="8" y="-155.5" font-family="Helvetica,sans-Serif" font-size="10.00">WPR.Repository.VehicleRepository.</text>
<text text-anchor="middle" x="86.75" y="-143.5" font-family="Helvetica,sans-Serif" font-size="10.00">HireVehicle</text>
</a>
</g>
</g>
<!-- Node2 -->
<g id="Node000002" class="node">
<title>Node2</title>
<g id="a_Node000002"><a xlink:href="class_w_p_r_1_1_repository_1_1_vehicle_repository.html#af4c31712aa266cf049a33a54697cdc60" target="_top" xlink:title="Probeert de gebruiker ID te decrypteren vanuit de cookie en retourneert het gedecodeerde resultaat.">
<polygon fill="white" stroke="#666666" points="383,-219 209.5,-219 209.5,-187 383,-187 383,-219"/>
<text text-anchor="start" x="217.5" y="-205.5" font-family="Helvetica,sans-Serif" font-size="10.00">WPR.Repository.VehicleRepository.</text>
<text text-anchor="middle" x="296.25" y="-193.5" font-family="Helvetica,sans-Serif" font-size="10.00">DecryptCookie</text>
</a>
</g>
</g>
<!-- Node1&#45;&gt;Node2 -->
<g id="edge1_Node000001_Node000002" class="edge">
<title>Node1&#45;&gt;Node2</title>
<g id="a_edge1_Node000001_Node000002"><a xlink:title=" ">
<path fill="none" stroke="#63b8ff" d="M155.98,-169.44C175.13,-174.05 196.11,-179.11 215.84,-183.87"/>
<polygon fill="#63b8ff" stroke="#63b8ff" points="214.97,-187.25 225.51,-186.19 216.61,-180.45 214.97,-187.25"/>
</a>
</g>
</g>
<!-- Node3 -->
<g id="Node000003" class="node">
<title>Node3</title>
<g id="a_Node000003"><a xlink:href="class_w_p_r_1_1_repository_1_1_vehicle_repository.html#af8c82079f31c3bbec4c7d0af846256d8" target="_top" xlink:title="Voegt een huurverzoek toe aan de database afhankelijk van het accounttype van de gebruiker (business ...">
<polygon fill="white" stroke="#666666" points="383,-169 209.5,-169 209.5,-137 383,-137 383,-169"/>
<text text-anchor="start" x="217.5" y="-155.5" font-family="Helvetica,sans-Serif" font-size="10.00">WPR.Repository.VehicleRepository.</text>
<text text-anchor="middle" x="296.25" y="-143.5" font-family="Helvetica,sans-Serif" font-size="10.00">InsertRequest</text>
</a>
</g>
</g>
<!-- Node1&#45;&gt;Node3 -->
<g id="edge2_Node000001_Node000003" class="edge">
<title>Node1&#45;&gt;Node3</title>
<g id="a_edge2_Node000001_Node000003"><a xlink:title=" ">
<path fill="none" stroke="#63b8ff" d="M173.95,-153C181.89,-153 189.98,-153 198.02,-153"/>
<polygon fill="#63b8ff" stroke="#63b8ff" points="197.81,-156.5 207.81,-153 197.81,-149.5 197.81,-156.5"/>
</a>
</g>
</g>
<!-- Node5 -->
<g id="Node000005" class="node">
<title>Node5</title>
<g id="a_Node000005"><a xlink:href="class_w_p_r_1_1_repository_1_1_vehicle_repository.html#a2c371ee4ceecc0aed0aa772f6e8eee5a" target="_top" xlink:title="Verstuurt een bevestigingsmail naar de gebruiker na het succesvol aanmaken van een huurverzoek.">
<polygon fill="white" stroke="#666666" points="383,-107 209.5,-107 209.5,-75 383,-75 383,-107"/>
<text text-anchor="start" x="217.5" y="-93.5" font-family="Helvetica,sans-Serif" font-size="10.00">WPR.Repository.VehicleRepository.</text>
<text text-anchor="middle" x="296.25" y="-81.5" font-family="Helvetica,sans-Serif" font-size="10.00">SendEmail</text>
</a>
</g>
</g>
<!-- Node1&#45;&gt;Node5 -->
<g id="edge4_Node000001_Node000005" class="edge">
<title>Node1&#45;&gt;Node5</title>
<g id="a_edge4_Node000001_Node000005"><a xlink:title=" ">
<path fill="none" stroke="#63b8ff" d="M142.81,-136.55C169.42,-128.6 201.54,-119 229.43,-110.67"/>
<polygon fill="#63b8ff" stroke="#63b8ff" points="230.26,-114.07 238.84,-107.85 228.26,-107.36 230.26,-114.07"/>
</a>
</g>
</g>
<!-- Node4 -->
<g id="Node000004" class="node">
<title>Node4</title>
<g id="a_Node000004"><a xlink:href="class_w_p_r_1_1_repository_1_1_vehicle_repository.html#a8f27557367909f3ab26b7f8ac80fa33a" target="_top" xlink:title="Controleert of de gebruiker een business account heeft op basis van het opgegeven userId.">
<polygon fill="white" stroke="#666666" points="592.5,-182 419,-182 419,-150 592.5,-150 592.5,-182"/>
<text text-anchor="start" x="427" y="-168.5" font-family="Helvetica,sans-Serif" font-size="10.00">WPR.Repository.VehicleRepository.</text>
<text text-anchor="middle" x="505.75" y="-156.5" font-family="Helvetica,sans-Serif" font-size="10.00">IsBusinessUser</text>
</a>
</g>
</g>
<!-- Node3&#45;&gt;Node4 -->
<g id="edge3_Node000003_Node000004" class="edge">
<title>Node3&#45;&gt;Node4</title>
<g id="a_edge3_Node000003_Node000004"><a xlink:title=" ">
<path fill="none" stroke="#63b8ff" d="M383.45,-158.4C391.39,-158.9 399.48,-159.4 407.52,-159.91"/>
<polygon fill="#63b8ff" stroke="#63b8ff" points="407.11,-163.39 417.31,-160.52 407.55,-156.4 407.11,-163.39"/>
</a>
</g>
</g>
<!-- Node6 -->
<g id="Node000006" class="node">
<title>Node6</title>
<g id="a_Node000006"><a xlink:href="class_w_p_r_1_1_repository_1_1_vehicle_repository.html#a7d5690f15622f36a6c229b993a2a9ea9" target="_top" xlink:title="Haalt de kleur van een voertuig op basis van het opgegeven frameNr.">
<polygon fill="white" stroke="#666666" points="592.5,-132 419,-132 419,-100 592.5,-100 592.5,-132"/>
<text text-anchor="start" x="427" y="-118.5" font-family="Helvetica,sans-Serif" font-size="10.00">WPR.Repository.VehicleRepository.</text>
<text text-anchor="middle" x="505.75" y="-106.5" font-family="Helvetica,sans-Serif" font-size="10.00">GetVehicleColorAsync</text>
</a>
</g>
</g>
<!-- Node5&#45;&gt;Node6 -->
<g id="edge5_Node000005_Node000006" class="edge">
<title>Node5&#45;&gt;Node6</title>
<g id="a_edge5_Node000005_Node000006"><a xlink:title=" ">
<path fill="none" stroke="#63b8ff" d="M383.45,-101.39C391.39,-102.34 399.48,-103.32 407.52,-104.29"/>
<polygon fill="#63b8ff" stroke="#63b8ff" points="406.97,-107.74 417.32,-105.47 407.81,-100.8 406.97,-107.74"/>
</a>
</g>
</g>
<!-- Node7 -->
<g id="Node000007" class="node">
<title>Node7</title>
<g id="a_Node000007"><a xlink:href="class_w_p_r_1_1_repository_1_1_vehicle_repository.html#ac966b529fb982058bba744e3f8a03501" target="_top" xlink:title="Haalt de merk en type van een voertuig op basis van het opgegeven frameNr.">
<polygon fill="white" stroke="#666666" points="592.5,-82 419,-82 419,-50 592.5,-50 592.5,-82"/>
<text text-anchor="start" x="427" y="-68.5" font-family="Helvetica,sans-Serif" font-size="10.00">WPR.Repository.VehicleRepository.</text>
<text text-anchor="middle" x="505.75" y="-56.5" font-family="Helvetica,sans-Serif" font-size="10.00">GetVehicleNameAsync</text>
</a>
</g>
</g>
<!-- Node5&#45;&gt;Node7 -->
<g id="edge6_Node000005_Node000007" class="edge">
<title>Node5&#45;&gt;Node7</title>
<g id="a_edge6_Node000005_Node000007"><a xlink:title=" ">
<path fill="none" stroke="#63b8ff" d="M383.45,-80.61C391.39,-79.66 399.48,-78.68 407.52,-77.71"/>
<polygon fill="#63b8ff" stroke="#63b8ff" points="407.81,-81.2 417.32,-76.53 406.97,-74.26 407.81,-81.2"/>
</a>
</g>
</g>
<!-- Node8 -->
<g id="Node000008" class="node">
<title>Node8</title>
<g id="a_Node000008"><a xlink:href="class_w_p_r_1_1_repository_1_1_vehicle_repository.html#a44c60ce7050a7813b4cfca5b8292ab4e" target="_top" xlink:title="Haalt het kenteken van een voertuig op basis van het opgegeven frameNr.">
<polygon fill="white" stroke="#666666" points="592.5,-32 419,-32 419,0 592.5,0 592.5,-32"/>
<text text-anchor="start" x="427" y="-18.5" font-family="Helvetica,sans-Serif" font-size="10.00">WPR.Repository.VehicleRepository.</text>
<text text-anchor="middle" x="505.75" y="-6.5" font-family="Helvetica,sans-Serif" font-size="10.00">GetVehiclePlateAsync</text>
</a>
</g>
</g>
<!-- Node5&#45;&gt;Node8 -->
<g id="edge7_Node000005_Node000008" class="edge">
<title>Node5&#45;&gt;Node8</title>
<g id="a_edge7_Node000005_Node000008"><a xlink:title=" ">
<path fill="none" stroke="#63b8ff" d="M334.43,-74.53C358.34,-64.24 390.21,-51.08 419,-41 424.04,-39.24 429.28,-37.49 434.56,-35.8"/>
<polygon fill="#63b8ff" stroke="#63b8ff" points="435.5,-39.17 444,-32.85 433.41,-32.49 435.5,-39.17"/>
</a>
</g>
</g>
</g>
</svg>
