<?xml version="1.0" encoding="UTF-8" standalone="no"?>
<!DOCTYPE svg PUBLIC "-//W3C//DTD SVG 1.1//EN"
 "http://www.w3.org/Graphics/SVG/1.1/DTD/svg11.dtd">
<!-- Generated by graphviz version 12.2.1 (20241206.2353)
 -->
<!-- Title: WPR.Repository.UserRepository.AddCustomer Pages: 1 -->
<svg width="794pt" height="438pt"
 viewBox="0.00 0.00 794.25 438.00" xmlns="http://www.w3.org/2000/svg" xmlns:xlink="http://www.w3.org/1999/xlink">
<g id="graph0" class="graph" transform="scale(1 1) rotate(0) translate(4 434)">
<title>WPR.Repository.UserRepository.AddCustomer</title>
<!-- Node1 -->
<g id="Node000001" class="node">
<title>Node1</title>
<g id="a_Node000001"><a xlink:title="AddCustomer krijgt SignUpRequestCustomer binnen en SignUpRequestCustomerPrivate. Elk account heeft al...">
<polygon fill="#999999" stroke="#666666" points="163,-190 0,-190 0,-158 163,-158 163,-190"/>
<text text-anchor="start" x="8" y="-176.5" font-family="Helvetica,sans-Serif" font-size="10.00">WPR.Repository.UserRepository.</text>
<text text-anchor="middle" x="81.5" y="-164.5" font-family="Helvetica,sans-Serif" font-size="10.00">AddCustomer</text>
</a>
</g>
</g>
<!-- Node2 -->
<g id="Node000002" class="node">
<title>Node2</title>
<g id="a_Node000002"><a xlink:href="class_w_p_r_1_1_repository_1_1_user_repository.html#ae8b7a3c517ffe6cb1b85eee60e5b2292" target="_top" xlink:title="AddCustomerChecks kijkt of alle ingevoerde velden geldig zijn. Als een check faalt falen alle checks.">
<polygon fill="white" stroke="#666666" points="561,-212 398,-212 398,-180 561,-180 561,-212"/>
<text text-anchor="start" x="406" y="-198.5" font-family="Helvetica,sans-Serif" font-size="10.00">WPR.Repository.UserRepository.</text>
<text text-anchor="middle" x="479.5" y="-186.5" font-family="Helvetica,sans-Serif" font-size="10.00">AddCustomerChecks</text>
</a>
</g>
</g>
<!-- Node1&#45;&gt;Node2 -->
<g id="edge1_Node000001_Node000002" class="edge">
<title>Node1&#45;&gt;Node2</title>
<g id="a_edge1_Node000001_Node000002"><a xlink:title=" ">
<path fill="none" stroke="#63b8ff" d="M163.11,-178.48C227.78,-182.07 318.59,-187.12 386.17,-190.87"/>
<polygon fill="#63b8ff" stroke="#63b8ff" points="385.97,-194.36 396.15,-191.42 386.36,-187.38 385.97,-194.36"/>
</a>
</g>
</g>
<!-- Node9 -->
<g id="Node000009" class="node">
<title>Node9</title>
<g id="a_Node000009"><a xlink:href="namespace_w_p_r_1_1_controllers_1_1_general_1_1_sign_up.html#abf09877e4843c0b4ff2791cc32242102" target="_top" xlink:title=" ">
<polygon fill="white" stroke="#666666" points="773.12,-412 610.12,-412 610.12,-380 773.12,-380 773.12,-412"/>
<text text-anchor="start" x="618.12" y="-398.5" font-family="Helvetica,sans-Serif" font-size="10.00">WPR.Controllers.General.</text>
<text text-anchor="middle" x="691.62" y="-386.5" font-family="Helvetica,sans-Serif" font-size="10.00">SignUp.SignUpRequestCustomer</text>
</a>
</g>
</g>
<!-- Node1&#45;&gt;Node9 -->
<g id="edge15_Node000001_Node000009" class="edge">
<title>Node1&#45;&gt;Node9</title>
<g id="a_edge15_Node000001_Node000009"><a xlink:title=" ">
<path fill="none" stroke="#63b8ff" d="M121.37,-190.49C206.53,-226.27 416.38,-312.48 597,-371 602.7,-372.85 608.63,-374.66 614.61,-376.42"/>
<polygon fill="#63b8ff" stroke="#63b8ff" points="613.36,-379.71 623.94,-379.11 615.3,-372.98 613.36,-379.71"/>
</a>
</g>
</g>
<!-- Node10 -->
<g id="Node000010" class="node">
<title>Node10</title>
<g id="a_Node000010"><a xlink:href="namespace_w_p_r_1_1_controllers_1_1_general_1_1_sign_up.html#ab012081435b4392bd8e6e4525e336d68" target="_top" xlink:title=" ">
<polygon fill="white" stroke="#666666" points="773.12,-44 610.12,-44 610.12,0 773.12,0 773.12,-44"/>
<text text-anchor="start" x="618.12" y="-30.5" font-family="Helvetica,sans-Serif" font-size="10.00">WPR.Controllers.General.</text>
<text text-anchor="start" x="618.12" y="-18.5" font-family="Helvetica,sans-Serif" font-size="10.00">SignUp.SignUpRequestCustomer</text>
<text text-anchor="middle" x="691.62" y="-6.5" font-family="Helvetica,sans-Serif" font-size="10.00">Private</text>
</a>
</g>
</g>
<!-- Node1&#45;&gt;Node10 -->
<g id="edge16_Node000001_Node000010" class="edge">
<title>Node1&#45;&gt;Node10</title>
<g id="a_edge16_Node000001_Node000010"><a xlink:title=" ">
<path fill="none" stroke="#63b8ff" d="M119.24,-157.56C141.92,-147.82 171.79,-135.72 199,-127 335.25,-83.34 498.6,-52.54 598.47,-36.03"/>
<polygon fill="#63b8ff" stroke="#63b8ff" points="598.93,-39.51 608.23,-34.43 597.8,-32.6 598.93,-39.51"/>
</a>
</g>
</g>
<!-- Node11 -->
<g id="Node000011" class="node">
<title>Node11</title>
<g id="a_Node000011"><a xlink:href="class_w_p_r_1_1_repository_1_1_user_repository.html#a4fe2a09bb575fb8d9510828ef5ad9813" target="_top" xlink:title="AddPrivateCustomerDetails zorgt ervoor dat alle extra details van particuliere huurders toegevoegd wo...">
<polygon fill="white" stroke="#666666" points="362,-168 199,-168 199,-136 362,-136 362,-168"/>
<text text-anchor="start" x="207" y="-154.5" font-family="Helvetica,sans-Serif" font-size="10.00">WPR.Repository.UserRepository.</text>
<text text-anchor="middle" x="280.5" y="-142.5" font-family="Helvetica,sans-Serif" font-size="10.00">AddPrivateCustomerDetails</text>
</a>
</g>
</g>
<!-- Node1&#45;&gt;Node11 -->
<g id="edge12_Node000001_Node000011" class="edge">
<title>Node1&#45;&gt;Node11</title>
<g id="a_edge12_Node000001_Node000011"><a xlink:title=" ">
<path fill="none" stroke="#63b8ff" d="M163.48,-164.96C171.34,-164.08 179.36,-163.18 187.32,-162.29"/>
<polygon fill="#63b8ff" stroke="#63b8ff" points="187.46,-165.8 197.01,-161.21 186.68,-158.84 187.46,-165.8"/>
</a>
</g>
</g>
<!-- Node3 -->
<g id="Node000003" class="node">
<title>Node3</title>
<g id="a_Node000003"><a xlink:href="class_w_p_r_1_1_repository_1_1_user_repository.html#a7903e03bfe7076a6ee7b352636cb854d" target="_top" xlink:title="Er wordt gekeken of het emailadres al bestaat in de databse.">
<polygon fill="white" stroke="#666666" points="786.25,-312 597,-312 597,-280 786.25,-280 786.25,-312"/>
<text text-anchor="start" x="605" y="-298.5" font-family="Helvetica,sans-Serif" font-size="10.00">WPR.Repository.UserRepository.check</text>
<text text-anchor="middle" x="691.62" y="-286.5" font-family="Helvetica,sans-Serif" font-size="10.00">UsageEmailAsync</text>
</a>
</g>
</g>
<!-- Node2&#45;&gt;Node3 -->
<g id="edge2_Node000002_Node000003" class="edge">
<title>Node2&#45;&gt;Node3</title>
<g id="a_edge2_Node000002_Node000003"><a xlink:title=" ">
<path fill="none" stroke="#63b8ff" d="M501.26,-212.22C523.72,-229.07 561.14,-255.14 597,-271 600.95,-272.75 605.06,-274.4 609.24,-275.95"/>
<polygon fill="#63b8ff" stroke="#63b8ff" points="607.74,-279.14 618.34,-279.12 610.04,-272.53 607.74,-279.14"/>
</a>
</g>
</g>
<!-- Node4 -->
<g id="Node000004" class="node">
<title>Node4</title>
<g id="a_Node000004"><a xlink:href="class_w_p_r_1_1_utils_1_1_domain_email_checker.html#af6430abcc6b17909ff568158e9e05172" target="_top" xlink:title=" ">
<polygon fill="white" stroke="#666666" points="773.88,-262 609.38,-262 609.38,-230 773.88,-230 773.88,-262"/>
<text text-anchor="start" x="617.38" y="-248.5" font-family="Helvetica,sans-Serif" font-size="10.00">WPR.Utils.DomainEmailChecker.</text>
<text text-anchor="middle" x="691.62" y="-236.5" font-family="Helvetica,sans-Serif" font-size="10.00">DomainExists</text>
</a>
</g>
</g>
<!-- Node2&#45;&gt;Node4 -->
<g id="edge3_Node000002_Node000004" class="edge">
<title>Node2&#45;&gt;Node4</title>
<g id="a_edge3_Node000002_Node000004"><a xlink:title=" ">
<path fill="none" stroke="#63b8ff" d="M549.59,-212.44C569.07,-217.08 590.43,-222.16 610.49,-226.93"/>
<polygon fill="#63b8ff" stroke="#63b8ff" points="609.48,-230.29 620.02,-229.2 611.1,-223.48 609.48,-230.29"/>
</a>
</g>
</g>
<!-- Node5 -->
<g id="Node000005" class="node">
<title>Node5</title>
<g id="a_Node000005"><a xlink:href="class_w_p_r_1_1_utils_1_1_birthday_checker.html#a4c7d3943364075179b3f1ca2e0f05c46" target="_top" xlink:title="Check om te kijken of het een correcte verjaardag is Leeftijd mag niet onder de 18 zijn en niet boven...">
<polygon fill="white" stroke="#666666" points="762.62,-212 620.62,-212 620.62,-180 762.62,-180 762.62,-212"/>
<text text-anchor="start" x="628.62" y="-198.5" font-family="Helvetica,sans-Serif" font-size="10.00">WPR.Utils.BirthdayChecker.</text>
<text text-anchor="middle" x="691.62" y="-186.5" font-family="Helvetica,sans-Serif" font-size="10.00">IsValidBirthday</text>
</a>
</g>
</g>
<!-- Node2&#45;&gt;Node5 -->
<g id="edge4_Node000002_Node000005" class="edge">
<title>Node2&#45;&gt;Node5</title>
<g id="a_edge4_Node000002_Node000005"><a xlink:title=" ">
<path fill="none" stroke="#63b8ff" d="M561.44,-196C577.07,-196 593.45,-196 609.1,-196"/>
<polygon fill="#63b8ff" stroke="#63b8ff" points="608.83,-199.5 618.83,-196 608.83,-192.5 608.83,-199.5"/>
</a>
</g>
</g>
<!-- Node6 -->
<g id="Node000006" class="node">
<title>Node6</title>
<g id="a_Node000006"><a xlink:href="class_w_p_r_1_1_utils_1_1_email_checker.html#ab97bf7cde61a138766de208bad9d5c7c" target="_top" xlink:title=" ">
<polygon fill="white" stroke="#666666" points="761.12,-162 622.12,-162 622.12,-130 761.12,-130 761.12,-162"/>
<text text-anchor="start" x="630.12" y="-148.5" font-family="Helvetica,sans-Serif" font-size="10.00">WPR.Utils.EmailChecker.Is</text>
<text text-anchor="middle" x="691.62" y="-136.5" font-family="Helvetica,sans-Serif" font-size="10.00">ValidEmail</text>
</a>
</g>
</g>
<!-- Node2&#45;&gt;Node6 -->
<g id="edge5_Node000002_Node000006" class="edge">
<title>Node2&#45;&gt;Node6</title>
<g id="a_edge5_Node000002_Node000006"><a xlink:title=" ">
<path fill="none" stroke="#63b8ff" d="M549.59,-179.56C569.17,-174.9 590.65,-169.79 610.81,-164.99"/>
<polygon fill="#63b8ff" stroke="#63b8ff" points="611.46,-168.44 620.38,-162.72 609.84,-161.63 611.46,-168.44"/>
</a>
</g>
</g>
<!-- Node7 -->
<g id="Node000007" class="node">
<title>Node7</title>
<g id="a_Node000007"><a xlink:href="class_w_p_r_1_1_utils_1_1_password_checker.html#a3874adc7b516a8fb893ed18cd0a29a94" target="_top" xlink:title=" ">
<polygon fill="white" stroke="#666666" points="766.38,-112 616.88,-112 616.88,-80 766.38,-80 766.38,-112"/>
<text text-anchor="start" x="624.88" y="-98.5" font-family="Helvetica,sans-Serif" font-size="10.00">WPR.Utils.PasswordChecker.</text>
<text text-anchor="middle" x="691.62" y="-86.5" font-family="Helvetica,sans-Serif" font-size="10.00">IsValidPassword</text>
</a>
</g>
</g>
<!-- Node2&#45;&gt;Node7 -->
<g id="edge6_Node000002_Node000007" class="edge">
<title>Node2&#45;&gt;Node7</title>
<g id="a_edge6_Node000002_Node000007"><a xlink:title=" ">
<path fill="none" stroke="#63b8ff" d="M501.26,-179.78C523.72,-162.93 561.14,-136.86 597,-121 600.95,-119.25 605.06,-117.6 609.24,-116.05"/>
<polygon fill="#63b8ff" stroke="#63b8ff" points="610.04,-119.47 618.34,-112.88 607.74,-112.86 610.04,-119.47"/>
</a>
</g>
</g>
<!-- Node8 -->
<g id="Node000008" class="node">
<title>Node8</title>
<g id="a_Node000008"><a xlink:href="class_w_p_r_1_1_utils_1_1_tel_checker.html#aa8036be39d90b4bd0482cc25b9bbfc5a" target="_top" xlink:title=" ">
<polygon fill="white" stroke="#666666" points="765.62,-362 617.62,-362 617.62,-330 765.62,-330 765.62,-362"/>
<text text-anchor="start" x="625.62" y="-348.5" font-family="Helvetica,sans-Serif" font-size="10.00">WPR.Utils.TelChecker.IsValid</text>
<text text-anchor="middle" x="691.62" y="-336.5" font-family="Helvetica,sans-Serif" font-size="10.00">PhoneNumber</text>
</a>
</g>
</g>
<!-- Node2&#45;&gt;Node8 -->
<g id="edge7_Node000002_Node000008" class="edge">
<title>Node2&#45;&gt;Node8</title>
<g id="a_edge7_Node000002_Node000008"><a xlink:title=" ">
<path fill="none" stroke="#63b8ff" d="M490.96,-212.12C509.2,-238.91 549.44,-292.44 597,-321 600.17,-322.91 603.49,-324.67 606.91,-326.3"/>
<polygon fill="#63b8ff" stroke="#63b8ff" points="605.44,-329.48 616.01,-330.2 608.2,-323.04 605.44,-329.48"/>
</a>
</g>
</g>
<!-- Node2&#45;&gt;Node9 -->
<g id="edge8_Node000002_Node000009" class="edge">
<title>Node2&#45;&gt;Node9</title>
<g id="a_edge8_Node000002_Node000009"><a xlink:title=" ">
<path fill="none" stroke="#63b8ff" d="M493.84,-212.29C510.49,-232.98 539.4,-270.07 561,-304 579.15,-332.52 570.49,-350.03 597,-371 598.15,-371.91 599.33,-372.79 600.54,-373.63"/>
<polygon fill="#63b8ff" stroke="#63b8ff" points="598.6,-376.55 608.97,-378.73 602.22,-370.56 598.6,-376.55"/>
</a>
</g>
</g>
<!-- Node2&#45;&gt;Node10 -->
<g id="edge10_Node000002_Node000010" class="edge">
<title>Node2&#45;&gt;Node10</title>
<g id="a_edge10_Node000002_Node000010"><a xlink:title=" ">
<path fill="none" stroke="#63b8ff" d="M499.65,-179.69C516.57,-164.88 541.52,-142.03 561,-120 578.9,-99.75 576.5,-88.61 597,-71 606.27,-63.04 617.05,-55.9 627.94,-49.7"/>
<polygon fill="#63b8ff" stroke="#63b8ff" points="629.48,-52.85 636.59,-45 626.13,-46.7 629.48,-52.85"/>
</a>
</g>
</g>
<!-- Node9&#45;&gt;Node9 -->
<g id="edge9_Node000009_Node000009" class="edge">
<title>Node9&#45;&gt;Node9</title>
<g id="a_edge9_Node000009_Node000009"><a xlink:title=" ">
<path fill="none" stroke="#63b8ff" d="M653.75,-412.44C646.69,-421.58 659.31,-430 691.62,-430 709.55,-430 721.42,-427.41 727.22,-423.54"/>
<polygon fill="#63b8ff" stroke="#63b8ff" points="730.62,-424.42 729.19,-413.93 723.76,-423.02 730.62,-424.42"/>
</a>
</g>
</g>
<!-- Node10&#45;&gt;Node10 -->
<g id="edge11_Node000010_Node000010" class="edge">
<title>Node10&#45;&gt;Node10</title>
<g id="a_edge11_Node000010_Node000010"><a xlink:title=" ">
<path fill="none" stroke="#63b8ff" d="M652.33,-44.21C649.11,-53.8 662.21,-62 691.62,-62 709.09,-62 720.8,-59.11 726.77,-54.75"/>
<polygon fill="#63b8ff" stroke="#63b8ff" points="729.95,-56.21 730.37,-45.62 723.44,-53.64 729.95,-56.21"/>
</a>
</g>
</g>
<!-- Node11&#45;&gt;Node2 -->
<g id="edge13_Node000011_Node000002" class="edge">
<title>Node11&#45;&gt;Node2</title>
<g id="a_edge13_Node000011_Node000002"><a xlink:title=" ">
<path fill="none" stroke="#63b8ff" d="M355.14,-168.45C367.65,-171.24 380.73,-174.16 393.5,-177.02"/>
<polygon fill="#63b8ff" stroke="#63b8ff" points="392.63,-180.41 403.15,-179.17 394.15,-173.57 392.63,-180.41"/>
</a>
</g>
</g>
<!-- Node11&#45;&gt;Node10 -->
<g id="edge14_Node000011_Node000010" class="edge">
<title>Node11&#45;&gt;Node10</title>
<g id="a_edge14_Node000011_Node000010"><a xlink:title=" ">
<path fill="none" stroke="#63b8ff" d="M357.8,-135.53C414.55,-122.45 493.5,-102.49 561,-79 585.45,-70.49 611.73,-59.34 634.18,-49.15"/>
<polygon fill="#63b8ff" stroke="#63b8ff" points="635.54,-52.38 643.17,-45.03 632.62,-46.02 635.54,-52.38"/>
</a>
</g>
</g>
</g>
</svg>
