<?xml version="1.0" encoding="UTF-8" standalone="no"?>
<!DOCTYPE svg PUBLIC "-//W3C//DTD SVG 1.1//EN"
 "http://www.w3.org/Graphics/SVG/1.1/DTD/svg11.dtd">
<!-- Generated by graphviz version 12.2.1 (20241206.2353)
 -->
<!-- Title: D:/codes/WPR8/WPR/backend/src Pages: 1 -->
<!--zoomable 96 -->

<svg id="main" version="1.1" xmlns="http://www.w3.org/2000/svg" xmlns:xlink="http://www.w3.org/1999/xlink" xml:space="preserve" onload="init(evt)">

<style type="text/css"><![CDATA[
.node, .edge {opacity: 0.7;}
.node.selected, .edge.selected {opacity: 1;}
.edge:hover path { stroke: red; }
.edge:hover polygon { stroke: red; fill: red; }
]]></style>

<defs>
  <circle id="rim" cx="0" cy="0" r="7"/>
  <circle id="rim2" cx="0" cy="0" r="3.5"/>
  <g id="zoomPlus">
    <use xlink:href="#rim" fill="#404040"><set attributeName="fill" to="#808080" begin="zoomplus.mouseover" end="zoomplus.mouseout"/></use>
    <path d="M-4,0h8M0,-4v8" fill="none" stroke="white" stroke-width="1.5" pointer-events="none"/>
  </g>
  <g id="zoomMin">
    <use xlink:href="#rim" fill="#404040"><set attributeName="fill" to="#808080" begin="zoomminus.mouseover" end="zoomminus.mouseout"/></use>
    <path d="M-4,0h8" fill="none" stroke="white" stroke-width="1.5" pointer-events="none"/>
  </g>
  <g id="arrowUp" transform="translate(30 24)">
    <use xlink:href="#rim"/>
    <path pointer-events="none" fill="none" stroke="white" stroke-width="1.5" d="M0,-3.0v7 M-2.5,-0.5L0,-3.0L2.5,-0.5"/>
  </g>
  <g id="arrowRight" transform="rotate(90) translate(36 -43)">
    <use xlink:href="#rim"/>
    <path pointer-events="none" fill="none" stroke="white" stroke-width="1.5" d="M0,-3.0v7 M-2.5,-0.5L0,-3.0L2.5,-0.5"/>
  </g>
  <g id="arrowDown" transform="rotate(180) translate(-30 -48)">
    <use xlink:href="#rim"/>
    <path pointer-events="none" fill="none" stroke="white" stroke-width="1.5" d="M0,-3.0v7 M-2.5,-0.5L0,-3.0L2.5,-0.5"/>
  </g>
  <g id="arrowLeft" transform="rotate(270) translate(-36 17)">
    <use xlink:href="#rim"/>
    <path pointer-events="none" fill="none" stroke="white" stroke-width="1.5" d="M0,-3.0v7 M-2.5,-0.5L0,-3.0L2.5,-0.5"/>
  </g>
  <g id="resetDef">
    <use xlink:href="#rim2" fill="#404040"><set attributeName="fill" to="#808080" begin="reset.mouseover" end="reset.mouseout"/></use>
  </g>
</defs>
<script type="application/ecmascript">
var viewWidth = 711;
var viewHeight = 96;
var sectionId = 'dynsection-0';
</script>
<script type="application/ecmascript" xlink:href="svg.min.js"/>
<svg id="graph" class="graph">
<g id="viewport">
<title>D:/codes/WPR8/WPR/backend/src</title>
<g id="clust1" class="cluster">
<title>clusterdir_8c739bbef76d64b22d6b0911c526dd76</title>
<g id="a_clust1"><a xlink:href="dir_8c739bbef76d64b22d6b0911c526dd76.html" target="_top" xlink:title="backend">
<polygon fill="#edf0f7" stroke="#404040" stroke-dasharray="5,2" points="8,-8 8,-80 695,-80 695,-8 8,-8"/>
<text text-anchor="middle" x="351.5" y="-66.5" font-family="Helvetica,sans-Serif" font-size="10.00">backend</text>
</a>
</g>
</g>
<g id="clust2" class="cluster">
<title>clusterdir_27747142951285b09bacafa002e92b5f</title>
<g id="a_clust2"><a xlink:href="dir_27747142951285b09bacafa002e92b5f.html" target="_top">
<polygon fill="#edf0f7" stroke="#404040" stroke-width="2" points="16,-16 16,-52 687,-52 687,-16 16,-16"/>
</a>
</g>
</g>
<!-- dir_27747142951285b09bacafa002e92b5f -->
<g id="node1" class="node">
<title>dir_27747142951285b09bacafa002e92b5f</title>
<text text-anchor="middle" x="39" y="-30.5" font-family="Helvetica,sans-Serif" font-size="10.00">src</text>
</g>
<!-- dir_7b22d8514dd298645fb658ef1b4d327f -->
<g id="node2" class="node">
<title>dir_7b22d8514dd298645fb658ef1b4d327f</title>
<g id="a_node2"><a xlink:href="dir_7b22d8514dd298645fb658ef1b4d327f.html" target="_top" xlink:title="Controllers">
<polygon fill="#a2b4d6" stroke="#404040" points="134.62,-44 71.38,-44 71.38,-24 134.62,-24 134.62,-44"/>
<text text-anchor="middle" x="103" y="-30.5" font-family="Helvetica,sans-Serif" font-size="10.00">Controllers</text>
</a>
</g>
</g>
<!-- dir_f434cc2c59aaf560e6947e612eed6355 -->
<g id="node3" class="node">
<title>dir_f434cc2c59aaf560e6947e612eed6355</title>
<g id="a_node3"><a xlink:href="dir_f434cc2c59aaf560e6947e612eed6355.html" target="_top" xlink:title="Cryption">
<polygon fill="#a2b4d6" stroke="#404040" points="205.38,-44 152.62,-44 152.62,-24 205.38,-24 205.38,-44"/>
<text text-anchor="middle" x="179" y="-30.5" font-family="Helvetica,sans-Serif" font-size="10.00">Cryption</text>
</a>
</g>
</g>
<!-- dir_67e2cab63b7ed6d6a10197c066b781fd -->
<g id="node4" class="node">
<title>dir_67e2cab63b7ed6d6a10197c066b781fd</title>
<g id="a_node4"><a xlink:href="dir_67e2cab63b7ed6d6a10197c066b781fd.html" target="_top" xlink:title="Data">
<polygon fill="#a2b4d6" stroke="#404040" points="260.5,-44 223.5,-44 223.5,-24 260.5,-24 260.5,-44"/>
<text text-anchor="middle" x="242" y="-30.5" font-family="Helvetica,sans-Serif" font-size="10.00">Data</text>
</a>
</g>
</g>
<!-- dir_803277e92acbc2f7be7be0c204f6c67c -->
<g id="node5" class="node">
<title>dir_803277e92acbc2f7be7be0c204f6c67c</title>
<g id="a_node5"><a xlink:href="dir_803277e92acbc2f7be7be0c204f6c67c.html" target="_top" xlink:title="Database">
<polygon fill="#a2b4d6" stroke="#404040" points="337,-44 279,-44 279,-24 337,-24 337,-44"/>
<text text-anchor="middle" x="308" y="-30.5" font-family="Helvetica,sans-Serif" font-size="10.00">Database</text>
</a>
</g>
</g>
<!-- dir_b821af35f8bdb5f39537c5555971802e -->
<g id="node6" class="node">
<title>dir_b821af35f8bdb5f39537c5555971802e</title>
<g id="a_node6"><a xlink:href="dir_b821af35f8bdb5f39537c5555971802e.html" target="_top" xlink:title="Emails">
<polygon fill="#a2b4d6" stroke="#404040" points="401,-44 355,-44 355,-24 401,-24 401,-44"/>
<text text-anchor="middle" x="378" y="-30.5" font-family="Helvetica,sans-Serif" font-size="10.00">Emails</text>
</a>
</g>
</g>
<!-- dir_8e7dc513fd69ae58f4a00b45f8a862b4 -->
<g id="node7" class="node">
<title>dir_8e7dc513fd69ae58f4a00b45f8a862b4</title>
<g id="a_node7"><a xlink:href="dir_8e7dc513fd69ae58f4a00b45f8a862b4.html" target="_top" xlink:title="Hashing">
<polygon fill="#a2b4d6" stroke="#404040" points="471,-44 419,-44 419,-24 471,-24 471,-44"/>
<text text-anchor="middle" x="445" y="-30.5" font-family="Helvetica,sans-Serif" font-size="10.00">Hashing</text>
</a>
</g>
</g>
<!-- dir_c85214adbf4a673a3db298adc78bd144 -->
<g id="node8" class="node">
<title>dir_c85214adbf4a673a3db298adc78bd144</title>
<g id="a_node8"><a xlink:href="dir_c85214adbf4a673a3db298adc78bd144.html" target="_top" xlink:title="Repository">
<polygon fill="#a2b4d6" stroke="#404040" points="552.62,-44 489.38,-44 489.38,-24 552.62,-24 552.62,-44"/>
<text text-anchor="middle" x="521" y="-30.5" font-family="Helvetica,sans-Serif" font-size="10.00">Repository</text>
</a>
</g>
</g>
<!-- dir_29a3eedeb041928a78383e6ae2cabb2f -->
<g id="node9" class="node">
<title>dir_29a3eedeb041928a78383e6ae2cabb2f</title>
<g id="a_node9"><a xlink:href="dir_29a3eedeb041928a78383e6ae2cabb2f.html" target="_top" xlink:title="Services">
<polygon fill="#a2b4d6" stroke="#404040" points="625.12,-44 570.88,-44 570.88,-24 625.12,-24 625.12,-44"/>
<text text-anchor="middle" x="598" y="-30.5" font-family="Helvetica,sans-Serif" font-size="10.00">Services</text>
</a>
</g>
</g>
<!-- dir_d0b7815a8386f657006cf0596011592c -->
<g id="node10" class="node">
<title>dir_d0b7815a8386f657006cf0596011592c</title>
<g id="a_node10"><a xlink:href="dir_d0b7815a8386f657006cf0596011592c.html" target="_top" xlink:title="Utils">
<polygon fill="#a2b4d6" stroke="#404040" points="679.12,-44 642.88,-44 642.88,-24 679.12,-24 679.12,-44"/>
<text text-anchor="middle" x="661" y="-30.5" font-family="Helvetica,sans-Serif" font-size="10.00">Utils</text>
</a>
</g>
</g>
</g>
</svg>

<g id="navigator" transform="translate(0 0)" fill="#404254">
  <rect fill="#f2f5e9" fill-opacity="0.5" stroke="#606060" stroke-width=".5" x="0" y="0" width="60" height="60"/>
  <use id="zoomplus" xlink:href="#zoomPlus" x="17" y="9" onmousedown="handleZoom(evt,'in')"/>
  <use id="zoomminus" xlink:href="#zoomMin" x="42" y="9" onmousedown="handleZoom(evt,'out')"/>
  <use id="reset" xlink:href="#resetDef" x="30" y="36" onmousedown="handleReset()"/>
   <use id="arrowup" xlink:href="#arrowUp" x="0" y="0" onmousedown="handlePan(0,-1)"/>
  <use id="arrowright" xlink:href="#arrowRight" x="0" y="0" onmousedown="handlePan(1,0)"/>
  <use id="arrowdown" xlink:href="#arrowDown" x="0" y="0" onmousedown="handlePan(0,1)"/>
  <use id="arrowleft" xlink:href="#arrowLeft" x="0" y="0" onmousedown="handlePan(-1,0)"/>
</g>
<svg viewBox="0 0 15 15" width="100%" height="30px" preserveAspectRatio="xMaxYMin meet">
 <g id="arrow_out" transform="scale(0.3 0.3)">
  <a xlink:href="dir_27747142951285b09bacafa002e92b5f_dep_org.svg" target="_base">
   <rect id="button" ry="5" rx="5" y="6" x="6" height="38" width="38"
        fill="#f2f5e9" fill-opacity="0.5" stroke="#606060" stroke-width="1.0"/>
   <path id="arrow"
     d="M 11.500037,31.436501 C 11.940474,20.09759 22.043105,11.32322 32.158766,21.979434 L 37.068811,17.246167 C 37.068811,17.246167 37.088388,32 37.088388,32 L 22.160133,31.978069 C 22.160133,31.978069 26.997745,27.140456 26.997745,27.140456 C 18.528582,18.264221 13.291696,25.230495 11.500037,31.436501 z"
     style="fill:#404040;"/>
  </a>
 </g>
</svg>

<style type='text/css'>
<![CDATA[
[data-mouse-over-selected='false'] { opacity: 0.7; }
[data-mouse-over-selected='true']  { opacity: 1.0; }
]]>
</style>
<script type="application/ecmascript"><![CDATA[
document.addEventListener('DOMContentLoaded', (event) => {
  highlightEdges();
  highlightAdjacentNodes();
});
]]></script>
</svg>
