<?xml version="1.0" encoding="UTF-8" standalone="no"?>
<!DOCTYPE svg PUBLIC "-//W3C//DTD SVG 1.1//EN"
 "http://www.w3.org/Graphics/SVG/1.1/DTD/svg11.dtd">
<!-- Generated by graphviz version 12.2.1 (20241206.2353)
 -->
<!-- Title: D:/codes/WPR8/WPR/backend/src/Controllers/Employee Pages: 1 -->
<!--zoomable 96 -->

<svg id="main" version="1.1" xmlns="http://www.w3.org/2000/svg" xmlns:xlink="http://www.w3.org/1999/xlink" xml:space="preserve" onload="init(evt)">

<style type="text/css"><![CDATA[
.node, .edge {opacity: 0.7;}
.node.selected, .edge.selected {opacity: 1;}
.edge:hover path { stroke: red; }
.edge:hover polygon { stroke: red; fill: red; }
]]></style>

<defs>
  <circle id="rim" cx="0" cy="0" r="7"/>
  <circle id="rim2" cx="0" cy="0" r="3.5"/>
  <g id="zoomPlus">
    <use xlink:href="#rim" fill="#404040"><set attributeName="fill" to="#808080" begin="zoomplus.mouseover" end="zoomplus.mouseout"/></use>
    <path d="M-4,0h8M0,-4v8" fill="none" stroke="white" stroke-width="1.5" pointer-events="none"/>
  </g>
  <g id="zoomMin">
    <use xlink:href="#rim" fill="#404040"><set attributeName="fill" to="#808080" begin="zoomminus.mouseover" end="zoomminus.mouseout"/></use>
    <path d="M-4,0h8" fill="none" stroke="white" stroke-width="1.5" pointer-events="none"/>
  </g>
  <g id="arrowUp" transform="translate(30 24)">
    <use xlink:href="#rim"/>
    <path pointer-events="none" fill="none" stroke="white" stroke-width="1.5" d="M0,-3.0v7 M-2.5,-0.5L0,-3.0L2.5,-0.5"/>
  </g>
  <g id="arrowRight" transform="rotate(90) translate(36 -43)">
    <use xlink:href="#rim"/>
    <path pointer-events="none" fill="none" stroke="white" stroke-width="1.5" d="M0,-3.0v7 M-2.5,-0.5L0,-3.0L2.5,-0.5"/>
  </g>
  <g id="arrowDown" transform="rotate(180) translate(-30 -48)">
    <use xlink:href="#rim"/>
    <path pointer-events="none" fill="none" stroke="white" stroke-width="1.5" d="M0,-3.0v7 M-2.5,-0.5L0,-3.0L2.5,-0.5"/>
  </g>
  <g id="arrowLeft" transform="rotate(270) translate(-36 17)">
    <use xlink:href="#rim"/>
    <path pointer-events="none" fill="none" stroke="white" stroke-width="1.5" d="M0,-3.0v7 M-2.5,-0.5L0,-3.0L2.5,-0.5"/>
  </g>
  <g id="resetDef">
    <use xlink:href="#rim2" fill="#404040"><set attributeName="fill" to="#808080" begin="reset.mouseover" end="reset.mouseout"/></use>
  </g>
</defs>
<script type="application/ecmascript">
var viewWidth = 530;
var viewHeight = 96;
var sectionId = 'dynsection-0';
</script>
<script type="application/ecmascript" xlink:href="svg.min.js"/>
<svg id="graph" class="graph">
<g id="viewport">
<title>D:/codes/WPR8/WPR/backend/src/Controllers/Employee</title>
<g id="clust1" class="cluster">
<title>clusterdir_7b22d8514dd298645fb658ef1b4d327f</title>
<g id="a_clust1"><a xlink:href="dir_7b22d8514dd298645fb658ef1b4d327f.html" target="_top" xlink:title="Controllers">
<polygon fill="#edf0f7" stroke="#7f7f7f" stroke-dasharray="5,2" points="8,-8 8,-80 514,-80 514,-8 8,-8"/>
<text text-anchor="middle" x="261" y="-66.5" font-family="Helvetica,sans-Serif" font-size="10.00">Controllers</text>
</a>
</g>
</g>
<g id="clust2" class="cluster">
<title>clusterdir_4f41260ebe8ea907b28d3c8ad547e46e</title>
<g id="a_clust2"><a xlink:href="dir_4f41260ebe8ea907b28d3c8ad547e46e.html" target="_top">
<polygon fill="#edf0f7" stroke="#404040" stroke-width="2" points="16,-16 16,-52 506,-52 506,-16 16,-16"/>
</a>
</g>
</g>
<!-- dir_4f41260ebe8ea907b28d3c8ad547e46e -->
<g id="node1" class="node">
<title>dir_4f41260ebe8ea907b28d3c8ad547e46e</title>
<text text-anchor="middle" x="54" y="-30.5" font-family="Helvetica,sans-Serif" font-size="10.00">Employee</text>
</g>
<!-- dir_e22e0e0aec0ad5e803a6d0016768f317 -->
<g id="node2" class="node">
<title>dir_e22e0e0aec0ad5e803a6d0016768f317</title>
<g id="a_node2"><a xlink:href="dir_e22e0e0aec0ad5e803a6d0016768f317.html" target="_top" xlink:title="backOffice">
<polygon fill="#a2b4d6" stroke="#404040" points="164.25,-44 101.75,-44 101.75,-24 164.25,-24 164.25,-44"/>
<text text-anchor="middle" x="133" y="-30.5" font-family="Helvetica,sans-Serif" font-size="10.00">backOffice</text>
</a>
</g>
</g>
<!-- dir_a77007039693032b892090acc94c66bc -->
<g id="node3" class="node">
<title>dir_a77007039693032b892090acc94c66bc</title>
<g id="a_node3"><a xlink:href="dir_a77007039693032b892090acc94c66bc.html" target="_top" xlink:title="frontOffice">
<polygon fill="#a2b4d6" stroke="#404040" points="243.5,-44 182.5,-44 182.5,-24 243.5,-24 243.5,-44"/>
<text text-anchor="middle" x="213" y="-30.5" font-family="Helvetica,sans-Serif" font-size="10.00">frontOffice</text>
</a>
</g>
</g>
<!-- dir_b65b12de9f28588c47b5a1d69bd8a34b -->
<g id="node4" class="node">
<title>dir_b65b12de9f28588c47b5a1d69bd8a34b</title>
<g id="a_node4"><a xlink:href="dir_b65b12de9f28588c47b5a1d69bd8a34b.html" target="_top" xlink:title="shared">
<polygon fill="#a2b4d6" stroke="#404040" points="306.62,-44 261.38,-44 261.38,-24 306.62,-24 306.62,-44"/>
<text text-anchor="middle" x="284" y="-30.5" font-family="Helvetica,sans-Serif" font-size="10.00">shared</text>
</a>
</g>
</g>
<!-- dir_559274ad4613b0c45f4cb751cf1705bd -->
<g id="node5" class="node">
<title>dir_559274ad4613b0c45f4cb751cf1705bd</title>
<g id="a_node5"><a xlink:href="dir_559274ad4613b0c45f4cb751cf1705bd.html" target="_top" xlink:title="validateUser">
<polygon fill="#a2b4d6" stroke="#404040" points="395.38,-44 324.62,-44 324.62,-24 395.38,-24 395.38,-44"/>
<text text-anchor="middle" x="360" y="-30.5" font-family="Helvetica,sans-Serif" font-size="10.00">validateUser</text>
</a>
</g>
</g>
<!-- dir_c26813eed18cfcaf516c023a4fc8e399 -->
<g id="node6" class="node">
<title>dir_c26813eed18cfcaf516c023a4fc8e399</title>
<g id="a_node6"><a xlink:href="dir_c26813eed18cfcaf516c023a4fc8e399.html" target="_top" xlink:title="vehicleManager">
<polygon fill="#a2b4d6" stroke="#404040" points="498.12,-44 413.88,-44 413.88,-24 498.12,-24 498.12,-44"/>
<text text-anchor="middle" x="456" y="-30.5" font-family="Helvetica,sans-Serif" font-size="10.00">vehicleManager</text>
</a>
</g>
</g>
</g>
</svg>

<g id="navigator" transform="translate(0 0)" fill="#404254">
  <rect fill="#f2f5e9" fill-opacity="0.5" stroke="#606060" stroke-width=".5" x="0" y="0" width="60" height="60"/>
  <use id="zoomplus" xlink:href="#zoomPlus" x="17" y="9" onmousedown="handleZoom(evt,'in')"/>
  <use id="zoomminus" xlink:href="#zoomMin" x="42" y="9" onmousedown="handleZoom(evt,'out')"/>
  <use id="reset" xlink:href="#resetDef" x="30" y="36" onmousedown="handleReset()"/>
   <use id="arrowup" xlink:href="#arrowUp" x="0" y="0" onmousedown="handlePan(0,-1)"/>
  <use id="arrowright" xlink:href="#arrowRight" x="0" y="0" onmousedown="handlePan(1,0)"/>
  <use id="arrowdown" xlink:href="#arrowDown" x="0" y="0" onmousedown="handlePan(0,1)"/>
  <use id="arrowleft" xlink:href="#arrowLeft" x="0" y="0" onmousedown="handlePan(-1,0)"/>
</g>
<svg viewBox="0 0 15 15" width="100%" height="30px" preserveAspectRatio="xMaxYMin meet">
 <g id="arrow_out" transform="scale(0.3 0.3)">
  <a xlink:href="dir_4f41260ebe8ea907b28d3c8ad547e46e_dep_org.svg" target="_base">
   <rect id="button" ry="5" rx="5" y="6" x="6" height="38" width="38"
        fill="#f2f5e9" fill-opacity="0.5" stroke="#606060" stroke-width="1.0"/>
   <path id="arrow"
     d="M 11.500037,31.436501 C 11.940474,20.09759 22.043105,11.32322 32.158766,21.979434 L 37.068811,17.246167 C 37.068811,17.246167 37.088388,32 37.088388,32 L 22.160133,31.978069 C 22.160133,31.978069 26.997745,27.140456 26.997745,27.140456 C 18.528582,18.264221 13.291696,25.230495 11.500037,31.436501 z"
     style="fill:#404040;"/>
  </a>
 </g>
</svg>

<style type='text/css'>
<![CDATA[
[data-mouse-over-selected='false'] { opacity: 0.7; }
[data-mouse-over-selected='true']  { opacity: 1.0; }
]]>
</style>
<script type="application/ecmascript"><![CDATA[
document.addEventListener('DOMContentLoaded', (event) => {
  highlightEdges();
  highlightAdjacentNodes();
});
]]></script>
</svg>
