<?xml version="1.0" encoding="UTF-8" standalone="no"?>
<!DOCTYPE svg PUBLIC "-//W3C//DTD SVG 1.1//EN"
 "http://www.w3.org/Graphics/SVG/1.1/DTD/svg11.dtd">
<!-- Generated by graphviz version 12.2.1 (20241206.2353)
 -->
<!-- Title: Grafische Klasse Hiërarchie Pages: 1 -->
<svg width="326pt" height="936pt"
 viewBox="0.00 0.00 325.75 936.00" xmlns="http://www.w3.org/2000/svg" xmlns:xlink="http://www.w3.org/1999/xlink">
<g id="graph0" class="graph" transform="scale(1 1) rotate(0) translate(4 932)">
<title>Grafische Klasse Hiërarchie</title>
<!-- Node0 -->
<g id="Node000000" class="node">
<title>Node0</title>
<g id="a_Node000000"><a xlink:title=" ">
<polygon fill="#e0e0e0" stroke="#999999" points="80.5,-456 0,-456 0,-436 80.5,-436 80.5,-456"/>
<text text-anchor="middle" x="40.25" y="-442.5" font-family="Helvetica,sans-Serif" font-size="10.00">ControllerBase</text>
</a>
</g>
</g>
<!-- Node1 -->
<g id="Node000001" class="node">
<title>Node1</title>
<g id="a_Node000001"><a xlink:href="class_w_p_r_1_1_controllers_1_1_customer_1_1_add_business_1_1_add_business_controller.html" target="_top" xlink:title="Controller voor het verbinden van het aanmaken van bedrijven op basis van het KVK nummer.">
<polygon fill="white" stroke="#666666" points="305.38,-928 128.88,-928 128.88,-896 305.38,-896 305.38,-928"/>
<text text-anchor="start" x="136.88" y="-914.5" font-family="Helvetica,sans-Serif" font-size="10.00">WPR.Controllers.Customer.</text>
<text text-anchor="middle" x="217.12" y="-902.5" font-family="Helvetica,sans-Serif" font-size="10.00">AddBusiness.AddBusinessController</text>
</a>
</g>
</g>
<!-- Node0&#45;&gt;Node1 -->
<g id="edge2_Node000000_Node000001" class="edge">
<title>Node0&#45;&gt;Node1</title>
<g id="a_edge2_Node000000_Node000001"><a xlink:title=" ">
<path fill="none" stroke="#63b8ff" d="M41.92,-467.78C44.81,-547.89 58.89,-824.78 116.5,-887 120.13,-890.93 124.29,-894.27 128.78,-897.13"/>
<polygon fill="#63b8ff" stroke="#63b8ff" points="45.42,-467.69 41.58,-457.81 38.42,-467.92 45.42,-467.69"/>
</a>
</g>
</g>
<!-- Node2 -->
<g id="Node000002" class="node">
<title>Node2</title>
<g id="a_Node000002"><a xlink:href="class_w_p_r_1_1_controllers_1_1_customer_1_1_change_user_settings_1_1_change_user_settings_controller.html" target="_top" xlink:title="ChangeUserSettingsController is de controller die aanvragen van buitenaf ontvangt en vervolgens gegev...">
<polygon fill="white" stroke="#666666" points="317.38,-878 116.88,-878 116.88,-834 317.38,-834 317.38,-878"/>
<text text-anchor="start" x="124.88" y="-864.5" font-family="Helvetica,sans-Serif" font-size="10.00">WPR.Controllers.Customer.</text>
<text text-anchor="start" x="124.88" y="-852.5" font-family="Helvetica,sans-Serif" font-size="10.00">ChangeUserSettings.ChangeUserSettings</text>
<text text-anchor="middle" x="217.12" y="-840.5" font-family="Helvetica,sans-Serif" font-size="10.00">Controller</text>
</a>
</g>
</g>
<!-- Node0&#45;&gt;Node2 -->
<g id="edge3_Node000000_Node000002" class="edge">
<title>Node0&#45;&gt;Node2</title>
<g id="a_edge3_Node000000_Node000002"><a xlink:title=" ">
<path fill="none" stroke="#63b8ff" d="M42.67,-467.36C47.87,-539.3 68.15,-771.25 116.5,-825 119.41,-828.23 122.65,-831.13 126.13,-833.73"/>
<polygon fill="#63b8ff" stroke="#63b8ff" points="46.19,-467.45 42,-457.72 39.2,-467.94 46.19,-467.45"/>
</a>
</g>
</g>
<!-- Node3 -->
<g id="Node000003" class="node">
<title>Node3</title>
<g id="a_Node000003"><a xlink:href="class_w_p_r_1_1_controllers_1_1_customer_1_1_rental_1_1_rental_controller.html" target="_top" xlink:title=" ">
<polygon fill="white" stroke="#666666" points="286.62,-816 147.62,-816 147.62,-784 286.62,-784 286.62,-816"/>
<text text-anchor="start" x="155.62" y="-802.5" font-family="Helvetica,sans-Serif" font-size="10.00">WPR.Controllers.Customer.</text>
<text text-anchor="middle" x="217.12" y="-790.5" font-family="Helvetica,sans-Serif" font-size="10.00">Rental.RentalController</text>
</a>
</g>
</g>
<!-- Node0&#45;&gt;Node3 -->
<g id="edge4_Node000000_Node000003" class="edge">
<title>Node0&#45;&gt;Node3</title>
<g id="a_edge4_Node000000_Node000003"><a xlink:title=" ">
<path fill="none" stroke="#63b8ff" d="M43.27,-467.56C49.88,-533.48 72.98,-730.55 116.5,-775 124.92,-783.6 135.83,-789.4 147.32,-793.29"/>
<polygon fill="#63b8ff" stroke="#63b8ff" points="46.77,-467.33 42.31,-457.72 39.8,-468.01 46.77,-467.33"/>
</a>
</g>
</g>
<!-- Node4 -->
<g id="Node000004" class="node">
<title>Node4</title>
<g id="a_Node000004"><a xlink:href="class_w_p_r_1_1_controllers_1_1_employee_1_1_back_office_1_1_add_vehicle_1_1_add_vehicle_controller.html" target="_top" xlink:title="AddVehicleController zorgt ervoor dat voertuigen toegevoegd kunnen worden aan de database.">
<polygon fill="white" stroke="#666666" points="300.88,-766 133.38,-766 133.38,-722 300.88,-722 300.88,-766"/>
<text text-anchor="start" x="141.38" y="-752.5" font-family="Helvetica,sans-Serif" font-size="10.00">WPR.Controllers.Employee.</text>
<text text-anchor="start" x="141.38" y="-740.5" font-family="Helvetica,sans-Serif" font-size="10.00">BackOffice.AddVehicle.AddVehicle</text>
<text text-anchor="middle" x="217.12" y="-728.5" font-family="Helvetica,sans-Serif" font-size="10.00">Controller</text>
</a>
</g>
</g>
<!-- Node0&#45;&gt;Node4 -->
<g id="edge5_Node000000_Node000004" class="edge">
<title>Node0&#45;&gt;Node4</title>
<g id="a_edge5_Node000000_Node000004"><a xlink:title=" ">
<path fill="none" stroke="#63b8ff" d="M40.83,-467.72C41.06,-518.02 48.82,-643.47 116.5,-713 121.3,-717.93 126.87,-722.08 132.88,-725.58"/>
<polygon fill="#63b8ff" stroke="#63b8ff" points="44.32,-467.92 40.89,-457.9 37.32,-467.87 44.32,-467.92"/>
</a>
</g>
</g>
<!-- Node5 -->
<g id="Node000005" class="node">
<title>Node5</title>
<g id="a_Node000005"><a xlink:href="class_w_p_r_1_1_controllers_1_1_employee_1_1_back_office_1_1sign_up_staff_1_1_sign_up_staff_controller.html" target="_top" xlink:title="SignUpStaffController zorgt ervoor dat er front&#45;, backoffice en wagenparkbeheerders toegevoegd kunnen...">
<polygon fill="white" stroke="#666666" points="303.88,-704 130.38,-704 130.38,-660 303.88,-660 303.88,-704"/>
<text text-anchor="start" x="138.38" y="-690.5" font-family="Helvetica,sans-Serif" font-size="10.00">WPR.Controllers.Employee.</text>
<text text-anchor="start" x="138.38" y="-678.5" font-family="Helvetica,sans-Serif" font-size="10.00">BackOffice.signUpStaff.SignUpStaff</text>
<text text-anchor="middle" x="217.12" y="-666.5" font-family="Helvetica,sans-Serif" font-size="10.00">Controller</text>
</a>
</g>
</g>
<!-- Node0&#45;&gt;Node5 -->
<g id="edge6_Node000000_Node000005" class="edge">
<title>Node0&#45;&gt;Node5</title>
<g id="a_edge6_Node000000_Node000005"><a xlink:title=" ">
<path fill="none" stroke="#63b8ff" d="M43.01,-467.64C47.55,-509.17 63.34,-600.44 116.5,-651 120.57,-654.87 125.11,-658.26 129.96,-661.22"/>
<polygon fill="#63b8ff" stroke="#63b8ff" points="46.5,-467.35 42.06,-457.73 39.53,-468.02 46.5,-467.35"/>
</a>
</g>
</g>
<!-- Node6 -->
<g id="Node000006" class="node">
<title>Node6</title>
<g id="a_Node000006"><a xlink:href="class_w_p_r_1_1_controllers_1_1_employee_1_1_employee_controller.html" target="_top" xlink:title="EmployeeController is de controller die ervoor zorgt dat er gekeken wordt of de ingelogde gebruiker e...">
<polygon fill="white" stroke="#666666" points="287,-642 147.25,-642 147.25,-610 287,-610 287,-642"/>
<text text-anchor="start" x="155.25" y="-628.5" font-family="Helvetica,sans-Serif" font-size="10.00">WPR.Controllers.Employee.</text>
<text text-anchor="middle" x="217.12" y="-616.5" font-family="Helvetica,sans-Serif" font-size="10.00">EmployeeController</text>
</a>
</g>
</g>
<!-- Node0&#45;&gt;Node6 -->
<g id="edge7_Node000000_Node000006" class="edge">
<title>Node0&#45;&gt;Node6</title>
<g id="a_edge7_Node000000_Node000006"><a xlink:title=" ">
<path fill="none" stroke="#63b8ff" d="M45.57,-467.41C53.5,-501.09 73.68,-566.21 116.5,-601 125.29,-608.14 135.85,-613.28 146.76,-616.96"/>
<polygon fill="#63b8ff" stroke="#63b8ff" points="48.99,-466.66 43.43,-457.64 42.15,-468.16 48.99,-466.66"/>
</a>
</g>
</g>
<!-- Node7 -->
<g id="Node000007" class="node">
<title>Node7</title>
<g id="a_Node000007"><a xlink:href="class_w_p_r_1_1_controllers_1_1_employee_1_1_front_office_1_1_add_intake_1_1_add_intake_controller.html" target="_top" xlink:title="AddIntakeController zorgt ervoor dat informatie over de inname van een voertuig toegevoegd kan worden...">
<polygon fill="white" stroke="#666666" points="296.38,-592 137.88,-592 137.88,-548 296.38,-548 296.38,-592"/>
<text text-anchor="start" x="145.88" y="-578.5" font-family="Helvetica,sans-Serif" font-size="10.00">WPR.Controllers.Employee.</text>
<text text-anchor="start" x="145.88" y="-566.5" font-family="Helvetica,sans-Serif" font-size="10.00">FrontOffice.AddIntake.AddIntake</text>
<text text-anchor="middle" x="217.12" y="-554.5" font-family="Helvetica,sans-Serif" font-size="10.00">Controller</text>
</a>
</g>
</g>
<!-- Node0&#45;&gt;Node7 -->
<g id="edge8_Node000000_Node000007" class="edge">
<title>Node0&#45;&gt;Node7</title>
<g id="a_edge8_Node000000_Node000007"><a xlink:title=" ">
<path fill="none" stroke="#63b8ff" d="M52.62,-466.18C65.5,-487.29 88.4,-519.94 116.5,-539 123.02,-543.42 130.2,-547.24 137.63,-550.53"/>
<polygon fill="#63b8ff" stroke="#63b8ff" points="55.68,-464.48 47.59,-457.64 49.64,-468.03 55.68,-464.48"/>
</a>
</g>
</g>
<!-- Node8 -->
<g id="Node000008" class="node">
<title>Node8</title>
<g id="a_Node000008"><a xlink:href="class_w_p_r_1_1_controllers_1_1_employee_1_1_shared_1_1accept_hire_request_1_1_accept_hire_request_controller.html" target="_top" xlink:title="AcceptHireRequestController zorgt ervoor dat alle huuraanvragen verzameld worden en bestempelt kunnen...">
<polygon fill="white" stroke="#666666" points="300.88,-530 133.38,-530 133.38,-486 300.88,-486 300.88,-530"/>
<text text-anchor="start" x="141.38" y="-516.5" font-family="Helvetica,sans-Serif" font-size="10.00">WPR.Controllers.Employee.</text>
<text text-anchor="start" x="141.38" y="-504.5" font-family="Helvetica,sans-Serif" font-size="10.00">Shared.acceptHireRequest.Accept</text>
<text text-anchor="middle" x="217.12" y="-492.5" font-family="Helvetica,sans-Serif" font-size="10.00">HireRequestController</text>
</a>
</g>
</g>
<!-- Node0&#45;&gt;Node8 -->
<g id="edge9_Node000000_Node000008" class="edge">
<title>Node0&#45;&gt;Node8</title>
<g id="a_edge9_Node000000_Node000008"><a xlink:title=" ">
<path fill="none" stroke="#63b8ff" d="M75.33,-460.79C88.14,-466.15 102.9,-472.09 116.5,-477 124.51,-479.89 132.93,-482.76 141.35,-485.53"/>
<polygon fill="#63b8ff" stroke="#63b8ff" points="77.07,-457.73 66.49,-457.05 74.34,-464.17 77.07,-457.73"/>
</a>
</g>
</g>
<!-- Node9 -->
<g id="Node000009" class="node">
<title>Node9</title>
<g id="a_Node000009"><a xlink:href="class_w_p_r_1_1_controllers_1_1_employee_1_1_shared_1_1view_rental_data_1_1view_rental_data_controller.html" target="_top" xlink:title=" ">
<polygon fill="white" stroke="#666666" points="302.75,-468 131.5,-468 131.5,-424 302.75,-424 302.75,-468"/>
<text text-anchor="start" x="139.5" y="-454.5" font-family="Helvetica,sans-Serif" font-size="10.00">WPR.Controllers.Employee.</text>
<text text-anchor="start" x="139.5" y="-442.5" font-family="Helvetica,sans-Serif" font-size="10.00">Shared.viewRentalData.viewRental</text>
<text text-anchor="middle" x="217.12" y="-430.5" font-family="Helvetica,sans-Serif" font-size="10.00">DataController</text>
</a>
</g>
</g>
<!-- Node0&#45;&gt;Node9 -->
<g id="edge10_Node000000_Node000009" class="edge">
<title>Node0&#45;&gt;Node9</title>
<g id="a_edge10_Node000000_Node000009"><a xlink:title=" ">
<path fill="none" stroke="#63b8ff" d="M92.28,-446C104.52,-446 117.93,-446 131.26,-446"/>
<polygon fill="#63b8ff" stroke="#63b8ff" points="92.45,-442.5 82.45,-446 92.45,-449.5 92.45,-442.5"/>
</a>
</g>
</g>
<!-- Node10 -->
<g id="Node000010" class="node">
<title>Node10</title>
<g id="a_Node000010"><a xlink:href="class_w_p_r_1_1_controllers_1_1_employee_1_1_vehicle_manager_1_1_change_business_settings_1_1_ch7c94b582bf64dbc7511ca4ef6a96e8e5.html" target="_top" xlink:title=" ">
<polygon fill="white" stroke="#666666" points="317.75,-406 116.5,-406 116.5,-362 317.75,-362 317.75,-406"/>
<text text-anchor="start" x="124.5" y="-392.5" font-family="Helvetica,sans-Serif" font-size="10.00">WPR.Controllers.Employee.</text>
<text text-anchor="start" x="124.5" y="-380.5" font-family="Helvetica,sans-Serif" font-size="10.00">VehicleManager.ChangeBusinessSettings.</text>
<text text-anchor="middle" x="217.12" y="-368.5" font-family="Helvetica,sans-Serif" font-size="10.00">ChangeBusinessSettingsController</text>
</a>
</g>
</g>
<!-- Node0&#45;&gt;Node10 -->
<g id="edge11_Node000000_Node000010" class="edge">
<title>Node0&#45;&gt;Node10</title>
<g id="a_edge11_Node000000_Node000010"><a xlink:title=" ">
<path fill="none" stroke="#63b8ff" d="M75.33,-431.21C88.14,-425.85 102.9,-419.91 116.5,-415 124.51,-412.11 132.93,-409.24 141.35,-406.47"/>
<polygon fill="#63b8ff" stroke="#63b8ff" points="74.34,-427.83 66.49,-434.95 77.07,-434.27 74.34,-427.83"/>
</a>
</g>
</g>
<!-- Node11 -->
<g id="Node000011" class="node">
<title>Node11</title>
<g id="a_Node000011"><a xlink:href="class_w_p_r_1_1_controllers_1_1_employee_1_1_vehicle_manager_1_1_get_info_vehicle_manager_1_1_ge5f3db02cd05fb4d7aea652d7ec731ef7.html" target="_top" xlink:title=" ">
<polygon fill="white" stroke="#666666" points="313.25,-344 121,-344 121,-300 313.25,-300 313.25,-344"/>
<text text-anchor="start" x="129" y="-330.5" font-family="Helvetica,sans-Serif" font-size="10.00">WPR.Controllers.Employee.</text>
<text text-anchor="start" x="129" y="-318.5" font-family="Helvetica,sans-Serif" font-size="10.00">VehicleManager.GetInfoVehicleManager.</text>
<text text-anchor="middle" x="217.12" y="-306.5" font-family="Helvetica,sans-Serif" font-size="10.00">GetInfoVehicleManagerController</text>
</a>
</g>
</g>
<!-- Node0&#45;&gt;Node11 -->
<g id="edge12_Node000000_Node000011" class="edge">
<title>Node0&#45;&gt;Node11</title>
<g id="a_edge12_Node000000_Node000011"><a xlink:title=" ">
<path fill="none" stroke="#63b8ff" d="M52.62,-425.82C65.5,-404.71 88.4,-372.06 116.5,-353 121.15,-349.85 126.13,-347 131.3,-344.44"/>
<polygon fill="#63b8ff" stroke="#63b8ff" points="49.64,-423.97 47.59,-434.36 55.68,-427.52 49.64,-423.97"/>
</a>
</g>
</g>
<!-- Node12 -->
<g id="Node000012" class="node">
<title>Node12</title>
<g id="a_Node000012"><a xlink:href="class_w_p_r_1_1_controllers_1_1_employee_1_1validate_user_1_1_validate_user_controller.html" target="_top" xlink:title="In validateUserController wordt gekeken of er een gelidge medewerkers sessie aanwezig is....">
<polygon fill="white" stroke="#666666" points="303.88,-282 130.38,-282 130.38,-250 303.88,-250 303.88,-282"/>
<text text-anchor="start" x="138.38" y="-268.5" font-family="Helvetica,sans-Serif" font-size="10.00">WPR.Controllers.Employee.validate</text>
<text text-anchor="middle" x="217.12" y="-256.5" font-family="Helvetica,sans-Serif" font-size="10.00">User.ValidateUserController</text>
</a>
</g>
</g>
<!-- Node0&#45;&gt;Node12 -->
<g id="edge13_Node000000_Node000012" class="edge">
<title>Node0&#45;&gt;Node12</title>
<g id="a_edge13_Node000000_Node000012"><a xlink:title=" ">
<path fill="none" stroke="#63b8ff" d="M45.57,-424.59C53.5,-390.91 73.68,-325.79 116.5,-291 120.65,-287.63 125.2,-284.7 129.99,-282.16"/>
<polygon fill="#63b8ff" stroke="#63b8ff" points="42.15,-423.84 43.43,-434.36 48.99,-425.34 42.15,-423.84"/>
</a>
</g>
</g>
<!-- Node13 -->
<g id="Node000013" class="node">
<title>Node13</title>
<g id="a_Node000013"><a xlink:href="class_w_p_r_1_1_controllers_1_1_general_1_1_cookie_1_1_cookie_controller.html" target="_top" xlink:title="CookieController is de controller voor het aanmaken, verwijderen en ondervragen van cookies.">
<polygon fill="white" stroke="#666666" points="282.12,-232 152.12,-232 152.12,-200 282.12,-200 282.12,-232"/>
<text text-anchor="start" x="160.12" y="-218.5" font-family="Helvetica,sans-Serif" font-size="10.00">WPR.Controllers.General.</text>
<text text-anchor="middle" x="217.12" y="-206.5" font-family="Helvetica,sans-Serif" font-size="10.00">Cookie.CookieController</text>
</a>
</g>
</g>
<!-- Node0&#45;&gt;Node13 -->
<g id="edge14_Node000000_Node000013" class="edge">
<title>Node0&#45;&gt;Node13</title>
<g id="a_edge14_Node000000_Node000013"><a xlink:title=" ">
<path fill="none" stroke="#63b8ff" d="M42.73,-424.37C46.81,-382.49 61.83,-290.17 116.5,-241 126.38,-232.12 138.94,-226.29 151.8,-222.48"/>
<polygon fill="#63b8ff" stroke="#63b8ff" points="39.26,-423.87 41.92,-434.13 46.24,-424.46 39.26,-423.87"/>
</a>
</g>
</g>
<!-- Node14 -->
<g id="Node000014" class="node">
<title>Node14</title>
<g id="a_Node000014"><a xlink:href="class_w_p_r_1_1_controllers_1_1_general_1_1_login_1_1_login_controller.html" target="_top" xlink:title="LoginController zorgt ervoor dat een gebruiker kan inloggen, daarnaast wordt er ook gekeken of de geb...">
<polygon fill="white" stroke="#666666" points="282.12,-182 152.12,-182 152.12,-150 282.12,-150 282.12,-182"/>
<text text-anchor="start" x="160.12" y="-168.5" font-family="Helvetica,sans-Serif" font-size="10.00">WPR.Controllers.General.</text>
<text text-anchor="middle" x="217.12" y="-156.5" font-family="Helvetica,sans-Serif" font-size="10.00">Login.LoginController</text>
</a>
</g>
</g>
<!-- Node0&#45;&gt;Node14 -->
<g id="edge15_Node000000_Node000014" class="edge">
<title>Node0&#45;&gt;Node14</title>
<g id="a_edge15_Node000000_Node000014"><a xlink:title=" ">
<path fill="none" stroke="#63b8ff" d="M40.91,-424.33C41.38,-375.3 49.7,-255.11 116.5,-191 126.21,-181.68 138.86,-175.68 151.87,-171.86"/>
<polygon fill="#63b8ff" stroke="#63b8ff" points="37.41,-424.18 40.93,-434.17 44.41,-424.16 37.41,-424.18"/>
</a>
</g>
</g>
<!-- Node15 -->
<g id="Node000015" class="node">
<title>Node15</title>
<g id="a_Node000015"><a xlink:href="class_w_p_r_1_1_controllers_1_1_general_1_1_sign_up_1_1_sign_up_controller.html" target="_top" xlink:title="SignUpController zorgt ervoor dat persoonlijke en zakelijke accounts aangemaakt kunnen worden.">
<polygon fill="white" stroke="#666666" points="282.12,-132 152.12,-132 152.12,-100 282.12,-100 282.12,-132"/>
<text text-anchor="start" x="160.12" y="-118.5" font-family="Helvetica,sans-Serif" font-size="10.00">WPR.Controllers.General.</text>
<text text-anchor="middle" x="217.12" y="-106.5" font-family="Helvetica,sans-Serif" font-size="10.00">SignUp.SignUpController</text>
</a>
</g>
</g>
<!-- Node0&#45;&gt;Node15 -->
<g id="edge16_Node000000_Node000015" class="edge">
<title>Node0&#45;&gt;Node15</title>
<g id="a_edge16_Node000000_Node000015"><a xlink:title=" ">
<path fill="none" stroke="#63b8ff" d="M43.7,-424.37C51.22,-361.67 75.99,-181.67 116.5,-141 126.06,-131.4 138.73,-125.29 151.81,-121.46"/>
<polygon fill="#63b8ff" stroke="#63b8ff" points="40.25,-423.74 42.56,-434.07 47.2,-424.55 40.25,-423.74"/>
</a>
</g>
</g>
<!-- Node16 -->
<g id="Node000016" class="node">
<title>Node16</title>
<g id="a_Node000016"><a xlink:href="class_w_p_r_1_1_controllers_1_1_general_1_1_vehicle_1_1_vehicle_controller.html" target="_top" xlink:title="VehicleController zorgt ervoor dat voertuiggegevens uit de backend gehaald kunnen worden.">
<polygon fill="white" stroke="#666666" points="282.12,-82 152.12,-82 152.12,-50 282.12,-50 282.12,-82"/>
<text text-anchor="start" x="160.12" y="-68.5" font-family="Helvetica,sans-Serif" font-size="10.00">WPR.Controllers.General.</text>
<text text-anchor="middle" x="217.12" y="-56.5" font-family="Helvetica,sans-Serif" font-size="10.00">Vehicle.VehicleController</text>
</a>
</g>
</g>
<!-- Node0&#45;&gt;Node16 -->
<g id="edge17_Node000000_Node000016" class="edge">
<title>Node0&#45;&gt;Node16</title>
<g id="a_edge17_Node000000_Node000016"><a xlink:title=" ">
<path fill="none" stroke="#63b8ff" d="M42.87,-424.55C48.53,-355.34 69.69,-139.58 116.5,-91 125.97,-81.18 138.67,-74.99 151.83,-71.15"/>
<polygon fill="#63b8ff" stroke="#63b8ff" points="39.41,-423.95 42.11,-434.19 46.39,-424.5 39.41,-423.95"/>
</a>
</g>
</g>
<!-- Node17 -->
<g id="Node000017" class="node">
<title>Node17</title>
<g id="a_Node000017"><a xlink:href="class_w_p_r_1_1_controllers_1_1customer_1_1_subscription_1_1_subscription_controller.html" target="_top" xlink:title=" ">
<polygon fill="white" stroke="#666666" points="301.62,-32 132.62,-32 132.62,0 301.62,0 301.62,-32"/>
<text text-anchor="start" x="140.62" y="-18.5" font-family="Helvetica,sans-Serif" font-size="10.00">WPR.Controllers.customer.</text>
<text text-anchor="middle" x="217.12" y="-6.5" font-family="Helvetica,sans-Serif" font-size="10.00">Subscription.SubscriptionController</text>
</a>
</g>
</g>
<!-- Node0&#45;&gt;Node17 -->
<g id="edge18_Node000000_Node000017" class="edge">
<title>Node0&#45;&gt;Node17</title>
<g id="a_edge18_Node000000_Node000017"><a xlink:title=" ">
<path fill="none" stroke="#63b8ff" d="M42.26,-424.55C46.25,-349.11 63.38,-97.53 116.5,-41 121.14,-36.06 126.6,-32.04 132.53,-28.77"/>
<polygon fill="#63b8ff" stroke="#63b8ff" points="38.78,-424.13 41.77,-434.29 45.77,-424.48 38.78,-424.13"/>
</a>
</g>
</g>
</g>
</svg>
