<?xml version="1.0" encoding="UTF-8" standalone="no"?>
<!DOCTYPE svg PUBLIC "-//W3C//DTD SVG 1.1//EN"
 "http://www.w3.org/Graphics/SVG/1.1/DTD/svg11.dtd">
<!-- Generated by graphviz version 12.2.1 (20241206.2353)
 -->
<!-- Title: Grafische Klasse Hiërarchie Pages: 1 -->
<svg width="445pt" height="104pt"
 viewBox="0.00 0.00 445.25 104.00" xmlns="http://www.w3.org/2000/svg" xmlns:xlink="http://www.w3.org/1999/xlink">
<g id="graph0" class="graph" transform="scale(1 1) rotate(0) translate(4 100)">
<title>Grafische Klasse Hiërarchie</title>
<!-- Node0 -->
<g id="Node000000" class="node">
<title>Node0</title>
<g id="a_Node000000"><a xlink:href="interface_w_p_r_1_1_email_1_1_i_details.html" target="_top" xlink:title=" ">
<polygon fill="white" stroke="#666666" points="104.5,-58 0,-58 0,-38 104.5,-38 104.5,-58"/>
<text text-anchor="middle" x="52.25" y="-44.5" font-family="Helvetica,sans-Serif" font-size="10.00">WPR.Email.IDetails</text>
</a>
</g>
</g>
<!-- Node1 -->
<g id="Node000001" class="node">
<title>Node1</title>
<g id="a_Node000001"><a xlink:href="interface_w_p_r_1_1_email_1_1_i_contract_details.html" target="_top" xlink:title=" ">
<polygon fill="white" stroke="#666666" points="285.12,-96 143.12,-96 143.12,-76 285.12,-76 285.12,-96"/>
<text text-anchor="middle" x="214.12" y="-82.5" font-family="Helvetica,sans-Serif" font-size="10.00">WPR.Email.IContractDetails</text>
</a>
</g>
</g>
<!-- Node0&#45;&gt;Node1 -->
<g id="edge21_Node000000_Node000001" class="edge">
<title>Node0&#45;&gt;Node1</title>
<g id="a_edge21_Node000000_Node000001"><a xlink:title=" ">
<path fill="none" stroke="#63b8ff" d="M108.43,-61.12C128.28,-65.83 150.39,-71.09 169.16,-75.55"/>
<polygon fill="#63b8ff" stroke="#63b8ff" points="109.37,-57.74 98.83,-58.83 107.75,-64.55 109.37,-57.74"/>
</a>
</g>
</g>
<!-- Node3 -->
<g id="Node000003" class="node">
<title>Node3</title>
<g id="a_Node000003"><a xlink:href="interface_w_p_r_1_1_email_1_1_i_customer_details.html" target="_top" xlink:title=" ">
<polygon fill="white" stroke="#666666" points="287.75,-58 140.5,-58 140.5,-38 287.75,-38 287.75,-58"/>
<text text-anchor="middle" x="214.12" y="-44.5" font-family="Helvetica,sans-Serif" font-size="10.00">WPR.Email.ICustomerDetails</text>
</a>
</g>
</g>
<!-- Node0&#45;&gt;Node3 -->
<g id="edge23_Node000000_Node000003" class="edge">
<title>Node0&#45;&gt;Node3</title>
<g id="a_edge23_Node000000_Node000003"><a xlink:title=" ">
<path fill="none" stroke="#63b8ff" d="M116.1,-48C124.01,-48 132.16,-48 140.21,-48"/>
<polygon fill="#63b8ff" stroke="#63b8ff" points="116.23,-44.5 106.23,-48 116.23,-51.5 116.23,-44.5"/>
</a>
</g>
</g>
<!-- Node5 -->
<g id="Node000005" class="node">
<title>Node5</title>
<g id="a_Node000005"><a xlink:href="interface_w_p_r_1_1_email_1_1_i_vehicle_details.html" target="_top" xlink:title=" ">
<polygon fill="white" stroke="#666666" points="282.12,-20 146.12,-20 146.12,0 282.12,0 282.12,-20"/>
<text text-anchor="middle" x="214.12" y="-6.5" font-family="Helvetica,sans-Serif" font-size="10.00">WPR.Email.IVehicleDetails</text>
</a>
</g>
</g>
<!-- Node0&#45;&gt;Node5 -->
<g id="edge25_Node000000_Node000005" class="edge">
<title>Node0&#45;&gt;Node5</title>
<g id="a_edge25_Node000000_Node000005"><a xlink:title=" ">
<path fill="none" stroke="#63b8ff" d="M108.43,-34.88C128.28,-30.17 150.39,-24.91 169.16,-20.45"/>
<polygon fill="#63b8ff" stroke="#63b8ff" points="107.75,-31.45 98.83,-37.17 109.37,-38.26 107.75,-31.45"/>
</a>
</g>
</g>
<!-- Node2 -->
<g id="Node000002" class="node">
<title>Node2</title>
<g id="a_Node000002"><a xlink:href="class_w_p_r_1_1_email_1_1_contract.html" target="_top" xlink:title="In de Contract klasse worden alle gegevens van een specifieke klant verzameld voor het aanmaken van e...">
<polygon fill="white" stroke="#666666" points="434.62,-96 326.38,-96 326.38,-76 434.62,-76 434.62,-96"/>
<text text-anchor="middle" x="380.5" y="-82.5" font-family="Helvetica,sans-Serif" font-size="10.00">WPR.Email.Contract</text>
</a>
</g>
</g>
<!-- Node1&#45;&gt;Node2 -->
<g id="edge22_Node000001_Node000002" class="edge">
<title>Node1&#45;&gt;Node2</title>
<g id="a_edge22_Node000001_Node000002"><a xlink:title=" ">
<path fill="none" stroke="#63b8ff" d="M296.55,-86C306.53,-86 316.53,-86 325.96,-86"/>
<polygon fill="#63b8ff" stroke="#63b8ff" points="296.83,-82.5 286.83,-86 296.83,-89.5 296.83,-82.5"/>
</a>
</g>
</g>
<!-- Node4 -->
<g id="Node000004" class="node">
<title>Node4</title>
<g id="a_Node000004"><a xlink:href="class_w_p_r_1_1_email_1_1_customer.html" target="_top" xlink:title="In de Customer klasse worden alle gegevens van een specifieke klant verzameld voor het aanmaken van e...">
<polygon fill="white" stroke="#666666" points="437.25,-58 323.75,-58 323.75,-38 437.25,-38 437.25,-58"/>
<text text-anchor="middle" x="380.5" y="-44.5" font-family="Helvetica,sans-Serif" font-size="10.00">WPR.Email.Customer</text>
</a>
</g>
</g>
<!-- Node3&#45;&gt;Node4 -->
<g id="edge24_Node000003_Node000004" class="edge">
<title>Node3&#45;&gt;Node4</title>
<g id="a_edge24_Node000003_Node000004"><a xlink:title=" ">
<path fill="none" stroke="#63b8ff" d="M299.6,-48C307.68,-48 315.73,-48 323.45,-48"/>
<polygon fill="#63b8ff" stroke="#63b8ff" points="299.69,-44.5 289.69,-48 299.69,-51.5 299.69,-44.5"/>
</a>
</g>
</g>
<!-- Node6 -->
<g id="Node000006" class="node">
<title>Node6</title>
<g id="a_Node000006"><a xlink:href="class_w_p_r_1_1_email_1_1_vehicle.html" target="_top" xlink:title="In de Vehicle klasse worden alle gegevens van een specifieke klant verzameld voor het aanmaken van ee...">
<polygon fill="white" stroke="#666666" points="431.62,-20 329.38,-20 329.38,0 431.62,0 431.62,-20"/>
<text text-anchor="middle" x="380.5" y="-6.5" font-family="Helvetica,sans-Serif" font-size="10.00">WPR.Email.Vehicle</text>
</a>
</g>
</g>
<!-- Node5&#45;&gt;Node6 -->
<g id="edge26_Node000005_Node000006" class="edge">
<title>Node5&#45;&gt;Node6</title>
<g id="a_edge26_Node000005_Node000006"><a xlink:title=" ">
<path fill="none" stroke="#63b8ff" d="M293.83,-10C305.75,-10 317.77,-10 328.88,-10"/>
<polygon fill="#63b8ff" stroke="#63b8ff" points="293.97,-6.5 283.97,-10 293.97,-13.5 293.97,-6.5"/>
</a>
</g>
</g>
</g>
</svg>
