<?xml version="1.0" encoding="UTF-8" standalone="no"?>
<!DOCTYPE svg PUBLIC "-//W3C//DTD SVG 1.1//EN"
 "http://www.w3.org/Graphics/SVG/1.1/DTD/svg11.dtd">
<!-- Generated by graphviz version 12.2.1 (20241206.2353)
 -->
<!-- Title: WPR.Email.IContractDetails Pages: 1 -->
<svg width="142pt" height="300pt"
 viewBox="0.00 0.00 142.00 300.00" xmlns="http://www.w3.org/2000/svg" xmlns:xlink="http://www.w3.org/1999/xlink">
<g id="graph0" class="graph" transform="scale(1 1) rotate(0) translate(4 296)">
<title>WPR.Email.IContractDetails</title>
<!-- Node1 -->
<g id="Node000001" class="node">
<title>Node1</title>
<g id="a_Node000001"><a xlink:title=" ">
<polygon fill="#999999" stroke="none" points="134,-188 0,-188 0,-136 134,-136 134,-188"/>
<text text-anchor="start" x="4" y="-174.5" font-family="Helvetica,sans-Serif" font-size="10.00">WPR.Email.IContractDetails</text>
<text text-anchor="start" x="65.5" y="-158.5" font-family="Helvetica,sans-Serif" font-size="10.00"> </text>
<text text-anchor="start" x="65.5" y="-142.5" font-family="Helvetica,sans-Serif" font-size="10.00"> </text>
<polygon fill="#666666" stroke="#666666" points="0,-170 0,-170 134,-170 134,-170 0,-170"/>
<polygon fill="#666666" stroke="#666666" points="0,-154 0,-154 134,-154 134,-154 0,-154"/>
<polygon fill="none" stroke="#666666" points="0,-136 0,-188 134,-188 134,-136 0,-136"/>
</a>
</g>
</g>
<!-- Node3 -->
<g id="Node000003" class="node">
<title>Node3</title>
<g id="a_Node000003"><a xlink:href="class_w_p_r_1_1_email_1_1_contract.html" target="_top" xlink:title="In de Contract klasse worden alle gegevens van een specifieke klant verzameld voor het aanmaken van e...">
<polygon fill="white" stroke="none" points="119.88,-100 14.12,-100 14.12,0 119.88,0 119.88,-100"/>
<text text-anchor="start" x="20.88" y="-86.5" font-family="Helvetica,sans-Serif" font-size="10.00">WPR.Email.Contract</text>
<text text-anchor="start" x="18.12" y="-70.5" font-family="Helvetica,sans-Serif" font-size="10.00">+</text>
<text text-anchor="start" x="28.12" y="-70.5" font-family="Helvetica,sans-Serif" font-size="10.00">_details</text>
<text text-anchor="start" x="19.62" y="-54.5" font-family="Helvetica,sans-Serif" font-size="10.00">&#45;</text>
<text text-anchor="start" x="28.12" y="-54.5" font-family="Helvetica,sans-Serif" font-size="10.00">_contractRepository</text>
<text text-anchor="start" x="18.12" y="-38.5" font-family="Helvetica,sans-Serif" font-size="10.00">+</text>
<text text-anchor="start" x="28.12" y="-38.5" font-family="Helvetica,sans-Serif" font-size="10.00">Contract()</text>
<text text-anchor="start" x="18.12" y="-22.5" font-family="Helvetica,sans-Serif" font-size="10.00">+</text>
<text text-anchor="start" x="28.12" y="-22.5" font-family="Helvetica,sans-Serif" font-size="10.00">SetDetailsAsync()</text>
<text text-anchor="start" x="18.12" y="-6.5" font-family="Helvetica,sans-Serif" font-size="10.00">+</text>
<text text-anchor="start" x="28.12" y="-6.5" font-family="Helvetica,sans-Serif" font-size="10.00">GetDetailsAsync()</text>
<polygon fill="#666666" stroke="#666666" points="14.12,-82 14.12,-82 119.88,-82 119.88,-82 14.12,-82"/>
<polygon fill="#666666" stroke="#666666" points="14.12,-50 14.12,-50 26.12,-50 26.12,-50 14.12,-50"/>
<polygon fill="#666666" stroke="#666666" points="26.12,-50 26.12,-50 119.88,-50 119.88,-50 26.12,-50"/>
<polygon fill="none" stroke="#666666" points="14.12,0 14.12,-100 119.88,-100 119.88,0 14.12,0"/>
</a>
</g>
</g>
<!-- Node1&#45;&gt;Node3 -->
<g id="edge2_Node000001_Node000003" class="edge">
<title>Node1&#45;&gt;Node3</title>
<g id="a_edge2_Node000001_Node000003"><a xlink:title=" ">
<path fill="none" stroke="#63b8ff" d="M67,-124.53C67,-116.58 67,-108.05 67,-99.72"/>
<polygon fill="none" stroke="#63b8ff" points="63.5,-124.53 67,-134.53 70.5,-124.53 63.5,-124.53"/>
</a>
</g>
</g>
<!-- Node2 -->
<g id="Node000002" class="node">
<title>Node2</title>
<g id="a_Node000002"><a xlink:href="interface_w_p_r_1_1_email_1_1_i_details.html" target="_top" xlink:title=" ">
<polygon fill="white" stroke="none" points="116.12,-292 17.88,-292 17.88,-224 116.12,-224 116.12,-292"/>
<text text-anchor="start" x="50.12" y="-278.5" font-family="Helvetica,sans-Serif" font-size="10.00">IDetails</text>
<text text-anchor="start" x="65.5" y="-262.5" font-family="Helvetica,sans-Serif" font-size="10.00"> </text>
<text text-anchor="start" x="21.88" y="-246.5" font-family="Helvetica,sans-Serif" font-size="10.00">+</text>
<text text-anchor="start" x="31.88" y="-246.5" font-family="Helvetica,sans-Serif" font-size="10.00">SetDetailsAsync()</text>
<text text-anchor="start" x="21.88" y="-230.5" font-family="Helvetica,sans-Serif" font-size="10.00">+</text>
<text text-anchor="start" x="31.88" y="-230.5" font-family="Helvetica,sans-Serif" font-size="10.00">GetDetailsAsync()</text>
<polygon fill="#666666" stroke="#666666" points="17.88,-274 17.88,-274 116.12,-274 116.12,-274 17.88,-274"/>
<polygon fill="#666666" stroke="#666666" points="17.88,-258 17.88,-258 116.12,-258 116.12,-258 17.88,-258"/>
<polygon fill="none" stroke="#666666" points="17.88,-224 17.88,-292 116.12,-292 116.12,-224 17.88,-224"/>
</a>
</g>
</g>
<!-- Node2&#45;&gt;Node1 -->
<g id="edge1_Node000001_Node000002" class="edge">
<title>Node2&#45;&gt;Node1</title>
<g id="a_edge1_Node000001_Node000002"><a xlink:title=" ">
<path fill="none" stroke="#63b8ff" d="M67,-212.62C67,-204.05 67,-195.37 67,-187.71"/>
<polygon fill="none" stroke="#63b8ff" points="63.5,-212.61 67,-222.61 70.5,-212.61 63.5,-212.61"/>
</a>
</g>
</g>
</g>
</svg>
