<?xml version="1.0" encoding="UTF-8" standalone="no"?>
<!DOCTYPE svg PUBLIC "-//W3C//DTD SVG 1.1//EN"
 "http://www.w3.org/Graphics/SVG/1.1/DTD/svg11.dtd">
<!-- Generated by graphviz version 12.2.1 (20241206.2353)
 -->
<!-- Title: WPR.Email.IVehicleDetails Pages: 1 -->
<svg width="136pt" height="164pt"
 viewBox="0.00 0.00 136.00 164.00" xmlns="http://www.w3.org/2000/svg" xmlns:xlink="http://www.w3.org/1999/xlink">

<svg id="main" version="1.1" xmlns="http://www.w3.org/2000/svg" xmlns:xlink="http://www.w3.org/1999/xlink" xml:space="preserve">

<style type="text/css"><![CDATA[
.node, .edge {opacity: 0.7;}
.node.selected, .edge.selected {opacity: 1;}
.edge:hover path { stroke: red; }
.edge:hover polygon { stroke: red; fill: red; }
]]></style>
<script type="application/ecmascript" xlink:href="svg.min.js"/>
<svg id="graph" class="graph">
<g id="graph0" class="graph" transform="scale(1 1) rotate(0) translate(4 160)">
<title>WPR.Email.IVehicleDetails</title>
<!-- Node1 -->
<g id="Node000001" class="node">
<title>Node1</title>
<g id="a_Node000001"><a xlink:title=" ">
<polygon fill="#999999" stroke="none" points="128,-52 0,-52 0,0 128,0 128,-52"/>
<text text-anchor="start" x="4" y="-38.5" font-family="Helvetica,sans-Serif" font-size="10.00">WPR.Email.IVehicleDetails</text>
<text text-anchor="start" x="62.5" y="-22.5" font-family="Helvetica,sans-Serif" font-size="10.00"> </text>
<text text-anchor="start" x="62.5" y="-6.5" font-family="Helvetica,sans-Serif" font-size="10.00"> </text>
<polygon fill="#666666" stroke="#666666" points="0,-34 0,-34 128,-34 128,-34 0,-34"/>
<polygon fill="#666666" stroke="#666666" points="0,-18 0,-18 128,-18 128,-18 0,-18"/>
<polygon fill="none" stroke="#666666" points="0,0 0,-52 128,-52 128,0 0,0"/>
</a>
</g>
</g>
<!-- Node2 -->
<g id="Node000002" class="node">
<title>Node2</title>
<g id="a_Node000002"><a xlink:href="interface_w_p_r_1_1_email_1_1_i_details.html" target="_top" xlink:title=" ">
<polygon fill="white" stroke="none" points="113.12,-156 14.88,-156 14.88,-88 113.12,-88 113.12,-156"/>
<text text-anchor="start" x="47.12" y="-142.5" font-family="Helvetica,sans-Serif" font-size="10.00">IDetails</text>
<text text-anchor="start" x="62.5" y="-126.5" font-family="Helvetica,sans-Serif" font-size="10.00"> </text>
<text text-anchor="start" x="18.88" y="-110.5" font-family="Helvetica,sans-Serif" font-size="10.00">+</text>
<text text-anchor="start" x="28.88" y="-110.5" font-family="Helvetica,sans-Serif" font-size="10.00">SetDetailsAsync()</text>
<text text-anchor="start" x="18.88" y="-94.5" font-family="Helvetica,sans-Serif" font-size="10.00">+</text>
<text text-anchor="start" x="28.88" y="-94.5" font-family="Helvetica,sans-Serif" font-size="10.00">GetDetailsAsync()</text>
<polygon fill="#666666" stroke="#666666" points="14.88,-138 14.88,-138 113.12,-138 113.12,-138 14.88,-138"/>
<polygon fill="#666666" stroke="#666666" points="14.88,-122 14.88,-122 113.12,-122 113.12,-122 14.88,-122"/>
<polygon fill="none" stroke="#666666" points="14.88,-88 14.88,-156 113.12,-156 113.12,-88 14.88,-88"/>
</a>
</g>
</g>
<!-- Node2&#45;&gt;Node1 -->
<g id="edge1_Node000001_Node000002" class="edge">
<title>Node2&#45;&gt;Node1</title>
<g id="a_edge1_Node000001_Node000002"><a xlink:title=" ">
<path fill="none" stroke="#63b8ff" d="M64,-76.62C64,-68.05 64,-59.37 64,-51.71"/>
<polygon fill="none" stroke="#63b8ff" points="60.5,-76.61 64,-86.61 67.5,-76.61 60.5,-76.61"/>
</a>
</g>
</g>
</g>
</svg>
</svg>

<style type='text/css'>
<![CDATA[
[data-mouse-over-selected='false'] { opacity: 0.7; }
[data-mouse-over-selected='true']  { opacity: 1.0; }
]]>
</style>
<script type="application/ecmascript"><![CDATA[
document.addEventListener('DOMContentLoaded', (event) => {
  highlightEdges();
  highlightAdjacentNodes();
});
]]></script>
</svg>
