<?xml version="1.0" encoding="UTF-8" standalone="no"?>
<!DOCTYPE svg PUBLIC "-//W3C//DTD SVG 1.1//EN"
 "http://www.w3.org/Graphics/SVG/1.1/DTD/svg11.dtd">
<!-- Generated by graphviz version 12.2.1 (20241206.2353)
 -->
<!-- Title: WPR.Email.ICustomerDetails Pages: 1 -->
<svg width="147pt" height="300pt"
 viewBox="0.00 0.00 147.25 300.00" xmlns="http://www.w3.org/2000/svg" xmlns:xlink="http://www.w3.org/1999/xlink">
<g id="graph0" class="graph" transform="scale(1 1) rotate(0) translate(4 296)">
<title>WPR.Email.ICustomerDetails</title>
<!-- Node1 -->
<g id="Node000001" class="node">
<title>Node1</title>
<g id="a_Node000001"><a xlink:title=" ">
<polygon fill="#999999" stroke="none" points="139.25,-188 0,-188 0,-136 139.25,-136 139.25,-188"/>
<text text-anchor="start" x="4" y="-174.5" font-family="Helvetica,sans-Serif" font-size="10.00">WPR.Email.ICustomerDetails</text>
<text text-anchor="start" x="68.12" y="-158.5" font-family="Helvetica,sans-Serif" font-size="10.00"> </text>
<text text-anchor="start" x="68.12" y="-142.5" font-family="Helvetica,sans-Serif" font-size="10.00"> </text>
<polygon fill="#666666" stroke="#666666" points="0,-170 0,-170 139.25,-170 139.25,-170 0,-170"/>
<polygon fill="#666666" stroke="#666666" points="0,-154 0,-154 139.25,-154 139.25,-154 0,-154"/>
<polygon fill="none" stroke="#666666" points="0,-136 0,-188 139.25,-188 139.25,-136 0,-136"/>
</a>
</g>
</g>
<!-- Node3 -->
<g id="Node000003" class="node">
<title>Node3</title>
<g id="a_Node000003"><a xlink:href="class_w_p_r_1_1_email_1_1_customer.html" target="_top" xlink:title="In de Customer klasse worden alle gegevens van een specifieke klant verzameld voor het aanmaken van e...">
<polygon fill="white" stroke="none" points="122.38,-100 16.88,-100 16.88,0 122.38,0 122.38,-100"/>
<text text-anchor="start" x="20.88" y="-86.5" font-family="Helvetica,sans-Serif" font-size="10.00">WPR.Email.Customer</text>
<text text-anchor="start" x="22.69" y="-70.5" font-family="Helvetica,sans-Serif" font-size="10.00">+</text>
<text text-anchor="start" x="34.5" y="-70.5" font-family="Helvetica,sans-Serif" font-size="10.00">_details</text>
<text text-anchor="start" x="24.19" y="-54.5" font-family="Helvetica,sans-Serif" font-size="10.00">&#45;</text>
<text text-anchor="start" x="34.5" y="-54.5" font-family="Helvetica,sans-Serif" font-size="10.00">_userRepository</text>
<text text-anchor="start" x="22.69" y="-38.5" font-family="Helvetica,sans-Serif" font-size="10.00">+</text>
<text text-anchor="start" x="34.5" y="-38.5" font-family="Helvetica,sans-Serif" font-size="10.00">Customer()</text>
<text text-anchor="start" x="22.69" y="-22.5" font-family="Helvetica,sans-Serif" font-size="10.00">+</text>
<text text-anchor="start" x="34.5" y="-22.5" font-family="Helvetica,sans-Serif" font-size="10.00">SetDetailsAsync()</text>
<text text-anchor="start" x="22.69" y="-6.5" font-family="Helvetica,sans-Serif" font-size="10.00">+</text>
<text text-anchor="start" x="34.5" y="-6.5" font-family="Helvetica,sans-Serif" font-size="10.00">GetDetailsAsync()</text>
<polygon fill="#666666" stroke="#666666" points="16.88,-82 16.88,-82 122.38,-82 122.38,-82 16.88,-82"/>
<polygon fill="#666666" stroke="#666666" points="16.88,-50 16.88,-50 32.5,-50 32.5,-50 16.88,-50"/>
<polygon fill="#666666" stroke="#666666" points="32.5,-50 32.5,-50 122.38,-50 122.38,-50 32.5,-50"/>
<polygon fill="none" stroke="#666666" points="16.88,0 16.88,-100 122.38,-100 122.38,0 16.88,0"/>
</a>
</g>
</g>
<!-- Node1&#45;&gt;Node3 -->
<g id="edge2_Node000001_Node000003" class="edge">
<title>Node1&#45;&gt;Node3</title>
<g id="a_edge2_Node000001_Node000003"><a xlink:title=" ">
<path fill="none" stroke="#63b8ff" d="M69.62,-124.53C69.62,-116.58 69.62,-108.05 69.62,-99.72"/>
<polygon fill="none" stroke="#63b8ff" points="66.13,-124.53 69.63,-134.53 73.13,-124.53 66.13,-124.53"/>
</a>
</g>
</g>
<!-- Node2 -->
<g id="Node000002" class="node">
<title>Node2</title>
<g id="a_Node000002"><a xlink:href="interface_w_p_r_1_1_email_1_1_i_details.html" target="_top" xlink:title=" ">
<polygon fill="white" stroke="none" points="118.75,-292 20.5,-292 20.5,-224 118.75,-224 118.75,-292"/>
<text text-anchor="start" x="52.75" y="-278.5" font-family="Helvetica,sans-Serif" font-size="10.00">IDetails</text>
<text text-anchor="start" x="68.12" y="-262.5" font-family="Helvetica,sans-Serif" font-size="10.00"> </text>
<text text-anchor="start" x="24.5" y="-246.5" font-family="Helvetica,sans-Serif" font-size="10.00">+</text>
<text text-anchor="start" x="34.5" y="-246.5" font-family="Helvetica,sans-Serif" font-size="10.00">SetDetailsAsync()</text>
<text text-anchor="start" x="24.5" y="-230.5" font-family="Helvetica,sans-Serif" font-size="10.00">+</text>
<text text-anchor="start" x="34.5" y="-230.5" font-family="Helvetica,sans-Serif" font-size="10.00">GetDetailsAsync()</text>
<polygon fill="#666666" stroke="#666666" points="20.5,-274 20.5,-274 118.75,-274 118.75,-274 20.5,-274"/>
<polygon fill="#666666" stroke="#666666" points="20.5,-258 20.5,-258 118.75,-258 118.75,-258 20.5,-258"/>
<polygon fill="none" stroke="#666666" points="20.5,-224 20.5,-292 118.75,-292 118.75,-224 20.5,-224"/>
</a>
</g>
</g>
<!-- Node2&#45;&gt;Node1 -->
<g id="edge1_Node000001_Node000002" class="edge">
<title>Node2&#45;&gt;Node1</title>
<g id="a_edge1_Node000001_Node000002"><a xlink:title=" ">
<path fill="none" stroke="#63b8ff" d="M69.62,-212.62C69.62,-204.05 69.62,-195.37 69.62,-187.71"/>
<polygon fill="none" stroke="#63b8ff" points="66.13,-212.61 69.63,-222.61 73.13,-212.61 66.13,-212.61"/>
</a>
</g>
</g>
</g>
</svg>
