<?xml version="1.0" encoding="UTF-8" standalone="no"?>
<!DOCTYPE svg PUBLIC "-//W3C//DTD SVG 1.1//EN"
 "http://www.w3.org/Graphics/SVG/1.1/DTD/svg11.dtd">
<!-- Generated by graphviz version 12.2.1 (20241206.2353)
 -->
<!-- Title: WPR.Database.IConnector Pages: 1 -->
<svg width="136pt" height="164pt"
 viewBox="0.00 0.00 136.00 164.00" xmlns="http://www.w3.org/2000/svg" xmlns:xlink="http://www.w3.org/1999/xlink">
<g id="graph0" class="graph" transform="scale(1 1) rotate(0) translate(4 160)">
<title>WPR.Database.IConnector</title>
<!-- Node1 -->
<g id="Node000001" class="node">
<title>Node1</title>
<g id="a_Node000001"><a xlink:title="Connector class om verbinding te maken met de database, maakt gebruik van de connectie strings die zi...">
<polygon fill="#999999" stroke="none" points="128,-156 0,-156 0,-104 128,-104 128,-156"/>
<text text-anchor="start" x="4" y="-142.5" font-family="Helvetica,sans-Serif" font-size="10.00">WPR.Database.IConnector</text>
<text text-anchor="start" x="62.5" y="-126.5" font-family="Helvetica,sans-Serif" font-size="10.00"> </text>
<text text-anchor="start" x="7.12" y="-110.5" font-family="Helvetica,sans-Serif" font-size="10.00">+</text>
<text text-anchor="start" x="20.25" y="-110.5" font-family="Helvetica,sans-Serif" font-size="10.00">CreateDbConnection()</text>
<polygon fill="#666666" stroke="#666666" points="0,-138 0,-138 128,-138 128,-138 0,-138"/>
<polygon fill="#666666" stroke="#666666" points="0,-122 0,-122 128,-122 128,-122 0,-122"/>
<polygon fill="none" stroke="#666666" points="0,-104 0,-156 128,-156 128,-104 0,-104"/>
</a>
</g>
</g>
<!-- Node2 -->
<g id="Node000002" class="node">
<title>Node2</title>
<g id="a_Node000002"><a xlink:href="class_w_p_r_1_1_database_1_1_connector.html" target="_top" xlink:title=" ">
<polygon fill="white" stroke="none" points="126.5,-68 1.5,-68 1.5,0 126.5,0 126.5,-68"/>
<text text-anchor="start" x="5.5" y="-54.5" font-family="Helvetica,sans-Serif" font-size="10.00">WPR.Database.Connector</text>
<text text-anchor="start" x="9.38" y="-38.5" font-family="Helvetica,sans-Serif" font-size="10.00">&#45;</text>
<text text-anchor="start" x="20.25" y="-38.5" font-family="Helvetica,sans-Serif" font-size="10.00">_envConfig</text>
<text text-anchor="start" x="7.88" y="-22.5" font-family="Helvetica,sans-Serif" font-size="10.00">+</text>
<text text-anchor="start" x="20.25" y="-22.5" font-family="Helvetica,sans-Serif" font-size="10.00">Connector()</text>
<text text-anchor="start" x="7.88" y="-6.5" font-family="Helvetica,sans-Serif" font-size="10.00">+</text>
<text text-anchor="start" x="20.25" y="-6.5" font-family="Helvetica,sans-Serif" font-size="10.00">CreateDbConnection()</text>
<polygon fill="#666666" stroke="#666666" points="1.5,-50 1.5,-50 126.5,-50 126.5,-50 1.5,-50"/>
<polygon fill="#666666" stroke="#666666" points="1.5,-34 1.5,-34 18.25,-34 18.25,-34 1.5,-34"/>
<polygon fill="#666666" stroke="#666666" points="18.25,-34 18.25,-34 126.5,-34 126.5,-34 18.25,-34"/>
<polygon fill="none" stroke="#666666" points="1.5,0 1.5,-68 126.5,-68 126.5,0 1.5,0"/>
</a>
</g>
</g>
<!-- Node1&#45;&gt;Node2 -->
<g id="edge1_Node000001_Node000002" class="edge">
<title>Node1&#45;&gt;Node2</title>
<g id="a_edge1_Node000001_Node000002"><a xlink:title=" ">
<path fill="none" stroke="#63b8ff" d="M64,-92.97C64,-84.65 64,-75.84 64,-67.67"/>
<polygon fill="none" stroke="#63b8ff" points="60.5,-92.79 64,-102.79 67.5,-92.79 60.5,-92.79"/>
</a>
</g>
</g>
</g>
</svg>
