<?xml version="1.0" encoding="UTF-8" standalone="no"?>
<!DOCTYPE svg PUBLIC "-//W3C//DTD SVG 1.1//EN"
 "http://www.w3.org/Graphics/SVG/1.1/DTD/svg11.dtd">
<!-- Generated by graphviz version 12.2.1 (20241206.2353)
 -->
<!-- Title: WPR.Repository.IBackOfficeRepository Pages: 1 -->
<svg width="144pt" height="152pt"
 viewBox="0.00 0.00 143.50 152.00" xmlns="http://www.w3.org/2000/svg" xmlns:xlink="http://www.w3.org/1999/xlink">
<g id="graph0" class="graph" transform="scale(1 1) rotate(0) translate(4 148)">
<title>WPR.Repository.IBackOfficeRepository</title>
<!-- Node1 -->
<g id="Node000001" class="node">
<title>Node1</title>
<g id="a_Node000001"><a xlink:title=" ">
<polygon fill="#999999" stroke="none" points="135.5,-144 0,-144 0,0 135.5,0 135.5,-144"/>
<text text-anchor="start" x="4" y="-130.5" font-family="Helvetica,sans-Serif" font-size="10.00">WPR.Repository.IBackOffice</text>
<text text-anchor="start" x="44.12" y="-118.5" font-family="Helvetica,sans-Serif" font-size="10.00">Repository</text>
<text text-anchor="start" x="4.31" y="-102.5" font-family="Helvetica,sans-Serif" font-size="10.00">+</text>
<text text-anchor="start" x="14.62" y="-102.5" font-family="Helvetica,sans-Serif" font-size="10.00">Status</text>
<text text-anchor="start" x="4.31" y="-86.5" font-family="Helvetica,sans-Serif" font-size="10.00">+</text>
<text text-anchor="start" x="14.62" y="-86.5" font-family="Helvetica,sans-Serif" font-size="10.00">Message</text>
<text text-anchor="start" x="4.31" y="-70.5" font-family="Helvetica,sans-Serif" font-size="10.00">+</text>
<text text-anchor="start" x="14.62" y="-70.5" font-family="Helvetica,sans-Serif" font-size="10.00">GetDataReview()</text>
<text text-anchor="start" x="4.31" y="-54.5" font-family="Helvetica,sans-Serif" font-size="10.00">+</text>
<text text-anchor="start" x="14.62" y="-54.5" font-family="Helvetica,sans-Serif" font-size="10.00">GetDataReviewIds()</text>
<text text-anchor="start" x="4.31" y="-38.5" font-family="Helvetica,sans-Serif" font-size="10.00">+</text>
<text text-anchor="start" x="14.62" y="-38.5" font-family="Helvetica,sans-Serif" font-size="10.00">GetFullDataReview()</text>
<text text-anchor="start" x="4.31" y="-22.5" font-family="Helvetica,sans-Serif" font-size="10.00">+</text>
<text text-anchor="start" x="14.62" y="-22.5" font-family="Helvetica,sans-Serif" font-size="10.00">AddSubscriptionAsync()</text>
<text text-anchor="start" x="4.31" y="-6.5" font-family="Helvetica,sans-Serif" font-size="10.00">+</text>
<text text-anchor="start" x="14.62" y="-6.5" font-family="Helvetica,sans-Serif" font-size="10.00">DeleteSubscriptionAsync()</text>
<polygon fill="#666666" stroke="#666666" points="0,-114 0,-114 135.5,-114 135.5,-114 0,-114"/>
<polygon fill="#666666" stroke="#666666" points="0,-82 0,-82 12.62,-82 12.62,-82 0,-82"/>
<polygon fill="#666666" stroke="#666666" points="12.62,-82 12.62,-82 135.5,-82 135.5,-82 12.62,-82"/>
<polygon fill="none" stroke="#666666" points="0,0 0,-144 135.5,-144 135.5,0 0,0"/>
</a>
</g>
</g>
</g>
</svg>
