<?xml version="1.0" encoding="UTF-8" standalone="no"?>
<!DOCTYPE svg PUBLIC "-//W3C//DTD SVG 1.1//EN"
 "http://www.w3.org/Graphics/SVG/1.1/DTD/svg11.dtd">
<!-- Generated by graphviz version 12.2.1 (20241206.2353)
 -->
<!-- Title: WPR.Controllers.General.SignUp.SignUpRequest Pages: 1 -->
<svg width="340pt" height="152pt"
 viewBox="0.00 0.00 340.00 152.00" xmlns="http://www.w3.org/2000/svg" xmlns:xlink="http://www.w3.org/1999/xlink">
<g id="graph0" class="graph" transform="scale(1 1) rotate(0) translate(4 148)">
<title>WPR.Controllers.General.SignUp.SignUpRequest</title>
<!-- Node1 -->
<g id="Node000001" class="node">
<title>Node1</title>
<g id="a_Node000001"><a xlink:title="Body voor SignUpRequest.">
<polygon fill="#999999" stroke="#666666" points="332,-94 202,-94 202,-62 332,-62 332,-94"/>
<text text-anchor="start" x="210" y="-80.5" font-family="Helvetica,sans-Serif" font-size="10.00">WPR.Controllers.General.</text>
<text text-anchor="middle" x="267" y="-68.5" font-family="Helvetica,sans-Serif" font-size="10.00">SignUp.SignUpRequest</text>
</a>
</g>
</g>
<!-- Node1&#45;&gt;Node1 -->
<g id="edge4_Node000001_Node000001" class="edge">
<title>Node1&#45;&gt;Node1</title>
<g id="a_edge4_Node000001_Node000001"><a xlink:title=" ">
<path fill="none" stroke="#63b8ff" d="M297.66,-105.71C292.55,-109.48 282.33,-112 267,-112 238.97,-112 228.02,-103.58 234.15,-94.44"/>
<polygon fill="#63b8ff" stroke="#63b8ff" points="301.09,-106.41 299.56,-95.93 294.22,-105.08 301.09,-106.41"/>
</a>
</g>
</g>
<!-- Node2 -->
<g id="Node000002" class="node">
<title>Node2</title>
<g id="a_Node000002"><a xlink:href="interface_w_p_r_1_1_repository_1_1_i_user_repository.html#aeb4dfef402022a44079b7043d8602210" target="_top" xlink:title=" ">
<polygon fill="white" stroke="#666666" points="166,-144 0,-144 0,-112 166,-112 166,-144"/>
<text text-anchor="start" x="8" y="-130.5" font-family="Helvetica,sans-Serif" font-size="10.00">WPR.Repository.IUserRepository.</text>
<text text-anchor="middle" x="83" y="-118.5" font-family="Helvetica,sans-Serif" font-size="10.00">AddPersonalCustomer</text>
</a>
</g>
</g>
<!-- Node1&#45;&gt;Node2 -->
<g id="edge1_Node000001_Node000002" class="edge">
<title>Node1&#45;&gt;Node2</title>
<g id="a_edge1_Node000001_Node000002"><a xlink:title=" ">
<path fill="none" stroke="#63b8ff" d="M195.18,-97.46C178.23,-102.11 160.29,-107.04 143.88,-111.55"/>
<polygon fill="#63b8ff" stroke="#63b8ff" points="195.98,-100.87 204.69,-94.84 194.12,-94.12 195.98,-100.87"/>
</a>
</g>
</g>
<!-- Node3 -->
<g id="Node000003" class="node">
<title>Node3</title>
<g id="a_Node000003"><a xlink:href="class_w_p_r_1_1_repository_1_1_user_repository.html#a188ce6aab8b95ea246623cc80b520714" target="_top" xlink:title=" ">
<polygon fill="white" stroke="#666666" points="164.5,-94 1.5,-94 1.5,-62 164.5,-62 164.5,-94"/>
<text text-anchor="start" x="9.5" y="-80.5" font-family="Helvetica,sans-Serif" font-size="10.00">WPR.Repository.UserRepository.</text>
<text text-anchor="middle" x="83" y="-68.5" font-family="Helvetica,sans-Serif" font-size="10.00">AddPersonalCustomer</text>
</a>
</g>
</g>
<!-- Node1&#45;&gt;Node3 -->
<g id="edge2_Node000001_Node000003" class="edge">
<title>Node1&#45;&gt;Node3</title>
<g id="a_edge2_Node000001_Node000003"><a xlink:title=" ">
<path fill="none" stroke="#63b8ff" d="M190.29,-78C181.91,-78 173.36,-78 164.92,-78"/>
<polygon fill="#63b8ff" stroke="#63b8ff" points="190.06,-81.5 200.06,-78 190.06,-74.5 190.06,-81.5"/>
</a>
</g>
</g>
<!-- Node4 -->
<g id="Node000004" class="node">
<title>Node4</title>
<g id="a_Node000004"><a xlink:href="class_w_p_r_1_1_controllers_1_1_general_1_1_sign_up_1_1_sign_up_controller.html#a35397bc748434e362e41954365dedb9e" target="_top" xlink:title=" ">
<polygon fill="white" stroke="#666666" points="156.25,-44 9.75,-44 9.75,0 156.25,0 156.25,-44"/>
<text text-anchor="start" x="17.75" y="-30.5" font-family="Helvetica,sans-Serif" font-size="10.00">WPR.Controllers.General.</text>
<text text-anchor="start" x="17.75" y="-18.5" font-family="Helvetica,sans-Serif" font-size="10.00">SignUp.SignUpController.sign</text>
<text text-anchor="middle" x="83" y="-6.5" font-family="Helvetica,sans-Serif" font-size="10.00">UpPersonalAsync</text>
</a>
</g>
</g>
<!-- Node1&#45;&gt;Node4 -->
<g id="edge3_Node000001_Node000004" class="edge">
<title>Node1&#45;&gt;Node4</title>
<g id="a_edge3_Node000001_Node000004"><a xlink:title=" ">
<path fill="none" stroke="#63b8ff" d="M201.46,-58.14C186.89,-53.66 171.33,-48.87 156.46,-44.3"/>
<polygon fill="#63b8ff" stroke="#63b8ff" points="200.34,-61.46 210.93,-61.06 202.4,-54.77 200.34,-61.46"/>
</a>
</g>
</g>
</g>
</svg>
