<?xml version="1.0" encoding="UTF-8" standalone="no"?>
<!DOCTYPE svg PUBLIC "-//W3C//DTD SVG 1.1//EN"
 "http://www.w3.org/Graphics/SVG/1.1/DTD/svg11.dtd">
<!-- Generated by graphviz version 12.2.1 (20241206.2353)
 -->
<!-- Title: WPR.Controllers.General.SignUp.SignUpRequestCustomer Pages: 1 -->
<svg width="771pt" height="228pt"
 viewBox="0.00 0.00 771.00 228.00" xmlns="http://www.w3.org/2000/svg" xmlns:xlink="http://www.w3.org/1999/xlink">
<g id="graph0" class="graph" transform="scale(1 1) rotate(0) translate(4 224)">
<title>WPR.Controllers.General.SignUp.SignUpRequestCustomer</title>
<!-- Node1 -->
<g id="Node000001" class="node">
<title>Node1</title>
<g id="a_Node000001"><a xlink:title=" ">
<polygon fill="#999999" stroke="#666666" points="763,-132 600,-132 600,-100 763,-100 763,-132"/>
<text text-anchor="start" x="608" y="-118.5" font-family="Helvetica,sans-Serif" font-size="10.00">WPR.Controllers.General.</text>
<text text-anchor="middle" x="681.5" y="-106.5" font-family="Helvetica,sans-Serif" font-size="10.00">SignUp.SignUpRequestCustomer</text>
</a>
</g>
</g>
<!-- Node1&#45;&gt;Node1 -->
<g id="edge11_Node000001_Node000001" class="edge">
<title>Node1&#45;&gt;Node1</title>
<g id="a_edge11_Node000001_Node000001"><a xlink:title=" ">
<path fill="none" stroke="#63b8ff" d="M714.91,-143.71C709.34,-147.48 698.2,-150 681.5,-150 650.96,-150 639.02,-141.58 645.71,-132.44"/>
<polygon fill="#63b8ff" stroke="#63b8ff" points="718.34,-144.43 716.98,-133.92 711.49,-142.98 718.34,-144.43"/>
</a>
</g>
</g>
<!-- Node2 -->
<g id="Node000002" class="node">
<title>Node2</title>
<g id="a_Node000002"><a xlink:href="interface_w_p_r_1_1_repository_1_1_i_user_repository.html#a103bbaff883cb3af9e3d4c98a2100d5b" target="_top" xlink:title=" ">
<polygon fill="white" stroke="#666666" points="564,-220 398,-220 398,-188 564,-188 564,-220"/>
<text text-anchor="start" x="406" y="-206.5" font-family="Helvetica,sans-Serif" font-size="10.00">WPR.Repository.IUserRepository.</text>
<text text-anchor="middle" x="481" y="-194.5" font-family="Helvetica,sans-Serif" font-size="10.00">AddCustomer</text>
</a>
</g>
</g>
<!-- Node1&#45;&gt;Node2 -->
<g id="edge1_Node000001_Node000002" class="edge">
<title>Node1&#45;&gt;Node2</title>
<g id="a_edge1_Node000001_Node000002"><a xlink:title=" ">
<path fill="none" stroke="#63b8ff" d="M639.75,-137.68C617.62,-149.1 589.62,-162.98 564,-174 553,-178.73 540.98,-183.4 529.62,-187.6"/>
<polygon fill="#63b8ff" stroke="#63b8ff" points="641.19,-140.88 648.45,-133.16 637.96,-134.67 641.19,-140.88"/>
</a>
</g>
</g>
<!-- Node3 -->
<g id="Node000003" class="node">
<title>Node3</title>
<g id="a_Node000003"><a xlink:href="class_w_p_r_1_1_repository_1_1_user_repository.html#a688723c1fb3385274f13ba0e3ba78da8" target="_top" xlink:title="AddCustomer krijgt SignUpRequestCustomer binnen en SignUpRequestCustomerPrivate. Elk account heeft al...">
<polygon fill="white" stroke="#666666" points="163,-138 0,-138 0,-106 163,-106 163,-138"/>
<text text-anchor="start" x="8" y="-124.5" font-family="Helvetica,sans-Serif" font-size="10.00">WPR.Repository.UserRepository.</text>
<text text-anchor="middle" x="81.5" y="-112.5" font-family="Helvetica,sans-Serif" font-size="10.00">AddCustomer</text>
</a>
</g>
</g>
<!-- Node1&#45;&gt;Node3 -->
<g id="edge2_Node000001_Node000003" class="edge">
<title>Node1&#45;&gt;Node3</title>
<g id="a_edge2_Node000001_Node000003"><a xlink:title=" ">
<path fill="none" stroke="#63b8ff" d="M604.46,-134.73C591.06,-137.34 577.18,-139.6 564,-141 423.61,-155.89 259.09,-142.9 163.25,-132.31"/>
<polygon fill="#63b8ff" stroke="#63b8ff" points="604.99,-138.19 614.1,-132.77 603.6,-131.33 604.99,-138.19"/>
</a>
</g>
</g>
<!-- Node4 -->
<g id="Node000004" class="node">
<title>Node4</title>
<g id="a_Node000004"><a xlink:href="class_w_p_r_1_1_repository_1_1_user_repository.html#ae8b7a3c517ffe6cb1b85eee60e5b2292" target="_top" xlink:title="AddCustomerChecks kijkt of alle ingevoerde velden geldig zijn. Als een check faalt falen alle checks.">
<polygon fill="white" stroke="#666666" points="562.5,-132 399.5,-132 399.5,-100 562.5,-100 562.5,-132"/>
<text text-anchor="start" x="407.5" y="-118.5" font-family="Helvetica,sans-Serif" font-size="10.00">WPR.Repository.UserRepository.</text>
<text text-anchor="middle" x="481" y="-106.5" font-family="Helvetica,sans-Serif" font-size="10.00">AddCustomerChecks</text>
</a>
</g>
</g>
<!-- Node1&#45;&gt;Node4 -->
<g id="edge3_Node000001_Node000004" class="edge">
<title>Node1&#45;&gt;Node4</title>
<g id="a_edge3_Node000001_Node000004"><a xlink:title=" ">
<path fill="none" stroke="#63b8ff" d="M588.3,-116C579.85,-116 571.33,-116 562.99,-116"/>
<polygon fill="#63b8ff" stroke="#63b8ff" points="588.25,-119.5 598.25,-116 588.25,-112.5 588.25,-119.5"/>
</a>
</g>
</g>
<!-- Node6 -->
<g id="Node000006" class="node">
<title>Node6</title>
<g id="a_Node000006"><a xlink:href="namespace_w_p_r_1_1_controllers_1_1_general_1_1_sign_up.html#aa900677400c93afffd84ac3aba306774" target="_top" xlink:title=" ">
<polygon fill="white" stroke="#666666" points="563.25,-64 398.75,-64 398.75,-32 563.25,-32 563.25,-64"/>
<text text-anchor="start" x="406.75" y="-50.5" font-family="Helvetica,sans-Serif" font-size="10.00">WPR.Controllers.General.</text>
<text text-anchor="middle" x="481" y="-38.5" font-family="Helvetica,sans-Serif" font-size="10.00">SignUp.CombinedSignUpRequest</text>
</a>
</g>
</g>
<!-- Node1&#45;&gt;Node6 -->
<g id="edge7_Node000001_Node000006" class="edge">
<title>Node1&#45;&gt;Node6</title>
<g id="a_edge7_Node000001_Node000006"><a xlink:title=" ">
<path fill="none" stroke="#63b8ff" d="M621.94,-95.94C592.64,-85.9 557.63,-73.91 529.95,-64.43"/>
<polygon fill="#63b8ff" stroke="#63b8ff" points="620.42,-99.12 631.02,-99.05 622.69,-92.5 620.42,-99.12"/>
</a>
</g>
</g>
<!-- Node7 -->
<g id="Node000007" class="node">
<title>Node7</title>
<g id="a_Node000007"><a xlink:href="class_w_p_r_1_1_controllers_1_1_general_1_1_sign_up_1_1_sign_up_controller.html#a0c3be455afaafaebb78fd9fa56da7a4b" target="_top" xlink:title="Registreert een nieuwe gebruiker met zowel persoonlijke als zakelijke gegevens.">
<polygon fill="white" stroke="#666666" points="360.88,-32 200.12,-32 200.12,0 360.88,0 360.88,-32"/>
<text text-anchor="start" x="208.12" y="-18.5" font-family="Helvetica,sans-Serif" font-size="10.00">WPR.Controllers.General.</text>
<text text-anchor="middle" x="280.5" y="-6.5" font-family="Helvetica,sans-Serif" font-size="10.00">SignUp.SignUpController.SignUp</text>
</a>
</g>
</g>
<!-- Node1&#45;&gt;Node7 -->
<g id="edge10_Node000001_Node000007" class="edge">
<title>Node1&#45;&gt;Node7</title>
<g id="a_edge10_Node000001_Node000007"><a xlink:title=" ">
<path fill="none" stroke="#63b8ff" d="M658.89,-91.33C637.41,-68.79 602.21,-36.92 564,-23 498.77,0.75 419.34,0.39 361.34,-4.69"/>
<polygon fill="#63b8ff" stroke="#63b8ff" points="656.31,-93.69 665.67,-98.64 661.44,-88.93 656.31,-93.69"/>
</a>
</g>
</g>
<!-- Node4&#45;&gt;Node3 -->
<g id="edge4_Node000004_Node000003" class="edge">
<title>Node4&#45;&gt;Node3</title>
<g id="a_edge4_Node000004_Node000003"><a xlink:title=" ">
<path fill="none" stroke="#63b8ff" d="M387.96,-117.39C320.02,-118.41 228.43,-119.8 163.31,-120.78"/>
<polygon fill="#63b8ff" stroke="#63b8ff" points="387.62,-120.89 397.57,-117.24 387.52,-113.9 387.62,-120.89"/>
</a>
</g>
</g>
<!-- Node5 -->
<g id="Node000005" class="node">
<title>Node5</title>
<g id="a_Node000005"><a xlink:href="class_w_p_r_1_1_repository_1_1_user_repository.html#a4fe2a09bb575fb8d9510828ef5ad9813" target="_top" xlink:title="AddPrivateCustomerDetails zorgt ervoor dat alle extra details van particuliere huurders toegevoegd wo...">
<polygon fill="white" stroke="#666666" points="362,-94 199,-94 199,-62 362,-62 362,-94"/>
<text text-anchor="start" x="207" y="-80.5" font-family="Helvetica,sans-Serif" font-size="10.00">WPR.Repository.UserRepository.</text>
<text text-anchor="middle" x="280.5" y="-68.5" font-family="Helvetica,sans-Serif" font-size="10.00">AddPrivateCustomerDetails</text>
</a>
</g>
</g>
<!-- Node4&#45;&gt;Node5 -->
<g id="edge5_Node000004_Node000005" class="edge">
<title>Node4&#45;&gt;Node5</title>
<g id="a_edge5_Node000004_Node000005"><a xlink:title=" ">
<path fill="none" stroke="#63b8ff" d="M388.09,-98.41C379.54,-96.77 370.93,-95.12 362.49,-93.5"/>
<polygon fill="#63b8ff" stroke="#63b8ff" points="387.3,-101.82 397.78,-100.26 388.61,-94.94 387.3,-101.82"/>
</a>
</g>
</g>
<!-- Node5&#45;&gt;Node3 -->
<g id="edge6_Node000005_Node000003" class="edge">
<title>Node5&#45;&gt;Node3</title>
<g id="a_edge6_Node000005_Node000003"><a xlink:title=" ">
<path fill="none" stroke="#63b8ff" d="M194.75,-96.93C181.98,-99.78 168.89,-102.7 156.37,-105.5"/>
<polygon fill="#63b8ff" stroke="#63b8ff" points="195.39,-100.37 204.39,-94.78 193.86,-93.54 195.39,-100.37"/>
</a>
</g>
</g>
<!-- Node6&#45;&gt;Node6 -->
<g id="edge8_Node000006_Node000006" class="edge">
<title>Node6&#45;&gt;Node6</title>
<g id="a_edge8_Node000006_Node000006"><a xlink:title=" ">
<path fill="none" stroke="#63b8ff" d="M514.41,-75.71C508.84,-79.48 497.7,-82 481,-82 450.46,-82 438.52,-73.58 445.21,-64.44"/>
<polygon fill="#63b8ff" stroke="#63b8ff" points="517.84,-76.43 516.48,-65.92 510.99,-74.98 517.84,-76.43"/>
</a>
</g>
</g>
<!-- Node6&#45;&gt;Node7 -->
<g id="edge9_Node000006_Node000007" class="edge">
<title>Node6&#45;&gt;Node7</title>
<g id="a_edge9_Node000006_Node000007"><a xlink:title=" ">
<path fill="none" stroke="#63b8ff" d="M387.08,-33.02C378.42,-31.62 369.7,-30.22 361.18,-28.85"/>
<polygon fill="#63b8ff" stroke="#63b8ff" points="386.48,-36.47 396.91,-34.6 387.59,-29.56 386.48,-36.47"/>
</a>
</g>
</g>
</g>
</svg>
