<?xml version="1.0" encoding="UTF-8" standalone="no"?>
<!DOCTYPE svg PUBLIC "-//W3C//DTD SVG 1.1//EN"
 "http://www.w3.org/Graphics/SVG/1.1/DTD/svg11.dtd">
<!-- Generated by graphviz version 12.2.1 (20241206.2353)
 -->
<!-- Title: WPR.Controllers.General.SignUp.CombinedSignUpRequest Pages: 1 -->
<svg width="372pt" height="138pt"
 viewBox="0.00 0.00 371.50 138.00" xmlns="http://www.w3.org/2000/svg" xmlns:xlink="http://www.w3.org/1999/xlink">
<g id="graph0" class="graph" transform="scale(1 1) rotate(0) translate(4 134)">
<title>WPR.Controllers.General.SignUp.CombinedSignUpRequest</title>
<!-- Node1 -->
<g id="Node000001" class="node">
<title>Node1</title>
<g id="a_Node000001"><a xlink:title=" ">
<polygon fill="#999999" stroke="#666666" points="164.5,-75 0,-75 0,-43 164.5,-43 164.5,-75"/>
<text text-anchor="start" x="8" y="-61.5" font-family="Helvetica,sans-Serif" font-size="10.00">WPR.Controllers.General.</text>
<text text-anchor="middle" x="82.25" y="-49.5" font-family="Helvetica,sans-Serif" font-size="10.00">SignUp.CombinedSignUpRequest</text>
</a>
</g>
</g>
<!-- Node1&#45;&gt;Node1 -->
<g id="edge1_Node000001_Node000001" class="edge">
<title>Node1&#45;&gt;Node1</title>
<g id="a_edge1_Node000001_Node000001"><a xlink:title=" ">
<path fill="none" stroke="#63b8ff" d="M46.59,-75.44C39.93,-84.58 51.82,-93 82.25,-93 98.89,-93 109.99,-90.48 115.54,-86.71"/>
<polygon fill="#63b8ff" stroke="#63b8ff" points="118.96,-87.43 117.6,-76.92 112.11,-85.99 118.96,-87.43"/>
</a>
</g>
</g>
<!-- Node2 -->
<g id="Node000002" class="node">
<title>Node2</title>
<g id="a_Node000002"><a xlink:href="namespace_w_p_r_1_1_controllers_1_1_general_1_1_sign_up.html#abf09877e4843c0b4ff2791cc32242102" target="_top" xlink:title=" ">
<polygon fill="white" stroke="#666666" points="363.5,-112 200.5,-112 200.5,-80 363.5,-80 363.5,-112"/>
<text text-anchor="start" x="208.5" y="-98.5" font-family="Helvetica,sans-Serif" font-size="10.00">WPR.Controllers.General.</text>
<text text-anchor="middle" x="282" y="-86.5" font-family="Helvetica,sans-Serif" font-size="10.00">SignUp.SignUpRequestCustomer</text>
</a>
</g>
</g>
<!-- Node1&#45;&gt;Node2 -->
<g id="edge2_Node000001_Node000002" class="edge">
<title>Node1&#45;&gt;Node2</title>
<g id="a_edge2_Node000001_Node000002"><a xlink:title=" ">
<path fill="none" stroke="#63b8ff" d="M164.82,-74.26C172.78,-75.75 180.89,-77.27 188.94,-78.77"/>
<polygon fill="#63b8ff" stroke="#63b8ff" points="188.29,-82.21 198.76,-80.61 189.58,-75.33 188.29,-82.21"/>
</a>
</g>
</g>
<!-- Node3 -->
<g id="Node000003" class="node">
<title>Node3</title>
<g id="a_Node000003"><a xlink:href="namespace_w_p_r_1_1_controllers_1_1_general_1_1_sign_up.html#ab012081435b4392bd8e6e4525e336d68" target="_top" xlink:title=" ">
<polygon fill="white" stroke="#666666" points="363.5,-44 200.5,-44 200.5,0 363.5,0 363.5,-44"/>
<text text-anchor="start" x="208.5" y="-30.5" font-family="Helvetica,sans-Serif" font-size="10.00">WPR.Controllers.General.</text>
<text text-anchor="start" x="208.5" y="-18.5" font-family="Helvetica,sans-Serif" font-size="10.00">SignUp.SignUpRequestCustomer</text>
<text text-anchor="middle" x="282" y="-6.5" font-family="Helvetica,sans-Serif" font-size="10.00">Private</text>
</a>
</g>
</g>
<!-- Node1&#45;&gt;Node3 -->
<g id="edge4_Node000001_Node000003" class="edge">
<title>Node1&#45;&gt;Node3</title>
<g id="a_edge4_Node000001_Node000003"><a xlink:title=" ">
<path fill="none" stroke="#63b8ff" d="M164.82,-43.74C172.78,-42.25 180.89,-40.73 188.94,-39.23"/>
<polygon fill="#63b8ff" stroke="#63b8ff" points="189.58,-42.67 198.76,-37.39 188.29,-35.79 189.58,-42.67"/>
</a>
</g>
</g>
<!-- Node2&#45;&gt;Node2 -->
<g id="edge3_Node000002_Node000002" class="edge">
<title>Node2&#45;&gt;Node2</title>
<g id="a_edge3_Node000002_Node000002"><a xlink:title=" ">
<path fill="none" stroke="#63b8ff" d="M246.34,-112.44C239.68,-121.58 251.57,-130 282,-130 298.64,-130 309.74,-127.48 315.29,-123.71"/>
<polygon fill="#63b8ff" stroke="#63b8ff" points="318.71,-124.43 317.35,-113.92 311.86,-122.99 318.71,-124.43"/>
</a>
</g>
</g>
<!-- Node3&#45;&gt;Node3 -->
<g id="edge5_Node000003_Node000003" class="edge">
<title>Node3&#45;&gt;Node3</title>
<g id="a_edge5_Node000003_Node000003"><a xlink:title=" ">
<path fill="none" stroke="#63b8ff" d="M244.99,-44.21C241.97,-53.8 254.3,-62 282,-62 298.45,-62 309.48,-59.11 315.09,-54.75"/>
<polygon fill="#63b8ff" stroke="#63b8ff" points="318.28,-56.22 318.48,-45.63 311.71,-53.79 318.28,-56.22"/>
</a>
</g>
</g>
</g>
</svg>
