<?xml version="1.0" encoding="UTF-8" standalone="no"?>
<!DOCTYPE svg PUBLIC "-//W3C//DTD SVG 1.1//EN"
 "http://www.w3.org/Graphics/SVG/1.1/DTD/svg11.dtd">
<!-- Generated by graphviz version 12.2.1 (20241206.2353)
 -->
<!-- Title: WPR.Repository.UserRepository.checkUsageEmailAsync Pages: 1 -->
<svg width="794pt" height="140pt"
 viewBox="0.00 0.00 794.25 140.00" xmlns="http://www.w3.org/2000/svg" xmlns:xlink="http://www.w3.org/1999/xlink">
<g id="graph0" class="graph" transform="scale(1 1) rotate(0) translate(4 136)">
<title>WPR.Repository.UserRepository.checkUsageEmailAsync</title>
<!-- Node1 -->
<g id="Node000001" class="node">
<title>Node1</title>
<g id="a_Node000001"><a xlink:title="Er wordt gekeken of het emailadres al bestaat in de databse.">
<polygon fill="#999999" stroke="#666666" points="786.25,-82 597,-82 597,-50 786.25,-50 786.25,-82"/>
<text text-anchor="start" x="605" y="-68.5" font-family="Helvetica,sans-Serif" font-size="10.00">WPR.Repository.UserRepository.check</text>
<text text-anchor="middle" x="691.62" y="-56.5" font-family="Helvetica,sans-Serif" font-size="10.00">UsageEmailAsync</text>
</a>
</g>
</g>
<!-- Node2 -->
<g id="Node000002" class="node">
<title>Node2</title>
<g id="a_Node000002"><a xlink:href="class_w_p_r_1_1_repository_1_1_user_repository.html#ae8b7a3c517ffe6cb1b85eee60e5b2292" target="_top" xlink:title="AddCustomerChecks kijkt of alle ingevoerde velden geldig zijn. Als een check faalt falen alle checks.">
<polygon fill="white" stroke="#666666" points="561,-132 398,-132 398,-100 561,-100 561,-132"/>
<text text-anchor="start" x="406" y="-118.5" font-family="Helvetica,sans-Serif" font-size="10.00">WPR.Repository.UserRepository.</text>
<text text-anchor="middle" x="479.5" y="-106.5" font-family="Helvetica,sans-Serif" font-size="10.00">AddCustomerChecks</text>
</a>
</g>
</g>
<!-- Node1&#45;&gt;Node2 -->
<g id="edge1_Node000001_Node000002" class="edge">
<title>Node1&#45;&gt;Node2</title>
<g id="a_edge1_Node000001_Node000002"><a xlink:title=" ">
<path fill="none" stroke="#63b8ff" d="M610.54,-85.06C590.47,-89.83 569.12,-94.91 549.64,-99.55"/>
<polygon fill="#63b8ff" stroke="#63b8ff" points="611.14,-88.51 620.06,-82.79 609.52,-81.7 611.14,-88.51"/>
</a>
</g>
</g>
<!-- Node5 -->
<g id="Node000005" class="node">
<title>Node5</title>
<g id="a_Node000005"><a xlink:href="class_w_p_r_1_1_repository_1_1_user_repository.html#a188ce6aab8b95ea246623cc80b520714" target="_top" xlink:title="Voegt een persoonlijke klant toe aan de database na validatie van de verstrekte gegevens.">
<polygon fill="white" stroke="#666666" points="561,-82 398,-82 398,-50 561,-50 561,-82"/>
<text text-anchor="start" x="406" y="-68.5" font-family="Helvetica,sans-Serif" font-size="10.00">WPR.Repository.UserRepository.</text>
<text text-anchor="middle" x="479.5" y="-56.5" font-family="Helvetica,sans-Serif" font-size="10.00">AddPersonalCustomer</text>
</a>
</g>
</g>
<!-- Node1&#45;&gt;Node5 -->
<g id="edge5_Node000001_Node000005" class="edge">
<title>Node1&#45;&gt;Node5</title>
<g id="a_edge5_Node000001_Node000005"><a xlink:title=" ">
<path fill="none" stroke="#63b8ff" d="M585.25,-66C577.19,-66 569.13,-66 561.26,-66"/>
<polygon fill="#63b8ff" stroke="#63b8ff" points="585.11,-69.5 595.11,-66 585.11,-62.5 585.11,-69.5"/>
</a>
</g>
</g>
<!-- Node6 -->
<g id="Node000006" class="node">
<title>Node6</title>
<g id="a_Node000006"><a xlink:href="class_w_p_r_1_1_repository_1_1_user_repository.html#af1ae304fd24d3ae358db293b0033e484" target="_top" xlink:title="Er wordt een query aangemaakt, met daarin de meegeven gegevens die veranderd moeten worden in het acc...">
<polygon fill="white" stroke="#666666" points="561,-32 398,-32 398,0 561,0 561,-32"/>
<text text-anchor="start" x="406" y="-18.5" font-family="Helvetica,sans-Serif" font-size="10.00">WPR.Repository.UserRepository.</text>
<text text-anchor="middle" x="479.5" y="-6.5" font-family="Helvetica,sans-Serif" font-size="10.00">CreateUserInfoQuery</text>
</a>
</g>
</g>
<!-- Node1&#45;&gt;Node6 -->
<g id="edge6_Node000001_Node000006" class="edge">
<title>Node1&#45;&gt;Node6</title>
<g id="a_edge6_Node000001_Node000006"><a xlink:title=" ">
<path fill="none" stroke="#63b8ff" d="M610.54,-46.94C590.47,-42.17 569.12,-37.09 549.64,-32.45"/>
<polygon fill="#63b8ff" stroke="#63b8ff" points="609.52,-50.3 620.06,-49.21 611.14,-43.49 609.52,-50.3"/>
</a>
</g>
</g>
<!-- Node3 -->
<g id="Node000003" class="node">
<title>Node3</title>
<g id="a_Node000003"><a xlink:href="class_w_p_r_1_1_repository_1_1_user_repository.html#a688723c1fb3385274f13ba0e3ba78da8" target="_top" xlink:title="AddCustomer krijgt SignUpRequestCustomer binnen en SignUpRequestCustomerPrivate. Elk account heeft al...">
<polygon fill="white" stroke="#666666" points="163,-132 0,-132 0,-100 163,-100 163,-132"/>
<text text-anchor="start" x="8" y="-118.5" font-family="Helvetica,sans-Serif" font-size="10.00">WPR.Repository.UserRepository.</text>
<text text-anchor="middle" x="81.5" y="-106.5" font-family="Helvetica,sans-Serif" font-size="10.00">AddCustomer</text>
</a>
</g>
</g>
<!-- Node2&#45;&gt;Node3 -->
<g id="edge2_Node000002_Node000003" class="edge">
<title>Node2&#45;&gt;Node3</title>
<g id="a_edge2_Node000002_Node000003"><a xlink:title=" ">
<path fill="none" stroke="#63b8ff" d="M386.41,-118.59C378.16,-118.76 369.93,-118.9 362,-119 289.56,-119.93 271.44,-119.93 199,-119 187.47,-118.85 175.3,-118.62 163.34,-118.35"/>
<polygon fill="#63b8ff" stroke="#63b8ff" points="386.22,-122.1 396.15,-118.38 386.07,-115.1 386.22,-122.1"/>
</a>
</g>
</g>
<!-- Node4 -->
<g id="Node000004" class="node">
<title>Node4</title>
<g id="a_Node000004"><a xlink:href="class_w_p_r_1_1_repository_1_1_user_repository.html#a4fe2a09bb575fb8d9510828ef5ad9813" target="_top" xlink:title="AddPrivateCustomerDetails zorgt ervoor dat alle extra details van particuliere huurders toegevoegd wo...">
<polygon fill="white" stroke="#666666" points="362,-110 199,-110 199,-78 362,-78 362,-110"/>
<text text-anchor="start" x="207" y="-96.5" font-family="Helvetica,sans-Serif" font-size="10.00">WPR.Repository.UserRepository.</text>
<text text-anchor="middle" x="280.5" y="-84.5" font-family="Helvetica,sans-Serif" font-size="10.00">AddPrivateCustomerDetails</text>
</a>
</g>
</g>
<!-- Node2&#45;&gt;Node4 -->
<g id="edge3_Node000002_Node000004" class="edge">
<title>Node2&#45;&gt;Node4</title>
<g id="a_edge3_Node000002_Node000004"><a xlink:title=" ">
<path fill="none" stroke="#63b8ff" d="M386.32,-105.71C378.36,-104.82 370.35,-103.92 362.48,-103.04"/>
<polygon fill="#63b8ff" stroke="#63b8ff" points="385.69,-109.16 396.02,-106.79 386.47,-102.2 385.69,-109.16"/>
</a>
</g>
</g>
<!-- Node4&#45;&gt;Node3 -->
<g id="edge4_Node000004_Node000003" class="edge">
<title>Node4&#45;&gt;Node3</title>
<g id="a_edge4_Node000004_Node000003"><a xlink:title=" ">
<path fill="none" stroke="#63b8ff" d="M187.32,-104.29C179.36,-105.18 171.35,-106.08 163.48,-106.96"/>
<polygon fill="#63b8ff" stroke="#63b8ff" points="187.47,-107.8 197.02,-103.21 186.69,-100.84 187.47,-107.8"/>
</a>
</g>
</g>
<!-- Node7 -->
<g id="Node000007" class="node">
<title>Node7</title>
<g id="a_Node000007"><a xlink:href="class_w_p_r_1_1_repository_1_1_user_repository.html#af9a5424f00a5cfc023cc147a1e0a59cf" target="_top" xlink:title="Wijzigt de gebruikersinformatie op basis van de verstrekte gegevens.">
<polygon fill="white" stroke="#666666" points="362,-32 199,-32 199,0 362,0 362,-32"/>
<text text-anchor="start" x="207" y="-18.5" font-family="Helvetica,sans-Serif" font-size="10.00">WPR.Repository.UserRepository.</text>
<text text-anchor="middle" x="280.5" y="-6.5" font-family="Helvetica,sans-Serif" font-size="10.00">EditUserInfoAsync</text>
</a>
</g>
</g>
<!-- Node6&#45;&gt;Node7 -->
<g id="edge7_Node000006_Node000007" class="edge">
<title>Node6&#45;&gt;Node7</title>
<g id="a_edge7_Node000006_Node000007"><a xlink:title=" ">
<path fill="none" stroke="#63b8ff" d="M386.05,-16C378.18,-16 370.26,-16 362.48,-16"/>
<polygon fill="#63b8ff" stroke="#63b8ff" points="386.01,-19.5 396.01,-16 386.01,-12.5 386.01,-19.5"/>
</a>
</g>
</g>
</g>
</svg>
