<?xml version="1.0" encoding="UTF-8" standalone="no"?>
<!DOCTYPE svg PUBLIC "-//W3C//DTD SVG 1.1//EN"
 "http://www.w3.org/Graphics/SVG/1.1/DTD/svg11.dtd">
<!-- Generated by graphviz version 12.2.1 (20241206.2353)
 -->
<!-- Title: WPR.Repository.UserRepository.VehicleManager Pages: 1 -->
<svg width="163pt" height="120pt"
 viewBox="0.00 0.00 163.00 120.00" xmlns="http://www.w3.org/2000/svg" xmlns:xlink="http://www.w3.org/1999/xlink">
<g id="graph0" class="graph" transform="scale(1 1) rotate(0) translate(4 116)">
<title>WPR.Repository.UserRepository.VehicleManager</title>
<!-- Node1 -->
<g id="Node000001" class="node">
<title>Node1</title>
<g id="a_Node000001"><a xlink:title=" ">
<polygon fill="#999999" stroke="none" points="155,-112 0,-112 0,0 155,0 155,-112"/>
<text text-anchor="start" x="4" y="-98.5" font-family="Helvetica,sans-Serif" font-size="10.00">WPR.Repository.UserRepository.</text>
<text text-anchor="start" x="43" y="-86.5" font-family="Helvetica,sans-Serif" font-size="10.00">VehicleManager</text>
<text text-anchor="start" x="27.38" y="-70.5" font-family="Helvetica,sans-Serif" font-size="10.00">+</text>
<text text-anchor="start" x="60.75" y="-70.5" font-family="Helvetica,sans-Serif" font-size="10.00">Id</text>
<text text-anchor="start" x="27.38" y="-54.5" font-family="Helvetica,sans-Serif" font-size="10.00">+</text>
<text text-anchor="start" x="60.75" y="-54.5" font-family="Helvetica,sans-Serif" font-size="10.00">Email</text>
<text text-anchor="start" x="27.38" y="-38.5" font-family="Helvetica,sans-Serif" font-size="10.00">+</text>
<text text-anchor="start" x="60.75" y="-38.5" font-family="Helvetica,sans-Serif" font-size="10.00">Password</text>
<text text-anchor="start" x="27.38" y="-22.5" font-family="Helvetica,sans-Serif" font-size="10.00">+</text>
<text text-anchor="start" x="60.75" y="-22.5" font-family="Helvetica,sans-Serif" font-size="10.00">Business</text>
<text text-anchor="start" x="76" y="-6.5" font-family="Helvetica,sans-Serif" font-size="10.00"> </text>
<polygon fill="#666666" stroke="#666666" points="0,-82 0,-82 155,-82 155,-82 0,-82"/>
<polygon fill="#666666" stroke="#666666" points="0,-18 0,-18 58.75,-18 58.75,-18 0,-18"/>
<polygon fill="#666666" stroke="#666666" points="58.75,-18 58.75,-18 155,-18 155,-18 58.75,-18"/>
<polygon fill="none" stroke="#666666" points="0,0 0,-112 155,-112 155,0 0,0"/>
</a>
</g>
</g>
</g>
</svg>
