<?xml version="1.0" encoding="UTF-8" standalone="no"?>
<!DOCTYPE svg PUBLIC "-//W3C//DTD SVG 1.1//EN"
 "http://www.w3.org/Graphics/SVG/1.1/DTD/svg11.dtd">
<!-- Generated by graphviz version 12.2.1 (20241206.2353)
 -->
<!-- Title: WPR.Email.Vehicle Pages: 1 -->
<!--zoomable 533 -->

<svg id="main" version="1.1" xmlns="http://www.w3.org/2000/svg" xmlns:xlink="http://www.w3.org/1999/xlink" xml:space="preserve" onload="init(evt)">

<style type="text/css"><![CDATA[
.node, .edge {opacity: 0.7;}
.node.selected, .edge.selected {opacity: 1;}
.edge:hover path { stroke: red; }
.edge:hover polygon { stroke: red; fill: red; }
]]></style>

<defs>
  <circle id="rim" cx="0" cy="0" r="7"/>
  <circle id="rim2" cx="0" cy="0" r="3.5"/>
  <g id="zoomPlus">
    <use xlink:href="#rim" fill="#404040"><set attributeName="fill" to="#808080" begin="zoomplus.mouseover" end="zoomplus.mouseout"/></use>
    <path d="M-4,0h8M0,-4v8" fill="none" stroke="white" stroke-width="1.5" pointer-events="none"/>
  </g>
  <g id="zoomMin">
    <use xlink:href="#rim" fill="#404040"><set attributeName="fill" to="#808080" begin="zoomminus.mouseover" end="zoomminus.mouseout"/></use>
    <path d="M-4,0h8" fill="none" stroke="white" stroke-width="1.5" pointer-events="none"/>
  </g>
  <g id="arrowUp" transform="translate(30 24)">
    <use xlink:href="#rim"/>
    <path pointer-events="none" fill="none" stroke="white" stroke-width="1.5" d="M0,-3.0v7 M-2.5,-0.5L0,-3.0L2.5,-0.5"/>
  </g>
  <g id="arrowRight" transform="rotate(90) translate(36 -43)">
    <use xlink:href="#rim"/>
    <path pointer-events="none" fill="none" stroke="white" stroke-width="1.5" d="M0,-3.0v7 M-2.5,-0.5L0,-3.0L2.5,-0.5"/>
  </g>
  <g id="arrowDown" transform="rotate(180) translate(-30 -48)">
    <use xlink:href="#rim"/>
    <path pointer-events="none" fill="none" stroke="white" stroke-width="1.5" d="M0,-3.0v7 M-2.5,-0.5L0,-3.0L2.5,-0.5"/>
  </g>
  <g id="arrowLeft" transform="rotate(270) translate(-36 17)">
    <use xlink:href="#rim"/>
    <path pointer-events="none" fill="none" stroke="white" stroke-width="1.5" d="M0,-3.0v7 M-2.5,-0.5L0,-3.0L2.5,-0.5"/>
  </g>
  <g id="resetDef">
    <use xlink:href="#rim2" fill="#404040"><set attributeName="fill" to="#808080" begin="reset.mouseover" end="reset.mouseout"/></use>
  </g>
</defs>
<script type="application/ecmascript">
var viewWidth = 278;
var viewHeight = 533;
var sectionId = 'dynsection-1';
</script>
<script type="application/ecmascript" xlink:href="svg.min.js"/>
<svg id="graph" class="graph">
<g id="viewport">
<title>WPR.Email.Vehicle</title>
<!-- Node1 -->
<g id="Node000001" class="node">
<title>Node1</title>
<g id="a_Node000001"><a xlink:title="In de Vehicle klasse worden alle gegevens van een specifieke klant verzameld voor het aanmaken van ee...">
<polygon fill="#999999" stroke="none" points="167.25,-84 69,-84 69,0 167.25,0 167.25,-84"/>
<text text-anchor="start" x="75" y="-70.5" font-family="Helvetica,sans-Serif" font-size="10.00">WPR.Email.Vehicle</text>
<text text-anchor="start" x="73" y="-54.5" font-family="Helvetica,sans-Serif" font-size="10.00">+</text>
<text text-anchor="start" x="83" y="-54.5" font-family="Helvetica,sans-Serif" font-size="10.00">_details</text>
<text text-anchor="start" x="73" y="-38.5" font-family="Helvetica,sans-Serif" font-size="10.00">+</text>
<text text-anchor="start" x="83" y="-38.5" font-family="Helvetica,sans-Serif" font-size="10.00">Vehicle()</text>
<text text-anchor="start" x="73" y="-22.5" font-family="Helvetica,sans-Serif" font-size="10.00">+</text>
<text text-anchor="start" x="83" y="-22.5" font-family="Helvetica,sans-Serif" font-size="10.00">SetDetailsAsync()</text>
<text text-anchor="start" x="73" y="-6.5" font-family="Helvetica,sans-Serif" font-size="10.00">+</text>
<text text-anchor="start" x="83" y="-6.5" font-family="Helvetica,sans-Serif" font-size="10.00">GetDetailsAsync()</text>
<polygon fill="#666666" stroke="#666666" points="69,-66 69,-66 167.25,-66 167.25,-66 69,-66"/>
<polygon fill="#666666" stroke="#666666" points="69,-50 69,-50 81,-50 81,-50 69,-50"/>
<polygon fill="#666666" stroke="#666666" points="81,-50 81,-50 167.25,-50 167.25,-50 81,-50"/>
<polygon fill="none" stroke="#666666" points="69,0 69,-84 167.25,-84 167.25,0 69,0"/>
</a>
</g>
</g>
<!-- Node2 -->
<g id="Node000002" class="node">
<title>Node2</title>
<g id="a_Node000002"><a xlink:href="interface_w_p_r_1_1_email_1_1_i_vehicle_details.html" target="_top" xlink:title=" ">
<polygon fill="white" stroke="none" points="85.75,-302 12.5,-302 12.5,-250 85.75,-250 85.75,-302"/>
<text text-anchor="start" x="16.5" y="-288.5" font-family="Helvetica,sans-Serif" font-size="10.00">IVehicleDetails</text>
<text text-anchor="start" x="47.62" y="-272.5" font-family="Helvetica,sans-Serif" font-size="10.00"> </text>
<text text-anchor="start" x="47.62" y="-256.5" font-family="Helvetica,sans-Serif" font-size="10.00"> </text>
<polygon fill="#666666" stroke="#666666" points="12.5,-284 12.5,-284 85.75,-284 85.75,-284 12.5,-284"/>
<polygon fill="#666666" stroke="#666666" points="12.5,-268 12.5,-268 85.75,-268 85.75,-268 12.5,-268"/>
<polygon fill="none" stroke="#666666" points="12.5,-250 12.5,-302 85.75,-302 85.75,-250 12.5,-250"/>
</a>
</g>
</g>
<!-- Node2&#45;&gt;Node1 -->
<g id="edge1_Node000001_Node000002" class="edge">
<title>Node2&#45;&gt;Node1</title>
<g id="a_edge1_Node000001_Node000002"><a xlink:title=" ">
<path fill="none" stroke="#63b8ff" d="M59.72,-239.38C72.18,-197.49 92.82,-128.07 105.94,-83.98"/>
<polygon fill="none" stroke="#63b8ff" points="56.44,-238.14 56.94,-248.72 63.15,-240.13 56.44,-238.14"/>
</a>
</g>
</g>
<!-- Node3 -->
<g id="Node000003" class="node">
<title>Node3</title>
<g id="a_Node000003"><a xlink:href="interface_w_p_r_1_1_email_1_1_i_details.html" target="_top" xlink:title=" ">
<polygon fill="white" stroke="none" points="98.25,-525 0,-525 0,-457 98.25,-457 98.25,-525"/>
<text text-anchor="start" x="32.25" y="-511.5" font-family="Helvetica,sans-Serif" font-size="10.00">IDetails</text>
<text text-anchor="start" x="47.62" y="-495.5" font-family="Helvetica,sans-Serif" font-size="10.00"> </text>
<text text-anchor="start" x="4" y="-479.5" font-family="Helvetica,sans-Serif" font-size="10.00">+</text>
<text text-anchor="start" x="14" y="-479.5" font-family="Helvetica,sans-Serif" font-size="10.00">SetDetailsAsync()</text>
<text text-anchor="start" x="4" y="-463.5" font-family="Helvetica,sans-Serif" font-size="10.00">+</text>
<text text-anchor="start" x="14" y="-463.5" font-family="Helvetica,sans-Serif" font-size="10.00">GetDetailsAsync()</text>
<polygon fill="#666666" stroke="#666666" points="0,-507 0,-507 98.25,-507 98.25,-507 0,-507"/>
<polygon fill="#666666" stroke="#666666" points="0,-491 0,-491 98.25,-491 98.25,-491 0,-491"/>
<polygon fill="none" stroke="#666666" points="0,-457 0,-525 98.25,-525 98.25,-457 0,-457"/>
</a>
</g>
</g>
<!-- Node3&#45;&gt;Node2 -->
<g id="edge2_Node000002_Node000003" class="edge">
<title>Node3&#45;&gt;Node2</title>
<g id="a_edge2_Node000002_Node000003"><a xlink:title=" ">
<path fill="none" stroke="#63b8ff" d="M49.12,-445.77C49.12,-402.18 49.12,-337.12 49.12,-301.86"/>
<polygon fill="none" stroke="#63b8ff" points="45.63,-445.67 49.13,-455.67 52.63,-445.67 45.63,-445.67"/>
</a>
</g>
</g>
<!-- Node4 -->
<g id="Node000004" class="node">
<title>Node4</title>
<g id="a_Node000004"><a xlink:href="interface_w_p_r_1_1_repository_1_1_i_vehicle_repository.html" target="_top" xlink:title=" ">
<polygon fill="white" stroke="none" points="270.25,-420 104,-420 104,-132 270.25,-132 270.25,-420"/>
<text text-anchor="start" x="108" y="-406.5" font-family="Helvetica,sans-Serif" font-size="10.00">WPR.Repository.IVehicleRepository</text>
<text text-anchor="start" x="110.19" y="-390.5" font-family="Helvetica,sans-Serif" font-size="10.00">+</text>
<text text-anchor="start" x="122.38" y="-390.5" font-family="Helvetica,sans-Serif" font-size="10.00">Status</text>
<text text-anchor="start" x="110.19" y="-374.5" font-family="Helvetica,sans-Serif" font-size="10.00">+</text>
<text text-anchor="start" x="122.38" y="-374.5" font-family="Helvetica,sans-Serif" font-size="10.00">StatusCode</text>
<text text-anchor="start" x="110.19" y="-358.5" font-family="Helvetica,sans-Serif" font-size="10.00">+</text>
<text text-anchor="start" x="122.38" y="-358.5" font-family="Helvetica,sans-Serif" font-size="10.00">Message</text>
<text text-anchor="start" x="110.19" y="-342.5" font-family="Helvetica,sans-Serif" font-size="10.00">+</text>
<text text-anchor="start" x="122.38" y="-342.5" font-family="Helvetica,sans-Serif" font-size="10.00">GetVehiclePlateAsync()</text>
<text text-anchor="start" x="110.19" y="-326.5" font-family="Helvetica,sans-Serif" font-size="10.00">+</text>
<text text-anchor="start" x="122.38" y="-326.5" font-family="Helvetica,sans-Serif" font-size="10.00">GetVehicleNameAsync()</text>
<text text-anchor="start" x="110.19" y="-310.5" font-family="Helvetica,sans-Serif" font-size="10.00">+</text>
<text text-anchor="start" x="122.38" y="-310.5" font-family="Helvetica,sans-Serif" font-size="10.00">GetVehicleColorAsync()</text>
<text text-anchor="start" x="110.19" y="-294.5" font-family="Helvetica,sans-Serif" font-size="10.00">+</text>
<text text-anchor="start" x="122.38" y="-294.5" font-family="Helvetica,sans-Serif" font-size="10.00">GetFrameNumbersAsync()</text>
<text text-anchor="start" x="110.19" y="-278.5" font-family="Helvetica,sans-Serif" font-size="10.00">+</text>
<text text-anchor="start" x="122.38" y="-278.5" font-family="Helvetica,sans-Serif" font-size="10.00">GetVehicleDataAsync()</text>
<text text-anchor="start" x="110.19" y="-262.5" font-family="Helvetica,sans-Serif" font-size="10.00">+</text>
<text text-anchor="start" x="122.38" y="-262.5" font-family="Helvetica,sans-Serif" font-size="10.00">GetFrameNumberSpecifiekType</text>
<text text-anchor="start" x="122.38" y="-250.5" font-family="Helvetica,sans-Serif" font-size="10.00">Async()</text>
<text text-anchor="start" x="110.19" y="-234.5" font-family="Helvetica,sans-Serif" font-size="10.00">+</text>
<text text-anchor="start" x="122.38" y="-234.5" font-family="Helvetica,sans-Serif" font-size="10.00">HireVehicle()</text>
<text text-anchor="start" x="110.19" y="-218.5" font-family="Helvetica,sans-Serif" font-size="10.00">+</text>
<text text-anchor="start" x="122.38" y="-218.5" font-family="Helvetica,sans-Serif" font-size="10.00">CancelRental()</text>
<text text-anchor="start" x="110.19" y="-202.5" font-family="Helvetica,sans-Serif" font-size="10.00">+</text>
<text text-anchor="start" x="122.38" y="-202.5" font-family="Helvetica,sans-Serif" font-size="10.00">GetAllUserRentals()</text>
<text text-anchor="start" x="110.19" y="-186.5" font-family="Helvetica,sans-Serif" font-size="10.00">+</text>
<text text-anchor="start" x="122.38" y="-186.5" font-family="Helvetica,sans-Serif" font-size="10.00">GetAllUserRentalsDetailed()</text>
<text text-anchor="start" x="110.19" y="-170.5" font-family="Helvetica,sans-Serif" font-size="10.00">+</text>
<text text-anchor="start" x="122.38" y="-170.5" font-family="Helvetica,sans-Serif" font-size="10.00">ChangeRental()</text>
<text text-anchor="start" x="110.19" y="-154.5" font-family="Helvetica,sans-Serif" font-size="10.00">+</text>
<text text-anchor="start" x="122.38" y="-154.5" font-family="Helvetica,sans-Serif" font-size="10.00">DeleteVehicleAsync()</text>
<text text-anchor="start" x="110.19" y="-138.5" font-family="Helvetica,sans-Serif" font-size="10.00">+</text>
<text text-anchor="start" x="122.38" y="-138.5" font-family="Helvetica,sans-Serif" font-size="10.00">ChangeRepairStatus()</text>
<polygon fill="#666666" stroke="#666666" points="104,-402 104,-402 270.25,-402 270.25,-402 104,-402"/>
<polygon fill="#666666" stroke="#666666" points="104,-354 104,-354 120.38,-354 120.38,-354 104,-354"/>
<polygon fill="#666666" stroke="#666666" points="120.38,-354 120.38,-354 270.25,-354 270.25,-354 120.38,-354"/>
<polygon fill="none" stroke="#666666" points="104,-132 104,-420 270.25,-420 270.25,-132 104,-132"/>
</a>
</g>
</g>
<!-- Node4&#45;&gt;Node1 -->
<g id="edge3_Node000001_Node000004" class="edge">
<title>Node4&#45;&gt;Node1</title>
<g id="a_edge3_Node000001_Node000004"><a xlink:title=" ">
<path fill="none" stroke="#63b8ff" d="M144.6,-132.03C140.86,-119.43 137.24,-107.28 133.95,-96.22"/>
<polygon fill="none" stroke="#63b8ff" points="133.93,-96.14 128.39,-91.53 130.51,-84.64 136.05,-89.25 133.93,-96.14"/>
</a>
</g>
<text text-anchor="middle" x="183.14" y="-104.5" font-family="Helvetica,sans-Serif" font-size="10.00" fill="grey"> &#45;_vehicleRepository</text>
</g>
</g>
</svg>

<g id="navigator" transform="translate(0 0)" fill="#404254">
  <rect fill="#f2f5e9" fill-opacity="0.5" stroke="#606060" stroke-width=".5" x="0" y="0" width="60" height="60"/>
  <use id="zoomplus" xlink:href="#zoomPlus" x="17" y="9" onmousedown="handleZoom(evt,'in')"/>
  <use id="zoomminus" xlink:href="#zoomMin" x="42" y="9" onmousedown="handleZoom(evt,'out')"/>
  <use id="reset" xlink:href="#resetDef" x="30" y="36" onmousedown="handleReset()"/>
   <use id="arrowup" xlink:href="#arrowUp" x="0" y="0" onmousedown="handlePan(0,-1)"/>
  <use id="arrowright" xlink:href="#arrowRight" x="0" y="0" onmousedown="handlePan(1,0)"/>
  <use id="arrowdown" xlink:href="#arrowDown" x="0" y="0" onmousedown="handlePan(0,1)"/>
  <use id="arrowleft" xlink:href="#arrowLeft" x="0" y="0" onmousedown="handlePan(-1,0)"/>
</g>
<svg viewBox="0 0 15 15" width="100%" height="30px" preserveAspectRatio="xMaxYMin meet">
 <g id="arrow_out" transform="scale(0.3 0.3)">
  <a xlink:href="class_w_p_r_1_1_email_1_1_vehicle__coll__graph_org.svg" target="_base">
   <rect id="button" ry="5" rx="5" y="6" x="6" height="38" width="38"
        fill="#f2f5e9" fill-opacity="0.5" stroke="#606060" stroke-width="1.0"/>
   <path id="arrow"
     d="M 11.500037,31.436501 C 11.940474,20.09759 22.043105,11.32322 32.158766,21.979434 L 37.068811,17.246167 C 37.068811,17.246167 37.088388,32 37.088388,32 L 22.160133,31.978069 C 22.160133,31.978069 26.997745,27.140456 26.997745,27.140456 C 18.528582,18.264221 13.291696,25.230495 11.500037,31.436501 z"
     style="fill:#404040;"/>
  </a>
 </g>
</svg>

<style type='text/css'>
<![CDATA[
[data-mouse-over-selected='false'] { opacity: 0.7; }
[data-mouse-over-selected='true']  { opacity: 1.0; }
]]>
</style>
<script type="application/ecmascript"><![CDATA[
document.addEventListener('DOMContentLoaded', (event) => {
  highlightEdges();
  highlightAdjacentNodes();
});
]]></script>
</svg>
