<?xml version="1.0" encoding="UTF-8" standalone="no"?>
<!DOCTYPE svg PUBLIC "-//W3C//DTD SVG 1.1//EN"
 "http://www.w3.org/Graphics/SVG/1.1/DTD/svg11.dtd">
<!-- Generated by graphviz version 12.2.1 (20241206.2353)
 -->
<!-- Title: WPR.Controllers.General.SignUp.SignUpController Pages: 1 -->
<svg width="130pt" height="192pt"
 viewBox="0.00 0.00 130.00 192.00" xmlns="http://www.w3.org/2000/svg" xmlns:xlink="http://www.w3.org/1999/xlink">

<svg id="main" version="1.1" xmlns="http://www.w3.org/2000/svg" xmlns:xlink="http://www.w3.org/1999/xlink" xml:space="preserve">

<style type="text/css"><![CDATA[
.node, .edge {opacity: 0.7;}
.node.selected, .edge.selected {opacity: 1;}
.edge:hover path { stroke: red; }
.edge:hover polygon { stroke: red; fill: red; }
]]></style>
<script type="application/ecmascript" xlink:href="svg.min.js"/>
<svg id="graph" class="graph">
<g id="graph0" class="graph" transform="scale(1 1) rotate(0) translate(4 188)">
<title>WPR.Controllers.General.SignUp.SignUpController</title>
<!-- Node1 -->
<g id="Node000001" class="node">
<title>Node1</title>
<g id="a_Node000001"><a xlink:title="De SignUpController beheert het aanmaken van zowel persoonlijke als zakelijke accounts....">
<polygon fill="#999999" stroke="none" points="122,-96 0,-96 0,0 122,0 122,-96"/>
<text text-anchor="start" x="4" y="-82.5" font-family="Helvetica,sans-Serif" font-size="10.00">WPR.Controllers.General.</text>
<text text-anchor="start" x="6.25" y="-70.5" font-family="Helvetica,sans-Serif" font-size="10.00">SignUp.SignUpController</text>
<text text-anchor="start" x="5.81" y="-54.5" font-family="Helvetica,sans-Serif" font-size="10.00">&#45;</text>
<text text-anchor="start" x="14.62" y="-54.5" font-family="Helvetica,sans-Serif" font-size="10.00">_userRepository</text>
<text text-anchor="start" x="4.31" y="-38.5" font-family="Helvetica,sans-Serif" font-size="10.00">+</text>
<text text-anchor="start" x="14.62" y="-38.5" font-family="Helvetica,sans-Serif" font-size="10.00">SignUpController()</text>
<text text-anchor="start" x="4.31" y="-22.5" font-family="Helvetica,sans-Serif" font-size="10.00">+</text>
<text text-anchor="start" x="14.62" y="-22.5" font-family="Helvetica,sans-Serif" font-size="10.00">SignUp()</text>
<text text-anchor="start" x="4.31" y="-6.5" font-family="Helvetica,sans-Serif" font-size="10.00">+</text>
<text text-anchor="start" x="14.62" y="-6.5" font-family="Helvetica,sans-Serif" font-size="10.00">signUpPersonalAsync()</text>
<polygon fill="#666666" stroke="#666666" points="0,-66 0,-66 122,-66 122,-66 0,-66"/>
<polygon fill="#666666" stroke="#666666" points="0,-50 0,-50 12.62,-50 12.62,-50 0,-50"/>
<polygon fill="#666666" stroke="#666666" points="12.62,-50 12.62,-50 122,-50 122,-50 12.62,-50"/>
<polygon fill="none" stroke="#666666" points="0,0 0,-96 122,-96 122,0 0,0"/>
</a>
</g>
</g>
<!-- Node2 -->
<g id="Node000002" class="node">
<title>Node2</title>
<g id="a_Node000002"><a xlink:title=" ">
<polygon fill="white" stroke="none" points="97.25,-184 24.75,-184 24.75,-132 97.25,-132 97.25,-184"/>
<text text-anchor="start" x="28.75" y="-170.5" font-family="Helvetica,sans-Serif" font-size="10.00">ControllerBase</text>
<text text-anchor="start" x="59.5" y="-154.5" font-family="Helvetica,sans-Serif" font-size="10.00"> </text>
<text text-anchor="start" x="59.5" y="-138.5" font-family="Helvetica,sans-Serif" font-size="10.00"> </text>
<polygon fill="#666666" stroke="#666666" points="24.75,-166 24.75,-166 97.25,-166 97.25,-166 24.75,-166"/>
<polygon fill="#666666" stroke="#666666" points="24.75,-150 24.75,-150 97.25,-150 97.25,-150 24.75,-150"/>
<polygon fill="none" stroke="#666666" points="24.75,-132 24.75,-184 97.25,-184 97.25,-132 24.75,-132"/>
</a>
</g>
</g>
<!-- Node2&#45;&gt;Node1 -->
<g id="edge1_Node000001_Node000002" class="edge">
<title>Node2&#45;&gt;Node1</title>
<g id="a_edge1_Node000001_Node000002"><a xlink:title=" ">
<path fill="none" stroke="#63b8ff" d="M61,-120.93C61,-112.86 61,-104.19 61,-95.75"/>
<polygon fill="none" stroke="#63b8ff" points="57.5,-120.71 61,-130.71 64.5,-120.71 57.5,-120.71"/>
</a>
</g>
</g>
</g>
</svg>
</svg>

<style type='text/css'>
<![CDATA[
[data-mouse-over-selected='false'] { opacity: 0.7; }
[data-mouse-over-selected='true']  { opacity: 1.0; }
]]>
</style>
<script type="application/ecmascript"><![CDATA[
document.addEventListener('DOMContentLoaded', (event) => {
  highlightEdges();
  highlightAdjacentNodes();
});
]]></script>
</svg>
