<?xml version="1.0" encoding="UTF-8" standalone="no"?>
<!DOCTYPE svg PUBLIC "-//W3C//DTD SVG 1.1//EN"
 "http://www.w3.org/Graphics/SVG/1.1/DTD/svg11.dtd">
<!-- Generated by graphviz version 12.2.1 (20241206.2353)
 -->
<!-- Title: WPR.Controllers.Employee.VehicleManager.ChangeBusinessSettings.DeleteBusinessRequest Pages: 1 -->
<svg width="201pt" height="84pt"
 viewBox="0.00 0.00 201.25 84.00" xmlns="http://www.w3.org/2000/svg" xmlns:xlink="http://www.w3.org/1999/xlink">
<g id="graph0" class="graph" transform="scale(1 1) rotate(0) translate(4 80)">
<title>WPR.Controllers.Employee.VehicleManager.ChangeBusinessSettings.DeleteBusinessRequest</title>
<!-- Node1 -->
<g id="Node000001" class="node">
<title>Node1</title>
<g id="a_Node000001"><a xlink:title=" ">
<polygon fill="#999999" stroke="none" points="193.25,-76 0,-76 0,0 193.25,0 193.25,-76"/>
<text text-anchor="start" x="4" y="-62.5" font-family="Helvetica,sans-Serif" font-size="10.00">WPR.Controllers.Employee.</text>
<text text-anchor="start" x="4" y="-50.5" font-family="Helvetica,sans-Serif" font-size="10.00">VehicleManager.ChangeBusinessSettings.</text>
<text text-anchor="start" x="43.75" y="-38.5" font-family="Helvetica,sans-Serif" font-size="10.00">DeleteBusinessRequest</text>
<text text-anchor="start" x="43.12" y="-22.5" font-family="Helvetica,sans-Serif" font-size="10.00">+</text>
<text text-anchor="start" x="92.25" y="-22.5" font-family="Helvetica,sans-Serif" font-size="10.00">KvK</text>
<text text-anchor="start" x="95.12" y="-6.5" font-family="Helvetica,sans-Serif" font-size="10.00"> </text>
<polygon fill="#666666" stroke="#666666" points="0,-34 0,-34 193.25,-34 193.25,-34 0,-34"/>
<polygon fill="#666666" stroke="#666666" points="0,-18 0,-18 90.25,-18 90.25,-18 0,-18"/>
<polygon fill="#666666" stroke="#666666" points="90.25,-18 90.25,-18 193.25,-18 193.25,-18 90.25,-18"/>
<polygon fill="none" stroke="#666666" points="0,0 0,-76 193.25,-76 193.25,0 0,0"/>
</a>
</g>
</g>
</g>
</svg>
