<?xml version="1.0" encoding="UTF-8" standalone="no"?>
<!DOCTYPE svg PUBLIC "-//W3C//DTD SVG 1.1//EN"
 "http://www.w3.org/Graphics/SVG/1.1/DTD/svg11.dtd">
<!-- Generated by graphviz version 12.2.1 (20241206.2353)
 -->
<!-- Title: WPR.Controllers.General.Vehicle.VehicleController Pages: 1 -->
<!--zoomable 564 -->

<svg id="main" version="1.1" xmlns="http://www.w3.org/2000/svg" xmlns:xlink="http://www.w3.org/1999/xlink" xml:space="preserve" onload="init(evt)">

<style type="text/css"><![CDATA[
.node, .edge {opacity: 0.7;}
.node.selected, .edge.selected {opacity: 1;}
.edge:hover path { stroke: red; }
.edge:hover polygon { stroke: red; fill: red; }
]]></style>

<defs>
  <circle id="rim" cx="0" cy="0" r="7"/>
  <circle id="rim2" cx="0" cy="0" r="3.5"/>
  <g id="zoomPlus">
    <use xlink:href="#rim" fill="#404040"><set attributeName="fill" to="#808080" begin="zoomplus.mouseover" end="zoomplus.mouseout"/></use>
    <path d="M-4,0h8M0,-4v8" fill="none" stroke="white" stroke-width="1.5" pointer-events="none"/>
  </g>
  <g id="zoomMin">
    <use xlink:href="#rim" fill="#404040"><set attributeName="fill" to="#808080" begin="zoomminus.mouseover" end="zoomminus.mouseout"/></use>
    <path d="M-4,0h8" fill="none" stroke="white" stroke-width="1.5" pointer-events="none"/>
  </g>
  <g id="arrowUp" transform="translate(30 24)">
    <use xlink:href="#rim"/>
    <path pointer-events="none" fill="none" stroke="white" stroke-width="1.5" d="M0,-3.0v7 M-2.5,-0.5L0,-3.0L2.5,-0.5"/>
  </g>
  <g id="arrowRight" transform="rotate(90) translate(36 -43)">
    <use xlink:href="#rim"/>
    <path pointer-events="none" fill="none" stroke="white" stroke-width="1.5" d="M0,-3.0v7 M-2.5,-0.5L0,-3.0L2.5,-0.5"/>
  </g>
  <g id="arrowDown" transform="rotate(180) translate(-30 -48)">
    <use xlink:href="#rim"/>
    <path pointer-events="none" fill="none" stroke="white" stroke-width="1.5" d="M0,-3.0v7 M-2.5,-0.5L0,-3.0L2.5,-0.5"/>
  </g>
  <g id="arrowLeft" transform="rotate(270) translate(-36 17)">
    <use xlink:href="#rim"/>
    <path pointer-events="none" fill="none" stroke="white" stroke-width="1.5" d="M0,-3.0v7 M-2.5,-0.5L0,-3.0L2.5,-0.5"/>
  </g>
  <g id="resetDef">
    <use xlink:href="#rim2" fill="#404040"><set attributeName="fill" to="#808080" begin="reset.mouseover" end="reset.mouseout"/></use>
  </g>
</defs>
<script type="application/ecmascript">
var viewWidth = 410;
var viewHeight = 564;
var sectionId = 'dynsection-1';
</script>
<script type="application/ecmascript" xlink:href="svg.min.js"/>
<svg id="graph" class="graph">
<g id="viewport">
<title>WPR.Controllers.General.Vehicle.VehicleController</title>
<!-- Node1 -->
<g id="Node000001" class="node">
<title>Node1</title>
<g id="a_Node000001"><a xlink:title="VehicleController zorgt ervoor dat voertuiggegevens uit de backend gehaald kunnen worden.">
<polygon fill="#999999" stroke="none" points="233,-220 75.5,-220 75.5,0 233,0 233,-220"/>
<text text-anchor="start" x="97.25" y="-206.5" font-family="Helvetica,sans-Serif" font-size="10.00">WPR.Controllers.General.</text>
<text text-anchor="start" x="100.25" y="-194.5" font-family="Helvetica,sans-Serif" font-size="10.00">Vehicle.VehicleController</text>
<text text-anchor="start" x="152.75" y="-178.5" font-family="Helvetica,sans-Serif" font-size="10.00"> </text>
<text text-anchor="start" x="79.5" y="-162.5" font-family="Helvetica,sans-Serif" font-size="10.00">+</text>
<text text-anchor="start" x="89.5" y="-162.5" font-family="Helvetica,sans-Serif" font-size="10.00">VehicleController()</text>
<text text-anchor="start" x="79.5" y="-146.5" font-family="Helvetica,sans-Serif" font-size="10.00">+</text>
<text text-anchor="start" x="89.5" y="-146.5" font-family="Helvetica,sans-Serif" font-size="10.00">GetVehicleName()</text>
<text text-anchor="start" x="79.5" y="-130.5" font-family="Helvetica,sans-Serif" font-size="10.00">+</text>
<text text-anchor="start" x="89.5" y="-130.5" font-family="Helvetica,sans-Serif" font-size="10.00">GetVehicleImageAsync()</text>
<text text-anchor="start" x="79.5" y="-114.5" font-family="Helvetica,sans-Serif" font-size="10.00">+</text>
<text text-anchor="start" x="89.5" y="-114.5" font-family="Helvetica,sans-Serif" font-size="10.00">GetVehiclePriceAsync()</text>
<text text-anchor="start" x="79.5" y="-98.5" font-family="Helvetica,sans-Serif" font-size="10.00">+</text>
<text text-anchor="start" x="89.5" y="-98.5" font-family="Helvetica,sans-Serif" font-size="10.00">GetAllVehiclesAsync()</text>
<text text-anchor="start" x="79.5" y="-82.5" font-family="Helvetica,sans-Serif" font-size="10.00">+</text>
<text text-anchor="start" x="89.5" y="-82.5" font-family="Helvetica,sans-Serif" font-size="10.00">GetTypeOfVehiclesAsync()</text>
<text text-anchor="start" x="79.5" y="-66.5" font-family="Helvetica,sans-Serif" font-size="10.00">+</text>
<text text-anchor="start" x="89.5" y="-66.5" font-family="Helvetica,sans-Serif" font-size="10.00">GetFrameNumbersAsync()</text>
<text text-anchor="start" x="79.5" y="-50.5" font-family="Helvetica,sans-Serif" font-size="10.00">+</text>
<text text-anchor="start" x="89.5" y="-50.5" font-family="Helvetica,sans-Serif" font-size="10.00">GetFrameNumbersSpecificType</text>
<text text-anchor="start" x="89.5" y="-38.5" font-family="Helvetica,sans-Serif" font-size="10.00">Async()</text>
<text text-anchor="start" x="79.5" y="-22.5" font-family="Helvetica,sans-Serif" font-size="10.00">+</text>
<text text-anchor="start" x="89.5" y="-22.5" font-family="Helvetica,sans-Serif" font-size="10.00">GetVehicleData()</text>
<text text-anchor="start" x="79.5" y="-6.5" font-family="Helvetica,sans-Serif" font-size="10.00">+</text>
<text text-anchor="start" x="89.5" y="-6.5" font-family="Helvetica,sans-Serif" font-size="10.00">DeleteVehicleAsync()</text>
<polygon fill="#666666" stroke="#666666" points="75.5,-190 75.5,-190 233,-190 233,-190 75.5,-190"/>
<polygon fill="#666666" stroke="#666666" points="75.5,-174 75.5,-174 233,-174 233,-174 75.5,-174"/>
<polygon fill="none" stroke="#666666" points="75.5,0 75.5,-220 233,-220 233,0 75.5,0"/>
</a>
</g>
</g>
<!-- Node2 -->
<g id="Node000002" class="node">
<title>Node2</title>
<g id="a_Node000002"><a xlink:title=" ">
<polygon fill="white" stroke="none" points="72.5,-438 0,-438 0,-386 72.5,-386 72.5,-438"/>
<text text-anchor="start" x="4" y="-424.5" font-family="Helvetica,sans-Serif" font-size="10.00">ControllerBase</text>
<text text-anchor="start" x="34.75" y="-408.5" font-family="Helvetica,sans-Serif" font-size="10.00"> </text>
<text text-anchor="start" x="34.75" y="-392.5" font-family="Helvetica,sans-Serif" font-size="10.00"> </text>
<polygon fill="#666666" stroke="#666666" points="0,-420 0,-420 72.5,-420 72.5,-420 0,-420"/>
<polygon fill="#666666" stroke="#666666" points="0,-404 0,-404 72.5,-404 72.5,-404 0,-404"/>
<polygon fill="none" stroke="#666666" points="0,-386 0,-438 72.5,-438 72.5,-386 0,-386"/>
</a>
</g>
</g>
<!-- Node2&#45;&gt;Node1 -->
<g id="edge1_Node000001_Node000002" class="edge">
<title>Node2&#45;&gt;Node1</title>
<g id="a_edge1_Node000001_Node000002"><a xlink:title=" ">
<path fill="none" stroke="#63b8ff" d="M46.1,-375.22C54.48,-346.02 67.33,-303.88 81.25,-268 87.39,-252.17 94.38,-235.67 101.54,-219.59"/>
<polygon fill="none" stroke="#63b8ff" points="42.79,-374.09 43.43,-384.66 49.52,-376 42.79,-374.09"/>
</a>
</g>
</g>
<!-- Node3 -->
<g id="Node000003" class="node">
<title>Node3</title>
<g id="a_Node000003"><a xlink:href="interface_w_p_r_1_1_database_1_1_i_connector.html" target="_top" xlink:title="Connector class om verbinding te maken met de database, maakt gebruik van de connectie strings die zi...">
<polygon fill="white" stroke="none" points="218.25,-438 90.25,-438 90.25,-386 218.25,-386 218.25,-438"/>
<text text-anchor="start" x="94.25" y="-424.5" font-family="Helvetica,sans-Serif" font-size="10.00">WPR.Database.IConnector</text>
<text text-anchor="start" x="152.75" y="-408.5" font-family="Helvetica,sans-Serif" font-size="10.00"> </text>
<text text-anchor="start" x="97.38" y="-392.5" font-family="Helvetica,sans-Serif" font-size="10.00">+</text>
<text text-anchor="start" x="110.5" y="-392.5" font-family="Helvetica,sans-Serif" font-size="10.00">CreateDbConnection()</text>
<polygon fill="#666666" stroke="#666666" points="90.25,-420 90.25,-420 218.25,-420 218.25,-420 90.25,-420"/>
<polygon fill="#666666" stroke="#666666" points="90.25,-404 90.25,-404 218.25,-404 218.25,-404 90.25,-404"/>
<polygon fill="none" stroke="#666666" points="90.25,-386 90.25,-438 218.25,-438 218.25,-386 90.25,-386"/>
</a>
</g>
</g>
<!-- Node3&#45;&gt;Node1 -->
<g id="edge2_Node000001_Node000003" class="edge">
<title>Node3&#45;&gt;Node1</title>
<g id="a_edge2_Node000001_Node000003"><a xlink:title=" ">
<path fill="none" stroke="#63b8ff" d="M154.25,-386.19C154.25,-352.46 154.25,-289.76 154.25,-232.72"/>
<polygon fill="none" stroke="#63b8ff" points="154.25,-232.8 150.25,-226.8 154.25,-220.8 158.25,-226.8 154.25,-232.8"/>
</a>
</g>
<text text-anchor="middle" x="181.25" y="-240.5" font-family="Helvetica,sans-Serif" font-size="10.00" fill="grey"> &#45;_connector</text>
</g>
<!-- Node4 -->
<g id="Node000004" class="node">
<title>Node4</title>
<g id="a_Node000004"><a xlink:href="interface_w_p_r_1_1_repository_1_1_i_vehicle_repository.html" target="_top" xlink:title=" ">
<polygon fill="white" stroke="none" points="402.38,-556 236.12,-556 236.12,-268 402.38,-268 402.38,-556"/>
<text text-anchor="start" x="240.12" y="-542.5" font-family="Helvetica,sans-Serif" font-size="10.00">WPR.Repository.IVehicleRepository</text>
<text text-anchor="start" x="242.31" y="-526.5" font-family="Helvetica,sans-Serif" font-size="10.00">+</text>
<text text-anchor="start" x="254.5" y="-526.5" font-family="Helvetica,sans-Serif" font-size="10.00">Status</text>
<text text-anchor="start" x="242.31" y="-510.5" font-family="Helvetica,sans-Serif" font-size="10.00">+</text>
<text text-anchor="start" x="254.5" y="-510.5" font-family="Helvetica,sans-Serif" font-size="10.00">StatusCode</text>
<text text-anchor="start" x="242.31" y="-494.5" font-family="Helvetica,sans-Serif" font-size="10.00">+</text>
<text text-anchor="start" x="254.5" y="-494.5" font-family="Helvetica,sans-Serif" font-size="10.00">Message</text>
<text text-anchor="start" x="242.31" y="-478.5" font-family="Helvetica,sans-Serif" font-size="10.00">+</text>
<text text-anchor="start" x="254.5" y="-478.5" font-family="Helvetica,sans-Serif" font-size="10.00">GetVehiclePlateAsync()</text>
<text text-anchor="start" x="242.31" y="-462.5" font-family="Helvetica,sans-Serif" font-size="10.00">+</text>
<text text-anchor="start" x="254.5" y="-462.5" font-family="Helvetica,sans-Serif" font-size="10.00">GetVehicleNameAsync()</text>
<text text-anchor="start" x="242.31" y="-446.5" font-family="Helvetica,sans-Serif" font-size="10.00">+</text>
<text text-anchor="start" x="254.5" y="-446.5" font-family="Helvetica,sans-Serif" font-size="10.00">GetVehicleColorAsync()</text>
<text text-anchor="start" x="242.31" y="-430.5" font-family="Helvetica,sans-Serif" font-size="10.00">+</text>
<text text-anchor="start" x="254.5" y="-430.5" font-family="Helvetica,sans-Serif" font-size="10.00">GetFrameNumbersAsync()</text>
<text text-anchor="start" x="242.31" y="-414.5" font-family="Helvetica,sans-Serif" font-size="10.00">+</text>
<text text-anchor="start" x="254.5" y="-414.5" font-family="Helvetica,sans-Serif" font-size="10.00">GetVehicleDataAsync()</text>
<text text-anchor="start" x="242.31" y="-398.5" font-family="Helvetica,sans-Serif" font-size="10.00">+</text>
<text text-anchor="start" x="254.5" y="-398.5" font-family="Helvetica,sans-Serif" font-size="10.00">GetFrameNumberSpecifiekType</text>
<text text-anchor="start" x="254.5" y="-386.5" font-family="Helvetica,sans-Serif" font-size="10.00">Async()</text>
<text text-anchor="start" x="242.31" y="-370.5" font-family="Helvetica,sans-Serif" font-size="10.00">+</text>
<text text-anchor="start" x="254.5" y="-370.5" font-family="Helvetica,sans-Serif" font-size="10.00">HireVehicle()</text>
<text text-anchor="start" x="242.31" y="-354.5" font-family="Helvetica,sans-Serif" font-size="10.00">+</text>
<text text-anchor="start" x="254.5" y="-354.5" font-family="Helvetica,sans-Serif" font-size="10.00">CancelRental()</text>
<text text-anchor="start" x="242.31" y="-338.5" font-family="Helvetica,sans-Serif" font-size="10.00">+</text>
<text text-anchor="start" x="254.5" y="-338.5" font-family="Helvetica,sans-Serif" font-size="10.00">GetAllUserRentals()</text>
<text text-anchor="start" x="242.31" y="-322.5" font-family="Helvetica,sans-Serif" font-size="10.00">+</text>
<text text-anchor="start" x="254.5" y="-322.5" font-family="Helvetica,sans-Serif" font-size="10.00">GetAllUserRentalsDetailed()</text>
<text text-anchor="start" x="242.31" y="-306.5" font-family="Helvetica,sans-Serif" font-size="10.00">+</text>
<text text-anchor="start" x="254.5" y="-306.5" font-family="Helvetica,sans-Serif" font-size="10.00">ChangeRental()</text>
<text text-anchor="start" x="242.31" y="-290.5" font-family="Helvetica,sans-Serif" font-size="10.00">+</text>
<text text-anchor="start" x="254.5" y="-290.5" font-family="Helvetica,sans-Serif" font-size="10.00">DeleteVehicleAsync()</text>
<text text-anchor="start" x="242.31" y="-274.5" font-family="Helvetica,sans-Serif" font-size="10.00">+</text>
<text text-anchor="start" x="254.5" y="-274.5" font-family="Helvetica,sans-Serif" font-size="10.00">ChangeRepairStatus()</text>
<polygon fill="#666666" stroke="#666666" points="236.12,-538 236.12,-538 402.38,-538 402.38,-538 236.12,-538"/>
<polygon fill="#666666" stroke="#666666" points="236.12,-490 236.12,-490 252.5,-490 252.5,-490 236.12,-490"/>
<polygon fill="#666666" stroke="#666666" points="252.5,-490 252.5,-490 402.38,-490 402.38,-490 252.5,-490"/>
<polygon fill="none" stroke="#666666" points="236.12,-268 236.12,-556 402.38,-556 402.38,-268 236.12,-268"/>
</a>
</g>
</g>
<!-- Node4&#45;&gt;Node1 -->
<g id="edge3_Node000001_Node000004" class="edge">
<title>Node4&#45;&gt;Node1</title>
<g id="a_edge3_Node000001_Node000004"><a xlink:title=" ">
<path fill="none" stroke="#63b8ff" d="M240.62,-268.03C233.75,-255.55 226.85,-243.01 220.11,-230.74"/>
<polygon fill="none" stroke="#63b8ff" points="220.18,-230.88 213.79,-227.55 214.4,-220.36 220.8,-223.69 220.18,-230.88"/>
</a>
</g>
<text text-anchor="middle" x="271.5" y="-240.5" font-family="Helvetica,sans-Serif" font-size="10.00" fill="grey"> &#45;_vehicleRepository</text>
</g>
</g>
</svg>

<g id="navigator" transform="translate(0 0)" fill="#404254">
  <rect fill="#f2f5e9" fill-opacity="0.5" stroke="#606060" stroke-width=".5" x="0" y="0" width="60" height="60"/>
  <use id="zoomplus" xlink:href="#zoomPlus" x="17" y="9" onmousedown="handleZoom(evt,'in')"/>
  <use id="zoomminus" xlink:href="#zoomMin" x="42" y="9" onmousedown="handleZoom(evt,'out')"/>
  <use id="reset" xlink:href="#resetDef" x="30" y="36" onmousedown="handleReset()"/>
   <use id="arrowup" xlink:href="#arrowUp" x="0" y="0" onmousedown="handlePan(0,-1)"/>
  <use id="arrowright" xlink:href="#arrowRight" x="0" y="0" onmousedown="handlePan(1,0)"/>
  <use id="arrowdown" xlink:href="#arrowDown" x="0" y="0" onmousedown="handlePan(0,1)"/>
  <use id="arrowleft" xlink:href="#arrowLeft" x="0" y="0" onmousedown="handlePan(-1,0)"/>
</g>
<svg viewBox="0 0 15 15" width="100%" height="30px" preserveAspectRatio="xMaxYMin meet">
 <g id="arrow_out" transform="scale(0.3 0.3)">
  <a xlink:href="class_w_p_r_1_1_controllers_1_1_general_1_1_vehicle_1_1_vehicle_controller__coll__graph_org.svg" target="_base">
   <rect id="button" ry="5" rx="5" y="6" x="6" height="38" width="38"
        fill="#f2f5e9" fill-opacity="0.5" stroke="#606060" stroke-width="1.0"/>
   <path id="arrow"
     d="M 11.500037,31.436501 C 11.940474,20.09759 22.043105,11.32322 32.158766,21.979434 L 37.068811,17.246167 C 37.068811,17.246167 37.088388,32 37.088388,32 L 22.160133,31.978069 C 22.160133,31.978069 26.997745,27.140456 26.997745,27.140456 C 18.528582,18.264221 13.291696,25.230495 11.500037,31.436501 z"
     style="fill:#404040;"/>
  </a>
 </g>
</svg>

<style type='text/css'>
<![CDATA[
[data-mouse-over-selected='false'] { opacity: 0.7; }
[data-mouse-over-selected='true']  { opacity: 1.0; }
]]>
</style>
<script type="application/ecmascript"><![CDATA[
document.addEventListener('DOMContentLoaded', (event) => {
  highlightEdges();
  highlightAdjacentNodes();
});
]]></script>
</svg>
