<?xml version="1.0" encoding="UTF-8" standalone="no"?>
<!DOCTYPE svg PUBLIC "-//W3C//DTD SVG 1.1//EN"
 "http://www.w3.org/Graphics/SVG/1.1/DTD/svg11.dtd">
<!-- Generated by graphviz version 12.2.1 (20241206.2353)
 -->
<!-- Title: WPR.Utils.EmailChecker.IsValidEmail Pages: 1 -->
<svg width="755pt" height="152pt"
 viewBox="0.00 0.00 754.50 152.00" xmlns="http://www.w3.org/2000/svg" xmlns:xlink="http://www.w3.org/1999/xlink">
<g id="graph0" class="graph" transform="scale(1 1) rotate(0) translate(4 148)">
<title>WPR.Utils.EmailChecker.IsValidEmail</title>
<!-- Node1 -->
<g id="Node000001" class="node">
<title>Node1</title>
<g id="a_Node000001"><a xlink:title=" ">
<polygon fill="#999999" stroke="#666666" points="746.5,-94 607.5,-94 607.5,-62 746.5,-62 746.5,-94"/>
<text text-anchor="start" x="615.5" y="-80.5" font-family="Helvetica,sans-Serif" font-size="10.00">WPR.Utils.EmailChecker.Is</text>
<text text-anchor="middle" x="677" y="-68.5" font-family="Helvetica,sans-Serif" font-size="10.00">ValidEmail</text>
</a>
</g>
</g>
<!-- Node2 -->
<g id="Node000002" class="node">
<title>Node2</title>
<g id="a_Node000002"><a xlink:href="class_w_p_r_1_1_repository_1_1_user_repository.html#ae8b7a3c517ffe6cb1b85eee60e5b2292" target="_top" xlink:title="AddCustomerChecks kijkt of alle ingevoerde velden geldig zijn. Als een check faalt falen alle checks.">
<polygon fill="white" stroke="#666666" points="566.25,-144 403.25,-144 403.25,-112 566.25,-112 566.25,-144"/>
<text text-anchor="start" x="411.25" y="-130.5" font-family="Helvetica,sans-Serif" font-size="10.00">WPR.Repository.UserRepository.</text>
<text text-anchor="middle" x="484.75" y="-118.5" font-family="Helvetica,sans-Serif" font-size="10.00">AddCustomerChecks</text>
</a>
</g>
</g>
<!-- Node1&#45;&gt;Node2 -->
<g id="edge1_Node000001_Node000002" class="edge">
<title>Node1&#45;&gt;Node2</title>
<g id="a_edge1_Node000001_Node000002"><a xlink:title=" ">
<path fill="none" stroke="#63b8ff" d="M602.48,-97.32C584.6,-102.02 565.66,-107 548.35,-111.55"/>
<polygon fill="#63b8ff" stroke="#63b8ff" points="603.2,-100.75 611.98,-94.83 601.42,-93.98 603.2,-100.75"/>
</a>
</g>
</g>
<!-- Node5 -->
<g id="Node000005" class="node">
<title>Node5</title>
<g id="a_Node000005"><a xlink:href="class_w_p_r_1_1_repository_1_1_user_repository.html#a188ce6aab8b95ea246623cc80b520714" target="_top" xlink:title=" ">
<polygon fill="white" stroke="#666666" points="566.25,-94 403.25,-94 403.25,-62 566.25,-62 566.25,-94"/>
<text text-anchor="start" x="411.25" y="-80.5" font-family="Helvetica,sans-Serif" font-size="10.00">WPR.Repository.UserRepository.</text>
<text text-anchor="middle" x="484.75" y="-68.5" font-family="Helvetica,sans-Serif" font-size="10.00">AddPersonalCustomer</text>
</a>
</g>
</g>
<!-- Node1&#45;&gt;Node5 -->
<g id="edge5_Node000001_Node000005" class="edge">
<title>Node1&#45;&gt;Node5</title>
<g id="a_edge5_Node000001_Node000005"><a xlink:title=" ">
<path fill="none" stroke="#63b8ff" d="M595.77,-78C586.07,-78 576.15,-78 566.43,-78"/>
<polygon fill="#63b8ff" stroke="#63b8ff" points="595.53,-81.5 605.53,-78 595.53,-74.5 595.53,-81.5"/>
</a>
</g>
</g>
<!-- Node6 -->
<g id="Node000006" class="node">
<title>Node6</title>
<g id="a_Node000006"><a xlink:href="class_w_p_r_1_1_controllers_1_1_employee_1_1_back_office_1_1sign_up_staff_1_1_sign_up_staff_controller.html#a91b241351193754ce64072141596fdc0" target="_top" xlink:title="Car and All medewerkers / Vehicle Managers kunnen hier aangemaakt worden. Mocht het emailadres al bes...">
<polygon fill="white" stroke="#666666" points="571.5,-44 398,-44 398,0 571.5,0 571.5,-44"/>
<text text-anchor="start" x="406" y="-30.5" font-family="Helvetica,sans-Serif" font-size="10.00">WPR.Controllers.Employee.</text>
<text text-anchor="start" x="406" y="-18.5" font-family="Helvetica,sans-Serif" font-size="10.00">BackOffice.signUpStaff.SignUpStaff</text>
<text text-anchor="middle" x="484.75" y="-6.5" font-family="Helvetica,sans-Serif" font-size="10.00">Controller.SignUpStaff</text>
</a>
</g>
</g>
<!-- Node1&#45;&gt;Node6 -->
<g id="edge6_Node000001_Node000006" class="edge">
<title>Node1&#45;&gt;Node6</title>
<g id="a_edge6_Node000001_Node000006"><a xlink:title=" ">
<path fill="none" stroke="#63b8ff" d="M609.05,-58.29C593.79,-53.8 577.46,-48.99 561.85,-44.4"/>
<polygon fill="#63b8ff" stroke="#63b8ff" points="607.91,-61.61 618.5,-61.07 609.89,-54.89 607.91,-61.61"/>
</a>
</g>
</g>
<!-- Node3 -->
<g id="Node000003" class="node">
<title>Node3</title>
<g id="a_Node000003"><a xlink:href="class_w_p_r_1_1_repository_1_1_user_repository.html#a688723c1fb3385274f13ba0e3ba78da8" target="_top" xlink:title="AddCustomer krijgt SignUpRequestCustomer binnen en SignUpRequestCustomerPrivate. Elk account heeft al...">
<polygon fill="white" stroke="#666666" points="163,-144 0,-144 0,-112 163,-112 163,-144"/>
<text text-anchor="start" x="8" y="-130.5" font-family="Helvetica,sans-Serif" font-size="10.00">WPR.Repository.UserRepository.</text>
<text text-anchor="middle" x="81.5" y="-118.5" font-family="Helvetica,sans-Serif" font-size="10.00">AddCustomer</text>
</a>
</g>
</g>
<!-- Node2&#45;&gt;Node3 -->
<g id="edge2_Node000002_Node000003" class="edge">
<title>Node2&#45;&gt;Node3</title>
<g id="a_edge2_Node000002_Node000003"><a xlink:title=" ">
<path fill="none" stroke="#63b8ff" d="M391.62,-130.51C381.63,-130.71 371.6,-130.88 362,-131 289.56,-131.89 271.44,-131.93 199,-131 187.47,-130.85 175.3,-130.62 163.34,-130.35"/>
<polygon fill="#63b8ff" stroke="#63b8ff" points="391.44,-134.02 401.36,-130.3 391.29,-127.02 391.44,-134.02"/>
</a>
</g>
</g>
<!-- Node4 -->
<g id="Node000004" class="node">
<title>Node4</title>
<g id="a_Node000004"><a xlink:href="class_w_p_r_1_1_repository_1_1_user_repository.html#a4fe2a09bb575fb8d9510828ef5ad9813" target="_top" xlink:title="AddPrivateCustomerDetails zorgt ervoor dat alle extra details van particuliere huurders toegevoegd wo...">
<polygon fill="white" stroke="#666666" points="362,-122 199,-122 199,-90 362,-90 362,-122"/>
<text text-anchor="start" x="207" y="-108.5" font-family="Helvetica,sans-Serif" font-size="10.00">WPR.Repository.UserRepository.</text>
<text text-anchor="middle" x="280.5" y="-96.5" font-family="Helvetica,sans-Serif" font-size="10.00">AddPrivateCustomerDetails</text>
</a>
</g>
</g>
<!-- Node2&#45;&gt;Node4 -->
<g id="edge3_Node000002_Node000004" class="edge">
<title>Node2&#45;&gt;Node4</title>
<g id="a_edge3_Node000002_Node000004"><a xlink:title=" ">
<path fill="none" stroke="#63b8ff" d="M391.52,-117.97C381.73,-116.9 371.82,-115.83 362.18,-114.78"/>
<polygon fill="#63b8ff" stroke="#63b8ff" points="391.12,-121.44 401.44,-119.05 391.88,-114.49 391.12,-121.44"/>
</a>
</g>
</g>
<!-- Node4&#45;&gt;Node3 -->
<g id="edge4_Node000004_Node000003" class="edge">
<title>Node4&#45;&gt;Node3</title>
<g id="a_edge4_Node000004_Node000003"><a xlink:title=" ">
<path fill="none" stroke="#63b8ff" d="M187.32,-116.29C179.36,-117.18 171.35,-118.08 163.48,-118.96"/>
<polygon fill="#63b8ff" stroke="#63b8ff" points="187.47,-119.8 197.02,-115.21 186.69,-112.84 187.47,-119.8"/>
</a>
</g>
</g>
</g>
</svg>
