<?xml version="1.0" encoding="UTF-8" standalone="no"?>
<!DOCTYPE svg PUBLIC "-//W3C//DTD SVG 1.1//EN"
 "http://www.w3.org/Graphics/SVG/1.1/DTD/svg11.dtd">
<!-- Generated by graphviz version 12.2.1 (20241206.2353)
 -->
<!-- Title: WPR.Services.EmailService.CreateSmtpClient Pages: 1 -->
<svg width="357pt" height="228pt"
 viewBox="0.00 0.00 356.50 228.00" xmlns="http://www.w3.org/2000/svg" xmlns:xlink="http://www.w3.org/1999/xlink">

<svg id="main" version="1.1" xmlns="http://www.w3.org/2000/svg" xmlns:xlink="http://www.w3.org/1999/xlink" xml:space="preserve">

<style type="text/css"><![CDATA[
.node, .edge {opacity: 0.7;}
.node.selected, .edge.selected {opacity: 1;}
.edge:hover path { stroke: red; }
.edge:hover polygon { stroke: red; fill: red; }
]]></style>
<script type="application/ecmascript" xlink:href="svg.min.js"/>
<svg id="graph" class="graph">
<g id="graph0" class="graph" transform="scale(1 1) rotate(0) translate(4 224)">
<title>WPR.Services.EmailService.CreateSmtpClient</title>
<!-- Node1 -->
<g id="Node000001" class="node">
<title>Node1</title>
<g id="a_Node000001"><a xlink:title="Creëert en retourneert een SMTP&#45;client met de benodigde instellingen.">
<polygon fill="#999999" stroke="#666666" points="348.5,-132 203.5,-132 203.5,-100 348.5,-100 348.5,-132"/>
<text text-anchor="start" x="211.5" y="-118.5" font-family="Helvetica,sans-Serif" font-size="10.00">WPR.Services.EmailService.</text>
<text text-anchor="middle" x="276" y="-106.5" font-family="Helvetica,sans-Serif" font-size="10.00">CreateSmtpClient</text>
</a>
</g>
</g>
<!-- Node2 -->
<g id="Node000002" class="node">
<title>Node2</title>
<g id="a_Node000002"><a xlink:href="class_w_p_r_1_1_services_1_1_email_service.html#a7da62c5a38ba1aa9eaa38767c022c42a" target="_top" xlink:title="Verstuurt een e&#45;mail met de opgegeven ontvanger, onderwerp en inhoud.">
<polygon fill="white" stroke="#666666" points="167.5,-220 0,-220 0,-200 167.5,-200 167.5,-220"/>
<text text-anchor="middle" x="83.75" y="-206.5" font-family="Helvetica,sans-Serif" font-size="10.00">WPR.Services.EmailService.Send</text>
</a>
</g>
</g>
<!-- Node1&#45;&gt;Node2 -->
<g id="edge1_Node000001_Node000002" class="edge">
<title>Node1&#45;&gt;Node2</title>
<g id="a_edge1_Node000001_Node000002"><a xlink:title=" ">
<path fill="none" stroke="#63b8ff" d="M247.7,-139.5C226.98,-156.19 197.09,-177.88 167.5,-191 159.82,-194.41 151.46,-197.24 143.1,-199.58"/>
<polygon fill="#63b8ff" stroke="#63b8ff" points="249.87,-142.25 255.38,-133.2 245.43,-136.84 249.87,-142.25"/>
</a>
</g>
</g>
<!-- Node3 -->
<g id="Node000003" class="node">
<title>Node3</title>
<g id="a_Node000003"><a xlink:href="class_w_p_r_1_1_services_1_1_email_service.html#a2921ddfbad60ba40018a722be5a0c0c6" target="_top" xlink:title="Verstuurt een beoordelingsmail voor een bedrijfsaccount aanvraag naar het opgegeven e&#45;mailadres.">
<polygon fill="white" stroke="#666666" points="156.25,-182 11.25,-182 11.25,-150 156.25,-150 156.25,-182"/>
<text text-anchor="start" x="19.25" y="-168.5" font-family="Helvetica,sans-Serif" font-size="10.00">WPR.Services.EmailService.</text>
<text text-anchor="middle" x="83.75" y="-156.5" font-family="Helvetica,sans-Serif" font-size="10.00">SendBusinessReviewEmail</text>
</a>
</g>
</g>
<!-- Node1&#45;&gt;Node3 -->
<g id="edge2_Node000001_Node000003" class="edge">
<title>Node1&#45;&gt;Node3</title>
<g id="a_edge2_Node000001_Node000003"><a xlink:title=" ">
<path fill="none" stroke="#63b8ff" d="M201.48,-135.32C183.6,-140.02 164.66,-145 147.35,-149.55"/>
<polygon fill="#63b8ff" stroke="#63b8ff" points="202.2,-138.75 210.98,-132.83 200.42,-131.98 202.2,-138.75"/>
</a>
</g>
</g>
<!-- Node4 -->
<g id="Node000004" class="node">
<title>Node4</title>
<g id="a_Node000004"><a xlink:href="class_w_p_r_1_1_services_1_1_email_service.html#ab96c557f8a51cc79d18b99b891238d07" target="_top" xlink:title="Verstuurt een bevestigingsmail voor een bedrijfsaccount aanvraag.">
<polygon fill="white" stroke="#666666" points="163.38,-132 4.12,-132 4.12,-100 163.38,-100 163.38,-132"/>
<text text-anchor="start" x="12.12" y="-118.5" font-family="Helvetica,sans-Serif" font-size="10.00">WPR.Services.EmailService.</text>
<text text-anchor="middle" x="83.75" y="-106.5" font-family="Helvetica,sans-Serif" font-size="10.00">SendConfirmationEmailBusiness</text>
</a>
</g>
</g>
<!-- Node1&#45;&gt;Node4 -->
<g id="edge3_Node000001_Node000004" class="edge">
<title>Node1&#45;&gt;Node4</title>
<g id="a_edge3_Node000001_Node000004"><a xlink:title=" ">
<path fill="none" stroke="#63b8ff" d="M191.82,-116C182.5,-116 173.03,-116 163.78,-116"/>
<polygon fill="#63b8ff" stroke="#63b8ff" points="191.56,-119.5 201.56,-116 191.56,-112.5 191.56,-119.5"/>
</a>
</g>
</g>
<!-- Node5 -->
<g id="Node000005" class="node">
<title>Node5</title>
<g id="a_Node000005"><a xlink:href="class_w_p_r_1_1_services_1_1_email_service.html#a23aed78b7ecd45ab31ca9acb6ce78b5e" target="_top" xlink:title="Verstuurt een huurovereenkomst bevestigingsmail naar de opgegeven ontvanger.">
<polygon fill="white" stroke="#666666" points="156.25,-82 11.25,-82 11.25,-50 156.25,-50 156.25,-82"/>
<text text-anchor="start" x="19.25" y="-68.5" font-family="Helvetica,sans-Serif" font-size="10.00">WPR.Services.EmailService.</text>
<text text-anchor="middle" x="83.75" y="-56.5" font-family="Helvetica,sans-Serif" font-size="10.00">SendRentalConfirmMail</text>
</a>
</g>
</g>
<!-- Node1&#45;&gt;Node5 -->
<g id="edge4_Node000001_Node000005" class="edge">
<title>Node1&#45;&gt;Node5</title>
<g id="a_edge4_Node000001_Node000005"><a xlink:title=" ">
<path fill="none" stroke="#63b8ff" d="M201.48,-96.68C183.6,-91.98 164.66,-87 147.35,-82.45"/>
<polygon fill="#63b8ff" stroke="#63b8ff" points="200.42,-100.02 210.98,-99.17 202.2,-93.25 200.42,-100.02"/>
</a>
</g>
</g>
<!-- Node6 -->
<g id="Node000006" class="node">
<title>Node6</title>
<g id="a_Node000006"><a xlink:href="class_w_p_r_1_1_services_1_1_email_service.html#a00a227fa3bbc1b22634908be5be363ef" target="_top" xlink:title="Verstuurt een welkomst e&#45;mail naar het opgegeven e&#45;mailadres.">
<polygon fill="white" stroke="#666666" points="156.25,-32 11.25,-32 11.25,0 156.25,0 156.25,-32"/>
<text text-anchor="start" x="19.25" y="-18.5" font-family="Helvetica,sans-Serif" font-size="10.00">WPR.Services.EmailService.</text>
<text text-anchor="middle" x="83.75" y="-6.5" font-family="Helvetica,sans-Serif" font-size="10.00">SendWelcomeEmail</text>
</a>
</g>
</g>
<!-- Node1&#45;&gt;Node6 -->
<g id="edge5_Node000001_Node000006" class="edge">
<title>Node1&#45;&gt;Node6</title>
<g id="a_edge5_Node000001_Node000006"><a xlink:title=" ">
<path fill="none" stroke="#63b8ff" d="M246.66,-92.49C225.84,-76.17 196.27,-54.94 167.5,-41 161.02,-37.86 154.06,-35.02 147.03,-32.47"/>
<polygon fill="#63b8ff" stroke="#63b8ff" points="244.4,-95.15 254.4,-98.65 248.76,-89.68 244.4,-95.15"/>
</a>
</g>
</g>
</g>
</svg>
</svg>

<style type='text/css'>
<![CDATA[
[data-mouse-over-selected='false'] { opacity: 0.7; }
[data-mouse-over-selected='true']  { opacity: 1.0; }
]]>
</style>
<script type="application/ecmascript"><![CDATA[
document.addEventListener('DOMContentLoaded', (event) => {
  highlightEdges();
  highlightAdjacentNodes();
});
]]></script>
</svg>
