<?xml version="1.0" encoding="UTF-8" standalone="no"?>
<!DOCTYPE svg PUBLIC "-//W3C//DTD SVG 1.1//EN"
 "http://www.w3.org/Graphics/SVG/1.1/DTD/svg11.dtd">
<!-- Generated by graphviz version 12.2.1 (20241206.2353)
 -->
<!-- Title: WPR.Controllers.General.Vehicle.VehicleController Pages: 1 -->
<svg width="410pt" height="564pt"
 viewBox="0.00 0.00 410.38 564.00" xmlns="http://www.w3.org/2000/svg" xmlns:xlink="http://www.w3.org/1999/xlink">
<g id="graph0" class="graph" transform="scale(1 1) rotate(0) translate(4 560)">
<title>WPR.Controllers.General.Vehicle.VehicleController</title>
<!-- Node1 -->
<g id="Node000001" class="node">
<title>Node1</title>
<g id="a_Node000001"><a xlink:title="VehicleController zorgt ervoor dat voertuiggegevens uit de backend gehaald kunnen worden.">
<polygon fill="#999999" stroke="none" points="233,-220 75.5,-220 75.5,0 233,0 233,-220"/>
<text text-anchor="start" x="97.25" y="-206.5" font-family="Helvetica,sans-Serif" font-size="10.00">WPR.Controllers.General.</text>
<text text-anchor="start" x="100.25" y="-194.5" font-family="Helvetica,sans-Serif" font-size="10.00">Vehicle.VehicleController</text>
<text text-anchor="start" x="152.75" y="-178.5" font-family="Helvetica,sans-Serif" font-size="10.00"> </text>
<text text-anchor="start" x="79.5" y="-162.5" font-family="Helvetica,sans-Serif" font-size="10.00">+</text>
<text text-anchor="start" x="89.5" y="-162.5" font-family="Helvetica,sans-Serif" font-size="10.00">VehicleController()</text>
<text text-anchor="start" x="79.5" y="-146.5" font-family="Helvetica,sans-Serif" font-size="10.00">+</text>
<text text-anchor="start" x="89.5" y="-146.5" font-family="Helvetica,sans-Serif" font-size="10.00">GetVehicleName()</text>
<text text-anchor="start" x="79.5" y="-130.5" font-family="Helvetica,sans-Serif" font-size="10.00">+</text>
<text text-anchor="start" x="89.5" y="-130.5" font-family="Helvetica,sans-Serif" font-size="10.00">GetVehicleImageAsync()</text>
<text text-anchor="start" x="79.5" y="-114.5" font-family="Helvetica,sans-Serif" font-size="10.00">+</text>
<text text-anchor="start" x="89.5" y="-114.5" font-family="Helvetica,sans-Serif" font-size="10.00">GetVehiclePriceAsync()</text>
<text text-anchor="start" x="79.5" y="-98.5" font-family="Helvetica,sans-Serif" font-size="10.00">+</text>
<text text-anchor="start" x="89.5" y="-98.5" font-family="Helvetica,sans-Serif" font-size="10.00">GetAllVehiclesAsync()</text>
<text text-anchor="start" x="79.5" y="-82.5" font-family="Helvetica,sans-Serif" font-size="10.00">+</text>
<text text-anchor="start" x="89.5" y="-82.5" font-family="Helvetica,sans-Serif" font-size="10.00">GetTypeOfVehiclesAsync()</text>
<text text-anchor="start" x="79.5" y="-66.5" font-family="Helvetica,sans-Serif" font-size="10.00">+</text>
<text text-anchor="start" x="89.5" y="-66.5" font-family="Helvetica,sans-Serif" font-size="10.00">GetFrameNumbersAsync()</text>
<text text-anchor="start" x="79.5" y="-50.5" font-family="Helvetica,sans-Serif" font-size="10.00">+</text>
<text text-anchor="start" x="89.5" y="-50.5" font-family="Helvetica,sans-Serif" font-size="10.00">GetFrameNumbersSpecificType</text>
<text text-anchor="start" x="89.5" y="-38.5" font-family="Helvetica,sans-Serif" font-size="10.00">Async()</text>
<text text-anchor="start" x="79.5" y="-22.5" font-family="Helvetica,sans-Serif" font-size="10.00">+</text>
<text text-anchor="start" x="89.5" y="-22.5" font-family="Helvetica,sans-Serif" font-size="10.00">GetVehicleData()</text>
<text text-anchor="start" x="79.5" y="-6.5" font-family="Helvetica,sans-Serif" font-size="10.00">+</text>
<text text-anchor="start" x="89.5" y="-6.5" font-family="Helvetica,sans-Serif" font-size="10.00">DeleteVehicleAsync()</text>
<polygon fill="#666666" stroke="#666666" points="75.5,-190 75.5,-190 233,-190 233,-190 75.5,-190"/>
<polygon fill="#666666" stroke="#666666" points="75.5,-174 75.5,-174 233,-174 233,-174 75.5,-174"/>
<polygon fill="none" stroke="#666666" points="75.5,0 75.5,-220 233,-220 233,0 75.5,0"/>
</a>
</g>
</g>
<!-- Node2 -->
<g id="Node000002" class="node">
<title>Node2</title>
<g id="a_Node000002"><a xlink:title=" ">
<polygon fill="white" stroke="none" points="72.5,-438 0,-438 0,-386 72.5,-386 72.5,-438"/>
<text text-anchor="start" x="4" y="-424.5" font-family="Helvetica,sans-Serif" font-size="10.00">ControllerBase</text>
<text text-anchor="start" x="34.75" y="-408.5" font-family="Helvetica,sans-Serif" font-size="10.00"> </text>
<text text-anchor="start" x="34.75" y="-392.5" font-family="Helvetica,sans-Serif" font-size="10.00"> </text>
<polygon fill="#666666" stroke="#666666" points="0,-420 0,-420 72.5,-420 72.5,-420 0,-420"/>
<polygon fill="#666666" stroke="#666666" points="0,-404 0,-404 72.5,-404 72.5,-404 0,-404"/>
<polygon fill="none" stroke="#666666" points="0,-386 0,-438 72.5,-438 72.5,-386 0,-386"/>
</a>
</g>
</g>
<!-- Node2&#45;&gt;Node1 -->
<g id="edge1_Node000001_Node000002" class="edge">
<title>Node2&#45;&gt;Node1</title>
<g id="a_edge1_Node000001_Node000002"><a xlink:title=" ">
<path fill="none" stroke="#63b8ff" d="M46.1,-375.22C54.48,-346.02 67.33,-303.88 81.25,-268 87.39,-252.17 94.38,-235.67 101.54,-219.59"/>
<polygon fill="none" stroke="#63b8ff" points="42.79,-374.09 43.43,-384.66 49.52,-376 42.79,-374.09"/>
</a>
</g>
</g>
<!-- Node3 -->
<g id="Node000003" class="node">
<title>Node3</title>
<g id="a_Node000003"><a xlink:href="interface_w_p_r_1_1_database_1_1_i_connector.html" target="_top" xlink:title="Connector class om verbinding te maken met de database, maakt gebruik van de connectie strings die zi...">
<polygon fill="white" stroke="none" points="218.25,-438 90.25,-438 90.25,-386 218.25,-386 218.25,-438"/>
<text text-anchor="start" x="94.25" y="-424.5" font-family="Helvetica,sans-Serif" font-size="10.00">WPR.Database.IConnector</text>
<text text-anchor="start" x="152.75" y="-408.5" font-family="Helvetica,sans-Serif" font-size="10.00"> </text>
<text text-anchor="start" x="97.38" y="-392.5" font-family="Helvetica,sans-Serif" font-size="10.00">+</text>
<text text-anchor="start" x="110.5" y="-392.5" font-family="Helvetica,sans-Serif" font-size="10.00">CreateDbConnection()</text>
<polygon fill="#666666" stroke="#666666" points="90.25,-420 90.25,-420 218.25,-420 218.25,-420 90.25,-420"/>
<polygon fill="#666666" stroke="#666666" points="90.25,-404 90.25,-404 218.25,-404 218.25,-404 90.25,-404"/>
<polygon fill="none" stroke="#666666" points="90.25,-386 90.25,-438 218.25,-438 218.25,-386 90.25,-386"/>
</a>
</g>
</g>
<!-- Node3&#45;&gt;Node1 -->
<g id="edge2_Node000001_Node000003" class="edge">
<title>Node3&#45;&gt;Node1</title>
<g id="a_edge2_Node000001_Node000003"><a xlink:title=" ">
<path fill="none" stroke="#63b8ff" d="M154.25,-386.19C154.25,-352.46 154.25,-289.76 154.25,-232.72"/>
<polygon fill="none" stroke="#63b8ff" points="154.25,-232.8 150.25,-226.8 154.25,-220.8 158.25,-226.8 154.25,-232.8"/>
</a>
</g>
<text text-anchor="middle" x="181.25" y="-240.5" font-family="Helvetica,sans-Serif" font-size="10.00" fill="grey"> &#45;_connector</text>
</g>
<!-- Node4 -->
<g id="Node000004" class="node">
<title>Node4</title>
<g id="a_Node000004"><a xlink:href="interface_w_p_r_1_1_repository_1_1_i_vehicle_repository.html" target="_top" xlink:title=" ">
<polygon fill="white" stroke="none" points="402.38,-556 236.12,-556 236.12,-268 402.38,-268 402.38,-556"/>
<text text-anchor="start" x="240.12" y="-542.5" font-family="Helvetica,sans-Serif" font-size="10.00">WPR.Repository.IVehicleRepository</text>
<text text-anchor="start" x="242.31" y="-526.5" font-family="Helvetica,sans-Serif" font-size="10.00">+</text>
<text text-anchor="start" x="254.5" y="-526.5" font-family="Helvetica,sans-Serif" font-size="10.00">Status</text>
<text text-anchor="start" x="242.31" y="-510.5" font-family="Helvetica,sans-Serif" font-size="10.00">+</text>
<text text-anchor="start" x="254.5" y="-510.5" font-family="Helvetica,sans-Serif" font-size="10.00">StatusCode</text>
<text text-anchor="start" x="242.31" y="-494.5" font-family="Helvetica,sans-Serif" font-size="10.00">+</text>
<text text-anchor="start" x="254.5" y="-494.5" font-family="Helvetica,sans-Serif" font-size="10.00">Message</text>
<text text-anchor="start" x="242.31" y="-478.5" font-family="Helvetica,sans-Serif" font-size="10.00">+</text>
<text text-anchor="start" x="254.5" y="-478.5" font-family="Helvetica,sans-Serif" font-size="10.00">GetVehiclePlateAsync()</text>
<text text-anchor="start" x="242.31" y="-462.5" font-family="Helvetica,sans-Serif" font-size="10.00">+</text>
<text text-anchor="start" x="254.5" y="-462.5" font-family="Helvetica,sans-Serif" font-size="10.00">GetVehicleNameAsync()</text>
<text text-anchor="start" x="242.31" y="-446.5" font-family="Helvetica,sans-Serif" font-size="10.00">+</text>
<text text-anchor="start" x="254.5" y="-446.5" font-family="Helvetica,sans-Serif" font-size="10.00">GetVehicleColorAsync()</text>
<text text-anchor="start" x="242.31" y="-430.5" font-family="Helvetica,sans-Serif" font-size="10.00">+</text>
<text text-anchor="start" x="254.5" y="-430.5" font-family="Helvetica,sans-Serif" font-size="10.00">GetFrameNumbersAsync()</text>
<text text-anchor="start" x="242.31" y="-414.5" font-family="Helvetica,sans-Serif" font-size="10.00">+</text>
<text text-anchor="start" x="254.5" y="-414.5" font-family="Helvetica,sans-Serif" font-size="10.00">GetVehicleDataAsync()</text>
<text text-anchor="start" x="242.31" y="-398.5" font-family="Helvetica,sans-Serif" font-size="10.00">+</text>
<text text-anchor="start" x="254.5" y="-398.5" font-family="Helvetica,sans-Serif" font-size="10.00">GetFrameNumberSpecifiekType</text>
<text text-anchor="start" x="254.5" y="-386.5" font-family="Helvetica,sans-Serif" font-size="10.00">Async()</text>
<text text-anchor="start" x="242.31" y="-370.5" font-family="Helvetica,sans-Serif" font-size="10.00">+</text>
<text text-anchor="start" x="254.5" y="-370.5" font-family="Helvetica,sans-Serif" font-size="10.00">HireVehicle()</text>
<text text-anchor="start" x="242.31" y="-354.5" font-family="Helvetica,sans-Serif" font-size="10.00">+</text>
<text text-anchor="start" x="254.5" y="-354.5" font-family="Helvetica,sans-Serif" font-size="10.00">CancelRental()</text>
<text text-anchor="start" x="242.31" y="-338.5" font-family="Helvetica,sans-Serif" font-size="10.00">+</text>
<text text-anchor="start" x="254.5" y="-338.5" font-family="Helvetica,sans-Serif" font-size="10.00">GetAllUserRentals()</text>
<text text-anchor="start" x="242.31" y="-322.5" font-family="Helvetica,sans-Serif" font-size="10.00">+</text>
<text text-anchor="start" x="254.5" y="-322.5" font-family="Helvetica,sans-Serif" font-size="10.00">GetAllUserRentalsDetailed()</text>
<text text-anchor="start" x="242.31" y="-306.5" font-family="Helvetica,sans-Serif" font-size="10.00">+</text>
<text text-anchor="start" x="254.5" y="-306.5" font-family="Helvetica,sans-Serif" font-size="10.00">ChangeRental()</text>
<text text-anchor="start" x="242.31" y="-290.5" font-family="Helvetica,sans-Serif" font-size="10.00">+</text>
<text text-anchor="start" x="254.5" y="-290.5" font-family="Helvetica,sans-Serif" font-size="10.00">DeleteVehicleAsync()</text>
<text text-anchor="start" x="242.31" y="-274.5" font-family="Helvetica,sans-Serif" font-size="10.00">+</text>
<text text-anchor="start" x="254.5" y="-274.5" font-family="Helvetica,sans-Serif" font-size="10.00">ChangeRepairStatus()</text>
<polygon fill="#666666" stroke="#666666" points="236.12,-538 236.12,-538 402.38,-538 402.38,-538 236.12,-538"/>
<polygon fill="#666666" stroke="#666666" points="236.12,-490 236.12,-490 252.5,-490 252.5,-490 236.12,-490"/>
<polygon fill="#666666" stroke="#666666" points="252.5,-490 252.5,-490 402.38,-490 402.38,-490 252.5,-490"/>
<polygon fill="none" stroke="#666666" points="236.12,-268 236.12,-556 402.38,-556 402.38,-268 236.12,-268"/>
</a>
</g>
</g>
<!-- Node4&#45;&gt;Node1 -->
<g id="edge3_Node000001_Node000004" class="edge">
<title>Node4&#45;&gt;Node1</title>
<g id="a_edge3_Node000001_Node000004"><a xlink:title=" ">
<path fill="none" stroke="#63b8ff" d="M240.62,-268.03C233.75,-255.55 226.85,-243.01 220.11,-230.74"/>
<polygon fill="none" stroke="#63b8ff" points="220.18,-230.88 213.79,-227.55 214.4,-220.36 220.8,-223.69 220.18,-230.88"/>
</a>
</g>
<text text-anchor="middle" x="271.5" y="-240.5" font-family="Helvetica,sans-Serif" font-size="10.00" fill="grey"> &#45;_vehicleRepository</text>
</g>
</g>
</svg>
