<?xml version="1.0" encoding="UTF-8" standalone="no"?>
<!DOCTYPE svg PUBLIC "-//W3C//DTD SVG 1.1//EN"
 "http://www.w3.org/Graphics/SVG/1.1/DTD/svg11.dtd">
<!-- Generated by graphviz version 12.2.1 (20241206.2353)
 -->
<!-- Title: WPR.Controllers.Employee.BackOffice.signUpStaff.SignUpStaffController Pages: 1 -->
<svg width="258pt" height="420pt"
 viewBox="0.00 0.00 257.75 420.00" xmlns="http://www.w3.org/2000/svg" xmlns:xlink="http://www.w3.org/1999/xlink">
<g id="graph0" class="graph" transform="scale(1 1) rotate(0) translate(4 416)">
<title>WPR.Controllers.Employee.BackOffice.signUpStaff.SignUpStaffController</title>
<!-- Node1 -->
<g id="Node000001" class="node">
<title>Node1</title>
<g id="a_Node000001"><a xlink:title="SignUpStaffController zorgt ervoor dat er front&#45;, backoffice en wagenparkbeheerders toegevoegd kunnen...">
<polygon fill="#999999" stroke="none" points="186,-92 20.5,-92 20.5,0 186,0 186,-92"/>
<text text-anchor="start" x="24.5" y="-78.5" font-family="Helvetica,sans-Serif" font-size="10.00">WPR.Controllers.Employee.</text>
<text text-anchor="start" x="24.5" y="-66.5" font-family="Helvetica,sans-Serif" font-size="10.00">BackOffice.signUpStaff.SignUpStaff</text>
<text text-anchor="start" x="82.25" y="-54.5" font-family="Helvetica,sans-Serif" font-size="10.00">Controller</text>
<text text-anchor="start" x="101.75" y="-38.5" font-family="Helvetica,sans-Serif" font-size="10.00"> </text>
<text text-anchor="start" x="36.25" y="-22.5" font-family="Helvetica,sans-Serif" font-size="10.00">+</text>
<text text-anchor="start" x="58" y="-22.5" font-family="Helvetica,sans-Serif" font-size="10.00">SignUpStaffController()</text>
<text text-anchor="start" x="36.25" y="-6.5" font-family="Helvetica,sans-Serif" font-size="10.00">+</text>
<text text-anchor="start" x="58" y="-6.5" font-family="Helvetica,sans-Serif" font-size="10.00">SignUpStaff()</text>
<polygon fill="#666666" stroke="#666666" points="20.5,-50 20.5,-50 186,-50 186,-50 20.5,-50"/>
<polygon fill="#666666" stroke="#666666" points="20.5,-34 20.5,-34 186,-34 186,-34 20.5,-34"/>
<polygon fill="none" stroke="#666666" points="20.5,0 20.5,-92 186,-92 186,0 20.5,0"/>
</a>
</g>
</g>
<!-- Node2 -->
<g id="Node000002" class="node">
<title>Node2</title>
<g id="a_Node000002"><a xlink:title=" ">
<polygon fill="white" stroke="none" points="72.5,-302 0,-302 0,-250 72.5,-250 72.5,-302"/>
<text text-anchor="start" x="4" y="-288.5" font-family="Helvetica,sans-Serif" font-size="10.00">ControllerBase</text>
<text text-anchor="start" x="34.75" y="-272.5" font-family="Helvetica,sans-Serif" font-size="10.00"> </text>
<text text-anchor="start" x="34.75" y="-256.5" font-family="Helvetica,sans-Serif" font-size="10.00"> </text>
<polygon fill="#666666" stroke="#666666" points="0,-284 0,-284 72.5,-284 72.5,-284 0,-284"/>
<polygon fill="#666666" stroke="#666666" points="0,-268 0,-268 72.5,-268 72.5,-268 0,-268"/>
<polygon fill="none" stroke="#666666" points="0,-250 0,-302 72.5,-302 72.5,-250 0,-250"/>
</a>
</g>
</g>
<!-- Node2&#45;&gt;Node1 -->
<g id="edge1_Node000001_Node000002" class="edge">
<title>Node2&#45;&gt;Node1</title>
<g id="a_edge1_Node000001_Node000002"><a xlink:title=" ">
<path fill="none" stroke="#63b8ff" d="M46.79,-239.13C58.5,-199.27 77.43,-134.88 90.1,-91.76"/>
<polygon fill="none" stroke="#63b8ff" points="43.44,-238.13 43.97,-248.71 50.15,-240.11 43.44,-238.13"/>
</a>
</g>
</g>
<!-- Node3 -->
<g id="Node000003" class="node">
<title>Node3</title>
<g id="a_Node000003"><a xlink:href="interface_w_p_r_1_1_repository_1_1_i_employee_repository.html" target="_top" xlink:title="Interface defining methods voor user gerelateerde database operaties, validatie, user management,...">
<polygon fill="white" stroke="none" points="249.75,-412 90.75,-412 90.75,-140 249.75,-140 249.75,-412"/>
<text text-anchor="start" x="108.75" y="-398.5" font-family="Helvetica,sans-Serif" font-size="10.00">WPR.Repository.IEmployee</text>
<text text-anchor="start" x="146.62" y="-386.5" font-family="Helvetica,sans-Serif" font-size="10.00">Repository</text>
<text text-anchor="start" x="94.75" y="-370.5" font-family="Helvetica,sans-Serif" font-size="10.00">+</text>
<text text-anchor="start" x="104.75" y="-370.5" font-family="Helvetica,sans-Serif" font-size="10.00">StatusCode</text>
<text text-anchor="start" x="94.75" y="-354.5" font-family="Helvetica,sans-Serif" font-size="10.00">+</text>
<text text-anchor="start" x="104.75" y="-354.5" font-family="Helvetica,sans-Serif" font-size="10.00">Message</text>
<text text-anchor="start" x="94.75" y="-338.5" font-family="Helvetica,sans-Serif" font-size="10.00">+</text>
<text text-anchor="start" x="104.75" y="-338.5" font-family="Helvetica,sans-Serif" font-size="10.00">Status</text>
<text text-anchor="start" x="94.75" y="-322.5" font-family="Helvetica,sans-Serif" font-size="10.00">+</text>
<text text-anchor="start" x="104.75" y="-322.5" font-family="Helvetica,sans-Serif" font-size="10.00">Message</text>
<text text-anchor="start" x="94.75" y="-306.5" font-family="Helvetica,sans-Serif" font-size="10.00">+</text>
<text text-anchor="start" x="104.75" y="-306.5" font-family="Helvetica,sans-Serif" font-size="10.00">AddVehicleAsync()</text>
<text text-anchor="start" x="94.75" y="-290.5" font-family="Helvetica,sans-Serif" font-size="10.00">+</text>
<text text-anchor="start" x="104.75" y="-290.5" font-family="Helvetica,sans-Serif" font-size="10.00">AddStaff()</text>
<text text-anchor="start" x="94.75" y="-274.5" font-family="Helvetica,sans-Serif" font-size="10.00">+</text>
<text text-anchor="start" x="104.75" y="-274.5" font-family="Helvetica,sans-Serif" font-size="10.00">checkUsageEmailAsync()</text>
<text text-anchor="start" x="94.75" y="-258.5" font-family="Helvetica,sans-Serif" font-size="10.00">+</text>
<text text-anchor="start" x="104.75" y="-258.5" font-family="Helvetica,sans-Serif" font-size="10.00">GetReviewIdsAsync()</text>
<text text-anchor="start" x="94.75" y="-242.5" font-family="Helvetica,sans-Serif" font-size="10.00">+</text>
<text text-anchor="start" x="104.75" y="-242.5" font-family="Helvetica,sans-Serif" font-size="10.00">GetReviewAsync()</text>
<text text-anchor="start" x="94.75" y="-226.5" font-family="Helvetica,sans-Serif" font-size="10.00">+</text>
<text text-anchor="start" x="104.75" y="-226.5" font-family="Helvetica,sans-Serif" font-size="10.00">SetStatusAsync()</text>
<text text-anchor="start" x="94.75" y="-210.5" font-family="Helvetica,sans-Serif" font-size="10.00">+</text>
<text text-anchor="start" x="104.75" y="-210.5" font-family="Helvetica,sans-Serif" font-size="10.00">AddBusiness()</text>
<text text-anchor="start" x="94.75" y="-194.5" font-family="Helvetica,sans-Serif" font-size="10.00">+</text>
<text text-anchor="start" x="104.75" y="-194.5" font-family="Helvetica,sans-Serif" font-size="10.00">ViewBusinessRequests()</text>
<text text-anchor="start" x="94.75" y="-178.5" font-family="Helvetica,sans-Serif" font-size="10.00">+</text>
<text text-anchor="start" x="104.75" y="-178.5" font-family="Helvetica,sans-Serif" font-size="10.00">ViewBusinessRequestDetailed()</text>
<text text-anchor="start" x="94.75" y="-162.5" font-family="Helvetica,sans-Serif" font-size="10.00">+</text>
<text text-anchor="start" x="104.75" y="-162.5" font-family="Helvetica,sans-Serif" font-size="10.00">BusinessAccepted()</text>
<text text-anchor="start" x="104.75" y="-146.5" font-family="Helvetica,sans-Serif" font-size="10.00">en 7 anderen...</text>
<polygon fill="#666666" stroke="#666666" points="90.75,-382 90.75,-382 249.75,-382 249.75,-382 90.75,-382"/>
<polygon fill="#666666" stroke="#666666" points="90.75,-318 90.75,-318 102.75,-318 102.75,-318 90.75,-318"/>
<polygon fill="#666666" stroke="#666666" points="102.75,-318 102.75,-318 249.75,-318 249.75,-318 102.75,-318"/>
<polygon fill="none" stroke="#666666" points="90.75,-140 90.75,-412 249.75,-412 249.75,-140 90.75,-140"/>
</a>
</g>
</g>
<!-- Node3&#45;&gt;Node1 -->
<g id="edge2_Node000001_Node000003" class="edge">
<title>Node3&#45;&gt;Node1</title>
<g id="a_edge2_Node000001_Node000003"><a xlink:title=" ">
<path fill="none" stroke="#63b8ff" d="M130.6,-140.07C126.9,-127.49 123.31,-115.27 120.01,-104.04"/>
<polygon fill="none" stroke="#63b8ff" points="120.06,-104.19 114.53,-99.56 116.67,-92.68 122.2,-97.31 120.06,-104.19"/>
</a>
</g>
<text text-anchor="middle" x="163.55" y="-112.5" font-family="Helvetica,sans-Serif" font-size="10.00" fill="grey"> &#45;_userRepository</text>
</g>
</g>
</svg>
