<?xml version="1.0" encoding="UTF-8" standalone="no"?>
<!DOCTYPE svg PUBLIC "-//W3C//DTD SVG 1.1//EN"
 "http://www.w3.org/Graphics/SVG/1.1/DTD/svg11.dtd">
<!-- Generated by graphviz version 12.2.1 (20241206.2353)
 -->
<!-- Title: WPR.Controllers.Customer.ChangeUserSettings.ChangeUserSettingsController Pages: 1 -->
<!--zoomable 572 -->

<svg id="main" version="1.1" xmlns="http://www.w3.org/2000/svg" xmlns:xlink="http://www.w3.org/1999/xlink" xml:space="preserve" onload="init(evt)">

<style type="text/css"><![CDATA[
.node, .edge {opacity: 0.7;}
.node.selected, .edge.selected {opacity: 1;}
.edge:hover path { stroke: red; }
.edge:hover polygon { stroke: red; fill: red; }
]]></style>

<defs>
  <circle id="rim" cx="0" cy="0" r="7"/>
  <circle id="rim2" cx="0" cy="0" r="3.5"/>
  <g id="zoomPlus">
    <use xlink:href="#rim" fill="#404040"><set attributeName="fill" to="#808080" begin="zoomplus.mouseover" end="zoomplus.mouseout"/></use>
    <path d="M-4,0h8M0,-4v8" fill="none" stroke="white" stroke-width="1.5" pointer-events="none"/>
  </g>
  <g id="zoomMin">
    <use xlink:href="#rim" fill="#404040"><set attributeName="fill" to="#808080" begin="zoomminus.mouseover" end="zoomminus.mouseout"/></use>
    <path d="M-4,0h8" fill="none" stroke="white" stroke-width="1.5" pointer-events="none"/>
  </g>
  <g id="arrowUp" transform="translate(30 24)">
    <use xlink:href="#rim"/>
    <path pointer-events="none" fill="none" stroke="white" stroke-width="1.5" d="M0,-3.0v7 M-2.5,-0.5L0,-3.0L2.5,-0.5"/>
  </g>
  <g id="arrowRight" transform="rotate(90) translate(36 -43)">
    <use xlink:href="#rim"/>
    <path pointer-events="none" fill="none" stroke="white" stroke-width="1.5" d="M0,-3.0v7 M-2.5,-0.5L0,-3.0L2.5,-0.5"/>
  </g>
  <g id="arrowDown" transform="rotate(180) translate(-30 -48)">
    <use xlink:href="#rim"/>
    <path pointer-events="none" fill="none" stroke="white" stroke-width="1.5" d="M0,-3.0v7 M-2.5,-0.5L0,-3.0L2.5,-0.5"/>
  </g>
  <g id="arrowLeft" transform="rotate(270) translate(-36 17)">
    <use xlink:href="#rim"/>
    <path pointer-events="none" fill="none" stroke="white" stroke-width="1.5" d="M0,-3.0v7 M-2.5,-0.5L0,-3.0L2.5,-0.5"/>
  </g>
  <g id="resetDef">
    <use xlink:href="#rim2" fill="#404040"><set attributeName="fill" to="#808080" begin="reset.mouseover" end="reset.mouseout"/></use>
  </g>
</defs>
<script type="application/ecmascript">
var viewWidth = 713;
var viewHeight = 572;
var sectionId = 'dynsection-1';
</script>
<script type="application/ecmascript" xlink:href="svg.min.js"/>
<svg id="graph" class="graph">
<g id="viewport">
<title>WPR.Controllers.Customer.ChangeUserSettings.ChangeUserSettingsController</title>
<!-- Node1 -->
<g id="Node000001" class="node">
<title>Node1</title>
<g id="a_Node000001"><a xlink:title="ChangeUserSettingsController is de controller die aanvragen van buitenaf ontvangt en vervolgens gegev...">
<polygon fill="#999999" stroke="none" points="410.5,-108 218,-108 218,0 410.5,0 410.5,-108"/>
<text text-anchor="start" x="222" y="-94.5" font-family="Helvetica,sans-Serif" font-size="10.00">WPR.Controllers.Customer.</text>
<text text-anchor="start" x="222" y="-82.5" font-family="Helvetica,sans-Serif" font-size="10.00">ChangeUserSettings.ChangeUserSettings</text>
<text text-anchor="start" x="293.25" y="-70.5" font-family="Helvetica,sans-Serif" font-size="10.00">Controller</text>
<text text-anchor="start" x="312.75" y="-54.5" font-family="Helvetica,sans-Serif" font-size="10.00"> </text>
<text text-anchor="start" x="230.94" y="-38.5" font-family="Helvetica,sans-Serif" font-size="10.00">+</text>
<text text-anchor="start" x="249.88" y="-38.5" font-family="Helvetica,sans-Serif" font-size="10.00">ChangeUserSettingsController()</text>
<text text-anchor="start" x="230.94" y="-22.5" font-family="Helvetica,sans-Serif" font-size="10.00">+</text>
<text text-anchor="start" x="249.88" y="-22.5" font-family="Helvetica,sans-Serif" font-size="10.00">ChangeUserInfoAsync()</text>
<text text-anchor="start" x="230.94" y="-6.5" font-family="Helvetica,sans-Serif" font-size="10.00">+</text>
<text text-anchor="start" x="249.88" y="-6.5" font-family="Helvetica,sans-Serif" font-size="10.00">DeleteUserAsync()</text>
<polygon fill="#666666" stroke="#666666" points="218,-66 218,-66 410.5,-66 410.5,-66 218,-66"/>
<polygon fill="#666666" stroke="#666666" points="218,-50 218,-50 410.5,-50 410.5,-50 218,-50"/>
<polygon fill="none" stroke="#666666" points="218,0 218,-108 410.5,-108 410.5,0 218,0"/>
</a>
</g>
</g>
<!-- Node2 -->
<g id="Node000002" class="node">
<title>Node2</title>
<g id="a_Node000002"><a xlink:title=" ">
<polygon fill="white" stroke="none" points="72.5,-288 0,-288 0,-236 72.5,-236 72.5,-288"/>
<text text-anchor="start" x="4" y="-274.5" font-family="Helvetica,sans-Serif" font-size="10.00">ControllerBase</text>
<text text-anchor="start" x="34.75" y="-258.5" font-family="Helvetica,sans-Serif" font-size="10.00"> </text>
<text text-anchor="start" x="34.75" y="-242.5" font-family="Helvetica,sans-Serif" font-size="10.00"> </text>
<polygon fill="#666666" stroke="#666666" points="0,-270 0,-270 72.5,-270 72.5,-270 0,-270"/>
<polygon fill="#666666" stroke="#666666" points="0,-254 0,-254 72.5,-254 72.5,-254 0,-254"/>
<polygon fill="none" stroke="#666666" points="0,-236 0,-288 72.5,-288 72.5,-236 0,-236"/>
</a>
</g>
</g>
<!-- Node2&#45;&gt;Node1 -->
<g id="edge1_Node000001_Node000002" class="edge">
<title>Node2&#45;&gt;Node1</title>
<g id="a_edge1_Node000001_Node000002"><a xlink:title=" ">
<path fill="none" stroke="#63b8ff" d="M44.31,-225.29C50.95,-202.94 62.42,-174.91 81.25,-156 118.5,-118.59 171.89,-94.08 218.16,-78.59"/>
<polygon fill="none" stroke="#63b8ff" points="40.94,-224.35 41.66,-234.92 47.69,-226.21 40.94,-224.35"/>
</a>
</g>
</g>
<!-- Node3 -->
<g id="Node000003" class="node">
<title>Node3</title>
<g id="a_Node000003"><a xlink:href="interface_w_p_r_1_1_database_1_1_i_connector.html" target="_top" xlink:title="Connector class om verbinding te maken met de database, maakt gebruik van de connectie strings die zi...">
<polygon fill="white" stroke="none" points="218.25,-288 90.25,-288 90.25,-236 218.25,-236 218.25,-288"/>
<text text-anchor="start" x="94.25" y="-274.5" font-family="Helvetica,sans-Serif" font-size="10.00">WPR.Database.IConnector</text>
<text text-anchor="start" x="152.75" y="-258.5" font-family="Helvetica,sans-Serif" font-size="10.00"> </text>
<text text-anchor="start" x="97.38" y="-242.5" font-family="Helvetica,sans-Serif" font-size="10.00">+</text>
<text text-anchor="start" x="110.5" y="-242.5" font-family="Helvetica,sans-Serif" font-size="10.00">CreateDbConnection()</text>
<polygon fill="#666666" stroke="#666666" points="90.25,-270 90.25,-270 218.25,-270 218.25,-270 90.25,-270"/>
<polygon fill="#666666" stroke="#666666" points="90.25,-254 90.25,-254 218.25,-254 218.25,-254 90.25,-254"/>
<polygon fill="none" stroke="#666666" points="90.25,-236 90.25,-288 218.25,-288 218.25,-236 90.25,-236"/>
</a>
</g>
</g>
<!-- Node3&#45;&gt;Node1 -->
<g id="edge2_Node000001_Node000003" class="edge">
<title>Node3&#45;&gt;Node1</title>
<g id="a_edge2_Node000001_Node000003"><a xlink:title=" ">
<path fill="none" stroke="#63b8ff" d="M170.37,-236.3C184.72,-214.69 206.58,-182.67 227.25,-156 237.04,-143.37 247.87,-130.21 258.48,-117.72"/>
<polygon fill="none" stroke="#63b8ff" points="258.52,-117.66 259.39,-110.51 266.33,-108.55 265.47,-115.71 258.52,-117.66"/>
</a>
</g>
<text text-anchor="middle" x="277.23" y="-128.5" font-family="Helvetica,sans-Serif" font-size="10.00" fill="grey"> &#45;_connector</text>
</g>
<!-- Node4 -->
<g id="Node000004" class="node">
<title>Node4</title>
<g id="a_Node000004"><a xlink:href="interface_w_p_r_1_1_repository_1_1_i_user_repository.html" target="_top" xlink:title="Interface defining methods voor user gerelateerde database operaties, validatie, user management,...">
<polygon fill="white" stroke="none" points="392.12,-368 236.38,-368 236.38,-156 392.12,-156 392.12,-368"/>
<text text-anchor="start" x="240.38" y="-354.5" font-family="Helvetica,sans-Serif" font-size="10.00">WPR.Repository.IUserRepository</text>
<text text-anchor="start" x="312.75" y="-338.5" font-family="Helvetica,sans-Serif" font-size="10.00"> </text>
<text text-anchor="start" x="240.88" y="-322.5" font-family="Helvetica,sans-Serif" font-size="10.00">+</text>
<text text-anchor="start" x="251.38" y="-322.5" font-family="Helvetica,sans-Serif" font-size="10.00">ValidateUserAsync()</text>
<text text-anchor="start" x="240.88" y="-306.5" font-family="Helvetica,sans-Serif" font-size="10.00">+</text>
<text text-anchor="start" x="251.38" y="-306.5" font-family="Helvetica,sans-Serif" font-size="10.00">checkUsageEmailAsync()</text>
<text text-anchor="start" x="240.88" y="-290.5" font-family="Helvetica,sans-Serif" font-size="10.00">+</text>
<text text-anchor="start" x="251.38" y="-290.5" font-family="Helvetica,sans-Serif" font-size="10.00">addCustomerAsync()</text>
<text text-anchor="start" x="240.88" y="-274.5" font-family="Helvetica,sans-Serif" font-size="10.00">+</text>
<text text-anchor="start" x="251.38" y="-274.5" font-family="Helvetica,sans-Serif" font-size="10.00">addPersonalCustomerAsync()</text>
<text text-anchor="start" x="240.88" y="-258.5" font-family="Helvetica,sans-Serif" font-size="10.00">+</text>
<text text-anchor="start" x="251.38" y="-258.5" font-family="Helvetica,sans-Serif" font-size="10.00">addEmployeeCustomerAsync()</text>
<text text-anchor="start" x="240.88" y="-242.5" font-family="Helvetica,sans-Serif" font-size="10.00">+</text>
<text text-anchor="start" x="251.38" y="-242.5" font-family="Helvetica,sans-Serif" font-size="10.00">GetUserIdAsync()</text>
<text text-anchor="start" x="240.88" y="-226.5" font-family="Helvetica,sans-Serif" font-size="10.00">+</text>
<text text-anchor="start" x="251.38" y="-226.5" font-family="Helvetica,sans-Serif" font-size="10.00">GetUserNameAsync()</text>
<text text-anchor="start" x="240.88" y="-210.5" font-family="Helvetica,sans-Serif" font-size="10.00">+</text>
<text text-anchor="start" x="251.38" y="-210.5" font-family="Helvetica,sans-Serif" font-size="10.00">EditUserInfoAsync()</text>
<text text-anchor="start" x="240.88" y="-194.5" font-family="Helvetica,sans-Serif" font-size="10.00">+</text>
<text text-anchor="start" x="251.38" y="-194.5" font-family="Helvetica,sans-Serif" font-size="10.00">IsKvkNumberAsync()</text>
<text text-anchor="start" x="240.88" y="-178.5" font-family="Helvetica,sans-Serif" font-size="10.00">+</text>
<text text-anchor="start" x="251.38" y="-178.5" font-family="Helvetica,sans-Serif" font-size="10.00">IsUserEmployee()</text>
<text text-anchor="start" x="251.38" y="-162.5" font-family="Helvetica,sans-Serif" font-size="10.00">en 14 anderen...</text>
<polygon fill="#666666" stroke="#666666" points="236.38,-350 236.38,-350 392.12,-350 392.12,-350 236.38,-350"/>
<polygon fill="#666666" stroke="#666666" points="236.38,-334 236.38,-334 392.12,-334 392.12,-334 236.38,-334"/>
<polygon fill="none" stroke="#666666" points="236.38,-156 236.38,-368 392.12,-368 392.12,-156 236.38,-156"/>
</a>
</g>
</g>
<!-- Node4&#45;&gt;Node1 -->
<g id="edge3_Node000001_Node000004" class="edge">
<title>Node4&#45;&gt;Node1</title>
<g id="a_edge3_Node000001_Node000004"><a xlink:title=" ">
<path fill="none" stroke="#63b8ff" d="M314.25,-156.19C314.25,-144.12 314.25,-132.08 314.25,-120.73"/>
<polygon fill="none" stroke="#63b8ff" points="314.25,-120.68 310.25,-114.68 314.25,-108.68 318.25,-114.68 314.25,-120.68"/>
</a>
</g>
<text text-anchor="middle" x="352.88" y="-128.5" font-family="Helvetica,sans-Serif" font-size="10.00" fill="grey"> &#45;_userRepository</text>
</g>
<!-- Node5 -->
<g id="Node000005" class="node">
<title>Node5</title>
<g id="a_Node000005"><a xlink:href="class_w_p_r_1_1_cryption_1_1_crypt.html" target="_top" xlink:title="Class Crypt zorgt voor een veilig encryptie en decryptie van strings. De Crptie wordt gedaan door het...">
<polygon fill="white" stroke="none" points="508.62,-312 409.88,-312 409.88,-212 508.62,-212 508.62,-312"/>
<text text-anchor="start" x="413.88" y="-298.5" font-family="Helvetica,sans-Serif" font-size="10.00">WPR.Cryption.Crypt</text>
<text text-anchor="start" x="425.44" y="-282.5" font-family="Helvetica,sans-Serif" font-size="10.00">&#45;</text>
<text text-anchor="start" x="444" y="-282.5" font-family="Helvetica,sans-Serif" font-size="10.00">_key</text>
<text text-anchor="start" x="425.44" y="-266.5" font-family="Helvetica,sans-Serif" font-size="10.00">&#45;</text>
<text text-anchor="start" x="444" y="-266.5" font-family="Helvetica,sans-Serif" font-size="10.00">_IV</text>
<text text-anchor="start" x="423.94" y="-250.5" font-family="Helvetica,sans-Serif" font-size="10.00">+</text>
<text text-anchor="start" x="444" y="-250.5" font-family="Helvetica,sans-Serif" font-size="10.00">Crypt()</text>
<text text-anchor="start" x="423.94" y="-234.5" font-family="Helvetica,sans-Serif" font-size="10.00">+</text>
<text text-anchor="start" x="444" y="-234.5" font-family="Helvetica,sans-Serif" font-size="10.00">Encrypt()</text>
<text text-anchor="start" x="423.94" y="-218.5" font-family="Helvetica,sans-Serif" font-size="10.00">+</text>
<text text-anchor="start" x="444" y="-218.5" font-family="Helvetica,sans-Serif" font-size="10.00">Decrypt()</text>
<polygon fill="#666666" stroke="#666666" points="409.88,-294 409.88,-294 508.62,-294 508.62,-294 409.88,-294"/>
<polygon fill="#666666" stroke="#666666" points="409.88,-262 409.88,-262 442,-262 442,-262 409.88,-262"/>
<polygon fill="#666666" stroke="#666666" points="442,-262 442,-262 508.62,-262 508.62,-262 442,-262"/>
<polygon fill="none" stroke="#666666" points="409.88,-212 409.88,-312 508.62,-312 508.62,-212 409.88,-212"/>
</a>
</g>
</g>
<!-- Node5&#45;&gt;Node1 -->
<g id="edge4_Node000001_Node000005" class="edge">
<title>Node5&#45;&gt;Node1</title>
<g id="a_edge4_Node000001_Node000005"><a xlink:title=" ">
<path fill="none" stroke="#63b8ff" d="M441.74,-212.09C430.76,-185.19 414.95,-152.08 395.25,-126 393.03,-123.06 390.67,-120.16 388.21,-117.3"/>
<polygon fill="none" stroke="#63b8ff" points="388.2,-117.28 381.2,-115.55 380.11,-108.42 387.11,-110.15 388.2,-117.28"/>
</a>
</g>
<text text-anchor="middle" x="418.78" y="-128.5" font-family="Helvetica,sans-Serif" font-size="10.00" fill="grey"> &#45;_crypt</text>
</g>
<!-- Node6 -->
<g id="Node000006" class="node">
<title>Node6</title>
<g id="a_Node000006"><a xlink:href="class_w_p_r_1_1_data_1_1_env_config.html" target="_top" xlink:title="Leez het .env bestand uit waarin de connectie strings staan naar de database. Deze staan in een apart...">
<polygon fill="white" stroke="none" points="512.12,-564 406.38,-564 406.38,-416 512.12,-416 512.12,-564"/>
<text text-anchor="start" x="410.88" y="-550.5" font-family="Helvetica,sans-Serif" font-size="10.00">WPR.Data.EnvConfig</text>
<text text-anchor="start" x="411.88" y="-534.5" font-family="Helvetica,sans-Serif" font-size="10.00">&#45;</text>
<text text-anchor="start" x="420.38" y="-534.5" font-family="Helvetica,sans-Serif" font-size="10.00">_configuration</text>
<text text-anchor="start" x="410.38" y="-518.5" font-family="Helvetica,sans-Serif" font-size="10.00">+</text>
<text text-anchor="start" x="420.38" y="-518.5" font-family="Helvetica,sans-Serif" font-size="10.00">EnvConfig()</text>
<text text-anchor="start" x="410.38" y="-502.5" font-family="Helvetica,sans-Serif" font-size="10.00">+</text>
<text text-anchor="start" x="420.38" y="-502.5" font-family="Helvetica,sans-Serif" font-size="10.00">Get()</text>
<text text-anchor="start" x="410.38" y="-486.5" font-family="Helvetica,sans-Serif" font-size="10.00">+</text>
<text text-anchor="start" x="420.38" y="-486.5" font-family="Helvetica,sans-Serif" font-size="10.00">IsConfigured()</text>
<text text-anchor="start" x="410.38" y="-470.5" font-family="Helvetica,sans-Serif" font-size="10.00">+</text>
<text text-anchor="start" x="420.38" y="-470.5" font-family="Helvetica,sans-Serif" font-size="10.00">GetSmtpHost()</text>
<text text-anchor="start" x="410.38" y="-454.5" font-family="Helvetica,sans-Serif" font-size="10.00">+</text>
<text text-anchor="start" x="420.38" y="-454.5" font-family="Helvetica,sans-Serif" font-size="10.00">GetSmtpPort()</text>
<text text-anchor="start" x="410.38" y="-438.5" font-family="Helvetica,sans-Serif" font-size="10.00">+</text>
<text text-anchor="start" x="420.38" y="-438.5" font-family="Helvetica,sans-Serif" font-size="10.00">GetFromEmail()</text>
<text text-anchor="start" x="410.38" y="-422.5" font-family="Helvetica,sans-Serif" font-size="10.00">+</text>
<text text-anchor="start" x="420.38" y="-422.5" font-family="Helvetica,sans-Serif" font-size="10.00">GetFromPassword()</text>
<polygon fill="#666666" stroke="#666666" points="406.38,-546 406.38,-546 512.12,-546 512.12,-546 406.38,-546"/>
<polygon fill="#666666" stroke="#666666" points="406.38,-530 406.38,-530 418.38,-530 418.38,-530 406.38,-530"/>
<polygon fill="#666666" stroke="#666666" points="418.38,-530 418.38,-530 512.12,-530 512.12,-530 418.38,-530"/>
<polygon fill="none" stroke="#666666" points="406.38,-416 406.38,-564 512.12,-564 512.12,-416 406.38,-416"/>
</a>
</g>
</g>
<!-- Node6&#45;&gt;Node5 -->
<g id="edge5_Node000005_Node000006" class="edge">
<title>Node6&#45;&gt;Node5</title>
<g id="a_edge5_Node000005_Node000006"><a xlink:title=" ">
<path fill="none" stroke="#63b8ff" d="M459.25,-416.25C459.25,-386.73 459.25,-352.99 459.25,-324.7"/>
<polygon fill="none" stroke="#63b8ff" points="459.25,-324.61 455.25,-318.61 459.25,-312.61 463.25,-318.61 459.25,-324.61"/>
</a>
</g>
<text text-anchor="middle" x="487" y="-388.5" font-family="Helvetica,sans-Serif" font-size="10.00" fill="grey"> &#45;_envConfig</text>
</g>
<!-- Node7 -->
<g id="Node000007" class="node">
<title>Node7</title>
<g id="a_Node000007"><a xlink:href="interface_w_p_r_1_1_repository_1_1_database_check_repository_1_1_i_database_check_repository.html" target="_top" xlink:title=" ">
<polygon fill="white" stroke="none" points="705.38,-310 527.12,-310 527.12,-214 705.38,-214 705.38,-310"/>
<text text-anchor="start" x="531.12" y="-296.5" font-family="Helvetica,sans-Serif" font-size="10.00">WPR.Repository.DatabaseCheck</text>
<text text-anchor="start" x="531.12" y="-284.5" font-family="Helvetica,sans-Serif" font-size="10.00">Repository.IDatabaseCheckRepository</text>
<text text-anchor="start" x="545.31" y="-268.5" font-family="Helvetica,sans-Serif" font-size="10.00">+</text>
<text text-anchor="start" x="569.5" y="-268.5" font-family="Helvetica,sans-Serif" font-size="10.00">StatusCode</text>
<text text-anchor="start" x="545.31" y="-252.5" font-family="Helvetica,sans-Serif" font-size="10.00">+</text>
<text text-anchor="start" x="569.5" y="-252.5" font-family="Helvetica,sans-Serif" font-size="10.00">DeleteUser()</text>
<text text-anchor="start" x="545.31" y="-236.5" font-family="Helvetica,sans-Serif" font-size="10.00">+</text>
<text text-anchor="start" x="569.5" y="-236.5" font-family="Helvetica,sans-Serif" font-size="10.00">DeleteBusiness()</text>
<text text-anchor="start" x="545.31" y="-220.5" font-family="Helvetica,sans-Serif" font-size="10.00">+</text>
<text text-anchor="start" x="569.5" y="-220.5" font-family="Helvetica,sans-Serif" font-size="10.00">DeleteVehicleManager()</text>
<polygon fill="#666666" stroke="#666666" points="527.12,-280 527.12,-280 705.38,-280 705.38,-280 527.12,-280"/>
<polygon fill="#666666" stroke="#666666" points="527.12,-264 527.12,-264 567.5,-264 567.5,-264 527.12,-264"/>
<polygon fill="#666666" stroke="#666666" points="567.5,-264 567.5,-264 705.38,-264 705.38,-264 567.5,-264"/>
<polygon fill="none" stroke="#666666" points="527.12,-214 527.12,-310 705.38,-310 705.38,-214 527.12,-214"/>
</a>
</g>
</g>
<!-- Node7&#45;&gt;Node1 -->
<g id="edge6_Node000001_Node000007" class="edge">
<title>Node7&#45;&gt;Node1</title>
<g id="a_edge6_Node000001_Node000007"><a xlink:title=" ">
<path fill="none" stroke="#63b8ff" d="M578.44,-214.05C561.16,-194.51 539.59,-172.57 517.25,-156 488.32,-134.54 454.13,-115.51 422.14,-99.93"/>
<polygon fill="none" stroke="#63b8ff" points="422.11,-99.91 414.97,-100.93 411.28,-94.73 418.42,-93.71 422.11,-99.91"/>
</a>
</g>
<text text-anchor="middle" x="549.99" y="-128.5" font-family="Helvetica,sans-Serif" font-size="10.00" fill="grey"> &#45;_databaseCheckRepository</text>
</g>
</g>
</svg>

<g id="navigator" transform="translate(0 0)" fill="#404254">
  <rect fill="#f2f5e9" fill-opacity="0.5" stroke="#606060" stroke-width=".5" x="0" y="0" width="60" height="60"/>
  <use id="zoomplus" xlink:href="#zoomPlus" x="17" y="9" onmousedown="handleZoom(evt,'in')"/>
  <use id="zoomminus" xlink:href="#zoomMin" x="42" y="9" onmousedown="handleZoom(evt,'out')"/>
  <use id="reset" xlink:href="#resetDef" x="30" y="36" onmousedown="handleReset()"/>
   <use id="arrowup" xlink:href="#arrowUp" x="0" y="0" onmousedown="handlePan(0,-1)"/>
  <use id="arrowright" xlink:href="#arrowRight" x="0" y="0" onmousedown="handlePan(1,0)"/>
  <use id="arrowdown" xlink:href="#arrowDown" x="0" y="0" onmousedown="handlePan(0,1)"/>
  <use id="arrowleft" xlink:href="#arrowLeft" x="0" y="0" onmousedown="handlePan(-1,0)"/>
</g>
<svg viewBox="0 0 15 15" width="100%" height="30px" preserveAspectRatio="xMaxYMin meet">
 <g id="arrow_out" transform="scale(0.3 0.3)">
  <a xlink:href="class_w_p_r_1_1_controllers_1_1_customer_1_1_change_user_settings_1_1_change_user_settings_controller__coll__graph_org.svg" target="_base">
   <rect id="button" ry="5" rx="5" y="6" x="6" height="38" width="38"
        fill="#f2f5e9" fill-opacity="0.5" stroke="#606060" stroke-width="1.0"/>
   <path id="arrow"
     d="M 11.500037,31.436501 C 11.940474,20.09759 22.043105,11.32322 32.158766,21.979434 L 37.068811,17.246167 C 37.068811,17.246167 37.088388,32 37.088388,32 L 22.160133,31.978069 C 22.160133,31.978069 26.997745,27.140456 26.997745,27.140456 C 18.528582,18.264221 13.291696,25.230495 11.500037,31.436501 z"
     style="fill:#404040;"/>
  </a>
 </g>
</svg>

<style type='text/css'>
<![CDATA[
[data-mouse-over-selected='false'] { opacity: 0.7; }
[data-mouse-over-selected='true']  { opacity: 1.0; }
]]>
</style>
<script type="application/ecmascript"><![CDATA[
document.addEventListener('DOMContentLoaded', (event) => {
  highlightEdges();
  highlightAdjacentNodes();
});
]]></script>
</svg>
