<?xml version="1.0" encoding="UTF-8" standalone="no"?>
<!DOCTYPE svg PUBLIC "-//W3C//DTD SVG 1.1//EN"
 "http://www.w3.org/Graphics/SVG/1.1/DTD/svg11.dtd">
<!-- Generated by graphviz version 12.2.1 (20241206.2353)
 -->
<!-- Title: WPR.Repository.VehicleRepository Pages: 1 -->
<!--zoomable 908 -->

<svg id="main" version="1.1" xmlns="http://www.w3.org/2000/svg" xmlns:xlink="http://www.w3.org/1999/xlink" xml:space="preserve" onload="init(evt)">

<style type="text/css"><![CDATA[
.node, .edge {opacity: 0.7;}
.node.selected, .edge.selected {opacity: 1;}
.edge:hover path { stroke: red; }
.edge:hover polygon { stroke: red; fill: red; }
]]></style>

<defs>
  <circle id="rim" cx="0" cy="0" r="7"/>
  <circle id="rim2" cx="0" cy="0" r="3.5"/>
  <g id="zoomPlus">
    <use xlink:href="#rim" fill="#404040"><set attributeName="fill" to="#808080" begin="zoomplus.mouseover" end="zoomplus.mouseout"/></use>
    <path d="M-4,0h8M0,-4v8" fill="none" stroke="white" stroke-width="1.5" pointer-events="none"/>
  </g>
  <g id="zoomMin">
    <use xlink:href="#rim" fill="#404040"><set attributeName="fill" to="#808080" begin="zoomminus.mouseover" end="zoomminus.mouseout"/></use>
    <path d="M-4,0h8" fill="none" stroke="white" stroke-width="1.5" pointer-events="none"/>
  </g>
  <g id="arrowUp" transform="translate(30 24)">
    <use xlink:href="#rim"/>
    <path pointer-events="none" fill="none" stroke="white" stroke-width="1.5" d="M0,-3.0v7 M-2.5,-0.5L0,-3.0L2.5,-0.5"/>
  </g>
  <g id="arrowRight" transform="rotate(90) translate(36 -43)">
    <use xlink:href="#rim"/>
    <path pointer-events="none" fill="none" stroke="white" stroke-width="1.5" d="M0,-3.0v7 M-2.5,-0.5L0,-3.0L2.5,-0.5"/>
  </g>
  <g id="arrowDown" transform="rotate(180) translate(-30 -48)">
    <use xlink:href="#rim"/>
    <path pointer-events="none" fill="none" stroke="white" stroke-width="1.5" d="M0,-3.0v7 M-2.5,-0.5L0,-3.0L2.5,-0.5"/>
  </g>
  <g id="arrowLeft" transform="rotate(270) translate(-36 17)">
    <use xlink:href="#rim"/>
    <path pointer-events="none" fill="none" stroke="white" stroke-width="1.5" d="M0,-3.0v7 M-2.5,-0.5L0,-3.0L2.5,-0.5"/>
  </g>
  <g id="resetDef">
    <use xlink:href="#rim2" fill="#404040"><set attributeName="fill" to="#808080" begin="reset.mouseover" end="reset.mouseout"/></use>
  </g>
</defs>
<script type="application/ecmascript">
var viewWidth = 617;
var viewHeight = 908;
var sectionId = 'dynsection-1';
</script>
<script type="application/ecmascript" xlink:href="svg.min.js"/>
<svg id="graph" class="graph">
<g id="viewport">
<title>WPR.Repository.VehicleRepository</title>
<!-- Node1 -->
<g id="Node000001" class="node">
<title>Node1</title>
<g id="a_Node000001"><a xlink:title="De VehicleRepository class geeft de methodes voor de interactie met de database voor gebruiker gerela...">
<polygon fill="#999999" stroke="none" points="373.38,-368 210.12,-368 210.12,0 373.38,0 373.38,-368"/>
<text text-anchor="start" x="214.12" y="-354.5" font-family="Helvetica,sans-Serif" font-size="10.00">WPR.Repository.VehicleRepository</text>
<text text-anchor="start" x="215.56" y="-338.5" font-family="Helvetica,sans-Serif" font-size="10.00">+</text>
<text text-anchor="start" x="227" y="-338.5" font-family="Helvetica,sans-Serif" font-size="10.00">Status</text>
<text text-anchor="start" x="215.56" y="-322.5" font-family="Helvetica,sans-Serif" font-size="10.00">+</text>
<text text-anchor="start" x="227" y="-322.5" font-family="Helvetica,sans-Serif" font-size="10.00">StatusCode</text>
<text text-anchor="start" x="215.56" y="-306.5" font-family="Helvetica,sans-Serif" font-size="10.00">+</text>
<text text-anchor="start" x="227" y="-306.5" font-family="Helvetica,sans-Serif" font-size="10.00">Message</text>
<text text-anchor="start" x="215.56" y="-290.5" font-family="Helvetica,sans-Serif" font-size="10.00">+</text>
<text text-anchor="start" x="227" y="-290.5" font-family="Helvetica,sans-Serif" font-size="10.00">VehicleRepository()</text>
<text text-anchor="start" x="215.56" y="-274.5" font-family="Helvetica,sans-Serif" font-size="10.00">+</text>
<text text-anchor="start" x="227" y="-274.5" font-family="Helvetica,sans-Serif" font-size="10.00">GetVehiclePlateAsync()</text>
<text text-anchor="start" x="215.56" y="-258.5" font-family="Helvetica,sans-Serif" font-size="10.00">+</text>
<text text-anchor="start" x="227" y="-258.5" font-family="Helvetica,sans-Serif" font-size="10.00">GetVehicleNameAsync()</text>
<text text-anchor="start" x="215.56" y="-242.5" font-family="Helvetica,sans-Serif" font-size="10.00">+</text>
<text text-anchor="start" x="227" y="-242.5" font-family="Helvetica,sans-Serif" font-size="10.00">GetVehicleColorAsync()</text>
<text text-anchor="start" x="215.56" y="-226.5" font-family="Helvetica,sans-Serif" font-size="10.00">+</text>
<text text-anchor="start" x="227" y="-226.5" font-family="Helvetica,sans-Serif" font-size="10.00">GetFrameNumbersAsync()</text>
<text text-anchor="start" x="215.56" y="-210.5" font-family="Helvetica,sans-Serif" font-size="10.00">+</text>
<text text-anchor="start" x="227" y="-210.5" font-family="Helvetica,sans-Serif" font-size="10.00">GetFrameNumberSpecifiekType</text>
<text text-anchor="start" x="227" y="-198.5" font-family="Helvetica,sans-Serif" font-size="10.00">Async()</text>
<text text-anchor="start" x="215.56" y="-182.5" font-family="Helvetica,sans-Serif" font-size="10.00">+</text>
<text text-anchor="start" x="227" y="-182.5" font-family="Helvetica,sans-Serif" font-size="10.00">GetVehicleDataAsync()</text>
<text text-anchor="start" x="215.56" y="-166.5" font-family="Helvetica,sans-Serif" font-size="10.00">+</text>
<text text-anchor="start" x="227" y="-166.5" font-family="Helvetica,sans-Serif" font-size="10.00">HireVehicle()</text>
<text text-anchor="start" x="215.56" y="-150.5" font-family="Helvetica,sans-Serif" font-size="10.00">+</text>
<text text-anchor="start" x="227" y="-150.5" font-family="Helvetica,sans-Serif" font-size="10.00">CancelRental()</text>
<text text-anchor="start" x="215.56" y="-134.5" font-family="Helvetica,sans-Serif" font-size="10.00">+</text>
<text text-anchor="start" x="227" y="-134.5" font-family="Helvetica,sans-Serif" font-size="10.00">GetAllUserRentals()</text>
<text text-anchor="start" x="215.56" y="-118.5" font-family="Helvetica,sans-Serif" font-size="10.00">+</text>
<text text-anchor="start" x="227" y="-118.5" font-family="Helvetica,sans-Serif" font-size="10.00">GetAllUserRentalsDetailed()</text>
<text text-anchor="start" x="215.56" y="-102.5" font-family="Helvetica,sans-Serif" font-size="10.00">+</text>
<text text-anchor="start" x="227" y="-102.5" font-family="Helvetica,sans-Serif" font-size="10.00">ChangeRental()</text>
<text text-anchor="start" x="215.56" y="-86.5" font-family="Helvetica,sans-Serif" font-size="10.00">+</text>
<text text-anchor="start" x="227" y="-86.5" font-family="Helvetica,sans-Serif" font-size="10.00">DeleteVehicleAsync()</text>
<text text-anchor="start" x="215.56" y="-70.5" font-family="Helvetica,sans-Serif" font-size="10.00">+</text>
<text text-anchor="start" x="227" y="-70.5" font-family="Helvetica,sans-Serif" font-size="10.00">ChangeRepairStatus()</text>
<text text-anchor="start" x="217.06" y="-54.5" font-family="Helvetica,sans-Serif" font-size="10.00">&#45;</text>
<text text-anchor="start" x="227" y="-54.5" font-family="Helvetica,sans-Serif" font-size="10.00">DecryptCookie()</text>
<text text-anchor="start" x="217.06" y="-38.5" font-family="Helvetica,sans-Serif" font-size="10.00">&#45;</text>
<text text-anchor="start" x="227" y="-38.5" font-family="Helvetica,sans-Serif" font-size="10.00">IsBusinessUser()</text>
<text text-anchor="start" x="217.06" y="-22.5" font-family="Helvetica,sans-Serif" font-size="10.00">&#45;</text>
<text text-anchor="start" x="227" y="-22.5" font-family="Helvetica,sans-Serif" font-size="10.00">InsertRequest()</text>
<text text-anchor="start" x="217.06" y="-6.5" font-family="Helvetica,sans-Serif" font-size="10.00">&#45;</text>
<text text-anchor="start" x="227" y="-6.5" font-family="Helvetica,sans-Serif" font-size="10.00">SendEmail()</text>
<polygon fill="#666666" stroke="#666666" points="210.12,-350 210.12,-350 373.38,-350 373.38,-350 210.12,-350"/>
<polygon fill="#666666" stroke="#666666" points="210.12,-302 210.12,-302 225,-302 225,-302 210.12,-302"/>
<polygon fill="#666666" stroke="#666666" points="225,-302 225,-302 373.38,-302 373.38,-302 225,-302"/>
<polygon fill="none" stroke="#666666" points="210.12,0 210.12,-368 373.38,-368 373.38,0 210.12,0"/>
</a>
</g>
</g>
<!-- Node2 -->
<g id="Node000002" class="node">
<title>Node2</title>
<g id="a_Node000002"><a xlink:href="interface_w_p_r_1_1_repository_1_1_i_vehicle_repository.html" target="_top" xlink:title=" ">
<polygon fill="white" stroke="none" points="157.5,-704 0,-704 0,-416 157.5,-416 157.5,-704"/>
<text text-anchor="start" x="37.88" y="-690.5" font-family="Helvetica,sans-Serif" font-size="10.00">IVehicleRepository</text>
<text text-anchor="start" x="4" y="-674.5" font-family="Helvetica,sans-Serif" font-size="10.00">+</text>
<text text-anchor="start" x="14" y="-674.5" font-family="Helvetica,sans-Serif" font-size="10.00">Status</text>
<text text-anchor="start" x="4" y="-658.5" font-family="Helvetica,sans-Serif" font-size="10.00">+</text>
<text text-anchor="start" x="14" y="-658.5" font-family="Helvetica,sans-Serif" font-size="10.00">StatusCode</text>
<text text-anchor="start" x="4" y="-642.5" font-family="Helvetica,sans-Serif" font-size="10.00">+</text>
<text text-anchor="start" x="14" y="-642.5" font-family="Helvetica,sans-Serif" font-size="10.00">Message</text>
<text text-anchor="start" x="4" y="-626.5" font-family="Helvetica,sans-Serif" font-size="10.00">+</text>
<text text-anchor="start" x="14" y="-626.5" font-family="Helvetica,sans-Serif" font-size="10.00">GetVehiclePlateAsync()</text>
<text text-anchor="start" x="4" y="-610.5" font-family="Helvetica,sans-Serif" font-size="10.00">+</text>
<text text-anchor="start" x="14" y="-610.5" font-family="Helvetica,sans-Serif" font-size="10.00">GetVehicleNameAsync()</text>
<text text-anchor="start" x="4" y="-594.5" font-family="Helvetica,sans-Serif" font-size="10.00">+</text>
<text text-anchor="start" x="14" y="-594.5" font-family="Helvetica,sans-Serif" font-size="10.00">GetVehicleColorAsync()</text>
<text text-anchor="start" x="4" y="-578.5" font-family="Helvetica,sans-Serif" font-size="10.00">+</text>
<text text-anchor="start" x="14" y="-578.5" font-family="Helvetica,sans-Serif" font-size="10.00">GetFrameNumbersAsync()</text>
<text text-anchor="start" x="4" y="-562.5" font-family="Helvetica,sans-Serif" font-size="10.00">+</text>
<text text-anchor="start" x="14" y="-562.5" font-family="Helvetica,sans-Serif" font-size="10.00">GetVehicleDataAsync()</text>
<text text-anchor="start" x="4" y="-546.5" font-family="Helvetica,sans-Serif" font-size="10.00">+</text>
<text text-anchor="start" x="14" y="-546.5" font-family="Helvetica,sans-Serif" font-size="10.00">GetFrameNumberSpecifiekType</text>
<text text-anchor="start" x="14" y="-534.5" font-family="Helvetica,sans-Serif" font-size="10.00">Async()</text>
<text text-anchor="start" x="4" y="-518.5" font-family="Helvetica,sans-Serif" font-size="10.00">+</text>
<text text-anchor="start" x="14" y="-518.5" font-family="Helvetica,sans-Serif" font-size="10.00">HireVehicle()</text>
<text text-anchor="start" x="4" y="-502.5" font-family="Helvetica,sans-Serif" font-size="10.00">+</text>
<text text-anchor="start" x="14" y="-502.5" font-family="Helvetica,sans-Serif" font-size="10.00">CancelRental()</text>
<text text-anchor="start" x="4" y="-486.5" font-family="Helvetica,sans-Serif" font-size="10.00">+</text>
<text text-anchor="start" x="14" y="-486.5" font-family="Helvetica,sans-Serif" font-size="10.00">GetAllUserRentals()</text>
<text text-anchor="start" x="4" y="-470.5" font-family="Helvetica,sans-Serif" font-size="10.00">+</text>
<text text-anchor="start" x="14" y="-470.5" font-family="Helvetica,sans-Serif" font-size="10.00">GetAllUserRentalsDetailed()</text>
<text text-anchor="start" x="4" y="-454.5" font-family="Helvetica,sans-Serif" font-size="10.00">+</text>
<text text-anchor="start" x="14" y="-454.5" font-family="Helvetica,sans-Serif" font-size="10.00">ChangeRental()</text>
<text text-anchor="start" x="4" y="-438.5" font-family="Helvetica,sans-Serif" font-size="10.00">+</text>
<text text-anchor="start" x="14" y="-438.5" font-family="Helvetica,sans-Serif" font-size="10.00">DeleteVehicleAsync()</text>
<text text-anchor="start" x="4" y="-422.5" font-family="Helvetica,sans-Serif" font-size="10.00">+</text>
<text text-anchor="start" x="14" y="-422.5" font-family="Helvetica,sans-Serif" font-size="10.00">ChangeRepairStatus()</text>
<polygon fill="#666666" stroke="#666666" points="0,-686 0,-686 157.5,-686 157.5,-686 0,-686"/>
<polygon fill="#666666" stroke="#666666" points="0,-638 0,-638 12,-638 12,-638 0,-638"/>
<polygon fill="#666666" stroke="#666666" points="12,-638 12,-638 157.5,-638 157.5,-638 12,-638"/>
<polygon fill="none" stroke="#666666" points="0,-416 0,-704 157.5,-704 157.5,-416 0,-416"/>
</a>
</g>
</g>
<!-- Node2&#45;&gt;Node1 -->
<g id="edge1_Node000001_Node000002" class="edge">
<title>Node2&#45;&gt;Node1</title>
<g id="a_edge1_Node000001_Node000002"><a xlink:title=" ">
<path fill="none" stroke="#63b8ff" d="M163.13,-410.84C178.62,-383.65 194.75,-355.31 210.16,-328.27"/>
<polygon fill="none" stroke="#63b8ff" points="160.11,-409.06 158.21,-419.48 166.2,-412.53 160.11,-409.06"/>
</a>
</g>
</g>
<!-- Node3 -->
<g id="Node000003" class="node">
<title>Node3</title>
<g id="a_Node000003"><a xlink:href="interface_w_p_r_1_1_database_1_1_i_connector.html" target="_top" xlink:title="Connector class om verbinding te maken met de database, maakt gebruik van de connectie strings die zi...">
<polygon fill="white" stroke="none" points="303.75,-586 175.75,-586 175.75,-534 303.75,-534 303.75,-586"/>
<text text-anchor="start" x="179.75" y="-572.5" font-family="Helvetica,sans-Serif" font-size="10.00">WPR.Database.IConnector</text>
<text text-anchor="start" x="238.25" y="-556.5" font-family="Helvetica,sans-Serif" font-size="10.00"> </text>
<text text-anchor="start" x="182.88" y="-540.5" font-family="Helvetica,sans-Serif" font-size="10.00">+</text>
<text text-anchor="start" x="196" y="-540.5" font-family="Helvetica,sans-Serif" font-size="10.00">CreateDbConnection()</text>
<polygon fill="#666666" stroke="#666666" points="175.75,-568 175.75,-568 303.75,-568 303.75,-568 175.75,-568"/>
<polygon fill="#666666" stroke="#666666" points="175.75,-552 175.75,-552 303.75,-552 303.75,-552 175.75,-552"/>
<polygon fill="none" stroke="#666666" points="175.75,-534 175.75,-586 303.75,-586 303.75,-534 175.75,-534"/>
</a>
</g>
</g>
<!-- Node3&#45;&gt;Node1 -->
<g id="edge2_Node000001_Node000003" class="edge">
<title>Node3&#45;&gt;Node1</title>
<g id="a_edge2_Node000001_Node000003"><a xlink:title=" ">
<path fill="none" stroke="#63b8ff" d="M243.2,-534.17C247.72,-501.66 256.08,-441.56 264.6,-380.28"/>
<polygon fill="none" stroke="#63b8ff" points="264.58,-380.38 261.45,-373.89 266.24,-368.5 269.37,-374.99 264.58,-380.38"/>
</a>
</g>
<text text-anchor="middle" x="289.64" y="-388.5" font-family="Helvetica,sans-Serif" font-size="10.00" fill="grey"> &#45;_connector</text>
</g>
<!-- Node4 -->
<g id="Node000004" class="node">
<title>Node4</title>
<g id="a_Node000004"><a xlink:href="class_w_p_r_1_1_cryption_1_1_crypt.html" target="_top" xlink:title="Class Crypt zorgt voor een veilig encryptie en decryptie van strings. De Crptie wordt gedaan door het...">
<polygon fill="white" stroke="none" points="420.12,-610 321.38,-610 321.38,-510 420.12,-510 420.12,-610"/>
<text text-anchor="start" x="325.38" y="-596.5" font-family="Helvetica,sans-Serif" font-size="10.00">WPR.Cryption.Crypt</text>
<text text-anchor="start" x="336.94" y="-580.5" font-family="Helvetica,sans-Serif" font-size="10.00">&#45;</text>
<text text-anchor="start" x="355.5" y="-580.5" font-family="Helvetica,sans-Serif" font-size="10.00">_key</text>
<text text-anchor="start" x="336.94" y="-564.5" font-family="Helvetica,sans-Serif" font-size="10.00">&#45;</text>
<text text-anchor="start" x="355.5" y="-564.5" font-family="Helvetica,sans-Serif" font-size="10.00">_IV</text>
<text text-anchor="start" x="335.44" y="-548.5" font-family="Helvetica,sans-Serif" font-size="10.00">+</text>
<text text-anchor="start" x="355.5" y="-548.5" font-family="Helvetica,sans-Serif" font-size="10.00">Crypt()</text>
<text text-anchor="start" x="335.44" y="-532.5" font-family="Helvetica,sans-Serif" font-size="10.00">+</text>
<text text-anchor="start" x="355.5" y="-532.5" font-family="Helvetica,sans-Serif" font-size="10.00">Encrypt()</text>
<text text-anchor="start" x="335.44" y="-516.5" font-family="Helvetica,sans-Serif" font-size="10.00">+</text>
<text text-anchor="start" x="355.5" y="-516.5" font-family="Helvetica,sans-Serif" font-size="10.00">Decrypt()</text>
<polygon fill="#666666" stroke="#666666" points="321.38,-592 321.38,-592 420.12,-592 420.12,-592 321.38,-592"/>
<polygon fill="#666666" stroke="#666666" points="321.38,-560 321.38,-560 353.5,-560 353.5,-560 321.38,-560"/>
<polygon fill="#666666" stroke="#666666" points="353.5,-560 353.5,-560 420.12,-560 420.12,-560 353.5,-560"/>
<polygon fill="none" stroke="#666666" points="321.38,-510 321.38,-610 420.12,-610 420.12,-510 321.38,-510"/>
</a>
</g>
</g>
<!-- Node4&#45;&gt;Node1 -->
<g id="edge3_Node000001_Node000004" class="edge">
<title>Node4&#45;&gt;Node1</title>
<g id="a_edge3_Node000001_Node000004"><a xlink:title=" ">
<path fill="none" stroke="#63b8ff" d="M360.42,-510.11C353.27,-476.23 343.22,-428.68 333.02,-380.39"/>
<polygon fill="none" stroke="#63b8ff" points="333.02,-380.39 327.87,-375.35 330.54,-368.65 335.7,-373.7 333.02,-380.39"/>
</a>
</g>
<text text-anchor="middle" x="352.48" y="-388.5" font-family="Helvetica,sans-Serif" font-size="10.00" fill="grey"> &#45;_crypt</text>
</g>
<!-- Node5 -->
<g id="Node000005" class="node">
<title>Node5</title>
<g id="a_Node000005"><a xlink:href="class_w_p_r_1_1_data_1_1_env_config.html" target="_top" xlink:title="Leez het .env bestand uit waarin de connectie strings staan naar de database. Deze staan in een apart...">
<polygon fill="white" stroke="none" points="423.62,-900 317.88,-900 317.88,-752 423.62,-752 423.62,-900"/>
<text text-anchor="start" x="322.38" y="-886.5" font-family="Helvetica,sans-Serif" font-size="10.00">WPR.Data.EnvConfig</text>
<text text-anchor="start" x="323.38" y="-870.5" font-family="Helvetica,sans-Serif" font-size="10.00">&#45;</text>
<text text-anchor="start" x="331.88" y="-870.5" font-family="Helvetica,sans-Serif" font-size="10.00">_configuration</text>
<text text-anchor="start" x="321.88" y="-854.5" font-family="Helvetica,sans-Serif" font-size="10.00">+</text>
<text text-anchor="start" x="331.88" y="-854.5" font-family="Helvetica,sans-Serif" font-size="10.00">EnvConfig()</text>
<text text-anchor="start" x="321.88" y="-838.5" font-family="Helvetica,sans-Serif" font-size="10.00">+</text>
<text text-anchor="start" x="331.88" y="-838.5" font-family="Helvetica,sans-Serif" font-size="10.00">Get()</text>
<text text-anchor="start" x="321.88" y="-822.5" font-family="Helvetica,sans-Serif" font-size="10.00">+</text>
<text text-anchor="start" x="331.88" y="-822.5" font-family="Helvetica,sans-Serif" font-size="10.00">IsConfigured()</text>
<text text-anchor="start" x="321.88" y="-806.5" font-family="Helvetica,sans-Serif" font-size="10.00">+</text>
<text text-anchor="start" x="331.88" y="-806.5" font-family="Helvetica,sans-Serif" font-size="10.00">GetSmtpHost()</text>
<text text-anchor="start" x="321.88" y="-790.5" font-family="Helvetica,sans-Serif" font-size="10.00">+</text>
<text text-anchor="start" x="331.88" y="-790.5" font-family="Helvetica,sans-Serif" font-size="10.00">GetSmtpPort()</text>
<text text-anchor="start" x="321.88" y="-774.5" font-family="Helvetica,sans-Serif" font-size="10.00">+</text>
<text text-anchor="start" x="331.88" y="-774.5" font-family="Helvetica,sans-Serif" font-size="10.00">GetFromEmail()</text>
<text text-anchor="start" x="321.88" y="-758.5" font-family="Helvetica,sans-Serif" font-size="10.00">+</text>
<text text-anchor="start" x="331.88" y="-758.5" font-family="Helvetica,sans-Serif" font-size="10.00">GetFromPassword()</text>
<polygon fill="#666666" stroke="#666666" points="317.88,-882 317.88,-882 423.62,-882 423.62,-882 317.88,-882"/>
<polygon fill="#666666" stroke="#666666" points="317.88,-866 317.88,-866 329.88,-866 329.88,-866 317.88,-866"/>
<polygon fill="#666666" stroke="#666666" points="329.88,-866 329.88,-866 423.62,-866 423.62,-866 329.88,-866"/>
<polygon fill="none" stroke="#666666" points="317.88,-752 317.88,-900 423.62,-900 423.62,-752 317.88,-752"/>
</a>
</g>
</g>
<!-- Node5&#45;&gt;Node4 -->
<g id="edge4_Node000004_Node000005" class="edge">
<title>Node5&#45;&gt;Node4</title>
<g id="a_edge4_Node000004_Node000005"><a xlink:title=" ">
<path fill="none" stroke="#63b8ff" d="M370.75,-752.16C370.75,-711.53 370.75,-661.46 370.75,-622.76"/>
<polygon fill="none" stroke="#63b8ff" points="370.75,-622.74 366.75,-616.74 370.75,-610.74 374.75,-616.74 370.75,-622.74"/>
</a>
</g>
<text text-anchor="middle" x="398.5" y="-724.5" font-family="Helvetica,sans-Serif" font-size="10.00" fill="grey"> &#45;_envConfig</text>
</g>
<!-- Node6 -->
<g id="Node000006" class="node">
<title>Node6</title>
<g id="a_Node000006"><a xlink:href="class_w_p_r_1_1_services_1_1_email_service.html" target="_top" xlink:title=" ">
<polygon fill="white" stroke="none" points="605.38,-670 438.12,-670 438.12,-450 605.38,-450 605.38,-670"/>
<text text-anchor="start" x="458.75" y="-656.5" font-family="Helvetica,sans-Serif" font-size="10.00">WPR.Services.EmailService</text>
<text text-anchor="start" x="520.25" y="-640.5" font-family="Helvetica,sans-Serif" font-size="10.00"> </text>
<text text-anchor="start" x="442.12" y="-624.5" font-family="Helvetica,sans-Serif" font-size="10.00">+</text>
<text text-anchor="start" x="452.12" y="-624.5" font-family="Helvetica,sans-Serif" font-size="10.00">EmailService()</text>
<text text-anchor="start" x="442.12" y="-608.5" font-family="Helvetica,sans-Serif" font-size="10.00">+</text>
<text text-anchor="start" x="452.12" y="-608.5" font-family="Helvetica,sans-Serif" font-size="10.00">Send()</text>
<text text-anchor="start" x="442.12" y="-592.5" font-family="Helvetica,sans-Serif" font-size="10.00">+</text>
<text text-anchor="start" x="452.12" y="-592.5" font-family="Helvetica,sans-Serif" font-size="10.00">SendWelcomeEmail()</text>
<text text-anchor="start" x="442.12" y="-576.5" font-family="Helvetica,sans-Serif" font-size="10.00">+</text>
<text text-anchor="start" x="452.12" y="-576.5" font-family="Helvetica,sans-Serif" font-size="10.00">SendRentalConfirmMail()</text>
<text text-anchor="start" x="442.12" y="-560.5" font-family="Helvetica,sans-Serif" font-size="10.00">+</text>
<text text-anchor="start" x="452.12" y="-560.5" font-family="Helvetica,sans-Serif" font-size="10.00">SendConfirmationEmailBusiness()</text>
<text text-anchor="start" x="442.12" y="-544.5" font-family="Helvetica,sans-Serif" font-size="10.00">+</text>
<text text-anchor="start" x="452.12" y="-544.5" font-family="Helvetica,sans-Serif" font-size="10.00">SendBusinessReviewEmail()</text>
<text text-anchor="start" x="443.62" y="-528.5" font-family="Helvetica,sans-Serif" font-size="10.00">&#45;</text>
<text text-anchor="start" x="452.12" y="-528.5" font-family="Helvetica,sans-Serif" font-size="10.00">CreateSmtpClient()</text>
<text text-anchor="start" x="443.62" y="-512.5" font-family="Helvetica,sans-Serif" font-size="10.00">&#45;</text>
<text text-anchor="start" x="452.12" y="-512.5" font-family="Helvetica,sans-Serif" font-size="10.00">BuildRentalConfirmationBody()</text>
<text text-anchor="start" x="443.62" y="-496.5" font-family="Helvetica,sans-Serif" font-size="10.00">&#45;</text>
<text text-anchor="start" x="452.12" y="-496.5" font-family="Helvetica,sans-Serif" font-size="10.00">BuildConfirmationEmailBusiness</text>
<text text-anchor="start" x="452.12" y="-484.5" font-family="Helvetica,sans-Serif" font-size="10.00">Body()</text>
<text text-anchor="start" x="443.62" y="-468.5" font-family="Helvetica,sans-Serif" font-size="10.00">&#45;</text>
<text text-anchor="start" x="452.12" y="-468.5" font-family="Helvetica,sans-Serif" font-size="10.00">BuildBusinessReviewEmail</text>
<text text-anchor="start" x="452.12" y="-456.5" font-family="Helvetica,sans-Serif" font-size="10.00">Body()</text>
<polygon fill="#666666" stroke="#666666" points="438.12,-652 438.12,-652 605.38,-652 605.38,-652 438.12,-652"/>
<polygon fill="#666666" stroke="#666666" points="438.12,-636 438.12,-636 605.38,-636 605.38,-636 438.12,-636"/>
<polygon fill="none" stroke="#666666" points="438.12,-450 438.12,-670 605.38,-670 605.38,-450 438.12,-450"/>
</a>
</g>
</g>
<!-- Node5&#45;&gt;Node6 -->
<g id="edge7_Node000006_Node000005" class="edge">
<title>Node5&#45;&gt;Node6</title>
<g id="a_edge7_Node000006_Node000005"><a xlink:title=" ">
<path fill="none" stroke="#63b8ff" d="M419.69,-752.14C423.51,-746.05 427.24,-739.95 430.75,-734 440.71,-717.14 450.8,-699.1 460.46,-681.25"/>
<polygon fill="none" stroke="#63b8ff" points="460.47,-681.24 459.78,-674.06 466.15,-670.67 466.83,-677.85 460.47,-681.24"/>
</a>
</g>
<text text-anchor="middle" x="463.81" y="-724.5" font-family="Helvetica,sans-Serif" font-size="10.00" fill="grey"> &#45;_envConfig</text>
</g>
<!-- Node6&#45;&gt;Node1 -->
<g id="edge5_Node000001_Node000006" class="edge">
<title>Node6&#45;&gt;Node1</title>
<g id="a_edge5_Node000001_Node000006"><a xlink:title=" ">
<path fill="none" stroke="#63b8ff" d="M454.76,-450.07C431.44,-412.14 404.9,-369 380.12,-328.69"/>
<polygon fill="none" stroke="#63b8ff" points="380.1,-328.67 373.55,-325.66 373.82,-318.45 380.37,-321.46 380.1,-328.67"/>
</a>
</g>
<text text-anchor="middle" x="454.27" y="-388.5" font-family="Helvetica,sans-Serif" font-size="10.00" fill="grey"> &#45;_emailService</text>
</g>
<!-- Node7 -->
<g id="Node000007" class="node">
<title>Node7</title>
<g id="a_Node000007"><a xlink:href="interface_w_p_r_1_1_services_1_1_i_email_service.html" target="_top" xlink:title=" ">
<polygon fill="white" stroke="none" points="609.38,-884 442.12,-884 442.12,-768 609.38,-768 609.38,-884"/>
<text text-anchor="start" x="495.38" y="-870.5" font-family="Helvetica,sans-Serif" font-size="10.00">IEmailService</text>
<text text-anchor="start" x="524.25" y="-854.5" font-family="Helvetica,sans-Serif" font-size="10.00"> </text>
<text text-anchor="start" x="446.12" y="-838.5" font-family="Helvetica,sans-Serif" font-size="10.00">+</text>
<text text-anchor="start" x="456.12" y="-838.5" font-family="Helvetica,sans-Serif" font-size="10.00">SendBusinessReviewEmail()</text>
<text text-anchor="start" x="446.12" y="-822.5" font-family="Helvetica,sans-Serif" font-size="10.00">+</text>
<text text-anchor="start" x="456.12" y="-822.5" font-family="Helvetica,sans-Serif" font-size="10.00">SendConfirmationEmailBusiness()</text>
<text text-anchor="start" x="446.12" y="-806.5" font-family="Helvetica,sans-Serif" font-size="10.00">+</text>
<text text-anchor="start" x="456.12" y="-806.5" font-family="Helvetica,sans-Serif" font-size="10.00">SendRentalConfirmMail()</text>
<text text-anchor="start" x="446.12" y="-790.5" font-family="Helvetica,sans-Serif" font-size="10.00">+</text>
<text text-anchor="start" x="456.12" y="-790.5" font-family="Helvetica,sans-Serif" font-size="10.00">SendWelcomeEmail()</text>
<text text-anchor="start" x="446.12" y="-774.5" font-family="Helvetica,sans-Serif" font-size="10.00">+</text>
<text text-anchor="start" x="456.12" y="-774.5" font-family="Helvetica,sans-Serif" font-size="10.00">Send()</text>
<polygon fill="#666666" stroke="#666666" points="442.12,-866 442.12,-866 609.38,-866 609.38,-866 442.12,-866"/>
<polygon fill="#666666" stroke="#666666" points="442.12,-850 442.12,-850 609.38,-850 609.38,-850 442.12,-850"/>
<polygon fill="none" stroke="#666666" points="442.12,-768 442.12,-884 609.38,-884 609.38,-768 442.12,-768"/>
</a>
</g>
</g>
<!-- Node7&#45;&gt;Node6 -->
<g id="edge6_Node000006_Node000007" class="edge">
<title>Node7&#45;&gt;Node6</title>
<g id="a_edge6_Node000006_Node000007"><a xlink:title=" ">
<path fill="none" stroke="#63b8ff" d="M524.71,-756.6C524.31,-730.12 523.84,-699.14 523.4,-669.76"/>
<polygon fill="none" stroke="#63b8ff" points="521.21,-756.58 524.86,-766.53 528.21,-756.48 521.21,-756.58"/>
</a>
</g>
</g>
</g>
</svg>

<g id="navigator" transform="translate(0 0)" fill="#404254">
  <rect fill="#f2f5e9" fill-opacity="0.5" stroke="#606060" stroke-width=".5" x="0" y="0" width="60" height="60"/>
  <use id="zoomplus" xlink:href="#zoomPlus" x="17" y="9" onmousedown="handleZoom(evt,'in')"/>
  <use id="zoomminus" xlink:href="#zoomMin" x="42" y="9" onmousedown="handleZoom(evt,'out')"/>
  <use id="reset" xlink:href="#resetDef" x="30" y="36" onmousedown="handleReset()"/>
   <use id="arrowup" xlink:href="#arrowUp" x="0" y="0" onmousedown="handlePan(0,-1)"/>
  <use id="arrowright" xlink:href="#arrowRight" x="0" y="0" onmousedown="handlePan(1,0)"/>
  <use id="arrowdown" xlink:href="#arrowDown" x="0" y="0" onmousedown="handlePan(0,1)"/>
  <use id="arrowleft" xlink:href="#arrowLeft" x="0" y="0" onmousedown="handlePan(-1,0)"/>
</g>
<svg viewBox="0 0 15 15" width="100%" height="30px" preserveAspectRatio="xMaxYMin meet">
 <g id="arrow_out" transform="scale(0.3 0.3)">
  <a xlink:href="class_w_p_r_1_1_repository_1_1_vehicle_repository__coll__graph_org.svg" target="_base">
   <rect id="button" ry="5" rx="5" y="6" x="6" height="38" width="38"
        fill="#f2f5e9" fill-opacity="0.5" stroke="#606060" stroke-width="1.0"/>
   <path id="arrow"
     d="M 11.500037,31.436501 C 11.940474,20.09759 22.043105,11.32322 32.158766,21.979434 L 37.068811,17.246167 C 37.068811,17.246167 37.088388,32 37.088388,32 L 22.160133,31.978069 C 22.160133,31.978069 26.997745,27.140456 26.997745,27.140456 C 18.528582,18.264221 13.291696,25.230495 11.500037,31.436501 z"
     style="fill:#404040;"/>
  </a>
 </g>
</svg>

<style type='text/css'>
<![CDATA[
[data-mouse-over-selected='false'] { opacity: 0.7; }
[data-mouse-over-selected='true']  { opacity: 1.0; }
]]>
</style>
<script type="application/ecmascript"><![CDATA[
document.addEventListener('DOMContentLoaded', (event) => {
  highlightEdges();
  highlightAdjacentNodes();
});
]]></script>
</svg>
