<?xml version="1.0" encoding="UTF-8" standalone="no"?>
<!DOCTYPE svg PUBLIC "-//W3C//DTD SVG 1.1//EN"
 "http://www.w3.org/Graphics/SVG/1.1/DTD/svg11.dtd">
<!-- Generated by graphviz version 12.2.1 (20241206.2353)
 -->
<!-- Title: WPR.Repository.UserRepository Pages: 1 -->
<svg width="162pt" height="580pt"
 viewBox="0.00 0.00 161.75 580.00" xmlns="http://www.w3.org/2000/svg" xmlns:xlink="http://www.w3.org/1999/xlink">
<g id="graph0" class="graph" transform="scale(1 1) rotate(0) translate(4 576)">
<title>WPR.Repository.UserRepository</title>
<!-- Node1 -->
<g id="Node000001" class="node">
<title>Node1</title>
<g id="a_Node000001"><a xlink:title="De UserRepository class geeft de methodes voor de interactie met de database voor gebruiker gerelatee...">
<polygon fill="#999999" stroke="none" points="153.75,-324 0,-324 0,0 153.75,0 153.75,-324"/>
<text text-anchor="start" x="4.5" y="-310.5" font-family="Helvetica,sans-Serif" font-size="10.00">WPR.Repository.UserRepository</text>
<text text-anchor="start" x="5.5" y="-294.5" font-family="Helvetica,sans-Serif" font-size="10.00">&#45;</text>
<text text-anchor="start" x="14" y="-294.5" font-family="Helvetica,sans-Serif" font-size="10.00">_connector</text>
<text text-anchor="start" x="5.5" y="-278.5" font-family="Helvetica,sans-Serif" font-size="10.00">&#45;</text>
<text text-anchor="start" x="14" y="-278.5" font-family="Helvetica,sans-Serif" font-size="10.00">_hash</text>
<text text-anchor="start" x="5.5" y="-262.5" font-family="Helvetica,sans-Serif" font-size="10.00">&#45;</text>
<text text-anchor="start" x="14" y="-262.5" font-family="Helvetica,sans-Serif" font-size="10.00">_crypt</text>
<text text-anchor="start" x="4" y="-246.5" font-family="Helvetica,sans-Serif" font-size="10.00">+</text>
<text text-anchor="start" x="14" y="-246.5" font-family="Helvetica,sans-Serif" font-size="10.00">UserRepository()</text>
<text text-anchor="start" x="4" y="-230.5" font-family="Helvetica,sans-Serif" font-size="10.00">+</text>
<text text-anchor="start" x="14" y="-230.5" font-family="Helvetica,sans-Serif" font-size="10.00">ValidateUserAsync()</text>
<text text-anchor="start" x="4" y="-214.5" font-family="Helvetica,sans-Serif" font-size="10.00">+</text>
<text text-anchor="start" x="14" y="-214.5" font-family="Helvetica,sans-Serif" font-size="10.00">checkUsageEmailAsync()</text>
<text text-anchor="start" x="4" y="-198.5" font-family="Helvetica,sans-Serif" font-size="10.00">+</text>
<text text-anchor="start" x="14" y="-198.5" font-family="Helvetica,sans-Serif" font-size="10.00">addCustomerAsync()</text>
<text text-anchor="start" x="4" y="-182.5" font-family="Helvetica,sans-Serif" font-size="10.00">+</text>
<text text-anchor="start" x="14" y="-182.5" font-family="Helvetica,sans-Serif" font-size="10.00">addPersonalCustomerAsync()</text>
<text text-anchor="start" x="4" y="-166.5" font-family="Helvetica,sans-Serif" font-size="10.00">+</text>
<text text-anchor="start" x="14" y="-166.5" font-family="Helvetica,sans-Serif" font-size="10.00">addEmployeeCustomerAsync()</text>
<text text-anchor="start" x="4" y="-150.5" font-family="Helvetica,sans-Serif" font-size="10.00">+</text>
<text text-anchor="start" x="14" y="-150.5" font-family="Helvetica,sans-Serif" font-size="10.00">GetUserIdAsync()</text>
<text text-anchor="start" x="4" y="-134.5" font-family="Helvetica,sans-Serif" font-size="10.00">+</text>
<text text-anchor="start" x="14" y="-134.5" font-family="Helvetica,sans-Serif" font-size="10.00">GetUserNameAsync()</text>
<text text-anchor="start" x="4" y="-118.5" font-family="Helvetica,sans-Serif" font-size="10.00">+</text>
<text text-anchor="start" x="14" y="-118.5" font-family="Helvetica,sans-Serif" font-size="10.00">EditUserInfoAsync()</text>
<text text-anchor="start" x="4" y="-102.5" font-family="Helvetica,sans-Serif" font-size="10.00">+</text>
<text text-anchor="start" x="14" y="-102.5" font-family="Helvetica,sans-Serif" font-size="10.00">IsKvkNumberAsync()</text>
<text text-anchor="start" x="14" y="-86.5" font-family="Helvetica,sans-Serif" font-size="10.00">en 16 anderen...</text>
<text text-anchor="start" x="5.5" y="-70.5" font-family="Helvetica,sans-Serif" font-size="10.00">&#45;</text>
<text text-anchor="start" x="14" y="-70.5" font-family="Helvetica,sans-Serif" font-size="10.00">CreateUserInfoQuery()</text>
<text text-anchor="start" x="5.5" y="-54.5" font-family="Helvetica,sans-Serif" font-size="10.00">&#45;</text>
<text text-anchor="start" x="14" y="-54.5" font-family="Helvetica,sans-Serif" font-size="10.00">AddCustomerChecks()</text>
<text text-anchor="start" x="5.5" y="-38.5" font-family="Helvetica,sans-Serif" font-size="10.00">&#45;</text>
<text text-anchor="start" x="14" y="-38.5" font-family="Helvetica,sans-Serif" font-size="10.00">AddPrivateCustomerDetails()</text>
<text text-anchor="start" x="5.5" y="-22.5" font-family="Helvetica,sans-Serif" font-size="10.00">&#45;</text>
<text text-anchor="start" x="14" y="-22.5" font-family="Helvetica,sans-Serif" font-size="10.00">CreateUpdateQuery()</text>
<text text-anchor="start" x="5.5" y="-6.5" font-family="Helvetica,sans-Serif" font-size="10.00">&#45;</text>
<text text-anchor="start" x="14" y="-6.5" font-family="Helvetica,sans-Serif" font-size="10.00">ChangeBusinessData()</text>
<polygon fill="#666666" stroke="#666666" points="0,-306 0,-306 153.75,-306 153.75,-306 0,-306"/>
<polygon fill="#666666" stroke="#666666" points="0,-258 0,-258 12,-258 12,-258 0,-258"/>
<polygon fill="#666666" stroke="#666666" points="12,-258 12,-258 153.75,-258 153.75,-258 12,-258"/>
<polygon fill="none" stroke="#666666" points="0,0 0,-324 153.75,-324 153.75,0 0,0"/>
</a>
</g>
</g>
<!-- Node2 -->
<g id="Node000002" class="node">
<title>Node2</title>
<g id="a_Node000002"><a xlink:href="interface_w_p_r_1_1_repository_1_1_i_user_repository.html" target="_top" xlink:title="Interface defining methods voor user gerelateerde database operaties, validatie, user management,...">
<polygon fill="white" stroke="none" points="153.75,-572 0,-572 0,-360 153.75,-360 153.75,-572"/>
<text text-anchor="start" x="41.25" y="-558.5" font-family="Helvetica,sans-Serif" font-size="10.00">IUserRepository</text>
<text text-anchor="start" x="75.38" y="-542.5" font-family="Helvetica,sans-Serif" font-size="10.00"> </text>
<text text-anchor="start" x="4" y="-526.5" font-family="Helvetica,sans-Serif" font-size="10.00">+</text>
<text text-anchor="start" x="14" y="-526.5" font-family="Helvetica,sans-Serif" font-size="10.00">ValidateUserAsync()</text>
<text text-anchor="start" x="4" y="-510.5" font-family="Helvetica,sans-Serif" font-size="10.00">+</text>
<text text-anchor="start" x="14" y="-510.5" font-family="Helvetica,sans-Serif" font-size="10.00">checkUsageEmailAsync()</text>
<text text-anchor="start" x="4" y="-494.5" font-family="Helvetica,sans-Serif" font-size="10.00">+</text>
<text text-anchor="start" x="14" y="-494.5" font-family="Helvetica,sans-Serif" font-size="10.00">addCustomerAsync()</text>
<text text-anchor="start" x="4" y="-478.5" font-family="Helvetica,sans-Serif" font-size="10.00">+</text>
<text text-anchor="start" x="14" y="-478.5" font-family="Helvetica,sans-Serif" font-size="10.00">addPersonalCustomerAsync()</text>
<text text-anchor="start" x="4" y="-462.5" font-family="Helvetica,sans-Serif" font-size="10.00">+</text>
<text text-anchor="start" x="14" y="-462.5" font-family="Helvetica,sans-Serif" font-size="10.00">addEmployeeCustomerAsync()</text>
<text text-anchor="start" x="4" y="-446.5" font-family="Helvetica,sans-Serif" font-size="10.00">+</text>
<text text-anchor="start" x="14" y="-446.5" font-family="Helvetica,sans-Serif" font-size="10.00">GetUserIdAsync()</text>
<text text-anchor="start" x="4" y="-430.5" font-family="Helvetica,sans-Serif" font-size="10.00">+</text>
<text text-anchor="start" x="14" y="-430.5" font-family="Helvetica,sans-Serif" font-size="10.00">GetUserNameAsync()</text>
<text text-anchor="start" x="4" y="-414.5" font-family="Helvetica,sans-Serif" font-size="10.00">+</text>
<text text-anchor="start" x="14" y="-414.5" font-family="Helvetica,sans-Serif" font-size="10.00">EditUserInfoAsync()</text>
<text text-anchor="start" x="4" y="-398.5" font-family="Helvetica,sans-Serif" font-size="10.00">+</text>
<text text-anchor="start" x="14" y="-398.5" font-family="Helvetica,sans-Serif" font-size="10.00">IsKvkNumberAsync()</text>
<text text-anchor="start" x="4" y="-382.5" font-family="Helvetica,sans-Serif" font-size="10.00">+</text>
<text text-anchor="start" x="14" y="-382.5" font-family="Helvetica,sans-Serif" font-size="10.00">IsUserEmployee()</text>
<text text-anchor="start" x="14" y="-366.5" font-family="Helvetica,sans-Serif" font-size="10.00">en 14 anderen...</text>
<polygon fill="#666666" stroke="#666666" points="0,-554 0,-554 153.75,-554 153.75,-554 0,-554"/>
<polygon fill="#666666" stroke="#666666" points="0,-538 0,-538 153.75,-538 153.75,-538 0,-538"/>
<polygon fill="none" stroke="#666666" points="0,-360 0,-572 153.75,-572 153.75,-360 0,-360"/>
</a>
</g>
</g>
<!-- Node2&#45;&gt;Node1 -->
<g id="edge1_Node000001_Node000002" class="edge">
<title>Node2&#45;&gt;Node1</title>
<g id="a_edge1_Node000001_Node000002"><a xlink:title=" ">
<path fill="none" stroke="#63b8ff" d="M76.88,-348.73C76.88,-340.52 76.88,-332.17 76.88,-323.78"/>
<polygon fill="none" stroke="#63b8ff" points="73.38,-348.71 76.88,-358.71 80.38,-348.71 73.38,-348.71"/>
</a>
</g>
</g>
</g>
</svg>
