<?xml version="1.0" encoding="UTF-8" standalone="no"?>
<!DOCTYPE svg PUBLIC "-//W3C//DTD SVG 1.1//EN"
 "http://www.w3.org/Graphics/SVG/1.1/DTD/svg11.dtd">
<!-- Generated by graphviz version 12.2.1 (20241206.2353)
 -->
<!-- Title: WPR.Email.Customer Pages: 1 -->
<svg width="114pt" height="300pt"
 viewBox="0.00 0.00 113.50 300.00" xmlns="http://www.w3.org/2000/svg" xmlns:xlink="http://www.w3.org/1999/xlink">
<g id="graph0" class="graph" transform="scale(1 1) rotate(0) translate(4 296)">
<title>WPR.Email.Customer</title>
<!-- Node1 -->
<g id="Node000001" class="node">
<title>Node1</title>
<g id="a_Node000001"><a xlink:title="In de Customer klasse worden alle gegevens van een specifieke klant verzameld voor het aanmaken van e...">
<polygon fill="#999999" stroke="none" points="105.5,-100 0,-100 0,0 105.5,0 105.5,-100"/>
<text text-anchor="start" x="4" y="-86.5" font-family="Helvetica,sans-Serif" font-size="10.00">WPR.Email.Customer</text>
<text text-anchor="start" x="5.81" y="-70.5" font-family="Helvetica,sans-Serif" font-size="10.00">+</text>
<text text-anchor="start" x="17.62" y="-70.5" font-family="Helvetica,sans-Serif" font-size="10.00">_details</text>
<text text-anchor="start" x="7.31" y="-54.5" font-family="Helvetica,sans-Serif" font-size="10.00">&#45;</text>
<text text-anchor="start" x="17.62" y="-54.5" font-family="Helvetica,sans-Serif" font-size="10.00">_userRepository</text>
<text text-anchor="start" x="5.81" y="-38.5" font-family="Helvetica,sans-Serif" font-size="10.00">+</text>
<text text-anchor="start" x="17.62" y="-38.5" font-family="Helvetica,sans-Serif" font-size="10.00">Customer()</text>
<text text-anchor="start" x="5.81" y="-22.5" font-family="Helvetica,sans-Serif" font-size="10.00">+</text>
<text text-anchor="start" x="17.62" y="-22.5" font-family="Helvetica,sans-Serif" font-size="10.00">SetDetailsAsync()</text>
<text text-anchor="start" x="5.81" y="-6.5" font-family="Helvetica,sans-Serif" font-size="10.00">+</text>
<text text-anchor="start" x="17.62" y="-6.5" font-family="Helvetica,sans-Serif" font-size="10.00">GetDetailsAsync()</text>
<polygon fill="#666666" stroke="#666666" points="0,-82 0,-82 105.5,-82 105.5,-82 0,-82"/>
<polygon fill="#666666" stroke="#666666" points="0,-50 0,-50 15.62,-50 15.62,-50 0,-50"/>
<polygon fill="#666666" stroke="#666666" points="15.62,-50 15.62,-50 105.5,-50 105.5,-50 15.62,-50"/>
<polygon fill="none" stroke="#666666" points="0,0 0,-100 105.5,-100 105.5,0 0,0"/>
</a>
</g>
</g>
<!-- Node2 -->
<g id="Node000002" class="node">
<title>Node2</title>
<g id="a_Node000002"><a xlink:href="interface_w_p_r_1_1_email_1_1_i_customer_details.html" target="_top" xlink:title=" ">
<polygon fill="white" stroke="none" points="95,-188 10.5,-188 10.5,-136 95,-136 95,-188"/>
<text text-anchor="start" x="14.5" y="-174.5" font-family="Helvetica,sans-Serif" font-size="10.00">ICustomerDetails</text>
<text text-anchor="start" x="51.25" y="-158.5" font-family="Helvetica,sans-Serif" font-size="10.00"> </text>
<text text-anchor="start" x="51.25" y="-142.5" font-family="Helvetica,sans-Serif" font-size="10.00"> </text>
<polygon fill="#666666" stroke="#666666" points="10.5,-170 10.5,-170 95,-170 95,-170 10.5,-170"/>
<polygon fill="#666666" stroke="#666666" points="10.5,-154 10.5,-154 95,-154 95,-154 10.5,-154"/>
<polygon fill="none" stroke="#666666" points="10.5,-136 10.5,-188 95,-188 95,-136 10.5,-136"/>
</a>
</g>
</g>
<!-- Node2&#45;&gt;Node1 -->
<g id="edge1_Node000001_Node000002" class="edge">
<title>Node2&#45;&gt;Node1</title>
<g id="a_edge1_Node000001_Node000002"><a xlink:title=" ">
<path fill="none" stroke="#63b8ff" d="M52.75,-124.53C52.75,-116.58 52.75,-108.05 52.75,-99.72"/>
<polygon fill="none" stroke="#63b8ff" points="49.25,-124.53 52.75,-134.53 56.25,-124.53 49.25,-124.53"/>
</a>
</g>
</g>
<!-- Node3 -->
<g id="Node000003" class="node">
<title>Node3</title>
<g id="a_Node000003"><a xlink:href="interface_w_p_r_1_1_email_1_1_i_details.html" target="_top" xlink:title=" ">
<polygon fill="white" stroke="none" points="101.88,-292 3.62,-292 3.62,-224 101.88,-224 101.88,-292"/>
<text text-anchor="start" x="35.88" y="-278.5" font-family="Helvetica,sans-Serif" font-size="10.00">IDetails</text>
<text text-anchor="start" x="51.25" y="-262.5" font-family="Helvetica,sans-Serif" font-size="10.00"> </text>
<text text-anchor="start" x="7.62" y="-246.5" font-family="Helvetica,sans-Serif" font-size="10.00">+</text>
<text text-anchor="start" x="17.62" y="-246.5" font-family="Helvetica,sans-Serif" font-size="10.00">SetDetailsAsync()</text>
<text text-anchor="start" x="7.62" y="-230.5" font-family="Helvetica,sans-Serif" font-size="10.00">+</text>
<text text-anchor="start" x="17.62" y="-230.5" font-family="Helvetica,sans-Serif" font-size="10.00">GetDetailsAsync()</text>
<polygon fill="#666666" stroke="#666666" points="3.62,-274 3.62,-274 101.88,-274 101.88,-274 3.62,-274"/>
<polygon fill="#666666" stroke="#666666" points="3.62,-258 3.62,-258 101.88,-258 101.88,-258 3.62,-258"/>
<polygon fill="none" stroke="#666666" points="3.62,-224 3.62,-292 101.88,-292 101.88,-224 3.62,-224"/>
</a>
</g>
</g>
<!-- Node3&#45;&gt;Node2 -->
<g id="edge2_Node000002_Node000003" class="edge">
<title>Node3&#45;&gt;Node2</title>
<g id="a_edge2_Node000002_Node000003"><a xlink:title=" ">
<path fill="none" stroke="#63b8ff" d="M52.75,-212.62C52.75,-204.05 52.75,-195.37 52.75,-187.71"/>
<polygon fill="none" stroke="#63b8ff" points="49.25,-212.61 52.75,-222.61 56.25,-212.61 49.25,-212.61"/>
</a>
</g>
</g>
</g>
</svg>
