<?xml version="1.0" encoding="UTF-8" standalone="no"?>
<!DOCTYPE svg PUBLIC "-//W3C//DTD SVG 1.1//EN"
 "http://www.w3.org/Graphics/SVG/1.1/DTD/svg11.dtd">
<!-- Generated by graphviz version 12.2.1 (20241206.2353)
 -->
<!-- Title: WPR.Repository.UserRepository.EditUserInfoAsync Pages: 1 -->
<svg width="595pt" height="40pt"
 viewBox="0.00 0.00 595.25 40.00" xmlns="http://www.w3.org/2000/svg" xmlns:xlink="http://www.w3.org/1999/xlink">
<g id="graph0" class="graph" transform="scale(1 1) rotate(0) translate(4 36)">
<title>WPR.Repository.UserRepository.EditUserInfoAsync</title>
<!-- Node1 -->
<g id="Node000001" class="node">
<title>Node1</title>
<g id="a_Node000001"><a xlink:title=" ">
<polygon fill="#999999" stroke="#666666" points="163,-32 0,-32 0,0 163,0 163,-32"/>
<text text-anchor="start" x="8" y="-18.5" font-family="Helvetica,sans-Serif" font-size="10.00">WPR.Repository.UserRepository.</text>
<text text-anchor="middle" x="81.5" y="-6.5" font-family="Helvetica,sans-Serif" font-size="10.00">EditUserInfoAsync</text>
</a>
</g>
</g>
<!-- Node2 -->
<g id="Node000002" class="node">
<title>Node2</title>
<g id="a_Node000002"><a xlink:href="class_w_p_r_1_1_repository_1_1_user_repository.html#af1ae304fd24d3ae358db293b0033e484" target="_top" xlink:title="Er wordt een query aangemaakt, met daarin de meegeven gegevens die veranderd moeten worden in het acc...">
<polygon fill="white" stroke="#666666" points="362,-32 199,-32 199,0 362,0 362,-32"/>
<text text-anchor="start" x="207" y="-18.5" font-family="Helvetica,sans-Serif" font-size="10.00">WPR.Repository.UserRepository.</text>
<text text-anchor="middle" x="280.5" y="-6.5" font-family="Helvetica,sans-Serif" font-size="10.00">CreateUserInfoQuery</text>
</a>
</g>
</g>
<!-- Node1&#45;&gt;Node2 -->
<g id="edge1_Node000001_Node000002" class="edge">
<title>Node1&#45;&gt;Node2</title>
<g id="a_edge1_Node000001_Node000002"><a xlink:title=" ">
<path fill="none" stroke="#63b8ff" d="M163.48,-16C171.25,-16 179.17,-16 187.05,-16"/>
<polygon fill="#63b8ff" stroke="#63b8ff" points="187,-19.5 197,-16 187,-12.5 187,-19.5"/>
</a>
</g>
</g>
<!-- Node3 -->
<g id="Node000003" class="node">
<title>Node3</title>
<g id="a_Node000003"><a xlink:href="class_w_p_r_1_1_repository_1_1_user_repository.html#a7903e03bfe7076a6ee7b352636cb854d" target="_top" xlink:title="Er wordt gekeken of het emailadres al bestaat in de databse.">
<polygon fill="white" stroke="#666666" points="587.25,-32 398,-32 398,0 587.25,0 587.25,-32"/>
<text text-anchor="start" x="406" y="-18.5" font-family="Helvetica,sans-Serif" font-size="10.00">WPR.Repository.UserRepository.check</text>
<text text-anchor="middle" x="492.62" y="-6.5" font-family="Helvetica,sans-Serif" font-size="10.00">UsageEmailAsync</text>
</a>
</g>
</g>
<!-- Node2&#45;&gt;Node3 -->
<g id="edge2_Node000002_Node000003" class="edge">
<title>Node2&#45;&gt;Node3</title>
<g id="a_edge2_Node000002_Node000003"><a xlink:title=" ">
<path fill="none" stroke="#63b8ff" d="M362.44,-16C370.3,-16 378.35,-16 386.4,-16"/>
<polygon fill="#63b8ff" stroke="#63b8ff" points="386.24,-19.5 396.24,-16 386.24,-12.5 386.24,-19.5"/>
</a>
</g>
</g>
</g>
</svg>
