<?xml version="1.0" encoding="UTF-8" standalone="no"?>
<!DOCTYPE svg PUBLIC "-//W3C//DTD SVG 1.1//EN"
 "http://www.w3.org/Graphics/SVG/1.1/DTD/svg11.dtd">
<!-- Generated by graphviz version 12.2.1 (20241206.2353)
 -->
<!-- Title: WPR.Repository.DatabaseCheckRepository.DatabaseCheckRepository.HandleDelete Pages: 1 -->
<svg width="858pt" height="139pt"
 viewBox="0.00 0.00 858.00 139.00" xmlns="http://www.w3.org/2000/svg" xmlns:xlink="http://www.w3.org/1999/xlink">
<g id="graph0" class="graph" transform="scale(1 1) rotate(0) translate(4 135)">
<title>WPR.Repository.DatabaseCheckRepository.DatabaseCheckRepository.HandleDelete</title>
<!-- Node1 -->
<g id="Node000001" class="node">
<title>Node1</title>
<g id="a_Node000001"><a xlink:title=" ">
<polygon fill="#999999" stroke="#666666" points="850,-106 664.5,-106 664.5,-62 850,-62 850,-106"/>
<text text-anchor="start" x="672.5" y="-92.5" font-family="Helvetica,sans-Serif" font-size="10.00">WPR.Repository.DatabaseCheck</text>
<text text-anchor="start" x="672.5" y="-80.5" font-family="Helvetica,sans-Serif" font-size="10.00">Repository.DatabaseCheckRepository.</text>
<text text-anchor="middle" x="757.25" y="-68.5" font-family="Helvetica,sans-Serif" font-size="10.00">HandleDelete</text>
</a>
</g>
</g>
<!-- Node2 -->
<g id="Node000002" class="node">
<title>Node2</title>
<g id="a_Node000002"><a xlink:href="class_w_p_r_1_1_repository_1_1_database_check_repository_1_1_database_check_repository.html#acf45131187cc98ce1de5554795fa3c28" target="_top" xlink:title=" ">
<polygon fill="white" stroke="#666666" points="185.5,-131 0,-131 0,-87 185.5,-87 185.5,-131"/>
<text text-anchor="start" x="8" y="-117.5" font-family="Helvetica,sans-Serif" font-size="10.00">WPR.Repository.DatabaseCheck</text>
<text text-anchor="start" x="8" y="-105.5" font-family="Helvetica,sans-Serif" font-size="10.00">Repository.DatabaseCheckRepository.</text>
<text text-anchor="middle" x="92.75" y="-93.5" font-family="Helvetica,sans-Serif" font-size="10.00">DeleteBusiness</text>
</a>
</g>
</g>
<!-- Node1&#45;&gt;Node2 -->
<g id="edge1_Node000001_Node000002" class="edge">
<title>Node1&#45;&gt;Node2</title>
<g id="a_edge1_Node000001_Node000002"><a xlink:title=" ">
<path fill="none" stroke="#63b8ff" d="M665.2,-108.88C652.94,-111.41 640.47,-113.57 628.5,-115 474.09,-133.47 292.81,-125.2 185.93,-117.28"/>
<polygon fill="#63b8ff" stroke="#63b8ff" points="665.85,-112.32 674.89,-106.78 664.38,-105.48 665.85,-112.32"/>
</a>
</g>
</g>
<!-- Node3 -->
<g id="Node000003" class="node">
<title>Node3</title>
<g id="a_Node000003"><a xlink:href="class_w_p_r_1_1_repository_1_1_database_check_repository_1_1_database_check_repository.html#aeeb328ca72466c0added5450b0af72cd" target="_top" xlink:title=" ">
<polygon fill="white" stroke="#666666" points="628.5,-106 443,-106 443,-62 628.5,-62 628.5,-106"/>
<text text-anchor="start" x="451" y="-92.5" font-family="Helvetica,sans-Serif" font-size="10.00">WPR.Repository.DatabaseCheck</text>
<text text-anchor="start" x="451" y="-80.5" font-family="Helvetica,sans-Serif" font-size="10.00">Repository.DatabaseCheckRepository.</text>
<text text-anchor="middle" x="535.75" y="-68.5" font-family="Helvetica,sans-Serif" font-size="10.00">DeleteUser</text>
</a>
</g>
</g>
<!-- Node1&#45;&gt;Node3 -->
<g id="edge2_Node000001_Node000003" class="edge">
<title>Node1&#45;&gt;Node3</title>
<g id="a_edge2_Node000001_Node000003"><a xlink:title=" ">
<path fill="none" stroke="#63b8ff" d="M652.61,-84C644.73,-84 636.8,-84 629,-84"/>
<polygon fill="#63b8ff" stroke="#63b8ff" points="652.6,-87.5 662.6,-84 652.6,-80.5 652.6,-87.5"/>
</a>
</g>
</g>
<!-- Node5 -->
<g id="Node000005" class="node">
<title>Node5</title>
<g id="a_Node000005"><a xlink:href="class_w_p_r_1_1_repository_1_1_database_check_repository_1_1_database_check_repository.html#a1ed88a97f5e7dcf9903fb7d157c17621" target="_top" xlink:title=" ">
<polygon fill="white" stroke="#666666" points="628.5,-44 443,-44 443,0 628.5,0 628.5,-44"/>
<text text-anchor="start" x="451" y="-30.5" font-family="Helvetica,sans-Serif" font-size="10.00">WPR.Repository.DatabaseCheck</text>
<text text-anchor="start" x="451" y="-18.5" font-family="Helvetica,sans-Serif" font-size="10.00">Repository.DatabaseCheckRepository.</text>
<text text-anchor="middle" x="535.75" y="-6.5" font-family="Helvetica,sans-Serif" font-size="10.00">DeleteVehicleManager</text>
</a>
</g>
</g>
<!-- Node1&#45;&gt;Node5 -->
<g id="edge5_Node000001_Node000005" class="edge">
<title>Node1&#45;&gt;Node5</title>
<g id="a_edge5_Node000001_Node000005"><a xlink:title=" ">
<path fill="none" stroke="#63b8ff" d="M665.99,-58.51C649.55,-53.86 632.51,-49.05 616.4,-44.5"/>
<polygon fill="#63b8ff" stroke="#63b8ff" points="664.66,-61.77 675.24,-61.12 666.57,-55.03 664.66,-61.77"/>
</a>
</g>
</g>
<!-- Node4 -->
<g id="Node000004" class="node">
<title>Node4</title>
<g id="a_Node000004"><a xlink:href="class_w_p_r_1_1_repository_1_1_database_check_repository_1_1_database_check_repository.html#ae2e26046eef328d9b24ced25cad3b2a5" target="_top" xlink:title=" ">
<polygon fill="white" stroke="#666666" points="407,-106 221.5,-106 221.5,-62 407,-62 407,-106"/>
<text text-anchor="start" x="229.5" y="-92.5" font-family="Helvetica,sans-Serif" font-size="10.00">WPR.Repository.DatabaseCheck</text>
<text text-anchor="start" x="229.5" y="-80.5" font-family="Helvetica,sans-Serif" font-size="10.00">Repository.DatabaseCheckRepository.</text>
<text text-anchor="middle" x="314.25" y="-68.5" font-family="Helvetica,sans-Serif" font-size="10.00">DeleteEmployees</text>
</a>
</g>
</g>
<!-- Node3&#45;&gt;Node4 -->
<g id="edge3_Node000003_Node000004" class="edge">
<title>Node3&#45;&gt;Node4</title>
<g id="a_edge3_Node000003_Node000004"><a xlink:title=" ">
<path fill="none" stroke="#63b8ff" d="M431.11,-84C423.23,-84 415.3,-84 407.5,-84"/>
<polygon fill="#63b8ff" stroke="#63b8ff" points="431.1,-87.5 441.1,-84 431.1,-80.5 431.1,-87.5"/>
</a>
</g>
</g>
<!-- Node4&#45;&gt;Node2 -->
<g id="edge4_Node000004_Node000002" class="edge">
<title>Node4&#45;&gt;Node2</title>
<g id="a_edge4_Node000004_Node000002"><a xlink:title=" ">
<path fill="none" stroke="#63b8ff" d="M209.89,-95.77C201.92,-96.68 193.9,-97.59 186,-98.49"/>
<polygon fill="#63b8ff" stroke="#63b8ff" points="210.07,-99.27 219.61,-94.66 209.28,-92.32 210.07,-99.27"/>
</a>
</g>
</g>
</g>
</svg>
