<?xml version="1.0" encoding="UTF-8" standalone="no"?>
<!DOCTYPE svg PUBLIC "-//W3C//DTD SVG 1.1//EN"
 "http://www.w3.org/Graphics/SVG/1.1/DTD/svg11.dtd">
<!-- Generated by graphviz version 12.2.1 (20241206.2353)
 -->
<!-- Title: WPR.Repository.UserRepository.AddPrivateCustomerDetails Pages: 1 -->
<!--zoomable 438 -->

<svg id="main" version="1.1" xmlns="http://www.w3.org/2000/svg" xmlns:xlink="http://www.w3.org/1999/xlink" xml:space="preserve" onload="init(evt)">

<style type="text/css"><![CDATA[
.node, .edge {opacity: 0.7;}
.node.selected, .edge.selected {opacity: 1;}
.edge:hover path { stroke: red; }
.edge:hover polygon { stroke: red; fill: red; }
]]></style>

<defs>
  <circle id="rim" cx="0" cy="0" r="7"/>
  <circle id="rim2" cx="0" cy="0" r="3.5"/>
  <g id="zoomPlus">
    <use xlink:href="#rim" fill="#404040"><set attributeName="fill" to="#808080" begin="zoomplus.mouseover" end="zoomplus.mouseout"/></use>
    <path d="M-4,0h8M0,-4v8" fill="none" stroke="white" stroke-width="1.5" pointer-events="none"/>
  </g>
  <g id="zoomMin">
    <use xlink:href="#rim" fill="#404040"><set attributeName="fill" to="#808080" begin="zoomminus.mouseover" end="zoomminus.mouseout"/></use>
    <path d="M-4,0h8" fill="none" stroke="white" stroke-width="1.5" pointer-events="none"/>
  </g>
  <g id="arrowUp" transform="translate(30 24)">
    <use xlink:href="#rim"/>
    <path pointer-events="none" fill="none" stroke="white" stroke-width="1.5" d="M0,-3.0v7 M-2.5,-0.5L0,-3.0L2.5,-0.5"/>
  </g>
  <g id="arrowRight" transform="rotate(90) translate(36 -43)">
    <use xlink:href="#rim"/>
    <path pointer-events="none" fill="none" stroke="white" stroke-width="1.5" d="M0,-3.0v7 M-2.5,-0.5L0,-3.0L2.5,-0.5"/>
  </g>
  <g id="arrowDown" transform="rotate(180) translate(-30 -48)">
    <use xlink:href="#rim"/>
    <path pointer-events="none" fill="none" stroke="white" stroke-width="1.5" d="M0,-3.0v7 M-2.5,-0.5L0,-3.0L2.5,-0.5"/>
  </g>
  <g id="arrowLeft" transform="rotate(270) translate(-36 17)">
    <use xlink:href="#rim"/>
    <path pointer-events="none" fill="none" stroke="white" stroke-width="1.5" d="M0,-3.0v7 M-2.5,-0.5L0,-3.0L2.5,-0.5"/>
  </g>
  <g id="resetDef">
    <use xlink:href="#rim2" fill="#404040"><set attributeName="fill" to="#808080" begin="reset.mouseover" end="reset.mouseout"/></use>
  </g>
</defs>
<script type="application/ecmascript">
var viewWidth = 595;
var viewHeight = 438;
var sectionId = 'dynsection-8';
</script>
<script type="application/ecmascript" xlink:href="svg.min.js"/>
<svg id="graph" class="graph">
<g id="viewport">
<title>WPR.Repository.UserRepository.AddPrivateCustomerDetails</title>
<!-- Node1 -->
<g id="Node000001" class="node">
<title>Node1</title>
<g id="a_Node000001"><a xlink:title="AddPrivateCustomerDetails zorgt ervoor dat alle extra details van particuliere huurders toegevoegd wo...">
<polygon fill="#999999" stroke="#666666" points="163,-134 0,-134 0,-102 163,-102 163,-134"/>
<text text-anchor="start" x="8" y="-120.5" font-family="Helvetica,sans-Serif" font-size="10.00">WPR.Repository.UserRepository.</text>
<text text-anchor="middle" x="81.5" y="-108.5" font-family="Helvetica,sans-Serif" font-size="10.00">AddPrivateCustomerDetails</text>
</a>
</g>
</g>
<!-- Node2 -->
<g id="Node000002" class="node">
<title>Node2</title>
<g id="a_Node000002"><a xlink:href="class_w_p_r_1_1_repository_1_1_user_repository.html#ae8b7a3c517ffe6cb1b85eee60e5b2292" target="_top" xlink:title="AddCustomerChecks kijkt of alle ingevoerde velden geldig zijn. Als een check faalt falen alle checks.">
<polygon fill="white" stroke="#666666" points="362,-230 199,-230 199,-198 362,-198 362,-230"/>
<text text-anchor="start" x="207" y="-216.5" font-family="Helvetica,sans-Serif" font-size="10.00">WPR.Repository.UserRepository.</text>
<text text-anchor="middle" x="280.5" y="-204.5" font-family="Helvetica,sans-Serif" font-size="10.00">AddCustomerChecks</text>
</a>
</g>
</g>
<!-- Node1&#45;&gt;Node2 -->
<g id="edge1_Node000001_Node000002" class="edge">
<title>Node1&#45;&gt;Node2</title>
<g id="a_edge1_Node000001_Node000002"><a xlink:title=" ">
<path fill="none" stroke="#63b8ff" d="M115.92,-134.29C148.89,-150.35 199.47,-175 235.65,-192.63"/>
<polygon fill="#63b8ff" stroke="#63b8ff" points="234.03,-195.74 244.56,-196.97 237.1,-189.44 234.03,-195.74"/>
</a>
</g>
</g>
<!-- Node10 -->
<g id="Node000010" class="node">
<title>Node10</title>
<g id="a_Node000010"><a xlink:href="namespace_w_p_r_1_1_controllers_1_1_general_1_1_sign_up.html#ab012081435b4392bd8e6e4525e336d68" target="_top" xlink:title=" ">
<polygon fill="white" stroke="#666666" points="574.12,-44 411.12,-44 411.12,0 574.12,0 574.12,-44"/>
<text text-anchor="start" x="419.12" y="-30.5" font-family="Helvetica,sans-Serif" font-size="10.00">WPR.Controllers.General.</text>
<text text-anchor="start" x="419.12" y="-18.5" font-family="Helvetica,sans-Serif" font-size="10.00">SignUp.SignUpRequestCustomer</text>
<text text-anchor="middle" x="492.62" y="-6.5" font-family="Helvetica,sans-Serif" font-size="10.00">Private</text>
</a>
</g>
</g>
<!-- Node1&#45;&gt;Node10 -->
<g id="edge12_Node000001_Node000010" class="edge">
<title>Node1&#45;&gt;Node10</title>
<g id="a_edge12_Node000001_Node000010"><a xlink:title=" ">
<path fill="none" stroke="#63b8ff" d="M152.37,-101.61C220.67,-85.58 325.04,-61.09 399.97,-43.51"/>
<polygon fill="#63b8ff" stroke="#63b8ff" points="400.4,-47 409.33,-41.31 398.8,-40.19 400.4,-47"/>
</a>
</g>
</g>
<!-- Node3 -->
<g id="Node000003" class="node">
<title>Node3</title>
<g id="a_Node000003"><a xlink:href="class_w_p_r_1_1_repository_1_1_user_repository.html#a7903e03bfe7076a6ee7b352636cb854d" target="_top" xlink:title="Er wordt gekeken of het emailadres al bestaat in de databse.">
<polygon fill="white" stroke="#666666" points="587.25,-430 398,-430 398,-398 587.25,-398 587.25,-430"/>
<text text-anchor="start" x="406" y="-416.5" font-family="Helvetica,sans-Serif" font-size="10.00">WPR.Repository.UserRepository.check</text>
<text text-anchor="middle" x="492.62" y="-404.5" font-family="Helvetica,sans-Serif" font-size="10.00">UsageEmailAsync</text>
</a>
</g>
</g>
<!-- Node2&#45;&gt;Node3 -->
<g id="edge2_Node000002_Node000003" class="edge">
<title>Node2&#45;&gt;Node3</title>
<g id="a_edge2_Node000002_Node000003"><a xlink:title=" ">
<path fill="none" stroke="#63b8ff" d="M287.69,-230.39C301.7,-265.23 339.28,-346.88 398,-389 399.55,-390.11 401.15,-391.18 402.78,-392.19"/>
<polygon fill="#63b8ff" stroke="#63b8ff" points="400.75,-395.07 411.21,-396.78 404.1,-388.92 400.75,-395.07"/>
</a>
</g>
</g>
<!-- Node4 -->
<g id="Node000004" class="node">
<title>Node4</title>
<g id="a_Node000004"><a xlink:href="class_w_p_r_1_1_utils_1_1_domain_email_checker.html#af6430abcc6b17909ff568158e9e05172" target="_top" xlink:title=" ">
<polygon fill="white" stroke="#666666" points="574.88,-380 410.38,-380 410.38,-348 574.88,-348 574.88,-380"/>
<text text-anchor="start" x="418.38" y="-366.5" font-family="Helvetica,sans-Serif" font-size="10.00">WPR.Utils.DomainEmailChecker.</text>
<text text-anchor="middle" x="492.62" y="-354.5" font-family="Helvetica,sans-Serif" font-size="10.00">DomainExists</text>
</a>
</g>
</g>
<!-- Node2&#45;&gt;Node4 -->
<g id="edge3_Node000002_Node000004" class="edge">
<title>Node2&#45;&gt;Node4</title>
<g id="a_edge3_Node000002_Node000004"><a xlink:title=" ">
<path fill="none" stroke="#63b8ff" d="M291.96,-230.12C310.2,-256.91 350.44,-310.44 398,-339 400.31,-340.39 402.7,-341.7 405.15,-342.94"/>
<polygon fill="#63b8ff" stroke="#63b8ff" points="403.57,-346.07 414.12,-347.02 406.47,-339.7 403.57,-346.07"/>
</a>
</g>
</g>
<!-- Node5 -->
<g id="Node000005" class="node">
<title>Node5</title>
<g id="a_Node000005"><a xlink:href="class_w_p_r_1_1_utils_1_1_birthday_checker.html#a4c7d3943364075179b3f1ca2e0f05c46" target="_top" xlink:title="Check om te kijken of het een correcte verjaardag is Leeftijd mag niet onder de 18 zijn en niet boven...">
<polygon fill="white" stroke="#666666" points="563.62,-330 421.62,-330 421.62,-298 563.62,-298 563.62,-330"/>
<text text-anchor="start" x="429.62" y="-316.5" font-family="Helvetica,sans-Serif" font-size="10.00">WPR.Utils.BirthdayChecker.</text>
<text text-anchor="middle" x="492.62" y="-304.5" font-family="Helvetica,sans-Serif" font-size="10.00">IsValidBirthday</text>
</a>
</g>
</g>
<!-- Node2&#45;&gt;Node5 -->
<g id="edge4_Node000002_Node000005" class="edge">
<title>Node2&#45;&gt;Node5</title>
<g id="a_edge4_Node000002_Node000005"><a xlink:title=" ">
<path fill="none" stroke="#63b8ff" d="M302.26,-230.22C324.72,-247.07 362.14,-273.14 398,-289 402.04,-290.79 406.23,-292.47 410.51,-294.05"/>
<polygon fill="#63b8ff" stroke="#63b8ff" points="409.24,-297.32 419.84,-297.28 411.53,-290.7 409.24,-297.32"/>
</a>
</g>
</g>
<!-- Node6 -->
<g id="Node000006" class="node">
<title>Node6</title>
<g id="a_Node000006"><a xlink:href="class_w_p_r_1_1_utils_1_1_email_checker.html#ab97bf7cde61a138766de208bad9d5c7c" target="_top" xlink:title=" ">
<polygon fill="white" stroke="#666666" points="562.12,-280 423.12,-280 423.12,-248 562.12,-248 562.12,-280"/>
<text text-anchor="start" x="431.12" y="-266.5" font-family="Helvetica,sans-Serif" font-size="10.00">WPR.Utils.EmailChecker.Is</text>
<text text-anchor="middle" x="492.62" y="-254.5" font-family="Helvetica,sans-Serif" font-size="10.00">ValidEmail</text>
</a>
</g>
</g>
<!-- Node2&#45;&gt;Node6 -->
<g id="edge5_Node000002_Node000006" class="edge">
<title>Node2&#45;&gt;Node6</title>
<g id="a_edge5_Node000002_Node000006"><a xlink:title=" ">
<path fill="none" stroke="#63b8ff" d="M350.59,-230.44C370.17,-235.1 391.65,-240.21 411.81,-245.01"/>
<polygon fill="#63b8ff" stroke="#63b8ff" points="410.84,-248.37 421.38,-247.28 412.46,-241.56 410.84,-248.37"/>
</a>
</g>
</g>
<!-- Node7 -->
<g id="Node000007" class="node">
<title>Node7</title>
<g id="a_Node000007"><a xlink:href="class_w_p_r_1_1_utils_1_1_password_checker.html#a3874adc7b516a8fb893ed18cd0a29a94" target="_top" xlink:title=" ">
<polygon fill="white" stroke="#666666" points="567.38,-230 417.88,-230 417.88,-198 567.38,-198 567.38,-230"/>
<text text-anchor="start" x="425.88" y="-216.5" font-family="Helvetica,sans-Serif" font-size="10.00">WPR.Utils.PasswordChecker.</text>
<text text-anchor="middle" x="492.62" y="-204.5" font-family="Helvetica,sans-Serif" font-size="10.00">IsValidPassword</text>
</a>
</g>
</g>
<!-- Node2&#45;&gt;Node7 -->
<g id="edge6_Node000002_Node000007" class="edge">
<title>Node2&#45;&gt;Node7</title>
<g id="a_edge6_Node000002_Node000007"><a xlink:title=" ">
<path fill="none" stroke="#63b8ff" d="M362.44,-214C376.76,-214 391.72,-214 406.16,-214"/>
<polygon fill="#63b8ff" stroke="#63b8ff" points="406.1,-217.5 416.1,-214 406.1,-210.5 406.1,-217.5"/>
</a>
</g>
</g>
<!-- Node8 -->
<g id="Node000008" class="node">
<title>Node8</title>
<g id="a_Node000008"><a xlink:href="class_w_p_r_1_1_utils_1_1_tel_checker.html#aa8036be39d90b4bd0482cc25b9bbfc5a" target="_top" xlink:title=" ">
<polygon fill="white" stroke="#666666" points="566.62,-180 418.62,-180 418.62,-148 566.62,-148 566.62,-180"/>
<text text-anchor="start" x="426.62" y="-166.5" font-family="Helvetica,sans-Serif" font-size="10.00">WPR.Utils.TelChecker.IsValid</text>
<text text-anchor="middle" x="492.62" y="-154.5" font-family="Helvetica,sans-Serif" font-size="10.00">PhoneNumber</text>
</a>
</g>
</g>
<!-- Node2&#45;&gt;Node8 -->
<g id="edge7_Node000002_Node000008" class="edge">
<title>Node2&#45;&gt;Node8</title>
<g id="a_edge7_Node000002_Node000008"><a xlink:title=" ">
<path fill="none" stroke="#63b8ff" d="M350.59,-197.56C370.07,-192.92 391.43,-187.84 411.49,-183.07"/>
<polygon fill="#63b8ff" stroke="#63b8ff" points="412.1,-186.52 421.02,-180.8 410.48,-179.71 412.1,-186.52"/>
</a>
</g>
</g>
<!-- Node9 -->
<g id="Node000009" class="node">
<title>Node9</title>
<g id="a_Node000009"><a xlink:href="namespace_w_p_r_1_1_controllers_1_1_general_1_1_sign_up.html#abf09877e4843c0b4ff2791cc32242102" target="_top" xlink:title=" ">
<polygon fill="white" stroke="#666666" points="574.12,-112 411.12,-112 411.12,-80 574.12,-80 574.12,-112"/>
<text text-anchor="start" x="419.12" y="-98.5" font-family="Helvetica,sans-Serif" font-size="10.00">WPR.Controllers.General.</text>
<text text-anchor="middle" x="492.62" y="-86.5" font-family="Helvetica,sans-Serif" font-size="10.00">SignUp.SignUpRequestCustomer</text>
</a>
</g>
</g>
<!-- Node2&#45;&gt;Node9 -->
<g id="edge8_Node000002_Node000009" class="edge">
<title>Node2&#45;&gt;Node9</title>
<g id="a_edge8_Node000002_Node000009"><a xlink:title=" ">
<path fill="none" stroke="#63b8ff" d="M304.56,-197.77C327.64,-181.86 364.46,-157.38 398,-139 412.14,-131.25 427.92,-123.63 442.45,-117.01"/>
<polygon fill="#63b8ff" stroke="#63b8ff" points="443.69,-120.29 451.38,-112.99 440.82,-113.9 443.69,-120.29"/>
</a>
</g>
</g>
<!-- Node2&#45;&gt;Node10 -->
<g id="edge10_Node000002_Node000010" class="edge">
<title>Node2&#45;&gt;Node10</title>
<g id="a_edge10_Node000002_Node000010"><a xlink:title=" ">
<path fill="none" stroke="#63b8ff" d="M294.21,-197.65C321.79,-162.3 385.63,-81.1 398,-71 407.57,-63.18 418.59,-56.09 429.64,-49.87"/>
<polygon fill="#63b8ff" stroke="#63b8ff" points="431.27,-52.97 438.41,-45.14 427.95,-46.81 431.27,-52.97"/>
</a>
</g>
</g>
<!-- Node9&#45;&gt;Node9 -->
<g id="edge9_Node000009_Node000009" class="edge">
<title>Node9&#45;&gt;Node9</title>
<g id="a_edge9_Node000009_Node000009"><a xlink:title=" ">
<path fill="none" stroke="#63b8ff" d="M454.75,-112.44C447.69,-121.58 460.31,-130 492.62,-130 510.55,-130 522.42,-127.41 528.22,-123.54"/>
<polygon fill="#63b8ff" stroke="#63b8ff" points="531.62,-124.42 530.19,-113.93 524.76,-123.02 531.62,-124.42"/>
</a>
</g>
</g>
<!-- Node10&#45;&gt;Node10 -->
<g id="edge11_Node000010_Node000010" class="edge">
<title>Node10&#45;&gt;Node10</title>
<g id="a_edge11_Node000010_Node000010"><a xlink:title=" ">
<path fill="none" stroke="#63b8ff" d="M453.33,-44.21C450.11,-53.8 463.21,-62 492.62,-62 510.09,-62 521.8,-59.11 527.77,-54.75"/>
<polygon fill="#63b8ff" stroke="#63b8ff" points="530.95,-56.21 531.37,-45.62 524.44,-53.64 530.95,-56.21"/>
</a>
</g>
</g>
</g>
</svg>

<g id="navigator" transform="translate(0 0)" fill="#404254">
  <rect fill="#f2f5e9" fill-opacity="0.5" stroke="#606060" stroke-width=".5" x="0" y="0" width="60" height="60"/>
  <use id="zoomplus" xlink:href="#zoomPlus" x="17" y="9" onmousedown="handleZoom(evt,'in')"/>
  <use id="zoomminus" xlink:href="#zoomMin" x="42" y="9" onmousedown="handleZoom(evt,'out')"/>
  <use id="reset" xlink:href="#resetDef" x="30" y="36" onmousedown="handleReset()"/>
   <use id="arrowup" xlink:href="#arrowUp" x="0" y="0" onmousedown="handlePan(0,-1)"/>
  <use id="arrowright" xlink:href="#arrowRight" x="0" y="0" onmousedown="handlePan(1,0)"/>
  <use id="arrowdown" xlink:href="#arrowDown" x="0" y="0" onmousedown="handlePan(0,1)"/>
  <use id="arrowleft" xlink:href="#arrowLeft" x="0" y="0" onmousedown="handlePan(-1,0)"/>
</g>
<svg viewBox="0 0 15 15" width="100%" height="30px" preserveAspectRatio="xMaxYMin meet">
 <g id="arrow_out" transform="scale(0.3 0.3)">
  <a xlink:href="class_w_p_r_1_1_repository_1_1_user_repository_a4fe2a09bb575fb8d9510828ef5ad9813_cgraph_org.svg" target="_base">
   <rect id="button" ry="5" rx="5" y="6" x="6" height="38" width="38"
        fill="#f2f5e9" fill-opacity="0.5" stroke="#606060" stroke-width="1.0"/>
   <path id="arrow"
     d="M 11.500037,31.436501 C 11.940474,20.09759 22.043105,11.32322 32.158766,21.979434 L 37.068811,17.246167 C 37.068811,17.246167 37.088388,32 37.088388,32 L 22.160133,31.978069 C 22.160133,31.978069 26.997745,27.140456 26.997745,27.140456 C 18.528582,18.264221 13.291696,25.230495 11.500037,31.436501 z"
     style="fill:#404040;"/>
  </a>
 </g>
</svg>

<style type='text/css'>
<![CDATA[
[data-mouse-over-selected='false'] { opacity: 0.7; }
[data-mouse-over-selected='true']  { opacity: 1.0; }
]]>
</style>
<script type="application/ecmascript"><![CDATA[
document.addEventListener('DOMContentLoaded', (event) => {
  highlightEdges();
  highlightAdjacentNodes();
});
]]></script>
</svg>
