<?xml version="1.0" encoding="UTF-8" standalone="no"?>
<!DOCTYPE svg PUBLIC "-//W3C//DTD SVG 1.1//EN"
 "http://www.w3.org/Graphics/SVG/1.1/DTD/svg11.dtd">
<!-- Generated by graphviz version 12.2.1 (20241206.2353)
 -->
<!-- Title: WPR.Controllers.Employee.Shared.acceptHireRequest.AcceptHireRequestController Pages: 1 -->
<!--zoomable 664 -->

<svg id="main" version="1.1" xmlns="http://www.w3.org/2000/svg" xmlns:xlink="http://www.w3.org/1999/xlink" xml:space="preserve" onload="init(evt)">

<style type="text/css"><![CDATA[
.node, .edge {opacity: 0.7;}
.node.selected, .edge.selected {opacity: 1;}
.edge:hover path { stroke: red; }
.edge:hover polygon { stroke: red; fill: red; }
]]></style>

<defs>
  <circle id="rim" cx="0" cy="0" r="7"/>
  <circle id="rim2" cx="0" cy="0" r="3.5"/>
  <g id="zoomPlus">
    <use xlink:href="#rim" fill="#404040"><set attributeName="fill" to="#808080" begin="zoomplus.mouseover" end="zoomplus.mouseout"/></use>
    <path d="M-4,0h8M0,-4v8" fill="none" stroke="white" stroke-width="1.5" pointer-events="none"/>
  </g>
  <g id="zoomMin">
    <use xlink:href="#rim" fill="#404040"><set attributeName="fill" to="#808080" begin="zoomminus.mouseover" end="zoomminus.mouseout"/></use>
    <path d="M-4,0h8" fill="none" stroke="white" stroke-width="1.5" pointer-events="none"/>
  </g>
  <g id="arrowUp" transform="translate(30 24)">
    <use xlink:href="#rim"/>
    <path pointer-events="none" fill="none" stroke="white" stroke-width="1.5" d="M0,-3.0v7 M-2.5,-0.5L0,-3.0L2.5,-0.5"/>
  </g>
  <g id="arrowRight" transform="rotate(90) translate(36 -43)">
    <use xlink:href="#rim"/>
    <path pointer-events="none" fill="none" stroke="white" stroke-width="1.5" d="M0,-3.0v7 M-2.5,-0.5L0,-3.0L2.5,-0.5"/>
  </g>
  <g id="arrowDown" transform="rotate(180) translate(-30 -48)">
    <use xlink:href="#rim"/>
    <path pointer-events="none" fill="none" stroke="white" stroke-width="1.5" d="M0,-3.0v7 M-2.5,-0.5L0,-3.0L2.5,-0.5"/>
  </g>
  <g id="arrowLeft" transform="rotate(270) translate(-36 17)">
    <use xlink:href="#rim"/>
    <path pointer-events="none" fill="none" stroke="white" stroke-width="1.5" d="M0,-3.0v7 M-2.5,-0.5L0,-3.0L2.5,-0.5"/>
  </g>
  <g id="resetDef">
    <use xlink:href="#rim2" fill="#404040"><set attributeName="fill" to="#808080" begin="reset.mouseover" end="reset.mouseout"/></use>
  </g>
</defs>
<script type="application/ecmascript">
var viewWidth = 527;
var viewHeight = 664;
var sectionId = 'dynsection-1';
</script>
<script type="application/ecmascript" xlink:href="svg.min.js"/>
<svg id="graph" class="graph">
<g id="viewport">
<title>WPR.Controllers.Employee.Shared.acceptHireRequest.AcceptHireRequestController</title>
<!-- Node1 -->
<g id="Node000001" class="node">
<title>Node1</title>
<g id="a_Node000001"><a xlink:title="AcceptHireRequestController zorgt ervoor dat alle huuraanvragen verzameld worden en bestempelt kunnen...">
<polygon fill="#999999" stroke="none" points="315,-140 155.5,-140 155.5,0 315,0 315,-140"/>
<text text-anchor="start" x="159.5" y="-126.5" font-family="Helvetica,sans-Serif" font-size="10.00">WPR.Controllers.Employee.</text>
<text text-anchor="start" x="159.5" y="-114.5" font-family="Helvetica,sans-Serif" font-size="10.00">Shared.acceptHireRequest.Accept</text>
<text text-anchor="start" x="186.88" y="-102.5" font-family="Helvetica,sans-Serif" font-size="10.00">HireRequestController</text>
<text text-anchor="start" x="233.75" y="-86.5" font-family="Helvetica,sans-Serif" font-size="10.00"> </text>
<text text-anchor="start" x="161.5" y="-70.5" font-family="Helvetica,sans-Serif" font-size="10.00">+</text>
<text text-anchor="start" x="173.5" y="-70.5" font-family="Helvetica,sans-Serif" font-size="10.00">AcceptHireRequestController()</text>
<text text-anchor="start" x="161.5" y="-54.5" font-family="Helvetica,sans-Serif" font-size="10.00">+</text>
<text text-anchor="start" x="173.5" y="-54.5" font-family="Helvetica,sans-Serif" font-size="10.00">GetReviewsIdsAsync()</text>
<text text-anchor="start" x="161.5" y="-38.5" font-family="Helvetica,sans-Serif" font-size="10.00">+</text>
<text text-anchor="start" x="173.5" y="-38.5" font-family="Helvetica,sans-Serif" font-size="10.00">GetReviewAsync()</text>
<text text-anchor="start" x="161.5" y="-22.5" font-family="Helvetica,sans-Serif" font-size="10.00">+</text>
<text text-anchor="start" x="173.5" y="-22.5" font-family="Helvetica,sans-Serif" font-size="10.00">AnswerHireRequestAsync()</text>
<text text-anchor="start" x="163" y="-6.5" font-family="Helvetica,sans-Serif" font-size="10.00">&#45;</text>
<text text-anchor="start" x="173.5" y="-6.5" font-family="Helvetica,sans-Serif" font-size="10.00">GetCurrentUserId()</text>
<polygon fill="#666666" stroke="#666666" points="155.5,-98 155.5,-98 315,-98 315,-98 155.5,-98"/>
<polygon fill="#666666" stroke="#666666" points="155.5,-82 155.5,-82 315,-82 315,-82 155.5,-82"/>
<polygon fill="none" stroke="#666666" points="155.5,0 155.5,-140 315,-140 315,0 155.5,0"/>
</a>
</g>
</g>
<!-- Node2 -->
<g id="Node000002" class="node">
<title>Node2</title>
<g id="a_Node000002"><a xlink:title=" ">
<polygon fill="white" stroke="none" points="72.5,-350 0,-350 0,-298 72.5,-298 72.5,-350"/>
<text text-anchor="start" x="4" y="-336.5" font-family="Helvetica,sans-Serif" font-size="10.00">ControllerBase</text>
<text text-anchor="start" x="34.75" y="-320.5" font-family="Helvetica,sans-Serif" font-size="10.00"> </text>
<text text-anchor="start" x="34.75" y="-304.5" font-family="Helvetica,sans-Serif" font-size="10.00"> </text>
<polygon fill="#666666" stroke="#666666" points="0,-332 0,-332 72.5,-332 72.5,-332 0,-332"/>
<polygon fill="#666666" stroke="#666666" points="0,-316 0,-316 72.5,-316 72.5,-316 0,-316"/>
<polygon fill="none" stroke="#666666" points="0,-298 0,-350 72.5,-350 72.5,-298 0,-298"/>
</a>
</g>
</g>
<!-- Node2&#45;&gt;Node1 -->
<g id="edge1_Node000001_Node000002" class="edge">
<title>Node2&#45;&gt;Node1</title>
<g id="a_edge1_Node000001_Node000002"><a xlink:title=" ">
<path fill="none" stroke="#63b8ff" d="M42.2,-286.86C48.3,-258.02 60.01,-217.66 81.25,-188 100.9,-160.56 128.85,-136.64 155.56,-117.69"/>
<polygon fill="none" stroke="#63b8ff" points="38.78,-286.1 40.27,-296.59 45.65,-287.46 38.78,-286.1"/>
</a>
</g>
</g>
<!-- Node3 -->
<g id="Node000003" class="node">
<title>Node3</title>
<g id="a_Node000003"><a xlink:href="interface_w_p_r_1_1_database_1_1_i_connector.html" target="_top" xlink:title="Connector class om verbinding te maken met de database, maakt gebruik van de connectie strings die zi...">
<polygon fill="white" stroke="none" points="218.25,-350 90.25,-350 90.25,-298 218.25,-298 218.25,-350"/>
<text text-anchor="start" x="94.25" y="-336.5" font-family="Helvetica,sans-Serif" font-size="10.00">WPR.Database.IConnector</text>
<text text-anchor="start" x="152.75" y="-320.5" font-family="Helvetica,sans-Serif" font-size="10.00"> </text>
<text text-anchor="start" x="97.38" y="-304.5" font-family="Helvetica,sans-Serif" font-size="10.00">+</text>
<text text-anchor="start" x="110.5" y="-304.5" font-family="Helvetica,sans-Serif" font-size="10.00">CreateDbConnection()</text>
<polygon fill="#666666" stroke="#666666" points="90.25,-332 90.25,-332 218.25,-332 218.25,-332 90.25,-332"/>
<polygon fill="#666666" stroke="#666666" points="90.25,-316 90.25,-316 218.25,-316 218.25,-316 90.25,-316"/>
<polygon fill="none" stroke="#666666" points="90.25,-298 90.25,-350 218.25,-350 218.25,-298 90.25,-298"/>
</a>
</g>
</g>
<!-- Node3&#45;&gt;Node1 -->
<g id="edge2_Node000001_Node000003" class="edge">
<title>Node3&#45;&gt;Node1</title>
<g id="a_edge2_Node000001_Node000003"><a xlink:title=" ">
<path fill="none" stroke="#63b8ff" d="M162.16,-298.38C172.98,-264.74 192.88,-202.81 209.19,-152.06"/>
<polygon fill="none" stroke="#63b8ff" points="209.2,-152.04 207.23,-145.1 212.87,-140.62 214.85,-147.55 209.2,-152.04"/>
</a>
</g>
<text text-anchor="middle" x="233.74" y="-160.5" font-family="Helvetica,sans-Serif" font-size="10.00" fill="grey"> &#45;_connector</text>
</g>
<!-- Node4 -->
<g id="Node000004" class="node">
<title>Node4</title>
<g id="a_Node000004"><a xlink:href="interface_w_p_r_1_1_repository_1_1_i_employee_repository.html" target="_top" xlink:title="Interface defining methods voor user gerelateerde database operaties, validatie, user management,...">
<polygon fill="white" stroke="none" points="395.75,-460 236.75,-460 236.75,-188 395.75,-188 395.75,-460"/>
<text text-anchor="start" x="254.75" y="-446.5" font-family="Helvetica,sans-Serif" font-size="10.00">WPR.Repository.IEmployee</text>
<text text-anchor="start" x="292.62" y="-434.5" font-family="Helvetica,sans-Serif" font-size="10.00">Repository</text>
<text text-anchor="start" x="240.75" y="-418.5" font-family="Helvetica,sans-Serif" font-size="10.00">+</text>
<text text-anchor="start" x="250.75" y="-418.5" font-family="Helvetica,sans-Serif" font-size="10.00">StatusCode</text>
<text text-anchor="start" x="240.75" y="-402.5" font-family="Helvetica,sans-Serif" font-size="10.00">+</text>
<text text-anchor="start" x="250.75" y="-402.5" font-family="Helvetica,sans-Serif" font-size="10.00">Message</text>
<text text-anchor="start" x="240.75" y="-386.5" font-family="Helvetica,sans-Serif" font-size="10.00">+</text>
<text text-anchor="start" x="250.75" y="-386.5" font-family="Helvetica,sans-Serif" font-size="10.00">Status</text>
<text text-anchor="start" x="240.75" y="-370.5" font-family="Helvetica,sans-Serif" font-size="10.00">+</text>
<text text-anchor="start" x="250.75" y="-370.5" font-family="Helvetica,sans-Serif" font-size="10.00">Message</text>
<text text-anchor="start" x="240.75" y="-354.5" font-family="Helvetica,sans-Serif" font-size="10.00">+</text>
<text text-anchor="start" x="250.75" y="-354.5" font-family="Helvetica,sans-Serif" font-size="10.00">AddVehicleAsync()</text>
<text text-anchor="start" x="240.75" y="-338.5" font-family="Helvetica,sans-Serif" font-size="10.00">+</text>
<text text-anchor="start" x="250.75" y="-338.5" font-family="Helvetica,sans-Serif" font-size="10.00">AddStaff()</text>
<text text-anchor="start" x="240.75" y="-322.5" font-family="Helvetica,sans-Serif" font-size="10.00">+</text>
<text text-anchor="start" x="250.75" y="-322.5" font-family="Helvetica,sans-Serif" font-size="10.00">checkUsageEmailAsync()</text>
<text text-anchor="start" x="240.75" y="-306.5" font-family="Helvetica,sans-Serif" font-size="10.00">+</text>
<text text-anchor="start" x="250.75" y="-306.5" font-family="Helvetica,sans-Serif" font-size="10.00">GetReviewIdsAsync()</text>
<text text-anchor="start" x="240.75" y="-290.5" font-family="Helvetica,sans-Serif" font-size="10.00">+</text>
<text text-anchor="start" x="250.75" y="-290.5" font-family="Helvetica,sans-Serif" font-size="10.00">GetReviewAsync()</text>
<text text-anchor="start" x="240.75" y="-274.5" font-family="Helvetica,sans-Serif" font-size="10.00">+</text>
<text text-anchor="start" x="250.75" y="-274.5" font-family="Helvetica,sans-Serif" font-size="10.00">SetStatusAsync()</text>
<text text-anchor="start" x="240.75" y="-258.5" font-family="Helvetica,sans-Serif" font-size="10.00">+</text>
<text text-anchor="start" x="250.75" y="-258.5" font-family="Helvetica,sans-Serif" font-size="10.00">AddBusiness()</text>
<text text-anchor="start" x="240.75" y="-242.5" font-family="Helvetica,sans-Serif" font-size="10.00">+</text>
<text text-anchor="start" x="250.75" y="-242.5" font-family="Helvetica,sans-Serif" font-size="10.00">ViewBusinessRequests()</text>
<text text-anchor="start" x="240.75" y="-226.5" font-family="Helvetica,sans-Serif" font-size="10.00">+</text>
<text text-anchor="start" x="250.75" y="-226.5" font-family="Helvetica,sans-Serif" font-size="10.00">ViewBusinessRequestDetailed()</text>
<text text-anchor="start" x="240.75" y="-210.5" font-family="Helvetica,sans-Serif" font-size="10.00">+</text>
<text text-anchor="start" x="250.75" y="-210.5" font-family="Helvetica,sans-Serif" font-size="10.00">BusinessAccepted()</text>
<text text-anchor="start" x="250.75" y="-194.5" font-family="Helvetica,sans-Serif" font-size="10.00">en 7 anderen...</text>
<polygon fill="#666666" stroke="#666666" points="236.75,-430 236.75,-430 395.75,-430 395.75,-430 236.75,-430"/>
<polygon fill="#666666" stroke="#666666" points="236.75,-366 236.75,-366 248.75,-366 248.75,-366 236.75,-366"/>
<polygon fill="#666666" stroke="#666666" points="248.75,-366 248.75,-366 395.75,-366 395.75,-366 248.75,-366"/>
<polygon fill="none" stroke="#666666" points="236.75,-188 236.75,-460 395.75,-460 395.75,-188 236.75,-188"/>
</a>
</g>
</g>
<!-- Node4&#45;&gt;Node1 -->
<g id="edge3_Node000001_Node000004" class="edge">
<title>Node4&#45;&gt;Node1</title>
<g id="a_edge3_Node000001_Node000004"><a xlink:title=" ">
<path fill="none" stroke="#63b8ff" d="M274.01,-188.32C270.72,-178.05 267.45,-167.86 264.25,-158 263.62,-156.06 262.98,-154.1 262.34,-152.12"/>
<polygon fill="none" stroke="#63b8ff" points="262.33,-152.09 256.66,-147.63 258.59,-140.68 264.26,-145.14 262.33,-152.09"/>
</a>
</g>
<text text-anchor="middle" x="305.74" y="-160.5" font-family="Helvetica,sans-Serif" font-size="10.00" fill="grey"> &#45;_userRepository</text>
</g>
<!-- Node5 -->
<g id="Node000005" class="node">
<title>Node5</title>
<g id="a_Node000005"><a xlink:href="class_w_p_r_1_1_cryption_1_1_crypt.html" target="_top" xlink:title="Class Crypt zorgt voor een veilig encryptie en decryptie van strings. De Crptie wordt gedaan door het...">
<polygon fill="white" stroke="none" points="512.62,-374 413.88,-374 413.88,-274 512.62,-274 512.62,-374"/>
<text text-anchor="start" x="417.88" y="-360.5" font-family="Helvetica,sans-Serif" font-size="10.00">WPR.Cryption.Crypt</text>
<text text-anchor="start" x="429.44" y="-344.5" font-family="Helvetica,sans-Serif" font-size="10.00">&#45;</text>
<text text-anchor="start" x="448" y="-344.5" font-family="Helvetica,sans-Serif" font-size="10.00">_key</text>
<text text-anchor="start" x="429.44" y="-328.5" font-family="Helvetica,sans-Serif" font-size="10.00">&#45;</text>
<text text-anchor="start" x="448" y="-328.5" font-family="Helvetica,sans-Serif" font-size="10.00">_IV</text>
<text text-anchor="start" x="427.94" y="-312.5" font-family="Helvetica,sans-Serif" font-size="10.00">+</text>
<text text-anchor="start" x="448" y="-312.5" font-family="Helvetica,sans-Serif" font-size="10.00">Crypt()</text>
<text text-anchor="start" x="427.94" y="-296.5" font-family="Helvetica,sans-Serif" font-size="10.00">+</text>
<text text-anchor="start" x="448" y="-296.5" font-family="Helvetica,sans-Serif" font-size="10.00">Encrypt()</text>
<text text-anchor="start" x="427.94" y="-280.5" font-family="Helvetica,sans-Serif" font-size="10.00">+</text>
<text text-anchor="start" x="448" y="-280.5" font-family="Helvetica,sans-Serif" font-size="10.00">Decrypt()</text>
<polygon fill="#666666" stroke="#666666" points="413.88,-356 413.88,-356 512.62,-356 512.62,-356 413.88,-356"/>
<polygon fill="#666666" stroke="#666666" points="413.88,-324 413.88,-324 446,-324 446,-324 413.88,-324"/>
<polygon fill="#666666" stroke="#666666" points="446,-324 446,-324 512.62,-324 512.62,-324 446,-324"/>
<polygon fill="none" stroke="#666666" points="413.88,-274 413.88,-374 512.62,-374 512.62,-274 413.88,-274"/>
</a>
</g>
</g>
<!-- Node5&#45;&gt;Node1 -->
<g id="edge4_Node000001_Node000005" class="edge">
<title>Node5&#45;&gt;Node1</title>
<g id="a_edge4_Node000001_Node000005"><a xlink:title=" ">
<path fill="none" stroke="#63b8ff" d="M449.67,-274.11C440.34,-246.73 425.87,-213.15 405.25,-188 383.39,-161.35 353.95,-138.2 325.72,-119.69"/>
<polygon fill="none" stroke="#63b8ff" points="325.84,-119.78 318.63,-119.92 315.73,-113.31 322.94,-113.17 325.84,-119.78"/>
</a>
</g>
<text text-anchor="middle" x="402.86" y="-160.5" font-family="Helvetica,sans-Serif" font-size="10.00" fill="grey"> &#45;_crypt</text>
</g>
<!-- Node6 -->
<g id="Node000006" class="node">
<title>Node6</title>
<g id="a_Node000006"><a xlink:href="class_w_p_r_1_1_data_1_1_env_config.html" target="_top" xlink:title="Leez het .env bestand uit waarin de connectie strings staan naar de database. Deze staan in een apart...">
<polygon fill="white" stroke="none" points="516.12,-656 410.38,-656 410.38,-508 516.12,-508 516.12,-656"/>
<text text-anchor="start" x="414.88" y="-642.5" font-family="Helvetica,sans-Serif" font-size="10.00">WPR.Data.EnvConfig</text>
<text text-anchor="start" x="415.88" y="-626.5" font-family="Helvetica,sans-Serif" font-size="10.00">&#45;</text>
<text text-anchor="start" x="424.38" y="-626.5" font-family="Helvetica,sans-Serif" font-size="10.00">_configuration</text>
<text text-anchor="start" x="414.38" y="-610.5" font-family="Helvetica,sans-Serif" font-size="10.00">+</text>
<text text-anchor="start" x="424.38" y="-610.5" font-family="Helvetica,sans-Serif" font-size="10.00">EnvConfig()</text>
<text text-anchor="start" x="414.38" y="-594.5" font-family="Helvetica,sans-Serif" font-size="10.00">+</text>
<text text-anchor="start" x="424.38" y="-594.5" font-family="Helvetica,sans-Serif" font-size="10.00">Get()</text>
<text text-anchor="start" x="414.38" y="-578.5" font-family="Helvetica,sans-Serif" font-size="10.00">+</text>
<text text-anchor="start" x="424.38" y="-578.5" font-family="Helvetica,sans-Serif" font-size="10.00">IsConfigured()</text>
<text text-anchor="start" x="414.38" y="-562.5" font-family="Helvetica,sans-Serif" font-size="10.00">+</text>
<text text-anchor="start" x="424.38" y="-562.5" font-family="Helvetica,sans-Serif" font-size="10.00">GetSmtpHost()</text>
<text text-anchor="start" x="414.38" y="-546.5" font-family="Helvetica,sans-Serif" font-size="10.00">+</text>
<text text-anchor="start" x="424.38" y="-546.5" font-family="Helvetica,sans-Serif" font-size="10.00">GetSmtpPort()</text>
<text text-anchor="start" x="414.38" y="-530.5" font-family="Helvetica,sans-Serif" font-size="10.00">+</text>
<text text-anchor="start" x="424.38" y="-530.5" font-family="Helvetica,sans-Serif" font-size="10.00">GetFromEmail()</text>
<text text-anchor="start" x="414.38" y="-514.5" font-family="Helvetica,sans-Serif" font-size="10.00">+</text>
<text text-anchor="start" x="424.38" y="-514.5" font-family="Helvetica,sans-Serif" font-size="10.00">GetFromPassword()</text>
<polygon fill="#666666" stroke="#666666" points="410.38,-638 410.38,-638 516.12,-638 516.12,-638 410.38,-638"/>
<polygon fill="#666666" stroke="#666666" points="410.38,-622 410.38,-622 422.38,-622 422.38,-622 410.38,-622"/>
<polygon fill="#666666" stroke="#666666" points="422.38,-622 422.38,-622 516.12,-622 516.12,-622 422.38,-622"/>
<polygon fill="none" stroke="#666666" points="410.38,-508 410.38,-656 516.12,-656 516.12,-508 410.38,-508"/>
</a>
</g>
</g>
<!-- Node6&#45;&gt;Node5 -->
<g id="edge5_Node000005_Node000006" class="edge">
<title>Node6&#45;&gt;Node5</title>
<g id="a_edge5_Node000005_Node000006"><a xlink:title=" ">
<path fill="none" stroke="#63b8ff" d="M463.25,-508.33C463.25,-470.01 463.25,-423.51 463.25,-386.93"/>
<polygon fill="none" stroke="#63b8ff" points="463.25,-386.84 459.25,-380.84 463.25,-374.84 467.25,-380.84 463.25,-386.84"/>
</a>
</g>
<text text-anchor="middle" x="491" y="-480.5" font-family="Helvetica,sans-Serif" font-size="10.00" fill="grey"> &#45;_envConfig</text>
</g>
</g>
</svg>

<g id="navigator" transform="translate(0 0)" fill="#404254">
  <rect fill="#f2f5e9" fill-opacity="0.5" stroke="#606060" stroke-width=".5" x="0" y="0" width="60" height="60"/>
  <use id="zoomplus" xlink:href="#zoomPlus" x="17" y="9" onmousedown="handleZoom(evt,'in')"/>
  <use id="zoomminus" xlink:href="#zoomMin" x="42" y="9" onmousedown="handleZoom(evt,'out')"/>
  <use id="reset" xlink:href="#resetDef" x="30" y="36" onmousedown="handleReset()"/>
   <use id="arrowup" xlink:href="#arrowUp" x="0" y="0" onmousedown="handlePan(0,-1)"/>
  <use id="arrowright" xlink:href="#arrowRight" x="0" y="0" onmousedown="handlePan(1,0)"/>
  <use id="arrowdown" xlink:href="#arrowDown" x="0" y="0" onmousedown="handlePan(0,1)"/>
  <use id="arrowleft" xlink:href="#arrowLeft" x="0" y="0" onmousedown="handlePan(-1,0)"/>
</g>
<svg viewBox="0 0 15 15" width="100%" height="30px" preserveAspectRatio="xMaxYMin meet">
 <g id="arrow_out" transform="scale(0.3 0.3)">
  <a xlink:href="class_w_p_r_1_1_controllers_1_1_employee_1_1_shared_1_1accept_hire_request_1_1_accept_hire_request_controller__coll__graph_org.svg" target="_base">
   <rect id="button" ry="5" rx="5" y="6" x="6" height="38" width="38"
        fill="#f2f5e9" fill-opacity="0.5" stroke="#606060" stroke-width="1.0"/>
   <path id="arrow"
     d="M 11.500037,31.436501 C 11.940474,20.09759 22.043105,11.32322 32.158766,21.979434 L 37.068811,17.246167 C 37.068811,17.246167 37.088388,32 37.088388,32 L 22.160133,31.978069 C 22.160133,31.978069 26.997745,27.140456 26.997745,27.140456 C 18.528582,18.264221 13.291696,25.230495 11.500037,31.436501 z"
     style="fill:#404040;"/>
  </a>
 </g>
</svg>

<style type='text/css'>
<![CDATA[
[data-mouse-over-selected='false'] { opacity: 0.7; }
[data-mouse-over-selected='true']  { opacity: 1.0; }
]]>
</style>
<script type="application/ecmascript"><![CDATA[
document.addEventListener('DOMContentLoaded', (event) => {
  highlightEdges();
  highlightAdjacentNodes();
});
]]></script>
</svg>
