<?xml version="1.0" encoding="UTF-8" standalone="no"?>
<!DOCTYPE svg PUBLIC "-//W3C//DTD SVG 1.1//EN"
 "http://www.w3.org/Graphics/SVG/1.1/DTD/svg11.dtd">
<!-- Generated by graphviz version 12.2.1 (20241206.2353)
 -->
<!-- Title: ContractRepository Pages: 1 -->
<svg width="166pt" height="196pt"
 viewBox="0.00 0.00 165.50 196.00" xmlns="http://www.w3.org/2000/svg" xmlns:xlink="http://www.w3.org/1999/xlink">
<g id="graph0" class="graph" transform="scale(1 1) rotate(0) translate(4 192)">
<title>ContractRepository</title>
<!-- Node1 -->
<g id="Node000001" class="node">
<title>Node1</title>
<g id="a_Node000001"><a xlink:title="Verantwoordelijk voor het ophalen van contractgerelateerde gegevens uit de database.">
<polygon fill="#999999" stroke="none" points="157.5,-84 0,-84 0,0 157.5,0 157.5,-84"/>
<text text-anchor="start" x="36.38" y="-70.5" font-family="Helvetica,sans-Serif" font-size="10.00">ContractRepository</text>
<text text-anchor="start" x="5.5" y="-54.5" font-family="Helvetica,sans-Serif" font-size="10.00">&#45;</text>
<text text-anchor="start" x="14" y="-54.5" font-family="Helvetica,sans-Serif" font-size="10.00">_connector</text>
<text text-anchor="start" x="4" y="-38.5" font-family="Helvetica,sans-Serif" font-size="10.00">+</text>
<text text-anchor="start" x="14" y="-38.5" font-family="Helvetica,sans-Serif" font-size="10.00">ContractRepository()</text>
<text text-anchor="start" x="4" y="-22.5" font-family="Helvetica,sans-Serif" font-size="10.00">+</text>
<text text-anchor="start" x="14" y="-22.5" font-family="Helvetica,sans-Serif" font-size="10.00">GetContractsSendEmailAsync()</text>
<text text-anchor="start" x="4" y="-6.5" font-family="Helvetica,sans-Serif" font-size="10.00">+</text>
<text text-anchor="start" x="14" y="-6.5" font-family="Helvetica,sans-Serif" font-size="10.00">GetContractInfoAsync()</text>
<polygon fill="#666666" stroke="#666666" points="0,-66 0,-66 157.5,-66 157.5,-66 0,-66"/>
<polygon fill="#666666" stroke="#666666" points="0,-50 0,-50 12,-50 12,-50 0,-50"/>
<polygon fill="#666666" stroke="#666666" points="12,-50 12,-50 157.5,-50 157.5,-50 12,-50"/>
<polygon fill="none" stroke="#666666" points="0,0 0,-84 157.5,-84 157.5,0 0,0"/>
</a>
</g>
</g>
<!-- Node2 -->
<g id="Node000002" class="node">
<title>Node2</title>
<g id="a_Node000002"><a xlink:href="interface_w_p_r_1_1_repository_1_1_i_contract_repository.html" target="_top" xlink:title=" ">
<polygon fill="white" stroke="none" points="157.5,-188 0,-188 0,-120 157.5,-120 157.5,-188"/>
<text text-anchor="start" x="34.88" y="-174.5" font-family="Helvetica,sans-Serif" font-size="10.00">IContractRepository</text>
<text text-anchor="start" x="77.25" y="-158.5" font-family="Helvetica,sans-Serif" font-size="10.00"> </text>
<text text-anchor="start" x="4" y="-142.5" font-family="Helvetica,sans-Serif" font-size="10.00">+</text>
<text text-anchor="start" x="14" y="-142.5" font-family="Helvetica,sans-Serif" font-size="10.00">GetContractsSendEmailAsync()</text>
<text text-anchor="start" x="4" y="-126.5" font-family="Helvetica,sans-Serif" font-size="10.00">+</text>
<text text-anchor="start" x="14" y="-126.5" font-family="Helvetica,sans-Serif" font-size="10.00">GetContractInfoAsync()</text>
<polygon fill="#666666" stroke="#666666" points="0,-170 0,-170 157.5,-170 157.5,-170 0,-170"/>
<polygon fill="#666666" stroke="#666666" points="0,-154 0,-154 157.5,-154 157.5,-154 0,-154"/>
<polygon fill="none" stroke="#666666" points="0,-120 0,-188 157.5,-188 157.5,-120 0,-120"/>
</a>
</g>
</g>
<!-- Node2&#45;&gt;Node1 -->
<g id="edge1_Node000001_Node000002" class="edge">
<title>Node2&#45;&gt;Node1</title>
<g id="a_edge1_Node000001_Node000002"><a xlink:title=" ">
<path fill="none" stroke="#63b8ff" d="M78.75,-108.95C78.75,-100.7 78.75,-92.12 78.75,-83.97"/>
<polygon fill="none" stroke="#63b8ff" points="75.25,-108.78 78.75,-118.78 82.25,-108.78 75.25,-108.78"/>
</a>
</g>
</g>
</g>
</svg>
