<?xml version="1.0" encoding="UTF-8" standalone="no"?>
<!DOCTYPE svg PUBLIC "-//W3C//DTD SVG 1.1//EN"
 "http://www.w3.org/Graphics/SVG/1.1/DTD/svg11.dtd">
<!-- Generated by graphviz version 12.2.1 (20241206.2353)
 -->
<!-- Title: WPR.Controllers.Customer.Rental.RentalController Pages: 1 -->
<svg width="264pt" height="500pt"
 viewBox="0.00 0.00 264.38 500.00" xmlns="http://www.w3.org/2000/svg" xmlns:xlink="http://www.w3.org/1999/xlink">
<g id="graph0" class="graph" transform="scale(1 1) rotate(0) translate(4 496)">
<title>WPR.Controllers.Customer.Rental.RentalController</title>
<!-- Node1 -->
<g id="Node000001" class="node">
<title>Node1</title>
<g id="a_Node000001"><a xlink:title=" ">
<polygon fill="#999999" stroke="none" points="179.62,-156 28.88,-156 28.88,0 179.62,0 179.62,-156"/>
<text text-anchor="start" x="42.75" y="-142.5" font-family="Helvetica,sans-Serif" font-size="10.00">WPR.Controllers.Customer.</text>
<text text-anchor="start" x="53.25" y="-130.5" font-family="Helvetica,sans-Serif" font-size="10.00">Rental.RentalController</text>
<text text-anchor="start" x="102.75" y="-114.5" font-family="Helvetica,sans-Serif" font-size="10.00"> </text>
<text text-anchor="start" x="32.88" y="-98.5" font-family="Helvetica,sans-Serif" font-size="10.00">+</text>
<text text-anchor="start" x="42.88" y="-98.5" font-family="Helvetica,sans-Serif" font-size="10.00">RentalController()</text>
<text text-anchor="start" x="32.88" y="-82.5" font-family="Helvetica,sans-Serif" font-size="10.00">+</text>
<text text-anchor="start" x="42.88" y="-82.5" font-family="Helvetica,sans-Serif" font-size="10.00">CancelRentalAsync()</text>
<text text-anchor="start" x="32.88" y="-66.5" font-family="Helvetica,sans-Serif" font-size="10.00">+</text>
<text text-anchor="start" x="42.88" y="-66.5" font-family="Helvetica,sans-Serif" font-size="10.00">GetAllUserRentalsAsync()</text>
<text text-anchor="start" x="32.88" y="-50.5" font-family="Helvetica,sans-Serif" font-size="10.00">+</text>
<text text-anchor="start" x="42.88" y="-50.5" font-family="Helvetica,sans-Serif" font-size="10.00">GetAllUserRentalsWithDetails</text>
<text text-anchor="start" x="42.88" y="-38.5" font-family="Helvetica,sans-Serif" font-size="10.00">Async()</text>
<text text-anchor="start" x="32.88" y="-22.5" font-family="Helvetica,sans-Serif" font-size="10.00">+</text>
<text text-anchor="start" x="42.88" y="-22.5" font-family="Helvetica,sans-Serif" font-size="10.00">ChangeRentalAsync()</text>
<text text-anchor="start" x="32.88" y="-6.5" font-family="Helvetica,sans-Serif" font-size="10.00">+</text>
<text text-anchor="start" x="42.88" y="-6.5" font-family="Helvetica,sans-Serif" font-size="10.00">CreateRental()</text>
<polygon fill="#666666" stroke="#666666" points="28.88,-126 28.88,-126 179.62,-126 179.62,-126 28.88,-126"/>
<polygon fill="#666666" stroke="#666666" points="28.88,-110 28.88,-110 179.62,-110 179.62,-110 28.88,-110"/>
<polygon fill="none" stroke="#666666" points="28.88,0 28.88,-156 179.62,-156 179.62,0 28.88,0"/>
</a>
</g>
</g>
<!-- Node2 -->
<g id="Node000002" class="node">
<title>Node2</title>
<g id="a_Node000002"><a xlink:title=" ">
<polygon fill="white" stroke="none" points="72.5,-374 0,-374 0,-322 72.5,-322 72.5,-374"/>
<text text-anchor="start" x="4" y="-360.5" font-family="Helvetica,sans-Serif" font-size="10.00">ControllerBase</text>
<text text-anchor="start" x="34.75" y="-344.5" font-family="Helvetica,sans-Serif" font-size="10.00"> </text>
<text text-anchor="start" x="34.75" y="-328.5" font-family="Helvetica,sans-Serif" font-size="10.00"> </text>
<polygon fill="#666666" stroke="#666666" points="0,-356 0,-356 72.5,-356 72.5,-356 0,-356"/>
<polygon fill="#666666" stroke="#666666" points="0,-340 0,-340 72.5,-340 72.5,-340 0,-340"/>
<polygon fill="none" stroke="#666666" points="0,-322 0,-374 72.5,-374 72.5,-322 0,-322"/>
</a>
</g>
</g>
<!-- Node2&#45;&gt;Node1 -->
<g id="edge1_Node000001_Node000002" class="edge">
<title>Node2&#45;&gt;Node1</title>
<g id="a_edge1_Node000001_Node000002"><a xlink:title=" ">
<path fill="none" stroke="#63b8ff" d="M45.29,-311.36C55.31,-271.89 71.75,-207.09 84.73,-155.93"/>
<polygon fill="none" stroke="#63b8ff" points="41.96,-310.25 42.9,-320.8 48.75,-311.97 41.96,-310.25"/>
</a>
</g>
</g>
<!-- Node3 -->
<g id="Node000003" class="node">
<title>Node3</title>
<g id="a_Node000003"><a xlink:href="interface_w_p_r_1_1_repository_1_1_i_vehicle_repository.html" target="_top" xlink:title=" ">
<polygon fill="white" stroke="none" points="256.38,-492 90.12,-492 90.12,-204 256.38,-204 256.38,-492"/>
<text text-anchor="start" x="94.12" y="-478.5" font-family="Helvetica,sans-Serif" font-size="10.00">WPR.Repository.IVehicleRepository</text>
<text text-anchor="start" x="96.31" y="-462.5" font-family="Helvetica,sans-Serif" font-size="10.00">+</text>
<text text-anchor="start" x="108.5" y="-462.5" font-family="Helvetica,sans-Serif" font-size="10.00">Status</text>
<text text-anchor="start" x="96.31" y="-446.5" font-family="Helvetica,sans-Serif" font-size="10.00">+</text>
<text text-anchor="start" x="108.5" y="-446.5" font-family="Helvetica,sans-Serif" font-size="10.00">StatusCode</text>
<text text-anchor="start" x="96.31" y="-430.5" font-family="Helvetica,sans-Serif" font-size="10.00">+</text>
<text text-anchor="start" x="108.5" y="-430.5" font-family="Helvetica,sans-Serif" font-size="10.00">Message</text>
<text text-anchor="start" x="96.31" y="-414.5" font-family="Helvetica,sans-Serif" font-size="10.00">+</text>
<text text-anchor="start" x="108.5" y="-414.5" font-family="Helvetica,sans-Serif" font-size="10.00">GetVehiclePlateAsync()</text>
<text text-anchor="start" x="96.31" y="-398.5" font-family="Helvetica,sans-Serif" font-size="10.00">+</text>
<text text-anchor="start" x="108.5" y="-398.5" font-family="Helvetica,sans-Serif" font-size="10.00">GetVehicleNameAsync()</text>
<text text-anchor="start" x="96.31" y="-382.5" font-family="Helvetica,sans-Serif" font-size="10.00">+</text>
<text text-anchor="start" x="108.5" y="-382.5" font-family="Helvetica,sans-Serif" font-size="10.00">GetVehicleColorAsync()</text>
<text text-anchor="start" x="96.31" y="-366.5" font-family="Helvetica,sans-Serif" font-size="10.00">+</text>
<text text-anchor="start" x="108.5" y="-366.5" font-family="Helvetica,sans-Serif" font-size="10.00">GetFrameNumbersAsync()</text>
<text text-anchor="start" x="96.31" y="-350.5" font-family="Helvetica,sans-Serif" font-size="10.00">+</text>
<text text-anchor="start" x="108.5" y="-350.5" font-family="Helvetica,sans-Serif" font-size="10.00">GetVehicleDataAsync()</text>
<text text-anchor="start" x="96.31" y="-334.5" font-family="Helvetica,sans-Serif" font-size="10.00">+</text>
<text text-anchor="start" x="108.5" y="-334.5" font-family="Helvetica,sans-Serif" font-size="10.00">GetFrameNumberSpecifiekType</text>
<text text-anchor="start" x="108.5" y="-322.5" font-family="Helvetica,sans-Serif" font-size="10.00">Async()</text>
<text text-anchor="start" x="96.31" y="-306.5" font-family="Helvetica,sans-Serif" font-size="10.00">+</text>
<text text-anchor="start" x="108.5" y="-306.5" font-family="Helvetica,sans-Serif" font-size="10.00">HireVehicle()</text>
<text text-anchor="start" x="96.31" y="-290.5" font-family="Helvetica,sans-Serif" font-size="10.00">+</text>
<text text-anchor="start" x="108.5" y="-290.5" font-family="Helvetica,sans-Serif" font-size="10.00">CancelRental()</text>
<text text-anchor="start" x="96.31" y="-274.5" font-family="Helvetica,sans-Serif" font-size="10.00">+</text>
<text text-anchor="start" x="108.5" y="-274.5" font-family="Helvetica,sans-Serif" font-size="10.00">GetAllUserRentals()</text>
<text text-anchor="start" x="96.31" y="-258.5" font-family="Helvetica,sans-Serif" font-size="10.00">+</text>
<text text-anchor="start" x="108.5" y="-258.5" font-family="Helvetica,sans-Serif" font-size="10.00">GetAllUserRentalsDetailed()</text>
<text text-anchor="start" x="96.31" y="-242.5" font-family="Helvetica,sans-Serif" font-size="10.00">+</text>
<text text-anchor="start" x="108.5" y="-242.5" font-family="Helvetica,sans-Serif" font-size="10.00">ChangeRental()</text>
<text text-anchor="start" x="96.31" y="-226.5" font-family="Helvetica,sans-Serif" font-size="10.00">+</text>
<text text-anchor="start" x="108.5" y="-226.5" font-family="Helvetica,sans-Serif" font-size="10.00">DeleteVehicleAsync()</text>
<text text-anchor="start" x="96.31" y="-210.5" font-family="Helvetica,sans-Serif" font-size="10.00">+</text>
<text text-anchor="start" x="108.5" y="-210.5" font-family="Helvetica,sans-Serif" font-size="10.00">ChangeRepairStatus()</text>
<polygon fill="#666666" stroke="#666666" points="90.12,-474 90.12,-474 256.38,-474 256.38,-474 90.12,-474"/>
<polygon fill="#666666" stroke="#666666" points="90.12,-426 90.12,-426 106.5,-426 106.5,-426 90.12,-426"/>
<polygon fill="#666666" stroke="#666666" points="106.5,-426 106.5,-426 256.38,-426 256.38,-426 106.5,-426"/>
<polygon fill="none" stroke="#666666" points="90.12,-204 90.12,-492 256.38,-492 256.38,-204 90.12,-204"/>
</a>
</g>
</g>
<!-- Node3&#45;&gt;Node1 -->
<g id="edge2_Node000001_Node000003" class="edge">
<title>Node3&#45;&gt;Node1</title>
<g id="a_edge2_Node000001_Node000003"><a xlink:title=" ">
<path fill="none" stroke="#63b8ff" d="M136.53,-204.37C133.36,-192.07 130.22,-179.86 127.21,-168.17"/>
<polygon fill="none" stroke="#63b8ff" points="127.22,-168.21 121.85,-163.39 124.23,-156.58 129.59,-161.4 127.22,-168.21"/>
</a>
</g>
<text text-anchor="middle" x="163.17" y="-176.5" font-family="Helvetica,sans-Serif" font-size="10.00" fill="grey"> &#45;_vehicleRepo</text>
</g>
</g>
</svg>
