<?xml version="1.0" encoding="UTF-8" standalone="no"?>
<!DOCTYPE svg PUBLIC "-//W3C//DTD SVG 1.1//EN"
 "http://www.w3.org/Graphics/SVG/1.1/DTD/svg11.dtd">
<!-- Generated by graphviz version 12.2.1 (20241206.2353)
 -->
<!-- Title: WPR.Controllers.General.Cookie.CookieController Pages: 1 -->
<svg width="523pt" height="608pt"
 viewBox="0.00 0.00 522.75 608.00" xmlns="http://www.w3.org/2000/svg" xmlns:xlink="http://www.w3.org/1999/xlink">
<g id="graph0" class="graph" transform="scale(1 1) rotate(0) translate(4 604)">
<title>WPR.Controllers.General.Cookie.CookieController</title>
<!-- Node1 -->
<g id="Node000001" class="node">
<title>Node1</title>
<g id="a_Node000001"><a xlink:title="CookieController is de controller voor het aanmaken, verwijderen en ondervragen van cookies.">
<polygon fill="#999999" stroke="none" points="299.5,-144 169,-144 169,0 299.5,0 299.5,-144"/>
<text text-anchor="start" x="177.25" y="-130.5" font-family="Helvetica,sans-Serif" font-size="10.00">WPR.Controllers.General.</text>
<text text-anchor="start" x="181" y="-118.5" font-family="Helvetica,sans-Serif" font-size="10.00">Cookie.CookieController</text>
<text text-anchor="start" x="232.75" y="-102.5" font-family="Helvetica,sans-Serif" font-size="10.00"> </text>
<text text-anchor="start" x="173" y="-86.5" font-family="Helvetica,sans-Serif" font-size="10.00">+</text>
<text text-anchor="start" x="183" y="-86.5" font-family="Helvetica,sans-Serif" font-size="10.00">CookieController()</text>
<text text-anchor="start" x="173" y="-70.5" font-family="Helvetica,sans-Serif" font-size="10.00">+</text>
<text text-anchor="start" x="183" y="-70.5" font-family="Helvetica,sans-Serif" font-size="10.00">GetUserId()</text>
<text text-anchor="start" x="173" y="-54.5" font-family="Helvetica,sans-Serif" font-size="10.00">+</text>
<text text-anchor="start" x="183" y="-54.5" font-family="Helvetica,sans-Serif" font-size="10.00">GetUserName()</text>
<text text-anchor="start" x="173" y="-38.5" font-family="Helvetica,sans-Serif" font-size="10.00">+</text>
<text text-anchor="start" x="183" y="-38.5" font-family="Helvetica,sans-Serif" font-size="10.00">Logout()</text>
<text text-anchor="start" x="173" y="-22.5" font-family="Helvetica,sans-Serif" font-size="10.00">+</text>
<text text-anchor="start" x="183" y="-22.5" font-family="Helvetica,sans-Serif" font-size="10.00">GetKindEmployeeAsync()</text>
<text text-anchor="start" x="173" y="-6.5" font-family="Helvetica,sans-Serif" font-size="10.00">+</text>
<text text-anchor="start" x="183" y="-6.5" font-family="Helvetica,sans-Serif" font-size="10.00">IsVehicleManagerAsync()</text>
<polygon fill="#666666" stroke="#666666" points="169,-114 169,-114 299.5,-114 299.5,-114 169,-114"/>
<polygon fill="#666666" stroke="#666666" points="169,-98 169,-98 299.5,-98 299.5,-98 169,-98"/>
<polygon fill="none" stroke="#666666" points="169,0 169,-144 299.5,-144 299.5,0 169,0"/>
</a>
</g>
</g>
<!-- Node2 -->
<g id="Node000002" class="node">
<title>Node2</title>
<g id="a_Node000002"><a xlink:title=" ">
<polygon fill="white" stroke="none" points="72.5,-324 0,-324 0,-272 72.5,-272 72.5,-324"/>
<text text-anchor="start" x="4" y="-310.5" font-family="Helvetica,sans-Serif" font-size="10.00">ControllerBase</text>
<text text-anchor="start" x="34.75" y="-294.5" font-family="Helvetica,sans-Serif" font-size="10.00"> </text>
<text text-anchor="start" x="34.75" y="-278.5" font-family="Helvetica,sans-Serif" font-size="10.00"> </text>
<polygon fill="#666666" stroke="#666666" points="0,-306 0,-306 72.5,-306 72.5,-306 0,-306"/>
<polygon fill="#666666" stroke="#666666" points="0,-290 0,-290 72.5,-290 72.5,-290 0,-290"/>
<polygon fill="none" stroke="#666666" points="0,-272 0,-324 72.5,-324 72.5,-272 0,-272"/>
</a>
</g>
</g>
<!-- Node2&#45;&gt;Node1 -->
<g id="edge1_Node000001_Node000002" class="edge">
<title>Node2&#45;&gt;Node1</title>
<g id="a_edge1_Node000001_Node000002"><a xlink:title=" ">
<path fill="none" stroke="#63b8ff" d="M46.44,-261.54C53.79,-239.99 65.26,-212.72 81.25,-192 105.31,-160.83 139.33,-133.3 169.19,-112.58"/>
<polygon fill="none" stroke="#63b8ff" points="43.2,-260.2 43.43,-270.79 49.85,-262.36 43.2,-260.2"/>
</a>
</g>
</g>
<!-- Node3 -->
<g id="Node000003" class="node">
<title>Node3</title>
<g id="a_Node000003"><a xlink:href="interface_w_p_r_1_1_database_1_1_i_connector.html" target="_top" xlink:title="Connector class om verbinding te maken met de database, maakt gebruik van de connectie strings die zi...">
<polygon fill="white" stroke="none" points="218.25,-324 90.25,-324 90.25,-272 218.25,-272 218.25,-324"/>
<text text-anchor="start" x="94.25" y="-310.5" font-family="Helvetica,sans-Serif" font-size="10.00">WPR.Database.IConnector</text>
<text text-anchor="start" x="152.75" y="-294.5" font-family="Helvetica,sans-Serif" font-size="10.00"> </text>
<text text-anchor="start" x="97.38" y="-278.5" font-family="Helvetica,sans-Serif" font-size="10.00">+</text>
<text text-anchor="start" x="110.5" y="-278.5" font-family="Helvetica,sans-Serif" font-size="10.00">CreateDbConnection()</text>
<polygon fill="#666666" stroke="#666666" points="90.25,-306 90.25,-306 218.25,-306 218.25,-306 90.25,-306"/>
<polygon fill="#666666" stroke="#666666" points="90.25,-290 90.25,-290 218.25,-290 218.25,-290 90.25,-290"/>
<polygon fill="none" stroke="#666666" points="90.25,-272 90.25,-324 218.25,-324 218.25,-272 90.25,-272"/>
</a>
</g>
</g>
<!-- Node3&#45;&gt;Node1 -->
<g id="edge2_Node000001_Node000003" class="edge">
<title>Node3&#45;&gt;Node1</title>
<g id="a_edge2_Node000001_Node000003"><a xlink:title=" ">
<path fill="none" stroke="#63b8ff" d="M163.12,-272.17C173.11,-244.18 189.9,-197.18 204.66,-155.86"/>
<polygon fill="none" stroke="#63b8ff" points="204.62,-155.96 202.87,-148.97 208.66,-144.66 210.41,-151.66 204.62,-155.96"/>
</a>
</g>
<text text-anchor="middle" x="228.42" y="-164.5" font-family="Helvetica,sans-Serif" font-size="10.00" fill="grey"> &#45;_connector</text>
</g>
<!-- Node4 -->
<g id="Node000004" class="node">
<title>Node4</title>
<g id="a_Node000004"><a xlink:href="interface_w_p_r_1_1_repository_1_1_i_user_repository.html" target="_top" xlink:title="Interface defining methods voor user gerelateerde database operaties, validatie, user management,...">
<polygon fill="white" stroke="none" points="392.12,-404 236.38,-404 236.38,-192 392.12,-192 392.12,-404"/>
<text text-anchor="start" x="240.38" y="-390.5" font-family="Helvetica,sans-Serif" font-size="10.00">WPR.Repository.IUserRepository</text>
<text text-anchor="start" x="312.75" y="-374.5" font-family="Helvetica,sans-Serif" font-size="10.00"> </text>
<text text-anchor="start" x="240.88" y="-358.5" font-family="Helvetica,sans-Serif" font-size="10.00">+</text>
<text text-anchor="start" x="251.38" y="-358.5" font-family="Helvetica,sans-Serif" font-size="10.00">ValidateUserAsync()</text>
<text text-anchor="start" x="240.88" y="-342.5" font-family="Helvetica,sans-Serif" font-size="10.00">+</text>
<text text-anchor="start" x="251.38" y="-342.5" font-family="Helvetica,sans-Serif" font-size="10.00">checkUsageEmailAsync()</text>
<text text-anchor="start" x="240.88" y="-326.5" font-family="Helvetica,sans-Serif" font-size="10.00">+</text>
<text text-anchor="start" x="251.38" y="-326.5" font-family="Helvetica,sans-Serif" font-size="10.00">addCustomerAsync()</text>
<text text-anchor="start" x="240.88" y="-310.5" font-family="Helvetica,sans-Serif" font-size="10.00">+</text>
<text text-anchor="start" x="251.38" y="-310.5" font-family="Helvetica,sans-Serif" font-size="10.00">addPersonalCustomerAsync()</text>
<text text-anchor="start" x="240.88" y="-294.5" font-family="Helvetica,sans-Serif" font-size="10.00">+</text>
<text text-anchor="start" x="251.38" y="-294.5" font-family="Helvetica,sans-Serif" font-size="10.00">addEmployeeCustomerAsync()</text>
<text text-anchor="start" x="240.88" y="-278.5" font-family="Helvetica,sans-Serif" font-size="10.00">+</text>
<text text-anchor="start" x="251.38" y="-278.5" font-family="Helvetica,sans-Serif" font-size="10.00">GetUserIdAsync()</text>
<text text-anchor="start" x="240.88" y="-262.5" font-family="Helvetica,sans-Serif" font-size="10.00">+</text>
<text text-anchor="start" x="251.38" y="-262.5" font-family="Helvetica,sans-Serif" font-size="10.00">GetUserNameAsync()</text>
<text text-anchor="start" x="240.88" y="-246.5" font-family="Helvetica,sans-Serif" font-size="10.00">+</text>
<text text-anchor="start" x="251.38" y="-246.5" font-family="Helvetica,sans-Serif" font-size="10.00">EditUserInfoAsync()</text>
<text text-anchor="start" x="240.88" y="-230.5" font-family="Helvetica,sans-Serif" font-size="10.00">+</text>
<text text-anchor="start" x="251.38" y="-230.5" font-family="Helvetica,sans-Serif" font-size="10.00">IsKvkNumberAsync()</text>
<text text-anchor="start" x="240.88" y="-214.5" font-family="Helvetica,sans-Serif" font-size="10.00">+</text>
<text text-anchor="start" x="251.38" y="-214.5" font-family="Helvetica,sans-Serif" font-size="10.00">IsUserEmployee()</text>
<text text-anchor="start" x="251.38" y="-198.5" font-family="Helvetica,sans-Serif" font-size="10.00">en 14 anderen...</text>
<polygon fill="#666666" stroke="#666666" points="236.38,-386 236.38,-386 392.12,-386 392.12,-386 236.38,-386"/>
<polygon fill="#666666" stroke="#666666" points="236.38,-370 236.38,-370 392.12,-370 392.12,-370 236.38,-370"/>
<polygon fill="none" stroke="#666666" points="236.38,-192 236.38,-404 392.12,-404 392.12,-192 236.38,-192"/>
</a>
</g>
</g>
<!-- Node4&#45;&gt;Node1 -->
<g id="edge3_Node000001_Node000004" class="edge">
<title>Node4&#45;&gt;Node1</title>
<g id="a_edge3_Node000001_Node000004"><a xlink:title=" ">
<path fill="none" stroke="#63b8ff" d="M276.83,-192.21C272.48,-180.05 268.09,-167.76 263.87,-155.94"/>
<polygon fill="none" stroke="#63b8ff" points="263.88,-155.97 258.1,-151.66 259.85,-144.67 265.63,-148.97 263.88,-155.97"/>
</a>
</g>
<text text-anchor="middle" x="308.09" y="-164.5" font-family="Helvetica,sans-Serif" font-size="10.00" fill="grey"> &#45;_userRepository</text>
</g>
<!-- Node5 -->
<g id="Node000005" class="node">
<title>Node5</title>
<g id="a_Node000005"><a xlink:href="class_w_p_r_1_1_cryption_1_1_crypt.html" target="_top" xlink:title="Class Crypt zorgt voor een veilig encryptie en decryptie van strings. De Crptie wordt gedaan door het...">
<polygon fill="white" stroke="none" points="508.62,-348 409.88,-348 409.88,-248 508.62,-248 508.62,-348"/>
<text text-anchor="start" x="413.88" y="-334.5" font-family="Helvetica,sans-Serif" font-size="10.00">WPR.Cryption.Crypt</text>
<text text-anchor="start" x="425.44" y="-318.5" font-family="Helvetica,sans-Serif" font-size="10.00">&#45;</text>
<text text-anchor="start" x="444" y="-318.5" font-family="Helvetica,sans-Serif" font-size="10.00">_key</text>
<text text-anchor="start" x="425.44" y="-302.5" font-family="Helvetica,sans-Serif" font-size="10.00">&#45;</text>
<text text-anchor="start" x="444" y="-302.5" font-family="Helvetica,sans-Serif" font-size="10.00">_IV</text>
<text text-anchor="start" x="423.94" y="-286.5" font-family="Helvetica,sans-Serif" font-size="10.00">+</text>
<text text-anchor="start" x="444" y="-286.5" font-family="Helvetica,sans-Serif" font-size="10.00">Crypt()</text>
<text text-anchor="start" x="423.94" y="-270.5" font-family="Helvetica,sans-Serif" font-size="10.00">+</text>
<text text-anchor="start" x="444" y="-270.5" font-family="Helvetica,sans-Serif" font-size="10.00">Encrypt()</text>
<text text-anchor="start" x="423.94" y="-254.5" font-family="Helvetica,sans-Serif" font-size="10.00">+</text>
<text text-anchor="start" x="444" y="-254.5" font-family="Helvetica,sans-Serif" font-size="10.00">Decrypt()</text>
<polygon fill="#666666" stroke="#666666" points="409.88,-330 409.88,-330 508.62,-330 508.62,-330 409.88,-330"/>
<polygon fill="#666666" stroke="#666666" points="409.88,-298 409.88,-298 442,-298 442,-298 409.88,-298"/>
<polygon fill="#666666" stroke="#666666" points="442,-298 442,-298 508.62,-298 508.62,-298 442,-298"/>
<polygon fill="none" stroke="#666666" points="409.88,-248 409.88,-348 508.62,-348 508.62,-248 409.88,-248"/>
</a>
</g>
</g>
<!-- Node5&#45;&gt;Node1 -->
<g id="edge4_Node000001_Node000005" class="edge">
<title>Node5&#45;&gt;Node1</title>
<g id="a_edge4_Node000001_Node000005"><a xlink:title=" ">
<path fill="none" stroke="#63b8ff" d="M437.98,-248.07C428.41,-229.31 415.94,-208.48 401.25,-192 375.29,-162.88 340.95,-136.89 310.17,-116.68"/>
<polygon fill="none" stroke="#63b8ff" points="310.3,-116.76 303.09,-116.88 300.21,-110.26 307.42,-110.15 310.3,-116.76"/>
</a>
</g>
<text text-anchor="middle" x="398.34" y="-164.5" font-family="Helvetica,sans-Serif" font-size="10.00" fill="grey"> &#45;_crypt</text>
</g>
<!-- Node6 -->
<g id="Node000006" class="node">
<title>Node6</title>
<g id="a_Node000006"><a xlink:href="class_w_p_r_1_1_data_1_1_env_config.html" target="_top" xlink:title="Leez het .env bestand uit waarin de connectie strings staan naar de database. Deze staan in een apart...">
<polygon fill="white" stroke="none" points="512.12,-600 406.38,-600 406.38,-452 512.12,-452 512.12,-600"/>
<text text-anchor="start" x="410.88" y="-586.5" font-family="Helvetica,sans-Serif" font-size="10.00">WPR.Data.EnvConfig</text>
<text text-anchor="start" x="411.88" y="-570.5" font-family="Helvetica,sans-Serif" font-size="10.00">&#45;</text>
<text text-anchor="start" x="420.38" y="-570.5" font-family="Helvetica,sans-Serif" font-size="10.00">_configuration</text>
<text text-anchor="start" x="410.38" y="-554.5" font-family="Helvetica,sans-Serif" font-size="10.00">+</text>
<text text-anchor="start" x="420.38" y="-554.5" font-family="Helvetica,sans-Serif" font-size="10.00">EnvConfig()</text>
<text text-anchor="start" x="410.38" y="-538.5" font-family="Helvetica,sans-Serif" font-size="10.00">+</text>
<text text-anchor="start" x="420.38" y="-538.5" font-family="Helvetica,sans-Serif" font-size="10.00">Get()</text>
<text text-anchor="start" x="410.38" y="-522.5" font-family="Helvetica,sans-Serif" font-size="10.00">+</text>
<text text-anchor="start" x="420.38" y="-522.5" font-family="Helvetica,sans-Serif" font-size="10.00">IsConfigured()</text>
<text text-anchor="start" x="410.38" y="-506.5" font-family="Helvetica,sans-Serif" font-size="10.00">+</text>
<text text-anchor="start" x="420.38" y="-506.5" font-family="Helvetica,sans-Serif" font-size="10.00">GetSmtpHost()</text>
<text text-anchor="start" x="410.38" y="-490.5" font-family="Helvetica,sans-Serif" font-size="10.00">+</text>
<text text-anchor="start" x="420.38" y="-490.5" font-family="Helvetica,sans-Serif" font-size="10.00">GetSmtpPort()</text>
<text text-anchor="start" x="410.38" y="-474.5" font-family="Helvetica,sans-Serif" font-size="10.00">+</text>
<text text-anchor="start" x="420.38" y="-474.5" font-family="Helvetica,sans-Serif" font-size="10.00">GetFromEmail()</text>
<text text-anchor="start" x="410.38" y="-458.5" font-family="Helvetica,sans-Serif" font-size="10.00">+</text>
<text text-anchor="start" x="420.38" y="-458.5" font-family="Helvetica,sans-Serif" font-size="10.00">GetFromPassword()</text>
<polygon fill="#666666" stroke="#666666" points="406.38,-582 406.38,-582 512.12,-582 512.12,-582 406.38,-582"/>
<polygon fill="#666666" stroke="#666666" points="406.38,-566 406.38,-566 418.38,-566 418.38,-566 406.38,-566"/>
<polygon fill="#666666" stroke="#666666" points="418.38,-566 418.38,-566 512.12,-566 512.12,-566 418.38,-566"/>
<polygon fill="none" stroke="#666666" points="406.38,-452 406.38,-600 512.12,-600 512.12,-452 406.38,-452"/>
</a>
</g>
</g>
<!-- Node6&#45;&gt;Node5 -->
<g id="edge5_Node000005_Node000006" class="edge">
<title>Node6&#45;&gt;Node5</title>
<g id="a_edge5_Node000005_Node000006"><a xlink:title=" ">
<path fill="none" stroke="#63b8ff" d="M459.25,-452.25C459.25,-422.73 459.25,-388.99 459.25,-360.7"/>
<polygon fill="none" stroke="#63b8ff" points="459.25,-360.61 455.25,-354.61 459.25,-348.61 463.25,-354.61 459.25,-360.61"/>
</a>
</g>
<text text-anchor="middle" x="487" y="-424.5" font-family="Helvetica,sans-Serif" font-size="10.00" fill="grey"> &#45;_envConfig</text>
</g>
</g>
</svg>
