<?xml version="1.0" encoding="UTF-8" standalone="no"?>
<!DOCTYPE svg PUBLIC "-//W3C//DTD SVG 1.1//EN"
 "http://www.w3.org/Graphics/SVG/1.1/DTD/svg11.dtd">
<!-- Generated by graphviz version 12.2.1 (20241206.2353)
 -->
<!-- Title: DatabaseCheckRepository.DeleteBusiness Pages: 1 -->
<svg width="832pt" height="134pt"
 viewBox="0.00 0.00 832.00 134.00" xmlns="http://www.w3.org/2000/svg" xmlns:xlink="http://www.w3.org/1999/xlink">
<g id="graph0" class="graph" transform="scale(1 1) rotate(0) translate(4 130)">
<title>DatabaseCheckRepository.DeleteBusiness</title>
<!-- Node1 -->
<g id="Node000001" class="node">
<title>Node1</title>
<g id="a_Node000001"><a xlink:title=" ">
<polygon fill="#999999" stroke="#666666" points="136,-76 0,-76 0,-44 136,-44 136,-76"/>
<text text-anchor="start" x="8" y="-62.5" font-family="Helvetica,sans-Serif" font-size="10.00">DatabaseCheckRepository.</text>
<text text-anchor="middle" x="68" y="-50.5" font-family="Helvetica,sans-Serif" font-size="10.00">DeleteBusiness</text>
</a>
</g>
</g>
<!-- Node2 -->
<g id="Node000002" class="node">
<title>Node2</title>
<g id="a_Node000002"><a xlink:href="class_database_check_repository.html#a757a083a28f0a9d47611ea7b9cae4d85" target="_top" xlink:title="Controleert of alle werknemers van een bedrijf succesvol zijn verwijderd.">
<polygon fill="white" stroke="#666666" points="308,-126 172,-126 172,-94 308,-94 308,-126"/>
<text text-anchor="start" x="180" y="-112.5" font-family="Helvetica,sans-Serif" font-size="10.00">DatabaseCheckRepository.</text>
<text text-anchor="middle" x="240" y="-100.5" font-family="Helvetica,sans-Serif" font-size="10.00">DeleteBusinessAllowed</text>
</a>
</g>
</g>
<!-- Node1&#45;&gt;Node2 -->
<g id="edge1_Node000001_Node000002" class="edge">
<title>Node1&#45;&gt;Node2</title>
<g id="a_edge1_Node000001_Node000002"><a xlink:title=" ">
<path fill="none" stroke="#63b8ff" d="M124.66,-76.37C139.85,-80.84 156.46,-85.72 172.19,-90.35"/>
<polygon fill="#63b8ff" stroke="#63b8ff" points="170.89,-93.61 181.47,-93.08 172.86,-86.9 170.89,-93.61"/>
</a>
</g>
</g>
<!-- Node3 -->
<g id="Node000003" class="node">
<title>Node3</title>
<g id="a_Node000003"><a xlink:href="class_database_check_repository.html#a004ee325adfb7c4edc0c3e50098973ec" target="_top" xlink:title=" ">
<polygon fill="white" stroke="#666666" points="308,-76 172,-76 172,-44 308,-44 308,-76"/>
<text text-anchor="start" x="180" y="-62.5" font-family="Helvetica,sans-Serif" font-size="10.00">DatabaseCheckRepository.</text>
<text text-anchor="middle" x="240" y="-50.5" font-family="Helvetica,sans-Serif" font-size="10.00">DeleteEmployees</text>
</a>
</g>
</g>
<!-- Node1&#45;&gt;Node3 -->
<g id="edge2_Node000001_Node000003" class="edge">
<title>Node1&#45;&gt;Node3</title>
<g id="a_edge2_Node000001_Node000003"><a xlink:title=" ">
<path fill="none" stroke="#63b8ff" d="M136.19,-60C144.14,-60 152.3,-60 160.39,-60"/>
<polygon fill="#63b8ff" stroke="#63b8ff" points="160.23,-63.5 170.23,-60 160.23,-56.5 160.23,-63.5"/>
</a>
</g>
</g>
<!-- Node5 -->
<g id="Node000005" class="node">
<title>Node5</title>
<g id="a_Node000005"><a xlink:href="class_database_check_repository.html#addc06aeee3647cec54202bc103212e2e" target="_top" xlink:title=" ">
<polygon fill="white" stroke="#666666" points="652,-32 516,-32 516,0 652,0 652,-32"/>
<text text-anchor="start" x="524" y="-18.5" font-family="Helvetica,sans-Serif" font-size="10.00">DatabaseCheckRepository.</text>
<text text-anchor="middle" x="584" y="-6.5" font-family="Helvetica,sans-Serif" font-size="10.00">HandleDelete</text>
</a>
</g>
</g>
<!-- Node1&#45;&gt;Node5 -->
<g id="edge7_Node000001_Node000005" class="edge">
<title>Node1&#45;&gt;Node5</title>
<g id="a_edge7_Node000001_Node000005"><a xlink:title=" ">
<path fill="none" stroke="#63b8ff" d="M128.26,-43.56C142.49,-40.19 157.7,-37.05 172,-35 286.81,-18.57 421.31,-15.34 504.34,-15.17"/>
<polygon fill="#63b8ff" stroke="#63b8ff" points="504.2,-18.67 514.2,-15.17 504.2,-11.67 504.2,-18.67"/>
</a>
</g>
</g>
<!-- Node4 -->
<g id="Node000004" class="node">
<title>Node4</title>
<g id="a_Node000004"><a xlink:href="class_database_check_repository.html#a241ccbc35380a23dedb1f9a942a52a1b" target="_top" xlink:title=" ">
<polygon fill="white" stroke="#666666" points="480,-76 344,-76 344,-44 480,-44 480,-76"/>
<text text-anchor="start" x="352" y="-62.5" font-family="Helvetica,sans-Serif" font-size="10.00">DatabaseCheckRepository.</text>
<text text-anchor="middle" x="412" y="-50.5" font-family="Helvetica,sans-Serif" font-size="10.00">DeleteUser</text>
</a>
</g>
</g>
<!-- Node3&#45;&gt;Node4 -->
<g id="edge3_Node000003_Node000004" class="edge">
<title>Node3&#45;&gt;Node4</title>
<g id="a_edge3_Node000003_Node000004"><a xlink:title=" ">
<path fill="none" stroke="#63b8ff" d="M308.19,-60C316.14,-60 324.3,-60 332.39,-60"/>
<polygon fill="#63b8ff" stroke="#63b8ff" points="332.23,-63.5 342.23,-60 332.23,-56.5 332.23,-63.5"/>
</a>
</g>
</g>
<!-- Node4&#45;&gt;Node5 -->
<g id="edge4_Node000004_Node000005" class="edge">
<title>Node4&#45;&gt;Node5</title>
<g id="a_edge4_Node000004_Node000005"><a xlink:title=" ">
<path fill="none" stroke="#63b8ff" d="M476.3,-43.62C486.74,-40.91 497.65,-38.09 508.33,-35.33"/>
<polygon fill="#63b8ff" stroke="#63b8ff" points="509.09,-38.74 517.9,-32.85 507.34,-31.97 509.09,-38.74"/>
</a>
</g>
</g>
<!-- Node6 -->
<g id="Node000006" class="node">
<title>Node6</title>
<g id="a_Node000006"><a xlink:href="class_database_check_repository.html#ad56412a3b3449cdcb20706b41c648f3e" target="_top" xlink:title=" ">
<polygon fill="white" stroke="#666666" points="652,-82 516,-82 516,-50 652,-50 652,-82"/>
<text text-anchor="start" x="524" y="-68.5" font-family="Helvetica,sans-Serif" font-size="10.00">DatabaseCheckRepository.</text>
<text text-anchor="middle" x="584" y="-56.5" font-family="Helvetica,sans-Serif" font-size="10.00">UserHasActiveContract</text>
</a>
</g>
</g>
<!-- Node4&#45;&gt;Node6 -->
<g id="edge5_Node000004_Node000006" class="edge">
<title>Node4&#45;&gt;Node6</title>
<g id="a_edge5_Node000004_Node000006"><a xlink:title=" ">
<path fill="none" stroke="#63b8ff" d="M480.19,-62.37C488.14,-62.65 496.3,-62.94 504.39,-63.23"/>
<polygon fill="#63b8ff" stroke="#63b8ff" points="504.11,-66.72 514.23,-63.57 504.36,-59.72 504.11,-66.72"/>
</a>
</g>
</g>
<!-- Node7 -->
<g id="Node000007" class="node">
<title>Node7</title>
<g id="a_Node000007"><a xlink:href="class_database_check_repository.html#a181b1a163bd4151f68bc551091c3ee22" target="_top" xlink:title=" ">
<polygon fill="white" stroke="#666666" points="824,-82 688,-82 688,-50 824,-50 824,-82"/>
<text text-anchor="start" x="696" y="-68.5" font-family="Helvetica,sans-Serif" font-size="10.00">DatabaseCheckRepository.</text>
<text text-anchor="middle" x="756" y="-56.5" font-family="Helvetica,sans-Serif" font-size="10.00">DeleteFutereContracts</text>
</a>
</g>
</g>
<!-- Node6&#45;&gt;Node7 -->
<g id="edge6_Node000006_Node000007" class="edge">
<title>Node6&#45;&gt;Node7</title>
<g id="a_edge6_Node000006_Node000007"><a xlink:title=" ">
<path fill="none" stroke="#63b8ff" d="M652.19,-66C660.14,-66 668.3,-66 676.39,-66"/>
<polygon fill="#63b8ff" stroke="#63b8ff" points="676.23,-69.5 686.23,-66 676.23,-62.5 676.23,-69.5"/>
</a>
</g>
</g>
</g>
</svg>
