<?xml version="1.0" encoding="UTF-8" standalone="no"?>
<!DOCTYPE svg PUBLIC "-//W3C//DTD SVG 1.1//EN"
 "http://www.w3.org/Graphics/SVG/1.1/DTD/svg11.dtd">
<!-- Generated by graphviz version 12.2.1 (20241206.2353)
 -->
<!-- Title: WPR.Controllers.Customer.ChangeUserSettings.ChangeUserRequest Pages: 1 -->
<svg width="201pt" height="168pt"
 viewBox="0.00 0.00 201.25 168.00" xmlns="http://www.w3.org/2000/svg" xmlns:xlink="http://www.w3.org/1999/xlink">
<g id="graph0" class="graph" transform="scale(1 1) rotate(0) translate(4 164)">
<title>WPR.Controllers.Customer.ChangeUserSettings.ChangeUserRequest</title>
<!-- Node1 -->
<g id="Node000001" class="node">
<title>Node1</title>
<g id="a_Node000001"><a xlink:title="Body voor het wijzigen van gebruikergegevens.">
<polygon fill="#999999" stroke="none" points="193.25,-160 0,-160 0,0 193.25,0 193.25,-160"/>
<text text-anchor="start" x="4" y="-146.5" font-family="Helvetica,sans-Serif" font-size="10.00">WPR.Controllers.Customer.</text>
<text text-anchor="start" x="4" y="-134.5" font-family="Helvetica,sans-Serif" font-size="10.00">ChangeUserSettings.ChangeUserRequest</text>
<text text-anchor="start" x="36.38" y="-118.5" font-family="Helvetica,sans-Serif" font-size="10.00">+</text>
<text text-anchor="start" x="78.75" y="-118.5" font-family="Helvetica,sans-Serif" font-size="10.00">Id</text>
<text text-anchor="start" x="36.38" y="-102.5" font-family="Helvetica,sans-Serif" font-size="10.00">+</text>
<text text-anchor="start" x="78.75" y="-102.5" font-family="Helvetica,sans-Serif" font-size="10.00">Email</text>
<text text-anchor="start" x="36.38" y="-86.5" font-family="Helvetica,sans-Serif" font-size="10.00">+</text>
<text text-anchor="start" x="78.75" y="-86.5" font-family="Helvetica,sans-Serif" font-size="10.00">Password</text>
<text text-anchor="start" x="36.38" y="-70.5" font-family="Helvetica,sans-Serif" font-size="10.00">+</text>
<text text-anchor="start" x="78.75" y="-70.5" font-family="Helvetica,sans-Serif" font-size="10.00">FirstName</text>
<text text-anchor="start" x="36.38" y="-54.5" font-family="Helvetica,sans-Serif" font-size="10.00">+</text>
<text text-anchor="start" x="78.75" y="-54.5" font-family="Helvetica,sans-Serif" font-size="10.00">LastName</text>
<text text-anchor="start" x="36.38" y="-38.5" font-family="Helvetica,sans-Serif" font-size="10.00">+</text>
<text text-anchor="start" x="78.75" y="-38.5" font-family="Helvetica,sans-Serif" font-size="10.00">TelNum</text>
<text text-anchor="start" x="36.38" y="-22.5" font-family="Helvetica,sans-Serif" font-size="10.00">+</text>
<text text-anchor="start" x="78.75" y="-22.5" font-family="Helvetica,sans-Serif" font-size="10.00">Adres</text>
<text text-anchor="start" x="95.12" y="-6.5" font-family="Helvetica,sans-Serif" font-size="10.00"> </text>
<polygon fill="#666666" stroke="#666666" points="0,-130 0,-130 193.25,-130 193.25,-130 0,-130"/>
<polygon fill="#666666" stroke="#666666" points="0,-18 0,-18 76.75,-18 76.75,-18 0,-18"/>
<polygon fill="#666666" stroke="#666666" points="76.75,-18 76.75,-18 193.25,-18 193.25,-18 76.75,-18"/>
<polygon fill="none" stroke="#666666" points="0,0 0,-160 193.25,-160 193.25,0 0,0"/>
</a>
</g>
</g>
</g>
</svg>
