<?xml version="1.0" encoding="UTF-8" standalone="no"?>
<!DOCTYPE svg PUBLIC "-//W3C//DTD SVG 1.1//EN"
 "http://www.w3.org/Graphics/SVG/1.1/DTD/svg11.dtd">
<!-- Generated by graphviz version 12.2.1 (20241206.2353)
 -->
<!-- Title: DatabaseCheckRepository Pages: 1 -->
<svg width="150pt" height="356pt"
 viewBox="0.00 0.00 149.75 356.00" xmlns="http://www.w3.org/2000/svg" xmlns:xlink="http://www.w3.org/1999/xlink">

<svg id="main" version="1.1" xmlns="http://www.w3.org/2000/svg" xmlns:xlink="http://www.w3.org/1999/xlink" xml:space="preserve">

<style type="text/css"><![CDATA[
.node, .edge {opacity: 0.7;}
.node.selected, .edge.selected {opacity: 1;}
.edge:hover path { stroke: red; }
.edge:hover polygon { stroke: red; fill: red; }
]]></style>
<script type="application/ecmascript" xlink:href="svg.min.js"/>
<svg id="graph" class="graph">
<g id="graph0" class="graph" transform="scale(1 1) rotate(0) translate(4 352)">
<title>DatabaseCheckRepository</title>
<!-- Node1 -->
<g id="Node000001" class="node">
<title>Node1</title>
<g id="a_Node000001"><a xlink:title="Behandelt verschillende databasebewerkingen zoals het verwijderen van gebruikers, contracten en bedri...">
<polygon fill="#999999" stroke="none" points="141.75,-228 0,-228 0,0 141.75,0 141.75,-228"/>
<text text-anchor="start" x="12" y="-214.5" font-family="Helvetica,sans-Serif" font-size="10.00">DatabaseCheckRepository</text>
<text text-anchor="start" x="5.5" y="-198.5" font-family="Helvetica,sans-Serif" font-size="10.00">&#45;</text>
<text text-anchor="start" x="14" y="-198.5" font-family="Helvetica,sans-Serif" font-size="10.00">_connector</text>
<text text-anchor="start" x="5.5" y="-182.5" font-family="Helvetica,sans-Serif" font-size="10.00">&#45;</text>
<text text-anchor="start" x="14" y="-182.5" font-family="Helvetica,sans-Serif" font-size="10.00">StatusCode</text>
<text text-anchor="start" x="5.5" y="-166.5" font-family="Helvetica,sans-Serif" font-size="10.00">&#45;</text>
<text text-anchor="start" x="14" y="-166.5" font-family="Helvetica,sans-Serif" font-size="10.00">Message</text>
<text text-anchor="start" x="4" y="-150.5" font-family="Helvetica,sans-Serif" font-size="10.00">+</text>
<text text-anchor="start" x="14" y="-150.5" font-family="Helvetica,sans-Serif" font-size="10.00">DatabaseCheckRepository()</text>
<text text-anchor="start" x="4" y="-134.5" font-family="Helvetica,sans-Serif" font-size="10.00">+</text>
<text text-anchor="start" x="14" y="-134.5" font-family="Helvetica,sans-Serif" font-size="10.00">DeleteUser()</text>
<text text-anchor="start" x="4" y="-118.5" font-family="Helvetica,sans-Serif" font-size="10.00">+</text>
<text text-anchor="start" x="14" y="-118.5" font-family="Helvetica,sans-Serif" font-size="10.00">DeleteBusiness()</text>
<text text-anchor="start" x="4" y="-102.5" font-family="Helvetica,sans-Serif" font-size="10.00">+</text>
<text text-anchor="start" x="14" y="-102.5" font-family="Helvetica,sans-Serif" font-size="10.00">DeleteVehicleManager()</text>
<text text-anchor="start" x="5.5" y="-86.5" font-family="Helvetica,sans-Serif" font-size="10.00">&#45;</text>
<text text-anchor="start" x="14" y="-86.5" font-family="Helvetica,sans-Serif" font-size="10.00">HandleDelete()</text>
<text text-anchor="start" x="5.5" y="-70.5" font-family="Helvetica,sans-Serif" font-size="10.00">&#45;</text>
<text text-anchor="start" x="14" y="-70.5" font-family="Helvetica,sans-Serif" font-size="10.00">DeleteFutereContracts()</text>
<text text-anchor="start" x="5.5" y="-54.5" font-family="Helvetica,sans-Serif" font-size="10.00">&#45;</text>
<text text-anchor="start" x="14" y="-54.5" font-family="Helvetica,sans-Serif" font-size="10.00">UserHasActiveContract()</text>
<text text-anchor="start" x="5.5" y="-38.5" font-family="Helvetica,sans-Serif" font-size="10.00">&#45;</text>
<text text-anchor="start" x="14" y="-38.5" font-family="Helvetica,sans-Serif" font-size="10.00">DeleteEmployees()</text>
<text text-anchor="start" x="5.5" y="-22.5" font-family="Helvetica,sans-Serif" font-size="10.00">&#45;</text>
<text text-anchor="start" x="14" y="-22.5" font-family="Helvetica,sans-Serif" font-size="10.00">DeleteBusinessAllowed()</text>
<text text-anchor="start" x="5.5" y="-6.5" font-family="Helvetica,sans-Serif" font-size="10.00">&#45;</text>
<text text-anchor="start" x="14" y="-6.5" font-family="Helvetica,sans-Serif" font-size="10.00">MinimumVehicleManagers()</text>
<polygon fill="#666666" stroke="#666666" points="0,-210 0,-210 141.75,-210 141.75,-210 0,-210"/>
<polygon fill="#666666" stroke="#666666" points="0,-162 0,-162 12,-162 12,-162 0,-162"/>
<polygon fill="#666666" stroke="#666666" points="12,-162 12,-162 141.75,-162 141.75,-162 12,-162"/>
<polygon fill="none" stroke="#666666" points="0,0 0,-228 141.75,-228 141.75,0 0,0"/>
</a>
</g>
</g>
<!-- Node2 -->
<g id="Node000002" class="node">
<title>Node2</title>
<g id="a_Node000002"><a xlink:href="interface_w_p_r_1_1_repository_1_1_database_check_repository_1_1_i_database_check_repository.html" target="_top" xlink:title=" ">
<polygon fill="white" stroke="none" points="135.25,-348 6.5,-348 6.5,-264 135.25,-264 135.25,-348"/>
<text text-anchor="start" x="10.5" y="-334.5" font-family="Helvetica,sans-Serif" font-size="10.00">IDatabaseCheckRepository</text>
<text text-anchor="start" x="12.31" y="-318.5" font-family="Helvetica,sans-Serif" font-size="10.00">+</text>
<text text-anchor="start" x="24.12" y="-318.5" font-family="Helvetica,sans-Serif" font-size="10.00">StatusCode</text>
<text text-anchor="start" x="12.31" y="-302.5" font-family="Helvetica,sans-Serif" font-size="10.00">+</text>
<text text-anchor="start" x="24.12" y="-302.5" font-family="Helvetica,sans-Serif" font-size="10.00">DeleteUser()</text>
<text text-anchor="start" x="12.31" y="-286.5" font-family="Helvetica,sans-Serif" font-size="10.00">+</text>
<text text-anchor="start" x="24.12" y="-286.5" font-family="Helvetica,sans-Serif" font-size="10.00">DeleteBusiness()</text>
<text text-anchor="start" x="12.31" y="-270.5" font-family="Helvetica,sans-Serif" font-size="10.00">+</text>
<text text-anchor="start" x="24.12" y="-270.5" font-family="Helvetica,sans-Serif" font-size="10.00">DeleteVehicleManager()</text>
<polygon fill="#666666" stroke="#666666" points="6.5,-330 6.5,-330 135.25,-330 135.25,-330 6.5,-330"/>
<polygon fill="#666666" stroke="#666666" points="6.5,-314 6.5,-314 22.12,-314 22.12,-314 6.5,-314"/>
<polygon fill="#666666" stroke="#666666" points="22.12,-314 22.12,-314 135.25,-314 135.25,-314 22.12,-314"/>
<polygon fill="none" stroke="#666666" points="6.5,-264 6.5,-348 135.25,-348 135.25,-264 6.5,-264"/>
</a>
</g>
</g>
<!-- Node2&#45;&gt;Node1 -->
<g id="edge1_Node000001_Node000002" class="edge">
<title>Node2&#45;&gt;Node1</title>
<g id="a_edge1_Node000001_Node000002"><a xlink:title=" ">
<path fill="none" stroke="#63b8ff" d="M70.88,-252.96C70.88,-244.99 70.88,-236.51 70.88,-227.82"/>
<polygon fill="none" stroke="#63b8ff" points="67.38,-252.73 70.88,-262.73 74.38,-252.73 67.38,-252.73"/>
</a>
</g>
</g>
</g>
</svg>
</svg>

<style type='text/css'>
<![CDATA[
[data-mouse-over-selected='false'] { opacity: 0.7; }
[data-mouse-over-selected='true']  { opacity: 1.0; }
]]>
</style>
<script type="application/ecmascript"><![CDATA[
document.addEventListener('DOMContentLoaded', (event) => {
  highlightEdges();
  highlightAdjacentNodes();
});
]]></script>
</svg>
