<?xml version="1.0" encoding="UTF-8" standalone="no"?>
<!DOCTYPE svg PUBLIC "-//W3C//DTD SVG 1.1//EN"
 "http://www.w3.org/Graphics/SVG/1.1/DTD/svg11.dtd">
<!-- Generated by graphviz version 12.2.1 (20241206.2353)
 -->
<!-- Title: WPR.Email.Reminders Pages: 1 -->
<svg width="246pt" height="272pt"
 viewBox="0.00 0.00 246.38 272.00" xmlns="http://www.w3.org/2000/svg" xmlns:xlink="http://www.w3.org/1999/xlink">

<svg id="main" version="1.1" xmlns="http://www.w3.org/2000/svg" xmlns:xlink="http://www.w3.org/1999/xlink" xml:space="preserve">

<style type="text/css"><![CDATA[
.node, .edge {opacity: 0.7;}
.node.selected, .edge.selected {opacity: 1;}
.edge:hover path { stroke: red; }
.edge:hover polygon { stroke: red; fill: red; }
]]></style>
<script type="application/ecmascript" xlink:href="svg.min.js"/>
<svg id="graph" class="graph">
<g id="graph0" class="graph" transform="scale(1 1) rotate(0) translate(4 268)">
<title>WPR.Email.Reminders</title>
<!-- Node1 -->
<g id="Node000001" class="node">
<title>Node1</title>
<g id="a_Node000001"><a xlink:title="De klasse Reminders draaid op de achtergrond om elke 24 uur herrinering mails van contracten te sture...">
<polygon fill="#999999" stroke="none" points="180.5,-164 40.25,-164 40.25,0 180.5,0 180.5,-164"/>
<text text-anchor="start" x="59.38" y="-150.5" font-family="Helvetica,sans-Serif" font-size="10.00">WPR.Email.Reminders</text>
<text text-anchor="start" x="45.75" y="-134.5" font-family="Helvetica,sans-Serif" font-size="10.00">&#45;</text>
<text text-anchor="start" x="54.25" y="-134.5" font-family="Helvetica,sans-Serif" font-size="10.00">_serviceProvider</text>
<text text-anchor="start" x="44.25" y="-118.5" font-family="Helvetica,sans-Serif" font-size="10.00">+</text>
<text text-anchor="start" x="54.25" y="-118.5" font-family="Helvetica,sans-Serif" font-size="10.00">Reminders()</text>
<text text-anchor="start" x="44.25" y="-102.5" font-family="Helvetica,sans-Serif" font-size="10.00">+</text>
<text text-anchor="start" x="54.25" y="-102.5" font-family="Helvetica,sans-Serif" font-size="10.00">ReminderContract24Hours()</text>
<text text-anchor="start" x="44.62" y="-86.5" font-family="Helvetica,sans-Serif" font-size="10.00">#</text>
<text text-anchor="start" x="54.25" y="-86.5" font-family="Helvetica,sans-Serif" font-size="10.00">ExecuteAsync()</text>
<text text-anchor="start" x="45.75" y="-70.5" font-family="Helvetica,sans-Serif" font-size="10.00">&#45;</text>
<text text-anchor="start" x="54.25" y="-70.5" font-family="Helvetica,sans-Serif" font-size="10.00">CreateReminderContract()</text>
<text text-anchor="start" x="45.75" y="-54.5" font-family="Helvetica,sans-Serif" font-size="10.00">&#45;</text>
<text text-anchor="start" x="54.25" y="-54.5" font-family="Helvetica,sans-Serif" font-size="10.00">GetCustomerInfo()</text>
<text text-anchor="start" x="45.75" y="-38.5" font-family="Helvetica,sans-Serif" font-size="10.00">&#45;</text>
<text text-anchor="start" x="54.25" y="-38.5" font-family="Helvetica,sans-Serif" font-size="10.00">GetContractInfo()</text>
<text text-anchor="start" x="45.75" y="-22.5" font-family="Helvetica,sans-Serif" font-size="10.00">&#45;</text>
<text text-anchor="start" x="54.25" y="-22.5" font-family="Helvetica,sans-Serif" font-size="10.00">GetVehicleInfo()</text>
<text text-anchor="start" x="45.75" y="-6.5" font-family="Helvetica,sans-Serif" font-size="10.00">&#45;</text>
<text text-anchor="start" x="54.25" y="-6.5" font-family="Helvetica,sans-Serif" font-size="10.00">SendEmail()</text>
<polygon fill="#666666" stroke="#666666" points="40.25,-146 40.25,-146 180.5,-146 180.5,-146 40.25,-146"/>
<polygon fill="#666666" stroke="#666666" points="40.25,-130 40.25,-130 52.25,-130 52.25,-130 40.25,-130"/>
<polygon fill="#666666" stroke="#666666" points="52.25,-130 52.25,-130 180.5,-130 180.5,-130 52.25,-130"/>
<polygon fill="none" stroke="#666666" points="40.25,0 40.25,-164 180.5,-164 180.5,0 40.25,0"/>
</a>
</g>
</g>
<!-- Node2 -->
<g id="Node000002" class="node">
<title>Node2</title>
<g id="a_Node000002"><a xlink:title=" ">
<polygon fill="white" stroke="none" points="92.75,-264 0,-264 0,-212 92.75,-212 92.75,-264"/>
<text text-anchor="start" x="4" y="-250.5" font-family="Helvetica,sans-Serif" font-size="10.00">BackgroundService</text>
<text text-anchor="start" x="44.88" y="-234.5" font-family="Helvetica,sans-Serif" font-size="10.00"> </text>
<text text-anchor="start" x="44.88" y="-218.5" font-family="Helvetica,sans-Serif" font-size="10.00"> </text>
<polygon fill="#666666" stroke="#666666" points="0,-246 0,-246 92.75,-246 92.75,-246 0,-246"/>
<polygon fill="#666666" stroke="#666666" points="0,-230 0,-230 92.75,-230 92.75,-230 0,-230"/>
<polygon fill="none" stroke="#666666" points="0,-212 0,-264 92.75,-264 92.75,-212 0,-212"/>
</a>
</g>
</g>
<!-- Node2&#45;&gt;Node1 -->
<g id="edge1_Node000001_Node000002" class="edge">
<title>Node2&#45;&gt;Node1</title>
<g id="a_edge1_Node000001_Node000002"><a xlink:title=" ">
<path fill="none" stroke="#63b8ff" d="M60.96,-201.91C65.7,-190.5 71.17,-177.33 76.71,-164"/>
<polygon fill="none" stroke="#63b8ff" points="57.84,-200.28 57.24,-210.86 64.31,-202.97 57.84,-200.28"/>
</a>
</g>
</g>
<!-- Node3 -->
<g id="Node000003" class="node">
<title>Node3</title>
<g id="a_Node000003"><a xlink:href="interface_w_p_r_1_1_database_1_1_i_connector.html" target="_top" xlink:title="Connector class om verbinding te maken met de database, maakt gebruik van de connectie strings die zi...">
<polygon fill="white" stroke="none" points="238.38,-264 110.38,-264 110.38,-212 238.38,-212 238.38,-264"/>
<text text-anchor="start" x="114.38" y="-250.5" font-family="Helvetica,sans-Serif" font-size="10.00">WPR.Database.IConnector</text>
<text text-anchor="start" x="172.88" y="-234.5" font-family="Helvetica,sans-Serif" font-size="10.00"> </text>
<text text-anchor="start" x="117.5" y="-218.5" font-family="Helvetica,sans-Serif" font-size="10.00">+</text>
<text text-anchor="start" x="130.62" y="-218.5" font-family="Helvetica,sans-Serif" font-size="10.00">CreateDbConnection()</text>
<polygon fill="#666666" stroke="#666666" points="110.38,-246 110.38,-246 238.38,-246 238.38,-246 110.38,-246"/>
<polygon fill="#666666" stroke="#666666" points="110.38,-230 110.38,-230 238.38,-230 238.38,-230 110.38,-230"/>
<polygon fill="none" stroke="#666666" points="110.38,-212 110.38,-264 238.38,-264 238.38,-212 110.38,-212"/>
</a>
</g>
</g>
<!-- Node3&#45;&gt;Node1 -->
<g id="edge2_Node000001_Node000003" class="edge">
<title>Node3&#45;&gt;Node1</title>
<g id="a_edge2_Node000001_Node000003"><a xlink:title=" ">
<path fill="none" stroke="#63b8ff" d="M164.09,-212.26C159.8,-201.93 154.52,-189.24 148.97,-175.87"/>
<polygon fill="none" stroke="#63b8ff" points="148.99,-175.91 142.99,-171.91 144.38,-164.83 150.38,-168.84 148.99,-175.91"/>
</a>
</g>
<text text-anchor="middle" x="182.46" y="-184.5" font-family="Helvetica,sans-Serif" font-size="10.00" fill="grey"> &#45;_connector</text>
</g>
</g>
</svg>
</svg>

<style type='text/css'>
<![CDATA[
[data-mouse-over-selected='false'] { opacity: 0.7; }
[data-mouse-over-selected='true']  { opacity: 1.0; }
]]>
</style>
<script type="application/ecmascript"><![CDATA[
document.addEventListener('DOMContentLoaded', (event) => {
  highlightEdges();
  highlightAdjacentNodes();
});
]]></script>
</svg>
