<?xml version="1.0" encoding="UTF-8" standalone="no"?>
<!DOCTYPE svg PUBLIC "-//W3C//DTD SVG 1.1//EN"
 "http://www.w3.org/Graphics/SVG/1.1/DTD/svg11.dtd">
<!-- Generated by graphviz version 12.2.1 (20241206.2353)
 -->
<!-- Title: WPR.Controllers.Employee.Shared.acceptHireRequest.acceptHireRequestRequest Pages: 1 -->
<svg width="166pt" height="100pt"
 viewBox="0.00 0.00 166.00 100.00" xmlns="http://www.w3.org/2000/svg" xmlns:xlink="http://www.w3.org/1999/xlink">
<g id="graph0" class="graph" transform="scale(1 1) rotate(0) translate(4 96)">
<title>WPR.Controllers.Employee.Shared.acceptHireRequest.acceptHireRequestRequest</title>
<!-- Node1 -->
<g id="Node000001" class="node">
<title>Node1</title>
<g id="a_Node000001"><a xlink:title="Body voor het accepteren / weigeren van een huuraanvraag.">
<polygon fill="#999999" stroke="none" points="158,-92 0,-92 0,0 158,0 158,-92"/>
<text text-anchor="start" x="4" y="-78.5" font-family="Helvetica,sans-Serif" font-size="10.00">WPR.Controllers.Employee.</text>
<text text-anchor="start" x="4" y="-66.5" font-family="Helvetica,sans-Serif" font-size="10.00">Shared.acceptHireRequest.accept</text>
<text text-anchor="start" x="33.25" y="-54.5" font-family="Helvetica,sans-Serif" font-size="10.00">HireRequestRequest</text>
<text text-anchor="start" x="26.25" y="-38.5" font-family="Helvetica,sans-Serif" font-size="10.00">+</text>
<text text-anchor="start" x="58.5" y="-38.5" font-family="Helvetica,sans-Serif" font-size="10.00">VehcileId</text>
<text text-anchor="start" x="26.25" y="-22.5" font-family="Helvetica,sans-Serif" font-size="10.00">+</text>
<text text-anchor="start" x="58.5" y="-22.5" font-family="Helvetica,sans-Serif" font-size="10.00">CustomerId</text>
<text text-anchor="start" x="77.5" y="-6.5" font-family="Helvetica,sans-Serif" font-size="10.00"> </text>
<polygon fill="#666666" stroke="#666666" points="0,-50 0,-50 158,-50 158,-50 0,-50"/>
<polygon fill="#666666" stroke="#666666" points="0,-18 0,-18 56.5,-18 56.5,-18 0,-18"/>
<polygon fill="#666666" stroke="#666666" points="56.5,-18 56.5,-18 158,-18 158,-18 56.5,-18"/>
<polygon fill="none" stroke="#666666" points="0,0 0,-92 158,-92 158,0 0,0"/>
</a>
</g>
</g>
</g>
</svg>
