<?xml version="1.0" encoding="UTF-8" standalone="no"?>
<!DOCTYPE svg PUBLIC "-//W3C//DTD SVG 1.1//EN"
 "http://www.w3.org/Graphics/SVG/1.1/DTD/svg11.dtd">
<!-- Generated by graphviz version 12.2.1 (20241206.2353)
 -->
<!-- Title: WPR.Services.EmailService.SendRentalConfirmMail Pages: 1 -->
<svg width="334pt" height="90pt"
 viewBox="0.00 0.00 334.00 90.00" xmlns="http://www.w3.org/2000/svg" xmlns:xlink="http://www.w3.org/1999/xlink">
<g id="graph0" class="graph" transform="scale(1 1) rotate(0) translate(4 86)">
<title>WPR.Services.EmailService.SendRentalConfirmMail</title>
<!-- Node1 -->
<g id="Node000001" class="node">
<title>Node1</title>
<g id="a_Node000001"><a xlink:title="Verstuurt een huurovereenkomst bevestigingsmail naar de opgegeven ontvanger.">
<polygon fill="#999999" stroke="#666666" points="145,-57 0,-57 0,-25 145,-25 145,-57"/>
<text text-anchor="start" x="8" y="-43.5" font-family="Helvetica,sans-Serif" font-size="10.00">WPR.Services.EmailService.</text>
<text text-anchor="middle" x="72.5" y="-31.5" font-family="Helvetica,sans-Serif" font-size="10.00">SendRentalConfirmMail</text>
</a>
</g>
</g>
<!-- Node2 -->
<g id="Node000002" class="node">
<title>Node2</title>
<g id="a_Node000002"><a xlink:href="class_w_p_r_1_1_services_1_1_email_service.html#ae494002e0de59b64d18083d36162c657" target="_top" xlink:title="Bouwt de HTML&#45;inhoud voor een huurovereenkomst bevestigingsmail.">
<polygon fill="white" stroke="#666666" points="326,-82 181,-82 181,-50 326,-50 326,-82"/>
<text text-anchor="start" x="189" y="-68.5" font-family="Helvetica,sans-Serif" font-size="10.00">WPR.Services.EmailService.</text>
<text text-anchor="middle" x="253.5" y="-56.5" font-family="Helvetica,sans-Serif" font-size="10.00">BuildRentalConfirmationBody</text>
</a>
</g>
</g>
<!-- Node1&#45;&gt;Node2 -->
<g id="edge1_Node000001_Node000002" class="edge">
<title>Node1&#45;&gt;Node2</title>
<g id="a_edge1_Node000001_Node000002"><a xlink:title=" ">
<path fill="none" stroke="#63b8ff" d="M145.27,-51.02C153.21,-52.13 161.33,-53.27 169.39,-54.39"/>
<polygon fill="#63b8ff" stroke="#63b8ff" points="168.82,-57.85 179.21,-55.76 169.79,-50.91 168.82,-57.85"/>
</a>
</g>
</g>
<!-- Node3 -->
<g id="Node000003" class="node">
<title>Node3</title>
<g id="a_Node000003"><a xlink:href="class_w_p_r_1_1_services_1_1_email_service.html#ab31b08101a79b7e7634ccb24fb771d33" target="_top" xlink:title="Creëert en retourneert een SMTP&#45;client met de benodigde instellingen.">
<polygon fill="white" stroke="#666666" points="326,-32 181,-32 181,0 326,0 326,-32"/>
<text text-anchor="start" x="189" y="-18.5" font-family="Helvetica,sans-Serif" font-size="10.00">WPR.Services.EmailService.</text>
<text text-anchor="middle" x="253.5" y="-6.5" font-family="Helvetica,sans-Serif" font-size="10.00">CreateSmtpClient</text>
</a>
</g>
</g>
<!-- Node1&#45;&gt;Node3 -->
<g id="edge2_Node000001_Node000003" class="edge">
<title>Node1&#45;&gt;Node3</title>
<g id="a_edge2_Node000001_Node000003"><a xlink:title=" ">
<path fill="none" stroke="#63b8ff" d="M145.27,-30.98C153.21,-29.87 161.33,-28.73 169.39,-27.61"/>
<polygon fill="#63b8ff" stroke="#63b8ff" points="169.79,-31.09 179.21,-26.24 168.82,-24.15 169.79,-31.09"/>
</a>
</g>
</g>
</g>
</svg>
