<?xml version="1.0" encoding="UTF-8" standalone="no"?>
<!DOCTYPE svg PUBLIC "-//W3C//DTD SVG 1.1//EN"
 "http://www.w3.org/Graphics/SVG/1.1/DTD/svg11.dtd">
<!-- Generated by graphviz version 12.2.1 (20241206.2353)
 -->
<!-- Title: WPR.Repository.DatabaseCheckRepository.DatabaseCheckRepository Pages: 1 -->
<svg width="183pt" height="368pt"
 viewBox="0.00 0.00 183.25 368.00" xmlns="http://www.w3.org/2000/svg" xmlns:xlink="http://www.w3.org/1999/xlink">
<g id="graph0" class="graph" transform="scale(1 1) rotate(0) translate(4 364)">
<title>WPR.Repository.DatabaseCheckRepository.DatabaseCheckRepository</title>
<!-- Node1 -->
<g id="Node000001" class="node">
<title>Node1</title>
<g id="a_Node000001"><a xlink:title=" ">
<polygon fill="#999999" stroke="none" points="175.25,-240 0,-240 0,0 175.25,0 175.25,-240"/>
<text text-anchor="start" x="4" y="-226.5" font-family="Helvetica,sans-Serif" font-size="10.00">WPR.Repository.DatabaseCheck</text>
<text text-anchor="start" x="4" y="-214.5" font-family="Helvetica,sans-Serif" font-size="10.00">Repository.DatabaseCheckRepository</text>
<text text-anchor="start" x="13.88" y="-198.5" font-family="Helvetica,sans-Serif" font-size="10.00">&#45;</text>
<text text-anchor="start" x="30.75" y="-198.5" font-family="Helvetica,sans-Serif" font-size="10.00">_connector</text>
<text text-anchor="start" x="13.88" y="-182.5" font-family="Helvetica,sans-Serif" font-size="10.00">&#45;</text>
<text text-anchor="start" x="30.75" y="-182.5" font-family="Helvetica,sans-Serif" font-size="10.00">StatusCode</text>
<text text-anchor="start" x="13.88" y="-166.5" font-family="Helvetica,sans-Serif" font-size="10.00">&#45;</text>
<text text-anchor="start" x="30.75" y="-166.5" font-family="Helvetica,sans-Serif" font-size="10.00">Message</text>
<text text-anchor="start" x="12.38" y="-150.5" font-family="Helvetica,sans-Serif" font-size="10.00">+</text>
<text text-anchor="start" x="30.75" y="-150.5" font-family="Helvetica,sans-Serif" font-size="10.00">DatabaseCheckRepository()</text>
<text text-anchor="start" x="12.38" y="-134.5" font-family="Helvetica,sans-Serif" font-size="10.00">+</text>
<text text-anchor="start" x="30.75" y="-134.5" font-family="Helvetica,sans-Serif" font-size="10.00">DeleteUser()</text>
<text text-anchor="start" x="12.38" y="-118.5" font-family="Helvetica,sans-Serif" font-size="10.00">+</text>
<text text-anchor="start" x="30.75" y="-118.5" font-family="Helvetica,sans-Serif" font-size="10.00">DeleteBusiness()</text>
<text text-anchor="start" x="12.38" y="-102.5" font-family="Helvetica,sans-Serif" font-size="10.00">+</text>
<text text-anchor="start" x="30.75" y="-102.5" font-family="Helvetica,sans-Serif" font-size="10.00">DeleteVehicleManager()</text>
<text text-anchor="start" x="13.88" y="-86.5" font-family="Helvetica,sans-Serif" font-size="10.00">&#45;</text>
<text text-anchor="start" x="30.75" y="-86.5" font-family="Helvetica,sans-Serif" font-size="10.00">HandleDelete()</text>
<text text-anchor="start" x="13.88" y="-70.5" font-family="Helvetica,sans-Serif" font-size="10.00">&#45;</text>
<text text-anchor="start" x="30.75" y="-70.5" font-family="Helvetica,sans-Serif" font-size="10.00">DeleteFutereContracts()</text>
<text text-anchor="start" x="13.88" y="-54.5" font-family="Helvetica,sans-Serif" font-size="10.00">&#45;</text>
<text text-anchor="start" x="30.75" y="-54.5" font-family="Helvetica,sans-Serif" font-size="10.00">UserHasActiveContract()</text>
<text text-anchor="start" x="13.88" y="-38.5" font-family="Helvetica,sans-Serif" font-size="10.00">&#45;</text>
<text text-anchor="start" x="30.75" y="-38.5" font-family="Helvetica,sans-Serif" font-size="10.00">DeleteEmployees()</text>
<text text-anchor="start" x="13.88" y="-22.5" font-family="Helvetica,sans-Serif" font-size="10.00">&#45;</text>
<text text-anchor="start" x="30.75" y="-22.5" font-family="Helvetica,sans-Serif" font-size="10.00">DeleteBusinessAllowed()</text>
<text text-anchor="start" x="13.88" y="-6.5" font-family="Helvetica,sans-Serif" font-size="10.00">&#45;</text>
<text text-anchor="start" x="30.75" y="-6.5" font-family="Helvetica,sans-Serif" font-size="10.00">MinimumVehicleManagers()</text>
<polygon fill="#666666" stroke="#666666" points="0,-210 0,-210 175.25,-210 175.25,-210 0,-210"/>
<polygon fill="#666666" stroke="#666666" points="0,-162 0,-162 28.75,-162 28.75,-162 0,-162"/>
<polygon fill="#666666" stroke="#666666" points="28.75,-162 28.75,-162 175.25,-162 175.25,-162 28.75,-162"/>
<polygon fill="none" stroke="#666666" points="0,0 0,-240 175.25,-240 175.25,0 0,0"/>
</a>
</g>
</g>
<!-- Node2 -->
<g id="Node000002" class="node">
<title>Node2</title>
<g id="a_Node000002"><a xlink:href="interface_w_p_r_1_1_repository_1_1_database_check_repository_1_1_i_database_check_repository.html" target="_top" xlink:title=" ">
<polygon fill="white" stroke="none" points="152,-360 23.25,-360 23.25,-276 152,-276 152,-360"/>
<text text-anchor="start" x="27.25" y="-346.5" font-family="Helvetica,sans-Serif" font-size="10.00">IDatabaseCheckRepository</text>
<text text-anchor="start" x="29.06" y="-330.5" font-family="Helvetica,sans-Serif" font-size="10.00">+</text>
<text text-anchor="start" x="40.88" y="-330.5" font-family="Helvetica,sans-Serif" font-size="10.00">StatusCode</text>
<text text-anchor="start" x="29.06" y="-314.5" font-family="Helvetica,sans-Serif" font-size="10.00">+</text>
<text text-anchor="start" x="40.88" y="-314.5" font-family="Helvetica,sans-Serif" font-size="10.00">DeleteUser()</text>
<text text-anchor="start" x="29.06" y="-298.5" font-family="Helvetica,sans-Serif" font-size="10.00">+</text>
<text text-anchor="start" x="40.88" y="-298.5" font-family="Helvetica,sans-Serif" font-size="10.00">DeleteBusiness()</text>
<text text-anchor="start" x="29.06" y="-282.5" font-family="Helvetica,sans-Serif" font-size="10.00">+</text>
<text text-anchor="start" x="40.88" y="-282.5" font-family="Helvetica,sans-Serif" font-size="10.00">DeleteVehicleManager()</text>
<polygon fill="#666666" stroke="#666666" points="23.25,-342 23.25,-342 152,-342 152,-342 23.25,-342"/>
<polygon fill="#666666" stroke="#666666" points="23.25,-326 23.25,-326 38.88,-326 38.88,-326 23.25,-326"/>
<polygon fill="#666666" stroke="#666666" points="38.88,-326 38.88,-326 152,-326 152,-326 38.88,-326"/>
<polygon fill="none" stroke="#666666" points="23.25,-276 23.25,-360 152,-360 152,-276 23.25,-276"/>
</a>
</g>
</g>
<!-- Node2&#45;&gt;Node1 -->
<g id="edge1_Node000001_Node000002" class="edge">
<title>Node2&#45;&gt;Node1</title>
<g id="a_edge1_Node000001_Node000002"><a xlink:title=" ">
<path fill="none" stroke="#63b8ff" d="M87.62,-265.13C87.62,-257.16 87.62,-248.66 87.62,-239.94"/>
<polygon fill="none" stroke="#63b8ff" points="84.13,-264.88 87.63,-274.88 91.13,-264.88 84.13,-264.88"/>
</a>
</g>
</g>
</g>
</svg>
