<?xml version="1.0" encoding="UTF-8" standalone="no"?>
<!DOCTYPE svg PUBLIC "-//W3C//DTD SVG 1.1//EN"
 "http://www.w3.org/Graphics/SVG/1.1/DTD/svg11.dtd">
<!-- Generated by graphviz version 12.2.1 (20241206.2353)
 -->
<!-- Title: WPR.Controllers.Customer.AddBusiness.AddBusinessController Pages: 1 -->
<svg width="443pt" height="472pt"
 viewBox="0.00 0.00 442.88 472.00" xmlns="http://www.w3.org/2000/svg" xmlns:xlink="http://www.w3.org/1999/xlink">
<g id="graph0" class="graph" transform="scale(1 1) rotate(0) translate(4 468)">
<title>WPR.Controllers.Customer.AddBusiness.AddBusinessController</title>
<!-- Node1 -->
<g id="Node000001" class="node">
<title>Node1</title>
<g id="a_Node000001"><a xlink:title="Controller voor het verbinden van het aanmaken van bedrijven op basis van het KVK nummer....">
<polygon fill="#999999" stroke="none" points="254.5,-144 86,-144 86,0 254.5,0 254.5,-144"/>
<text text-anchor="start" x="90" y="-130.5" font-family="Helvetica,sans-Serif" font-size="10.00">WPR.Controllers.Customer.</text>
<text text-anchor="start" x="90" y="-118.5" font-family="Helvetica,sans-Serif" font-size="10.00">AddBusiness.AddBusinessController</text>
<text text-anchor="start" x="168.75" y="-102.5" font-family="Helvetica,sans-Serif" font-size="10.00"> </text>
<text text-anchor="start" x="101.19" y="-86.5" font-family="Helvetica,sans-Serif" font-size="10.00">+</text>
<text text-anchor="start" x="122.38" y="-86.5" font-family="Helvetica,sans-Serif" font-size="10.00">AddBusinessController()</text>
<text text-anchor="start" x="101.19" y="-70.5" font-family="Helvetica,sans-Serif" font-size="10.00">+</text>
<text text-anchor="start" x="122.38" y="-70.5" font-family="Helvetica,sans-Serif" font-size="10.00">AddBusiness()</text>
<text text-anchor="start" x="101.19" y="-54.5" font-family="Helvetica,sans-Serif" font-size="10.00">+</text>
<text text-anchor="start" x="122.38" y="-54.5" font-family="Helvetica,sans-Serif" font-size="10.00">GetNewBusinesses()</text>
<text text-anchor="start" x="101.19" y="-38.5" font-family="Helvetica,sans-Serif" font-size="10.00">+</text>
<text text-anchor="start" x="122.38" y="-38.5" font-family="Helvetica,sans-Serif" font-size="10.00">GetNewBusiness()</text>
<text text-anchor="start" x="101.19" y="-22.5" font-family="Helvetica,sans-Serif" font-size="10.00">+</text>
<text text-anchor="start" x="122.38" y="-22.5" font-family="Helvetica,sans-Serif" font-size="10.00">BusinessAccepted()</text>
<text text-anchor="start" x="101.19" y="-6.5" font-family="Helvetica,sans-Serif" font-size="10.00">+</text>
<text text-anchor="start" x="122.38" y="-6.5" font-family="Helvetica,sans-Serif" font-size="10.00">BusinessDenied()</text>
<polygon fill="#666666" stroke="#666666" points="86,-114 86,-114 254.5,-114 254.5,-114 86,-114"/>
<polygon fill="#666666" stroke="#666666" points="86,-98 86,-98 254.5,-98 254.5,-98 86,-98"/>
<polygon fill="none" stroke="#666666" points="86,0 86,-144 254.5,-144 254.5,0 86,0"/>
</a>
</g>
</g>
<!-- Node2 -->
<g id="Node000002" class="node">
<title>Node2</title>
<g id="a_Node000002"><a xlink:title=" ">
<polygon fill="white" stroke="none" points="72.5,-354 0,-354 0,-302 72.5,-302 72.5,-354"/>
<text text-anchor="start" x="4" y="-340.5" font-family="Helvetica,sans-Serif" font-size="10.00">ControllerBase</text>
<text text-anchor="start" x="34.75" y="-324.5" font-family="Helvetica,sans-Serif" font-size="10.00"> </text>
<text text-anchor="start" x="34.75" y="-308.5" font-family="Helvetica,sans-Serif" font-size="10.00"> </text>
<polygon fill="#666666" stroke="#666666" points="0,-336 0,-336 72.5,-336 72.5,-336 0,-336"/>
<polygon fill="#666666" stroke="#666666" points="0,-320 0,-320 72.5,-320 72.5,-320 0,-320"/>
<polygon fill="none" stroke="#666666" points="0,-302 0,-354 72.5,-354 72.5,-302 0,-302"/>
</a>
</g>
</g>
<!-- Node2&#45;&gt;Node1 -->
<g id="edge1_Node000001_Node000002" class="edge">
<title>Node2&#45;&gt;Node1</title>
<g id="a_edge1_Node000001_Node000002"><a xlink:title=" ">
<path fill="none" stroke="#63b8ff" d="M44.79,-291.29C52.26,-263.32 64.54,-223.94 81.25,-192 89.8,-175.66 100.52,-159.16 111.52,-143.87"/>
<polygon fill="none" stroke="#63b8ff" points="41.48,-290.13 42.36,-300.68 48.25,-291.88 41.48,-290.13"/>
</a>
</g>
</g>
<!-- Node3 -->
<g id="Node000003" class="node">
<title>Node3</title>
<g id="a_Node000003"><a xlink:href="interface_w_p_r_1_1_repository_1_1_i_employee_repository.html" target="_top" xlink:title="Interface defining methods voor user gerelateerde database operaties, validatie, user management,...">
<polygon fill="white" stroke="none" points="249.75,-464 90.75,-464 90.75,-192 249.75,-192 249.75,-464"/>
<text text-anchor="start" x="108.75" y="-450.5" font-family="Helvetica,sans-Serif" font-size="10.00">WPR.Repository.IEmployee</text>
<text text-anchor="start" x="146.62" y="-438.5" font-family="Helvetica,sans-Serif" font-size="10.00">Repository</text>
<text text-anchor="start" x="94.75" y="-422.5" font-family="Helvetica,sans-Serif" font-size="10.00">+</text>
<text text-anchor="start" x="104.75" y="-422.5" font-family="Helvetica,sans-Serif" font-size="10.00">StatusCode</text>
<text text-anchor="start" x="94.75" y="-406.5" font-family="Helvetica,sans-Serif" font-size="10.00">+</text>
<text text-anchor="start" x="104.75" y="-406.5" font-family="Helvetica,sans-Serif" font-size="10.00">Message</text>
<text text-anchor="start" x="94.75" y="-390.5" font-family="Helvetica,sans-Serif" font-size="10.00">+</text>
<text text-anchor="start" x="104.75" y="-390.5" font-family="Helvetica,sans-Serif" font-size="10.00">Status</text>
<text text-anchor="start" x="94.75" y="-374.5" font-family="Helvetica,sans-Serif" font-size="10.00">+</text>
<text text-anchor="start" x="104.75" y="-374.5" font-family="Helvetica,sans-Serif" font-size="10.00">Message</text>
<text text-anchor="start" x="94.75" y="-358.5" font-family="Helvetica,sans-Serif" font-size="10.00">+</text>
<text text-anchor="start" x="104.75" y="-358.5" font-family="Helvetica,sans-Serif" font-size="10.00">AddVehicleAsync()</text>
<text text-anchor="start" x="94.75" y="-342.5" font-family="Helvetica,sans-Serif" font-size="10.00">+</text>
<text text-anchor="start" x="104.75" y="-342.5" font-family="Helvetica,sans-Serif" font-size="10.00">AddStaff()</text>
<text text-anchor="start" x="94.75" y="-326.5" font-family="Helvetica,sans-Serif" font-size="10.00">+</text>
<text text-anchor="start" x="104.75" y="-326.5" font-family="Helvetica,sans-Serif" font-size="10.00">checkUsageEmailAsync()</text>
<text text-anchor="start" x="94.75" y="-310.5" font-family="Helvetica,sans-Serif" font-size="10.00">+</text>
<text text-anchor="start" x="104.75" y="-310.5" font-family="Helvetica,sans-Serif" font-size="10.00">GetReviewIdsAsync()</text>
<text text-anchor="start" x="94.75" y="-294.5" font-family="Helvetica,sans-Serif" font-size="10.00">+</text>
<text text-anchor="start" x="104.75" y="-294.5" font-family="Helvetica,sans-Serif" font-size="10.00">GetReviewAsync()</text>
<text text-anchor="start" x="94.75" y="-278.5" font-family="Helvetica,sans-Serif" font-size="10.00">+</text>
<text text-anchor="start" x="104.75" y="-278.5" font-family="Helvetica,sans-Serif" font-size="10.00">SetStatusAsync()</text>
<text text-anchor="start" x="94.75" y="-262.5" font-family="Helvetica,sans-Serif" font-size="10.00">+</text>
<text text-anchor="start" x="104.75" y="-262.5" font-family="Helvetica,sans-Serif" font-size="10.00">AddBusiness()</text>
<text text-anchor="start" x="94.75" y="-246.5" font-family="Helvetica,sans-Serif" font-size="10.00">+</text>
<text text-anchor="start" x="104.75" y="-246.5" font-family="Helvetica,sans-Serif" font-size="10.00">ViewBusinessRequests()</text>
<text text-anchor="start" x="94.75" y="-230.5" font-family="Helvetica,sans-Serif" font-size="10.00">+</text>
<text text-anchor="start" x="104.75" y="-230.5" font-family="Helvetica,sans-Serif" font-size="10.00">ViewBusinessRequestDetailed()</text>
<text text-anchor="start" x="94.75" y="-214.5" font-family="Helvetica,sans-Serif" font-size="10.00">+</text>
<text text-anchor="start" x="104.75" y="-214.5" font-family="Helvetica,sans-Serif" font-size="10.00">BusinessAccepted()</text>
<text text-anchor="start" x="104.75" y="-198.5" font-family="Helvetica,sans-Serif" font-size="10.00">en 7 anderen...</text>
<polygon fill="#666666" stroke="#666666" points="90.75,-434 90.75,-434 249.75,-434 249.75,-434 90.75,-434"/>
<polygon fill="#666666" stroke="#666666" points="90.75,-370 90.75,-370 102.75,-370 102.75,-370 90.75,-370"/>
<polygon fill="#666666" stroke="#666666" points="102.75,-370 102.75,-370 249.75,-370 249.75,-370 102.75,-370"/>
<polygon fill="none" stroke="#666666" points="90.75,-192 90.75,-464 249.75,-464 249.75,-192 90.75,-192"/>
</a>
</g>
</g>
<!-- Node3&#45;&gt;Node1 -->
<g id="edge2_Node000001_Node000003" class="edge">
<title>Node3&#45;&gt;Node1</title>
<g id="a_edge2_Node000001_Node000003"><a xlink:title=" ">
<path fill="none" stroke="#63b8ff" d="M170.25,-192.19C170.25,-180.03 170.25,-167.96 170.25,-156.44"/>
<polygon fill="none" stroke="#63b8ff" points="170.25,-156.58 166.25,-150.58 170.25,-144.58 174.25,-150.58 170.25,-156.58"/>
</a>
</g>
<text text-anchor="middle" x="220.5" y="-164.5" font-family="Helvetica,sans-Serif" font-size="10.00" fill="grey"> &#45;_employeeRepository</text>
</g>
<!-- Node4 -->
<g id="Node000004" class="node">
<title>Node4</title>
<g id="a_Node000004"><a xlink:href="interface_w_p_r_1_1_services_1_1_i_email_service.html" target="_top" xlink:title=" ">
<polygon fill="white" stroke="none" points="434.88,-386 267.62,-386 267.62,-270 434.88,-270 434.88,-386"/>
<text text-anchor="start" x="286.75" y="-372.5" font-family="Helvetica,sans-Serif" font-size="10.00">WPR.Services.IEmailService</text>
<text text-anchor="start" x="349.75" y="-356.5" font-family="Helvetica,sans-Serif" font-size="10.00"> </text>
<text text-anchor="start" x="271.62" y="-340.5" font-family="Helvetica,sans-Serif" font-size="10.00">+</text>
<text text-anchor="start" x="281.62" y="-340.5" font-family="Helvetica,sans-Serif" font-size="10.00">SendBusinessReviewEmail()</text>
<text text-anchor="start" x="271.62" y="-324.5" font-family="Helvetica,sans-Serif" font-size="10.00">+</text>
<text text-anchor="start" x="281.62" y="-324.5" font-family="Helvetica,sans-Serif" font-size="10.00">SendConfirmationEmailBusiness()</text>
<text text-anchor="start" x="271.62" y="-308.5" font-family="Helvetica,sans-Serif" font-size="10.00">+</text>
<text text-anchor="start" x="281.62" y="-308.5" font-family="Helvetica,sans-Serif" font-size="10.00">SendRentalConfirmMail()</text>
<text text-anchor="start" x="271.62" y="-292.5" font-family="Helvetica,sans-Serif" font-size="10.00">+</text>
<text text-anchor="start" x="281.62" y="-292.5" font-family="Helvetica,sans-Serif" font-size="10.00">SendWelcomeEmail()</text>
<text text-anchor="start" x="271.62" y="-276.5" font-family="Helvetica,sans-Serif" font-size="10.00">+</text>
<text text-anchor="start" x="281.62" y="-276.5" font-family="Helvetica,sans-Serif" font-size="10.00">Send()</text>
<polygon fill="#666666" stroke="#666666" points="267.62,-368 267.62,-368 434.88,-368 434.88,-368 267.62,-368"/>
<polygon fill="#666666" stroke="#666666" points="267.62,-352 267.62,-352 434.88,-352 434.88,-352 267.62,-352"/>
<polygon fill="none" stroke="#666666" points="267.62,-270 267.62,-386 434.88,-386 434.88,-270 267.62,-270"/>
</a>
</g>
</g>
<!-- Node4&#45;&gt;Node1 -->
<g id="edge3_Node000001_Node000004" class="edge">
<title>Node4&#45;&gt;Node1</title>
<g id="a_edge3_Node000001_Node000004"><a xlink:title=" ">
<path fill="none" stroke="#63b8ff" d="M332.17,-270.16C319.26,-236.69 300.05,-194.65 275.25,-162 271.56,-157.14 267.56,-152.37 263.35,-147.71"/>
<polygon fill="none" stroke="#63b8ff" points="263.32,-147.68 256.29,-146.08 255.07,-138.97 262.1,-140.57 263.32,-147.68"/>
</a>
</g>
<text text-anchor="middle" x="317.56" y="-164.5" font-family="Helvetica,sans-Serif" font-size="10.00" fill="grey"> &#45;_emailService</text>
</g>
</g>
</svg>
