<?xml version="1.0" encoding="UTF-8" standalone="no"?>
<!DOCTYPE svg PUBLIC "-//W3C//DTD SVG 1.1//EN"
 "http://www.w3.org/Graphics/SVG/1.1/DTD/svg11.dtd">
<!-- Generated by graphviz version 12.2.1 (20241206.2353)
 -->
<!-- Title: WPR.Repository.UserRepository.AddPersonalCustomer Pages: 1 -->
<svg width="396pt" height="408pt"
 viewBox="0.00 0.00 396.25 408.00" xmlns="http://www.w3.org/2000/svg" xmlns:xlink="http://www.w3.org/1999/xlink">

<svg id="main" version="1.1" xmlns="http://www.w3.org/2000/svg" xmlns:xlink="http://www.w3.org/1999/xlink" xml:space="preserve">

<style type="text/css"><![CDATA[
.node, .edge {opacity: 0.7;}
.node.selected, .edge.selected {opacity: 1;}
.edge:hover path { stroke: red; }
.edge:hover polygon { stroke: red; fill: red; }
]]></style>
<script type="application/ecmascript" xlink:href="svg.min.js"/>
<svg id="graph" class="graph">
<g id="graph0" class="graph" transform="scale(1 1) rotate(0) translate(4 404)">
<title>WPR.Repository.UserRepository.AddPersonalCustomer</title>
<!-- Node1 -->
<g id="Node000001" class="node">
<title>Node1</title>
<g id="a_Node000001"><a xlink:title=" ">
<polygon fill="#999999" stroke="#666666" points="163,-225 0,-225 0,-193 163,-193 163,-225"/>
<text text-anchor="start" x="8" y="-211.5" font-family="Helvetica,sans-Serif" font-size="10.00">WPR.Repository.UserRepository.</text>
<text text-anchor="middle" x="81.5" y="-199.5" font-family="Helvetica,sans-Serif" font-size="10.00">AddPersonalCustomer</text>
</a>
</g>
</g>
<!-- Node2 -->
<g id="Node000002" class="node">
<title>Node2</title>
<g id="a_Node000002"><a xlink:href="class_w_p_r_1_1_repository_1_1_user_repository.html#a42ef5421fcb8544d4aab8ed834325a74" target="_top" xlink:title="Een gebruiker (klant) wordt toegevoegd aan de database, doormiddel van alle meegegeven persoondata....">
<polygon fill="white" stroke="#666666" points="383,-400 204.25,-400 204.25,-368 383,-368 383,-400"/>
<text text-anchor="start" x="212.25" y="-386.5" font-family="Helvetica,sans-Serif" font-size="10.00">WPR.Repository.UserRepository.add</text>
<text text-anchor="middle" x="293.62" y="-374.5" font-family="Helvetica,sans-Serif" font-size="10.00">CustomerAsync</text>
</a>
</g>
</g>
<!-- Node1&#45;&gt;Node2 -->
<g id="edge1_Node000001_Node000002" class="edge">
<title>Node1&#45;&gt;Node2</title>
<g id="a_edge1_Node000001_Node000002"><a xlink:title=" ">
<path fill="none" stroke="#63b8ff" d="M90.56,-225.39C106.68,-256.43 145.97,-323.82 199,-359 200.84,-360.22 202.74,-361.38 204.68,-362.49"/>
<polygon fill="#63b8ff" stroke="#63b8ff" points="202.88,-365.5 213.39,-366.87 206.03,-359.25 202.88,-365.5"/>
</a>
</g>
</g>
<!-- Node3 -->
<g id="Node000003" class="node">
<title>Node3</title>
<g id="a_Node000003"><a xlink:href="class_w_p_r_1_1_repository_1_1_user_repository.html#a25a2f860883fcc39ea7fa8a932fde475" target="_top" xlink:title="Het aangemaakte account wordt gekoppeld aan de particuliere tabel, doormiddel van alle meegegeven per...">
<polygon fill="white" stroke="#666666" points="383,-350 204.25,-350 204.25,-318 383,-318 383,-350"/>
<text text-anchor="start" x="212.25" y="-336.5" font-family="Helvetica,sans-Serif" font-size="10.00">WPR.Repository.UserRepository.add</text>
<text text-anchor="middle" x="293.62" y="-324.5" font-family="Helvetica,sans-Serif" font-size="10.00">PersonalCustomerAsync</text>
</a>
</g>
</g>
<!-- Node1&#45;&gt;Node3 -->
<g id="edge2_Node000001_Node000003" class="edge">
<title>Node1&#45;&gt;Node3</title>
<g id="a_edge2_Node000001_Node000003"><a xlink:title=" ">
<path fill="none" stroke="#63b8ff" d="M97.01,-225.41C117.55,-247.62 157.26,-287 199,-309 201.86,-310.51 204.82,-311.93 207.84,-313.27"/>
<polygon fill="#63b8ff" stroke="#63b8ff" points="206.36,-316.45 216.94,-316.96 208.99,-309.96 206.36,-316.45"/>
</a>
</g>
</g>
<!-- Node4 -->
<g id="Node000004" class="node">
<title>Node4</title>
<g id="a_Node000004"><a xlink:href="class_w_p_r_1_1_repository_1_1_user_repository.html#a7903e03bfe7076a6ee7b352636cb854d" target="_top" xlink:title="Er wordt gekeken of het emailadres al bestaat in de databse.">
<polygon fill="white" stroke="#666666" points="388.25,-300 199,-300 199,-268 388.25,-268 388.25,-300"/>
<text text-anchor="start" x="207" y="-286.5" font-family="Helvetica,sans-Serif" font-size="10.00">WPR.Repository.UserRepository.check</text>
<text text-anchor="middle" x="293.62" y="-274.5" font-family="Helvetica,sans-Serif" font-size="10.00">UsageEmailAsync</text>
</a>
</g>
</g>
<!-- Node1&#45;&gt;Node4 -->
<g id="edge3_Node000001_Node000004" class="edge">
<title>Node1&#45;&gt;Node4</title>
<g id="a_edge3_Node000001_Node000004"><a xlink:title=" ">
<path fill="none" stroke="#63b8ff" d="M117.16,-225.44C140.06,-235.91 170.92,-249.28 199,-259 204.33,-260.84 209.87,-262.63 215.47,-264.35"/>
<polygon fill="#63b8ff" stroke="#63b8ff" points="214.25,-267.64 224.83,-267.13 216.24,-260.93 214.25,-267.64"/>
</a>
</g>
</g>
<!-- Node5 -->
<g id="Node000005" class="node">
<title>Node5</title>
<g id="a_Node000005"><a xlink:href="class_w_p_r_1_1_utils_1_1_birthday_checker.html#a4c7d3943364075179b3f1ca2e0f05c46" target="_top" xlink:title="Check om te kijken of het een correcte verjaardag is Leeftijd mag niet onder de 18 zijn en niet boven...">
<polygon fill="white" stroke="#666666" points="364.62,-250 222.62,-250 222.62,-218 364.62,-218 364.62,-250"/>
<text text-anchor="start" x="230.62" y="-236.5" font-family="Helvetica,sans-Serif" font-size="10.00">WPR.Utils.BirthdayChecker.</text>
<text text-anchor="middle" x="293.62" y="-224.5" font-family="Helvetica,sans-Serif" font-size="10.00">IsValidBirthday</text>
</a>
</g>
</g>
<!-- Node1&#45;&gt;Node5 -->
<g id="edge4_Node000001_Node000005" class="edge">
<title>Node1&#45;&gt;Node5</title>
<g id="a_edge4_Node000001_Node000005"><a xlink:title=" ">
<path fill="none" stroke="#63b8ff" d="M163.44,-218.63C179.07,-220.49 195.45,-222.44 211.1,-224.3"/>
<polygon fill="#63b8ff" stroke="#63b8ff" points="210.5,-227.75 220.84,-225.46 211.32,-220.8 210.5,-227.75"/>
</a>
</g>
</g>
<!-- Node6 -->
<g id="Node000006" class="node">
<title>Node6</title>
<g id="a_Node000006"><a xlink:href="class_w_p_r_1_1_utils_1_1_email_checker.html#ab97bf7cde61a138766de208bad9d5c7c" target="_top" xlink:title=" ">
<polygon fill="white" stroke="#666666" points="363.12,-200 224.12,-200 224.12,-168 363.12,-168 363.12,-200"/>
<text text-anchor="start" x="232.12" y="-186.5" font-family="Helvetica,sans-Serif" font-size="10.00">WPR.Utils.EmailChecker.Is</text>
<text text-anchor="middle" x="293.62" y="-174.5" font-family="Helvetica,sans-Serif" font-size="10.00">ValidEmail</text>
</a>
</g>
</g>
<!-- Node1&#45;&gt;Node6 -->
<g id="edge5_Node000001_Node000006" class="edge">
<title>Node1&#45;&gt;Node6</title>
<g id="a_edge5_Node000001_Node000006"><a xlink:title=" ">
<path fill="none" stroke="#63b8ff" d="M163.44,-199.37C179.6,-197.45 196.56,-195.43 212.68,-193.51"/>
<polygon fill="#63b8ff" stroke="#63b8ff" points="212.67,-197.04 222.19,-192.38 211.84,-190.09 212.67,-197.04"/>
</a>
</g>
</g>
<!-- Node7 -->
<g id="Node000007" class="node">
<title>Node7</title>
<g id="a_Node000007"><a xlink:href="class_w_p_r_1_1_utils_1_1_password_checker.html#a3874adc7b516a8fb893ed18cd0a29a94" target="_top" xlink:title=" ">
<polygon fill="white" stroke="#666666" points="368.38,-150 218.88,-150 218.88,-118 368.38,-118 368.38,-150"/>
<text text-anchor="start" x="226.88" y="-136.5" font-family="Helvetica,sans-Serif" font-size="10.00">WPR.Utils.PasswordChecker.</text>
<text text-anchor="middle" x="293.62" y="-124.5" font-family="Helvetica,sans-Serif" font-size="10.00">IsValidPassword</text>
</a>
</g>
</g>
<!-- Node1&#45;&gt;Node7 -->
<g id="edge6_Node000001_Node000007" class="edge">
<title>Node1&#45;&gt;Node7</title>
<g id="a_edge6_Node000001_Node000007"><a xlink:title=" ">
<path fill="none" stroke="#63b8ff" d="M117.16,-192.56C140.06,-182.09 170.92,-168.72 199,-159 204.33,-157.16 209.87,-155.37 215.47,-153.65"/>
<polygon fill="#63b8ff" stroke="#63b8ff" points="216.24,-157.07 224.83,-150.87 214.25,-150.36 216.24,-157.07"/>
</a>
</g>
</g>
<!-- Node8 -->
<g id="Node000008" class="node">
<title>Node8</title>
<g id="a_Node000008"><a xlink:href="class_w_p_r_1_1_utils_1_1_tel_checker.html#aa8036be39d90b4bd0482cc25b9bbfc5a" target="_top" xlink:title=" ">
<polygon fill="white" stroke="#666666" points="367.62,-100 219.62,-100 219.62,-68 367.62,-68 367.62,-100"/>
<text text-anchor="start" x="227.62" y="-86.5" font-family="Helvetica,sans-Serif" font-size="10.00">WPR.Utils.TelChecker.IsValid</text>
<text text-anchor="middle" x="293.62" y="-74.5" font-family="Helvetica,sans-Serif" font-size="10.00">PhoneNumber</text>
</a>
</g>
</g>
<!-- Node1&#45;&gt;Node8 -->
<g id="edge7_Node000001_Node000008" class="edge">
<title>Node1&#45;&gt;Node8</title>
<g id="a_edge7_Node000001_Node000008"><a xlink:title=" ">
<path fill="none" stroke="#63b8ff" d="M97.01,-192.59C117.55,-170.38 157.26,-131 199,-109 202.2,-107.31 205.52,-105.73 208.92,-104.25"/>
<polygon fill="#63b8ff" stroke="#63b8ff" points="209.92,-107.62 217.92,-100.67 207.34,-101.12 209.92,-107.62"/>
</a>
</g>
</g>
<!-- Node9 -->
<g id="Node000009" class="node">
<title>Node9</title>
<g id="a_Node000009"><a xlink:href="namespace_w_p_r_1_1_controllers_1_1_general_1_1_sign_up.html#a1a899a5abbcf0be4ee87632f0500c697" target="_top" xlink:title="Body voor SignUpRequest.">
<polygon fill="white" stroke="#666666" points="358.62,-32 228.62,-32 228.62,0 358.62,0 358.62,-32"/>
<text text-anchor="start" x="236.62" y="-18.5" font-family="Helvetica,sans-Serif" font-size="10.00">WPR.Controllers.General.</text>
<text text-anchor="middle" x="293.62" y="-6.5" font-family="Helvetica,sans-Serif" font-size="10.00">SignUp.SignUpRequest</text>
</a>
</g>
</g>
<!-- Node1&#45;&gt;Node9 -->
<g id="edge8_Node000001_Node000009" class="edge">
<title>Node1&#45;&gt;Node9</title>
<g id="a_edge8_Node000001_Node000009"><a xlink:title=" ">
<path fill="none" stroke="#63b8ff" d="M91.4,-192.94C108.67,-163.04 149.4,-98.34 199,-59 209.73,-50.49 222.42,-43.22 234.93,-37.22"/>
<polygon fill="#63b8ff" stroke="#63b8ff" points="236.32,-40.43 243.97,-33.1 233.42,-34.06 236.32,-40.43"/>
</a>
</g>
</g>
<!-- Node9&#45;&gt;Node9 -->
<g id="edge9_Node000009_Node000009" class="edge">
<title>Node9&#45;&gt;Node9</title>
<g id="a_edge9_Node000009_Node000009"><a xlink:title=" ">
<path fill="none" stroke="#63b8ff" d="M255.75,-32.44C248.69,-41.58 261.31,-50 293.62,-50 311.55,-50 323.42,-47.41 329.22,-43.54"/>
<polygon fill="#63b8ff" stroke="#63b8ff" points="332.62,-44.42 331.19,-33.93 325.76,-43.02 332.62,-44.42"/>
</a>
</g>
</g>
</g>
</svg>
</svg>

<style type='text/css'>
<![CDATA[
[data-mouse-over-selected='false'] { opacity: 0.7; }
[data-mouse-over-selected='true']  { opacity: 1.0; }
]]>
</style>
<script type="application/ecmascript"><![CDATA[
document.addEventListener('DOMContentLoaded', (event) => {
  highlightEdges();
  highlightAdjacentNodes();
});
]]></script>
</svg>
