<?xml version="1.0" encoding="UTF-8" standalone="no"?>
<!DOCTYPE svg PUBLIC "-//W3C//DTD SVG 1.1//EN"
 "http://www.w3.org/Graphics/SVG/1.1/DTD/svg11.dtd">
<!-- Generated by graphviz version 12.2.1 (20241206.2353)
 -->
<!-- Title: WPR.Repository.UserRepository.AddCustomerChecks Pages: 1 -->
<svg width="569pt" height="62pt"
 viewBox="0.00 0.00 569.00 62.00" xmlns="http://www.w3.org/2000/svg" xmlns:xlink="http://www.w3.org/1999/xlink">
<g id="graph0" class="graph" transform="scale(1 1) rotate(0) translate(4 58)">
<title>WPR.Repository.UserRepository.AddCustomerChecks</title>
<!-- Node1 -->
<g id="Node000001" class="node">
<title>Node1</title>
<g id="a_Node000001"><a xlink:title="AddCustomerChecks kijkt of alle ingevoerde velden geldig zijn. Als een check faalt falen alle checks.">
<polygon fill="#999999" stroke="#666666" points="561,-54 398,-54 398,-22 561,-22 561,-54"/>
<text text-anchor="start" x="406" y="-40.5" font-family="Helvetica,sans-Serif" font-size="10.00">WPR.Repository.UserRepository.</text>
<text text-anchor="middle" x="479.5" y="-28.5" font-family="Helvetica,sans-Serif" font-size="10.00">AddCustomerChecks</text>
</a>
</g>
</g>
<!-- Node2 -->
<g id="Node000002" class="node">
<title>Node2</title>
<g id="a_Node000002"><a xlink:href="class_w_p_r_1_1_repository_1_1_user_repository.html#a688723c1fb3385274f13ba0e3ba78da8" target="_top" xlink:title="AddCustomer krijgt SignUpRequestCustomer binnen en SignUpRequestCustomerPrivate. Elk account heeft al...">
<polygon fill="white" stroke="#666666" points="163,-54 0,-54 0,-22 163,-22 163,-54"/>
<text text-anchor="start" x="8" y="-40.5" font-family="Helvetica,sans-Serif" font-size="10.00">WPR.Repository.UserRepository.</text>
<text text-anchor="middle" x="81.5" y="-28.5" font-family="Helvetica,sans-Serif" font-size="10.00">AddCustomer</text>
</a>
</g>
</g>
<!-- Node1&#45;&gt;Node2 -->
<g id="edge1_Node000001_Node000002" class="edge">
<title>Node1&#45;&gt;Node2</title>
<g id="a_edge1_Node000001_Node000002"><a xlink:title=" ">
<path fill="none" stroke="#63b8ff" d="M386.41,-40.59C378.16,-40.76 369.93,-40.9 362,-41 289.56,-41.93 271.44,-41.93 199,-41 187.47,-40.85 175.3,-40.62 163.34,-40.35"/>
<polygon fill="#63b8ff" stroke="#63b8ff" points="386.22,-44.1 396.15,-40.38 386.07,-37.1 386.22,-44.1"/>
</a>
</g>
</g>
<!-- Node3 -->
<g id="Node000003" class="node">
<title>Node3</title>
<g id="a_Node000003"><a xlink:href="class_w_p_r_1_1_repository_1_1_user_repository.html#a4fe2a09bb575fb8d9510828ef5ad9813" target="_top" xlink:title="AddPrivateCustomerDetails zorgt ervoor dat alle extra details van particuliere huurders toegevoegd wo...">
<polygon fill="white" stroke="#666666" points="362,-32 199,-32 199,0 362,0 362,-32"/>
<text text-anchor="start" x="207" y="-18.5" font-family="Helvetica,sans-Serif" font-size="10.00">WPR.Repository.UserRepository.</text>
<text text-anchor="middle" x="280.5" y="-6.5" font-family="Helvetica,sans-Serif" font-size="10.00">AddPrivateCustomerDetails</text>
</a>
</g>
</g>
<!-- Node1&#45;&gt;Node3 -->
<g id="edge2_Node000001_Node000003" class="edge">
<title>Node1&#45;&gt;Node3</title>
<g id="a_edge2_Node000001_Node000003"><a xlink:title=" ">
<path fill="none" stroke="#63b8ff" d="M386.32,-27.71C378.36,-26.82 370.35,-25.92 362.48,-25.04"/>
<polygon fill="#63b8ff" stroke="#63b8ff" points="385.69,-31.16 396.02,-28.79 386.47,-24.2 385.69,-31.16"/>
</a>
</g>
</g>
<!-- Node3&#45;&gt;Node2 -->
<g id="edge3_Node000003_Node000002" class="edge">
<title>Node3&#45;&gt;Node2</title>
<g id="a_edge3_Node000003_Node000002"><a xlink:title=" ">
<path fill="none" stroke="#63b8ff" d="M187.32,-26.29C179.36,-27.18 171.35,-28.08 163.48,-28.96"/>
<polygon fill="#63b8ff" stroke="#63b8ff" points="187.47,-29.8 197.02,-25.21 186.69,-22.84 187.47,-29.8"/>
</a>
</g>
</g>
</g>
</svg>
