<?xml version="1.0" encoding="UTF-8" standalone="no"?>
<!DOCTYPE svg PUBLIC "-//W3C//DTD SVG 1.1//EN"
 "http://www.w3.org/Graphics/SVG/1.1/DTD/svg11.dtd">
<!-- Generated by graphviz version 12.2.1 (20241206.2353)
 -->
<!-- Title: WPR.Repository.DatabaseCheckRepository.IDatabaseCheckRepository Pages: 1 -->
<svg width="186pt" height="380pt"
 viewBox="0.00 0.00 186.25 380.00" xmlns="http://www.w3.org/2000/svg" xmlns:xlink="http://www.w3.org/1999/xlink">

<svg id="main" version="1.1" xmlns="http://www.w3.org/2000/svg" xmlns:xlink="http://www.w3.org/1999/xlink" xml:space="preserve">

<style type="text/css"><![CDATA[
.node, .edge {opacity: 0.7;}
.node.selected, .edge.selected {opacity: 1;}
.edge:hover path { stroke: red; }
.edge:hover polygon { stroke: red; fill: red; }
]]></style>
<script type="application/ecmascript" xlink:href="svg.min.js"/>
<svg id="graph" class="graph">
<g id="graph0" class="graph" transform="scale(1 1) rotate(0) translate(4 376)">
<title>WPR.Repository.DatabaseCheckRepository.IDatabaseCheckRepository</title>
<!-- Node1 -->
<g id="Node000001" class="node">
<title>Node1</title>
<g id="a_Node000001"><a xlink:title=" ">
<polygon fill="#999999" stroke="none" points="178.25,-372 0,-372 0,-276 178.25,-276 178.25,-372"/>
<text text-anchor="start" x="4" y="-358.5" font-family="Helvetica,sans-Serif" font-size="10.00">WPR.Repository.DatabaseCheck</text>
<text text-anchor="start" x="4" y="-346.5" font-family="Helvetica,sans-Serif" font-size="10.00">Repository.IDatabaseCheckRepository</text>
<text text-anchor="start" x="18.19" y="-330.5" font-family="Helvetica,sans-Serif" font-size="10.00">+</text>
<text text-anchor="start" x="42.38" y="-330.5" font-family="Helvetica,sans-Serif" font-size="10.00">StatusCode</text>
<text text-anchor="start" x="18.19" y="-314.5" font-family="Helvetica,sans-Serif" font-size="10.00">+</text>
<text text-anchor="start" x="42.38" y="-314.5" font-family="Helvetica,sans-Serif" font-size="10.00">DeleteUser()</text>
<text text-anchor="start" x="18.19" y="-298.5" font-family="Helvetica,sans-Serif" font-size="10.00">+</text>
<text text-anchor="start" x="42.38" y="-298.5" font-family="Helvetica,sans-Serif" font-size="10.00">DeleteBusiness()</text>
<text text-anchor="start" x="18.19" y="-282.5" font-family="Helvetica,sans-Serif" font-size="10.00">+</text>
<text text-anchor="start" x="42.38" y="-282.5" font-family="Helvetica,sans-Serif" font-size="10.00">DeleteVehicleManager()</text>
<polygon fill="#666666" stroke="#666666" points="0,-342 0,-342 178.25,-342 178.25,-342 0,-342"/>
<polygon fill="#666666" stroke="#666666" points="0,-326 0,-326 40.38,-326 40.38,-326 0,-326"/>
<polygon fill="#666666" stroke="#666666" points="40.38,-326 40.38,-326 178.25,-326 178.25,-326 40.38,-326"/>
<polygon fill="none" stroke="#666666" points="0,-276 0,-372 178.25,-372 178.25,-276 0,-276"/>
</a>
</g>
</g>
<!-- Node2 -->
<g id="Node000002" class="node">
<title>Node2</title>
<g id="a_Node000002"><a xlink:href="class_w_p_r_1_1_repository_1_1_database_check_repository_1_1_database_check_repository.html" target="_top" xlink:title=" ">
<polygon fill="white" stroke="none" points="176.75,-240 1.5,-240 1.5,0 176.75,0 176.75,-240"/>
<text text-anchor="start" x="5.5" y="-226.5" font-family="Helvetica,sans-Serif" font-size="10.00">WPR.Repository.DatabaseCheck</text>
<text text-anchor="start" x="5.5" y="-214.5" font-family="Helvetica,sans-Serif" font-size="10.00">Repository.DatabaseCheckRepository</text>
<text text-anchor="start" x="15.38" y="-198.5" font-family="Helvetica,sans-Serif" font-size="10.00">&#45;</text>
<text text-anchor="start" x="32.25" y="-198.5" font-family="Helvetica,sans-Serif" font-size="10.00">_connector</text>
<text text-anchor="start" x="15.38" y="-182.5" font-family="Helvetica,sans-Serif" font-size="10.00">&#45;</text>
<text text-anchor="start" x="32.25" y="-182.5" font-family="Helvetica,sans-Serif" font-size="10.00">StatusCode</text>
<text text-anchor="start" x="15.38" y="-166.5" font-family="Helvetica,sans-Serif" font-size="10.00">&#45;</text>
<text text-anchor="start" x="32.25" y="-166.5" font-family="Helvetica,sans-Serif" font-size="10.00">Message</text>
<text text-anchor="start" x="13.88" y="-150.5" font-family="Helvetica,sans-Serif" font-size="10.00">+</text>
<text text-anchor="start" x="32.25" y="-150.5" font-family="Helvetica,sans-Serif" font-size="10.00">DatabaseCheckRepository()</text>
<text text-anchor="start" x="13.88" y="-134.5" font-family="Helvetica,sans-Serif" font-size="10.00">+</text>
<text text-anchor="start" x="32.25" y="-134.5" font-family="Helvetica,sans-Serif" font-size="10.00">DeleteUser()</text>
<text text-anchor="start" x="13.88" y="-118.5" font-family="Helvetica,sans-Serif" font-size="10.00">+</text>
<text text-anchor="start" x="32.25" y="-118.5" font-family="Helvetica,sans-Serif" font-size="10.00">DeleteBusiness()</text>
<text text-anchor="start" x="13.88" y="-102.5" font-family="Helvetica,sans-Serif" font-size="10.00">+</text>
<text text-anchor="start" x="32.25" y="-102.5" font-family="Helvetica,sans-Serif" font-size="10.00">DeleteVehicleManager()</text>
<text text-anchor="start" x="15.38" y="-86.5" font-family="Helvetica,sans-Serif" font-size="10.00">&#45;</text>
<text text-anchor="start" x="32.25" y="-86.5" font-family="Helvetica,sans-Serif" font-size="10.00">HandleDelete()</text>
<text text-anchor="start" x="15.38" y="-70.5" font-family="Helvetica,sans-Serif" font-size="10.00">&#45;</text>
<text text-anchor="start" x="32.25" y="-70.5" font-family="Helvetica,sans-Serif" font-size="10.00">DeleteFutereContracts()</text>
<text text-anchor="start" x="15.38" y="-54.5" font-family="Helvetica,sans-Serif" font-size="10.00">&#45;</text>
<text text-anchor="start" x="32.25" y="-54.5" font-family="Helvetica,sans-Serif" font-size="10.00">UserHasActiveContract()</text>
<text text-anchor="start" x="15.38" y="-38.5" font-family="Helvetica,sans-Serif" font-size="10.00">&#45;</text>
<text text-anchor="start" x="32.25" y="-38.5" font-family="Helvetica,sans-Serif" font-size="10.00">DeleteEmployees()</text>
<text text-anchor="start" x="15.38" y="-22.5" font-family="Helvetica,sans-Serif" font-size="10.00">&#45;</text>
<text text-anchor="start" x="32.25" y="-22.5" font-family="Helvetica,sans-Serif" font-size="10.00">DeleteBusinessAllowed()</text>
<text text-anchor="start" x="15.38" y="-6.5" font-family="Helvetica,sans-Serif" font-size="10.00">&#45;</text>
<text text-anchor="start" x="32.25" y="-6.5" font-family="Helvetica,sans-Serif" font-size="10.00">MinimumVehicleManagers()</text>
<polygon fill="#666666" stroke="#666666" points="1.5,-210 1.5,-210 176.75,-210 176.75,-210 1.5,-210"/>
<polygon fill="#666666" stroke="#666666" points="1.5,-162 1.5,-162 30.25,-162 30.25,-162 1.5,-162"/>
<polygon fill="#666666" stroke="#666666" points="30.25,-162 30.25,-162 176.75,-162 176.75,-162 30.25,-162"/>
<polygon fill="none" stroke="#666666" points="1.5,0 1.5,-240 176.75,-240 176.75,0 1.5,0"/>
</a>
</g>
</g>
<!-- Node1&#45;&gt;Node2 -->
<g id="edge1_Node000001_Node000002" class="edge">
<title>Node1&#45;&gt;Node2</title>
<g id="a_edge1_Node000001_Node000002"><a xlink:title=" ">
<path fill="none" stroke="#63b8ff" d="M89.12,-264.76C89.12,-256.75 89.12,-248.3 89.12,-239.67"/>
<polygon fill="none" stroke="#63b8ff" points="85.63,-264.64 89.13,-274.64 92.63,-264.64 85.63,-264.64"/>
</a>
</g>
</g>
</g>
</svg>
</svg>

<style type='text/css'>
<![CDATA[
[data-mouse-over-selected='false'] { opacity: 0.7; }
[data-mouse-over-selected='true']  { opacity: 1.0; }
]]>
</style>
<script type="application/ecmascript"><![CDATA[
document.addEventListener('DOMContentLoaded', (event) => {
  highlightEdges();
  highlightAdjacentNodes();
});
]]></script>
</svg>
