<?xml version="1.0" encoding="UTF-8" standalone="no"?>
<!DOCTYPE svg PUBLIC "-//W3C//DTD SVG 1.1//EN"
 "http://www.w3.org/Graphics/SVG/1.1/DTD/svg11.dtd">
<!-- Generated by graphviz version 12.2.1 (20241206.2353)
 -->
<!-- Title: WPR.Repository.DatabaseCheckRepository.IDatabaseCheckRepository Pages: 1 -->
<svg width="186pt" height="368pt"
 viewBox="0.00 0.00 186.25 368.00" xmlns="http://www.w3.org/2000/svg" xmlns:xlink="http://www.w3.org/1999/xlink">
<g id="graph0" class="graph" transform="scale(1 1) rotate(0) translate(4 364)">
<title>WPR.Repository.DatabaseCheckRepository.IDatabaseCheckRepository</title>
<!-- Node1 -->
<g id="Node000001" class="node">
<title>Node1</title>
<g id="a_Node000001"><a xlink:title=" ">
<polygon fill="#999999" stroke="none" points="178.25,-360 0,-360 0,-264 178.25,-264 178.25,-360"/>
<text text-anchor="start" x="4" y="-346.5" font-family="Helvetica,sans-Serif" font-size="10.00">WPR.Repository.DatabaseCheck</text>
<text text-anchor="start" x="4" y="-334.5" font-family="Helvetica,sans-Serif" font-size="10.00">Repository.IDatabaseCheckRepository</text>
<text text-anchor="start" x="18.19" y="-318.5" font-family="Helvetica,sans-Serif" font-size="10.00">+</text>
<text text-anchor="start" x="42.38" y="-318.5" font-family="Helvetica,sans-Serif" font-size="10.00">StatusCode</text>
<text text-anchor="start" x="18.19" y="-302.5" font-family="Helvetica,sans-Serif" font-size="10.00">+</text>
<text text-anchor="start" x="42.38" y="-302.5" font-family="Helvetica,sans-Serif" font-size="10.00">DeleteUser()</text>
<text text-anchor="start" x="18.19" y="-286.5" font-family="Helvetica,sans-Serif" font-size="10.00">+</text>
<text text-anchor="start" x="42.38" y="-286.5" font-family="Helvetica,sans-Serif" font-size="10.00">DeleteBusiness()</text>
<text text-anchor="start" x="18.19" y="-270.5" font-family="Helvetica,sans-Serif" font-size="10.00">+</text>
<text text-anchor="start" x="42.38" y="-270.5" font-family="Helvetica,sans-Serif" font-size="10.00">DeleteVehicleManager()</text>
<polygon fill="#666666" stroke="#666666" points="0,-330 0,-330 178.25,-330 178.25,-330 0,-330"/>
<polygon fill="#666666" stroke="#666666" points="0,-314 0,-314 40.38,-314 40.38,-314 0,-314"/>
<polygon fill="#666666" stroke="#666666" points="40.38,-314 40.38,-314 178.25,-314 178.25,-314 40.38,-314"/>
<polygon fill="none" stroke="#666666" points="0,-264 0,-360 178.25,-360 178.25,-264 0,-264"/>
</a>
</g>
</g>
<!-- Node2 -->
<g id="Node000002" class="node">
<title>Node2</title>
<g id="a_Node000002"><a xlink:href="class_database_check_repository.html" target="_top" xlink:title="Behandelt verschillende databasebewerkingen zoals het verwijderen van gebruikers, contracten en bedri...">
<polygon fill="white" stroke="none" points="160,-228 18.25,-228 18.25,0 160,0 160,-228"/>
<text text-anchor="start" x="30.25" y="-214.5" font-family="Helvetica,sans-Serif" font-size="10.00">DatabaseCheckRepository</text>
<text text-anchor="start" x="23.75" y="-198.5" font-family="Helvetica,sans-Serif" font-size="10.00">&#45;</text>
<text text-anchor="start" x="32.25" y="-198.5" font-family="Helvetica,sans-Serif" font-size="10.00">_connector</text>
<text text-anchor="start" x="23.75" y="-182.5" font-family="Helvetica,sans-Serif" font-size="10.00">&#45;</text>
<text text-anchor="start" x="32.25" y="-182.5" font-family="Helvetica,sans-Serif" font-size="10.00">StatusCode</text>
<text text-anchor="start" x="23.75" y="-166.5" font-family="Helvetica,sans-Serif" font-size="10.00">&#45;</text>
<text text-anchor="start" x="32.25" y="-166.5" font-family="Helvetica,sans-Serif" font-size="10.00">Message</text>
<text text-anchor="start" x="22.25" y="-150.5" font-family="Helvetica,sans-Serif" font-size="10.00">+</text>
<text text-anchor="start" x="32.25" y="-150.5" font-family="Helvetica,sans-Serif" font-size="10.00">DatabaseCheckRepository()</text>
<text text-anchor="start" x="22.25" y="-134.5" font-family="Helvetica,sans-Serif" font-size="10.00">+</text>
<text text-anchor="start" x="32.25" y="-134.5" font-family="Helvetica,sans-Serif" font-size="10.00">DeleteUser()</text>
<text text-anchor="start" x="22.25" y="-118.5" font-family="Helvetica,sans-Serif" font-size="10.00">+</text>
<text text-anchor="start" x="32.25" y="-118.5" font-family="Helvetica,sans-Serif" font-size="10.00">DeleteBusiness()</text>
<text text-anchor="start" x="22.25" y="-102.5" font-family="Helvetica,sans-Serif" font-size="10.00">+</text>
<text text-anchor="start" x="32.25" y="-102.5" font-family="Helvetica,sans-Serif" font-size="10.00">DeleteVehicleManager()</text>
<text text-anchor="start" x="23.75" y="-86.5" font-family="Helvetica,sans-Serif" font-size="10.00">&#45;</text>
<text text-anchor="start" x="32.25" y="-86.5" font-family="Helvetica,sans-Serif" font-size="10.00">HandleDelete()</text>
<text text-anchor="start" x="23.75" y="-70.5" font-family="Helvetica,sans-Serif" font-size="10.00">&#45;</text>
<text text-anchor="start" x="32.25" y="-70.5" font-family="Helvetica,sans-Serif" font-size="10.00">DeleteFutereContracts()</text>
<text text-anchor="start" x="23.75" y="-54.5" font-family="Helvetica,sans-Serif" font-size="10.00">&#45;</text>
<text text-anchor="start" x="32.25" y="-54.5" font-family="Helvetica,sans-Serif" font-size="10.00">UserHasActiveContract()</text>
<text text-anchor="start" x="23.75" y="-38.5" font-family="Helvetica,sans-Serif" font-size="10.00">&#45;</text>
<text text-anchor="start" x="32.25" y="-38.5" font-family="Helvetica,sans-Serif" font-size="10.00">DeleteEmployees()</text>
<text text-anchor="start" x="23.75" y="-22.5" font-family="Helvetica,sans-Serif" font-size="10.00">&#45;</text>
<text text-anchor="start" x="32.25" y="-22.5" font-family="Helvetica,sans-Serif" font-size="10.00">DeleteBusinessAllowed()</text>
<text text-anchor="start" x="23.75" y="-6.5" font-family="Helvetica,sans-Serif" font-size="10.00">&#45;</text>
<text text-anchor="start" x="32.25" y="-6.5" font-family="Helvetica,sans-Serif" font-size="10.00">MinimumVehicleManagers()</text>
<polygon fill="#666666" stroke="#666666" points="18.25,-210 18.25,-210 160,-210 160,-210 18.25,-210"/>
<polygon fill="#666666" stroke="#666666" points="18.25,-162 18.25,-162 30.25,-162 30.25,-162 18.25,-162"/>
<polygon fill="#666666" stroke="#666666" points="30.25,-162 30.25,-162 160,-162 160,-162 30.25,-162"/>
<polygon fill="none" stroke="#666666" points="18.25,0 18.25,-228 160,-228 160,0 18.25,0"/>
</a>
</g>
</g>
<!-- Node1&#45;&gt;Node2 -->
<g id="edge1_Node000001_Node000002" class="edge">
<title>Node1&#45;&gt;Node2</title>
<g id="a_edge1_Node000001_Node000002"><a xlink:title=" ">
<path fill="none" stroke="#63b8ff" d="M89.12,-252.77C89.12,-244.84 89.12,-236.49 89.12,-227.99"/>
<polygon fill="none" stroke="#63b8ff" points="85.63,-252.54 89.13,-262.54 92.63,-252.54 85.63,-252.54"/>
</a>
</g>
</g>
</g>
</svg>
