<?xml version="1.0" encoding="UTF-8" standalone="no"?>
<!DOCTYPE svg PUBLIC "-//W3C//DTD SVG 1.1//EN"
 "http://www.w3.org/Graphics/SVG/1.1/DTD/svg11.dtd">
<!-- Generated by graphviz version 12.2.1 (20241206.2353)
 -->
<!-- Title: WPR.Email.IVehicleDetails Pages: 1 -->
<svg width="136pt" height="300pt"
 viewBox="0.00 0.00 136.00 300.00" xmlns="http://www.w3.org/2000/svg" xmlns:xlink="http://www.w3.org/1999/xlink">
<g id="graph0" class="graph" transform="scale(1 1) rotate(0) translate(4 296)">
<title>WPR.Email.IVehicleDetails</title>
<!-- Node1 -->
<g id="Node000001" class="node">
<title>Node1</title>
<g id="a_Node000001"><a xlink:title=" ">
<polygon fill="#999999" stroke="none" points="128,-188 0,-188 0,-136 128,-136 128,-188"/>
<text text-anchor="start" x="4" y="-174.5" font-family="Helvetica,sans-Serif" font-size="10.00">WPR.Email.IVehicleDetails</text>
<text text-anchor="start" x="62.5" y="-158.5" font-family="Helvetica,sans-Serif" font-size="10.00"> </text>
<text text-anchor="start" x="62.5" y="-142.5" font-family="Helvetica,sans-Serif" font-size="10.00"> </text>
<polygon fill="#666666" stroke="#666666" points="0,-170 0,-170 128,-170 128,-170 0,-170"/>
<polygon fill="#666666" stroke="#666666" points="0,-154 0,-154 128,-154 128,-154 0,-154"/>
<polygon fill="none" stroke="#666666" points="0,-136 0,-188 128,-188 128,-136 0,-136"/>
</a>
</g>
</g>
<!-- Node3 -->
<g id="Node000003" class="node">
<title>Node3</title>
<g id="a_Node000003"><a xlink:href="class_w_p_r_1_1_email_1_1_vehicle.html" target="_top" xlink:title=" ">
<polygon fill="white" stroke="none" points="114.62,-100 13.38,-100 13.38,0 114.62,0 114.62,-100"/>
<text text-anchor="start" x="20.88" y="-86.5" font-family="Helvetica,sans-Serif" font-size="10.00">WPR.Email.Vehicle</text>
<text text-anchor="start" x="17.38" y="-70.5" font-family="Helvetica,sans-Serif" font-size="10.00">+</text>
<text text-anchor="start" x="27.38" y="-70.5" font-family="Helvetica,sans-Serif" font-size="10.00">_details</text>
<text text-anchor="start" x="18.88" y="-54.5" font-family="Helvetica,sans-Serif" font-size="10.00">&#45;</text>
<text text-anchor="start" x="27.38" y="-54.5" font-family="Helvetica,sans-Serif" font-size="10.00">_vehicleRepository</text>
<text text-anchor="start" x="17.38" y="-38.5" font-family="Helvetica,sans-Serif" font-size="10.00">+</text>
<text text-anchor="start" x="27.38" y="-38.5" font-family="Helvetica,sans-Serif" font-size="10.00">Vehicle()</text>
<text text-anchor="start" x="17.38" y="-22.5" font-family="Helvetica,sans-Serif" font-size="10.00">+</text>
<text text-anchor="start" x="27.38" y="-22.5" font-family="Helvetica,sans-Serif" font-size="10.00">SetDetailsAsync()</text>
<text text-anchor="start" x="17.38" y="-6.5" font-family="Helvetica,sans-Serif" font-size="10.00">+</text>
<text text-anchor="start" x="27.38" y="-6.5" font-family="Helvetica,sans-Serif" font-size="10.00">GetDetailsAsync()</text>
<polygon fill="#666666" stroke="#666666" points="13.38,-82 13.38,-82 114.62,-82 114.62,-82 13.38,-82"/>
<polygon fill="#666666" stroke="#666666" points="13.38,-50 13.38,-50 25.38,-50 25.38,-50 13.38,-50"/>
<polygon fill="#666666" stroke="#666666" points="25.38,-50 25.38,-50 114.62,-50 114.62,-50 25.38,-50"/>
<polygon fill="none" stroke="#666666" points="13.38,0 13.38,-100 114.62,-100 114.62,0 13.38,0"/>
</a>
</g>
</g>
<!-- Node1&#45;&gt;Node3 -->
<g id="edge2_Node000001_Node000003" class="edge">
<title>Node1&#45;&gt;Node3</title>
<g id="a_edge2_Node000001_Node000003"><a xlink:title=" ">
<path fill="none" stroke="#63b8ff" d="M64,-124.53C64,-116.58 64,-108.05 64,-99.72"/>
<polygon fill="none" stroke="#63b8ff" points="60.5,-124.53 64,-134.53 67.5,-124.53 60.5,-124.53"/>
</a>
</g>
</g>
<!-- Node2 -->
<g id="Node000002" class="node">
<title>Node2</title>
<g id="a_Node000002"><a xlink:href="interface_w_p_r_1_1_email_1_1_i_details.html" target="_top" xlink:title=" ">
<polygon fill="white" stroke="none" points="113.12,-292 14.88,-292 14.88,-224 113.12,-224 113.12,-292"/>
<text text-anchor="start" x="47.12" y="-278.5" font-family="Helvetica,sans-Serif" font-size="10.00">IDetails</text>
<text text-anchor="start" x="62.5" y="-262.5" font-family="Helvetica,sans-Serif" font-size="10.00"> </text>
<text text-anchor="start" x="18.88" y="-246.5" font-family="Helvetica,sans-Serif" font-size="10.00">+</text>
<text text-anchor="start" x="28.88" y="-246.5" font-family="Helvetica,sans-Serif" font-size="10.00">SetDetailsAsync()</text>
<text text-anchor="start" x="18.88" y="-230.5" font-family="Helvetica,sans-Serif" font-size="10.00">+</text>
<text text-anchor="start" x="28.88" y="-230.5" font-family="Helvetica,sans-Serif" font-size="10.00">GetDetailsAsync()</text>
<polygon fill="#666666" stroke="#666666" points="14.88,-274 14.88,-274 113.12,-274 113.12,-274 14.88,-274"/>
<polygon fill="#666666" stroke="#666666" points="14.88,-258 14.88,-258 113.12,-258 113.12,-258 14.88,-258"/>
<polygon fill="none" stroke="#666666" points="14.88,-224 14.88,-292 113.12,-292 113.12,-224 14.88,-224"/>
</a>
</g>
</g>
<!-- Node2&#45;&gt;Node1 -->
<g id="edge1_Node000001_Node000002" class="edge">
<title>Node2&#45;&gt;Node1</title>
<g id="a_edge1_Node000001_Node000002"><a xlink:title=" ">
<path fill="none" stroke="#63b8ff" d="M64,-212.62C64,-204.05 64,-195.37 64,-187.71"/>
<polygon fill="none" stroke="#63b8ff" points="60.5,-212.61 64,-222.61 67.5,-212.61 60.5,-212.61"/>
</a>
</g>
</g>
</g>
</svg>
