<?xml version="1.0" encoding="UTF-8" standalone="no"?>
<!DOCTYPE svg PUBLIC "-//W3C//DTD SVG 1.1//EN"
 "http://www.w3.org/Graphics/SVG/1.1/DTD/svg11.dtd">
<!-- Generated by graphviz version 12.2.1 (20241206.2353)
 -->
<!-- Title: WPR.Email.IDetails Pages: 1 -->
<svg width="446pt" height="300pt"
 viewBox="0.00 0.00 446.00 300.00" xmlns="http://www.w3.org/2000/svg" xmlns:xlink="http://www.w3.org/1999/xlink">
<g id="graph0" class="graph" transform="scale(1 1) rotate(0) translate(4 296)">
<title>WPR.Email.IDetails</title>
<!-- Node1 -->
<g id="Node000001" class="node">
<title>Node1</title>
<g id="a_Node000001"><a xlink:title=" ">
<polygon fill="#999999" stroke="none" points="271.12,-292 172.88,-292 172.88,-224 271.12,-224 271.12,-292"/>
<text text-anchor="start" x="177.75" y="-278.5" font-family="Helvetica,sans-Serif" font-size="10.00">WPR.Email.IDetails</text>
<text text-anchor="start" x="220.5" y="-262.5" font-family="Helvetica,sans-Serif" font-size="10.00"> </text>
<text text-anchor="start" x="176.88" y="-246.5" font-family="Helvetica,sans-Serif" font-size="10.00">+</text>
<text text-anchor="start" x="186.88" y="-246.5" font-family="Helvetica,sans-Serif" font-size="10.00">SetDetailsAsync()</text>
<text text-anchor="start" x="176.88" y="-230.5" font-family="Helvetica,sans-Serif" font-size="10.00">+</text>
<text text-anchor="start" x="186.88" y="-230.5" font-family="Helvetica,sans-Serif" font-size="10.00">GetDetailsAsync()</text>
<polygon fill="#666666" stroke="#666666" points="172.88,-274 172.88,-274 271.12,-274 271.12,-274 172.88,-274"/>
<polygon fill="#666666" stroke="#666666" points="172.88,-258 172.88,-258 271.12,-258 271.12,-258 172.88,-258"/>
<polygon fill="none" stroke="#666666" points="172.88,-224 172.88,-292 271.12,-292 271.12,-224 172.88,-224"/>
</a>
</g>
</g>
<!-- Node2 -->
<g id="Node000002" class="node">
<title>Node2</title>
<g id="a_Node000002"><a xlink:href="interface_w_p_r_1_1_email_1_1_i_contract_details.html" target="_top" xlink:title=" ">
<polygon fill="white" stroke="none" points="134,-188 0,-188 0,-136 134,-136 134,-188"/>
<text text-anchor="start" x="4" y="-174.5" font-family="Helvetica,sans-Serif" font-size="10.00">WPR.Email.IContractDetails</text>
<text text-anchor="start" x="65.5" y="-158.5" font-family="Helvetica,sans-Serif" font-size="10.00"> </text>
<text text-anchor="start" x="65.5" y="-142.5" font-family="Helvetica,sans-Serif" font-size="10.00"> </text>
<polygon fill="#666666" stroke="#666666" points="0,-170 0,-170 134,-170 134,-170 0,-170"/>
<polygon fill="#666666" stroke="#666666" points="0,-154 0,-154 134,-154 134,-154 0,-154"/>
<polygon fill="none" stroke="#666666" points="0,-136 0,-188 134,-188 134,-136 0,-136"/>
</a>
</g>
</g>
<!-- Node1&#45;&gt;Node2 -->
<g id="edge1_Node000001_Node000002" class="edge">
<title>Node1&#45;&gt;Node2</title>
<g id="a_edge1_Node000001_Node000002"><a xlink:title=" ">
<path fill="none" stroke="#63b8ff" d="M163.24,-221.36C144.89,-210.24 125.05,-198.21 108.18,-187.97"/>
<polygon fill="none" stroke="#63b8ff" points="161.3,-224.28 171.66,-226.47 164.93,-218.29 161.3,-224.28"/>
</a>
</g>
</g>
<!-- Node4 -->
<g id="Node000004" class="node">
<title>Node4</title>
<g id="a_Node000004"><a xlink:href="interface_w_p_r_1_1_email_1_1_i_customer_details.html" target="_top" xlink:title=" ">
<polygon fill="white" stroke="none" points="291.62,-188 152.38,-188 152.38,-136 291.62,-136 291.62,-188"/>
<text text-anchor="start" x="156.38" y="-174.5" font-family="Helvetica,sans-Serif" font-size="10.00">WPR.Email.ICustomerDetails</text>
<text text-anchor="start" x="220.5" y="-158.5" font-family="Helvetica,sans-Serif" font-size="10.00"> </text>
<text text-anchor="start" x="220.5" y="-142.5" font-family="Helvetica,sans-Serif" font-size="10.00"> </text>
<polygon fill="#666666" stroke="#666666" points="152.38,-170 152.38,-170 291.62,-170 291.62,-170 152.38,-170"/>
<polygon fill="#666666" stroke="#666666" points="152.38,-154 152.38,-154 291.62,-154 291.62,-154 152.38,-154"/>
<polygon fill="none" stroke="#666666" points="152.38,-136 152.38,-188 291.62,-188 291.62,-136 152.38,-136"/>
</a>
</g>
</g>
<!-- Node1&#45;&gt;Node4 -->
<g id="edge3_Node000001_Node000004" class="edge">
<title>Node1&#45;&gt;Node4</title>
<g id="a_edge3_Node000001_Node000004"><a xlink:title=" ">
<path fill="none" stroke="#63b8ff" d="M222,-212.62C222,-204.05 222,-195.37 222,-187.71"/>
<polygon fill="none" stroke="#63b8ff" points="218.5,-212.61 222,-222.61 225.5,-212.61 218.5,-212.61"/>
</a>
</g>
</g>
<!-- Node6 -->
<g id="Node000006" class="node">
<title>Node6</title>
<g id="a_Node000006"><a xlink:href="interface_w_p_r_1_1_email_1_1_i_vehicle_details.html" target="_top" xlink:title=" ">
<polygon fill="white" stroke="none" points="438,-188 310,-188 310,-136 438,-136 438,-188"/>
<text text-anchor="start" x="314" y="-174.5" font-family="Helvetica,sans-Serif" font-size="10.00">WPR.Email.IVehicleDetails</text>
<text text-anchor="start" x="372.5" y="-158.5" font-family="Helvetica,sans-Serif" font-size="10.00"> </text>
<text text-anchor="start" x="372.5" y="-142.5" font-family="Helvetica,sans-Serif" font-size="10.00"> </text>
<polygon fill="#666666" stroke="#666666" points="310,-170 310,-170 438,-170 438,-170 310,-170"/>
<polygon fill="#666666" stroke="#666666" points="310,-154 310,-154 438,-154 438,-154 310,-154"/>
<polygon fill="none" stroke="#666666" points="310,-136 310,-188 438,-188 438,-136 310,-136"/>
</a>
</g>
</g>
<!-- Node1&#45;&gt;Node6 -->
<g id="edge5_Node000001_Node000006" class="edge">
<title>Node1&#45;&gt;Node6</title>
<g id="a_edge5_Node000001_Node000006"><a xlink:title=" ">
<path fill="none" stroke="#63b8ff" d="M280.64,-220.74C298.41,-209.74 317.53,-197.92 333.8,-187.86"/>
<polygon fill="none" stroke="#63b8ff" points="278.88,-217.71 272.22,-225.94 282.56,-223.66 278.88,-217.71"/>
</a>
</g>
</g>
<!-- Node3 -->
<g id="Node000003" class="node">
<title>Node3</title>
<g id="a_Node000003"><a xlink:href="class_w_p_r_1_1_email_1_1_contract.html" target="_top" xlink:title=" ">
<polygon fill="white" stroke="none" points="119.88,-100 14.12,-100 14.12,0 119.88,0 119.88,-100"/>
<text text-anchor="start" x="20.88" y="-86.5" font-family="Helvetica,sans-Serif" font-size="10.00">WPR.Email.Contract</text>
<text text-anchor="start" x="18.12" y="-70.5" font-family="Helvetica,sans-Serif" font-size="10.00">+</text>
<text text-anchor="start" x="28.12" y="-70.5" font-family="Helvetica,sans-Serif" font-size="10.00">_details</text>
<text text-anchor="start" x="19.62" y="-54.5" font-family="Helvetica,sans-Serif" font-size="10.00">&#45;</text>
<text text-anchor="start" x="28.12" y="-54.5" font-family="Helvetica,sans-Serif" font-size="10.00">_contractRepository</text>
<text text-anchor="start" x="18.12" y="-38.5" font-family="Helvetica,sans-Serif" font-size="10.00">+</text>
<text text-anchor="start" x="28.12" y="-38.5" font-family="Helvetica,sans-Serif" font-size="10.00">Contract()</text>
<text text-anchor="start" x="18.12" y="-22.5" font-family="Helvetica,sans-Serif" font-size="10.00">+</text>
<text text-anchor="start" x="28.12" y="-22.5" font-family="Helvetica,sans-Serif" font-size="10.00">SetDetailsAsync()</text>
<text text-anchor="start" x="18.12" y="-6.5" font-family="Helvetica,sans-Serif" font-size="10.00">+</text>
<text text-anchor="start" x="28.12" y="-6.5" font-family="Helvetica,sans-Serif" font-size="10.00">GetDetailsAsync()</text>
<polygon fill="#666666" stroke="#666666" points="14.12,-82 14.12,-82 119.88,-82 119.88,-82 14.12,-82"/>
<polygon fill="#666666" stroke="#666666" points="14.12,-50 14.12,-50 26.12,-50 26.12,-50 14.12,-50"/>
<polygon fill="#666666" stroke="#666666" points="26.12,-50 26.12,-50 119.88,-50 119.88,-50 26.12,-50"/>
<polygon fill="none" stroke="#666666" points="14.12,0 14.12,-100 119.88,-100 119.88,0 14.12,0"/>
</a>
</g>
</g>
<!-- Node2&#45;&gt;Node3 -->
<g id="edge2_Node000002_Node000003" class="edge">
<title>Node2&#45;&gt;Node3</title>
<g id="a_edge2_Node000002_Node000003"><a xlink:title=" ">
<path fill="none" stroke="#63b8ff" d="M67,-124.53C67,-116.58 67,-108.05 67,-99.72"/>
<polygon fill="none" stroke="#63b8ff" points="63.5,-124.53 67,-134.53 70.5,-124.53 63.5,-124.53"/>
</a>
</g>
</g>
<!-- Node5 -->
<g id="Node000005" class="node">
<title>Node5</title>
<g id="a_Node000005"><a xlink:href="class_w_p_r_1_1_email_1_1_customer.html" target="_top" xlink:title=" ">
<polygon fill="white" stroke="none" points="274.75,-100 169.25,-100 169.25,0 274.75,0 274.75,-100"/>
<text text-anchor="start" x="173.25" y="-86.5" font-family="Helvetica,sans-Serif" font-size="10.00">WPR.Email.Customer</text>
<text text-anchor="start" x="175.06" y="-70.5" font-family="Helvetica,sans-Serif" font-size="10.00">+</text>
<text text-anchor="start" x="186.88" y="-70.5" font-family="Helvetica,sans-Serif" font-size="10.00">_details</text>
<text text-anchor="start" x="176.56" y="-54.5" font-family="Helvetica,sans-Serif" font-size="10.00">&#45;</text>
<text text-anchor="start" x="186.88" y="-54.5" font-family="Helvetica,sans-Serif" font-size="10.00">_userRepository</text>
<text text-anchor="start" x="175.06" y="-38.5" font-family="Helvetica,sans-Serif" font-size="10.00">+</text>
<text text-anchor="start" x="186.88" y="-38.5" font-family="Helvetica,sans-Serif" font-size="10.00">Customer()</text>
<text text-anchor="start" x="175.06" y="-22.5" font-family="Helvetica,sans-Serif" font-size="10.00">+</text>
<text text-anchor="start" x="186.88" y="-22.5" font-family="Helvetica,sans-Serif" font-size="10.00">SetDetailsAsync()</text>
<text text-anchor="start" x="175.06" y="-6.5" font-family="Helvetica,sans-Serif" font-size="10.00">+</text>
<text text-anchor="start" x="186.88" y="-6.5" font-family="Helvetica,sans-Serif" font-size="10.00">GetDetailsAsync()</text>
<polygon fill="#666666" stroke="#666666" points="169.25,-82 169.25,-82 274.75,-82 274.75,-82 169.25,-82"/>
<polygon fill="#666666" stroke="#666666" points="169.25,-50 169.25,-50 184.88,-50 184.88,-50 169.25,-50"/>
<polygon fill="#666666" stroke="#666666" points="184.88,-50 184.88,-50 274.75,-50 274.75,-50 184.88,-50"/>
<polygon fill="none" stroke="#666666" points="169.25,0 169.25,-100 274.75,-100 274.75,0 169.25,0"/>
</a>
</g>
</g>
<!-- Node4&#45;&gt;Node5 -->
<g id="edge4_Node000004_Node000005" class="edge">
<title>Node4&#45;&gt;Node5</title>
<g id="a_edge4_Node000004_Node000005"><a xlink:title=" ">
<path fill="none" stroke="#63b8ff" d="M222,-124.53C222,-116.58 222,-108.05 222,-99.72"/>
<polygon fill="none" stroke="#63b8ff" points="218.5,-124.53 222,-134.53 225.5,-124.53 218.5,-124.53"/>
</a>
</g>
</g>
<!-- Node7 -->
<g id="Node000007" class="node">
<title>Node7</title>
<g id="a_Node000007"><a xlink:href="class_w_p_r_1_1_email_1_1_vehicle.html" target="_top" xlink:title=" ">
<polygon fill="white" stroke="none" points="424.62,-100 323.38,-100 323.38,0 424.62,0 424.62,-100"/>
<text text-anchor="start" x="330.88" y="-86.5" font-family="Helvetica,sans-Serif" font-size="10.00">WPR.Email.Vehicle</text>
<text text-anchor="start" x="327.38" y="-70.5" font-family="Helvetica,sans-Serif" font-size="10.00">+</text>
<text text-anchor="start" x="337.38" y="-70.5" font-family="Helvetica,sans-Serif" font-size="10.00">_details</text>
<text text-anchor="start" x="328.88" y="-54.5" font-family="Helvetica,sans-Serif" font-size="10.00">&#45;</text>
<text text-anchor="start" x="337.38" y="-54.5" font-family="Helvetica,sans-Serif" font-size="10.00">_vehicleRepository</text>
<text text-anchor="start" x="327.38" y="-38.5" font-family="Helvetica,sans-Serif" font-size="10.00">+</text>
<text text-anchor="start" x="337.38" y="-38.5" font-family="Helvetica,sans-Serif" font-size="10.00">Vehicle()</text>
<text text-anchor="start" x="327.38" y="-22.5" font-family="Helvetica,sans-Serif" font-size="10.00">+</text>
<text text-anchor="start" x="337.38" y="-22.5" font-family="Helvetica,sans-Serif" font-size="10.00">SetDetailsAsync()</text>
<text text-anchor="start" x="327.38" y="-6.5" font-family="Helvetica,sans-Serif" font-size="10.00">+</text>
<text text-anchor="start" x="337.38" y="-6.5" font-family="Helvetica,sans-Serif" font-size="10.00">GetDetailsAsync()</text>
<polygon fill="#666666" stroke="#666666" points="323.38,-82 323.38,-82 424.62,-82 424.62,-82 323.38,-82"/>
<polygon fill="#666666" stroke="#666666" points="323.38,-50 323.38,-50 335.38,-50 335.38,-50 323.38,-50"/>
<polygon fill="#666666" stroke="#666666" points="335.38,-50 335.38,-50 424.62,-50 424.62,-50 335.38,-50"/>
<polygon fill="none" stroke="#666666" points="323.38,0 323.38,-100 424.62,-100 424.62,0 323.38,0"/>
</a>
</g>
</g>
<!-- Node6&#45;&gt;Node7 -->
<g id="edge6_Node000006_Node000007" class="edge">
<title>Node6&#45;&gt;Node7</title>
<g id="a_edge6_Node000006_Node000007"><a xlink:title=" ">
<path fill="none" stroke="#63b8ff" d="M374,-124.53C374,-116.58 374,-108.05 374,-99.72"/>
<polygon fill="none" stroke="#63b8ff" points="370.5,-124.53 374,-134.53 377.5,-124.53 370.5,-124.53"/>
</a>
</g>
</g>
</g>
</svg>
