<?xml version="1.0" encoding="UTF-8" standalone="no"?>
<!DOCTYPE svg PUBLIC "-//W3C//DTD SVG 1.1//EN"
 "http://www.w3.org/Graphics/SVG/1.1/DTD/svg11.dtd">
<!-- Generated by graphviz version 12.2.1 (20241206.2353)
 -->
<!-- Title: WPR.Email.IDetails.SetDetailsAsync Pages: 1 -->
<svg width="382pt" height="78pt"
 viewBox="0.00 0.00 382.00 78.00" xmlns="http://www.w3.org/2000/svg" xmlns:xlink="http://www.w3.org/1999/xlink">
<g id="graph0" class="graph" transform="scale(1 1) rotate(0) translate(4 74)">
<title>WPR.Email.IDetails.SetDetailsAsync</title>
<!-- Node1 -->
<g id="Node000001" class="node">
<title>Node1</title>
<g id="a_Node000001"><a xlink:title=" ">
<polygon fill="#999999" stroke="#666666" points="374,-54 220.75,-54 220.75,-22 374,-22 374,-54"/>
<text text-anchor="start" x="228.75" y="-40.5" font-family="Helvetica,sans-Serif" font-size="10.00">WPR.Email.IDetails.SetDetails</text>
<text text-anchor="middle" x="297.38" y="-28.5" font-family="Helvetica,sans-Serif" font-size="10.00">Async</text>
</a>
</g>
</g>
<!-- Node2 -->
<g id="Node000002" class="node">
<title>Node2</title>
<g id="a_Node000002"><a xlink:href="class_w_p_r_1_1_email_1_1_reminders.html#a67dff571812b76e4250e73684d8cc454" target="_top" xlink:title=" ">
<polygon fill="white" stroke="#666666" points="184.75,-70 0,-70 0,-50 184.75,-50 184.75,-70"/>
<text text-anchor="middle" x="92.38" y="-56.5" font-family="Helvetica,sans-Serif" font-size="10.00">WPR.Email.Reminders.GetVehicleInfo</text>
</a>
</g>
</g>
<!-- Node1&#45;&gt;Node2 -->
<g id="edge1_Node000001_Node000002" class="edge">
<title>Node1&#45;&gt;Node2</title>
<g id="a_edge1_Node000001_Node000002"><a xlink:title=" ">
<path fill="none" stroke="#63b8ff" d="M209.23,-47.44C201.18,-48.32 193.01,-49.2 184.93,-50.08"/>
<polygon fill="#63b8ff" stroke="#63b8ff" points="209.43,-50.94 218.99,-46.39 208.67,-43.98 209.43,-50.94"/>
</a>
</g>
</g>
<!-- Node3 -->
<g id="Node000003" class="node">
<title>Node3</title>
<g id="a_Node000003"><a xlink:href="class_w_p_r_1_1_email_1_1_reminders.html#aa5b68b714327d1e6ad8adae0698897f6" target="_top" xlink:title=" ">
<polygon fill="white" stroke="#666666" points="164.12,-32 20.62,-32 20.62,0 164.12,0 164.12,-32"/>
<text text-anchor="start" x="28.62" y="-18.5" font-family="Helvetica,sans-Serif" font-size="10.00">WPR.Email.Reminders.Send</text>
<text text-anchor="middle" x="92.38" y="-6.5" font-family="Helvetica,sans-Serif" font-size="10.00">Email</text>
</a>
</g>
</g>
<!-- Node1&#45;&gt;Node3 -->
<g id="edge2_Node000001_Node000003" class="edge">
<title>Node1&#45;&gt;Node3</title>
<g id="a_edge2_Node000001_Node000003"><a xlink:title=" ">
<path fill="none" stroke="#63b8ff" d="M209.18,-28.55C194.26,-26.93 178.91,-25.27 164.46,-23.7"/>
<polygon fill="#63b8ff" stroke="#63b8ff" points="208.67,-32.02 218.99,-29.61 209.43,-25.06 208.67,-32.02"/>
</a>
</g>
</g>
</g>
</svg>
