<?xml version="1.0" encoding="UTF-8" standalone="no"?>
<!DOCTYPE svg PUBLIC "-//W3C//DTD SVG 1.1//EN"
 "http://www.w3.org/Graphics/SVG/1.1/DTD/svg11.dtd">
<!-- Generated by graphviz version 12.2.1 (20241206.2353)
 -->
<!-- Title: WPR.Controllers.General.SignUp.SignUpRequestCustomerPrivate Pages: 1 -->
<svg width="771pt" height="263pt"
 viewBox="0.00 0.00 771.00 263.08" xmlns="http://www.w3.org/2000/svg" xmlns:xlink="http://www.w3.org/1999/xlink">
<g id="graph0" class="graph" transform="scale(1 1) rotate(0) translate(4 259.08)">
<title>WPR.Controllers.General.SignUp.SignUpRequestCustomerPrivate</title>
<!-- Node1 -->
<g id="Node000001" class="node">
<title>Node1</title>
<g id="a_Node000001"><a xlink:title=" ">
<polygon fill="#999999" stroke="#666666" points="763,-151.08 600,-151.08 600,-107.08 763,-107.08 763,-151.08"/>
<text text-anchor="start" x="608" y="-137.58" font-family="Helvetica,sans-Serif" font-size="10.00">WPR.Controllers.General.</text>
<text text-anchor="start" x="608" y="-125.58" font-family="Helvetica,sans-Serif" font-size="10.00">SignUp.SignUpRequestCustomer</text>
<text text-anchor="middle" x="681.5" y="-113.58" font-family="Helvetica,sans-Serif" font-size="10.00">Private</text>
</a>
</g>
</g>
<!-- Node1&#45;&gt;Node1 -->
<g id="edge12_Node000001_Node000001" class="edge">
<title>Node1&#45;&gt;Node1</title>
<g id="a_edge12_Node000001_Node000001"><a xlink:title=" ">
<path fill="none" stroke="#63b8ff" d="M714.71,-161.83C709.08,-166.19 698.01,-169.08 681.5,-169.08 653.7,-169.08 641.31,-160.88 644.36,-151.3"/>
<polygon fill="#63b8ff" stroke="#63b8ff" points="717.9,-163.31 718.12,-152.71 711.34,-160.86 717.9,-163.31"/>
</a>
</g>
</g>
<!-- Node2 -->
<g id="Node000002" class="node">
<title>Node2</title>
<g id="a_Node000002"><a xlink:href="interface_w_p_r_1_1_repository_1_1_i_user_repository.html#a103bbaff883cb3af9e3d4c98a2100d5b" target="_top" xlink:title=" ">
<polygon fill="white" stroke="#666666" points="564,-255.08 398,-255.08 398,-223.08 564,-223.08 564,-255.08"/>
<text text-anchor="start" x="406" y="-241.58" font-family="Helvetica,sans-Serif" font-size="10.00">WPR.Repository.IUserRepository.</text>
<text text-anchor="middle" x="481" y="-229.58" font-family="Helvetica,sans-Serif" font-size="10.00">AddCustomer</text>
</a>
</g>
</g>
<!-- Node1&#45;&gt;Node2 -->
<g id="edge1_Node000001_Node000002" class="edge">
<title>Node1&#45;&gt;Node2</title>
<g id="a_edge1_Node000001_Node000002"><a xlink:title=" ">
<path fill="none" stroke="#63b8ff" d="M643.51,-158.05C621.32,-174.49 592.05,-194.62 564,-209.08 554.3,-214.09 543.57,-218.65 533.16,-222.62"/>
<polygon fill="#63b8ff" stroke="#63b8ff" points="645.45,-160.96 651.35,-152.16 641.25,-155.36 645.45,-160.96"/>
</a>
</g>
</g>
<!-- Node3 -->
<g id="Node000003" class="node">
<title>Node3</title>
<g id="a_Node000003"><a xlink:href="class_w_p_r_1_1_repository_1_1_user_repository.html#a688723c1fb3385274f13ba0e3ba78da8" target="_top" xlink:title="AddCustomer krijgt SignUpRequestCustomer binnen en SignUpRequestCustomerPrivate. Elk account heeft al...">
<polygon fill="white" stroke="#666666" points="163,-170.08 0,-170.08 0,-138.08 163,-138.08 163,-170.08"/>
<text text-anchor="start" x="8" y="-156.58" font-family="Helvetica,sans-Serif" font-size="10.00">WPR.Repository.UserRepository.</text>
<text text-anchor="middle" x="81.5" y="-144.58" font-family="Helvetica,sans-Serif" font-size="10.00">AddCustomer</text>
</a>
</g>
</g>
<!-- Node1&#45;&gt;Node3 -->
<g id="edge2_Node000001_Node000003" class="edge">
<title>Node1&#45;&gt;Node3</title>
<g id="a_edge2_Node000001_Node000003"><a xlink:title=" ">
<path fill="none" stroke="#63b8ff" d="M626.05,-156.07C606.92,-164.19 584.96,-172.02 564,-176.08 425.17,-203.03 259.8,-184.81 163.43,-169.32"/>
<polygon fill="#63b8ff" stroke="#63b8ff" points="627.22,-159.38 634.98,-152.16 624.41,-152.97 627.22,-159.38"/>
</a>
</g>
</g>
<!-- Node4 -->
<g id="Node000004" class="node">
<title>Node4</title>
<g id="a_Node000004"><a xlink:href="class_w_p_r_1_1_repository_1_1_user_repository.html#ae8b7a3c517ffe6cb1b85eee60e5b2292" target="_top" xlink:title="AddCustomerChecks kijkt of alle ingevoerde velden geldig zijn. Als een check faalt falen alle checks.">
<polygon fill="white" stroke="#666666" points="562.5,-167.08 399.5,-167.08 399.5,-135.08 562.5,-135.08 562.5,-167.08"/>
<text text-anchor="start" x="407.5" y="-153.58" font-family="Helvetica,sans-Serif" font-size="10.00">WPR.Repository.UserRepository.</text>
<text text-anchor="middle" x="481" y="-141.58" font-family="Helvetica,sans-Serif" font-size="10.00">AddCustomerChecks</text>
</a>
</g>
</g>
<!-- Node1&#45;&gt;Node4 -->
<g id="edge3_Node000001_Node000004" class="edge">
<title>Node1&#45;&gt;Node4</title>
<g id="a_edge3_Node000001_Node000004"><a xlink:title=" ">
<path fill="none" stroke="#63b8ff" d="M588.59,-139.27C580.04,-140.22 571.43,-141.17 562.99,-142.11"/>
<polygon fill="#63b8ff" stroke="#63b8ff" points="588.7,-142.78 598.26,-138.2 587.93,-135.82 588.7,-142.78"/>
</a>
</g>
</g>
<!-- Node5 -->
<g id="Node000005" class="node">
<title>Node5</title>
<g id="a_Node000005"><a xlink:href="class_w_p_r_1_1_repository_1_1_user_repository.html#a4fe2a09bb575fb8d9510828ef5ad9813" target="_top" xlink:title="AddPrivateCustomerDetails zorgt ervoor dat alle extra details van particuliere huurders toegevoegd wo...">
<polygon fill="white" stroke="#666666" points="362,-126.08 199,-126.08 199,-94.08 362,-94.08 362,-126.08"/>
<text text-anchor="start" x="207" y="-112.58" font-family="Helvetica,sans-Serif" font-size="10.00">WPR.Repository.UserRepository.</text>
<text text-anchor="middle" x="280.5" y="-100.58" font-family="Helvetica,sans-Serif" font-size="10.00">AddPrivateCustomerDetails</text>
</a>
</g>
</g>
<!-- Node1&#45;&gt;Node5 -->
<g id="edge7_Node000001_Node000005" class="edge">
<title>Node1&#45;&gt;Node5</title>
<g id="a_edge7_Node000001_Node000005"><a xlink:title=" ">
<path fill="none" stroke="#63b8ff" d="M588.58,-124.71C520.29,-121.45 427.99,-117.06 362.47,-113.94"/>
<polygon fill="#63b8ff" stroke="#63b8ff" points="588.09,-128.19 598.24,-125.17 588.42,-121.19 588.09,-128.19"/>
</a>
</g>
</g>
<!-- Node6 -->
<g id="Node000006" class="node">
<title>Node6</title>
<g id="a_Node000006"><a xlink:href="namespace_w_p_r_1_1_controllers_1_1_general_1_1_sign_up.html#aa900677400c93afffd84ac3aba306774" target="_top" xlink:title=" ">
<polygon fill="white" stroke="#666666" points="563.25,-61.08 398.75,-61.08 398.75,-29.08 563.25,-29.08 563.25,-61.08"/>
<text text-anchor="start" x="406.75" y="-47.58" font-family="Helvetica,sans-Serif" font-size="10.00">WPR.Controllers.General.</text>
<text text-anchor="middle" x="481" y="-35.58" font-family="Helvetica,sans-Serif" font-size="10.00">SignUp.CombinedSignUpRequest</text>
</a>
</g>
</g>
<!-- Node1&#45;&gt;Node6 -->
<g id="edge8_Node000001_Node000006" class="edge">
<title>Node1&#45;&gt;Node6</title>
<g id="a_edge8_Node000001_Node000006"><a xlink:title=" ">
<path fill="none" stroke="#63b8ff" d="M617.09,-102.25C585.5,-88.88 548.31,-73.14 520.96,-61.57"/>
<polygon fill="#63b8ff" stroke="#63b8ff" points="615.6,-105.42 626.17,-106.09 618.33,-98.97 615.6,-105.42"/>
</a>
</g>
</g>
<!-- Node7 -->
<g id="Node000007" class="node">
<title>Node7</title>
<g id="a_Node000007"><a xlink:href="class_w_p_r_1_1_controllers_1_1_general_1_1_sign_up_1_1_sign_up_controller.html#a0c3be455afaafaebb78fd9fa56da7a4b" target="_top" xlink:title=" ">
<polygon fill="white" stroke="#666666" points="360.88,-39.08 200.12,-39.08 200.12,-7.08 360.88,-7.08 360.88,-39.08"/>
<text text-anchor="start" x="208.12" y="-25.58" font-family="Helvetica,sans-Serif" font-size="10.00">WPR.Controllers.General.</text>
<text text-anchor="middle" x="280.5" y="-13.58" font-family="Helvetica,sans-Serif" font-size="10.00">SignUp.SignUpController.SignUp</text>
</a>
</g>
</g>
<!-- Node1&#45;&gt;Node7 -->
<g id="edge11_Node000001_Node000007" class="edge">
<title>Node1&#45;&gt;Node7</title>
<g id="a_edge11_Node000001_Node000007"><a xlink:title=" ">
<path fill="none" stroke="#63b8ff" d="M658.23,-97.89C637.32,-71.53 603.41,-35.64 564,-20.08 499.22,5.5 419.39,1.78 361.13,-6.61"/>
<polygon fill="#63b8ff" stroke="#63b8ff" points="655.27,-99.78 664.14,-105.57 660.81,-95.51 655.27,-99.78"/>
</a>
</g>
</g>
<!-- Node4&#45;&gt;Node3 -->
<g id="edge4_Node000004_Node000003" class="edge">
<title>Node4&#45;&gt;Node3</title>
<g id="a_edge4_Node000004_Node000003"><a xlink:title=" ">
<path fill="none" stroke="#63b8ff" d="M387.96,-151.78C320.02,-152.29 228.43,-152.98 163.31,-153.47"/>
<polygon fill="#63b8ff" stroke="#63b8ff" points="387.59,-155.28 397.57,-151.71 387.54,-148.28 387.59,-155.28"/>
</a>
</g>
</g>
<!-- Node4&#45;&gt;Node5 -->
<g id="edge5_Node000004_Node000005" class="edge">
<title>Node4&#45;&gt;Node5</title>
<g id="a_edge5_Node000004_Node000005"><a xlink:title=" ">
<path fill="none" stroke="#63b8ff" d="M388.91,-132.27C379.67,-130.36 370.33,-128.43 361.22,-126.55"/>
<polygon fill="#63b8ff" stroke="#63b8ff" points="388.14,-135.68 398.64,-134.28 389.55,-128.83 388.14,-135.68"/>
</a>
</g>
</g>
<!-- Node5&#45;&gt;Node3 -->
<g id="edge6_Node000005_Node000003" class="edge">
<title>Node5&#45;&gt;Node3</title>
<g id="a_edge6_Node000005_Node000003"><a xlink:title=" ">
<path fill="none" stroke="#63b8ff" d="M194.75,-129.01C181.98,-131.87 168.89,-134.79 156.37,-137.58"/>
<polygon fill="#63b8ff" stroke="#63b8ff" points="195.39,-132.46 204.39,-126.86 193.86,-125.62 195.39,-132.46"/>
</a>
</g>
</g>
<!-- Node6&#45;&gt;Node6 -->
<g id="edge9_Node000006_Node000006" class="edge">
<title>Node6&#45;&gt;Node6</title>
<g id="a_edge9_Node000006_Node000006"><a xlink:title=" ">
<path fill="none" stroke="#63b8ff" d="M514.41,-72.79C508.84,-76.57 497.7,-79.08 481,-79.08 450.46,-79.08 438.52,-70.67 445.21,-61.53"/>
<polygon fill="#63b8ff" stroke="#63b8ff" points="517.84,-73.51 516.48,-63.01 510.99,-72.07 517.84,-73.51"/>
</a>
</g>
</g>
<!-- Node6&#45;&gt;Node7 -->
<g id="edge10_Node000006_Node000007" class="edge">
<title>Node6&#45;&gt;Node7</title>
<g id="a_edge10_Node000006_Node000007"><a xlink:title=" ">
<path fill="none" stroke="#63b8ff" d="M387.08,-34.78C378.42,-33.83 369.7,-32.86 361.18,-31.91"/>
<polygon fill="#63b8ff" stroke="#63b8ff" points="386.57,-38.25 396.9,-35.87 387.35,-31.29 386.57,-38.25"/>
</a>
</g>
</g>
</g>
</svg>
